<?xml version="1.0" encoding="UTF-8"?>
<svg xmlns="http://www.w3.org/2000/svg" id="Layer_1" data-name="Layer 1" width="294.75" height="110.38" viewBox="0 0 294.75 110.38">
  <defs>
    <style>
      .cls-1 {
        fill: #85ce19;
        stroke: #85ce19;
        stroke-miterlimit: 10;
        stroke-width: 4px;
      }

      .cls-2 {
        fill: #014f42;
      }

      .cls-3 {
        fill: #2ba953;
      }
    </style>
  </defs>
  <polygon class="cls-1" points="2 4.93 2 20.85 2 36.27 2 36.76 2 52.19 2 67.78 2 68.1 2 83.69 23.11 105.45 23.11 89.86 23.11 89.54 23.11 73.95 23.11 58.52 23.11 58.03 23.11 42.61 23.11 26.69 2 4.93"></polygon>
  <g>
    <polygon class="cls-3" points="23.11 42.61 2 20.85 2 4.93 23.11 26.69 23.11 42.61"></polygon>
    <polygon class="cls-2" points="23.11 58.52 2 36.76 2 20.85 23.11 42.61 23.11 58.52"></polygon>
    <polygon class="cls-3" points="23.11 73.95 2 52.19 2 36.27 23.11 58.03 23.11 73.95"></polygon>
    <polygon class="cls-2" points="23.11 89.86 2 68.1 2 52.19 23.11 73.95 23.11 89.86"></polygon>
    <polygon class="cls-3" points="23.11 105.45 2 83.69 2 67.78 23.11 89.54 23.11 105.45"></polygon>
  </g>
  <g>
    <path class="cls-2" d="M41.78,52.57v18.91c0,1.76.37,3.74,2.56,3.74s2.51-1.71,2.51-3.72v-18.94h6.23v18.73c0,5.5-2.69,8.78-8.88,8.78s-8.63-3.25-8.63-8.83v-18.68h6.21Z"></path>
    <path class="cls-2" d="M62.89,68.52v11.05h-6.12v-27.01h9.12c5.21,0,7.86,2.59,7.86,7.48,0,3.74-1.84,5.49-3.47,6.13,2.11.94,3.11,2.68,3.11,6.56v.94c0,3,.12,4.71.29,5.89h-6.02c-.32-1.04-.42-3.45-.42-6.09v-.93c0-3.19-.64-4.04-3.01-4.04h-1.34ZM62.9,63.88h1.44c2.32,0,3.21-.84,3.21-3.48,0-2.23-.79-3.2-2.82-3.2h-1.83v6.68Z"></path>
    <path class="cls-2" d="M76.94,52.57h8.98c4.84,0,7.54,2.47,7.54,6.93,0,3.37-1.54,4.96-3.22,5.57,1.94.77,3.95,2.48,3.95,6.49,0,5.35-3.26,8.01-8.48,8.01h-8.78v-27.01ZM84.62,63.1c2.29,0,2.83-.92,2.83-3.01s-.86-2.99-2.76-2.99h-1.72v6h1.65ZM82.97,75.09h1.96c1.92,0,2.91-.91,2.91-3.73s-.8-3.89-3.28-3.89h-1.6v7.62Z"></path>
    <path class="cls-2" d="M102.75,73.79l-.92,5.78h-6.21l5.33-27.01h8.72l5.4,27.01h-6.45l-.95-5.78h-4.93ZM106.86,68.57c-.61-3.94-1.2-8.34-1.55-10.82h-.2c-.26,2.59-.92,6.88-1.56,10.82h3.31Z"></path>
    <path class="cls-2" d="M117.12,79.57v-27.01h6.79c4.11,12.73,5.06,15.79,5.34,17.02h.11c-.27-3.4-.35-7.85-.35-12.06v-4.96h5.48v27.01h-6.69c-4.27-14.04-5.07-16.76-5.37-17.93h-.12c.21,3.25.33,8.25.33,12.67v5.26h-5.51Z"></path>
    <path class="cls-3" d="M155.78,79.57h-4.56c-.11-.71-.2-1.39-.23-2.13-1.17,2.1-3.18,2.64-5.3,2.64-5.39,0-7.86-4.04-7.86-13.84,0-10.7,3.69-14.16,9.58-14.16,7.63,0,8.24,6.03,8.31,8.14h-6.21c-.07-1.32-.25-3.25-2.3-3.25-2.31,0-2.88,3.03-2.88,9.31s.55,8.92,2.78,8.92c1.88,0,2.45-1.58,2.45-4.49v-1.73h-2.66v-4.87h8.86v15.46Z"></path>
    <path class="cls-3" d="M164.99,73.79l-.92,5.78h-6.21l5.33-27.01h8.72l5.4,27.01h-6.45l-.95-5.78h-4.93ZM169.1,68.57c-.61-3.94-1.2-8.34-1.55-10.82h-.2c-.26,2.59-.92,6.88-1.56,10.82h3.31Z"></path>
    <path class="cls-3" d="M185.48,68.52v11.05h-6.12v-27.01h9.12c5.21,0,7.86,2.59,7.86,7.48,0,3.74-1.84,5.49-3.47,6.13,2.11.94,3.11,2.68,3.11,6.56v.94c0,3,.12,4.71.29,5.89h-6.02c-.32-1.04-.42-3.45-.42-6.09v-.93c0-3.19-.64-4.04-3.01-4.04h-1.34ZM185.5,63.88h1.44c2.32,0,3.21-.84,3.21-3.48,0-2.23-.79-3.2-2.82-3.2h-1.83v6.68Z"></path>
    <path class="cls-3" d="M199.56,52.57h7.71c7.05,0,9.92,4,9.92,12.98,0,9.57-2.84,14.02-10.14,14.02h-7.5v-27.01ZM205.79,74.86h1.15c2.89,0,3.73-2.04,3.73-9.41,0-6.17-.76-8.12-3.69-8.12h-1.19v17.53Z"></path>
    <path class="cls-3" d="M234.74,68.13h-8.18v6.44h9.26l-.72,5.01h-14.62v-27.01h14.63v5.08h-8.55v5.43h8.18v5.05Z"></path>
    <path class="cls-3" d="M238.4,79.57v-27.01h6.79c4.11,12.73,5.06,15.79,5.34,17.02h.11c-.27-3.4-.35-7.85-.35-12.06v-4.96h5.48v27.01h-6.69c-4.27-14.04-5.07-16.76-5.37-17.93h-.12c.21,3.25.33,8.25.33,12.67v5.26h-5.51Z"></path>
    <path class="cls-3" d="M274.1,68.13h-8.18v6.44h9.26l-.72,5.01h-14.62v-27.01h14.63v5.08h-8.55v5.43h8.18v5.05Z"></path>
    <path class="cls-3" d="M283.88,68.52v11.05h-6.12v-27.01h9.12c5.21,0,7.87,2.59,7.87,7.48,0,3.74-1.84,5.49-3.47,6.13,2.11.94,3.11,2.68,3.11,6.56v.94c0,3,.12,4.71.29,5.89h-6.02c-.32-1.04-.42-3.45-.42-6.09v-.93c0-3.19-.64-4.04-3.01-4.04h-1.34ZM283.9,63.88h1.44c2.32,0,3.21-.84,3.21-3.48,0-2.23-.79-3.2-2.82-3.2h-1.83v6.68Z"></path>
  </g>
  <g>
    <path class="cls-2" d="M37.51,30.38h-3.78v-1.66h9.43v1.66h-3.78v15.31h-1.86v-15.31Z"></path>
    <path class="cls-2" d="M44.59,28.71h1.86v7.17h5.51v-7.17h1.86v16.98h-1.86v-8.15h-5.51v8.15h-1.86v-16.98Z"></path>
    <path class="cls-2" d="M64.33,37.54h-5.66v6.5h6.29l-.25,1.65h-7.88v-16.98h7.79v1.66h-5.95v5.51h5.66v1.65Z"></path>
  </g>
  <g>
    <path class="cls-2" d="M48.49,97.41c0-3.8.06-7.61.12-9.76h-.05c-.75,3.52-2.6,12-4.23,18.44h-2.15c-1.22-5.6-3.16-14.72-3.91-18.48h-.08c.12,2.37.21,6.86.21,10.35v8.13h-2.11v-20.38h3.33c1.65,6.4,3.24,14.17,3.73,16.83h.03c.38-2.2,2.36-10.67,3.99-16.83h3.3v20.38h-2.19v-8.68Z"></path>
    <path class="cls-2" d="M56.24,99.63l-1.48,6.47h-2.24l4.92-20.38h2.9l5.07,20.38h-2.38l-1.5-6.47h-5.3ZM61.08,97.64c-1.18-5.01-1.95-8.19-2.22-9.81h-.07c-.28,1.77-1.11,5.44-2.11,9.81h4.4Z"></path>
    <path class="cls-2" d="M67.21,106.09v-20.38h2.75c5.63,14.11,6.42,16.02,6.68,16.91h.03c-.14-2.74-.18-5.8-.18-9.12v-7.79h2.1v20.38h-2.63c-5.85-14.82-6.57-16.69-6.8-17.49h-.03c.15,2.55.17,5.88.17,9.55v7.94h-2.09Z"></path>
    <path class="cls-2" d="M92.78,100.45c-.09,1.18-.61,5.94-5.54,5.94-5.42,0-5.83-5.73-5.83-10.63,0-5.93,1.56-10.33,6.08-10.33,4.91,0,5.18,4.6,5.24,5.84h-2.25c-.04-.69-.17-3.85-3.02-3.85-3.21,0-3.71,4.39-3.71,8.35,0,4.3.48,8.65,3.56,8.65,2.72,0,3.13-2.94,3.22-3.97h2.26Z"></path>
    <path class="cls-2" d="M95.11,85.72h2.24v8.61h6.61v-8.61h2.24v20.38h-2.24v-9.78h-6.61v9.78h-2.24v-20.38Z"></path>
    <path class="cls-2" d="M118.79,96.31h-6.8v7.8h7.55l-.31,1.98h-9.46v-20.38h9.35v2h-7.14v6.61h6.8v1.99Z"></path>
    <path class="cls-2" d="M123,100.74c.16,2.09,1.17,3.77,3.4,3.77s3.21-1.17,3.21-3.51c0-2.14-.87-3.28-3.64-4.62-3.19-1.52-4.6-2.94-4.6-5.89,0-2.8,1.79-5.04,5.12-5.04,3.93,0,5,2.82,5.06,5.21h-2.2c-.1-.99-.4-3.34-2.93-3.34-1.96,0-2.79,1.34-2.79,2.97,0,1.95.87,2.87,3.42,4.09,3.56,1.7,4.87,3.4,4.87,6.43,0,3.22-1.82,5.57-5.57,5.57-4.08,0-5.43-2.67-5.58-5.63h2.24Z"></path>
    <path class="cls-2" d="M137.13,87.71h-4.54v-2h11.32v2h-4.54v18.38h-2.24v-18.38Z"></path>
    <path class="cls-2" d="M154.64,96.31h-6.8v7.8h7.55l-.31,1.98h-9.46v-20.38h9.35v2h-7.14v6.61h6.8v1.99Z"></path>
    <path class="cls-2" d="M159.64,96.71v9.38h-2.22v-20.38h5.32c3.42,0,5.21,1.94,5.21,5.26,0,3.05-1.49,4.34-2.73,4.76,1.89.67,2.47,2.34,2.47,5.19v.81c0,1.9.06,3.25.29,4.35h-2.22c-.28-.93-.3-2.74-.3-4.4v-.69c0-2.9-.59-4.29-3.34-4.29h-2.47ZM159.64,94.81h2.6c2.48,0,3.42-1.4,3.42-3.77,0-2.05-.95-3.42-3.2-3.42h-2.82v7.19Z"></path>
  </g>
</svg>
