<?xml version="1.0" encoding="utf-8"?>
<!-- Generator: Adobe Illustrator 27.0.0, SVG Export Plug-In . SVG Version: 6.00 Build 0)  -->
<svg version="1.1" id="Layer_1" xmlns="http://www.w3.org/2000/svg" xmlns:xlink="http://www.w3.org/1999/xlink" x="0px" y="0px"
	 viewBox="0 0 754.48 246.3" style="enable-background:new 0 0 754.48 246.3;" xml:space="preserve">
<style type="text/css">
	.st0{fill:#00B6F1;}
	.st1{fill:#7C7C7C;}
	.st2{fill:url(#SVGID_1_);}
</style>
<g>
	<polygon points="300.84,159.86 282.73,109.46 264.13,159.86 245.9,159.86 217.55,82.78 238.29,82.78 255.56,134.59 274.11,82.78 
		291.42,82.78 309.58,134.7 327.35,82.78 348.09,82.78 319.19,159.86 	"/>
	<rect x="360.7" y="82.78" width="18.3" height="77.08"/>
	<polygon points="463.8,159.86 415.26,109.11 415.26,159.86 397.49,159.86 397.49,82.78 415.79,82.78 462.95,132.54 462.95,82.78 
		480.83,82.78 480.83,159.86 	"/>
	<polygon class="st0" points="521.29,159.86 521.29,101.29 494.65,101.29 494.65,82.78 566.22,82.78 566.22,101.29 539.59,101.29 
		539.59,159.86 	"/>
	<polygon class="st0" points="580.47,159.86 580.47,82.78 654.66,82.78 648.02,101.29 598.77,101.29 598.77,113.34 653.09,113.34 
		646.42,129.19 598.77,129.19 598.77,141.35 654.66,141.35 648.02,159.86 	"/>
	<path class="st0" d="M693.18,159.86c-4.55,0-8.4-0.42-11.46-1.24c-3.25-0.87-5.9-2.36-7.89-4.43c-1.98-2.06-3.4-4.82-4.22-8.2
		c-0.78-3.19-1.17-7.17-1.17-11.84v-25.68c0-4.66,0.4-8.64,1.17-11.84c0.82-3.37,2.24-6.14,4.21-8.24c2-2.12,4.66-3.61,7.93-4.45
		c3.05-0.78,6.9-1.18,11.44-1.18h40.96c2.92,0,5.53,0.42,7.76,1.24c2.2,0.81,4.12,1.84,5.69,3.06c1.58,1.22,2.86,2.56,3.83,3.96
		c0.92,1.35,1.63,2.59,2.1,3.69l0.54,1.26l-12.17,12.45l-1.23-2.73c-0.51-1.12-1.35-2.18-2.51-3.13c-1.03-0.85-2.7-1.28-4.96-1.28
		h-39.89c-2.55,0-4.35,0.48-5.21,1.38c-0.61,0.65-1.35,2.18-1.35,5.79v25.72c0,1.41,0.1,2.63,0.28,3.65
		c0.15,0.81,0.42,1.46,0.83,1.98c0.35,0.46,0.89,0.81,1.65,1.06c0.91,0.31,2.19,0.47,3.8,0.47h40.43c2.31,0,3.97-0.42,4.92-1.25
		c1.11-0.97,1.93-2.03,2.45-3.17l1.22-2.72l12.18,12.35l-0.54,1.26c-0.47,1.11-1.18,2.36-2.1,3.72c-0.97,1.42-2.25,2.76-3.83,3.99
		c-1.58,1.23-3.49,2.27-5.7,3.08c-2.23,0.83-4.84,1.25-7.76,1.25H693.18z"/>
	<g>
		<path class="st1" d="M23.29,181.97V64.32l22.69,8.46V47.93L6.87,33.34C3.54,32.1,0,34.56,0,38.11v170.07
			c0,3.55,3.54,6.01,6.87,4.77l39.11-14.59v-24.86L23.29,181.97z"/>
		<path class="st1" d="M87.73,157.93l-18.47,6.89v24.86l36.43-13.59c3.2-1.19,5.32-4.25,5.32-7.67V77.88c0-3.42-2.12-6.47-5.32-7.67
			L69.27,56.62v24.86l18.47,6.89V157.93z"/>
		<linearGradient id="SVGID_1_" gradientUnits="userSpaceOnUse" x1="47.7198" y1="245.0505" x2="140.1724" y2="152.5979">
			<stop  offset="0" style="stop-color:#6ACFF6"/>
			<stop  offset="0.136" style="stop-color:#41C7F4"/>
			<stop  offset="0.4073" style="stop-color:#00BBF2"/>
			<stop  offset="0.6513" style="stop-color:#00B3F0"/>
			<stop  offset="0.8572" style="stop-color:#00AFEF"/>
			<stop  offset="1" style="stop-color:#00AEEF"/>
		</linearGradient>
		<path class="st2" d="M116.78,195.56L69.27,214.4v-24.73v-24.86l-23.29,8.69v24.86v42.84c0,3.59,3.63,6.06,6.97,4.73l66.81-26.5
			l25.83-10.25l18.69-7.42v-25.05L116.78,195.56z"/>
		<path d="M182.41,51.72L52.95,0.36c-3.34-1.33-6.97,1.14-6.97,4.73v42.84v24.86v100.72l23.29-8.69v-41.67V81.48V56.62V31.89
			l95.02,37.69v107.13v25.05l18.12-7.19c3.12-1.24,5.17-4.25,5.17-7.61V59.33C187.58,55.97,185.53,52.95,182.41,51.72z"/>
	</g>
</g>
</svg>
