<svg xmlns="http://www.w3.org/2000/svg" xmlns:xlink="http://www.w3.org/1999/xlink" id="uuid-9f75f6d7-f3df-4e00-ab04-c22a7d54e4fc" data-name="Layer 1" viewBox="0 0 712.337 155.534"><defs><linearGradient id="uuid-f0971cc0-18be-4001-8f32-b7bfdbde71de" x1="171.668" y1="126.54" x2="712.337" y2="126.54" gradientUnits="userSpaceOnUse"><stop offset="0" stop-color="#e40000"></stop><stop offset=".335" stop-color="#ee4f08"></stop><stop offset=".655" stop-color="#f7950f"></stop><stop offset=".884" stop-color="#fcc013"></stop><stop offset="1" stop-color="#ffd115"></stop></linearGradient><radialGradient id="uuid-7502a978-a945-43de-a728-23dda321fd41" cx="79.3" cy="80.415" fx="79.3" fy="106.736" r="27.084" gradientTransform="translate(0 -16.083) scale(1 1.2)" gradientUnits="userSpaceOnUse"><stop offset="0" stop-color="#ffd115"></stop><stop offset=".491" stop-color="#f06309"></stop><stop offset=".839" stop-color="#e71b02"></stop><stop offset="1" stop-color="#e40000"></stop></radialGradient></defs><g><rect x="171.668" y="104.251" width="540.669" height="44.578" style="fill: url(#uuid-f0971cc0-18be-4001-8f32-b7bfdbde71de); stroke-width: 0px;"></rect><g><path d="M171.668,13.597h53.949c28.822,0,43.709,15.625,43.709,37.585,0,21.748-14.675,37.902-43.709,37.902h-53.949V13.597ZM191.094,26.265v50.254h30.617c19.531,0,27.45-11.508,27.45-25.444s-7.707-24.811-27.45-24.811h-30.617Z" style="fill: #e61901; stroke-width: 0px;"></path><path d="M303.431,89.083h-19.32l42.124-75.486h19.637l41.492,75.486h-22.171l-7.918-15.097h-45.925l-7.918,15.097ZM318.634,60.155h31.461l-15.625-29.878-15.836,29.878Z" style="fill: #e61901; stroke-width: 0px;"></path><path d="M411.229,13.597h19.425v62.184h54.688v13.302h-74.113V13.597Z" style="fill: #e61901; stroke-width: 0px;"></path><path d="M511.951,89.083V13.597h77.386v12.669h-57.961v17.631h36.318v13.408h-36.318v19.215h62.501v12.563h-81.926Z" style="fill: #e61901; stroke-width: 0px;"></path><path d="M651.737,59.733l-41.175-46.136h26.394l26.394,31.778,26.288-31.778h22.698l-41.068,46.031v29.455h-19.532v-29.35Z" style="fill: #e61901; stroke-width: 0px;"></path></g><g><path d="M212.811,138.686v-24.461h19.731c.862,0,1.655.216,2.382.647.725.431,1.304,1.004,1.735,1.718.43.714.646,1.502.646,2.365v6.6c0,.862-.216,1.655-.646,2.381-.431.726-1.01,1.299-1.735,1.718-.726.42-1.52.63-2.382.63l-15.241.034v8.369h-4.491ZM217.71,125.758h14.629c.113,0,.215-.034.306-.102s.136-.159.136-.272v-6.26c0-.113-.046-.21-.136-.289s-.192-.119-.306-.119h-14.629c-.113,0-.21.04-.289.119-.08.08-.119.176-.119.289v6.26c0,.113.039.204.119.272.079.068.175.102.289.102Z" style="fill: #0e3373; stroke-width: 0px;"></path><path d="M248.94,138.686v-24.529h4.491v20.004h20.004v4.525h-24.495Z" style="fill: #0e3373; stroke-width: 0px;"></path><path d="M286.889,138.04c-.714-.431-1.288-1.004-1.718-1.718-.431-.714-.647-1.502-.647-2.364v-19.766h4.491v19.561c0,.114.04.21.119.289.079.08.175.119.289.119h14.628c.113,0,.215-.04.306-.119.09-.079.136-.175.136-.289v-19.561h4.525v19.766c0,.862-.215,1.65-.646,2.364-.431.714-1.004,1.288-1.718,1.718-.715.431-1.503.646-2.365.646h-15.037c-.863,0-1.65-.215-2.365-.646Z" style="fill: #0e3373; stroke-width: 0px;"></path><path d="M321.946,138.686v-24.494h4.933l8.879,10.58,8.845-10.58h4.967v24.494h-4.525v-17.963l-9.287,11.056-9.321-11.023v17.929h-4.491Z" style="fill: #0e3373; stroke-width: 0px;"></path><path d="M362.805,114.191h18.779c.862,0,1.65.216,2.364.646.714.431,1.287,1.004,1.718,1.718.43.714.646,1.502.646,2.364v4.797c0,.295-.023.578-.068.85-.046.272-.125.533-.238.782.385.522.698,1.067.936,1.633.238.567.357,1.135.357,1.701v5.273c0,.862-.215,1.65-.646,2.364-.431.714-1.009,1.288-1.735,1.718-.726.431-1.52.646-2.382.646h-19.731v-24.494ZM367.704,123.955h13.676c.113,0,.204-.039.272-.119.068-.079.102-.175.102-.289v-4.423c0-.113-.034-.21-.102-.289-.068-.08-.159-.119-.272-.119h-13.676c-.114,0-.21.04-.289.119-.08.08-.119.176-.119.289v4.423c0,.113.04.21.119.289.079.08.175.119.289.119ZM367.704,134.161h14.628c.113,0,.215-.04.306-.119.09-.079.136-.175.136-.289v-4.865c0-.113-.046-.21-.136-.289-.091-.079-.193-.119-.306-.119h-14.628c-.114,0-.21.04-.289.119-.08.08-.119.176-.119.289v4.865c0,.114.04.21.119.289.079.08.175.119.289.119Z" style="fill: #0e3373; stroke-width: 0px;"></path><path d="M399.716,138.686v-24.494h4.457v24.494h-4.457Z" style="fill: #0e3373; stroke-width: 0px;"></path><path d="M416.658,138.686v-24.494h4.933l15.037,17.895v-17.895h4.525v24.494h-4.933l-15.071-17.929v17.929h-4.491Z" style="fill: #0e3373; stroke-width: 0px;"></path><path d="M458.876,138.686c-.862,0-1.65-.215-2.364-.646-.715-.431-1.288-1.004-1.718-1.718s-.646-1.502-.646-2.364v-15.037c0-.862.215-1.65.646-2.364.431-.715,1.004-1.287,1.718-1.718.714-.43,1.502-.646,2.364-.646h15.003c.862,0,1.655.216,2.382.646.725.431,1.304,1.004,1.735,1.718.43.714.646,1.502.646,2.364v1.905h-4.525v-1.701c0-.113-.046-.21-.136-.289s-.192-.119-.306-.119h-14.629c-.113,0-.21.04-.289.119-.08.08-.119.176-.119.289v14.628c0,.114.039.21.119.289.079.08.175.119.289.119h14.629c.113,0,.215-.04.306-.119.091-.079.136-.175.136-.289v-4.423h-5.545v-4.525h10.07v9.152c0,.862-.216,1.65-.646,2.364-.431.714-1.01,1.288-1.735,1.718-.726.431-1.52.646-2.382.646h-15.003Z" style="fill: #0e3373; stroke-width: 0px;"></path><path d="M515.758,138.686c-.863,0-1.645-.21-2.347-.63-.703-.419-1.27-.981-1.701-1.684-.431-.702-.646-1.497-.646-2.381v-6.6c0-.499.181-1.009.544-1.531.362-.521.862-.895,1.497-1.123-.499-.567-.749-1.315-.749-2.245v-3.572c0-.884.215-1.684.647-2.398.43-.714.997-1.276,1.7-1.684.703-.408,1.474-.612,2.314-.612h12.621c.748,0,1.457.17,2.126.51s1.23.805,1.684,1.395c.454.59.748,1.248.884,1.973v2.619h-4.456v-1.599c0-.113-.04-.21-.119-.289-.08-.08-.176-.119-.29-.119h-12.247c-.113,0-.21.04-.29.119-.079.08-.118.176-.118.289v4.014l14.05,7.076v-3.708h4.456v5.545l4.083,2.415v4.457l-4.729-2.688c-.431.726-1.009,1.316-1.736,1.769-.725.454-1.496.68-2.313.68h-14.867ZM515.927,134.229h11.873c.25,0,.488-.034.715-.103.227-.068.442-.158.646-.272l-12.689-6.395-.511-.204c-.136,0-.244.102-.323.306-.08.204-.119.612-.119,1.225v5.035c0,.114.039.21.119.289.079.08.175.119.289.119Z" style="fill: #0e3373; stroke-width: 0px;"></path><path d="M576.586,138.686c-.863,0-1.651-.215-2.365-.646-.715-.431-1.288-1.004-1.718-1.718s-.646-1.502-.646-2.364v-15.037c0-.862.215-1.65.646-2.364.431-.715,1.004-1.287,1.718-1.718.714-.43,1.502-.646,2.365-.646h15.003c.862,0,1.655.216,2.381.646.726.431,1.305,1.004,1.736,1.718.431.714.646,1.502.646,2.364v1.905h-4.524v-1.701c0-.113-.046-.21-.136-.289-.092-.08-.194-.119-.307-.119h-14.628c-.113,0-.21.04-.289.119-.08.08-.119.176-.119.289v14.628c0,.114.039.21.119.289.079.08.175.119.289.119h14.628c.113,0,.215-.04.307-.119.091-.079.136-.175.136-.289v-4.423h-5.546v-4.525h10.07v9.152c0,.862-.215,1.65-.646,2.364s-1.009,1.288-1.736,1.718c-.725.431-1.519.646-2.381.646h-15.003Z" style="fill: #0e3373; stroke-width: 0px;"></path><path d="M609.346,118.92c0-.862.215-1.65.647-2.364.43-.715,1.004-1.287,1.717-1.718.715-.43,1.503-.646,2.365-.646h15.003c.862,0,1.655.216,2.382.646.725.431,1.304,1.004,1.734,1.718.431.714.646,1.502.646,2.364v19.766h-4.524v-8.233h-15.48v8.233h-4.491v-19.766ZM629.316,125.962v-6.838c0-.113-.046-.21-.136-.289s-.192-.119-.306-.119h-14.628c-.115,0-.211.04-.29.119s-.119.176-.119.289v6.838h15.48Z" style="fill: #0e3373; stroke-width: 0px;"></path><path d="M651.532,138.686c-.863,0-1.651-.215-2.365-.646-.715-.431-1.288-1.004-1.718-1.718s-.646-1.502-.646-2.364v-1.871h4.491v1.667c0,.114.039.21.119.289.079.08.175.119.289.119h14.663c.113,0,.21-.04.29-.119.079-.079.118-.175.118-.289v-4.661c0-.113-.039-.204-.118-.272-.08-.068-.176-.102-.29-.102h-14.832c-.863,0-1.651-.215-2.365-.646-.715-.431-1.288-1.004-1.718-1.718-.431-.714-.646-1.514-.646-2.398v-5.035c0-.862.215-1.65.646-2.364.431-.715,1.004-1.287,1.718-1.718.714-.43,1.502-.646,2.365-.646h15.036c.862,0,1.651.216,2.365.646.715.431,1.287,1.004,1.718,1.718.431.714.646,1.502.646,2.364v1.871h-4.525v-1.667c0-.113-.039-.21-.118-.289-.08-.08-.176-.119-.29-.119h-14.663c-.113,0-.21.04-.289.119-.08.08-.119.176-.119.289v4.66c0,.114.039.204.119.272.079.068.175.103.289.103h14.867c.862,0,1.651.215,2.365.646.715.431,1.287,1.004,1.718,1.718.431.715.646,1.514.646,2.398v5.036c0,.862-.215,1.65-.646,2.364-.432.714-1.004,1.288-1.718,1.718-.714.431-1.503.646-2.365.646h-15.036Z" style="fill: #0e3373; stroke-width: 0px;"></path></g></g><g><path d="M153.443,81.213c0,67.616-66.592,67.616-66.592,67.616H25.383l18.95-35.575h48.177s22.743,0,22.743-32.042-22.743-32.042-22.743-32.042h-48.177v49.202H6.433V23.507c0-5.475,4.435-9.911,9.895-9.911h24.425l1.04-5.888h-14.407v-3.594c0-2.279,1.851-4.114,4.13-4.114h38.068c2.279,0,4.114,1.835,4.114,4.114v3.594h-14.392l1.04,5.888h26.505s66.592,0,66.592,67.616Z" style="fill: #0e3373; stroke-width: 0px;"></path><g><path d="M1.5,69.13v-5.091c0-3.096,2.457-5.615,5.478-5.615h36.807c3.021,0,5.478,2.519,5.478,5.615v5.091H1.5Z" style="fill: #0e3373; stroke-width: 0px;"></path><path d="M43.784,59.925c2.197,0,3.977,1.842,3.977,4.115v3.591H3v-3.591c0-2.272,1.781-4.115,3.977-4.115h36.807M43.784,56.925H6.977c-3.847,0-6.977,3.192-6.977,7.115v6.591h50.761v-6.591c0-3.923-3.13-7.115-6.977-7.115h0Z" style="fill: #e3f9ff; stroke-width: 0px;"></path></g><g><path d="M28.867,154.034c-12.001,0-21.765-9.297-21.765-20.725,0-2.051.312-4.073.927-6.01.553-1.74,1.426-3.263,2.125-4.394,9.177-14.834,17.248-34.188,17.328-34.382l1.386-3.336,1.386,3.336c.08.194,8.163,19.579,17.348,34.417,1.026,1.657,1.678,2.996,2.109,4.343.621,1.943.937,3.97.937,6.025,0,11.428-9.771,20.725-21.78,20.725Z" style="fill: #21a6e8; stroke-width: 0px;"></path><path d="M28.868,89.099s8.1,19.513,17.458,34.632c.786,1.27,1.5,2.589,1.955,4.011.565,1.764.866,3.635.866,5.567,0,10.614-9.085,19.225-20.28,19.225s-20.265-8.611-20.265-19.225c0-1.937.299-3.8.857-5.556.457-1.44,1.177-2.775,1.972-4.059,9.349-15.114,17.437-34.595,17.437-34.595M28.868,81.276l-2.771,6.672c-.08.193-8.109,19.441-17.218,34.168-.745,1.204-1.677,2.83-2.28,4.73-.662,2.084-.997,4.259-.997,6.463,0,12.255,10.437,22.225,23.265,22.225s23.28-9.97,23.28-22.225c0-2.212-.339-4.393-1.009-6.483-.601-1.876-1.524-3.484-2.261-4.675-9.118-14.731-17.159-34.01-17.239-34.203l-2.77-6.672h0Z" style="fill: #e1fbff; stroke-width: 0px;"></path></g><path d="M27.004,100.517s-11.521,20.797-12.967,27.281,2.494,5.885,2.494,5.885c0,0,2.775-.386,3.83-4.987,1.07-4.663,6.643-28.178,6.643-28.178Z" style="fill: #e3f9ff; stroke-width: 0px;"></path><path d="M99.408,74.035c-.902-1.468-2.049-2.768-3.258-4.007-8.993-9.207-16.839-19.286-16.839-19.286,0,0-7.877,10.079-16.87,19.286-1.193,1.239-2.34,2.539-3.258,4.007-2.233,3.609-3.518,7.861-3.518,12.419,0,13.383,11.104,24.165,24.609,23.615,12.006-.474,21.947-10.247,22.62-22.238.291-5.062-1.025-9.834-3.487-13.795ZM79.296,92.77s-2.019,2.585-4.328,4.955c-.306.321-.612.658-.841,1.04-.566.918-.902,2.019-.902,3.181,0,1.04.26,2.034.734,2.891-2.508-1.698-4.145-4.573-4.145-7.831,0-1.835.505-3.548,1.407-4.986.367-.596.826-1.116,1.315-1.606,3.61-3.701,6.76-7.754,6.76-7.754,0,0,3.166,4.053,6.775,7.754.489.489.948,1.009,1.315,1.606.979,1.591,1.514,3.502,1.392,5.537-.168,2.998-1.774,5.659-4.145,7.265.428-.765.673-1.621.734-2.524.076-1.3-.26-2.524-.887-3.548-.245-.367-.535-.704-.841-1.025-2.309-2.371-4.344-4.955-4.344-4.955ZM98.306,91.424c-.474,8.366-6.546,15.386-14.438,17.374,5.292-1.835,9.238-6.76,9.559-12.572.184-3.028-.612-5.888-2.08-8.259-.551-.887-1.224-1.667-1.958-2.401-5.384-5.521-10.094-11.547-10.094-11.547,0,0-4.695,6.026-10.094,11.547-.719.734-1.407,1.514-1.942,2.401-1.346,2.156-2.111,4.711-2.111,7.433,0,6.225,4.022,11.517,9.605,13.413-8.32-2.049-14.484-9.559-14.484-18.491,0-3.671,1.04-7.097,2.829-10.002.734-1.178,1.652-2.233,2.631-3.227,7.234-7.418,13.566-15.524,13.566-15.524,0,0,6.332,8.106,13.581,15.524.964.994,1.896,2.049,2.615,3.227,1.988,3.196,3.044,7.035,2.814,11.104Z" style="fill: url(#uuid-7502a978-a945-43de-a728-23dda321fd41); stroke-width: 0px;"></path></g></svg>