<svg width="300" height="160" viewBox="0 0 300 160" fill="none" xmlns="http://www.w3.org/2000/svg">
<g opacity="0.93">
<path d="M144.877 100.928V100.942H139.862C139.862 100.942 139.857 100.933 139.857 100.928H144.877Z" fill="#56B3FF"/>
<path d="M100.471 77.2627L93.2463 97.1108L92.8819 98.1082C91.5251 101.81 89.3149 104.644 86.2561 106.606C85.5992 107.028 84.9232 107.402 84.228 107.728C81.6774 108.946 78.8631 109.55 75.7803 109.55H36.0203L32.1704 118.954H85.2972L83.7438 122.929L78.6138 136.064H0L11.3292 103.887C12.686 100.185 14.8962 97.3553 17.955 95.3892C21.0139 93.4279 24.5042 92.4449 28.4308 92.4449H68.1907L72.0407 83.9475H18.9187L25.6021 65.936H91.8655C94.8093 65.936 97.2065 67.1253 99.0571 69.5038C100.908 71.8823 101.378 74.4718 100.471 77.2627Z" fill="#0B5184"/>
<path d="M144.871 100.928V100.942H123.464L123.488 100.928H144.871Z" fill="#0B5184"/>
<path d="M183.951 65.9408H157.332L155.616 66.9335L137.704 77.3011L96.8461 100.947L90.6182 118.508H138.078L136.51 122.929L131.85 136.068H158.464L164.692 118.508H173.187L179.986 100.947H170.924L183.951 65.9408ZM144.876 100.928V100.942H123.465L123.489 100.928L138.179 91.6536L151.1 83.5015L144.876 100.928Z" fill="#0B5184"/>
<path d="M272.303 65.936L265.96 83.4967L207.962 136.064H173.754L177.891 132.251L230.841 83.4967H192.102L193.013 80.9743L198.445 65.936H272.303Z" fill="#0B5184"/>
<path d="M156.527 60.4837L138.284 71.0431C138.759 67.4418 139.468 63.9172 140.399 60.4837H156.527Z" fill="#56B3FF"/>
<path d="M281.688 44.7409V44.7462L281.667 44.7357L281.688 44.7409Z" fill="#56B3FF"/>
<path d="M278.158 26.3454H253.616C253.323 26.3454 253.036 26.355 252.753 26.3742C242.886 20.332 231.283 16.8458 218.866 16.8458C206.448 16.8458 194.884 20.3177 185.027 26.3454H159.43C174.254 10.468 195.364 0.541534 218.794 0.541534C242.224 0.541534 263.339 10.468 278.158 26.3454Z" fill="#56B3FF"/>
<path d="M268.75 145.803H286.513V158.75H242.884V115.113H255.829V135.268C263.457 129.978 269.895 123.102 274.671 115.113C280.486 105.378 283.828 93.989 283.828 81.8231C283.828 73.2106 282.155 64.9913 279.11 57.4722C280.251 56.4556 281.124 55.1848 281.56 53.6263L284.772 46.0544L284.878 45.8098L284.94 45.5557C285.223 44.4192 285.247 43.2012 284.878 41.9927C284.59 41.072 284.111 40.276 283.521 39.6046H286.561L287.203 37.979C295.301 50.6148 299.999 65.6435 299.999 81.7656C299.999 97.8876 295.037 113.755 286.513 126.602C281.666 133.925 275.654 140.408 268.75 145.803Z" fill="#56B3FF"/>
<path d="M66.9728 20.6773L65.7646 24.0293L63.6742 29.8173H63.6694L52.2971 29.7598H52.2875L42.3247 57.127H28.6463L29.8689 53.7702L37.3865 33.1165L38.6091 29.7598H24.9307L26.1436 26.403L28.2292 20.615C43.2165 20.615 54.9436 20.6342 63.4105 20.6629C64.6714 20.6677 65.8557 20.6725 66.9728 20.6773Z" fill="#0B5184"/>
<path d="M213.297 36.6603L213.312 36.6651H213.297V36.6603ZM213.297 36.6603L213.312 36.6651H213.297V36.6603ZM213.297 36.6603L213.312 36.6651H213.297V36.6603ZM213.297 36.6603L213.312 36.6651H213.297V36.6603ZM213.297 36.6603L213.312 36.6651H213.297V36.6603ZM213.297 36.6603L213.312 36.6651H213.297V36.6603Z" fill="#E6EBEE"/>
<path d="M286.873 29.7022L285.545 33.059L284.926 34.6175L284.279 36.2479H258.154L257.977 36.785L256.855 40.1369L277.083 40.1417C278.502 40.1417 279.7 40.5925 280.683 41.4988C281.666 42.4004 281.997 43.4841 281.685 44.7405H281.666L281.685 44.7453L278.382 52.5282C278.248 53.1036 278.003 53.6359 277.648 54.125C277.178 54.7676 276.522 55.3383 275.668 55.8322C274.216 56.6954 272.523 57.1269 270.596 57.1269H237.927L239.135 53.7702L240.521 49.9339H266.645L267.297 46.6874H247.717C247.319 46.6874 246.94 46.6491 246.581 46.5771C245.679 46.3901 244.879 45.9777 244.179 45.3303C243.196 44.4288 242.86 43.345 243.177 42.0887L246.418 34.2434C246.734 32.9391 247.597 31.8649 249.016 30.997C250.431 30.1338 251.965 29.7022 253.614 29.7022H286.873Z" fill="#0B5184"/>
<path d="M242.079 29.7022L240.885 33.059L239.601 36.6603H213.298V36.6651L212.177 40.0219H233.996L232.677 43.3786L231.699 45.8626H209.938L209.52 47.0471L208.346 50.4038H234.413L233.176 53.7606L231.934 57.1269H192.836L194.049 53.7702L202.741 29.7022H242.079Z" fill="#0B5184"/>
<path d="M195.401 31.1744C194.418 30.1913 193.181 29.7022 191.685 29.7022H159.783L151.086 53.7702L149.873 57.1269H181.895C183.702 57.1269 185.318 56.7145 186.732 55.8897C188.147 55.0649 189.11 53.9812 189.619 52.6433L196.283 34.2434C196.676 33.1357 196.384 32.1191 195.401 31.1744ZM182.369 36.5452L181.171 39.8972L177.474 50.2264H165.383L166.596 46.8696L169.036 40.1321L170.336 36.5404H182.369V36.5452Z" fill="#0B5184"/>
<path d="M121.049 29.7022C119.165 29.7022 117.554 30.1146 116.216 30.9394C114.879 31.7259 113.934 32.824 113.383 34.2386L106.287 53.7702L106.009 54.5374L105.53 55.8658L105.069 57.1269H118.278L120.699 50.1689H133.553L132.359 53.5256L132.268 53.7702L131.074 57.1269H144.288L151.872 35.7492L152.826 33.059L154.015 29.7022H121.049ZM137.158 40.0171L135.969 43.2635L123.115 43.2683L124.343 39.9116L125.532 36.6603H138.39L137.158 40.0171Z" fill="#0B5184"/>
<path d="M106.964 31.1168C106.025 30.1722 104.764 29.7022 103.191 29.7022H70.5222L61.7244 53.7702L60.4971 57.1269H73.7056L77.3638 46.5723L83.2033 46.5675L91.1045 57.1269H103.723L103.263 56.47L102.261 55.0314L101.379 53.7702L98.6605 49.8763L97.414 48.0925L96.3496 46.5723L97.414 46.5675C98.4495 46.5675 99.3845 46.462 100.219 46.2462C102.434 45.6996 103.958 44.4096 104.783 42.3812L107.971 34.4209C108.245 33.1213 107.909 32.0184 106.964 31.1168ZM93.5017 39.8972L93.1661 40.7891H78.9555L80.2116 37.4324L80.5473 36.5404H94.7579L93.5017 39.8972Z" fill="#0B5184"/>
</g>
</svg>
