<svg width="112" height="33" viewBox="0 0 112 33" fill="none" xmlns="http://www.w3.org/2000/svg">
<path fill-rule="evenodd" clip-rule="evenodd" d="M103.971 9.98828C103.933 10.1677 103.833 10.3286 103.69 10.444C103.546 10.5595 103.367 10.6224 103.182 10.6225H100.732C100.621 10.6225 100.511 10.6 100.41 10.5563C100.308 10.5126 100.217 10.4486 100.141 10.3683C100.066 10.2881 100.007 10.1932 99.9702 10.0896C99.9329 9.98609 99.9175 9.87604 99.9249 9.76632C99.9249 9.66612 99.9249 9.62553 99.9249 9.62426C100.044 7.11039 98.4468 5.23323 94.8333 5.23323C88.8252 5.23323 84.456 10.1329 83.8829 16.5672C83.2919 23.2121 87.9674 27.0743 94.4363 27.073C96.95 27.0802 99.4502 26.7095 101.852 25.9733C101.986 25.9314 102.128 25.9246 102.265 25.9537C102.403 25.9828 102.53 26.0467 102.635 26.1392C102.739 26.2318 102.818 26.3497 102.863 26.4816C102.909 26.6135 102.919 26.7547 102.893 26.8916L102.127 30.873C102.096 31.0391 102.02 31.1937 101.907 31.3205C101.795 31.4473 101.65 31.5416 101.488 31.5934C100.162 32.0132 96.439 33 90.7398 33C77.2009 33 71.7085 25.2631 72.5573 17.3752C73.3193 10.351 77.9974 4.10041e-06 96.4415 4.10041e-06C99.3426 -0.0014645 102.23 0.391566 105.024 1.16816C105.259 1.23233 105.46 1.38412 105.585 1.59185C105.709 1.79958 105.749 2.0472 105.694 2.28304L103.971 9.98828ZM28.2684 3.19498C28.2201 3.41131 28.2558 3.63777 28.3681 3.82915C28.4805 4.02053 28.6614 4.16275 28.8747 4.22742C29.6546 4.52675 29.8282 5.27001 29.1479 5.82682L17.8197 15.1822L19.7649 6.36586C20.0968 5.0138 21.1779 4.46334 21.8621 4.2363L21.9731 4.20206C22.1208 4.15667 22.2537 4.07327 22.3584 3.96033C22.4631 3.84738 22.5358 3.70892 22.5692 3.559L23.0338 1.47002C23.0595 1.35388 23.0585 1.23348 23.031 1.11775C23.0035 1.00203 22.9501 0.893935 22.8749 0.801485C22.7996 0.709034 22.7044 0.634594 22.5962 0.583677C22.4881 0.532761 22.3698 0.506672 22.2501 0.507345H7.64542C7.44522 0.507489 7.25104 0.57541 7.09488 0.699913C6.93873 0.824416 6.82992 0.998071 6.7864 1.19226L6.31413 3.30787C6.2685 3.51638 6.30204 3.73429 6.4083 3.91972C6.51456 4.10514 6.68604 4.245 6.88979 4.3124L7.03402 4.36187C7.95049 4.71828 9.01246 5.52114 8.56572 7.63168L5.07601 23.4709C4.16465 27.7972 2.68912 28.6813 1.28124 28.8423H1.23656C1.05337 28.864 0.881405 28.9414 0.74428 29.0641C0.607156 29.1867 0.511594 29.3485 0.470715 29.5273L0.0188657 31.5566C-0.00759586 31.6789 -0.00620446 31.8054 0.022938 31.9271C0.0520804 32.0487 0.108236 32.1623 0.187291 32.2596C0.266346 32.3569 0.3663 32.4354 0.47983 32.4893C0.59336 32.5432 0.717592 32.5713 0.843427 32.5713H16.1961C16.3756 32.5711 16.5499 32.511 16.6908 32.4006C16.8318 32.2902 16.9314 32.1359 16.9734 31.9625L17.5044 29.5881C17.546 29.4008 17.519 29.2049 17.4282 29.0357C17.3375 28.8664 17.1889 28.7349 17.0092 28.6648L16.9096 28.6255C16.1323 28.3122 15.0716 27.645 15.3422 26.3868L17.1292 18.2871C23.2496 29.3865 25.2701 32.584 32.6133 32.5827H39.2392C39.4207 32.5828 39.5969 32.5214 39.7387 32.4086C39.8804 32.2959 39.9793 32.1385 40.0191 31.9625L40.4837 29.9052C40.5121 29.7818 40.5125 29.6536 40.485 29.53C40.4574 29.4063 40.4026 29.2903 40.3244 29.1903C40.2463 29.0903 40.1467 29.0088 40.033 28.9517C39.9192 28.8946 39.7942 28.8633 39.6668 28.8601C38.0074 28.8347 37.1944 28.453 35.5452 26.345L27.0379 14.9031L38.0942 5.77101C39.5774 4.61808 41.3874 4.29465 42.3893 4.16147L42.4902 4.15132C42.6612 4.13535 42.8226 4.06601 42.9515 3.95322C43.0804 3.84044 43.17 3.69 43.2075 3.52349L43.6594 1.49412C43.6869 1.37592 43.6871 1.25306 43.6601 1.13474C43.6332 1.01642 43.5796 0.905681 43.5035 0.810801C43.4274 0.715921 43.3308 0.639349 43.2207 0.586802C43.1107 0.534256 42.9901 0.507095 42.868 0.507345H29.5665C29.3685 0.508256 29.1766 0.575851 29.0222 0.699094C28.8678 0.822337 28.76 0.993949 28.7164 1.18591L28.2684 3.19498ZM72.2089 9.98448C72.3921 9.98449 72.5699 9.92242 72.7128 9.8085C72.8558 9.69459 72.9554 9.53565 72.9951 9.35791L74.754 1.48017C74.7795 1.36309 74.7784 1.24182 74.7506 1.12525C74.7228 1.00868 74.6692 0.899762 74.5935 0.806481C74.5179 0.713199 74.4222 0.637919 74.3135 0.586159C74.2048 0.534398 74.0858 0.507469 73.9652 0.507345H46.7662C46.5656 0.507264 46.3709 0.575234 46.2145 0.700011C46.0581 0.824787 45.9492 0.998892 45.9059 1.19352L45.4374 3.29772C45.393 3.49688 45.4233 3.70529 45.5224 3.8839C45.6216 4.06251 45.7829 4.19908 45.9761 4.26801L46.068 4.29972C46.9615 4.63964 48.2098 5.50085 47.666 7.61773L42.3345 31.6124C42.3085 31.729 42.3092 31.8499 42.3365 31.9662C42.3638 32.0825 42.417 32.1912 42.4922 32.2843C42.5674 32.3774 42.6627 32.4526 42.771 32.5042C42.8794 32.5559 42.998 32.5827 43.1182 32.5827H55.3526C55.5355 32.5827 55.7129 32.5208 55.8556 32.4071C55.9984 32.2934 56.0978 32.1348 56.1376 31.9574L56.6698 29.5615C56.7081 29.3903 56.6857 29.2112 56.6064 29.0545C56.5271 28.8978 56.3957 28.7731 56.2346 28.7016L56.1159 28.647C55.3398 28.2665 54.1847 27.399 54.5714 25.7197C54.6148 25.4939 55.7763 20.2936 55.7763 20.2936H66.1791C66.3635 20.2933 66.5423 20.2302 66.6856 20.1148C66.8289 19.9994 66.9281 19.8387 66.9666 19.6595L67.9457 15.2786C67.9718 15.1611 67.9711 15.0392 67.9436 14.922C67.9161 14.8048 67.8624 14.6952 67.7866 14.6014C67.7107 14.5075 67.6147 14.4318 67.5055 14.3797C67.3963 14.3277 67.2767 14.3007 67.1556 14.3007H57.1102L58.9853 5.80272L66.0055 5.79384C68.2737 5.79384 68.9655 6.97087 68.834 8.97867C68.834 8.97867 68.834 9.00404 68.8226 9.08521C68.8097 9.19766 68.8207 9.31155 68.8549 9.41949C68.8892 9.52743 68.9459 9.62702 69.0213 9.7118C69.0968 9.79658 69.1893 9.86466 69.2929 9.91163C69.3966 9.95861 69.509 9.98342 69.6229 9.98448H72.2089Z" fill="#E4002B"/>
<path fill-rule="evenodd" clip-rule="evenodd" d="M111.216 6.56281C110.728 7.03689 110.073 7.30235 109.391 7.30235C108.709 7.30235 108.053 7.03689 107.566 6.56281C107.078 6.08874 106.796 5.44373 106.781 4.76592C106.796 4.0881 107.078 3.4431 107.566 2.96903C108.053 2.49495 108.709 2.22949 109.391 2.22949C110.073 2.22949 110.728 2.49495 111.216 2.96903C111.704 3.4431 111.985 4.0881 112.001 4.76592C111.985 5.44373 111.704 6.08874 111.216 6.56281ZM111.464 3.90378C111.355 3.62947 111.193 3.37949 110.985 3.16858C110.778 2.95766 110.53 2.79005 110.257 2.67562C109.984 2.56118 109.69 2.50223 109.393 2.50223C109.097 2.50223 108.803 2.56118 108.53 2.67562C108.256 2.79005 108.009 2.95766 107.802 3.16858C107.594 3.37949 107.432 3.62947 107.323 3.90378C107.214 4.1781 107.162 4.47123 107.169 4.76592C107.162 5.06061 107.214 5.35374 107.323 5.62805C107.432 5.90237 107.594 6.15234 107.802 6.36326C108.009 6.57418 108.256 6.74179 108.53 6.85622C108.803 6.97065 109.097 7.02961 109.393 7.02961C109.69 7.02961 109.984 6.97065 110.257 6.85622C110.53 6.74179 110.778 6.57418 110.985 6.36326C111.193 6.15234 111.355 5.90237 111.464 5.62805C111.572 5.35374 111.625 5.06061 111.618 4.76592C111.625 4.47123 111.572 4.1781 111.464 3.90378ZM109.958 5.74509L109.868 5.33795C109.791 5.05891 109.649 4.98281 109.357 4.98281H108.825V6.02412H108.388V3.43161H109.514C110.106 3.43161 110.414 3.68528 110.414 4.16853C110.417 4.33257 110.356 4.49145 110.245 4.61264C110.134 4.73384 109.98 4.80818 109.815 4.82046C109.93 4.82942 110.038 4.87664 110.123 4.95446C110.207 5.03228 110.262 5.13613 110.28 5.24916L110.396 5.71972C110.419 5.83329 110.472 5.93857 110.55 6.02412H110.086C110.018 5.9447 109.974 5.84808 109.958 5.74509ZM108.825 3.77407V4.63908H109.455C109.803 4.63908 109.966 4.48561 109.966 4.19389C109.966 3.90217 109.803 3.77407 109.455 3.77407H108.825Z" fill="#E4002B"/>
</svg>
