<svg xmlns="http://www.w3.org/2000/svg" width="270" height="52" fill="none" xmlns:v="https://vecta.io/nano"><g clip-path="url(#A)"><g fill-rule="evenodd"><path d="M31.811 9.62c-1.436-1.436-3.053-2.584-4.773-3.453L25.1 8.286c1.961.874 3.787 2.161 5.335 3.876 5.428 6.009 5.4 15.378-.056 21.364-6.316 6.92-17.158 6.925-23.478.009-5.461-5.981-5.493-15.355-.07-21.369a15.86 15.86 0 0 1 5.335-3.876l-1.938-2.119c-1.72.869-3.337 2.012-4.773 3.453a18.68 18.68 0 0 0 0 26.388l13.175 11.549 13.175-11.549a18.68 18.68 0 0 0 0-26.388" fill="#413879"/><path d="M18.636 11.307l-6.181-7.84 2.431-2.435h-.981l-2.431 2.435 7.157 7.84h.005zm0 1.529l8.584-9.402L23.79 0H13.477l-3.43 3.434 8.584 9.402h.005z" fill="#d13f71"/><path d="M18.636 50.452c4.801 0 8.691.349 8.691.772s-3.895.771-8.69.771-8.69-.349-8.69-.771 3.89-.772 8.69-.772z" fill="#868686"/></g><g fill="#413879"><path d="M63.738 13.631l-.228 3.318c-.962-.539-1.919-.929-2.881-1.176s-2.035-.367-3.225-.367c-1.896 0-3.574.386-5.038 1.148s-2.593 1.85-3.397 3.244-1.199 2.965-1.199 4.713.404 3.458 1.218 4.894a8.29 8.29 0 0 0 3.444 3.318c1.483.781 3.183 1.167 5.103 1.167 1.004 0 2.087-.163 3.244-.493v-6.943h-5.135v-2.919H64.2v12.158c-1.208.4-2.351.683-3.434.855s-2.226.256-3.43.256c-1.998 0-3.815-.279-5.442-.841s-3.03-1.389-4.21-2.477a10.59 10.59 0 0 1-2.677-3.904c-.6-1.51-.906-3.216-.906-5.117 0-2.496.576-4.647 1.729-6.455a11.04 11.04 0 0 1 4.703-4.122c1.984-.939 4.201-1.403 6.66-1.403s4.568.381 6.548 1.143m18.726 5.45v11.07l.246 6.488h-3.035l-.139-2.742c-.711.995-1.566 1.743-2.561 2.24s-2.115.748-3.365.748c-2.44 0-4.136-.762-5.084-2.287s-1.422-3.592-1.422-6.204v-9.314h3.262v8.156l.042 2.003.13 1.617c.06.386.149.744.265 1.074.316.771.767 1.362 1.362 1.766s1.287.604 2.096.604c.743 0 1.422-.149 2.031-.446s1.125-.73 1.557-1.292.767-1.236.999-2.022.349-1.645.349-2.584v-8.877h3.267zm6.315-4.253h-3.564v-3.602h3.564v3.602zm-.07 21.806h-3.281v-17.59h3.281v17.591zm18.325-25.919v17.716l.088 4.127.158 4.08h-3.174v-2.97c-.711 1.097-1.561 1.905-2.547 2.431-.98.525-2.16.785-3.527.785-1.534 0-2.881-.363-4.053-1.092s-2.073-1.771-2.695-3.128-.939-2.942-.939-4.745c0-1.366.177-2.607.534-3.709a8.74 8.74 0 0 1 1.585-2.914c.706-.846 1.524-1.478 2.458-1.905s1.971-.641 3.104-.641c2.49 0 4.433 1.018 5.828 3.058l-.023-.739-.056-.939-.028-.73v-8.681h3.281l.005-.005zm-8.202 10.805c-.734 0-1.408.153-2.012.456s-1.143.744-1.594 1.32-.809 1.255-1.05 2.054-.367 1.636-.367 2.524c0 1.826.46 3.323 1.385 4.485s2.101 1.748 3.537 1.748a4.42 4.42 0 0 0 2.612-.818c.772-.544 1.376-1.301 1.822-2.263s.664-2.026.664-3.183-.218-2.24-.655-3.211-1.041-1.733-1.803-2.282a4.24 4.24 0 0 0-2.533-.827m13.41 7.155c.237 1.743.874 3.123 1.92 4.136s2.361 1.52 3.941 1.52c.934 0 1.849-.135 2.737-.404s1.808-.683 2.756-1.245v3.128c-1.064.469-2.031.804-2.895 1.004a12.12 12.12 0 0 1-2.738.297c-1.357 0-2.588-.223-3.704-.665-1.11-.446-2.058-1.083-2.839-1.915-.786-.832-1.39-1.836-1.808-3.016s-.632-2.468-.632-3.876c0-1.789.339-3.374 1.018-4.745s1.654-2.435 2.923-3.188 2.709-1.134 4.327-1.134c1.896 0 3.406.465 4.535 1.399s1.929 2.161 2.403 3.681.711 3.197.711 5.029h-12.655v-.005zm.033-2.551h9.355c-.116-.962-.339-1.808-.669-2.538a4.22 4.22 0 0 0-1.455-1.766c-.642-.446-1.436-.665-2.37-.665-1.287 0-2.361.441-3.221 1.325s-1.408 2.101-1.64 3.648m23.292-6.669l-.246 2.728c-1.148-.576-2.333-.86-3.56-.86-.901 0-1.622.204-2.152.609s-.799.939-.799 1.594.265 1.204.79 1.566 1.464.883 2.816 1.557 2.38 1.366 3.082 2.087 1.054 1.664 1.054 2.849c0 .795-.148 1.529-.446 2.189s-.734 1.232-1.31 1.706-1.26.837-2.064 1.092a8.53 8.53 0 0 1-2.593.381 10.59 10.59 0 0 1-4.568-1.008v-2.932c.841.414 1.589.706 2.235.888a7.01 7.01 0 0 0 1.901.274c.623 0 1.222-.098 1.738-.297s.92-.474 1.213-.827.442-.744.442-1.176a1.78 1.78 0 0 0-.832-1.561c-.553-.371-1.506-.906-2.835-1.594s-2.342-1.394-3.035-2.114-1.036-1.636-1.036-2.747c0-1.018.251-1.915.753-2.686s1.222-1.371 2.151-1.789 1.999-.632 3.207-.632c1.301 0 2.668.237 4.094.716m18.822-8.602v2.723c-.609-.139-1.171-.214-1.687-.214-1.311 0-2.152.418-2.528 1.255s-.563 2.026-.563 3.56v.915h4.773v2.547h-4.773V36.63h-3.262V21.657h-4.141V19.11h4.141c0-1.617.13-3.049.395-4.299s.813-2.268 1.65-3.058 2.045-1.185 3.625-1.185c.739 0 1.524.098 2.37.298m17.585 17.014c0 1.78-.385 3.374-1.152 4.778a8.15 8.15 0 0 1-3.23 3.276c-1.385.776-2.946 1.166-4.68 1.166s-3.244-.395-4.605-1.185-2.426-1.896-3.198-3.318-1.157-2.998-1.157-4.717c0-1.357.218-2.602.655-3.732s1.069-2.114 1.882-2.956a8.49 8.49 0 0 1 2.882-1.943c1.111-.46 2.3-.688 3.578-.688s2.487.223 3.602.669 2.077 1.087 2.9 1.933a8.69 8.69 0 0 1 1.882 2.988c.432 1.148.651 2.389.651 3.723m-3.458.079c0-.962-.139-1.868-.414-2.728s-.659-1.585-1.161-2.194-1.083-1.069-1.757-1.399-1.408-.493-2.203-.493c-1.603 0-2.932.632-3.992 1.901s-1.589 2.868-1.589 4.806c0 1.278.237 2.431.711 3.448s1.134 1.813 1.984 2.375 1.808.846 2.886.846a4.92 4.92 0 0 0 2.826-.836c.841-.558 1.505-1.343 1.984-2.347s.72-2.138.72-3.379m5.14-8.912h3.021l.158 3.128c.525-1.101 1.213-1.938 2.064-2.505.845-.567 1.831-.855 2.955-.855a7.29 7.29 0 0 1 1.771.228v2.988c-.562-.2-1.078-.302-1.543-.302-1.134 0-2.077.33-2.826.995s-1.292 1.506-1.631 2.533-.511 2.096-.511 3.207v8.17h-3.225V25.905l-.228-6.873m15.661-6.405h5.679l2.24.023 1.227.116c1.808.246 3.24.911 4.29 1.989 1.055 1.078 1.585 2.421 1.585 4.025s-.451 2.784-1.357 3.709-2.161 1.58-3.765 1.957c1.785.246 3.198.832 4.243 1.757s1.571 2.254 1.571 3.987c0 1.171-.288 2.24-.86 3.202s-1.375 1.724-2.402 2.272c-.656.353-1.413.6-2.273.748s-1.975.218-3.341.218h-6.827V12.627h-.01zm3.421 2.956v7.273h2.435c3.829 0 5.744-1.213 5.744-3.639 0-.832-.204-1.506-.613-2.022s-.934-.888-1.576-1.115a7.71 7.71 0 0 0-1.914-.423l-2.324-.079h-1.752v.005zm0 10.085v8.049h2.616c1.706 0 3.156-.265 4.355-.799 1.19-.53 1.789-1.548 1.789-3.044 0-1.752-.66-2.891-1.975-3.421s-2.979-.79-4.996-.79h-1.789v.005zm14.583-6.627h3.021l.158 3.128c.525-1.101 1.213-1.938 2.063-2.505s1.831-.855 2.956-.855a7.33 7.33 0 0 1 1.775.228v2.988c-.562-.2-1.078-.302-1.547-.302-1.134 0-2.078.33-2.826.995s-1.296 1.506-1.631 2.533a10.28 10.28 0 0 0-.507 3.207v8.17h-3.229V25.905l-.228-6.873m14.881-4.207h-3.56v-3.602h3.56v3.602zm-.07 21.806h-3.281v-17.59h3.281v17.591zm18.32-25.919v17.716l.088 4.127.158 4.08h-3.174v-2.97c-.716 1.097-1.562 1.905-2.542 2.431-.985.525-2.161.785-3.532.785-1.534 0-2.886-.363-4.053-1.092s-2.068-1.771-2.695-3.128-.939-2.942-.939-4.745c0-1.366.177-2.607.535-3.709a8.53 8.53 0 0 1 1.589-2.914c.702-.846 1.52-1.478 2.454-1.905s1.97-.641 3.104-.641c2.491 0 4.434 1.018 5.828 3.058l-.028-.739-.056-.939-.023-.73v-8.681h3.281l.005-.005zm-8.203 10.805c-.734 0-1.408.153-2.012.456s-1.139.744-1.594 1.32-.809 1.255-1.051 2.054a8.64 8.64 0 0 0-.367 2.524c0 1.826.46 3.323 1.385 4.485s2.101 1.748 3.542 1.748a4.41 4.41 0 0 0 2.607-.818c.771-.544 1.375-1.301 1.821-2.263s.665-2.026.665-3.183-.218-2.24-.655-3.211-1.041-1.733-1.803-2.282a4.24 4.24 0 0 0-2.533-.827m13.412 7.155c.237 1.743.874 3.123 1.924 4.136s2.361 1.52 3.941 1.52c.934 0 1.849-.135 2.737-.404s1.808-.683 2.756-1.245v3.128c-1.064.469-2.031.804-2.895 1.004s-1.78.297-2.738.297c-1.357 0-2.588-.223-3.703-.665a7.76 7.76 0 0 1-2.84-1.915c-.781-.832-1.385-1.836-1.808-3.016s-.632-2.468-.632-3.876c0-1.789.339-3.374 1.018-4.745s1.65-2.435 2.923-3.188 2.709-1.134 4.327-1.134c1.896 0 3.406.465 4.536 1.399s1.933 2.161 2.402 3.681.711 3.197.711 5.029h-12.654l-.005-.005zm.037-2.551h9.355c-.116-.962-.339-1.808-.664-2.538a4.2 4.2 0 0 0-1.455-1.766c-.641-.446-1.436-.665-2.37-.665-1.287 0-2.361.441-3.221 1.325s-1.408 2.101-1.64 3.648m23.283-6.669l-.246 2.728c-1.148-.576-2.333-.86-3.56-.86-.902 0-1.622.204-2.152.609s-.799.939-.799 1.594.265 1.204.79 1.566 1.464.883 2.816 1.557 2.379 1.366 3.081 2.087S270 30.403 270 31.589c0 .795-.149 1.529-.446 2.189s-.734 1.232-1.311 1.706-1.264.837-2.063 1.092-1.668.381-2.593.381a10.57 10.57 0 0 1-4.569-1.008v-2.932c.842.414 1.59.706 2.236.888a7.01 7.01 0 0 0 1.901.274c.622 0 1.222-.098 1.742-.297s.916-.474 1.213-.827.442-.744.442-1.176a1.78 1.78 0 0 0-.832-1.561c-.558-.372-1.501-.906-2.835-1.594s-2.342-1.394-3.035-2.114-1.036-1.636-1.036-2.747c0-1.018.251-1.915.753-2.686s1.222-1.371 2.152-1.789 1.998-.632 3.206-.632c1.301 0 2.668.237 4.094.716"/></g></g><defs><clipPath id="A"><path fill="#fff" d="M0 0h270v52H0z"/></clipPath></defs></svg>