<?xml version="1.0" encoding="utf-8"?>
<!-- Generator: Adobe Illustrator 25.4.0, SVG Export Plug-In . SVG Version: 6.00 Build 0)  -->
<svg version="1.1" id="Layer_1" xmlns="http://www.w3.org/2000/svg" xmlns:xlink="http://www.w3.org/1999/xlink" x="0px" y="0px"
	 viewBox="49.77 209.07 763.2 164.9" style="enable-background:new 0 0 841.89 595.28;" xml:space="preserve">
<style type="text/css">
	.st0{fill:#FFF;}
</style>
<path class="st0" d="M770.67,261.98c-5.6,0-10.14,4.54-10.14,10.14v1.72c-9.83-8.24-22.48-13.21-36.27-13.21
	c-31.18,0-56.55,25.37-56.55,56.55c0,31.18,25.37,56.54,56.55,56.54c13.8,0,26.45-4.97,36.27-13.21v3.32
	c0,5.6,4.54,10.14,10.14,10.14s10.14-4.54,10.14-10.14v-91.71C780.8,266.52,776.27,261.98,770.67,261.98z M724.26,353.45
	c-20,0-36.27-16.27-36.27-36.27c0-20,16.27-36.27,36.27-36.27s36.27,16.27,36.27,36.27C760.53,337.18,744.26,353.45,724.26,353.45z
	 M525.57,261.91c-5.6,0-10.14,4.54-10.14,10.14v51.99c0,16.35-13.3,29.65-29.65,29.65c-16.35,0-29.65-13.3-29.65-29.65v-51.99
	c0-5.6-4.54-10.14-10.14-10.14c-5.6,0-10.14,4.54-10.14,10.14v51.99c0,27.53,22.4,49.92,49.92,49.92c27.53,0,49.92-22.4,49.92-49.92
	v-51.99C535.71,266.45,531.17,261.91,525.57,261.91z M603.37,260.66c-27.53,0-49.92,22.4-49.92,49.92v51.87
	c0,5.6,4.54,10.14,10.14,10.14c5.6,0,10.14-4.54,10.14-10.14v-51.87c0-16.35,13.3-29.65,29.65-29.65c16.35,0,29.65,13.3,29.65,29.65
	v51.87c0,5.6,4.54,10.14,10.14,10.14c5.6,0,10.14-4.54,10.14-10.14v-51.87C653.29,283.05,630.9,260.66,603.37,260.66z
	 M168.63,221.87c-5.6,0-10.14,4.54-10.14,10.14v102.45l-26.5-31.78c-3.58-4.3-9.98-4.88-14.28-1.29c-4.3,3.59-4.88,9.98-1.29,14.28
	l44.38,53.22c0,0,0.01,0.01,0.01,0.01l0.03,0.04c0.03,0.04,0.07,0.07,0.1,0.11c0.19,0.23,0.39,0.44,0.61,0.65
	c0.1,0.1,0.21,0.19,0.31,0.28c0.16,0.14,0.31,0.28,0.48,0.41c0.13,0.1,0.25,0.19,0.38,0.29c0.16,0.11,0.32,0.22,0.48,0.32
	c0.13,0.09,0.27,0.17,0.41,0.25c0.17,0.1,0.35,0.19,0.53,0.28c0.13,0.06,0.26,0.13,0.4,0.19c0.2,0.09,0.41,0.17,0.62,0.24
	c0.12,0.04,0.23,0.09,0.35,0.13c0.24,0.08,0.48,0.14,0.72,0.2c0.1,0.02,0.2,0.05,0.29,0.08c0.26,0.06,0.53,0.09,0.79,0.13
	c0.09,0.01,0.17,0.03,0.26,0.04c0.26,0.03,0.53,0.04,0.79,0.04c0.09,0,0.18,0.01,0.27,0.01c0.32,0,0.65-0.02,0.97-0.05
	c0.09-0.01,0.17-0.02,0.26-0.03c0.23-0.03,0.45-0.06,0.68-0.1c0.11-0.02,0.22-0.05,0.33-0.07c0.2-0.04,0.39-0.09,0.59-0.15
	c0.12-0.03,0.23-0.07,0.34-0.11c0.19-0.06,0.37-0.13,0.55-0.2c0.11-0.04,0.22-0.09,0.33-0.14c0.18-0.08,0.36-0.17,0.53-0.26
	c0.11-0.05,0.21-0.1,0.31-0.16c0.17-0.1,0.34-0.2,0.51-0.31c0.1-0.06,0.2-0.12,0.3-0.19c0.16-0.11,0.32-0.24,0.48-0.36
	c0.09-0.07,0.19-0.14,0.27-0.21c0.01-0.01,0.01-0.01,0.02-0.02c0.07-0.06,0.14-0.13,0.21-0.19c0.17-0.15,0.34-0.3,0.51-0.47
	c0.11-0.12,0.22-0.24,0.33-0.36c0.11-0.12,0.23-0.25,0.33-0.37c0.11-0.14,0.22-0.29,0.32-0.43c0.09-0.12,0.18-0.24,0.26-0.36
	c0.1-0.15,0.19-0.3,0.27-0.45c0.08-0.13,0.16-0.27,0.23-0.4c0.08-0.14,0.14-0.29,0.21-0.44c0.07-0.15,0.15-0.31,0.21-0.47
	c0.05-0.13,0.1-0.27,0.15-0.41c0.06-0.18,0.13-0.35,0.18-0.53c0.04-0.13,0.07-0.27,0.1-0.4c0.05-0.19,0.1-0.37,0.13-0.56
	c0.03-0.15,0.05-0.3,0.07-0.46c0.03-0.17,0.06-0.34,0.07-0.52c0.02-0.22,0.03-0.44,0.03-0.65c0-0.11,0.02-0.21,0.02-0.31V232.01
	C178.76,226.41,174.22,221.87,168.63,221.87z M111.95,278.64L67.7,225.57c0,0-0.01-0.01-0.01-0.01l-0.03-0.04
	c-0.06-0.07-0.12-0.13-0.18-0.2c-0.15-0.18-0.31-0.35-0.47-0.51c-0.12-0.12-0.25-0.23-0.37-0.34c-0.12-0.11-0.24-0.22-0.36-0.32
	c-0.15-0.12-0.3-0.23-0.45-0.33c-0.12-0.08-0.23-0.17-0.35-0.25c-0.15-0.1-0.31-0.19-0.47-0.28c-0.13-0.08-0.26-0.15-0.39-0.22
	c-0.15-0.08-0.3-0.15-0.45-0.22c-0.15-0.07-0.3-0.14-0.45-0.21c-0.14-0.06-0.28-0.1-0.42-0.15c-0.17-0.06-0.34-0.12-0.51-0.18
	c-0.14-0.04-0.28-0.07-0.42-0.11c-0.18-0.05-0.36-0.09-0.54-0.13c-0.16-0.03-0.32-0.05-0.48-0.07c-0.17-0.02-0.33-0.05-0.5-0.07
	c-0.23-0.02-0.45-0.03-0.68-0.03c-0.1,0-0.19-0.01-0.29-0.01c-0.01,0-0.02,0-0.02,0c-0.34,0-0.67,0.02-1.01,0.05
	c-0.01,0-0.01,0-0.02,0c-0.32,0.03-0.64,0.08-0.96,0.15c-0.13,0.03-0.26,0.07-0.39,0.1c-0.19,0.05-0.38,0.09-0.57,0.15
	c-0.16,0.05-0.31,0.11-0.46,0.17c-0.16,0.06-0.32,0.11-0.47,0.17c-0.18,0.07-0.35,0.16-0.52,0.25c-0.12,0.06-0.25,0.11-0.37,0.18
	c-0.29,0.16-0.57,0.32-0.84,0.51c-0.01,0-0.01,0.01-0.02,0.01c-0.28,0.19-0.55,0.39-0.81,0.61c-0.01,0.01-0.01,0.01-0.02,0.01
	c-0.07,0.06-0.14,0.13-0.21,0.19c-0.17,0.15-0.34,0.3-0.51,0.47c-0.11,0.12-0.22,0.24-0.33,0.36c-0.11,0.12-0.23,0.25-0.33,0.37
	c-0.11,0.14-0.22,0.29-0.32,0.43c-0.09,0.12-0.18,0.24-0.26,0.36c-0.1,0.15-0.19,0.3-0.27,0.45c-0.08,0.13-0.16,0.27-0.23,0.4
	c-0.08,0.14-0.14,0.29-0.21,0.44c-0.07,0.15-0.15,0.31-0.21,0.47c-0.05,0.13-0.1,0.27-0.15,0.41c-0.06,0.18-0.13,0.35-0.18,0.53
	c-0.04,0.13-0.07,0.27-0.1,0.4c-0.05,0.19-0.1,0.37-0.13,0.56c-0.03,0.15-0.05,0.3-0.07,0.46c-0.03,0.17-0.06,0.34-0.07,0.52
	c-0.02,0.22-0.03,0.44-0.03,0.65c0,0.11-0.02,0.21-0.02,0.31v130.43c0,5.6,4.54,10.14,10.14,10.14c5.6,0,10.14-4.54,10.14-10.14
	V259.99l26.38,31.63c2,2.4,4.89,3.65,7.79,3.65c2.29,0,4.59-0.77,6.49-2.35C114.96,289.33,115.54,282.94,111.95,278.64z
	 M252.92,260.63c-31.18,0-56.55,25.37-56.55,56.55c0,31.18,25.37,56.54,56.55,56.54c31.18,0,56.55-25.37,56.55-56.54
	C309.47,286,284.1,260.63,252.92,260.63z M252.92,353.45c-20,0-36.27-16.27-36.27-36.27c0-20,16.27-36.27,36.27-36.27
	s36.27,16.27,36.27,36.27C289.2,337.18,272.93,353.45,252.92,353.45z M412.01,262.6c-5.22-2.36-11.35-0.03-13.7,5.19l-31.14,69.15
	l-31.55-69.2c-2.38-5.21-8.52-7.51-13.73-5.13c-5.21,2.38-7.5,8.52-5.13,13.73l41.04,90c0.02,0.04,0.04,0.06,0.05,0.1
	c0.19,0.41,0.4,0.8,0.65,1.18c0.05,0.08,0.11,0.15,0.16,0.23c0.21,0.31,0.43,0.61,0.68,0.89c0.06,0.08,0.13,0.15,0.19,0.23
	c0.29,0.32,0.6,0.62,0.93,0.91c0.07,0.06,0.15,0.12,0.22,0.17c0.27,0.22,0.56,0.43,0.85,0.63c0.1,0.07,0.2,0.13,0.3,0.2
	c0.37,0.22,0.74,0.43,1.15,0.61c0.02,0.01,0.03,0.01,0.05,0.02c0.4,0.18,0.8,0.32,1.2,0.44c0.11,0.03,0.22,0.06,0.34,0.09
	c0.33,0.09,0.67,0.16,1,0.22c0.11,0.02,0.23,0.04,0.34,0.05c0.44,0.06,0.88,0.09,1.32,0.09c0,0,0,0,0.01,0c0,0,0,0,0.01,0
	c0.44,0,0.88-0.04,1.32-0.1c0.11-0.01,0.23-0.04,0.34-0.05c0.34-0.06,0.67-0.13,1.01-0.22c0.11-0.03,0.23-0.06,0.34-0.09
	c0.39-0.12,0.78-0.26,1.16-0.43c0.03-0.01,0.07-0.02,0.1-0.04c0.01,0,0.01,0,0.02-0.01c0.4-0.18,0.77-0.39,1.13-0.61
	c0.1-0.06,0.2-0.13,0.29-0.19c0.3-0.2,0.58-0.41,0.85-0.63c0.07-0.06,0.15-0.12,0.22-0.18c0.33-0.29,0.64-0.59,0.93-0.92
	c0.06-0.07,0.12-0.15,0.19-0.23c0.24-0.29,0.47-0.59,0.68-0.9c0.05-0.08,0.11-0.15,0.16-0.23c0.24-0.38,0.45-0.78,0.64-1.18
	c0.02-0.03,0.04-0.06,0.05-0.1l40.54-90C419.56,271.09,417.23,264.95,412.01,262.6z M796.93,209.07c-9.48,0-15.72,7.01-15.72,15.72
	c0,8.71,6.24,15.65,15.88,15.65c9.79,0,15.88-7.09,15.88-15.72C812.96,216.01,806.79,209.07,796.93,209.07z M797.08,237.9
	c-8.17,0-13.1-5.78-13.1-13.1c0-7.4,4.93-13.1,12.95-13.1c8.33,0,13.26,5.63,13.26,13.03C810.19,232.19,805.33,237.9,797.08,237.9z
	 M803.71,221.71c0-2.85-2.16-5.24-5.78-5.24h-6.24v16.65h2.85v-6.01h3.7l3.01,6.01h3.01l-3.47-6.63
	C802.4,225.87,803.71,224.1,803.71,221.71z M797.7,224.64h-3.16v-5.7h3.16c1.85,0,3.01,1.23,3.01,2.85
	C800.71,223.33,799.63,224.64,797.7,224.64z"/>
</svg>
