<?xml version="1.0" encoding="UTF-8" standalone="no"?>
<!-- Created with Inkscape (http://www.inkscape.org/) -->

<svg
   xmlns:dc="http://purl.org/dc/elements/1.1/"
   xmlns:cc="http://creativecommons.org/ns#"
   xmlns:rdf="http://www.w3.org/1999/02/22-rdf-syntax-ns#"
   xmlns:svg="http://www.w3.org/2000/svg"
   xmlns="http://www.w3.org/2000/svg"
   xmlns:sodipodi="http://sodipodi.sourceforge.net/DTD/sodipodi-0.dtd"
   xmlns:inkscape="http://www.inkscape.org/namespaces/inkscape"
   version="1.1"
   id="svg2"
   width="1081.5161"
   height="664.99109"
   viewBox="0 0 1081.5161 664.99109"
   sodipodi:docname="M20 Plumbing logo dark background.svg"
   inkscape:version="0.92.4 (5da689c313, 2019-01-14)">
  <metadata
     id="metadata8">
    <rdf:RDF>
      <cc:Work
         rdf:about="">
        <dc:format>image/svg+xml</dc:format>
        <dc:type
           rdf:resource="http://purl.org/dc/dcmitype/StillImage" />
        <dc:title></dc:title>
      </cc:Work>
    </rdf:RDF>
  </metadata>
  <defs
     id="defs6" />
  <sodipodi:namedview
     pagecolor="#ffffff"
     bordercolor="#666666"
     borderopacity="1"
     objecttolerance="10"
     gridtolerance="10"
     guidetolerance="10"
     inkscape:pageopacity="0"
     inkscape:pageshadow="2"
     inkscape:window-width="1920"
     inkscape:window-height="1046"
     id="namedview4"
     showgrid="false"
     fit-margin-top="0"
     fit-margin-left="0"
     fit-margin-right="0"
     fit-margin-bottom="0"
     inkscape:zoom="0.53268711"
     inkscape:cx="-108.28837"
     inkscape:cy="377.36238"
     inkscape:window-x="-11"
     inkscape:window-y="-11"
     inkscape:window-maximized="1"
     inkscape:current-layer="svg2"
     inkscape:snap-page="true" />
  <text
     xml:space="preserve"
     style="font-style:normal;font-variant:normal;font-weight:normal;font-stretch:normal;font-size:565.10046387px;line-height:125%;font-family:'Futura Std';-inkscape-font-specification:'Futura Std';text-align:start;letter-spacing:-16.25311661px;word-spacing:0px;text-anchor:start;fill:#65cff8;fill-opacity:1;stroke:none;stroke-width:16.14572906px;stroke-linecap:butt;stroke-linejoin:miter;stroke-opacity:1"
     x="-5.8301406"
     y="444.16898"
     id="text3719"><tspan
       sodipodi:role="line"
       id="tspan3717"
       x="-5.8301406"
       y="444.16898"
       style="letter-spacing:-16.25311661px;fill:#65cff8;fill-opacity:1;stroke-width:16.14572906px">M20</tspan></text>
  <g
     id="g4581"
     style="fill:#425db0;fill-opacity:1"
     transform="matrix(2.7621964,0,0,2.7621964,-554.7464,327.01558)">
    <path
       sodipodi:nodetypes="scsccccsccsscccsccscs"
       d="m 233.43931,73.621145 c 0,5.986811 -1.72758,10.321013 -5.18273,13.002605 -3.45515,2.619229 -8.7007,3.928844 -15.73664,3.928844 h -7.63643 v 30.027596 h -4.04826 V 56.689698 h 11.59045 c 3.83208,0 6.78466,0.187088 8.85775,0.561263 2.13591,0.311813 4.17759,1.153709 6.12504,2.525686 4.02055,2.868679 6.03082,7.483512 6.03082,13.844498 z m -3.48658,0.467721 c 0,-2.681593 -0.43974,-5.020191 -1.31923,-7.015794 -0.87949,-2.057966 -2.13591,-3.710575 -3.76925,-4.957828 -1.57053,-1.309614 -3.48657,-2.151509 -5.74812,-2.525685 -2.19873,-0.374176 -5.37119,-0.561264 -9.51737,-0.561264 h -4.71525 v 29.185702 h 4.71525 c 7.22441,0 12.25008,-0.810714 15.07702,-2.432142 3.51797,-1.995603 5.27695,-5.893266 5.27695,-11.692989 z"
       style="font-style:normal;font-variant:normal;font-weight:normal;font-stretch:normal;font-size:91.83746338px;line-height:125%;font-family:'Futura Thin';-inkscape-font-specification:'Futura Thin, ';text-align:start;letter-spacing:-3.41000104px;word-spacing:0px;text-anchor:start;fill:#425db0;fill-opacity:1;stroke:none;stroke-width:1.06732345px;stroke-linecap:butt;stroke-linejoin:miter;stroke-opacity:1"
       id="path4548"
       inkscape:connector-curvature="0" />
    <path
       sodipodi:nodetypes="ccccccc"
       d="M 260.82682,121.28417 H 239.28164 V 56.689698 h 3.67511 v 61.851812 h 17.87007 z"
       style="font-style:normal;font-variant:normal;font-weight:normal;font-stretch:normal;font-size:36.54082489px;line-height:125%;font-family:'Futura Thin';-inkscape-font-specification:'Futura Thin, ';text-align:start;letter-spacing:-7.36000252px;word-spacing:0px;text-anchor:start;fill:#425db0;fill-opacity:1;stroke:none;stroke-width:0.96260506px;stroke-linecap:butt;stroke-linejoin:miter;stroke-opacity:1"
       id="path4550"
       inkscape:connector-curvature="0" />
    <path
       sodipodi:nodetypes="sscsssccscsssccs"
       d="m 309.185,96.913581 c 0,3.990619 -0.40422,7.746509 -1.2127,10.798349 -0.92241,3.48196 -2.84035,6.11824 -4.81518,8.37815 -3.64495,4.1783 -9.20351,6.26745 -16.67568,6.26745 -9.50039,0 -16.77754,-3.48406 -20.18884,-10.45217 -1.91112,-3.90375 -2.51469,-9.01834 -2.51469,-15.109109 V 56.572368 l 3.47641,0.11733 v 42.188305 c 0,7.109337 2.13575,11.940837 5.23397,15.433147 3.15896,3.42995 7.43224,5.02759 13.99315,5.02759 6.11345,0 10.18239,-1.36123 13.3801,-4.55301 3.50693,-3.50043 5.84705,-8.56835 5.84705,-15.907727 V 56.689698 h 3.47641 z"
       style="font-style:normal;font-variant:normal;font-weight:normal;font-stretch:normal;font-size:36.54082489px;line-height:125%;font-family:'Futura Thin';-inkscape-font-specification:'Futura Thin, ';text-align:start;letter-spacing:-1.08999991px;word-spacing:0px;text-anchor:start;fill:#425db0;fill-opacity:1;stroke:none;stroke-width:1.049577px;stroke-linecap:butt;stroke-linejoin:miter;stroke-opacity:1"
       id="path4552"
       inkscape:connector-curvature="0" />
    <path
       sodipodi:nodetypes="ccccccccccc"
       d="m 391.55459,121.27998 h -3.40215 L 376.24762,68.658927 352.07741,122.12767 328.13834,67.622068 316.53724,121.27998 h -3.40216 l 14.10269,-63.749987 24.73958,56.155467 25.17084,-55.686148 z"
       style="font-style:normal;font-variant:normal;font-weight:normal;font-stretch:normal;font-size:36.54082489px;line-height:125%;font-family:'Futura Thin';-inkscape-font-specification:'Futura Thin, ';text-align:start;letter-spacing:-1.08999991px;word-spacing:0px;text-anchor:start;fill:#425db0;fill-opacity:1;stroke:none;stroke-width:1.10598838px;stroke-linecap:butt;stroke-linejoin:miter;stroke-opacity:1"
       id="path4554"
       inkscape:connector-curvature="0" />
    <path
       sodipodi:nodetypes="cccsccsccscccccccsccsccscccsccsccc"
       d="m 434.66089,102.43267 c 0,6.29862 -1.99146,11.80452 -6.55513,15.10974 -2.34896,1.68379 -5.26838,2.77514 -8.75825,3.27404 -2.21474,0.31181 -6.07374,0.46772 -11.577,0.46772 H 396.21088 V 56.689698 h 11.45896 c 4.09389,0 4.33703,-0.05179 5.20949,0.01058 3.89256,0.311813 7.08044,1.278434 9.56362,2.899861 4.49657,3.118131 6.74485,7.421152 6.74485,12.909061 0,3.492306 -0.83891,6.70398 -2.51673,9.635023 -1.87917,3.242855 -3.29966,4.709489 -5.50594,5.893266 4.02678,0.561263 7.12793,2.120329 9.544,4.677196 2.41605,2.556867 3.95176,5.851515 3.95176,9.717985 z m -8.99652,-29.455752 c 0,-5.363185 -1.37582,-8.047004 -4.12745,-10.042607 -2.68452,-1.995604 -5.07528,-2.910441 -11.65235,-2.910441 h -9.76495 v 26.412792 h 9.76495 c 6.30862,0 8.56515,-0.987223 11.24968,-2.795739 3.02008,-2.057966 4.53012,-5.612634 4.53012,-10.664005 z m 5.46147,30.671832 c 0,-2.99341 -0.56964,-4.78618 -1.77768,-6.968871 -1.14093,-2.245055 -2.83541,-3.427874 -4.8488,-4.612763 -1.47649,-0.810714 -3.18787,-1.336627 -5.13415,-1.586078 C 417.41894,90.169225 415.13686,90.009 412.51968,90.009 h -12.40006 v 28.32614 h 11.27499 c 3.6241,0 6.44284,-0.15591 8.45624,-0.46772 2.08051,-0.31182 3.92612,-1.06017 5.53683,-2.24506 1.67782,-1.18489 3.05363,-2.86868 4.12744,-5.05137 1.07381,-2.18269 1.61072,-4.4901 1.61072,-6.92224 z"
       style="font-style:normal;font-variant:normal;font-weight:normal;font-stretch:normal;font-size:36.54082489px;line-height:125%;font-family:'Futura Thin';-inkscape-font-specification:'Futura Thin, ';text-align:start;letter-spacing:-1.08999991px;word-spacing:0px;text-anchor:start;fill:#425db0;fill-opacity:1;stroke:none;stroke-width:1.10318232px;stroke-linecap:butt;stroke-linejoin:miter;stroke-opacity:1"
       id="path4556"
       inkscape:connector-curvature="0" />
    <path
       d="m 445.72091,120.58019 h -2.97535 V 56.689698 h 2.97535 z"
       style="font-style:normal;font-variant:normal;font-weight:normal;font-stretch:normal;font-size:36.54082489px;line-height:125%;font-family:'Futura Thin';-inkscape-font-specification:'Futura Thin, ';text-align:start;letter-spacing:-1.08999991px;word-spacing:0px;text-anchor:start;fill:#425db0;fill-opacity:1;stroke:none;stroke-width:1.04402375px;stroke-linecap:butt;stroke-linejoin:miter;stroke-opacity:1"
       id="path4558"
       inkscape:connector-curvature="0" />
    <path
       sodipodi:nodetypes="ccccccccc"
       d="M 519.0211,121.88799 461.64954,65.15292 v 56.36591 H 457.8781 V 56.409066 l 57.37157,56.757484 V 56.693803 h 3.77143 z"
       style="font-style:normal;font-variant:normal;font-weight:normal;font-stretch:normal;font-size:36.54082489px;line-height:125%;font-family:'Futura Thin';-inkscape-font-specification:'Futura Thin, ';text-align:start;letter-spacing:-1.08999991px;word-spacing:0px;text-anchor:start;fill:#425db0;fill-opacity:1;stroke:none;stroke-width:1.18398988px;stroke-linecap:butt;stroke-linejoin:miter;stroke-opacity:1"
       id="path4560"
       inkscape:connector-curvature="0" />
    <path
       sodipodi:nodetypes="cccssscscccssscsccccc"
       d="m 591.82844,90.830394 v -0.556361 c 0,10.014507 -2.89938,17.865377 -8.69813,23.552617 -5.79875,5.68725 -13.78018,8.53088 -23.94429,8.53088 -10.16411,0 -18.37358,-3.05999 -24.62841,-9.17996 -6.25484,-6.11997 -9.38226,-14.156302 -9.38226,-24.108987 0,-9.643593 3.12742,-17.587193 9.38226,-23.830801 6.31998,-6.305426 14.43172,-9.458139 24.33521,-9.458139 6.51546,0 12.11875,1.050904 16.80987,3.152713 4.69113,2.039991 9.45091,7.23591 12.12225,11.439528 l -2.49674,1.947263 C 579.26882,64.344638 570.19713,59.02995 559.77242,59.02995 c -9.12164,0 -15.96851,2.93635 -21.70211,8.809051 -5.73359,5.872701 -9.18114,12.667804 -9.18114,21.878672 0,8.592685 3.0653,15.348737 8.86405,21.097807 5.8639,5.68725 12.34633,8.11604 21.27252,8.11604 8.33977,0 15.11584,-1.99607 20.32821,-6.81786 5.27751,-4.88361 8.16516,-9.96409 8.16516,-18.062246 h -23.64197 v -3.22102 z"
       style="font-style:normal;font-variant:normal;font-weight:normal;font-stretch:normal;font-size:36.54082489px;line-height:125%;font-family:'Futura Thin';-inkscape-font-specification:'Futura Thin, ';text-align:start;letter-spacing:-1.08999991px;word-spacing:0px;text-anchor:start;fill:#425db0;fill-opacity:1;stroke:none;stroke-width:1.08220923px;stroke-linecap:butt;stroke-linejoin:miter;stroke-opacity:1"
       id="path4562"
       inkscape:connector-curvature="0" />
  </g>
</svg>
