<svg xmlns="http://www.w3.org/2000/svg" width="239" height="111" viewBox="0 0 239 111" fill="none"><path d="M15.616 46.4C12.544 46.4 9.81334 45.8027 7.424 44.608C5.07734 43.3707 3.24267 41.6427 1.92 39.424C0.640002 37.1627 2.38419e-06 34.5813 2.38419e-06 31.68V15.296C2.38419e-06 12.352 0.640002 9.77066 1.92 7.552C3.24267 5.33333 5.07734 3.62667 7.424 2.432C9.81334 1.19467 12.544 0.576 15.616 0.576C18.688 0.576 21.3973 1.17333 23.744 2.368C26.0907 3.56267 27.904 5.22667 29.184 7.36C30.5067 9.45066 31.168 11.8187 31.168 14.464V15.168C31.168 15.5947 30.9547 15.808 30.528 15.808H25.664C25.2373 15.808 25.024 15.5947 25.024 15.168V14.592C25.024 12.032 24.1493 9.96267 22.4 8.384C20.6933 6.76267 18.432 5.952 15.616 5.952C12.7573 5.952 10.4533 6.784 8.704 8.448C6.99734 10.112 6.144 12.3307 6.144 15.104V31.872C6.144 34.6453 7.04 36.864 8.832 38.528C10.624 40.192 12.9707 41.024 15.872 41.024C18.688 41.024 20.9067 40.2987 22.528 38.848C24.192 37.3547 25.024 35.328 25.024 32.768V27.84C25.024 27.6693 24.9387 27.584 24.768 27.584H16.128C15.7013 27.584 15.488 27.3707 15.488 26.944V22.976C15.488 22.5493 15.7013 22.336 16.128 22.336H30.528C30.9547 22.336 31.168 22.5493 31.168 22.976V31.104C31.168 36.0107 29.76 39.7867 26.944 42.432C24.1707 45.0773 20.3947 46.4 15.616 46.4ZM53.97 12.992C55.3353 12.992 56.5727 13.2693 57.682 13.824C57.9807 13.952 58.0873 14.208 58.002 14.592L56.978 19.392C56.9353 19.776 56.6793 19.904 56.21 19.776C55.4847 19.4773 54.6313 19.328 53.65 19.328L52.754 19.392C50.7487 19.4773 49.0847 20.1813 47.762 21.504C46.482 22.784 45.842 24.4693 45.842 26.56V45.248C45.842 45.6747 45.6287 45.888 45.202 45.888H40.338C39.9113 45.888 39.698 45.6747 39.698 45.248V13.952C39.698 13.5253 39.9113 13.312 40.338 13.312H45.202C45.6287 13.312 45.842 13.5253 45.842 13.952V17.344C45.842 17.472 45.8633 17.5573 45.906 17.6C45.9913 17.6 46.0553 17.5573 46.098 17.472C48.018 14.4853 50.642 12.992 53.97 12.992ZM89.316 25.536C89.4867 27.2853 89.5507 29.248 89.508 31.424C89.508 31.8507 89.2947 32.064 88.868 32.064H68.452C68.2813 32.064 68.196 32.1493 68.196 32.32C68.196 33.7707 68.324 34.88 68.58 35.648C69.0493 37.3547 69.988 38.6987 71.396 39.68C72.8467 40.6187 74.66 41.088 76.836 41.088C79.9933 41.088 82.4253 39.7867 84.132 37.184C84.3453 36.7573 84.6227 36.6933 84.964 36.992L88.612 39.424C88.9107 39.68 88.9747 39.9573 88.804 40.256C87.6093 42.176 85.9027 43.6907 83.684 44.8C81.508 45.9093 79.0333 46.464 76.26 46.464C73.1453 46.464 70.5213 45.7813 68.388 44.416C66.2547 43.0507 64.6547 41.1093 63.588 38.592C62.564 36.0747 62.052 33.024 62.052 29.44C62.052 26.3253 62.2867 23.9573 62.756 22.336C63.524 19.392 65.06 17.0667 67.364 15.36C69.668 13.6533 72.4627 12.8 75.748 12.8C80.0573 12.8 83.2787 13.888 85.412 16.064C87.5453 18.1973 88.8467 21.3547 89.316 25.536ZM75.748 18.112C73.9133 18.112 72.3987 18.5813 71.204 19.52C70.0093 20.416 69.1987 21.632 68.772 23.168C68.4733 24.1067 68.2813 25.3013 68.196 26.752C68.196 26.9227 68.2813 27.008 68.452 27.008H83.108C83.2787 27.008 83.364 26.9227 83.364 26.752C83.2787 25.344 83.1507 24.2987 82.98 23.616C82.5533 21.952 81.7 20.6293 80.42 19.648C79.1827 18.624 77.6253 18.112 75.748 18.112ZM123.629 25.536C123.799 27.2853 123.863 29.248 123.821 31.424C123.821 31.8507 123.607 32.064 123.181 32.064H102.765C102.594 32.064 102.509 32.1493 102.509 32.32C102.509 33.7707 102.637 34.88 102.893 35.648C103.362 37.3547 104.301 38.6987 105.709 39.68C107.159 40.6187 108.973 41.088 111.149 41.088C114.306 41.088 116.738 39.7867 118.445 37.184C118.658 36.7573 118.935 36.6933 119.277 36.992L122.925 39.424C123.223 39.68 123.287 39.9573 123.117 40.256C121.922 42.176 120.215 43.6907 117.997 44.8C115.821 45.9093 113.346 46.464 110.573 46.464C107.458 46.464 104.834 45.7813 102.701 44.416C100.567 43.0507 98.9672 41.1093 97.9005 38.592C96.8765 36.0747 96.3645 33.024 96.3645 29.44C96.3645 26.3253 96.5992 23.9573 97.0685 22.336C97.8365 19.392 99.3725 17.0667 101.677 15.36C103.981 13.6533 106.775 12.8 110.061 12.8C114.37 12.8 117.591 13.888 119.725 16.064C121.858 18.1973 123.159 21.3547 123.629 25.536ZM110.061 18.112C108.226 18.112 106.711 18.5813 105.517 19.52C104.322 20.416 103.511 21.632 103.085 23.168C102.786 24.1067 102.594 25.3013 102.509 26.752C102.509 26.9227 102.594 27.008 102.765 27.008H117.421C117.591 27.008 117.677 26.9227 117.677 26.752C117.591 25.344 117.463 24.2987 117.293 23.616C116.866 21.952 116.013 20.6293 114.733 19.648C113.495 18.624 111.938 18.112 110.061 18.112ZM146.101 12.864C149.6 12.864 152.373 13.888 154.421 15.936C156.469 17.9413 157.493 20.672 157.493 24.128V45.248C157.493 45.6747 157.28 45.888 156.853 45.888H151.989C151.562 45.888 151.349 45.6747 151.349 45.248V25.344C151.349 23.2107 150.73 21.4827 149.493 20.16C148.256 18.8373 146.613 18.176 144.565 18.176C142.56 18.176 140.917 18.8373 139.637 20.16C138.357 21.4827 137.717 23.1893 137.717 25.28V45.248C137.717 45.6747 137.504 45.888 137.077 45.888H132.213C131.786 45.888 131.573 45.6747 131.573 45.248V13.952C131.573 13.5253 131.786 13.312 132.213 13.312H137.077C137.504 13.312 137.717 13.5253 137.717 13.952V16.256C137.717 16.3413 137.738 16.4053 137.781 16.448C137.866 16.4907 137.93 16.4693 137.973 16.384C139.808 14.0373 142.517 12.864 146.101 12.864ZM180.726 12.864C184.225 12.864 186.998 13.888 189.046 15.936C191.094 17.9413 192.118 20.672 192.118 24.128V45.248C192.118 45.6747 191.905 45.888 191.478 45.888H186.614C186.187 45.888 185.974 45.6747 185.974 45.248V25.344C185.974 23.2107 185.355 21.4827 184.118 20.16C182.881 18.8373 181.238 18.176 179.19 18.176C177.185 18.176 175.542 18.8373 174.262 20.16C172.982 21.4827 172.342 23.1893 172.342 25.28V45.248C172.342 45.6747 172.129 45.888 171.702 45.888H166.838C166.411 45.888 166.198 45.6747 166.198 45.248V1.728C166.198 1.30133 166.411 1.088 166.838 1.088H171.702C172.129 1.088 172.342 1.30133 172.342 1.728V16.256C172.342 16.3413 172.363 16.4053 172.406 16.448C172.491 16.4907 172.555 16.4693 172.598 16.384C174.433 14.0373 177.142 12.864 180.726 12.864ZM204.598 8.192C203.403 8.192 202.422 7.808 201.654 7.04C200.886 6.272 200.502 5.29067 200.502 4.096C200.502 2.90133 200.886 1.92 201.654 1.152C202.422 0.383999 203.403 0 204.598 0C205.792 0 206.774 0.383999 207.542 1.152C208.31 1.92 208.694 2.90133 208.694 4.096C208.694 5.29067 208.31 6.272 207.542 7.04C206.774 7.808 205.792 8.192 204.598 8.192ZM202.038 45.824C201.611 45.824 201.398 45.6107 201.398 45.184V13.952C201.398 13.5253 201.611 13.312 202.038 13.312H206.902C207.328 13.312 207.542 13.5253 207.542 13.952V45.184C207.542 45.6107 207.328 45.824 206.902 45.824H202.038ZM217.838 45.888C217.411 45.888 217.198 45.6747 217.198 45.248V1.728C217.198 1.30133 217.411 1.088 217.838 1.088H222.702C223.129 1.088 223.342 1.30133 223.342 1.728V45.248C223.342 45.6747 223.129 45.888 222.702 45.888H217.838ZM232.901 45.888C232.474 45.888 232.261 45.6747 232.261 45.248V1.728C232.261 1.30133 232.474 1.088 232.901 1.088H237.765C238.191 1.088 238.405 1.30133 238.405 1.728V45.248C238.405 45.6747 238.191 45.888 237.765 45.888H232.901ZM15.616 110.4C12.6293 110.4 10.0053 109.824 7.744 108.672C5.48267 107.477 3.712 105.813 2.432 103.68C1.19467 101.547 0.576003 99.0933 0.576003 96.32V78.656C0.576003 75.8827 1.19467 73.4293 2.432 71.296C3.712 69.1627 5.48267 67.52 7.744 66.368C10.0053 65.1733 12.6293 64.576 15.616 64.576C18.56 64.576 21.1627 65.152 23.424 66.304C25.728 67.456 27.4987 69.0773 28.736 71.168C29.9733 73.216 30.592 75.5413 30.592 78.144V78.976C30.592 79.4027 30.3787 79.616 29.952 79.616H26.688C26.2613 79.616 26.048 79.4027 26.048 78.976V78.208C26.048 75.3493 25.088 73.024 23.168 71.232C21.2907 69.44 18.7733 68.544 15.616 68.544C12.4587 68.544 9.92 69.4613 8 71.296C6.08 73.1307 5.12 75.5413 5.12 78.528V96.448C5.12 99.4347 6.10134 101.845 8.064 103.68C10.0267 105.515 12.608 106.432 15.808 106.432C18.9227 106.432 21.3973 105.579 23.232 103.872C25.1093 102.165 26.048 99.8827 26.048 97.024V91.2C26.048 91.0293 25.9627 90.944 25.792 90.944H16.384C15.9573 90.944 15.744 90.7307 15.744 90.304V87.616C15.744 87.1893 15.9573 86.976 16.384 86.976H29.952C30.3787 86.976 30.592 87.1893 30.592 87.616V95.872C30.592 100.437 29.2267 104 26.496 106.56C23.808 109.12 20.1813 110.4 15.616 110.4ZM53.9805 76.992C57.8205 76.992 60.7858 77.9733 62.8765 79.936C64.9672 81.8987 66.0125 84.5013 66.0125 87.744V109.248C66.0125 109.675 65.7992 109.888 65.3725 109.888H62.1085C61.6818 109.888 61.4685 109.675 61.4685 109.248V106.624C61.4685 106.539 61.4258 106.475 61.3405 106.432C61.2978 106.389 61.2338 106.411 61.1485 106.496C60.0818 107.776 58.6952 108.757 56.9885 109.44C55.2818 110.08 53.3832 110.4 51.2925 110.4C48.2632 110.4 45.7245 109.632 43.6765 108.096C41.6285 106.56 40.6045 104.213 40.6045 101.056C40.6045 97.856 41.7565 95.3387 44.0605 93.504C46.4072 91.6267 49.6498 90.688 53.7885 90.688H61.2125C61.3832 90.688 61.4685 90.6027 61.4685 90.432V88C61.4685 85.824 60.8498 84.1173 59.6125 82.88C58.4178 81.6 56.5405 80.96 53.9805 80.96C51.9325 80.96 50.2685 81.3653 48.9885 82.176C47.7085 82.944 46.9192 84.032 46.6205 85.44C46.4925 85.8667 46.2365 86.0587 45.8525 86.016L42.3965 85.568C41.9272 85.4827 41.7352 85.312 41.8205 85.056C42.1618 82.6667 43.4418 80.7253 45.6605 79.232C47.8792 77.7387 50.6525 76.992 53.9805 76.992ZM52.1885 106.496C54.7058 106.496 56.8818 105.877 58.7165 104.64C60.5512 103.36 61.4685 101.653 61.4685 99.52V94.528C61.4685 94.3573 61.3832 94.272 61.2125 94.272H54.4925C51.6765 94.272 49.4152 94.848 47.7085 96C46.0018 97.152 45.1485 98.752 45.1485 100.8C45.1485 102.677 45.7885 104.107 47.0685 105.088C48.3912 106.027 50.0978 106.496 52.1885 106.496ZM91.404 77.184C92.812 77.184 94.028 77.4613 95.052 78.016C95.3933 78.1867 95.5213 78.464 95.436 78.848L94.732 81.984C94.604 82.4107 94.3267 82.5387 93.9 82.368C93.1747 82.0693 92.3427 81.92 91.404 81.92L90.572 81.984C88.3533 82.0693 86.5187 82.9013 85.068 84.48C83.6173 86.016 82.892 87.9787 82.892 90.368V109.248C82.892 109.675 82.6787 109.888 82.252 109.888H78.988C78.5613 109.888 78.348 109.675 78.348 109.248V78.144C78.348 77.7173 78.5613 77.504 78.988 77.504H82.252C82.6787 77.504 82.892 77.7173 82.892 78.144V82.048C82.892 82.176 82.9133 82.2613 82.956 82.304C83.0413 82.304 83.1053 82.2613 83.148 82.176C84.044 80.5973 85.1747 79.3813 86.54 78.528C87.948 77.632 89.5693 77.184 91.404 77.184ZM124.324 65.728C124.324 65.3013 124.537 65.088 124.964 65.088H128.228C128.655 65.088 128.868 65.3013 128.868 65.728V109.248C128.868 109.675 128.655 109.888 128.228 109.888H124.964C124.537 109.888 124.324 109.675 124.324 109.248V106.56C124.324 106.475 124.281 106.432 124.196 106.432C124.153 106.389 124.089 106.411 124.004 106.496C123.065 107.733 121.892 108.693 120.484 109.376C119.119 110.059 117.583 110.4 115.876 110.4C112.889 110.4 110.372 109.632 108.324 108.096C106.319 106.56 104.932 104.469 104.164 101.824C103.567 99.904 103.268 97.1947 103.268 93.696C103.268 90.1547 103.524 87.5093 104.036 85.76C104.804 83.0293 106.212 80.896 108.26 79.36C110.308 77.7813 112.847 76.992 115.876 76.992C117.54 76.992 119.076 77.3333 120.484 78.016C121.892 78.656 123.065 79.5947 124.004 80.832C124.089 80.9173 124.153 80.96 124.196 80.96C124.281 80.9173 124.324 80.8533 124.324 80.768V65.728ZM123.172 101.504C123.556 100.651 123.833 99.648 124.004 98.496C124.175 97.344 124.26 95.744 124.26 93.696C124.26 91.648 124.175 90.048 124.004 88.896C123.833 87.7013 123.535 86.656 123.108 85.76C122.596 84.3093 121.743 83.1573 120.548 82.304C119.396 81.408 118.009 80.96 116.388 80.96C114.681 80.96 113.209 81.3867 111.972 82.24C110.735 83.0933 109.839 84.224 109.284 85.632C108.772 86.5707 108.388 87.6373 108.132 88.832C107.919 89.984 107.812 91.6053 107.812 93.696C107.812 95.7013 107.897 97.28 108.068 98.432C108.239 99.5413 108.537 100.544 108.964 101.44C109.476 102.976 110.372 104.192 111.652 105.088C112.975 105.984 114.532 106.432 116.324 106.432C118.031 106.432 119.46 105.984 120.612 105.088C121.764 104.192 122.617 102.997 123.172 101.504ZM166.878 88.256C167.048 89.4507 167.134 90.944 167.134 92.736V94.784C167.134 95.2107 166.92 95.424 166.494 95.424H145.822C145.651 95.424 145.566 95.5093 145.566 95.68C145.651 98.0267 145.779 99.5413 145.95 100.224C146.419 102.144 147.422 103.659 148.958 104.768C150.494 105.877 152.456 106.432 154.846 106.432C156.638 106.432 158.216 106.027 159.582 105.216C160.947 104.405 162.014 103.253 162.782 101.76C163.038 101.376 163.336 101.291 163.678 101.504L166.174 102.976C166.515 103.189 166.6 103.488 166.43 103.872C165.363 105.92 163.763 107.541 161.63 108.736C159.496 109.888 157.043 110.464 154.27 110.464C151.24 110.421 148.702 109.696 146.654 108.288C144.606 106.88 143.134 104.917 142.238 102.4C141.47 100.352 141.086 97.408 141.086 93.568C141.086 91.776 141.107 90.3253 141.15 89.216C141.235 88.064 141.406 87.04 141.662 86.144C142.387 83.3707 143.838 81.152 146.014 79.488C148.232 77.824 150.899 76.992 154.014 76.992C157.896 76.992 160.883 77.9733 162.974 79.936C165.064 81.8987 166.366 84.672 166.878 88.256ZM154.014 80.96C151.923 80.96 150.174 81.5147 148.766 82.624C147.4 83.6907 146.504 85.1413 146.078 86.976C145.822 87.872 145.651 89.3227 145.566 91.328C145.566 91.4987 145.651 91.584 145.822 91.584H162.398C162.568 91.584 162.654 91.4987 162.654 91.328C162.568 89.408 162.44 88.0427 162.27 87.232C161.8 85.312 160.84 83.7973 159.39 82.688C157.982 81.536 156.19 80.96 154.014 80.96ZM192.49 77.056C195.904 77.056 198.613 78.0587 200.618 80.064C202.666 82.0693 203.69 84.7573 203.69 88.128V109.248C203.69 109.675 203.477 109.888 203.05 109.888H199.786C199.36 109.888 199.146 109.675 199.146 109.248V89.024C199.146 86.6773 198.421 84.7573 196.97 83.264C195.562 81.7707 193.728 81.024 191.466 81.024C189.12 81.024 187.221 81.7493 185.77 83.2C184.32 84.6507 183.594 86.5493 183.594 88.896V109.248C183.594 109.675 183.381 109.888 182.954 109.888H179.69C179.264 109.888 179.05 109.675 179.05 109.248V78.144C179.05 77.7173 179.264 77.504 179.69 77.504H182.954C183.381 77.504 183.594 77.7173 183.594 78.144V80.896C183.594 80.9813 183.616 81.0453 183.658 81.088C183.744 81.1307 183.808 81.1093 183.85 81.024C185.728 78.3787 188.608 77.056 192.49 77.056ZM227.055 110.208C224.665 110.208 222.532 109.824 220.655 109.056C218.82 108.288 217.391 107.264 216.367 105.984C215.385 104.704 214.895 103.275 214.895 101.696V100.928C214.895 100.501 215.108 100.288 215.535 100.288H218.607C219.033 100.288 219.247 100.501 219.247 100.928V101.44C219.247 102.848 219.972 104.085 221.423 105.152C222.916 106.176 224.772 106.688 226.991 106.688C229.209 106.688 231.001 106.197 232.367 105.216C233.732 104.192 234.415 102.912 234.415 101.376C234.415 100.309 234.052 99.4347 233.327 98.752C232.644 98.0693 231.812 97.536 230.831 97.152C229.892 96.768 228.42 96.2773 226.415 95.68C224.025 94.9973 222.063 94.3147 220.527 93.632C218.991 92.9493 217.689 92.0107 216.623 90.816C215.599 89.5787 215.087 88.0213 215.087 86.144C215.087 83.4133 216.153 81.2373 218.287 79.616C220.42 77.9947 223.236 77.184 226.735 77.184C229.081 77.184 231.151 77.568 232.943 78.336C234.777 79.104 236.185 80.1707 237.167 81.536C238.148 82.8587 238.639 84.352 238.639 86.016V86.208C238.639 86.6347 238.425 86.848 237.999 86.848H234.991C234.564 86.848 234.351 86.6347 234.351 86.208V86.016C234.351 84.5653 233.647 83.3493 232.239 82.368C230.873 81.3867 229.017 80.896 226.671 80.896C224.495 80.896 222.745 81.344 221.423 82.24C220.1 83.0933 219.439 84.288 219.439 85.824C219.439 87.2747 220.079 88.384 221.359 89.152C222.639 89.92 224.623 90.688 227.311 91.456C229.785 92.1813 231.791 92.864 233.327 93.504C234.863 94.144 236.185 95.0827 237.295 96.32C238.404 97.5147 238.959 99.0933 238.959 101.056C238.959 103.829 237.871 106.048 235.695 107.712C233.519 109.376 230.639 110.208 227.055 110.208Z" fill="#0A545A"></path></svg>