<svg xmlns="http://www.w3.org/2000/svg" xmlns:xlink="http://www.w3.org/1999/xlink" width="2000" zoomAndPan="magnify" viewBox="0 0 1500 449.999984" height="600" preserveAspectRatio="xMidYMid meet" version="1.0"><defs><g/><clipPath id="c0bf1a3a44"><path d="M 117.183594 46.113281 L 1385.988281 46.113281 L 1385.988281 408.269531 L 117.183594 408.269531 Z M 117.183594 46.113281 " clip-rule="nonzero"/></clipPath></defs><g clip-path="url(#c0bf1a3a44)"><path stroke-linecap="butt" transform="matrix(0.75, 0, 0, 0.75, 117.185058, 46.114552)" fill="none" stroke-linejoin="miter" d="M -0.00195239 -0.00169381 L 1691.737763 -0.00169381 L 1691.737763 482.873344 L -0.00195239 482.873344 Z M -0.00195239 -0.00169381 " stroke="#778074" stroke-width="10" stroke-opacity="1" stroke-miterlimit="4"/></g><path stroke-linecap="butt" transform="matrix(0, -0.75, 0.75, 0, 646.702993, 353.26544)" fill="none" stroke-linejoin="miter" d="M -0.000246021 2.500176 L 342.770614 2.500176 " stroke="#778074" stroke-width="5" stroke-opacity="1" stroke-miterlimit="4"/><g fill="#ffffff" fill-opacity="1"><g transform="translate(199.140633, 321.011066)"><g><path d="M 172.621094 -25.933594 C 138.304688 -97.96875 122.328125 -131.757812 95.609375 -191.480469 L 95.085938 -191.480469 C 79.105469 -150.355469 46.886719 -75.441406 25.148438 -26.195312 C 18.074219 -10.476562 9.953125 -2.882812 1.570312 -1.570312 L 1.570312 0 C 8.90625 -0.785156 18.335938 -1.570312 28.550781 -1.570312 C 36.933594 -1.570312 48.199219 -0.785156 56.839844 0 L 56.839844 -1.570312 C 40.339844 -3.40625 36.148438 -10.738281 41.910156 -26.195312 C 45.316406 -34.839844 48.460938 -43.484375 51.863281 -52.125 C 61.558594 -52.652344 74.128906 -52.914062 86.703125 -52.914062 C 99.539062 -52.914062 113.160156 -52.652344 123.898438 -52.390625 C 128.089844 -42.433594 132.019531 -33.527344 134.902344 -25.671875 C 140.664062 -10.738281 133.589844 -3.144531 117.613281 -1.570312 L 117.613281 0 C 130.449219 -1.046875 148.785156 -1.570312 160.308594 -1.570312 C 171.835938 -1.570312 188.597656 -0.785156 197.503906 0 L 197.503906 -1.570312 C 184.671875 -3.929688 179.691406 -11 172.621094 -25.933594 Z M 86.441406 -64.699219 C 77.796875 -64.699219 66.273438 -65.222656 57.367188 -65.746094 C 67.058594 -90.632812 76.75 -114.730469 85.65625 -136.210938 C 94.824219 -116.828125 107.398438 -90.371094 118.136719 -65.746094 C 107.660156 -65.222656 95.609375 -64.699219 86.441406 -64.699219 Z M 86.441406 -64.699219 "/></g></g></g><g fill="#ffffff" fill-opacity="1"><g transform="translate(390.324511, 321.011066)"><g><path d="M 162.929688 -85.65625 C 149.832031 -85.65625 136.734375 -86.179688 122.328125 -87.226562 L 122.328125 -85.65625 C 139.355469 -82.773438 145.640625 -78.058594 146.949219 -64.175781 C 148.785156 -47.671875 148.785156 -36.671875 148.785156 -13.097656 C 140.402344 -9.953125 131.234375 -8.382812 122.328125 -8.382812 C 68.628906 -8.382812 48.722656 -58.414062 48.722656 -100.847656 C 48.722656 -143.28125 72.296875 -180.21875 119.445312 -180.21875 C 145.117188 -180.21875 166.070312 -169.476562 175.238281 -139.878906 L 176.8125 -139.878906 C 174.976562 -153.5 174.714844 -166.335938 176.8125 -180.21875 C 162.40625 -185.71875 141.449219 -191.21875 118.398438 -191.21875 C 57.367188 -191.21875 13.359375 -151.402344 13.359375 -94.300781 C 13.359375 -38.503906 55.007812 2.621094 118.398438 2.621094 C 143.28125 2.621094 167.90625 -3.40625 181.789062 -8.382812 C 180.21875 -32.742188 180.480469 -48.460938 182.3125 -64.175781 C 183.621094 -78.058594 189.125 -83.296875 201.695312 -85.65625 L 201.695312 -87.226562 C 190.433594 -86.179688 175.765625 -85.65625 162.929688 -85.65625 Z M 162.929688 -85.65625 "/></g></g></g><g fill="#ffffff" fill-opacity="1"><g transform="translate(707.548268, 207.480602)"><g><path d="M 76.351562 -11.46875 C 61.171875 -43.332031 54.105469 -58.277344 42.289062 -84.691406 L 42.054688 -84.691406 C 34.988281 -66.5 20.738281 -33.367188 11.121094 -11.585938 C 7.992188 -4.632812 4.402344 -1.273438 0.695312 -0.695312 L 0.695312 0 C 3.9375 -0.347656 8.109375 -0.695312 12.628906 -0.695312 C 16.335938 -0.695312 21.316406 -0.347656 25.140625 0 L 25.140625 -0.695312 C 17.84375 -1.507812 15.988281 -4.75 18.539062 -11.585938 C 20.042969 -15.410156 21.433594 -19.230469 22.941406 -23.054688 C 27.226562 -23.289062 32.789062 -23.402344 38.347656 -23.402344 C 44.027344 -23.402344 50.050781 -23.289062 54.800781 -23.171875 C 56.652344 -18.769531 58.390625 -14.828125 59.667969 -11.355469 C 62.214844 -4.75 59.085938 -1.390625 52.019531 -0.695312 L 52.019531 0 C 57.695312 -0.464844 65.808594 -0.695312 70.90625 -0.695312 C 76.003906 -0.695312 83.417969 -0.347656 87.355469 0 L 87.355469 -0.695312 C 81.679688 -1.738281 79.476562 -4.867188 76.351562 -11.46875 Z M 38.234375 -28.617188 C 34.410156 -28.617188 29.3125 -28.847656 25.371094 -29.082031 C 29.660156 -40.085938 33.945312 -50.746094 37.886719 -60.246094 C 41.941406 -51.671875 47.5 -39.96875 52.25 -29.082031 C 47.617188 -28.847656 42.289062 -28.617188 38.234375 -28.617188 Z M 38.234375 -28.617188 "/></g></g></g><g fill="#ffffff" fill-opacity="1"><g transform="translate(817.696015, 207.480602)"><g><path d="M 52.367188 1.160156 C 63.375 1.160156 74.265625 -1.507812 80.40625 -3.707031 C 79.824219 -8.574219 79.59375 -15.292969 80.40625 -23.289062 L 79.710938 -23.289062 C 76.351562 -7.183594 65.226562 -3.824219 54.917969 -3.824219 C 30.355469 -3.824219 21.550781 -25.023438 21.550781 -44.605469 C 21.550781 -64.070312 31.976562 -79.59375 53.0625 -79.59375 C 64.183594 -79.59375 73.222656 -75.65625 77.507812 -61.867188 L 78.203125 -61.867188 C 77.390625 -67.890625 77.277344 -73.570312 78.203125 -79.710938 C 71.832031 -82.140625 62.5625 -84.574219 52.367188 -84.574219 C 25.371094 -84.574219 5.910156 -66.964844 5.910156 -41.707031 C 5.910156 -17.03125 24.328125 1.160156 52.367188 1.160156 Z M 52.367188 1.160156 "/></g></g></g><g fill="#ffffff" fill-opacity="1"><g transform="translate(928.191219, 207.480602)"><g><path d="M 76.351562 -11.46875 C 61.171875 -43.332031 54.105469 -58.277344 42.289062 -84.691406 L 42.054688 -84.691406 C 34.988281 -66.5 20.738281 -33.367188 11.121094 -11.585938 C 7.992188 -4.632812 4.402344 -1.273438 0.695312 -0.695312 L 0.695312 0 C 3.9375 -0.347656 8.109375 -0.695312 12.628906 -0.695312 C 16.335938 -0.695312 21.316406 -0.347656 25.140625 0 L 25.140625 -0.695312 C 17.84375 -1.507812 15.988281 -4.75 18.539062 -11.585938 C 20.042969 -15.410156 21.433594 -19.230469 22.941406 -23.054688 C 27.226562 -23.289062 32.789062 -23.402344 38.347656 -23.402344 C 44.027344 -23.402344 50.050781 -23.289062 54.800781 -23.171875 C 56.652344 -18.769531 58.390625 -14.828125 59.667969 -11.355469 C 62.214844 -4.75 59.085938 -1.390625 52.019531 -0.695312 L 52.019531 0 C 57.695312 -0.464844 65.808594 -0.695312 70.90625 -0.695312 C 76.003906 -0.695312 83.417969 -0.347656 87.355469 0 L 87.355469 -0.695312 C 81.679688 -1.738281 79.476562 -4.867188 76.351562 -11.46875 Z M 38.234375 -28.617188 C 34.410156 -28.617188 29.3125 -28.847656 25.371094 -29.082031 C 29.660156 -40.085938 33.945312 -50.746094 37.886719 -60.246094 C 41.941406 -51.671875 47.5 -39.96875 52.25 -29.082031 C 47.617188 -28.847656 42.289062 -28.617188 38.234375 -28.617188 Z M 38.234375 -28.617188 "/></g></g></g><g fill="#ffffff" fill-opacity="1"><g transform="translate(1038.338966, 207.480602)"><g><path d="M 52.367188 1.160156 C 63.375 1.160156 74.265625 -1.507812 80.40625 -3.707031 C 79.824219 -8.574219 79.59375 -15.292969 80.40625 -23.289062 L 79.710938 -23.289062 C 76.351562 -7.183594 65.226562 -3.824219 54.917969 -3.824219 C 30.355469 -3.824219 21.550781 -25.023438 21.550781 -44.605469 C 21.550781 -64.070312 31.976562 -79.59375 53.0625 -79.59375 C 64.183594 -79.59375 73.222656 -75.65625 77.507812 -61.867188 L 78.203125 -61.867188 C 77.390625 -67.890625 77.277344 -73.570312 78.203125 -79.710938 C 71.832031 -82.140625 62.5625 -84.574219 52.367188 -84.574219 C 25.371094 -84.574219 5.910156 -66.964844 5.910156 -41.707031 C 5.910156 -17.03125 24.328125 1.160156 52.367188 1.160156 Z M 52.367188 1.160156 "/></g></g></g><g fill="#ffffff" fill-opacity="1"><g transform="translate(1148.83417, 207.480602)"><g><path d="M 40.664062 -82.722656 L 40.664062 -83.417969 C 34.871094 -83.070312 28.5 -82.722656 23.171875 -82.722656 C 17.957031 -82.722656 11.585938 -83.070312 5.675781 -83.417969 L 5.675781 -82.722656 C 12.398438 -81.332031 15.0625 -78.433594 15.410156 -72.527344 C 16.105469 -62.097656 16.105469 -53.757812 16.105469 -41.707031 C 16.105469 -29.660156 16.105469 -21.316406 15.410156 -10.890625 C 15.0625 -4.980469 12.398438 -2.085938 5.675781 -0.695312 L 5.675781 0 C 11.585938 -0.347656 17.957031 -0.695312 23.171875 -0.695312 C 28.5 -0.695312 34.871094 -0.347656 40.664062 0 L 40.664062 -0.695312 C 34.0625 -2.085938 31.398438 -4.980469 31.050781 -10.890625 C 30.355469 -22.59375 30.238281 -28.269531 30.238281 -41.707031 C 30.238281 -55.148438 30.355469 -60.824219 31.050781 -72.527344 C 31.398438 -78.433594 33.832031 -81.214844 40.664062 -82.722656 Z M 40.664062 -82.722656 "/></g></g></g><g fill="#ffffff" fill-opacity="1"><g transform="translate(1217.290173, 207.480602)"><g><path d="M 76.351562 -11.46875 C 61.171875 -43.332031 54.105469 -58.277344 42.289062 -84.691406 L 42.054688 -84.691406 C 34.988281 -66.5 20.738281 -33.367188 11.121094 -11.585938 C 7.992188 -4.632812 4.402344 -1.273438 0.695312 -0.695312 L 0.695312 0 C 3.9375 -0.347656 8.109375 -0.695312 12.628906 -0.695312 C 16.335938 -0.695312 21.316406 -0.347656 25.140625 0 L 25.140625 -0.695312 C 17.84375 -1.507812 15.988281 -4.75 18.539062 -11.585938 C 20.042969 -15.410156 21.433594 -19.230469 22.941406 -23.054688 C 27.226562 -23.289062 32.789062 -23.402344 38.347656 -23.402344 C 44.027344 -23.402344 50.050781 -23.289062 54.800781 -23.171875 C 56.652344 -18.769531 58.390625 -14.828125 59.667969 -11.355469 C 62.214844 -4.75 59.085938 -1.390625 52.019531 -0.695312 L 52.019531 0 C 57.695312 -0.464844 65.808594 -0.695312 70.90625 -0.695312 C 76.003906 -0.695312 83.417969 -0.347656 87.355469 0 L 87.355469 -0.695312 C 81.679688 -1.738281 79.476562 -4.867188 76.351562 -11.46875 Z M 38.234375 -28.617188 C 34.410156 -28.617188 29.3125 -28.847656 25.371094 -29.082031 C 29.660156 -40.085938 33.945312 -50.746094 37.886719 -60.246094 C 41.941406 -51.671875 47.5 -39.96875 52.25 -29.082031 C 47.617188 -28.847656 42.289062 -28.617188 38.234375 -28.617188 Z M 38.234375 -28.617188 "/></g></g></g><g fill="#ffffff" fill-opacity="1"><g transform="translate(707.548268, 319.210228)"><g><path d="M 39.625 -20.832031 C 36.4375 -20.832031 33.253906 -20.957031 29.75 -21.214844 L 29.75 -20.832031 C 33.890625 -20.128906 35.421875 -18.984375 35.738281 -15.609375 C 36.183594 -11.59375 36.183594 -8.917969 36.183594 -3.183594 C 34.144531 -2.421875 31.917969 -2.039062 29.75 -2.039062 C 16.691406 -2.039062 11.847656 -14.207031 11.847656 -24.527344 C 11.847656 -34.847656 17.582031 -43.828125 29.050781 -43.828125 C 35.292969 -43.828125 40.390625 -41.21875 42.617188 -34.019531 L 43 -34.019531 C 42.554688 -37.332031 42.492188 -40.453125 43 -43.828125 C 39.496094 -45.167969 34.402344 -46.503906 28.792969 -46.503906 C 13.953125 -46.503906 3.25 -36.820312 3.25 -22.933594 C 3.25 -9.363281 13.378906 0.636719 28.792969 0.636719 C 34.847656 0.636719 40.835938 -0.828125 44.210938 -2.039062 C 43.828125 -7.964844 43.894531 -11.785156 44.339844 -15.609375 C 44.65625 -18.984375 45.996094 -20.257812 49.054688 -20.832031 L 49.054688 -21.214844 C 46.3125 -20.957031 42.746094 -20.832031 39.625 -20.832031 Z M 39.625 -20.832031 "/></g></g></g><g fill="#ffffff" fill-opacity="1"><g transform="translate(802.596409, 319.210228)"><g><path d="M 41.980469 -6.308594 C 33.636719 -23.824219 29.75 -32.042969 23.253906 -46.566406 L 23.125 -46.566406 C 19.238281 -36.566406 11.402344 -18.347656 6.117188 -6.371094 C 4.394531 -2.546875 2.421875 -0.699219 0.382812 -0.382812 L 0.382812 0 C 2.164062 -0.191406 4.460938 -0.382812 6.945312 -0.382812 C 8.980469 -0.382812 11.722656 -0.191406 13.824219 0 L 13.824219 -0.382812 C 9.8125 -0.828125 8.792969 -2.613281 10.191406 -6.371094 C 11.019531 -8.472656 11.785156 -10.574219 12.613281 -12.675781 C 14.96875 -12.804688 18.027344 -12.867188 21.085938 -12.867188 C 24.207031 -12.867188 27.519531 -12.804688 30.132812 -12.742188 C 31.152344 -10.320312 32.105469 -8.152344 32.808594 -6.242188 C 34.210938 -2.613281 32.488281 -0.765625 28.605469 -0.382812 L 28.605469 0 C 31.726562 -0.253906 36.183594 -0.382812 38.988281 -0.382812 C 41.789062 -0.382812 45.867188 -0.191406 48.035156 0 L 48.035156 -0.382812 C 44.910156 -0.957031 43.703125 -2.675781 41.980469 -6.308594 Z M 21.023438 -15.734375 C 18.921875 -15.734375 16.117188 -15.863281 13.953125 -15.988281 C 16.308594 -22.042969 18.664062 -27.902344 20.832031 -33.125 C 23.0625 -28.414062 26.117188 -21.976562 28.730469 -15.988281 C 26.183594 -15.863281 23.253906 -15.734375 21.023438 -15.734375 Z M 21.023438 -15.734375 "/></g></g></g><g fill="#ffffff" fill-opacity="1"><g transform="translate(894.841607, 319.210228)"><g><path d="M 30.515625 -21.277344 C 34.78125 -23.890625 37.140625 -28.285156 37.140625 -33.0625 C 37.140625 -40.453125 31.40625 -45.867188 20.957031 -45.867188 C 18.410156 -45.867188 15.226562 -45.550781 11.914062 -45.550781 C 9.492188 -45.550781 6.242188 -45.675781 3.183594 -45.929688 L 3.183594 -45.550781 C 6.878906 -44.785156 8.28125 -43.765625 8.535156 -40.261719 C 8.855469 -35.867188 8.855469 -25.417969 8.855469 -22.933594 C 8.855469 -16.308594 8.855469 -11.65625 8.472656 -5.925781 C 8.28125 -2.675781 6.816406 -1.148438 3.121094 -0.382812 L 3.121094 0 C 6.371094 -0.191406 9.875 -0.382812 12.742188 -0.382812 C 15.671875 -0.382812 19.175781 -0.191406 22.359375 0 L 22.359375 -0.382812 C 18.601562 -1.148438 17.265625 -2.675781 17.074219 -5.859375 C 16.753906 -11.085938 16.691406 -14.207031 16.628906 -19.046875 C 18.027344 -18.921875 19.8125 -18.855469 21.214844 -18.855469 L 22.359375 -18.855469 C 32.746094 -3.824219 28.792969 0 49.5625 0 L 49.5625 -0.382812 C 42.109375 -0.636719 37.90625 -8.28125 30.515625 -21.277344 Z M 20.128906 -21.085938 C 18.664062 -21.085938 17.582031 -21.277344 16.628906 -21.597656 L 16.628906 -22.933594 C 16.628906 -29.175781 16.628906 -33.699219 17.007812 -42.875 C 18.027344 -43.066406 18.921875 -43.128906 19.875 -43.128906 C 26.308594 -43.128906 29.367188 -37.90625 29.367188 -32.042969 C 29.367188 -27.585938 27.648438 -21.085938 20.128906 -21.085938 Z M 20.128906 -21.085938 "/></g></g></g><g fill="#ffffff" fill-opacity="1"><g transform="translate(986.513479, 319.210228)"><g><path d="M 22.296875 -45.867188 C 18.472656 -45.867188 15.097656 -45.484375 11.65625 -45.484375 C 9.238281 -45.484375 5.414062 -45.675781 3.121094 -45.867188 L 3.121094 -45.484375 C 6.753906 -44.785156 8.28125 -43.765625 8.472656 -40.007812 C 8.664062 -36.4375 8.792969 -31.023438 8.792969 -22.871094 C 8.792969 -14.460938 8.664062 -9.363281 8.472656 -5.796875 C 8.21875 -2.292969 7.136719 -1.210938 3.183594 -0.382812 L 3.183594 0 C 5.160156 -0.191406 10.449219 -0.382812 13.3125 -0.382812 C 17.136719 -0.382812 21.46875 0 24.335938 0 C 39.625 0 48.988281 -11.019531 48.988281 -23.761719 C 48.988281 -37.140625 38.734375 -45.867188 22.296875 -45.867188 Z M 25.101562 -2.484375 C 20.894531 -2.484375 17.328125 -3.695312 16.816406 -8.28125 C 16.5625 -11.019531 16.5625 -14.589844 16.5625 -22.296875 C 16.5625 -29.113281 16.5625 -34.210938 17.007812 -43.128906 C 18.601562 -43.320312 20.195312 -43.445312 21.597656 -43.445312 C 35.421875 -43.445312 40.453125 -32.488281 40.453125 -22.167969 C 40.453125 -11.914062 35.484375 -2.484375 25.101562 -2.484375 Z M 25.101562 -2.484375 "/></g></g></g><g fill="#ffffff" fill-opacity="1"><g transform="translate(1082.644576, 319.210228)"><g><path d="M 34.019531 -10.574219 L 33.636719 -10.640625 C 32.363281 -4.714844 30.070312 -3.121094 24.652344 -3.121094 C 21.023438 -3.121094 17.136719 -3.441406 16.882812 -8.027344 C 16.691406 -10.828125 16.628906 -15.800781 16.628906 -22.871094 C 18.792969 -22.871094 21.023438 -22.804688 23.253906 -22.679688 C 28.09375 -22.488281 28.539062 -21.277344 29.367188 -17.902344 L 29.75 -17.964844 C 29.496094 -19.941406 29.367188 -22.042969 29.367188 -23.953125 C 29.367188 -25.800781 29.558594 -27.902344 29.75 -29.941406 L 29.367188 -30.003906 C 28.730469 -27.074219 28.03125 -25.355469 23.253906 -25.164062 C 20.195312 -25.035156 18.21875 -24.972656 16.628906 -25.035156 C 16.628906 -30.324219 16.691406 -34.273438 17.007812 -43 C 19.941406 -43.253906 21.976562 -43.320312 23.632812 -43.320312 C 29.558594 -43.320312 32.363281 -41.597656 33.382812 -36.183594 L 33.761719 -36.183594 C 33.382812 -39.433594 33.445312 -43.511719 33.761719 -45.929688 C 30.132812 -45.675781 24.910156 -45.484375 19.300781 -45.484375 C 13.25 -45.484375 7.582031 -45.675781 3.121094 -45.867188 L 3.121094 -45.484375 C 6.816406 -44.785156 8.28125 -42.9375 8.472656 -39.6875 C 8.855469 -33.953125 8.855469 -29.304688 8.855469 -22.933594 C 8.855469 -15.734375 8.855469 -11.976562 8.535156 -6.050781 C 8.34375 -2.355469 6.816406 -1.148438 3.183594 -0.382812 L 3.183594 0 C 7.515625 -0.320312 15.351562 -0.382812 19.300781 -0.382812 C 23.507812 -0.382812 28.605469 -0.382812 34.019531 0 C 33.636719 -3.632812 33.636719 -7.070312 34.019531 -10.574219 Z M 34.019531 -10.574219 "/></g></g></g><g fill="#ffffff" fill-opacity="1"><g transform="translate(1164.824661, 319.210228)"><g><path d="M 44.210938 -45.484375 C 42.109375 -45.484375 39.941406 -45.613281 36.695312 -45.867188 L 36.695312 -45.484375 C 39.878906 -44.722656 41.597656 -43.445312 41.789062 -39.816406 C 42.046875 -34.972656 42.171875 -30.898438 42.171875 -24.589844 L 42.171875 -14.90625 C 31.023438 -25.035156 19.8125 -35.546875 8.601562 -46.566406 L 8.472656 -46.566406 C 8.535156 -39.242188 8.535156 -30.707031 8.535156 -23.378906 C 8.535156 -16.308594 8.472656 -11.53125 8.21875 -5.988281 C 8.027344 -2.421875 6.308594 -1.148438 3.121094 -0.382812 L 3.121094 0 C 6.308594 -0.253906 8.21875 -0.382812 10.320312 -0.382812 C 12.359375 -0.382812 14.714844 -0.253906 17.964844 0 L 17.964844 -0.382812 C 14.78125 -1.148438 13.058594 -2.421875 12.867188 -6.117188 C 12.613281 -11.59375 12.484375 -16.371094 12.484375 -23.445312 L 12.484375 -31.023438 C 24.015625 -20.703125 35.164062 -10.128906 46.058594 0.636719 L 46.1875 0.636719 C 46.121094 -7.390625 46.121094 -16.246094 46.121094 -24.082031 C 46.121094 -30.578125 46.1875 -34.910156 46.441406 -39.878906 C 46.632812 -43.445312 48.351562 -44.722656 51.539062 -45.484375 L 51.539062 -45.867188 C 48.351562 -45.613281 46.3125 -45.484375 44.210938 -45.484375 Z M 44.210938 -45.484375 "/></g></g></g><g fill="#ffffff" fill-opacity="1"><g transform="translate(1263.312782, 319.210228)"><g><path d="M 16.117188 0.636719 C 24.589844 0.636719 31.34375 -4.394531 31.34375 -12.230469 C 31.34375 -24.972656 13.1875 -28.792969 13.1875 -37.777344 C 13.1875 -41.027344 15.542969 -43.828125 20.128906 -43.828125 C 24.015625 -43.828125 27.203125 -41.664062 28.222656 -36.3125 L 28.605469 -36.3125 C 28.222656 -38.476562 28.347656 -41.789062 28.605469 -44.148438 C 26.566406 -45.421875 23.761719 -46.503906 19.8125 -46.503906 C 12.613281 -46.503906 5.542969 -42.875 5.542969 -35.039062 C 5.542969 -22.933594 23.632812 -19.300781 23.632812 -9.046875 C 23.632812 -4.460938 20.066406 -2.039062 15.734375 -2.039062 C 10.765625 -2.039062 6.371094 -5.414062 5.160156 -11.65625 L 4.777344 -11.65625 C 5.097656 -8.726562 5.03125 -5.988281 4.777344 -3.121094 C 6.878906 -1.527344 10.574219 0.636719 16.117188 0.636719 Z M 16.117188 0.636719 "/></g></g></g></svg>