<?xml version="1.0" encoding="UTF-8" standalone="no"?><!DOCTYPE svg PUBLIC "-//W3C//DTD SVG 1.1//EN" "http://www.w3.org/Graphics/SVG/1.1/DTD/svg11.dtd"><svg width="100%" height="100%" viewBox="0 0 350 63" version="1.1" xmlns="http://www.w3.org/2000/svg" xmlns:xlink="http://www.w3.org/1999/xlink" xml:space="preserve" xmlns:serif="http://www.serif.com/" style="fill-rule:evenodd;clip-rule:evenodd;stroke-linejoin:round;stroke-miterlimit:2;"><g><g><path d="M319.684,50.774l-1.898,4.767l4.258,4.952l4.027,-1.944l-1.99,-2.592l-4.397,-5.183Z" style="fill:#fffbf7;fill-rule:nonzero;"/><path d="M337.874,59.244l-3.379,-8.332l-3.101,3.703l0.046,0l2.916,7.22l10.044,0l5.6,-2.591l-12.126,-0Z" style="fill:#fffbf7;fill-rule:nonzero;"/><path d="M328.154,46.423l4.582,-0l-5.647,-14.024l-2.314,5.646l3.379,8.378Z" style="fill:#fffbf7;fill-rule:nonzero;"/><path d="M123.069,59.29l-12.543,-0l0,-58.735l-3.193,4.351l-0,56.929l10.784,0l4.952,-2.545Z" style="fill:#fffbf7;fill-rule:nonzero;"/><path d="M72.064,11.34c-4.721,-0 -9.025,1.62 -12.358,4.304c0.047,0 0.047,-0.046 0.093,-0.046c2.499,-1.065 5.23,-1.62 8.146,-1.62c10.923,-0 19.81,8.377 19.81,18.699c-0,3.425 -0.972,6.618 -2.639,9.349c3.611,-3.24 5.878,-7.822 5.878,-12.867c-0.046,-9.859 -8.516,-17.819 -18.93,-17.819Z" style="fill:#fffbf7;fill-rule:nonzero;"/><path d="M27.585,12.45l0,2.546l3.888,0l4.906,-2.546l-8.794,0Z" style="fill:#fffbf7;fill-rule:nonzero;"/><path d="M26.012,59.336l-12.451,0l0,-46.886l-10.414,0l0,-11.895l-3.147,4.351l0,10.09l10.414,0l-0,46.839l10.645,0l4.953,-2.499Z" style="fill:#fffbf7;fill-rule:nonzero;"/><path d="M263.032,0.555l-3.147,4.351l-0,56.929l31.473,0l4.767,-2.453l0.324,-0.138l-33.417,-0l0,-58.689Z" style="fill:#fffbf7;fill-rule:nonzero;"/><path d="M81.645,59.058c-3.055,0.88 -6.248,1.343 -9.581,1.343c-18.282,-0 -33.139,-14.024 -33.139,-31.288c-0,-3.842 0.74,-7.498 2.083,-10.923c1.064,-2.731 2.545,-5.323 4.35,-7.637l-2.268,2.684l-0.092,0.093l-0.509,0.601l-0,0.047c-4.258,5.137 -6.758,11.617 -6.758,18.652c0,16.801 14.441,30.363 32.26,30.363c5.786,-0 11.247,-1.435 15.922,-3.981c0.093,0 2.314,-1.342 4.351,-2.592l-0.047,-0.046c-2.036,1.111 -4.258,2.036 -6.572,2.684Z" style="fill:#fffbf7;fill-rule:nonzero;"/><path d="M127.096,12.358l-2.499,-0l-0,2.731l0.046,-0c5.091,0.786 8.979,4.952 8.979,9.951c0,1.388 -0.324,2.777 -0.879,3.98c2.453,-1.666 4.073,-4.443 4.073,-7.498c0.046,-5.045 -4.305,-9.164 -9.72,-9.164Z" style="fill:#fffbf7;fill-rule:nonzero;"/><path d="M165.882,12.358l-10.46,-0l-0,-11.803l-3.147,4.351l-0,10.09l10.367,0l0,46.839l10.692,0l4.952,-2.545l-12.404,-0l0,-46.932Z" style="fill:#fffbf7;fill-rule:nonzero;"/><path d="M179.814,12.45l-0,2.546l3.887,0l4.999,-2.546l-8.886,0Z" style="fill:#fffbf7;fill-rule:nonzero;"/><path d="M197.911,0.555l-3.194,4.351l0,56.929l12.312,0l3.425,-2.499l-12.543,0l-0,-58.781Z" style="fill:#fffbf7;fill-rule:nonzero;"/><path d="M220.682,0.555l-3.193,4.351l-0,56.929l31.473,0l4.767,-2.453l0.324,-0.138l-33.371,-0l0,-58.689Z" style="fill:#fffbf7;fill-rule:nonzero;"/><path d="M320.934,48.83l6.155,7.313l6.156,-7.313l-12.311,-0Z" style="fill:#fffbf7;fill-rule:nonzero;"/><path d="M318.897,46.377l7.637,-18.838l0.509,-1.25l0.463,1.25l11.849,29.529l9.997,0l-22.355,-55.032l-22.309,55.032l9.951,0l3.564,-8.979l0.37,-0.833l0.324,-0.879Z" style="fill:#fffbf7;fill-rule:nonzero;"/><path d="M5.23,10.414l10.414,-0l0,46.839l9.859,0l-0,-46.839l10.367,-0l0,-9.257l-30.64,0l0,9.257Z" style="fill:#fffbf7;fill-rule:nonzero;"/><path d="M72.018,0c-17.125,0 -31.103,13.145 -31.103,29.298c0,16.107 13.932,29.205 31.103,29.205c17.079,0 31.01,-13.098 31.01,-29.205c-0.046,-16.153 -13.931,-29.298 -31.01,-29.298Zm-0,49.154c-11.617,-0 -21.059,-8.933 -21.059,-19.856c-0,-10.97 9.442,-19.856 21.059,-19.856c11.571,-0 20.967,8.933 20.967,19.856c-0,10.969 -9.442,19.856 -20.967,19.856Z" style="fill:#fffbf7;fill-rule:nonzero;"/><path d="M148.803,21.707c0,-11.293 -9.766,-20.504 -21.8,-20.504l-14.44,0l-0,56.097l9.951,-0l-0,-16.663l18.884,17.866l6.942,-6.48l-12.913,-11.293l1.574,-0.787c7.266,-3.61 11.802,-10.599 11.802,-18.236Zm-21.753,11.247l-4.536,0l-0,-22.494l4.536,0c6.526,0 11.848,5.045 11.848,11.247c-0.046,6.202 -5.322,11.247 -11.848,11.247Z" style="fill:#fffbf7;fill-rule:nonzero;"/><path d="M168.15,10.182l-0,46.886l9.303,0l0,-46.886l10.414,0l-0,-8.701l-30.131,0l0,8.701l10.414,0Z" style="fill:#fffbf7;fill-rule:nonzero;"/><rect x="200.225" y="1.481" width="9.396" height="55.587" style="fill:#fffbf7;"/><path d="M274.788,48.321l0,-46.84l-9.395,0l-0,55.587l30.084,0l0,-8.747l-20.689,-0Z" style="fill:#fffbf7;fill-rule:nonzero;"/><path d="M232.392,48.321l0,-46.84l-9.395,0l-0,55.587l30.084,0l0,-8.747l-20.689,-0Z" style="fill:#fffbf7;fill-rule:nonzero;"/><path d="M301.263,59.244l23.882,-58.92l-4.026,5.832l-21.383,52.625l-0.186,0.463l-0.092,0.138l-0.972,2.453l11.571,0l4.675,-2.591l-13.469,-0Z" style="fill:#fffbf7;fill-rule:nonzero;"/><path d="M124.597,45.266l-0,6.156l0.046,-0l11.617,11.015l4.027,-2.129l-3.425,-3.471l-12.265,-11.571Z" style="fill:#fffbf7;fill-rule:nonzero;"/></g></g></svg>