<svg xmlns="http://www.w3.org/2000/svg" width="343" height="88" viewBox="0 0 343 88" fill="none"><path d="M61.1018 29.427V35.8186H51.5626V61.8605H45.1656V35.8186H35.621V29.427H61.1018Z" fill="#69BF4A"></path><path d="M65.7353 61.8605V29.427H78.6146C80.3729 29.427 81.9707 29.8706 83.3976 30.7577C84.8245 31.6448 85.9628 32.8366 86.8018 34.3276C87.6409 35.8186 88.063 37.4646 88.063 39.2709C88.063 40.6924 87.8172 42.0071 87.3202 43.2202C86.8232 44.4333 86.1285 45.4968 85.236 46.4053C84.3382 47.3191 83.2961 48.0246 82.1097 48.5376L89.8213 61.8605H82.4517L75.0608 49.1201H72.1215V61.8605H65.7299H65.7353ZM72.1269 42.7232H77.8504C78.5452 42.7232 79.1811 42.5468 79.7636 42.1995C80.3408 41.8521 80.8057 41.3818 81.1531 40.7886C81.5005 40.1954 81.6768 39.5327 81.6768 38.8059C81.6768 38.0791 81.5005 37.4432 81.1531 36.85C80.8057 36.2568 80.3408 35.7812 79.7636 35.4231C79.1865 35.0651 78.5452 34.8887 77.8504 34.8887H72.1269V42.7178V42.7232Z" fill="#69BF4A"></path><path d="M93.8342 61.8605V29.427H114.361V35.8186H100.231V41.2856H111.256V47.6825H100.231V55.4636H114.361V61.8605H93.8342Z" fill="#69BF4A"></path><path d="M119.501 61.8605V29.427H140.028V35.8186H125.898V41.2856H136.923V47.6825H125.898V55.4636H140.028V61.8605H119.501Z" fill="#69BF4A"></path><path d="M156.919 62.4587C155.097 62.4587 153.354 62.1701 151.692 61.6037C150.03 61.0318 148.582 60.2035 147.337 59.124C146.092 58.0445 145.199 56.7619 144.66 55.2762L150.661 53.0531C150.848 53.5768 151.233 54.0684 151.821 54.5227C152.409 54.9769 153.141 55.351 154.022 55.6343C154.904 55.9228 155.866 56.0618 156.919 56.0618C157.972 56.0618 158.87 55.9122 159.757 55.6075C160.644 55.3083 161.365 54.8861 161.91 54.3463C162.455 53.8066 162.733 53.1706 162.733 52.4438C162.733 51.717 162.445 51.1185 161.878 50.6375C161.306 50.1565 160.574 49.7771 159.677 49.4885C158.779 49.2053 157.865 48.9808 156.919 48.8258C154.589 48.4892 152.499 47.9334 150.65 47.1692C148.807 46.405 147.348 45.3468 146.284 43.9948C145.215 42.6427 144.686 40.9272 144.686 38.8377C144.686 36.7481 145.253 35.0754 146.386 33.5791C147.519 32.0827 149.02 30.9123 150.88 30.0787C152.74 29.245 154.755 28.8281 156.914 28.8281C158.704 28.8281 160.435 29.1114 162.103 29.6832C163.77 30.255 165.224 31.0833 166.469 32.1629C167.714 33.2424 168.607 34.541 169.146 36.0534L163.145 38.2338C162.958 37.7101 162.573 37.2237 161.985 36.7748C161.397 36.3259 160.665 35.9625 159.783 35.6846C158.902 35.4067 157.945 35.2678 156.908 35.2678C155.92 35.2518 154.979 35.4014 154.092 35.706C153.205 36.016 152.478 36.4382 151.917 36.9779C151.35 37.5177 151.072 38.1376 151.072 38.8323C151.072 39.7462 151.34 40.4302 151.874 40.8952C152.408 41.3601 153.114 41.6914 153.996 41.8892C154.877 42.0869 155.85 42.2686 156.914 42.4236C159.105 42.7496 161.13 43.3214 162.985 44.1497C164.839 44.9781 166.325 46.0736 167.442 47.4364C168.564 48.8045 169.12 50.4665 169.12 52.4278C169.12 54.3891 168.558 56.1901 167.431 57.6864C166.303 59.1828 164.812 60.3478 162.958 61.1815C161.103 62.0151 159.089 62.432 156.914 62.432" fill="#69BF4A"></path><path d="M188.742 61.8605V29.427H199.489C201.728 29.427 203.823 29.8492 205.779 30.6882C207.73 31.5326 209.456 32.6976 210.947 34.1886C212.438 35.6796 213.603 37.4004 214.447 39.3564C215.286 41.3123 215.709 43.4072 215.709 45.6464C215.709 47.8856 215.286 49.9805 214.447 51.9365C213.603 53.8924 212.438 55.6132 210.947 57.1042C209.456 58.5952 207.735 59.7603 205.779 60.6046C203.823 61.4437 201.728 61.8658 199.489 61.8658H188.742V61.8605ZM195.134 55.4689H199.489C200.82 55.4689 202.07 55.2124 203.251 54.7047C204.432 54.197 205.48 53.4916 206.388 52.5991C207.302 51.7013 208.013 50.6592 208.531 49.4728C209.05 48.2864 209.306 47.0092 209.306 45.6518C209.306 44.2944 209.05 43.0225 208.531 41.8414C208.013 40.6604 207.302 39.6182 206.399 38.7151C205.496 37.8119 204.454 37.1065 203.273 36.5935C202.092 36.0858 200.831 35.8293 199.484 35.8293H195.128V55.4743L195.134 55.4689Z" fill="#69BF4A"></path><path d="M226.379 29.427H219.988V61.8605H226.379V29.427Z" fill="#69BF4A"></path><path d="M232.638 61.8605V29.427H245.518C247.276 29.427 248.874 29.8706 250.301 30.7577C251.727 31.6448 252.866 32.8366 253.705 34.3276C254.549 35.8186 254.966 37.4646 254.966 39.2709C254.966 40.6924 254.72 42.0071 254.223 43.2202C253.732 44.4333 253.031 45.4968 252.139 46.4053C251.241 47.3191 250.199 48.0299 249.013 48.5376L256.73 61.8605H249.36L241.969 49.1201H239.024V61.8605H232.633H232.638ZM239.03 42.7285H244.753C245.448 42.7285 246.084 42.5522 246.667 42.2048C247.244 41.8574 247.709 41.3872 248.056 40.7886C248.403 40.1954 248.58 39.5327 248.58 38.8059C248.58 38.0791 248.403 37.4432 248.056 36.85C247.709 36.2568 247.244 35.7812 246.667 35.4231C246.089 35.0704 245.448 34.8887 244.753 34.8887H239.03V42.7178V42.7285Z" fill="#69BF4A"></path><path d="M260.737 61.8605V29.427H281.264V35.8186H267.134V41.2856H278.159V47.6825H267.134V55.4636H281.264V61.8605H260.737Z" fill="#69BF4A"></path><path d="M301.298 62.4589C299.107 62.4589 297.044 62.0207 295.115 61.1496C293.186 60.2785 291.492 59.0708 290.033 57.5263C288.574 55.9818 287.43 54.1969 286.602 52.1608C285.779 50.13 285.362 47.955 285.362 45.641C285.362 43.327 285.773 41.1305 286.602 39.0944C287.43 37.0636 288.574 35.2787 290.033 33.7449C291.492 32.2058 293.186 31.0034 295.115 30.1323C297.044 29.2612 299.107 28.823 301.298 28.823C303.922 28.823 306.343 29.4269 308.55 30.64C310.757 31.8531 312.59 33.4724 314.038 35.4925L308.342 38.576C307.476 37.5553 306.434 36.743 305.215 36.1338C303.997 35.5245 302.688 35.2199 301.298 35.2199C299.983 35.2199 298.749 35.4925 297.589 36.0322C296.43 36.572 295.414 37.3202 294.543 38.2768C293.672 39.2334 292.988 40.3396 292.491 41.5901C291.994 42.8406 291.748 44.1927 291.748 45.6463C291.748 47.0999 291.994 48.4306 292.491 49.6865C292.983 50.9477 293.667 52.0486 294.543 52.9998C295.414 53.9511 296.43 54.6993 297.589 55.2497C298.749 55.8001 299.983 56.0727 301.298 56.0727C302.704 56.0727 304.013 55.7627 305.226 55.1482C306.439 54.5336 307.476 53.7106 308.342 52.6952L314.038 55.8001C312.585 57.8095 310.757 59.4235 308.55 60.6419C306.343 61.8604 303.922 62.4696 301.298 62.4696" fill="#69BF4A"></path><path d="M342.998 29.427V35.8186H333.453V61.8605H327.062V35.8186H317.517V29.427H342.998Z" fill="#69BF4A"></path><path d="M26.0728 32.5584C26.9439 31.3827 26.8317 30.533 27.2378 30.3299C28.4082 29.7367 30.6314 29.2664 31.6254 28.2724C32.614 27.2837 32.7637 26.7119 32.5927 26.5356C32.4217 26.3646 32.3949 26.3859 32.0957 26.9097C31.7964 27.428 31.0055 27.9999 29.7389 28.6946C28.4777 29.3893 27.334 29.5603 27.1844 29.4107C27.0348 29.2611 26.8103 27.8983 27.0134 27.2036C27.2111 26.5089 27.8097 25.3599 29.1831 24.4888C29.1831 24.4888 29.0549 24.3338 28.7235 24.5315C28.3975 24.7293 27.1523 25.6217 26.805 26.3165C26.4576 27.0165 26.2599 27.7968 26.3668 28.8442C26.4469 29.6138 26.324 30.3459 25.4315 31.6125C24.5391 32.879 24.2131 33.0501 23.5344 33.6165C22.861 34.183 21.6586 34.8831 19.9378 35.6633C18.217 36.4489 16.4481 37.4964 15.5983 38.9981C14.7486 40.4998 14.6417 40.8525 14.5509 41.1571C14.4654 41.4617 14.0485 41.3548 13.5676 40.612C13.0866 39.8692 12.1514 38.453 12.0873 36.6253C12.0231 34.7922 13.2843 31.2437 14.2463 29.9558C15.2082 28.6679 18.3452 25.9905 19.2377 25.2263C20.1302 24.462 22.7915 23.2863 23.9245 22.939C25.0574 22.5916 27.5211 21.9129 28.8945 21.7633C30.268 21.6083 32.7957 21.8274 33.7096 21.6991C34.6234 21.5655 36.9374 20.4326 38.1559 20.128C39.3744 19.8233 41.9716 20.454 42.6236 20.6944C43.2756 20.9349 43.8688 21.4373 44.6704 21.2609C45.4773 21.0846 47.3104 19.8447 49.4854 19.6042C51.6658 19.3638 54.0867 20.4753 55.1556 21.154C55.1556 21.154 55.877 21.309 55.4388 20.7158C55.0006 20.128 52.911 19.3638 51.8208 19.1019C50.7306 18.84 49.2075 18.7973 48.6624 18.9255C48.1173 19.0538 48.1815 18.7278 49.122 18.2255C50.0573 17.7231 51.4307 16.9803 53.9852 17.0284C56.5343 17.0711 54.7066 16.5902 53.7233 16.5688C52.74 16.5474 50.736 16.5688 49.3198 17.2902C47.9036 18.0117 47.5081 18.5995 46.8134 19.1874C46.1133 19.7753 44.6971 20.8227 43.981 20.3417C43.2595 19.8608 40.7531 19.2088 39.6416 19.2515C38.53 19.2943 38.049 19.4279 38.4872 19.1233C38.9255 18.8187 40.1012 18.188 40.363 17.3383C40.363 17.3383 40.2348 17.1406 39.6202 17.7765C39.011 18.4072 36.7664 19.5882 35.7617 20.0638C34.757 20.5448 32.3201 20.5448 31.8178 20.6303C31.3154 20.7158 31.1872 20.4326 31.7536 19.8661C32.3201 19.2996 34.3936 16.9215 35.5052 16.2909C36.6168 15.6603 38.5995 14.7411 39.9943 14.2868C41.3891 13.8272 42.6557 13.373 44.3765 13.3944C46.0973 13.4157 46.7279 13.4585 47.5616 13.9822C48.3899 14.5059 49.8061 15.858 51.3345 15.4839C51.3345 15.4839 51.6177 15.2007 51.094 15.1152C50.5703 15.0297 49.4587 14.3296 48.9564 13.9608C48.454 13.5921 47.8234 13.1325 48.7159 13.0684C49.6084 13.0042 50.939 12.3469 51.4841 12.0637C52.0292 11.7804 52.8576 11.4331 53.8837 11.8659C54.9097 12.3042 56.4969 12.4752 57.2825 13.0203C58.0681 13.5654 58.6773 14.8319 58.7842 15.4412C58.8911 16.0504 59.2652 15.3343 59.1102 14.8961C58.9552 14.4578 58.5865 13.699 58.4796 13.4371C58.3727 13.1753 59.4148 13.6135 60.8577 13.5654C62.2953 13.5226 62.2526 13.4371 62.5572 13.544C62.8618 13.6509 63.8451 14.8319 65.2399 15.1579C66.6347 15.4839 66.5492 15.377 67.7036 15.377C68.8579 15.377 71.8025 16.2909 73.5447 17.8407C75.2869 19.3905 78.2903 22.8909 78.2903 22.8909C78.2903 22.8909 75.3777 17.6216 72.0483 16.0237C68.719 14.4258 68.0242 14.7731 68.0242 14.7731C68.0242 14.7731 69.8947 14.1479 70.3115 12.9027C70.3115 12.9027 67.8158 15.3984 65.3147 14.5006C64.4811 14.1532 63.6474 13.1806 63.6474 13.1806C63.6474 13.1806 64.7215 13.1272 65.443 12.5553C65.443 12.5553 65.1437 12.3576 64.9994 12.4057C64.8498 12.4538 61.2318 13.4692 58.036 12.4805C54.8403 11.4919 54.044 10.7971 53.4027 10.7437C53.4027 10.7437 54.541 8.8091 55.7541 8.29072C55.7541 8.29072 55.7274 7.99145 55.2357 8.21591C54.7387 8.44036 53.6271 9.47712 52.9538 10.0489C52.2858 10.6208 49.8061 12.3309 47.5295 12.3523C45.2476 12.379 43.81 12.2774 42.2495 12.55C42.2495 12.55 43.2382 11.5346 43.4145 10.5406C43.4145 10.5406 43.2168 10.3161 42.971 10.6154C42.7251 10.9147 42.0785 12.2507 40.3951 12.9668C38.7117 13.6829 37.0764 14.3777 36.729 14.6502C36.3816 14.9228 36.3549 14.5273 37.0283 13.7097C37.6963 12.892 38.8346 10.9361 40.6195 9.96878C42.4045 9.00149 45.2529 8.33348 47.9303 8.33348C47.9303 8.33348 48.2029 8.21056 47.8822 7.98611C47.5616 7.76166 44.7345 7.98611 43.174 8.38157C43.174 8.38157 43.9169 7.66546 43.965 6.89591C44.0131 6.12635 43.6443 6.50044 43.5695 6.77299C43.4947 7.04554 42.9496 8.06093 41.6349 8.72894C40.3203 9.39696 38.6101 10.5887 37.397 11.8499C36.1839 13.1111 32.7637 17.7231 31.0055 18.84C29.2472 19.957 27.1149 20.5769 25.5064 20.9189C23.8978 21.2663 22.4335 21.7098 21.8884 22.0839C21.3433 22.458 20.8249 22.3297 21.1188 21.7098C21.4181 21.0899 22.1342 20.2723 23.0267 19.7004C23.9191 19.1286 25.159 18.7331 26.495 18.808C27.831 18.8828 29.4663 18.5835 30.4604 18.0651C31.449 17.5468 31.3047 17.1459 30.9306 17.349C30.5566 17.5468 30.0863 17.8193 28.7235 18.0651C27.3608 18.311 26.7141 18.3644 26.5912 18.0384C26.4683 17.7178 27.4837 17.7391 29.0709 17.0444C30.6581 16.3497 31.4971 15.2381 31.9941 14.3456C32.4911 13.4532 34.0035 12.1385 35.3876 11.6949C35.3876 11.6949 36.232 10.9788 35.2647 11.2727C34.2974 11.572 33.8272 11.8178 33.405 12.1385C32.9828 12.4591 33.1805 11.9675 33.405 11.5186C33.6294 11.075 33.576 10.0543 33.3034 9.71226C33.0309 9.36489 33.0309 9.71226 33.1324 10.1077C33.234 10.5032 32.9347 11.572 32.5125 12.24C32.0903 12.908 31.4704 13.9769 30.9039 14.5434C30.3321 15.1152 28.9961 16.3016 27.5104 16.4779C26.0247 16.6489 24.4642 17.4185 23.994 17.6429C23.5237 17.8674 23.5985 17.5414 24.2184 16.852C24.8383 16.1573 25.7308 15.2167 27.3661 14.4739C29.0014 13.731 29.7442 12.8119 29.9206 12.3683C30.0916 11.9247 29.7442 11.7965 29.274 12.3202C28.8037 12.8386 27.5157 13.56 26.7462 13.731C25.9766 13.9021 26.65 12.7157 27.3661 11.8232C28.0822 10.9307 28.9533 10.2146 29.3755 10.0169C29.7977 9.81915 29.4984 9.34886 28.9533 9.57332C28.4082 9.79777 27.0187 10.6635 26.153 11.8766C25.2872 13.0897 24.9613 14.2334 24.2932 15.051C23.6252 15.8687 21.7655 18.3484 21.2204 19.2408C20.6753 20.1333 19.3392 22.4366 17.4528 23.7246C15.5716 25.0125 14.754 25.9317 14.2837 26.5249C13.8134 27.1181 13.7653 26.6959 13.963 25.8782C14.1608 25.0606 15.6464 21.9877 16.913 20.6998C18.1742 19.4119 17.3352 19.7058 16.7634 20.2295C16.1915 20.7479 14.5562 22.6825 14.1127 23.3772C13.6638 24.0719 13.5195 23.8475 13.1935 23.2062C12.8728 22.5595 12.0552 20.454 10.6176 19.7378C9.18005 19.0164 10.2702 19.8127 10.7405 20.2348C11.2108 20.657 12.0766 21.945 12.4026 23.1848C12.7232 24.4246 12.5041 26.108 11.9323 27.396C11.3605 28.6839 10.0992 33.2211 9.79997 34.6319C9.5007 36.0428 9.57551 38.3247 10.1206 39.7837C10.6657 41.248 11.9536 42.6107 12.7713 44.3208C13.589 46.0309 14.2089 48.9275 14.5562 50.0711C14.9036 51.2094 16.0633 54.2556 18.2437 55.8641C20.4241 57.4727 22.535 58.0499 23.6519 58.3973C23.6519 58.3973 21.199 56.8956 19.708 55.1854C18.1742 53.4272 16.6725 50.1139 16.245 47.5701C15.8228 45.069 16.1221 41.5953 17.5329 39.4897C18.9438 37.3841 21.1509 36.5665 22.4655 35.9199C23.7802 35.2732 24.3467 34.7816 24.817 34.2365L26.0782 32.5531L26.0728 32.5584Z" fill="#69BF4A"></path><path d="M61.5348 78.8114C62.2135 78.8114 63.1487 78.7579 63.1487 78.7579C73.7621 76.9356 76.5731 69.9134 76.5731 69.9134C72.9819 74.8033 65.4413 77.6143 62.5769 77.7693C59.7178 77.9242 59.194 77.144 55.7097 75.4285C52.2253 73.7131 48.1638 75.2201 48.1638 75.2201C45.9887 71.7785 42.0234 72.1526 39.6826 71.6289C37.3419 71.1105 36.1448 70.4852 32.297 67.0008C28.4493 63.5165 26.7819 65.1785 21.5286 62.9927C16.2754 60.807 15.5967 58.2044 15.5967 58.2044C17.7824 61.6888 23.7144 62.9393 26.6269 63.2012C29.5395 63.463 31.4153 65.0716 31.4153 65.0716C30.0632 62.469 26.2635 60.8551 23.2494 59.6634C20.23 58.4663 17.5205 57.4723 15.1317 55.6499C12.7375 53.8276 12.1443 51.8823 12.1443 51.8823C13.1651 53.6726 16.0669 54.704 16.0669 54.704C16.0669 54.704 13.7262 52.4809 13.2987 51.3426C12.6467 49.9851 12.4329 48.4407 11.3588 46.768C11.8771 47.2864 13.8277 49.7767 13.8277 49.7767C13.6193 48.943 12.7856 46.5489 12.0054 44.8868C11.2252 43.2195 9.61123 41.4506 8.98597 39.0618C8.36071 36.6676 9.29593 32.093 9.29593 32.093C8.09884 34.4337 8.15228 36.8279 8.15228 36.8279C8.15228 36.8279 7.682 35.7858 6.80022 34.7971C5.91844 33.8085 6.01998 30.9494 6.01998 30.0622C6.01998 29.1751 5.96654 28.0849 5.44816 30.0088C4.92978 31.9327 5.44816 33.91 5.44816 33.91C5.44816 33.91 4.51293 33.2313 3.83423 33.1832C3.15553 33.1298 3.41739 33.6535 3.41739 33.6535C5.65658 34.3803 7.78888 38.3884 7.78888 38.3884C7.78888 38.3884 7.42548 40.836 7.73544 42.1881C8.0454 43.5401 8.41949 44.796 9.25317 46.8749C10.0869 48.9537 10.0922 50.263 10.1296 50.8776C10.2044 52.1281 9.40281 52.1762 8.77755 51.6044C8.15228 51.0326 7.37204 49.1568 7.78888 47.5482C8.20573 45.9343 7.58046 45.8809 7.58046 45.8809C5.81156 44.4753 4.87633 42.8133 4.72136 41.7712C4.56638 40.7291 4.14953 40.5207 4.09609 41.6162C4.04265 42.7064 4.72136 44.4753 6.07342 45.6724C7.42548 46.8695 6.5918 48.3766 6.38338 48.0666C6.17496 47.7566 6.2284 47.4948 4.09609 46.7145C1.96379 45.9343 1.54694 43.8554 1.54694 43.8554C1.23699 43.5455 1.02856 44.0639 1.02856 44.0639C1.02856 44.0639 1.70727 46.768 3.73269 47.5001C5.76346 48.2269 5.71002 49.7393 6.12686 51.2464C6.5437 52.7534 6.56508 52.4595 7.42548 53.7955C8.46759 55.4094 9.34937 56.5531 9.71277 57.8036C10.0762 59.0541 10.2846 60.7161 8.56913 61.5498C6.85366 62.3835 5.34127 63.3187 4.72136 63.944C4.09609 64.5693 4.56638 64.8792 4.56638 64.8792C5.71002 63.5272 8.36605 63.5272 9.45625 63.5272C10.5465 63.5272 9.66467 64.5693 8.41415 66.1297C7.16362 67.6902 7.47893 69.3576 7.47893 69.3576L8.77755 71.1799C8.93253 69.0476 10.2365 66.5519 11.8451 65.093C13.459 63.634 12.5719 61.8651 12.5719 61.8651C13.9239 62.7523 14.2873 64.3608 14.0789 65.9213C13.8705 67.4818 12.8818 69.0957 11.8932 70.2394C10.9045 71.383 10.0227 72.4786 10.0227 72.4786L10.958 73.5688C12.1016 71.4899 12.9353 71.1746 12.6734 72.1098C12.4116 73.0451 12.155 74.9208 12.155 74.9208L13.1437 76.011C13.1437 76.011 13.4537 73.8253 13.8705 71.7464C14.2873 69.6676 15.4844 69.0423 16.2112 68.1552C16.938 67.2734 18.1351 67.3749 18.7069 68.4651C19.2788 69.5553 18.2367 71.0677 17.248 72.1045C16.2593 73.1466 15.9494 73.3016 15.6875 75.1239C15.4256 76.9463 14.6988 77.4646 14.6988 77.4646L15.3241 78.0899C15.3241 78.0899 16.0028 77.4165 16.3128 76.6844C16.6227 75.9576 16.6227 74.2368 17.248 75.6423C17.8733 77.0478 17.248 79.3351 17.248 79.3351L18.0817 80.0619C18.0817 80.0619 19.3322 76.9409 18.552 75.2735C17.7717 73.6062 18.552 73.2962 18.552 73.2962C20.7377 71.2174 20.4224 69.86 21.2026 70.8005C21.9829 71.7357 21.9829 75.2736 21.4111 77.5662C20.8392 79.8535 19.3803 81.0505 19.3803 81.0505L20.5239 81.7293C20.5239 81.7293 21.7745 80.1688 22.2928 79.1267C22.8112 78.0846 23.1639 75.6263 23.6342 75.9897C24.1045 76.3531 25.8627 77.9403 25.4085 78.7365C24.6817 80.0352 23.383 83.076 23.383 83.076L24.4732 83.6478C24.4732 83.6478 25.4085 81.5689 25.8788 80.6284C26.349 79.6931 26.5575 80.1581 26.5575 80.1581C28.1179 82.1888 27.5996 84.8395 27.5996 84.8395L28.7432 85.3098C29.315 81.9804 27.808 78.4961 27.808 78.4961C27.808 78.4961 28.2783 77.4059 28.7432 76.7272C29.2135 76.0484 29.8868 76.1553 29.9937 76.3638C30.0953 76.5722 29.9937 77.454 31.6611 78.651C33.3231 79.8481 32.8047 81.5101 32.8047 81.5101C30.619 83.6959 30.4106 85.8282 30.4106 85.8282L31.9176 86.3466C31.9176 86.3466 32.126 84.6311 33.0078 83.279C33.8949 81.927 35.6585 81.8735 36.0753 81.3552C36.4922 80.8368 37.064 80.6284 37.3259 81.3017C37.5877 81.9804 38.2611 82.9691 39.3032 84.6311C40.3453 86.2985 39.8216 87.4902 39.8216 87.4902L41.0721 87.5437C41.334 86.245 40.8102 84.7327 39.0413 81.7667C37.2724 78.8007 37.219 75.7812 38.0527 76.8768C38.8864 77.967 42.1623 79.7893 43.3594 80.2596C44.5565 80.7299 45.2298 82.2904 45.6467 83.899C46.0635 85.5129 45.1764 87.4368 45.1764 87.4368H46.32C46.32 87.4368 46.8919 85.6679 46.9987 84.4174C47.1003 83.1668 46.2185 81.6063 45.5932 80.6177C44.968 79.629 46.5819 79.474 48.4523 80.3558C48.6661 80.4574 47.7416 82.9691 48.5432 83.4554C49.3448 83.9417 49.5372 80.933 49.751 81.0666C50.9587 81.8468 51.7657 82.7981 51.5733 83.8936C51.3115 85.3526 51.6268 86.5497 51.6268 86.5497C51.8352 86.5497 52.717 86.2878 52.717 86.2878C52.717 86.2878 51.7283 82.44 53.3957 83.6852C55.063 84.9357 56.4632 84.9838 56.4632 84.9838L58.0237 84.722C55.6669 84.4868 52.5513 81.6918 49.9327 80.0031C49.9327 80.0031 49.9647 79.0625 49.9327 78.7526C49.8311 77.8441 49.3181 77.1387 49.3181 77.1387C50.1037 76.989 51.0068 76.8608 52.0917 76.8127C55.5226 76.6577 57.345 78.1113 59.7391 79.6718C62.1333 81.2322 62.4433 82.4828 62.4433 82.4828L63.4319 81.9644C63.4319 81.9644 62.7051 80.6658 62.0799 80.094C61.4546 79.5221 60.8293 78.7953 61.508 78.7953M29.1547 74.023C28.1447 75.1025 26.7552 77.1547 26.5788 76.9837C26.4025 76.8073 24.9061 75.0331 24.6282 74.4078C24.3503 73.7825 24.2114 72.8046 24.0724 71.5861C23.9335 70.3676 23.5861 68.9408 23.2388 68.417C22.9021 67.9147 22.9235 67.7918 23.7251 67.4765C24.5267 67.1612 27.1346 68.0323 28.492 68.5186C29.8494 69.0049 29.7105 68.9728 30.1968 70.0523C30.6831 71.1318 30.1594 72.9435 29.1547 74.0177V74.023ZM35.8723 78.0578C35.7333 79.3778 34.6217 80.3184 34.3385 80.3558C34.0606 80.3932 34.2316 79.5916 33.5743 78.5121C32.9116 77.4326 32.2543 77.4005 31.5916 76.4225C30.9289 75.4499 31.3832 74.4399 31.8695 74.023C32.3558 73.6062 32.6017 72.4893 32.4948 71.725C32.3879 70.9608 32.5322 70.854 32.8101 70.5761C33.0185 70.3676 34.098 71.7571 34.8996 73.4672C35.7013 75.172 36.0112 76.7378 35.8723 78.0632V78.0578ZM37.2297 73.2909C36.706 72.6977 37.2831 72.671 37.716 72.8366C39.4208 73.4993 40.7782 73.2535 43.354 73.6008C44.642 73.6008 46.4162 74.9262 46.7315 75.7225C46.0689 75.9309 43.7388 76.3157 41.4088 75.8614C39.0787 75.4072 37.7534 73.8787 37.235 73.2855L37.2297 73.2909ZM48.1477 79.0251C46.32 78.4266 44.7275 78.5816 44.0274 78.5816C42.1035 78.5816 41.2164 77.1761 41.2164 77.1761C41.9966 77.8013 43.2953 77.8013 45.171 77.8548C45.978 77.8761 47.298 77.5501 47.7309 77.4807C47.7309 77.4807 47.9126 77.3952 48.121 77.8868C48.3294 78.3731 48.6608 79.1961 48.1477 79.0305V79.0251Z" fill="#69BF4A"></path><path d="M7.11678 29.1108C9.21702 30.046 10.9806 28.3359 10.3607 27.3633C9.74075 26.3906 7.43743 27.9832 6.99387 28.7688C6.99387 28.7688 8.14285 28.9131 8.99791 28.2985C8.33524 29.1856 7.11144 29.1108 7.11144 29.1108" fill="#69BF4A"></path><path d="M6.86999 27.4065C9.12522 26.6369 9.25347 24.0931 8.09914 23.7992C6.94481 23.4999 6.31955 26.3269 6.53866 27.2354C6.53866 27.2354 7.51129 26.5354 7.7304 25.4665C7.85331 26.6048 6.87534 27.4065 6.87534 27.4065" fill="#69BF4A"></path><path d="M9.72826 19.8871C7.82041 18.5992 5.78964 19.978 6.22786 21.0415C6.67142 22.105 9.21522 20.9399 9.78705 20.2452C9.78705 20.2452 8.68081 19.8978 7.72956 20.3574C8.53652 19.5986 9.72826 19.8871 9.72826 19.8871Z" fill="#69BF4A"></path><path d="M10.771 18.9518C12.4063 17.2203 11.3321 14.9116 10.1724 15.1842C9.01277 15.4621 9.77698 18.2517 10.3969 18.9518C10.3969 18.9518 10.9313 17.8776 10.6267 16.8302C11.268 17.7814 10.7763 18.9464 10.7763 18.9464" fill="#69BF4A"></path><path d="M15.3665 15.4146C14.2496 13.3091 11.7218 13.587 11.6096 14.7734C11.4974 15.9597 14.3885 16.1308 15.2489 15.7674C15.2489 15.7674 14.4046 14.9123 13.3144 14.8695C14.4206 14.5649 15.3665 15.4093 15.3665 15.4093" fill="#69BF4A"></path><path d="M20.4498 8.16781C18.7236 7.0776 16.9547 8.36019 17.3769 9.29007C17.7991 10.2253 20.0276 9.11906 20.5139 8.48311C20.5139 8.48311 19.5199 8.21056 18.6915 8.63809C19.3863 7.94335 20.4498 8.16781 20.4498 8.16781Z" fill="#69BF4A"></path><path d="M15.8841 13.7787C16.1299 11.8174 14.2862 10.7967 13.6395 11.5449C12.9929 12.2984 14.874 13.7948 15.6329 13.9604C15.6329 13.9604 15.4672 12.9771 14.7511 12.4267C15.6436 12.7527 15.8841 13.7734 15.8841 13.7734" fill="#69BF4A"></path><path d="M5.35073 27.7962C6.72417 25.8029 5.28661 23.6545 4.16434 24.1088C3.04207 24.5631 4.2445 27.2511 4.9713 27.855C4.9713 27.855 5.34539 26.6954 4.86976 25.6907C5.66069 26.5457 5.34539 27.7962 5.34539 27.7962" fill="#69BF4A"></path><path d="M4.47049 31.1845C3.02758 29.3889 0.676164 30.1104 0.78839 31.2594C0.900617 32.4084 3.67422 32.045 4.4224 31.5426C4.4224 31.5426 3.4658 30.8853 2.42369 31.0456C3.4177 30.5593 4.47049 31.1845 4.47049 31.1845Z" fill="#69BF4A"></path><path d="M5.3686 38.9447C6.13281 36.8765 4.38529 35.3 3.49282 35.9573C2.60569 36.6146 4.26771 38.7149 5.04796 39.0836C5.04796 39.0836 5.11743 37.9774 4.47614 37.1971C5.36326 37.7743 5.3686 38.9447 5.3686 38.9447Z" fill="#69BF4A"></path><path d="M4.16608 39.5373C2.95296 37.4424 0.393128 37.8218 0.328998 39.0296C0.259525 40.2427 3.20414 40.3015 4.0592 39.9007C4.0592 39.9007 3.16673 39.067 2.06049 39.067C3.17207 38.7196 4.16608 39.5373 4.16608 39.5373Z" fill="#69BF4A"></path><path d="M56.3828 20.3684C57.6654 18.8507 59.6801 19.524 59.5572 20.5127C59.4396 21.5013 57.0508 21.1273 56.4149 20.6783C56.4149 20.6783 57.2539 20.1332 58.1517 20.2936C57.302 19.85 56.3828 20.3684 56.3828 20.3684Z" fill="#69BF4A"></path><path d="M56.4304 22.1527C58.4024 21.9176 59.4178 23.7774 58.6589 24.4187C57.9 25.06 56.4037 23.1628 56.2433 22.4039C56.2433 22.4039 57.2267 22.5749 57.7771 23.3017C57.4565 22.3986 56.4304 22.1527 56.4304 22.1527Z" fill="#69BF4A"></path><path d="M55.3838 22.2009C56.2175 24.0019 54.7532 25.541 53.9088 25.0173C53.0644 24.4935 54.4111 22.4895 55.0845 22.0994C55.0845 22.0994 55.2234 23.088 54.6997 23.8362C55.4586 23.2537 55.3784 22.2009 55.3784 22.2009" fill="#69BF4A"></path><path d="M55.3574 6.72981C53.5137 5.39378 54.1069 3.03168 55.2452 3.08512C56.3835 3.13856 56.1644 5.90147 55.7101 6.66568C55.7101 6.66568 55.0154 5.75184 55.1169 4.71508C54.6841 5.72512 55.3574 6.72981 55.3574 6.72981Z" fill="#69BF4A"></path><path d="M56.85 6.86928C56.866 4.27738 59.4472 3.26734 60.1526 4.35754C60.8581 5.44774 58.1539 7.07236 57.1439 7.15252C57.1439 7.15252 57.5287 5.90199 58.5601 5.31414C57.3416 5.58135 56.85 6.86928 56.85 6.86928Z" fill="#69BF4A"></path><path d="M56.7321 8.24231C59.4362 7.38725 61.3548 9.73332 60.4623 10.8342C59.5645 11.9351 56.9672 9.66919 56.5397 8.64312C56.5397 8.64312 57.9666 8.62174 58.9339 9.49818C58.2445 8.31713 56.7374 8.24231 56.7374 8.24231" fill="#69BF4A"></path><path d="M48.6726 5.96557C48.8116 3.9829 50.8317 3.3416 51.318 4.20735C51.8043 5.0731 49.6613 6.18468 48.8811 6.19537C48.8811 6.19537 49.2391 5.26015 50.0514 4.85934C49.1055 5.00363 48.6673 5.96557 48.6673 5.96557" fill="#69BF4A"></path><path d="M49.7674 7.3762C51.221 6.01879 53.1395 6.92195 52.9044 7.88924C52.6693 8.85652 50.3446 8.20454 49.7621 7.68616C49.7621 7.68616 50.6599 7.2426 51.531 7.50446C50.74 6.9647 49.7674 7.37086 49.7674 7.37086" fill="#69BF4A"></path><path d="M48.9491 8.03952C50.686 9.00147 50.4188 11.1071 49.4247 11.1819C48.4307 11.2567 48.3345 8.84114 48.6499 8.13037C48.6499 8.13037 49.3446 8.84649 49.366 9.75499C49.6332 8.8358 48.9491 8.03418 48.9491 8.03418" fill="#69BF4A"></path><path d="M64.3247 11.529C62.7108 10.6526 62.9406 8.7073 63.8545 8.63248C64.7683 8.55232 64.8859 10.7808 64.5973 11.4435C64.5973 11.4435 63.9453 10.7862 63.9186 9.94713C63.6781 10.7968 64.3194 11.5343 64.3194 11.5343" fill="#69BF4A"></path><path d="M65.9269 11.1444C65.339 9.40753 66.83 8.13563 67.5568 8.7021C68.2836 9.26858 66.8461 10.9787 66.1888 11.2673C66.1888 11.2673 66.1567 10.3428 66.7125 9.71214C65.959 10.1717 65.9269 11.1444 65.9269 11.1444Z" fill="#69BF4A"></path><path d="M66.36 11.8391C67.8564 10.7276 69.5505 11.775 69.2298 12.6514C68.9092 13.5279 66.8089 12.6782 66.3226 12.1331C66.3226 12.1331 67.2044 11.8124 67.99 12.1491C67.3113 11.5612 66.36 11.8391 66.36 11.8391Z" fill="#69BF4A"></path><path d="M25.2268 11.2137C23.2816 10.8128 22.1112 12.5818 22.8166 13.2872C23.522 13.9926 25.168 12.2237 25.3925 11.4809C25.3925 11.4809 24.3985 11.5717 23.7892 12.2451C24.1847 11.374 25.2268 11.2137 25.2268 11.2137Z" fill="#69BF4A"></path><path d="M25.6596 9.99569C23.7517 10.5461 22.4478 8.87342 23.0944 8.11456C23.7411 7.35569 25.5206 8.99099 25.8039 9.71779C25.8039 9.71779 24.8045 9.7071 24.1472 9.0765C24.6068 9.91553 25.6596 9.99569 25.6596 9.99569Z" fill="#69BF4A"></path><path d="M26.3126 9.03878C25.5002 6.73546 27.4669 5.02 28.4395 5.76283C29.4121 6.50567 27.531 8.80364 26.6653 9.19911C26.6653 9.19911 26.6118 7.96996 27.3333 7.12024C26.3393 7.7455 26.3126 9.04413 26.3126 9.04413" fill="#69BF4A"></path><path d="M24.5428 6.28111C24.2114 4.32516 26.0284 3.21893 26.7018 3.95107C27.3805 4.67787 25.5528 6.25974 24.7993 6.45747C24.7993 6.45747 24.9275 5.46346 25.6223 4.88095C24.7352 5.24435 24.5374 6.28111 24.5374 6.28111" fill="#69BF4A"></path><path d="M21.4686 8.48852C20.3571 6.84253 21.5488 5.08965 22.468 5.46909C23.3872 5.85386 22.3825 8.04495 21.7786 8.54196C21.7786 8.54196 21.4793 7.58536 21.8748 6.76771C21.2175 7.46244 21.4686 8.48852 21.4686 8.48852Z" fill="#69BF4A"></path><path d="M40.8263 16.2694C41.676 14.1745 44.0862 14.1905 44.3107 15.3021C44.5298 16.4136 41.8203 16.8519 40.9759 16.5953C40.9759 16.5953 41.692 15.7082 42.7128 15.5639C41.6386 15.3876 40.8263 16.2747 40.8263 16.2747" fill="#69BF4A"></path><path d="M41.313 17.4606C43.3117 16.4078 45.1501 17.9683 44.605 18.9623C44.0599 19.9563 41.6978 18.5508 41.2168 17.808C41.2168 17.808 42.3337 17.5889 43.2102 18.134C42.5047 17.3057 41.313 17.4606 41.313 17.4606Z" fill="#69BF4A"></path><path d="M55.4207 16.3275C54.7152 14.4731 56.2811 13.0356 57.088 13.6181C57.895 14.2006 56.4093 16.1084 55.7092 16.4451C55.7092 16.4451 55.6398 15.4458 56.2116 14.7403C55.4153 15.2694 55.4207 16.3222 55.4207 16.3222" fill="#69BF4A"></path><path d="M55.7262 17.338C57.276 16.0982 59.1197 17.1457 58.8151 18.0916C58.5105 19.0375 56.2392 18.2145 55.6995 17.6534C55.6995 17.6534 56.6293 17.2793 57.4791 17.6053C56.7309 17.0067 55.7315 17.338 55.7315 17.338" fill="#69BF4A"></path><path d="M44.0381 5.47985C45.6093 4.26673 45.0268 2.22528 44.0381 2.3001C43.0441 2.37491 43.3113 4.77443 43.7282 5.43175C43.7282 5.43175 44.3107 4.61945 44.1931 3.71629C44.5993 4.58204 44.0381 5.47985 44.0381 5.47985Z" fill="#69BF4A"></path><path d="M43.2538 6.17998C42.5804 4.30953 40.4642 4.23472 40.229 5.202C39.9939 6.16929 42.3613 6.65561 43.1149 6.45787C43.1149 6.45787 42.5217 5.65625 41.6238 5.49059C42.5698 5.37301 43.2538 6.17998 43.2538 6.17998Z" fill="#69BF4A"></path><path d="M23.4582 10.4438C22.2665 8.85661 20.2197 9.40705 20.2785 10.4011C20.3372 11.3951 22.7421 11.1653 23.4048 10.7538C23.4048 10.7538 22.5978 10.1606 21.6947 10.2675C22.5657 9.87734 23.4582 10.4492 23.4582 10.4492" fill="#69BF4A"></path><path d="M44.6265 6.29155C45.2999 4.42111 47.4162 4.34629 47.6513 5.31358C47.8864 6.28086 45.519 6.76718 44.7655 6.56945C44.7655 6.56945 45.3587 5.76783 46.2565 5.60216C45.3106 5.48459 44.6265 6.29155 44.6265 6.29155Z" fill="#69BF4A"></path><path d="M32.1848 9.69057C30.2342 10.0593 29.0959 8.26369 29.8121 7.5743C30.5282 6.88491 32.1421 8.68053 32.3559 9.42871C32.3559 9.42871 31.3619 9.32183 30.7687 8.63243C31.1481 9.50887 32.1902 9.69057 32.1902 9.69057" fill="#69BF4A"></path><path d="M33.1633 8.7659C31.1325 7.58485 31.6509 5.18533 32.8694 5.14258C34.0878 5.09983 33.9863 7.86808 33.532 8.67505C33.532 8.67505 32.7464 7.81999 32.8052 6.77788C32.3937 7.81999 33.1579 8.7659 33.1579 8.7659" fill="#69BF4A"></path><path d="M33.9266 9.06523C34.5038 6.93292 36.8606 6.60159 37.2079 7.633C37.5553 8.66976 34.9634 9.48207 34.1083 9.35381C34.1083 9.35381 34.6962 8.40256 35.6795 8.11397C34.6107 8.09794 33.9266 9.06523 33.9266 9.06523Z" fill="#69BF4A"></path><path d="M41.6274 3.37924C42.5252 1.94701 41.7557 0.493412 40.9487 0.349121H40.6868C40.6334 0.359809 40.5799 0.375842 40.5319 0.397218C39.6287 0.808716 40.7029 2.97309 41.3228 3.44337C41.3228 3.44337 41.59 2.47608 41.1678 1.67446C41.8465 2.34782 41.6327 3.38458 41.6327 3.38458" fill="#69BF4A"></path><path d="M39.6251 2.68402C39.1868 0.375354 36.7499 0.070739 36.3064 1.20369C35.8575 2.33665 38.5081 3.16499 39.4113 3.00466C39.4113 3.00466 38.8715 1.97859 37.8668 1.69001C38.9838 1.64726 39.6251 2.68402 39.6251 2.68402Z" fill="#69BF4A"></path><path d="M39.8009 4.40503C38.2832 3.67288 36.9151 4.86996 37.3373 5.58608C37.7595 6.30219 39.523 5.21199 39.8757 4.6562C39.8757 4.6562 39.0314 4.5226 38.374 4.94478C38.8978 4.31952 39.7956 4.40503 39.7956 4.40503" fill="#69BF4A"></path><path d="M54.6721 15.5052C54.5171 13.2499 52.2191 12.5178 51.6633 13.5011C51.1075 14.4898 53.5498 15.751 54.4316 15.767C54.4316 15.767 54.0308 14.7035 53.1009 14.2439C54.1751 14.4096 54.6721 15.5052 54.6721 15.5052Z" fill="#69BF4A"></path><path d="M40.1627 16.5473C38.9389 15.0029 36.9188 15.6068 37.0043 16.5901C37.0898 17.5734 39.4733 17.2795 40.1199 16.8573C40.1199 16.8573 39.3023 16.2908 38.4098 16.4191C39.2649 16.0076 40.1627 16.5527 40.1627 16.5527" fill="#69BF4A"></path><path d="M34.4043 6.42012C34.7035 4.90239 36.3282 4.59243 36.6221 5.31389C36.916 6.03 35.1471 6.68198 34.5432 6.6232C34.5432 6.6232 34.9066 5.93381 35.58 5.69866C34.8371 5.72004 34.4043 6.42012 34.4043 6.42012Z" fill="#69BF4A"></path><path d="M30.6028 5.31354C30.699 2.96747 28.3957 2.11775 27.701 3.12245C27.0116 4.12714 29.4004 5.5273 30.3196 5.58075C30.3196 5.58075 30.0203 4.45848 29.1118 3.95079C30.2127 4.15921 30.6028 5.31354 30.6028 5.31354Z" fill="#69BF4A"></path><path d="M31.1751 4.56051C30.6033 2.43889 32.463 0.974598 33.2807 1.68537C34.0983 2.40148 32.276 4.39484 31.4797 4.71549C31.4797 4.71549 31.5118 3.59856 32.2119 2.86107C31.2873 3.37945 31.1805 4.55516 31.1805 4.55516" fill="#69BF4A"></path><path d="M33.5815 4.47454C33.683 2.64151 35.5481 2.01625 36.0077 2.81252C36.4673 3.6088 34.5007 4.66159 33.7792 4.68831C33.7792 4.68831 34.0945 3.81722 34.848 3.43778C33.9769 3.58208 33.5815 4.47989 33.5815 4.47989" fill="#69BF4A"></path><path d="M58.8949 21.8272C60.6477 20.8974 62.267 22.2655 61.7914 23.1366C61.3157 24.0076 59.2369 22.7785 58.8094 22.1265C58.8094 22.1265 59.7927 21.9341 60.5622 22.4098C59.937 21.6829 58.8895 21.8219 58.8895 21.8219" fill="#69BF4A"></path><path d="M16.4261 19.2084C14.4755 19.5718 13.3372 17.7815 14.0533 17.0921C14.7694 16.4027 16.3834 18.1984 16.5971 18.9465C16.5971 18.9465 15.6031 18.8396 15.0099 18.1503C15.3894 19.0267 16.4315 19.2084 16.4315 19.2084" fill="#69BF4A"></path><path d="M17.4046 18.284C15.3738 17.1029 15.8922 14.7034 17.1106 14.6606C18.3291 14.6179 18.2276 17.3861 17.7786 18.1931C17.7786 18.1931 16.9931 17.3434 17.0518 16.2959C16.6403 17.3381 17.4046 18.284 17.4046 18.284Z" fill="#69BF4A"></path><path d="M16.7084 13.7362C16.2114 11.4436 18.333 10.2091 19.188 11.0802C20.0431 11.9512 17.9268 13.7415 17.029 13.95C17.029 13.95 17.1305 12.7956 17.9375 12.1383C16.8901 12.5338 16.703 13.7415 16.703 13.7415" fill="#69BF4A"></path><path d="M18.1679 18.5831C18.7451 16.4507 21.1018 16.1194 21.4492 17.1508C21.7966 18.1876 19.2047 18.9999 18.3496 18.8716C18.3496 18.8716 18.9428 17.9204 19.9208 17.6318C18.852 17.6158 18.1679 18.5831 18.1679 18.5831Z" fill="#69BF4A"></path><path d="M18.7172 15.9218C18.45 14.3988 19.8609 13.5277 20.3899 14.0941C20.919 14.6606 19.5028 15.9005 18.9203 16.0554C18.9203 16.0554 19.0165 15.2805 19.5563 14.8209C18.8669 15.1042 18.7172 15.9165 18.7172 15.9165" fill="#69BF4A"></path><path d="M4.51326 29.5012C4.21399 27.9834 2.58937 27.6735 2.29544 28.3949C2.00152 29.1111 3.77042 29.763 4.37431 29.6989C4.37431 29.6989 4.01091 29.0095 3.33755 28.7744C4.08038 28.7958 4.51326 29.4958 4.51326 29.4958" fill="#69BF4A"></path><path d="M2.6632 33.3441C1.14547 33.0288 0.231627 34.4076 0.782072 34.9581C1.33252 35.5085 2.61511 34.1297 2.79146 33.5526C2.79146 33.5526 2.01656 33.622 1.54094 34.1511C1.8509 33.4724 2.6632 33.3495 2.6632 33.3495" fill="#69BF4A"></path><path d="M24.9709 28.0906C24.7357 30.3779 22.3683 31.0512 21.8392 30.0305C21.3048 29.0044 23.8379 27.802 24.7357 27.818C24.7357 27.818 24.2868 28.8869 23.3302 29.3251C24.4311 29.1968 24.9762 28.0959 24.9762 28.0959" fill="#69BF4A"></path><path d="M25.5636 26.6263C23.7199 28.1333 21.4914 26.8988 21.8495 25.7605C22.2075 24.6222 24.9384 25.5842 25.5904 26.2522C25.5904 26.2522 24.4788 26.7118 23.4581 26.327C24.3612 27.0324 25.5583 26.6263 25.5583 26.6263" fill="#69BF4A"></path><path d="M29.7952 25.5573C30.18 23.286 32.5848 22.773 33.0498 23.8258C33.5147 24.8839 30.9121 25.9154 30.0143 25.8459C30.0143 25.8459 30.5273 24.8091 31.516 24.435C30.4098 24.4938 29.7952 25.552 29.7952 25.552" fill="#69BF4A"></path><path d="M26.7808 25.2149C26.5564 23.6812 24.9425 23.3017 24.6165 24.0018C24.2905 24.7072 26.022 25.4394 26.6312 25.4073C26.6312 25.4073 26.2999 24.7019 25.6425 24.4347C26.3854 24.4881 26.7808 25.2096 26.7808 25.2096" fill="#69BF4A"></path><path d="M50.2327 2.49755C51.6062 0.846216 53.7866 1.55164 53.6637 2.62047C53.5461 3.68929 50.9649 3.30986 50.2701 2.83423C50.2701 2.83423 51.1733 2.23569 52.1406 2.40136C51.2214 1.93107 50.2327 2.50289 50.2327 2.50289" fill="#69BF4A"></path><path d="M59.8239 6.91699C61.347 4.79537 63.9496 5.62905 63.8641 6.98646C63.7786 8.33853 60.7271 7.92703 59.888 7.34452C59.888 7.34452 60.9141 6.56962 62.0631 6.74598C60.9569 6.1795 59.8239 6.92233 59.8239 6.92233" fill="#69BF4A"></path><path d="M46.1989 3.15483C46.7761 1.02252 49.1328 0.691187 49.4802 1.7226C49.8276 2.75936 47.2357 3.57167 46.3806 3.44341C46.3806 3.44341 46.9738 2.49216 47.9518 2.20357C46.883 2.18754 46.1989 3.15483 46.1989 3.15483Z" fill="#69BF4A"></path></svg>