<?xml version="1.0" encoding="UTF-8"?><svg id="Warstwa_1" xmlns="http://www.w3.org/2000/svg" width="20" height="20" viewBox="0 0 20 20"><defs><style>.cls-1{stroke-linecap:round;stroke-linejoin:round;}.cls-1,.cls-2{fill:none;stroke:#2a0b60;stroke-width:2px;}</style></defs><path class="cls-1" d="M1,19h2M19,19h-2M3,19h14M3,19V7.33M17,19V7.33M3,7.33s-.07-.04-.11-.07l-.54-.36c-.79-.52-1.1-1.53-.75-2.41l.89-2.24c.3-.76,1.04-1.26,1.86-1.26h11.29c.82,0,1.55.5,1.86,1.26l.89,2.24c.35.88.04,1.88-.75,2.41l-.54.36s-.07.05-.11.07M3,7.33c.66.38,1.47.36,2.11-.07l1.89-1.26,1.89,1.26c.67.45,1.55.45,2.22,0l1.89-1.26,1.89,1.26c.64.42,1.45.45,2.11.07"/><path class="cls-2" d="M12,19v-5c0-1.1-.9-2-2-2s-2,.9-2,2v5"/></svg>