<?xml version="1.0" encoding="utf-8"?>
<!-- Generator: Adobe Illustrator 28.0.0, SVG Export Plug-In . SVG Version: 6.00 Build 0)  -->
<svg version="1.1" id="Layer_1" xmlns="http://www.w3.org/2000/svg" xmlns:xlink="http://www.w3.org/1999/xlink" x="0px" y="0px"
	 viewBox="0 0 440 99.9" style="enable-background:new 0 0 440 99.9;" xml:space="preserve" >
<style type="text/css">
	.st0{fill:#6D6D6D;}
</style>
<g id="Layer_2_00000145744186195100862220000017752756308494444200_">
	<g id="Layer_1-2">
		<g id="Layer_2-2">
			<g id="Layer_1-2-2">
				<g id="Layer_2-2-2">
					<g id="Layer_1-2-2-2">
						<path class="st0" d="M290.6,3c-2-3-6.3-3-6.9-3c2,1.2,3.4,3.1,4.2,5.3c1,3.3-0.3,6.2-1.8,9.4c-1.8,3.9-4.5,7.4-7.9,10.2
							c-3.4,2.7-7.4,6-12.3,5.5c-4.2-0.4-5.6-3.2-10.2-2.6c-1.1,0.1-3.9,0.5-5,2.6c-0.8,1.6-0.6,3.6,0.5,5c1.8,2.4,5.3,2.2,7.1,2.1
							c2.6-0.2,5-1.1,7.1-2.6c2.8,1.6,5.1,3.9,6.5,6.8c1.5,3.2,1.9,6.8,1.3,10.2c-0.6,4.1-2.3,7.9-5,11c-2.1,2.5-6.1,7.2-10.7,6.6
							c-3.6-0.5-5.8-4-6.6-5.2c-2.4-3.8-1.8-6.8-2.4-16c-0.7-12.7-2.3-15-3.1-16c-2.5-3-7.2-5.4-11.3-4.2c-3.5,1-5.3,4.3-6.3,6
							c-3,5.3-2.4,10.6-3.7,10.7c-0.9,0.1-1.1-2.6-3.4-3.4c-1.3-0.4-2.7-0.2-3.9,0.5c-2.9,1.7-3.1,5.8-3.7,5.8
							c-0.9-0.1,1.6-9.5-2.9-14.4c-3.7-4.1-11.6-4.4-13.7-1.7c-0.9,1.2-0.3,2.5-1.8,4.1c-1.3,1.5-2.3,1.1-4.3,2.6
							c-1.4,1-2.3,2.3-4.1,5.1c-1,1.6-2,3.2-2.9,4.9c0.1-5.2-1.6-9.1-3.8-9.5c-0.8-0.1-1.5,0-2.2,0.3c-1.5,0.7-2.1,1.9-3.3,4.1
							c-2,3.5-3.1,5.3-4.1,5.3c-0.8,0-1-0.8-2.6-2.6c-1.2-1.5-2.6-2.9-4.2-4c-2.4-1.3-5.2-1.4-7.6-0.2c-4.3,2-5,7.5-5.3,9.9
							c-0.3,2.9-0.1,5.8,0.8,8.6c1.4,5.3,3.5,6.9,2.5,9.1c-0.9,2-3.5,2.9-5.3,3c-0.7,0-2.4,0-7.6-3.6c-1.8-1.2-3.6-2.6-5.3-4
							c0.6-2.5,1.3-6,2-10.4c1.3-8,2.5-15.3,2-24.3c-0.5-10.6-2.9-15.5-3.5-16.7c-1.7-3.3-4-7.8-8.6-8.9c-3.5-0.7-7.2,0.3-9.8,2.8
							c-3.4,3.2-3.6,7.6-3.8,12.4c-0.1,5.2,0.6,10.5,2.3,15.5c3.4,11.9,6.1,13.1,8.9,23.8c2.3,9.1,1.8,13.5,1.5,15.2
							c-0.5,3-1.5,9.1-6.6,13.2c-1.2,0.9-5.6,4.5-9.9,3c-3.4-1.2-4.8-4.8-6.1-8.4c-1.4-3.7-1.9-7.7-1.3-11.6
							c0.5-3.5,1.4-3.5,3.3-9.4c1.5-4.7,2.6-8.1,2.3-12.4c-0.2-2.9-0.5-7.7-3.8-9.4c-2.2-0.9-4.7-0.7-6.6,0.8c-1.4,1-2.5,2.8-3,8.6
							c-0.5,5.2,0.1,7.7,0.2,12.7c0.3,8.8,0.5,13.1-2.3,16c-2.5,2.5-6.8,3.5-9.9,2c-1.5-0.7-2.8-2-5.3-10.1
							c-3.3-10.5-4.9-15.7-3.6-21.8c0.7-2.9,1.6-5.8,2.8-8.6c1.8-4.2,2.8-5,3-7.6c0.1-1.2,0.7-7.6-3-9.4c-2.3-0.9-4.9-0.3-6.6,1.5
							c-1.4,1.6-1.3,3.6-1.3,5.1c0,4.6-0.6,9.2-1.8,13.7c-1.9,6.4-10.2,12.9-18,11.4c-6-1.2-11.8-7.1-11.2-12.7
							c0.5-4.5,5.2-8.7,7.1-7.9c1.4,0.6,1.5,3.5,1.3,6.3c-0.2,0.3-0.3,0.7-0.1,0.9c0.5,0.6,3.2-0.2,4.6-1.9c1.8-2.2,1.2-6.2-0.8-8.6
							c-2.7-3.1-7.4-2.6-10.1-1.4C33.5,31.2,34,40.9,34,41.7c0.5,5,3,9.5,7,12.5c6.2,4.5,13,3.1,14.9,2.7C60.2,56,64,53.7,67,50.5
							c-0.1,3.6,0,7.1,0.3,10.6c0.7,6.9,1.1,11.4,3.6,16.1c1.6,3,5.9,11.1,13.3,11.3c5.2,0.2,10.2-3.6,13.2-9
							c-0.1,4.8,1.3,9.5,4.1,13.5c1.6,2.3,4.4,6.3,9.1,6.9c3.8,0.5,6.8-1.5,8.8-2.8c1.2-0.8,4.9-3.4,9.1-11.5
							c2.7-5.3,4.7-10.9,5.9-16.7c2.2,3.5,5.4,6.3,9.3,7.8c1.7,0.7,7.1,2.7,12.5,0c2.1-1.1,3.9-2.7,5.2-4.7c2.8-0.3,5.4-1.7,7.3-3.7
							c1.2-1.5,2.1-3.3,2.5-5.2c0.6-2.2,0.3-2.5,1-6.6s1.3-5.1,2-5.9c0.2-0.3,1.9-2.3,3.4-1.9s1.8,2.8,2,4.4c0.8,5-0.6,7.8-0.3,14.4
							c0.1,1.3,0.2,3.2,1.5,4.4c0.7,0.8,1.8,1.1,2.9,0.8c1.6-0.7,1.6-4,1.5-5.4c-0.1-3.2-1-4-1.4-6.6c-0.4-3.6,1.1-7.8,2-9.8
							c1.4-2.9,5-8.3,7.7-7.7c0.6,0.2,1.1,0.6,1.4,1.1c-0.1,0.7,0,1.4,0.2,2c0.4,1.4,1.5,2.5,2.8,2.9c2.1,0.3,4-2.1,4.7-3.7
							c1.9-4.2-1.4-8.9-1.7-9.3c1.2-1,2.9-1.5,4.4-1.2c2.2,0.4,3.4,2.5,4,3.6c1.9,3.6,1.4,7.3,0.9,11c-0.4,2.8-0.7,2.4-2,8.1
							c-1.7,7.2-1.5,9-0.7,10.5s2.6,3.3,4.4,3c2.8-0.3,3.9-5.4,4.1-6.1c0.4-1.8,0.1-2.7-0.2-6.1c-0.8-9.8,0.6-11.7,1.2-12.3
							c0.9-1,2.4-2.1,3.6-1.7c1.6,0.6,1.8,4.2,1.9,6.4c0.1,4.2-0.9,5.4,0,8.3c0.2,0.6,1.1,3.6,2.5,3.7c1.3,0.1,2.6-2.1,3-3.9
							c0.3-1.6,0.2-3.3-0.3-4.9c-0.6-3.6-0.4-7.3,0.5-10.8c0.7-2.7,1.8-6.5,5.1-7.8c2-0.7,4.2-0.5,5.9,0.7c1.8,1.3,2.4,3.4,3,10.6
							c0.9,9.7,0.3,10.9,1.5,14.7c0.9,3,2.1,6.7,5.6,9.1c3,1.9,6.6,2.6,10.1,2c5.3-0.8,8.5-4.2,10.6-6.6c3.7-4.1,6-9.2,6.6-14.7
							c0.6-4.4-0.2-8.9-2.4-12.8c-1.3-2.4-3.2-4.4-5.4-6.1c2.5-0.6,5-1.6,7.2-2.9c5.1-3,7.8-7,10.1-10.5c1.9-2.6,3.3-5.5,4.2-8.6
							C291.4,8,292.1,5.3,290.6,3z M262,33.1c-0.1,0.6-0.8,0.9-1.4,1.2c-1.3,0.5-2.7,0.6-4.1,0.2c-1-0.2-2.4-0.5-2.6-1.4
							c-0.1-0.3-0.1-0.6,0-0.8c0.3-1.1,1.6-1.5,2.1-1.7c1.4-0.4,3-0.2,4.3,0.5C260.7,31.4,262.2,32.2,262,33.1z M73.2,29.4
							c0.1-0.1,1.1-1.2,1.8-0.9c0.9,0.3,0.6,2.6,0.6,2.8c-0.3,1.7-1.1,3.2-2.4,4.3L73.2,29.4z M100.8,61.4c-0.2,0-0.3-0.3-1.2-7
							c-0.7-5.8-0.9-7.7,0.3-9c0.6-0.8,1.6-1.1,2.6-0.9c0.8,0.4,1.2,1.7,1.2,4.3C103.7,54.7,102,61.6,100.8,61.4L100.8,61.4z
							 M133.8,35.8c-0.6,14.7-0.9,22-2.5,22.2s-2-4.8-9.4-25.9c-1.7-4.9-3.7-10.3-1.5-15.7c0.2-0.6,2.2-5.5,5.2-5.5
							c0.8,0,2.5,0.3,4.9,4.7C134.2,22.4,134.1,29.4,133.8,35.8L133.8,35.8z M157,45.7c1.3-1,3.9,0.5,5.1,1.4s3.2,2.9,2.7,4
							s-3.9,0.8-6.1-0.4c-1.1-0.5-1.9-1.4-2.2-2.6C156.3,47.2,156.5,46.3,157,45.7L157,45.7z M165.2,63.9c-1.4,1.7-3.7,2.5-5.9,2.1
							c-2.3-0.6-3.3-2.7-4.4-5c-2-4.1-2.2-8.7-1.4-8.9c0.4-0.2,0.8,1,2.5,2c1.1,0.6,2.3,1,3.6,1c1.5-0.1,3.1-0.5,4.4-1.2
							c0.9-0.4,1.3-0.8,1.7-0.6s0.8,1,0.9,2.8C166.8,59.9,166.9,62,165.2,63.9L165.2,63.9z M199.2,43.8c-0.3,0.5-1,0.8-1.6,0.6
							c-0.4-0.2-0.6-0.6-0.7-1.1c-0.2-0.6-0.2-1.4,0-2c0.1-0.4,0.3-0.8,0.6-1c0.4-0.2,0.8-0.3,1.2-0.1c0.5,0.3,0.5,0.9,0.6,2
							C199.6,42.7,199.5,43.3,199.2,43.8L199.2,43.8z M211.7,63.9c-0.3,0.3-0.7,0.4-1.1,0.3c-0.3-0.2-0.3-0.4-0.1-1.6
							c0.1-0.8,0.6-2.9,0.9-2.8c0.2,0,0.2,0.7,0.4,2C212.1,63.3,212,63.6,211.7,63.9L211.7,63.9z"/>
						<path class="st0" d="M283.1,82.5l-0.7,1.1l-0.6,1c-0.5,0.9-1.4,1.4-2.4,1.4c-1.4,0-2.6-0.7-3.4-1.8c-0.5-0.8-0.8-1.8-0.8-2.7
							V71h-1.7v-0.6c1.9-0.8,3.2-2.4,3.7-4.4h0.7l-0.2,3.2h4.7l-0.3,1.7h-4.6v8.5c0,3.4,0.6,4.6,2.2,4.6c1,0,1.8-0.6,2.7-2l0.2-0.3
							l0.6,0.3L283.1,82.5z"/>
						<path class="st0" d="M301.4,85.6l-3.2-0.1l-3,0.1h-0.4V85h0.2c2-0.2,2.2-0.8,2.2-5.6c0-2.1-0.1-4.3-0.5-6.4
							c-0.3-1.1-1.3-2-2.5-2c-1.2,0-3.5,1.3-4.8,2.7v3.7c0,4.8,0.1,6.2,0.5,7c0.3,0.5,0.5,0.6,1.7,0.7v0.5H285v-0.5
							c1.9-0.2,2-0.5,2-5.3v-9.1c0-4.8,0-5.5-0.1-7.4c0-1-0.2-2-0.7-2.8c-0.3-0.4-0.8-0.6-1.8-0.7v-0.5h2.6l2.2-0.1h0.3v13.1
							c2.3-2.2,4.4-3.3,6-3.3c2.6,0,4.1,2.3,4.2,6.7v6.9c0,2.1,0.4,2.6,2.1,2.6v0.5L301.4,85.6z"/>
						<path class="st0" d="M319.1,84.4c-1.3,0.3-2.6,0.8-3.9,1.4l-0.2,0.1l-0.1-0.3c-0.3-0.6-0.6-1.2-0.7-1.9
							c-1.2,1.4-3,2.2-4.8,2.2c-2.5,0-4.5-2-4.6-4.5c0-2.3,1.7-4.1,4.3-4.6c1.3-0.2,2.6-0.3,3.9-0.3c0.3,0,0.7,0,1,0.1v-0.4
							c0-4.9-0.7-6.2-3-6.2c-1.9,0-3.2,1-4.1,3.4h-0.5v-0.3l0.4-2.6l0.1-1.7v-0.2h0.5v0.2c0.1,0.4,0.2,0.5,0.5,0.5
							c0.5-0.1,1-0.1,1.5-0.3c0.5-0.1,1-0.2,1.5-0.2c2.6,0,4.5,1,5.1,2.7c0.4,1.2,0.6,2.5,0.5,3.8v6.1c0,1.8,0.5,2.6,1.5,2.6
							c0.3,0,0.5,0,0.8-0.1l0.4-0.1l0.1,0.6L319.1,84.4z M314,82.4v-4.7c-0.2,0-0.4,0-0.6,0c-3.6,0-5.8,1.4-5.8,3.7
							c0,1.6,1.3,2.9,2.8,2.9c0,0,0,0,0,0h0.1c1.4-0.1,2.6-0.7,3.5-1.7L314,82.4z"/>
						<path class="st0" d="M330.5,82.5l-0.7,1.1l-0.6,1c-0.5,0.9-1.4,1.4-2.4,1.4c-1.4,0-2.7-0.7-3.5-1.8c-0.5-0.8-0.8-1.8-0.8-2.7
							V71h-1.7v-0.6c1.9-0.8,3.2-2.4,3.7-4.4h0.7l-0.2,3.2h4.7l-0.3,1.7H325v8.5c0,3.4,0.6,4.6,2.2,4.6c1,0,1.8-0.6,2.7-2l0.2-0.3
							l0.6,0.3L330.5,82.5z"/>
						<path class="st0" d="M351.1,82.5l-0.7,1.1l-0.6,1c-0.5,0.9-1.4,1.4-2.4,1.4c-1.4,0-2.7-0.7-3.5-1.8c-0.5-0.8-0.8-1.8-0.8-2.7
							V71h-1.8v-0.6c1.9-0.8,3.2-2.4,3.7-4.4h0.7l-0.2,3.2h4.7l-0.2,1.7h-4.6v8.5c0,3.4,0.6,4.6,2.2,4.6c1,0,1.8-0.6,2.7-2l0.2-0.3
							l0.6,0.3L351.1,82.5z"/>
						<path class="st0" d="M370.4,84.3l-2,0.6c-0.7,0.2-1.3,0.5-1.9,0.9l-0.3,0.2c-0.5-0.8-0.8-1.7-0.9-2.6c-1.2,1.6-3,2.5-5,2.5
							c-1.8,0-3.5-0.8-4.5-2.2c-0.9-1.5-1-2.2-1-6.1v-2.7c0-3.9-0.2-4.3-2.2-4.3h-0.2v-0.6h0.3c1.6-0.1,3.1-0.5,4.5-1v7.8
							c0,4,0.2,5.1,1,6.2c0.7,0.9,1.7,1.4,2.8,1.4c1.7,0,3.2-0.9,4.1-2.3v-8.6c0-2.9-0.2-3.2-2-3.2h-0.3v-0.6c1.7-0.2,3.3-0.6,4.9-1
							v10.8l0.1,2.4c0.1,1.5,0.4,2,1.4,2c0.5,0,0.9-0.1,1.4-0.3l0.2,0.6L370.4,84.3z"/>
						<path class="st0" d="M383.2,70.7v2.9h-0.7v-0.3c0-1.4-0.5-1.9-1.6-1.9c-1.4,0-2.2,0.6-3.7,2.6v4.2l0.1,3.6
							c0,2.7,0.4,3.2,2.4,3.2h0.3v0.6h-0.3l-3.5-0.1l-3.3,0.1h-0.3v-0.7c1.6-0.1,2.1-0.6,2.2-2.1l0.1-1c0-0.6,0.1-1.5,0.1-2.8
							c0-5.4-0.2-7.1-0.7-8c-0.3-0.5-0.7-0.6-1.8-0.7V70h0.3c1.4-0.1,2.8-0.5,4.2-1l0.4-0.2l-0.1,3.9c1.2-2.1,2.8-3.2,4.7-3.3
							c0.5,0,0.9-0.3,1-0.7h0.5C383.2,69.4,383.2,70.1,383.2,70.7z"/>
						<path class="st0" d="M402.5,85.6H396v-0.5c2-0.1,2.2-0.5,2.2-5.1v-4.2c0-3.5-0.9-5-3-5c-1.3,0-3,0.9-4.5,2.5
							c0,0.1,0,0.3,0,0.4v8.6c0,2.1,0.5,2.7,2.2,2.8v0.5H386v-0.5c2-0.2,2.2-0.6,2.2-4.5c0-3.6-0.1-6.6-0.1-8s-0.5-1.9-1.8-2H386V70
							c1.6-0.3,3.2-0.6,4.7-1.2c-0.1,1.4-0.1,1.8-0.1,2.5v0.5c2-1.9,4.3-3.1,6-3.1c1.6,0,3.1,1.1,3.6,2.6c0.5,1.3,0.6,2.4,0.6,5.8
							v2.6c0,4.9,0.1,5.3,2.1,5.4v0.5L402.5,85.6z"/>
						<path class="st0" d="M418.8,76.6h-10.4v0.7c0,3.8,2.5,6.9,5.7,6.9c1.5-0.1,3-0.7,4.2-1.7l0.5,0.6c-1.5,1.8-3.7,2.9-6,2.9
							c-4,0-6.9-3.5-6.9-8.3c0-5.1,3-8.9,7.2-8.9c3.5,0,5.9,2.7,5.9,6.4C418.9,75.6,418.8,76.1,418.8,76.6z M412.8,69.9
							c-2.2,0-3.7,1.8-4.3,5.1v0.3h7.8v-0.9C416.3,71.9,414.8,69.9,412.8,69.9L412.8,69.9z"/>
						<path class="st0" d="M439.6,84.5l-2,0.6l-1.9,0.8l-0.3,0.2c-0.3-0.4-0.5-0.8-0.6-1.3c-0.1-0.4-0.2-0.8-0.3-1.2
							c0-0.1,0-0.2,0-0.3c-2.3,1.9-3.7,2.5-5.6,2.5c-3.8,0-6.5-3.3-6.5-8c0-5,3.2-8.8,7.5-8.8c1.7,0,3.2,0.7,4.5,1.8v-7.2
							c0-3.2-0.4-3.7-2.3-3.7v-0.5h0.3c1.5,0,3,0,4.5-0.2h0.3v0.5c-0.1,2.2-0.2,6.9-0.2,13v6.5c0,4.1,0.3,4.9,1.6,4.9
							c0.3,0,0.7-0.1,1-0.2l0.3-0.1l0.2,0.6L439.6,84.5z M434.4,72.1c-1-1.1-2.5-1.8-4-1.8c-2.9,0-5.1,2.9-5.1,6.9s2.2,6.8,5.1,6.8
							c1.6-0.1,3-0.8,4.1-2L434.4,72.1z"/>
						<path class="st0" d="M9.7,78L9,79.1l-0.6,1C7.9,81,7,81.5,6,81.4c-1.4,0-2.7-0.7-3.5-1.8c-0.5-0.8-0.8-1.8-0.8-2.7V66.5H0
							v-0.6c1.9-0.8,3.2-2.4,3.7-4.4h0.7l-0.2,3.2H9l-0.2,1.7H4.2V75c0,3.4,0.6,4.6,2.2,4.6c1,0,1.8-0.6,2.7-2l0.2-0.3l0.6,0.3
							L9.7,78z"/>
						<path class="st0" d="M27.9,81.1L24.8,81l-3,0.1h-0.4v-0.6h0.2c2-0.2,2.2-0.8,2.2-5.6c0.1-2.1-0.1-4.3-0.5-6.4
							c-0.3-1.2-1.3-2-2.5-2.1c-1.2,0-3.5,1.3-4.8,2.7v3.7c0,4.8,0.1,6.2,0.5,7c0.3,0.5,0.5,0.6,1.7,0.7v0.5h-0.4L15,81h-3.4v-0.5
							c1.9-0.2,2-0.5,2-5.3v-9c0-4.8,0-5.5-0.1-7.4c0-1-0.2-2-0.7-2.8c-0.3-0.4-0.8-0.6-1.8-0.7v-0.5h2.6l2.2-0.1h0.3v13
							c2.3-2.2,4.4-3.3,6.1-3.3c2.6,0,4.1,2.3,4.2,6.7v6.9c0,2.1,0.4,2.6,2.1,2.6v0.5L27.9,81.1z"/>
						<path class="st0" d="M44.4,72.1H34.1v0.7c0,3.8,2.5,6.9,5.7,6.9c1.5-0.1,3-0.7,4.2-1.7l0.5,0.6c-1.5,1.8-3.7,2.9-6.1,2.9
							c-4,0-6.9-3.5-6.9-8.3c0-5.1,3-8.9,7.2-8.9c3.5,0,5.9,2.7,5.9,6.4C44.5,71.1,44.5,71.6,44.4,72.1z M38.4,65.4
							c-2.2,0-3.7,1.8-4.3,5.1v0.3H42c0-0.3,0-0.6,0-0.9C42,67.4,40.5,65.4,38.4,65.4L38.4,65.4z"/>
					</g>
				</g>
			</g>
		</g>
	</g>
</g>
</svg>
