<svg xmlns="http://www.w3.org/2000/svg" width="130" height="61" version="1.0" viewBox="0 0 97.5 45.75"><defs><clipPath id="a"><path d="M.016 0h96.972v45.5H.016Zm0 0"/></clipPath></defs><g fill="#fff" clip-path="url(#a)"><path d="M.016 0h96.972v45.5H.016Zm0 0"/><path d="M.016 0h96.972v45.5H.016Zm0 0"/></g><path d="M52.872 35.04c.219.03.414.12.594.265q.28.22.438.547.17.329.171.687 0 .47-.234.844a1.6 1.6 0 0 1-.687.594 2.6 2.6 0 0 1-1.063.203H49.81v-6.094h2.187q.622.002 1.063.203.434.205.656.563.218.346.219.78c0 .368-.102.669-.297.907q-.298.347-.766.5m-2.265-.329h1.343q.561.001.86-.25.311-.265.312-.734 0-.468-.312-.72-.3-.264-.875-.265h-1.328Zm1.406 2.812q.592 0 .922-.28c.226-.188.344-.446.344-.782a.99.99 0 0 0-.36-.797c-.23-.195-.539-.297-.922-.297h-1.39v2.156ZM59.081 33.383l-2.875 7.047h-.828l.937-2.297-1.921-4.75h.875l1.515 3.89 1.485-3.89ZM65.257 33.977a1.2 1.2 0 0 0-.484-.454 1.5 1.5 0 0 0-.735-.171c-.48 0-.867.164-1.156.484q-.438.468-.437 1.266c0 .562.148 1.007.453 1.328q.468.468 1.265.468.563 0 .938-.28.373-.282.547-.798h-1.89v-1.109h3.25v1.39a2.8 2.8 0 0 1-.563 1.047 2.84 2.84 0 0 1-1.016.782 3.1 3.1 0 0 1-1.375.297q-.909 0-1.625-.391-.72-.405-1.125-1.11-.392-.715-.39-1.624-.002-.904.39-1.625.405-.716 1.11-1.11a3.25 3.25 0 0 1 1.624-.406q1.11.001 1.86.547.762.532 1.015 1.469ZM69.114 34.117q.263-.406.656-.64.405-.235.875-.235v1.594h-.406q-.563 0-.844.234t-.281.844v2.266h-1.485v-4.875h1.485ZM73.375 38.242a2.8 2.8 0 0 1-1.297-.297 2.3 2.3 0 0 1-.89-.875c-.219-.382-.328-.828-.328-1.328q0-.749.328-1.328.327-.576.906-.875a2.7 2.7 0 0 1 1.297-.312q.715 0 1.297.312.576.3.906.875.328.58.328 1.328c0 .5-.117.946-.344 1.328a2.3 2.3 0 0 1-.906.875q-.581.298-1.297.297m0-1.281q.421.002.719-.313.311-.327.312-.906-.002-.59-.296-.906a.93.93 0 0 0-.72-.313.97.97 0 0 0-.734.313q-.28.315-.28.906 0 .58.28.906.296.315.72.313M81.325 33.305v4.875h-1.484v-.672a1.7 1.7 0 0 1-.625.531 2 2 0 0 1-.86.188 1.96 1.96 0 0 1-1-.25 1.68 1.68 0 0 1-.656-.72q-.234-.466-.234-1.109v-2.843h1.484v2.64q-.001.503.25.766c.176.18.407.266.688.266.289 0 .52-.086.687-.266q.265-.263.266-.766v-2.64ZM83.677 33.992q.217-.34.61-.547a1.83 1.83 0 0 1 .906-.218q.592 0 1.078.312.5.3.781.875.295.563.297 1.313-.001.752-.297 1.328-.282.58-.78.89-.487.298-1.079.297-.517.001-.906-.203a1.5 1.5 0 0 1-.61-.547v3.016h-1.484v-7.203h1.484Zm2.141 1.735c0-.375-.105-.664-.312-.875a1.02 1.02 0 0 0-.766-.329 1 1 0 0 0-.75.329q-.315.327-.313.89-.002.563.313.89c.207.212.457.313.75.313q.45 0 .766-.328.311-.328.312-.89M88.667 32.79q-.394 0-.64-.235a.74.74 0 0 1-.25-.563q-.002-.358.25-.594.246-.234.64-.234.389 0 .625.234a.8.8 0 0 1 .25.594.75.75 0 0 1-.25.563q-.236.234-.625.234m.734.515v4.875h-1.484v-4.875ZM89.983 35.727q0-.75.281-1.313.281-.576.766-.875a2.03 2.03 0 0 1 1.094-.312q.515.001.906.218.387.206.61.547v-.687h1.5v4.875h-1.5v-.688a1.56 1.56 0 0 1-.61.547 1.9 1.9 0 0 1-.906.203q-.597.001-1.094-.297a2.1 2.1 0 0 1-.766-.89q-.28-.576-.28-1.328m3.656.015q0-.563-.312-.89a1.02 1.02 0 0 0-.766-.329 1 1 0 0 0-.75.329q-.313.314-.312.875c0 .375.101.671.312.89a1 1 0 0 0 .75.328c.301 0 .555-.101.766-.312q.311-.329.312-.89M16.785 12.753q-.721-1.34-2-2.032c-.843-.468-1.836-.703-2.968-.703-1.25 0-2.368.29-3.344.86q-1.454.844-2.281 2.421-.814 1.58-.813 3.641-.001 2.127.828 3.703c.563 1.043 1.336 1.852 2.328 2.422q1.483.844 3.47.844 2.42 0 3.968-1.281 1.546-1.297 2.031-3.594h-7.281v-3.25h11.469v3.703q-.423 2.205-1.828 4.094c-.93 1.25-2.125 2.258-3.594 3.015q-2.192 1.142-4.922 1.141-3.063.001-5.547-1.375a10.07 10.07 0 0 1-3.875-3.844Q1.02 20.068 1.02 16.94q0-3.122 1.406-5.594a9.9 9.9 0 0 1 3.875-3.859q2.482-1.373 5.516-1.375 3.575.002 6.218 1.75c1.758 1.156 2.973 2.789 3.641 4.89ZM31.278 27.815c-1.617 0-3.07-.351-4.36-1.062a7.77 7.77 0 0 1-3.046-3.047c-.742-1.32-1.11-2.844-1.11-4.563q0-2.578 1.141-4.547a7.93 7.93 0 0 1 3.11-3.047q1.966-1.078 4.39-1.078 2.42 0 4.39 1.078a7.83 7.83 0 0 1 3.11 3.047q1.139 1.969 1.14 4.547 0 2.58-1.171 4.563a8.06 8.06 0 0 1-3.14 3.047q-1.988 1.064-4.454 1.062m0-3.687q1.154 0 2.172-.563 1.015-.562 1.625-1.687t.61-2.735q0-2.39-1.266-3.672-1.252-1.296-3.078-1.297-1.817.001-3.047 1.297-1.22 1.283-1.219 3.672 0 2.409 1.188 3.703 1.2 1.283 3.015 1.282M59.22 6.378v21.171h-4.25v-9h-9.063v9h-4.25V6.378h4.25v8.703h9.062V6.378ZM77.51 18.784q-.002.908-.126 1.64H65.103q.14 1.815 1.265 2.844 1.125 1.031 2.766 1.031 2.356.001 3.36-2.03h4.578c-.48 1.624-1.407 2.96-2.782 4q-2.062 1.546-5.062 1.546c-1.625 0-3.078-.351-4.36-1.062a7.6 7.6 0 0 1-3-3.047c-.718-1.32-1.078-2.844-1.078-4.563q-.002-2.608 1.063-4.578a7.42 7.42 0 0 1 2.969-3.031q1.904-1.062 4.406-1.063 2.39 0 4.281 1.032a7.25 7.25 0 0 1 2.953 2.937q1.046 1.894 1.047 4.344m-4.407-1.219q-.035-1.624-1.188-2.61c-.761-.663-1.699-1-2.812-1q-1.58.001-2.656.97-1.08.953-1.313 2.64ZM88.391 10.503q3 0 4.844 1.906 1.858 1.894 1.86 5.281v9.86h-4.25v-9.282c0-1.332-.336-2.36-1-3.078q-1.001-1.078-2.735-1.078-1.752 0-2.766 1.078c-.68.719-1.015 1.746-1.015 3.078v9.281h-4.25V10.753h4.25v2.093a5.9 5.9 0 0 1 2.156-1.718q1.325-.623 2.906-.625m0 0"/></svg>