<svg width="413" height="345" viewBox="0 0 413 345" fill="none" xmlns="http://www.w3.org/2000/svg">
<path fill-rule="evenodd" clip-rule="evenodd" d="M80.4819 323.433L57.9269 340.77L0.0564934 274.987L29.969 252.005L48.9226 273.431L46.4541 239.326L67.7541 222.982L87.5028 243.768L84.184 210.346L114.133 187.336L124.208 289.852L101.616 307.216L77.4357 282.14L80.4819 323.433Z" fill="#FFED00"/>
<path fill-rule="evenodd" clip-rule="evenodd" d="M197.903 205.522L206.298 226.745L148.786 270.963L115.384 186.376L172.895 142.158L181.271 163.395L154.394 184.048L158.543 194.521L177.249 180.167L185.63 201.371L166.919 215.758L171.04 226.194L197.903 205.522Z" fill="#FFED00"/>
<path fill-rule="evenodd" clip-rule="evenodd" d="M211.651 222.638L178.248 138.051L235.222 94.2748L243.617 115.498L217.273 135.741L223.346 151.083L242.848 136.09L251.242 157.313L231.722 172.32L242.299 199.091L211.651 222.638Z" fill="#FFED00"/>
<path fill-rule="evenodd" clip-rule="evenodd" d="M271.475 176.674L238.055 92.1012L268.703 68.5547L302.105 153.141L271.475 176.674Z" fill="#FFED00"/>
<path fill-rule="evenodd" clip-rule="evenodd" d="M314.723 87.664L271.168 66.6637L304.653 40.9111L321.022 48.6461L324.615 25.5648L357.893 5.50697e-05L348.123 61.685L392.988 83.2883L359.434 109.065L341.825 100.703L337.872 125.639L304.571 151.25L314.723 87.664Z" fill="#FFED00"/>
<path d="M298.208 194.908L283.309 206.34L273.586 182.014L280.281 176.877L287.475 194.897L295.697 188.588L298.208 194.908Z" fill="#F07F00"/>
<path d="M300.257 172.136C300.145 172.485 300.065 172.838 300 173.21C299.939 173.55 299.906 173.926 299.91 174.274C299.896 174.636 299.914 175.002 299.964 175.373C299.996 175.757 300.094 176.151 300.177 176.525C300.264 176.868 300.366 177.229 300.504 177.561C300.628 177.875 300.771 178.175 300.932 178.461C301.026 178.623 301.135 178.802 301.262 178.968C301.375 179.115 301.488 179.262 301.615 179.428C301.714 179.557 301.864 179.676 301.999 179.777C302.252 179.992 302.528 180.161 302.826 180.283C302.966 180.351 303.11 180.386 303.268 180.44C303.413 180.476 303.557 180.511 303.705 180.515C303.998 180.553 304.299 180.527 304.591 180.449C304.762 180.406 304.919 180.344 305.076 180.282C305.251 180.206 305.445 180.116 305.606 180.021C305.786 179.912 305.965 179.804 306.131 179.677C306.37 179.493 306.591 179.324 306.788 179.085C306.98 178.879 307.173 178.673 307.333 178.462C307.492 178.252 307.638 178.023 307.77 177.776C308.033 177.281 308.25 176.764 308.369 176.234C308.436 175.978 308.493 175.671 308.527 175.411C308.6 174.858 308.612 174.264 308.568 173.713C308.511 173.143 308.402 172.582 308.239 172.065C308.157 171.806 308.061 171.528 307.943 171.298C307.78 170.896 307.549 170.518 307.331 170.158C307.247 170.048 307.148 169.919 307.063 169.809C306.908 169.606 306.72 169.399 306.528 169.225C306.35 169.069 306.186 168.932 305.985 168.823C305.803 168.699 305.616 168.609 305.411 168.532C305.22 168.474 305.03 168.415 304.834 168.39C304.444 168.338 304.041 168.384 303.662 168.499C303.454 168.571 303.246 168.643 303.048 168.766C302.938 168.851 302.818 168.884 302.707 168.969C302.579 169.068 302.468 169.152 302.339 169.251C302.192 169.364 302.045 169.477 301.931 169.594C301.783 169.707 301.646 169.871 301.513 170.002C301.261 170.283 301.023 170.583 300.865 170.909C300.651 171.278 300.465 171.684 300.345 172.098L300.313 172.21M315.808 178.158C315.692 178.54 315.543 178.917 315.394 179.295C315.223 179.719 315.037 180.124 314.837 180.512C314.615 180.945 314.379 181.361 314.109 181.772C313.777 182.29 313.43 182.791 313.036 183.268C312.62 183.792 312.157 184.293 311.666 184.758C311.171 185.255 310.633 185.697 310.063 186.134C309.033 186.925 307.886 187.6 306.681 188.086C306.085 188.339 305.48 188.54 304.846 188.704C304.213 188.869 303.555 188.964 302.888 189.008C302.239 189.038 301.566 188.999 300.92 188.881C300.255 188.777 299.603 188.575 298.974 188.326C298.345 188.078 297.762 187.736 297.201 187.348C296.897 187.142 296.63 186.909 296.363 186.675C296.068 186.404 295.791 186.12 295.532 185.821C295.264 185.471 295.01 185.14 294.741 184.79C294.044 183.805 293.456 182.735 293.008 181.617C292.745 180.97 292.52 180.295 292.313 179.606C292.134 178.954 292.005 178.292 291.91 177.634C291.737 176.305 291.713 174.978 291.87 173.659C292.036 172.391 292.333 171.14 292.788 169.942C293.238 168.778 293.833 167.649 294.517 166.598C295.215 165.565 296.02 164.596 296.943 163.742C297.416 163.291 297.921 162.845 298.45 162.469C299.039 162.017 299.67 161.62 300.296 161.257C300.905 160.907 301.537 160.626 302.211 160.401C302.835 160.186 303.469 160.021 304.094 159.922C304.737 159.808 305.405 159.764 306.064 159.785C306.704 159.82 307.354 159.905 307.978 160.07C309.225 160.4 310.401 161.019 311.402 161.829C311.941 162.264 312.438 162.76 312.88 163.298C313.379 163.91 313.826 164.531 314.215 165.227C314.858 166.371 315.396 167.567 315.758 168.839C316.111 170.06 316.343 171.315 316.408 172.58C316.474 173.846 316.39 175.109 316.145 176.35C316.079 176.722 315.981 177.09 315.898 177.476C315.835 177.699 315.773 177.922 315.692 178.16L315.808 178.158Z" fill="#F07F00"/>
<path d="M341.448 161.759L335.802 166.092L324.045 160.52L328.448 171.705L321.808 176.8L312.154 152.45L317.801 148.117L329.547 153.637L325.14 142.485L331.798 137.376L341.448 161.759Z" fill="#F07F00"/>
<path d="M348.249 148.265L349.371 147.404C349.721 147.136 350.038 146.863 350.359 146.558C350.625 146.296 350.877 146.014 351.129 145.733C351.344 145.481 351.531 145.191 351.718 144.901C351.886 144.626 352.041 144.332 352.181 144.02C352.299 143.754 352.402 143.47 352.473 143.181C352.54 142.926 352.592 142.651 352.626 142.391C352.646 142.113 352.667 141.834 352.654 141.551C352.656 141.287 352.625 141.018 352.594 140.749C352.563 140.48 352.514 140.226 352.446 139.985C352.397 139.731 352.315 139.472 352.215 139.227C352.033 138.723 351.8 138.229 351.535 137.731C351.227 137.178 350.832 136.662 350.377 136.222C350.278 136.093 350.156 136.011 350.039 135.896C349.936 135.8 349.814 135.718 349.711 135.621C349.608 135.525 349.501 135.461 349.361 135.393C349.132 135.247 348.88 135.148 348.624 135.081C348.48 135.045 348.336 135.01 348.192 134.974C347.867 134.931 347.556 134.907 347.24 134.915C347.073 134.926 346.925 134.923 346.772 134.952C346.601 134.996 346.448 135.025 346.277 135.069C346.088 135.126 345.898 135.184 345.704 135.274C345.492 135.379 345.266 135.465 345.049 135.601C344.8 135.734 344.547 135.899 344.312 136.05C344.041 136.229 343.787 136.394 343.53 136.592L348.198 148.275M360.051 143.917C359.962 144.22 359.854 144.536 359.732 144.834C359.507 145.417 359.253 145.962 358.953 146.485C358.566 147.162 358.152 147.802 357.69 148.419C357.169 149.111 356.588 149.762 355.945 150.372C355.243 151.057 354.495 151.719 353.704 152.326L344.102 159.694L334.342 135.396L341.718 129.736C342.288 129.298 342.886 128.898 343.499 128.515C344.038 128.19 344.587 127.915 345.182 127.662C346.216 127.22 347.312 126.934 348.419 126.816C348.938 126.769 349.486 126.758 350.01 126.794C350.502 126.826 351.004 126.909 351.483 127.038C352.442 127.297 353.365 127.7 354.206 128.225C354.617 128.494 355.024 128.796 355.426 129.13C355.797 129.46 356.148 129.805 356.482 130.163C357.247 131.008 357.903 131.938 358.452 132.921C358.868 133.654 359.23 134.429 359.54 135.215C360.099 136.628 360.449 138.114 360.546 139.648C360.593 140.167 360.576 140.678 360.54 141.203C360.513 141.662 360.449 142.15 360.356 142.601C360.282 143.038 360.176 143.47 360.037 143.899L360.051 143.917Z" fill="#F07F00"/>
<path d="M407.298 111.23L401.67 115.549L389.927 109.996L394.312 121.195L387.672 126.29L378.004 101.921L383.669 97.5742L395.397 103.109L390.99 91.9568L397.648 86.8475L407.298 111.23Z" fill="#F07F00"/>
<path d="M366.492 121.311C366.38 121.66 366.3 122.014 366.235 122.385C366.109 123.097 366.094 123.839 366.181 124.562C366.213 124.947 366.296 125.321 366.393 125.715C366.481 126.057 366.582 126.418 366.72 126.75C366.845 127.065 366.987 127.365 367.162 127.669C367.271 127.849 367.366 128.01 367.493 128.176C367.606 128.323 367.719 128.47 367.846 128.636C367.945 128.765 368.094 128.884 368.23 128.984C368.483 129.2 368.758 129.368 369.057 129.49C369.197 129.558 369.341 129.594 369.499 129.648C369.643 129.684 369.788 129.719 369.936 129.722C370.229 129.761 370.53 129.734 370.821 129.657C370.992 129.614 371.149 129.552 371.306 129.49C371.482 129.413 371.676 129.323 371.837 129.229C372.016 129.12 372.196 129.011 372.348 128.866C372.587 128.683 372.807 128.513 373.018 128.293C373.211 128.087 373.403 127.881 373.563 127.67C373.723 127.46 373.869 127.231 374.001 126.983C374.132 126.736 374.246 126.503 374.363 126.237C374.566 125.702 374.704 125.157 374.776 124.605C374.849 124.052 374.861 123.458 374.803 122.888C374.772 122.619 374.727 122.332 374.664 122.059C374.556 121.499 374.378 120.962 374.163 120.454C374.001 120.052 373.77 119.675 373.538 119.297C373.453 119.186 373.354 119.057 373.27 118.947C373.114 118.744 372.926 118.538 372.734 118.363C372.57 118.226 372.392 118.07 372.192 117.961C372.009 117.838 371.823 117.747 371.618 117.67C371.255 117.54 370.864 117.488 370.48 117.52C370.28 117.527 370.077 117.566 369.887 117.624C369.679 117.696 369.471 117.767 369.259 117.872C369.149 117.956 369.029 117.99 368.918 118.075C368.79 118.174 368.679 118.258 368.55 118.357C368.403 118.47 368.256 118.583 368.141 118.7C367.994 118.813 367.875 118.963 367.724 119.108C367.472 119.389 367.234 119.689 367.076 120.015C366.862 120.384 366.676 120.79 366.556 121.204L366.524 121.315M382.057 127.352C381.941 127.734 381.792 128.111 381.643 128.488C381.472 128.912 381.286 129.318 381.086 129.705C380.864 130.139 380.628 130.554 380.359 130.966C380.026 131.484 379.679 131.984 379.285 132.462C378.869 132.986 378.407 133.487 377.915 133.951C377.42 134.448 376.882 134.89 376.331 135.314C375.301 136.104 374.153 136.78 372.948 137.266C372.353 137.518 371.747 137.719 371.114 137.884C370.48 138.048 369.823 138.144 369.155 138.188C368.506 138.218 367.833 138.179 367.187 138.06C366.523 137.956 365.871 137.754 365.242 137.506C364.613 137.257 364.029 136.916 363.482 136.546C363.197 136.326 362.912 136.107 362.645 135.873C362.349 135.602 362.072 135.318 361.814 135.019C361.546 134.669 361.273 134.352 361.023 133.988C360.325 133.003 359.738 131.933 359.289 130.815C359.027 130.168 358.801 129.493 358.594 128.804C358.415 128.152 358.287 127.49 358.177 126.814C358.1 126.142 358.041 125.456 358.029 124.793C358.019 123.485 358.171 122.198 358.486 120.933C358.943 119.091 359.735 117.342 360.803 115.763C361.501 114.73 362.306 113.761 363.229 112.907C363.702 112.457 364.207 112.011 364.736 111.634C365.324 111.182 365.955 110.786 366.582 110.422C367.19 110.072 367.823 109.792 368.497 109.566C369.121 109.351 369.755 109.186 370.38 109.087C371.023 108.973 371.691 108.929 372.364 108.968C373.022 108.989 373.654 109.089 374.278 109.254C375.539 109.603 376.701 110.203 377.702 111.013C378.241 111.448 378.738 111.944 379.18 112.482C379.406 112.776 379.646 113.089 379.872 113.384C380.485 114.258 380.992 115.186 381.392 116.165C381.645 116.761 381.879 117.37 382.062 117.99C382.433 119.197 382.647 120.466 382.712 121.732C382.81 123.382 382.643 125.031 382.202 126.627C382.14 126.85 382.077 127.073 382.015 127.297L382.057 127.352Z" fill="#F07F00"/>
</svg>
