<?xml version="1.0" encoding="utf-8"?>
<!-- Generator: Adobe Illustrator 25.2.0, SVG Export Plug-In . SVG Version: 6.00 Build 0)  -->
<svg version="1.1" id="Layer_1" xmlns="http://www.w3.org/2000/svg" xmlns:xlink="http://www.w3.org/1999/xlink" x="0px" y="0px"
	 viewBox="0 0 817 321" enable-background="new 0 0 817 321" xml:space="preserve">
<g id="Logos-_x2F_-Dominos-Horizontal-Negative">
	<g id="Dominos-WGT-Logo-SMALL-sRGB">
		<g id="Group" transform="translate(470.885327, 175.090909)">
			<g transform="translate(0.000000, 21.753181)">
				<path id="Path" fill="#FFFFFF" d="M2.04,44.2403l8.2682-1.3052c0.4352,0,1.3055,0.4351,1.3055,0.8701l3.9165,23.0584
					c0,1.3052,2.1758,1.3052,2.1758,0l3.0462-24.3636c0-0.4351,0.4352-0.8701,0.8703-0.8701l7.3978-0.8701
					c0.4352,0,1.3055,0.4351,1.3055,0.8701l3.4813,23.9285c0,1.3052,2.1758,1.3052,2.1758,0l4.3517-25.6688
					c0-0.4351,0.4352-0.8701,0.8703-0.8701l8.2682-0.8701c0.8703,0,1.3055,0.4351,1.3055,1.3052l-10.444,57.8635
					c0,0.4351-0.4352,0.8701-0.8703,0.8701l-6.0923,0.8701c-0.4352,0-1.3055-0.4351-1.3055-0.8701l-5.222-29.1493
					c-0.4352-1.3052-2.1758-1.3052-2.1758,0L20.317,99.9285c0,0.4351-0.4352,0.8701-0.8703,0.8701l-6.0923,0.8701
					c-0.4352,0-1.3055-0.4351-1.3055-0.8701L1.1697,45.5455C0.7345,45.1105,1.1697,44.2403,2.04,44.2403"/>
				<path id="Path_1_" fill="#FFFFFF" d="M59.482,36.8443l20.0177-2.6104c1.7407,0,3.0462,0.8701,3.0462,2.6104v4.3506
					c0,1.3052-0.8703,2.6104-2.1758,2.6104l-10.444,1.3052c-1.3055,0-2.1758,1.3052-2.1758,2.6104v6.961
					c0,1.7403,1.3055,3.0454,3.0462,2.6104l3.9165-0.4351c1.7407,0,3.0462,0.8701,3.0462,2.6104v4.3506
					c0,1.3052-0.8703,2.6104-2.1758,2.6104l-5.222,0.8701c-1.3055,0-2.1758,1.3052-2.1758,2.6104v11.7467
					c0,1.7403,1.3055,3.0454,3.0462,2.6104l8.7033-1.3052c1.7407,0,3.0462,0.8701,3.0462,2.6104v4.3506
					c0,1.3052-0.8703,2.6104-2.1758,2.6104l-20.0177,2.6104c-1.7407,0-3.0462-0.8701-3.0462-2.6104V39.4546
					C56.871,38.1495,57.7413,36.8443,59.482,36.8443"/>
				<path id="Path_2_" fill="#FFFFFF" d="M105.1745,73.3896V47.2858c0-9.5714,4.7868-17.8376,15.2308-19.1428
					c10.8792-1.3052,15.2308,5.6558,15.2308,15.2272v3.4805l-10.444,1.3052v-5.2208c0-3.4805-1.7407-5.2208-4.7868-4.7857
					c-3.0462,0.4351-4.7868,2.6104-4.7868,6.0909v29.1493c0,3.4805,1.7407,5.2208,4.7868,4.7857
					c3.0462-0.4351,4.7868-2.6104,4.7868-6.0909v-7.8311l-4.7868,0.4351v-6.961c0-1.3052,0.8703-2.6104,2.1758-2.6104
					l10.0088-1.3052c1.7407,0,3.0462,0.8701,3.0462,2.6104V82.961c0,1.3052-0.8703,2.6104-2.1758,2.6104h-1.3055
					c-1.7407,0-3.0462-0.8701-3.0462-2.6104l-0.4352-3.4805c-1.7407,5.2208-4.7868,7.8311-10.0088,8.7013
					C109.091,89.922,105.1745,82.5259,105.1745,73.3896"/>
				<path id="Shape" fill="#FFFFFF" d="M142.5988,70.3442V39.8897c0-9.1363,6.9627-16.0974,15.2308-16.9675
					c8.2682-0.8701,15.2308,3.9156,15.2308,13.0519v30.4545c0,9.1363-6.9627,16.0974-15.2308,16.9675
					C149.5614,84.7013,142.5988,79.9156,142.5988,70.3442 M162.6164,67.7338V37.2793c0-3.0454-2.1758-4.7857-4.3517-4.3506
					c-2.611,0.4351-4.3517,2.6104-4.3517,5.6558V69.039c0,3.0454,2.1758,4.7857,4.3517,4.3506
					C160.4406,72.9545,162.6164,70.7792,162.6164,67.7338"/>
				<path id="Path_3_" fill="#FFFFFF" d="M183.5044,30.7534l-3.4813,0.4351c-1.7407,0-3.0462-0.8701-3.0462-2.6104v-4.3506
					c0-1.3052,0.8703-2.6104,2.1758-2.6104l24.8045-3.0454c1.7407,0,3.0462,0.8701,3.0462,2.6104v4.3506
					c0,1.3052-0.8703,2.6104-2.1758,2.6104l-4.7868,0.4351c-1.3055,0-2.1758,1.3052-2.1758,2.6104v43.9414
					c0,1.3052-0.8703,2.6104-2.1758,2.6104l-5.222,0.8701c-1.7407,0-3.0462-0.8701-3.0462-2.6104V33.3638
					C186.5506,31.6235,185.2451,30.3183,183.5044,30.7534"/>
				<path id="Path_4_" fill="#FFFFFF" d="M233.5486,23.7924l-3.4813,0.4351c-1.7407,0-3.0462-0.8701-3.0462-2.6104v-4.3506
					c0-1.3052,0.8703-2.6104,2.1758-2.6104l24.8045-3.0454c1.7407,0,3.0462,0.8701,3.0462,2.6104v4.3506
					c0,1.3052-0.8703,2.6104-2.1758,2.6104l-4.7868,0.4351c-1.3055,0-2.1758,1.3052-2.1758,2.6104v44.3765
					c0,1.3052-0.8703,2.6104-2.1758,2.6104l-5.222,0.8701c-1.7407,0-3.0462-0.8701-3.0462-2.6104V26.8378
					C236.5947,25.0975,235.2892,23.7924,233.5486,23.7924"/>
				<path id="Path_5_" fill="#FFFFFF" d="M264.8806,9.8703l5.222-0.8701c1.7407,0,3.0462,0.8701,3.0462,2.6104v16.0974
					c0,1.7403,1.3055,3.0454,3.0462,2.6104l3.4813-0.4351c1.3055,0,2.1758-1.3052,2.1758-2.6104V9.4353
					c0-1.3052,0.8704-2.6104,2.1758-2.6104l5.222-0.8701c1.7407,0,3.0461,0.8701,3.0461,2.6104V62.078
					c0,1.3052-0.8703,2.6104-2.1758,2.6104l-5.222,0.8701c-1.7407,0-3.0462-0.8701-3.0462-2.6104V42.9352
					c0-1.7403-1.3055-3.0454-3.0461-2.6104l-3.4814,0.4351c-1.3055,0-2.1758,1.3052-2.1758,2.6104v21.7532
					c0,1.3052-0.8703,2.6104-2.1758,2.6104l-5.222,0.8701c-1.7407,0-3.0462-0.8701-3.0462-2.6104V12.4807
					C262.7047,11.1755,263.575,9.8703,264.8806,9.8703"/>
				<path id="Path_6_" fill="#FFFFFF" d="M301.8697,5.0846l5.222-0.8701c1.7407,0,3.0462,0.8701,3.0462,2.6104v53.5128
					c0,1.3052-0.8703,2.6104-2.1758,2.6104l-5.222,0.8701c-1.7407,0-3.0462-0.8701-3.0462-2.6104V7.695
					C299.6938,6.3898,300.5642,5.0846,301.8697,5.0846"/>
				<path id="Path_7_" fill="#FFFFFF" d="M315.795,47.7209c0,0-0.4352-2.6104,1.3055-3.9156c1.7407-0.8701,6.0923-1.3052,8.2682,0
					c1.3055,0.8701,1.3055,3.0454,1.3055,3.0454c0,2.6104,1.3055,4.3506,3.9165,3.9156c2.611-0.4351,3.9165-2.6104,3.9165-5.6558
					c0-5.2208-3.4813-8.2662-8.2682-11.7467c-5.222-3.9156-9.5737-7.8311-9.5737-16.0974c0-8.7013,5.222-15.6623,13.9253-16.9675
					c7.3978-0.8701,13.9253,2.6104,13.9253,12.1818c0,0,0,1.7403-0.8703,2.6104c-1.3055,0.8701-6.9626,1.7403-8.7033,1.3052
					c-1.3055-0.4351-0.8703-2.6104-0.8703-2.6104c0-1.7403-0.8703-3.9156-3.4814-3.4805c-2.1758,0.4351-3.4813,1.7403-3.4813,4.3506
					c0,4.7857,5.222,8.7013,8.2682,10.8766c3.9165,2.6104,9.1385,7.3961,9.1385,16.0974s-4.7868,17.4025-14.3605,18.7077
					C322.7577,62.078,315.795,58.5974,315.795,47.7209"/>
			</g>
			<path id="Path_8_" fill="#FFFFFF" d="M344.9512,4.6496c0,0.8701-0.4352,1.3052-1.3055,1.7403L2.4752,51.2014
				c-0.8703,0-1.3055-0.4351-1.3055-1.3052v-2.6104c0-0.8701,0.4352-1.3052,1.3055-1.7403L343.6457,0.734
				c0.8703,0,1.3055,0.4351,1.3055,1.3052V4.6496z"/>
			<path id="Path_9_" fill="#FFFFFF" d="M344.9512,98.6233c0,0.8701-0.4352,1.3052-1.3055,1.7403L2.4752,145.1751
				c-0.8703,0-1.3055-0.4351-1.3055-1.3052v-2.6104c0-0.8701,0.4352-1.3052,1.3055-1.7403l341.1705-44.8115
				c0.8703,0,1.3055,0.4351,1.3055,1.3052V98.6233z"/>
		</g>
		<g id="Group_1_">
			<g>
				<path id="Path_10_" fill="#FFFFFF" d="M161.5372,48.2056L116.8105,3.4743c-1.737-1.7371-4.3424-3.04-6.9478-3.04
					c-2.6054,0-5.2109,0.8686-6.9478,3.04L65.5702,40.8228l-62.5305,62.537c-3.9082,3.9086-3.9082,10.4228,0,13.8971
					l44.7267,44.7313c1.737,1.7371,4.3424,3.04,6.9478,3.04s5.2109-0.8686,6.9478-3.04l56.0169-56.0227l43.8582-43.8628
					C165.4453,58.6284,165.4453,52.1142,161.5372,48.2056"/>
				<path id="Shape_1_" fill="#E31837" d="M158.4975,51.2456l-44.7267-44.297c-2.1712-2.1714-5.6451-2.1714-7.8163,0
					L57.7539,55.1542l52.543,52.5485l48.2006-48.2056C160.6687,56.8913,160.6687,53.417,158.4975,51.2456 M118.9817,64.2741
					c-2.6054,2.6057-5.6451,3.9086-9.119,3.9086c-3.4739,0-6.5136-1.3029-9.119-3.9086c-2.6054-2.6057-3.9082-5.6457-3.9082-9.12
					s1.3027-6.5143,3.9082-9.12c2.6054-2.6057,5.6451-3.9086,9.119-3.9086c3.4739,0,6.5136,1.3029,9.119,3.9086
					c2.6054,2.6057,3.9082,5.6457,3.9082,9.12S121.5871,61.6684,118.9817,64.2741"/>
				<path id="Shape_2_" fill="#006491" d="M6.0794,106.3998c-2.1712,2.1714-2.1712,5.6457,0,7.8171l44.7267,44.7313
					c0.8685,0.8686,2.6054,1.7371,3.9082,1.7371s3.0397-0.4343,3.9082-1.7371l48.2006-48.2056L54.28,58.1942L6.0794,106.3998z
					 M44.7267,119.4283c-2.6054,2.6057-5.6451,3.9086-9.119,3.9086s-6.5136-1.3029-9.119-3.9086
					c-2.6054-2.6057-3.9082-5.6457-3.9082-9.12c0-3.4743,1.3027-6.5143,3.9082-9.12c2.6054-2.6057,5.6451-3.9086,9.119-3.9086
					s6.5136,1.3029,9.119,3.9086c2.6054,2.6057,3.9082,5.6457,3.9082,9.12C48.6348,113.3483,47.3321,116.8226,44.7267,119.4283
					 M64.7017,101.6226c2.6054-2.6057,5.6451-3.9086,9.119-3.9086s6.5136,1.3029,9.119,3.9086
					c2.6054,2.6057,3.9082,5.6457,3.9082,9.12c0,3.4743-1.3027,6.5143-3.9082,9.12c-2.6054,2.6057-5.6451,3.9086-9.119,3.9086
					s-6.5136-1.3028-9.119-3.9086c-2.6054-2.6057-3.9082-5.6457-3.9082-9.12C60.7936,107.2683,62.0963,104.2283,64.7017,101.6226"/>
			</g>
			<path id="Shape_3_" fill="#FFFFFF" d="M114.671,149.7496c0,7.3273-5.7537,13.0815-13.2391,13.0815
				c-7.4068,0-13.3134-5.7543-13.3134-13.0815c0-7.17,5.9065-12.9243,13.3134-12.9243
				C108.9177,136.8258,114.671,142.5796,114.671,149.7496z M91.4257,149.7496c0,5.7521,4.2573,10.3221,10.0852,10.3221
				c5.6751,0,9.8499-4.57,9.8499-10.2435c0-5.7521-4.1748-10.4029-9.9285-10.4029
				C95.6826,139.4258,91.4257,144.0761,91.4257,149.7496z M99.3866,156.5271h-2.9967v-12.9243
				c1.182-0.2358,2.8356-0.3948,4.9642-0.3948c2.4426,0,3.5464,0.3948,4.4931,0.9467c0.7069,0.552,1.2606,1.5751,1.2606,2.8359
				c0,1.4201-1.1038,2.5215-2.6784,2.9948v0.159c1.2567,0.4712,1.9675,1.4179,2.3601,3.1499
				c0.3969,1.9717,0.6323,2.7594,0.9466,3.2328h-3.2281c-0.3969-0.4734-0.6323-1.6555-1.0252-3.152
				c-0.2358-1.4201-1.0252-2.0502-2.6784-2.0502h-1.4178V156.5271L99.3866,156.5271z M99.4648,149.1981h1.4178
				c1.6536,0,2.9923-0.552,2.9923-1.8913c0-1.1821-0.868-1.9699-2.757-1.9699c-0.7895,0-1.3392,0.0786-1.6532,0.1572V149.1981
				L99.4648,149.1981z"/>
		</g>
		<g id="Group_2_" transform="translate(183.122072, 63.394984)">
			<g>
				<path id="Shape_4_" fill="#FFFFFF" d="M40.8668,7.4464H2.6085c-1.3043,0-2.1738,0.8721-2.1738,2.1803v86.3379
					c0,1.3082,0.8695,2.1803,2.1738,2.1803h38.2583c29.998,0,49.5619-17.8781,49.5619-45.7853
					C90.4287,25.3245,70.8648,7.4464,40.8668,7.4464 M40.8668,74.5981H27.8242v-43.169h13.0426
					c13.4774,0,21.7377,7.8489,21.7377,21.3665C62.6045,63.6969,55.2137,74.5981,40.8668,74.5981"/>
				<path id="Path_11_" fill="#FFFFFF" d="M260.4173,30.9931c-10.4341,0-19.1292,5.6687-23.0419,11.7734
					c-2.6085-7.8489-9.1298-11.7734-19.1292-11.7734c-10.8688,0-19.1292,5.6687-21.7377,9.1571v-5.2326
					c0-1.3082-0.8695-2.1803-2.1738-2.1803h-19.9987c-1.3043,0-2.1738,0.8721-2.1738,2.1803v61.4831
					c0,1.3082,0.8695,2.1803,2.1738,2.1803h19.9987c1.3043,0,2.1738-0.8721,2.1738-2.1803V58.0282l0,0
					c1.3043-1.7442,4.3475-5.2326,9.9993-5.2326c4.7823,0,7.3908,2.6163,7.3908,7.4129v36.1922
					c0,1.3082,0.8695,2.1803,2.1738,2.1803h19.9987c1.3043,0,2.1738-0.8721,2.1738-2.1803V58.0282
					c1.3043-1.7442,4.3475-5.2326,9.9993-5.2326c4.7823,0,7.3908,2.6163,7.3908,7.4129v36.1922
					c0,1.3082,0.8695,2.1803,2.1738,2.1803h19.9987c1.3043,0,2.1738-0.8721,2.1738-2.1803V50.6154
					C280.8507,37.9699,273.4599,30.9931,260.4173,30.9931"/>
				<path id="Path_12_" fill="#FFFFFF" d="M313.0225,32.7373h-19.9987c-1.3043,0-2.1738,0.8721-2.1738,2.1803v61.4831
					c0,1.3082,0.8695,2.1803,2.1738,2.1803h19.9987c1.3043,0,2.1738-0.8721,2.1738-2.1803V34.9176
					C315.1963,33.6094,314.3268,32.7373,313.0225,32.7373"/>
				<path id="Path_13_" fill="#FFFFFF" d="M303.4579,0.0335c-7.3908,0-13.9121,6.1047-13.9121,13.9536
					c0,7.4129,6.0865,13.9536,13.9121,13.9536c7.3908,0,13.9121-6.1047,13.9121-13.9536
					C317.3701,6.5743,311.2835,0.0335,303.4579,0.0335"/>
				<path id="Path_14_" fill="#FFFFFF" d="M372.5837,30.9931c-12.6078,0-19.5639,5.6687-22.6072,9.1571v-5.2326
					c0-1.3082-0.8695-2.1803-2.1738-2.1803h-19.9987c-1.3043,0-2.1738,0.8721-2.1738,2.1803v61.4831
					c0,1.3082,0.8695,2.1803,2.1738,2.1803h19.9987c1.3043,0,2.1738-0.8721,2.1738-2.1803V58.0282
					c1.739-1.7442,4.3475-5.2326,10.4341-5.2326c6.5213,0,9.5646,3.0523,9.5646,9.5931v34.0119
					c0,1.3082,0.8695,2.1803,2.1738,2.1803h19.9987c1.3043,0,2.1738-0.8721,2.1738-2.1803V51.4875
					C394.7562,38.842,386.4958,30.9931,372.5837,30.9931"/>
				<path id="Shape_5_" fill="#FFFFFF" d="M129.9913,30.5571c-19.1292,0-34.7803,15.6978-34.7803,34.884
					s15.6511,34.884,34.7803,34.884s34.7803-15.6978,34.7803-34.884S149.1204,30.5571,129.9913,30.5571 M129.9913,76.7784
					c-6.5213,0-11.7383-5.2326-11.7383-11.7734c0-6.5407,5.217-11.7733,11.7383-11.7733s11.7383,5.2326,11.7383,11.7733
					C141.7296,71.5458,136.5126,76.7784,129.9913,76.7784"/>
				<path id="Shape_6_" fill="#FFFFFF" d="M436.4925,30.5571c-19.1292,0-34.7803,15.6978-34.7803,34.884
					s15.6511,34.884,34.7803,34.884s34.7803-15.6978,34.7803-34.884S455.6216,30.5571,436.4925,30.5571 M436.4925,76.7784
					c-6.5213,0-11.7383-5.2326-11.7383-11.7734c0-6.5407,5.217-11.7733,11.7383-11.7733s11.7383,5.2326,11.7383,11.7733
					C448.2308,71.5458,443.0138,76.7784,436.4925,76.7784"/>
				<path id="Path_15_" fill="#FFFFFF" d="M490.4019,11.3708L490.4019,11.3708L490.4019,11.3708
					C490.4019,10.9348,490.4019,10.9348,490.4019,11.3708L490.4019,11.3708c-1.739-6.9768-9.1298-12.2094-16.5206-10.4652
					s-12.1731,8.285-10.8688,15.2618c1.3043,5.6687,6.0865,9.5931,12.1731,10.0292c-0.4348,2.1803-2.6085,4.3605-4.3475,5.2326
					c-1.3043,0.4361-0.4348,1.7442-0.4348,1.7442l1.739,2.1802c0.4348,0.8721,1.3043,1.3082,1.739,0.8721
					C489.5324,30.5571,492.1409,17.4755,490.4019,11.3708"/>
				<path id="Path_16_" fill="#FFFFFF" d="M508.2268,52.3596c0-2.6163,3.0433-3.4884,6.956-3.4884
					c7.8256,0,12.6078,2.1803,17.3901,5.6687c0.4348,0.4361,1.3043,0.4361,1.739,0.4361s1.3043-0.4361,1.3043-1.3081l6.5213-11.7734
					c0.4348-0.8721,0.4348-2.6163-0.8695-3.0523c-5.6518-3.4884-13.4774-7.4129-27.8242-7.4129
					c-20.4334,0-31.3022,9.5931-29.1285,23.1107c3.0433,23.9828,40.8668,15.6978,39.9973,23.9828
					c0,1.7442-3.478,3.4884-9.1298,3.4884c-7.3908,0-15.6511-3.9245-21.3029-6.9768c-0.4348-0.4361-1.3043-0.4361-1.739-0.4361
					s-1.3043,0.4361-1.3043,1.3082l-7.8256,13.0815c-0.4348,0.8721-0.4348,2.1802,0.8695,3.0523
					c7.3908,5.2326,19.5639,8.285,29.998,8.285c20.4334,0,32.1718-8.721,32.1718-23.1107
					C546.4851,50.6154,508.2268,58.9003,508.2268,52.3596"/>
			</g>
			<path id="Shape_7_" fill="#FFFFFF" d="M580.8946,44.4047c0,7.357-5.7605,13.1347-13.2548,13.1347
				c-7.4156,0-13.3291-5.7777-13.3291-13.1347c0-7.1992,5.9135-12.9769,13.3291-12.9769
				C575.1341,31.4283,580.8946,37.2055,580.8946,44.4047z M557.6213,44.4047c0,5.7755,4.2623,10.364,10.0972,10.364
				c5.6818,0,9.8615-4.5886,9.8615-10.2851c0-5.7755-4.1797-10.4451-9.9402-10.4451
				C561.8837,34.0389,557.6213,38.7081,557.6213,44.4047z M565.5917,51.2097h-3.0002V38.2328
				c1.1834-0.2368,2.8389-0.3964,4.9701-0.3964c2.4455,0,3.5507,0.3964,4.4984,0.9506c0.7078,0.5542,1.2621,1.5816,1.2621,2.8474
				c0,1.4259-1.1052,2.5317-2.6816,3.007v0.1596c1.2582,0.4731,1.9699,1.4237,2.3629,3.1627
				c0.3973,1.9797,0.633,2.7707,0.9478,3.246h-3.2319c-0.3974-0.4753-0.633-1.6622-1.0265-3.1649
				c-0.2361-1.4259-1.0264-2.0586-2.6815-2.0586h-1.4195V51.2097L565.5917,51.2097z M565.6703,43.8509h1.4195
				c1.6555,0,2.9958-0.5542,2.9958-1.899c0-1.1869-0.869-1.9779-2.7602-1.9779c-0.7904,0-1.3408,0.0789-1.6552,0.1579V43.8509
				L565.6703,43.8509z"/>
		</g>
	</g>
</g>
</svg>
