<svg xmlns="http://www.w3.org/2000/svg" xmlns:xlink="http://www.w3.org/1999/xlink" id="Layer_1" x="0px" y="0px" viewBox="0 0 236 58" style="enable-background:new 0 0 236 58;" xml:space="preserve"><style type="text/css">	.st0{fill:#7D9188;}	.st1{fill:none;}	.st2{fill:none;stroke:#F0A633;stroke-width:1.5;}	.st3{enable-background:new    ;}	.st4{fill:#F0A633;}</style><g>	<path class="st0" d="M23.3,21.5c0-0.2,0-0.4,0-0.6c0.6-0.1,1-0.1,1.2-0.2c0.3-0.1,0.4-0.2,0.5-0.4s0.1-0.5,0.1-0.9V11  c0-0.5,0-0.9-0.1-1.1s-0.2-0.4-0.5-0.4c-0.3-0.1-0.7-0.1-1.2-0.2c0-0.2,0-0.4,0-0.6c0.2,0,0.5,0,0.9,0s0.7,0,1.1,0s0.6,0,0.8,0  c0.2,0,0.5,0,0.8,0s0.7,0,1,0s0.6,0,0.9,0c0,0.2,0,0.4,0,0.6c-0.6,0-0.9,0.1-1.2,0.2c-0.2,0.1-0.4,0.2-0.4,0.4  c-0.1,0.2-0.1,0.5-0.1,0.9v4.4l4.1-4.4c0.5-0.5,0.7-0.8,0.7-1s-0.1-0.3-0.3-0.3c-0.2-0.1-0.6-0.1-1.1-0.2c0-0.2,0-0.4,0-0.6  c0.2,0,0.5,0,0.8,0s0.6,0,0.9,0s0.6,0,0.8,0c0.4,0,0.7,0,1.1,0s0.7,0,1.1,0c0,0.2,0,0.4,0,0.6c-0.4,0-0.7,0.1-0.9,0.1  c-0.2,0.1-0.5,0.2-0.7,0.3s-0.5,0.3-0.7,0.6c-0.3,0.3-0.6,0.6-1,1L29.3,14l3.7,4.9c0.3,0.4,0.5,0.7,0.7,0.9  c0.2,0.2,0.4,0.4,0.6,0.5c0.2,0.1,0.4,0.2,0.6,0.2c0.2,0,0.6,0.1,0.9,0.1c0,0.2,0,0.4,0,0.6c-0.2,0-0.5,0-0.8,0s-0.6,0-0.9,0  s-0.6,0-0.8,0c-0.1,0-0.3,0-0.5,0s-0.4,0-0.6,0l-4.3-5.8l-0.7,0.8V19c0,0.5,0,0.9,0.1,1.1s0.2,0.4,0.5,0.4c0.2,0.1,0.6,0.1,1.2,0.2  c0,0.2,0,0.4,0,0.6c-0.2,0-0.5,0-0.9,0c-0.3,0-0.7,0-1,0s-0.6,0-0.9,0s-0.5,0-0.8,0s-0.7,0-1,0C23.9,21.5,23.6,21.5,23.3,21.5z"></path></g><g>	<path class="st0" d="M22.2,47.5c0-0.2,0-0.4,0-0.6c0.6,0,1-0.1,1.2-0.2c0.2-0.1,0.4-0.2,0.5-0.4s0.1-0.5,0.1-0.9V37  c0-0.5,0-0.9-0.1-1.1s-0.2-0.4-0.5-0.4c-0.3-0.1-0.7-0.1-1.2-0.2c0-0.2,0-0.4,0-0.6c0.2,0,0.5,0,0.9,0s0.7,0,1.1,0s0.6,0,0.8,0  c0.2,0,0.5,0,0.8,0s0.7,0,1,0c0.4,0,0.6,0,0.9,0c0,0.2,0,0.4,0,0.6c-0.6,0-1,0.1-1.2,0.2c-0.3,0.1-0.4,0.2-0.5,0.4c0,0.3,0,0.6,0,1  v3.5h6.5v-3.3c0-0.5,0-0.9-0.1-1.1s-0.2-0.4-0.5-0.4c-0.2-0.1-0.6-0.1-1.2-0.2c0-0.2,0-0.4,0-0.6c0.2,0,0.5,0,0.9,0  c0.3,0,0.7,0,1,0s0.6,0,0.8,0s0.5,0,0.9,0s0.7,0,1,0s0.6,0,0.9,0c0,0.2,0,0.4,0,0.6c-0.6,0-1,0.1-1.2,0.2c-0.3,0.1-0.4,0.2-0.5,0.4  s-0.1,0.5-0.1,0.9v8.4c0,0.5,0,0.8,0.1,1.1c0.1,0.2,0.2,0.4,0.5,0.4c0.2,0.1,0.7,0.1,1.2,0.2c0,0.2,0,0.4,0,0.6c-0.3,0-0.6,0-0.9,0  c-0.3,0-0.7,0-1,0s-0.6,0-0.9,0c-0.2,0-0.5,0-0.8,0s-0.7,0-1,0s-0.6,0-0.9,0c0-0.2,0-0.4,0-0.6c0.6,0,0.9-0.1,1.2-0.2  c0.2-0.1,0.4-0.2,0.5-0.4s0.1-0.5,0.1-0.9v-4.3H26v4c0,0.5,0,0.9,0.1,1.1c0.1,0.2,0.2,0.4,0.5,0.4c0.2,0.1,0.7,0.1,1.2,0.2  c0,0.2,0,0.4,0,0.6c-0.2,0-0.5,0-0.9,0c-0.3,0-0.7,0-1,0s-0.6,0-0.9,0c-0.2,0-0.5,0-0.8,0s-0.7,0-1,0  C22.7,47.5,22.5,47.5,22.2,47.5z"></path></g><g id="Ellipse_62" transform="translate(32 25)">	<circle class="st1" cx="-2.8" cy="4" r="28.5"></circle>	<circle class="st2" cx="-2.8" cy="4" r="27.8"></circle></g><line id="Line_323" class="st2" x1="12.2" y1="29" x2="46.2" y2="29"></line><g class="st3">	<path class="st0" d="M70.3,30.4c0-0.3,0-0.7,0-1.1c1.1-0.1,1.9-0.2,2.3-0.3c0.5-0.1,0.8-0.3,0.9-0.7c0.1-0.3,0.2-0.9,0.2-1.7V10.8  c0-1-0.1-1.6-0.2-2c-0.1-0.4-0.4-0.7-0.9-0.8c-0.5-0.1-1.3-0.2-2.3-0.3c0-0.3,0-0.7,0-1.1c0.5,0,1,0,1.7,0s1.3,0,2,0s1.2,0,1.6,0  s1,0,1.6,0s1.3,0,1.9,0s1.2,0,1.6,0c0.1,0.3,0.1,0.7,0,1.1c-1,0.1-1.8,0.2-2.2,0.3c-0.5,0.1-0.7,0.3-0.9,0.7  c-0.1,0.3-0.2,0.9-0.2,1.7v8.4l7.8-8.3c0.9-0.9,1.3-1.6,1.3-1.9c0-0.3-0.2-0.5-0.6-0.6s-1.1-0.2-2-0.3c0-0.4,0-0.7,0-1.1  c0.4,0,0.9,0,1.5,0s1.2,0,1.8,0c0.6,0,1.1,0,1.4,0c0.7,0,1.4,0,2.1,0s1.4,0,2.1,0c0,0.4,0,0.7,0,1.1C92.1,7.8,91.5,7.9,91,8  c-0.5,0-0.9,0.2-1.4,0.5c-0.4,0.3-0.9,0.7-1.4,1.2s-1.2,1.2-2,2l-5,5.2l7,9.2c0.5,0.7,1,1.3,1.4,1.7c0.4,0.4,0.7,0.7,1.1,1  c0.4,0.2,0.8,0.4,1.2,0.5c0.5,0.1,1.1,0.2,1.8,0.2c0.1,0.4,0.1,0.7,0,1.1c-0.4,0-0.9,0-1.5,0s-1.2,0-1.7,0c-0.6,0-1.1,0-1.5,0  c-0.2,0-0.6,0-1,0s-0.8,0-1.1,0l-8.2-11l-1.4,1.5v5.2c0,1,0.1,1.6,0.2,2.1c0.1,0.4,0.4,0.7,0.9,0.8c0.5,0.1,1.2,0.2,2.2,0.3  c0.1,0.4,0.1,0.7,0,1.1c-0.5,0-1,0-1.6,0s-1.3,0-1.9,0s-1.2,0-1.6,0s-1,0-1.6,0s-1.3,0-1.9,0S70.7,30.4,70.3,30.4z"></path>	<path class="st0" d="M100.8,30.4c0-0.3,0-0.7,0-1.1c1.1-0.1,1.8-0.2,2.3-0.3c0.5-0.1,0.7-0.3,0.9-0.7c0.1-0.4,0.2-0.9,0.2-1.7V10.8  c0-1-0.1-1.6-0.2-2s-0.4-0.7-0.9-0.8c-0.5-0.1-1.2-0.2-2.3-0.3c0-0.3,0-0.7,0-1.1c0.6,0,1.1,0,1.5,0s0.9,0,1.3,0c0.5,0,1,0,1.6,0  s1.4,0,2.4,0c1.8,0,3.5,0,5,0c1.6,0,2.9,0,3.9,0s1.7,0,1.8,0c0.1,0.8,0.2,1.7,0.3,2.6c0.1,0.9,0.3,1.8,0.4,2.8c-0.4,0-0.8,0-1.1,0  c-0.3-0.7-0.6-1.3-1-1.8s-0.7-0.9-1.1-1.2s-0.9-0.6-1.5-0.7s-1.1-0.3-2-0.3h-4.5v9.3h1.9c1.1,0,1.9-0.1,2.5-0.2s1-0.5,1.3-1  s0.5-1.3,0.6-2.4c0.4-0.1,0.8-0.1,1.2,0c0,1,0,1.8-0.1,2.3c0,0.5,0,0.9,0,1.2s0,0.5,0,0.6s0,0.2,0,0.3l0.1,4.5  c-0.3,0.1-0.7,0.1-1.2,0c-0.1-1.2-0.3-2.1-0.6-2.6c-0.3-0.5-0.7-0.8-1.2-1c-0.5-0.1-1.3-0.2-2.3-0.2h-2.2v7.4c0,0.8,0,1.4,0,1.9  s0,0.8,0.1,0.9h4.7c1.1,0,2-0.1,2.7-0.3c0.7-0.2,1.3-0.5,1.7-0.9c0.3-0.2,0.7-0.7,1.1-1.3c0.4-0.6,0.8-1.3,1.2-2.2  c0.4,0,0.7,0,1.1,0c-0.2,1.3-0.4,2.4-0.6,3.4s-0.3,1.9-0.4,2.7c-1,0-2.1,0-3.3,0c-1.2,0-2.4,0-3.6,0s-2.3,0-3.3,0s-1.8,0-2.4,0  c-1.1,0-1.9,0-2.6,0s-1.3,0-1.8,0C102,30.4,101.4,30.4,100.8,30.4z"></path>	<path class="st0" d="M128.7,30.4c0-0.3,0-0.7,0-1.1c1.1-0.1,1.8-0.2,2.3-0.3s0.7-0.3,0.9-0.7c0.1-0.4,0.2-0.9,0.2-1.7V10.8  c0-1-0.1-1.6-0.2-2c-0.1-0.4-0.4-0.7-0.9-0.8c-0.5-0.1-1.2-0.2-2.3-0.3c0-0.3,0-0.7,0-1.1c0.5,0,1,0,1.7,0c0.6,0,1.3,0,1.9,0  c0.6,0,1.2,0,1.6,0c0.4,0,1,0,1.6,0s1.3,0,2,0s1.2,0,1.6,0c0.1,0.3,0.1,0.7,0,1.1c-1.1,0.1-1.8,0.2-2.3,0.3s-0.8,0.3-0.9,0.7  c-0.1,0.3-0.2,0.9-0.2,1.7v15.8c0,0.8,0,1.4,0,1.9s0,0.8,0.1,0.9h4.8c1.9,0,3.3-0.4,4.2-1.3c0.7-0.7,1.5-2,2.3-3.8  c0.4-0.1,0.7-0.1,1.1,0c-0.3,1.4-0.5,2.6-0.7,3.7s-0.3,2-0.4,2.8c-2.2,0-4.4,0-6.6,0s-4.4,0-6.6,0c-0.4,0-1,0-1.6,0s-1.3,0-2,0  C129.7,30.4,129.1,30.4,128.7,30.4z"></path>	<path class="st0" d="M155.7,30.4c0-0.3,0-0.7,0-1.1c1.1-0.1,1.8-0.2,2.3-0.3c0.5-0.1,0.7-0.3,0.8-0.7s0.2-0.9,0.2-1.7V10.8  c0-1-0.1-1.6-0.2-2s-0.4-0.7-0.9-0.8c-0.5-0.1-1.2-0.2-2.3-0.3c0-0.3,0-0.7,0-1.1c0.5,0,1,0,1.7,0c0.6,0,1.3,0,1.9,0  c0.6,0,1.2,0,1.6,0c0.4,0,1,0,1.6,0s1.3,0,2,0s1.2,0,1.6,0c0.1,0.3,0.1,0.7,0,1.1c-1.1,0.1-1.8,0.2-2.3,0.3s-0.8,0.3-0.9,0.7  s-0.2,0.9-0.2,1.7v15.8c0,0.8,0,1.4,0,1.9s0,0.8,0.1,0.9h4.8c1.9,0,3.3-0.4,4.2-1.3c0.7-0.7,1.5-2,2.3-3.8c0.4-0.1,0.7-0.1,1.1,0  c-0.3,1.4-0.5,2.6-0.7,3.7s-0.3,2-0.4,2.8c-2.2,0-4.4,0-6.6,0c-2.2,0-4.4,0-6.6,0c-0.4,0-1,0-1.6,0s-1.3,0-2,0  S156.1,30.4,155.7,30.4z"></path>	<path class="st0" d="M182.7,30.4c0-0.3,0-0.7,0-1.1c1.1-0.1,1.8-0.2,2.3-0.3c0.5-0.1,0.7-0.3,0.8-0.7s0.2-0.9,0.2-1.7V10.8  c0-1-0.1-1.6-0.2-2s-0.4-0.7-0.9-0.8c-0.5-0.1-1.2-0.2-2.3-0.3c0-0.3,0-0.7,0-1.1c0.6,0,1.1,0,1.5,0s0.9,0,1.3,0c0.5,0,1,0,1.6,0  s1.4,0,2.4,0c1.8,0,3.5,0,5,0c1.6,0,2.9,0,3.9,0s1.7,0,1.8,0c0.1,0.8,0.2,1.7,0.3,2.6s0.3,1.8,0.4,2.8c-0.4,0-0.8,0-1.1,0  c-0.3-0.7-0.6-1.3-1-1.8S198,9.3,197.6,9s-0.9-0.6-1.5-0.7S195,8,194.1,8h-4.5v9.3h1.9c1.1,0,1.9-0.1,2.5-0.2s1-0.5,1.3-1  s0.5-1.3,0.6-2.4c0.4-0.1,0.8-0.1,1.2,0c0,1,0,1.8-0.1,2.3c0,0.5,0,0.9,0,1.2s0,0.5,0,0.6s0,0.2,0,0.3l0.1,4.5  c-0.3,0.1-0.7,0.1-1.2,0c-0.1-1.2-0.3-2.1-0.6-2.6s-0.7-0.8-1.2-1c-0.5-0.1-1.3-0.2-2.3-0.2h-2.2v7.4c0,0.8,0,1.4,0,1.9  s0,0.8,0.1,0.9h4.7c1.1,0,2-0.1,2.7-0.3s1.3-0.5,1.7-0.9c0.3-0.2,0.7-0.7,1.1-1.3s0.8-1.3,1.2-2.2c0.4,0,0.7,0,1.1,0  c-0.2,1.3-0.4,2.4-0.6,3.4c-0.2,1-0.3,1.9-0.4,2.7c-1,0-2.1,0-3.3,0s-2.4,0-3.6,0c-1.2,0-2.3,0-3.3,0s-1.8,0-2.4,0  c-1.1,0-1.9,0-2.6,0c-0.7,0-1.3,0-1.8,0C183.8,30.4,183.3,30.4,182.7,30.4z"></path>	<path class="st0" d="M230.5,30.6l-15.1-19.9v14.6c0,0.9,0,1.5,0.1,2c0,0.5,0.2,0.8,0.4,1.1c0.2,0.2,0.6,0.4,1.1,0.6s1.2,0.3,2,0.4  c0,0.4,0,0.7,0,1.1c-0.7,0-1.4,0-2.3,0s-1.5,0-2.1,0s-1.3,0-2.1,0s-1.6,0-2.2,0c-0.1-0.3-0.1-0.7,0-1.1c0.8-0.1,1.5-0.2,1.9-0.3  s0.8-0.3,1-0.5s0.3-0.5,0.4-1c0.1-0.4,0.1-1,0.1-1.8v-14c0-0.9,0-1.6-0.1-2.1s-0.2-0.9-0.4-1.2s-0.6-0.5-1.1-0.6s-1.2-0.2-2-0.3  c0-0.3,0-0.7,0-1.1c0.7,0,1.5,0,2.2,0c0.8,0,1.6,0,2.4,0c0.1,0,0.4,0,0.9,0s1,0,1.3,0l13.8,18.2v-13c0-0.9,0-1.5-0.1-2  c0-0.5-0.2-0.8-0.4-1.1c-0.5-0.5-1.6-0.8-3.4-1c-0.1-0.4-0.1-0.7,0-1.1c0.4,0,0.9,0,1.5,0s1.2,0,1.8,0s1,0,1.4,0c0.6,0,1.3,0,2.1,0  s1.6,0,2.2,0c0,0.3,0,0.7,0,1.1c-1.1,0.1-1.9,0.3-2.3,0.5c-0.5,0.2-0.8,0.5-0.9,0.9c-0.1,0.5-0.2,1.2-0.2,2.2v19.2  c-0.2,0-0.5,0.1-0.9,0.1C231.2,30.6,230.8,30.6,230.5,30.6z"></path></g><g class="st3">	<path class="st4" d="M117.9,41.8v4.8h6.1v-4.8h2.2v11.6H124v-4.9h-6.1v4.9h-2.2V41.8H117.9z"></path>	<path class="st4" d="M145.1,47.6c0,3.2-2.3,6-6.4,6c-3.9,0-6.3-2.8-6.3-5.9c0-2.9,2.1-6,6.3-6C142.6,41.7,145.1,44.3,145.1,47.6z   M134.8,47.6c0,2.3,1.8,3.9,4,3.9c2.3,0,4.1-1.4,4.1-3.9c0-1.9-1.4-3.9-4-3.9C136.3,43.7,134.8,45.4,134.8,47.6z"></path>	<path class="st4" d="M153.5,41.8l3.8,4.6l3.7-4.6h2.1v11.6h-2.2v-8.3l-3.4,4.3h-0.3l-3.5-4.3v8.3h-2.2V41.8H153.5z"></path>	<path class="st4" d="M177,41.8v1.8h-5v3.1h4.8v1.8H172v3.2h5.1v1.8h-7.4V41.8H177z"></path>	<path class="st4" d="M189.8,42.5v2.2c-0.9-0.8-1.9-1.2-2.9-1.2s-1.5,0.5-1.5,1.2c0,0.6,0.2,1.1,1.8,2c2.2,1.2,3.1,2,3.1,3.8  c0,1.9-1.5,3.2-3.7,3.2c-1.2,0-2.4-0.4-3.4-1v-2.3c1,1,2.1,1.6,3.2,1.6c1,0,1.6-0.6,1.6-1.3s-0.2-1.2-2.3-2.3  c-1.5-0.8-2.6-1.8-2.6-3.5s1.4-3,3.7-3C187.9,41.7,188.9,42,189.8,42.5z"></path></g></svg>