<svg xmlns="http://www.w3.org/2000/svg" id="Layer_1" data-name="Layer 1" viewBox="0 0 2267.72 540.18"><defs><style>.cls-1{fill:#faea30;}.cls-2{fill:#b35926;}.cls-3{fill:#439c30;}.cls-4{fill:#ffed00;}.cls-5{fill:#157bc0;}</style></defs><path class="cls-1" d="M756,233.32h12.61a27.41,27.41,0,0,1-8.43,16.28q-6.78,6.21-17.65,6.21-12.62,0-20.17-8.23t-7.56-23.76q0-14.83,7.52-23.4t20.42-8.59q10.69,0,17.6,5.74t8.27,16.08H756q-1.65-5.84-4.71-8.31a12.59,12.59,0,0,0-8.26-2.52,13.21,13.21,0,0,0-11.33,5.66q-4.1,5.63-4.09,15.67,0,9.14,3.76,14.92t11.2,5.74a14.86,14.86,0,0,0,8.06-2.31c2.45-1.54,4.25-4.6,5.37-9.18"></path><path class="cls-1" d="M778.71,223.82q1.44-9.39,6.32-12.53t13.35-3.18q8.55,0,13.51,3.22t5,9.67v24.14q0,6.24,2.61,7.28v1.82h-13a23.77,23.77,0,0,1-1.12-5.09v-.37a17.79,17.79,0,0,1-14.17,6.61,15.1,15.1,0,0,1-10-3.31q-4-3.35-4-9.83,0-12.31,13-14.22l10.62-1.61c2.76-.42,4.13-1.67,4.13-3.76q0-5.13-7.23-5.13-4,0-5.58,1.58a7.91,7.91,0,0,0-2,4.71ZM805,232.45a10.8,10.8,0,0,1-3.51,1.49,40.49,40.49,0,0,1-4.46.95,13.94,13.94,0,0,0-5.79,1.94,5.12,5.12,0,0,0-2.15,4.63,5,5,0,0,0,1.57,4.13,6.45,6.45,0,0,0,4.22,1.29,10.6,10.6,0,0,0,7.11-2.56,7.83,7.83,0,0,0,3-6.16Z"></path><path class="cls-1" d="M830,254.23v-45H841.3v8.14q2.52-5.13,5.41-7.19a12,12,0,0,1,7.28-2.11c.39,0,1.19,0,2.4.13v12q-1.78-.12-3.06-.12-11.49,0-11.49,10.66v23.43Z"></path><rect class="cls-1" x="866.16" y="193.4" width="11.86" height="60.84"></rect><path class="cls-1" d="M914.48,254.24,936.3,193.4h14.59l21.82,60.84h-13.8L955,241.54H932.17l-4.3,12.7Zm21.2-23.36h15.54l-7.64-23.68Z"></path><path class="cls-1" d="M991.09,239.52q.24,6.82,10,6.82a14.13,14.13,0,0,0,5.17-1,3.66,3.66,0,0,0,2.64-3.6q0-2.52-3.84-3.55a93.06,93.06,0,0,0-9.3-1.91q-7.86-1.35-11.57-4.54a10.86,10.86,0,0,1-3.72-8.64,13.59,13.59,0,0,1,4.75-10.78q4.75-4.18,14.59-4.18,8.26,0,13.51,3.43t6.16,11.78h-11.65q-.71-3.67-2.77-4.92a10.65,10.65,0,0,0-5.54-1.24c-4.8,0-7.19,1.39-7.19,4.18,0,1.48,1.14,2.63,3.43,3.43a50.51,50.51,0,0,0,8.22,1.9q9.09,1.41,12.94,4.75a11.11,11.11,0,0,1,3.84,8.8,13.58,13.58,0,0,1-5.12,10.92q-5.13,4.25-15.21,4.25-9.39,0-15.29-3.84t-6.33-12Z"></path><path class="cls-1" d="M1031.86,193.4h11.86v22q4-7.27,13.52-7.28a15.73,15.73,0,0,1,11.19,4q4.39,4.05,4.39,10.91v31.16H1061V227q0-8.9-7.6-8.89a9.24,9.24,0,0,0-7.07,2.73c-1.71,1.82-2.56,4.39-2.56,7.73v25.7h-11.86Z"></path><rect class="cls-1" x="1086.64" y="193.4" width="11.86" height="60.84"></rect><path class="cls-1" d="M1120.84,235q.59,5.84,3.14,8.4t7.24,2.56q6.1,0,7.93-5.13h12.24q-2.73,7.74-7.77,11.16T1131,255.39q-10.5,0-16.28-6.07T1109,231.59q0-10.71,5.62-17.07t15.87-6.41q21.45,0,21.45,25.46V235Zm.38-7.72h18.47q-1.32-9.1-9.38-9.09a8.18,8.18,0,0,0-6.2,2.27A12.68,12.68,0,0,0,1121.22,227.29Z"></path><path class="cls-1" d="M1164,272.13v-9.42a18.57,18.57,0,0,0,2.28.12q4.5,0,5.7-1.78a14.43,14.43,0,0,0,1.94-5.29l-16.53-46.49h13.14l9.8,33.23,9.42-33.23h12.61l-17.86,49.93q-3.06,8.55-6.16,10.82c-2,1.49-5.13,2.23-9.3,2.23q-3,0-5-.12"></path><polygon class="cls-1" points="1268.28 348.75 1268.28 287.92 1313.29 287.92 1313.29 298.58 1280.89 298.58 1280.89 311.47 1310.73 311.47 1310.73 322.14 1280.89 322.14 1280.89 338.09 1314.65 338.09 1314.65 348.75 1268.28 348.75"></polygon><rect class="cls-1" x="1326.87" y="287.92" width="11.86" height="60.84"></rect><path class="cls-1" d="M1361.07,329.53c.39,3.89,1.43,6.69,3.14,8.4a9.81,9.81,0,0,0,7.23,2.56q6.12,0,7.94-5.13h12.23q-2.73,7.74-7.77,11.16t-12.6,3.39q-10.5,0-16.29-6.08t-5.74-17.73q0-10.69,5.62-17.07t15.87-6.4q21.45,0,21.45,25.46v1.44Zm.37-7.72h18.48q-1.34-9.1-9.39-9.1a8.23,8.23,0,0,0-6.2,2.27A12.83,12.83,0,0,0,1361.44,321.81Z"></path><path class="cls-1" d="M1429,332.06h12.23q-1.32,8.51-6.49,13.18t-14.17,4.67q-9.39,0-15-5.7T1399.94,327q0-11,5.33-17.65t16-6.74a21.53,21.53,0,0,1,13.43,4.13q5.44,4.1,6.57,13.06H1429a11,11,0,0,0-2.36-5,6.18,6.18,0,0,0-5.08-2.07q-9.43,0-9.43,14.09,0,13.27,8.85,13.27a7.8,7.8,0,0,0,5.66-2.31,7.67,7.67,0,0,0,2.36-5.7"></path><path class="cls-1" d="M1447.49,312.18v-8.39h6.12V291.88h11.86v11.91h7.28v8.39h-7.28v24.59c0,1.65.32,2.67,1,3.06a9.47,9.47,0,0,0,4.09.58c.72,0,1.5-.05,2.36-.13v9.05c-2.29.08-4.27.13-5.95.13q-7.93,0-10.62-2.2c-1.8-1.45-2.69-4-2.69-7.56V312.18Z"></path><path class="cls-1" d="M1483,348.75v-45h11.32v8.14q2.52-5.13,5.41-7.19a12,12,0,0,1,7.28-2.11c.38,0,1.18,0,2.39.12v12c-1.18-.08-2.2-.13-3.06-.13q-11.47,0-11.48,10.67v23.43Z"></path><path class="cls-1" d="M1519.2,287.5h11.86v11H1519.2Zm0,16.29h11.86v45H1519.2Z"></path><path class="cls-1" d="M1571.59,332.06h12.23q-1.32,8.51-6.49,13.18t-14.17,4.67q-9.39,0-15.05-5.7T1542.49,327q0-11,5.33-17.65t16-6.74a21.53,21.53,0,0,1,13.43,4.13q5.46,4.1,6.57,13.06h-12.23a11,11,0,0,0-2.36-5,6.18,6.18,0,0,0-5.08-2.07q-9.42,0-9.43,14.09,0,13.27,8.85,13.27a7.8,7.8,0,0,0,5.66-2.31,7.67,7.67,0,0,0,2.36-5.7"></path><path class="cls-1" d="M1593.18,318.33q1.46-9.37,6.33-12.52t13.35-3.18q8.55,0,13.51,3.22t5,9.68v24.13q0,6.24,2.61,7.27v1.82h-13a23.54,23.54,0,0,1-1.12-5.08v-.37a17.81,17.81,0,0,1-14.17,6.61,15.14,15.14,0,0,1-10-3.31q-4-3.35-4-9.83,0-12.31,13-14.22l10.63-1.61c2.76-.42,4.13-1.67,4.13-3.76q0-5.13-7.23-5.13-4,0-5.58,1.57a8,8,0,0,0-2,4.71Zm26.29,8.64a10.8,10.8,0,0,1-3.51,1.49,40.17,40.17,0,0,1-4.47,1,13.89,13.89,0,0,0-5.78,1.94,5.1,5.1,0,0,0-2.15,4.63,5,5,0,0,0,1.57,4.13,6.45,6.45,0,0,0,4.22,1.29,10.51,10.51,0,0,0,7.1-2.57,7.83,7.83,0,0,0,3-6.16Z"></path><rect class="cls-1" x="1644.99" y="287.92" width="11.86" height="60.84"></rect><path class="cls-1" d="M1707.07,329.82q.54,10,13.06,10,12.07,0,12.07-7.72,0-4.92-8.47-7l-14.92-3.8c-4.57-1.1-7.94-3-10.08-5.58s-3.23-6.1-3.23-10.46a17.36,17.36,0,0,1,6-13.64q6-5.28,17.31-5.28,10.43,0,16.7,5.08t6.94,14.75h-12.23q-1.37-9.33-12.15-9.34a14.37,14.37,0,0,0-7.86,1.9,6,6,0,0,0-2.89,5.21,5.69,5.69,0,0,0,1.49,4,9.88,9.88,0,0,0,4.88,2.44l14.79,3.64q9.13,2.19,12.53,6.15a15.36,15.36,0,0,1,3.43,10.38,18.11,18.11,0,0,1-6.29,14.3q-6.24,5.46-18.14,5.45-11.12,0-18.14-5.2t-7-15.3Z"></path><path class="cls-1" d="M1764.58,329.53q.59,5.84,3.14,8.4c1.71,1.7,4.12,2.56,7.24,2.56q6.11,0,7.93-5.13h12.24q-2.73,7.74-7.77,11.16t-12.61,3.39q-10.5,0-16.28-6.08t-5.75-17.73q0-10.69,5.62-17.07t15.87-6.4q21.46,0,21.45,25.46v1.44Zm.37-7.72h18.48q-1.32-9.1-9.38-9.1a8.22,8.22,0,0,0-6.2,2.27A12.83,12.83,0,0,0,1765,321.81Z"></path><path class="cls-1" d="M1805.85,348.75v-45h11.33v8.14q2.52-5.13,5.41-7.19a12,12,0,0,1,7.28-2.11c.38,0,1.18,0,2.39.12v12c-1.18-.08-2.2-.13-3-.13q-11.49,0-11.5,10.67v23.43Z"></path><polygon class="cls-1" points="1859.81 337.18 1869.65 303.79 1882.25 303.79 1865.72 348.75 1853.32 348.75 1837.45 303.79 1850.6 303.79 1859.81 337.18"></polygon><path class="cls-1" d="M1891.82,287.5h11.86v11h-11.86Zm0,16.29h11.86v45h-11.86Z"></path><path class="cls-1" d="M1944.21,332.06h12.23q-1.32,8.51-6.49,13.18t-14.17,4.67q-9.39,0-15-5.7T1915.11,327q0-11,5.33-17.65t16-6.74a21.53,21.53,0,0,1,13.43,4.13q5.46,4.1,6.57,13.06h-12.23a11,11,0,0,0-2.36-5,6.18,6.18,0,0,0-5.08-2.07q-9.42,0-9.43,14.09,0,13.27,8.85,13.27a7.78,7.78,0,0,0,5.66-2.31,7.67,7.67,0,0,0,2.36-5.7"></path><path class="cls-1" d="M1975.81,329.53q.57,5.84,3.14,8.4a9.81,9.81,0,0,0,7.23,2.56q6.12,0,7.94-5.13h12.23q-2.73,7.74-7.77,11.16T1986,349.91q-10.48,0-16.28-6.08T1964,326.1q0-10.69,5.62-17.07t15.87-6.4q21.45,0,21.45,25.46v1.44Zm.37-7.72h18.48q-1.34-9.1-9.39-9.1a8.23,8.23,0,0,0-6.2,2.27A12.83,12.83,0,0,0,1976.18,321.81Z"></path><path class="cls-1" d="M2026.25,334c.17,4.55,3.51,6.82,10,6.82a14.12,14.12,0,0,0,5.16-1,3.66,3.66,0,0,0,2.64-3.6q0-2.52-3.84-3.56c-2.56-.68-5.66-1.32-9.3-1.9q-7.85-1.36-11.57-4.54a10.86,10.86,0,0,1-3.72-8.64,13.61,13.61,0,0,1,4.76-10.79q4.74-4.17,14.58-4.17,8.27,0,13.52,3.43t6.16,11.78H2043c-.47-2.45-1.39-4.1-2.77-4.92a10.55,10.55,0,0,0-5.54-1.24q-7.18,0-7.19,4.17,0,2.23,3.43,3.43a49.62,49.62,0,0,0,8.23,1.9q9.09,1.41,12.93,4.76a11.08,11.08,0,0,1,3.85,8.8,13.54,13.54,0,0,1-5.13,10.91q-5.13,4.26-15.21,4.26-9.37,0-15.29-3.84T2014,334Z"></path><polygon class="cls-1" points="2094.2 287.92 2106.81 287.92 2106.81 338.09 2137.22 338.09 2137.22 348.75 2094.2 348.75 2094.2 287.92"></polygon><path class="cls-1" d="M2142.86,312.18v-8.39H2149V291.88h11.86v11.91h7.28v8.39h-7.28v24.59c0,1.65.32,2.67.95,3.06a9.49,9.49,0,0,0,4.1.58c.71,0,1.5-.05,2.35-.13v9.05c-2.29.08-4.27.13-5.95.13q-7.93,0-10.62-2.2c-1.8-1.45-2.69-4-2.69-7.56V312.18Z"></path><path class="cls-1" d="M2207.74,309.9v-22h11.86v60.83h-11.33v-6.11a15.11,15.11,0,0,1-13.47,7.27,16.73,16.73,0,0,1-13.6-6.36q-5.2-6.37-5.21-17.65,0-10.26,5-16.74a16.52,16.52,0,0,1,13.81-6.53q8.22,0,12.9,7.27m-19.51,16.29q0,6.48,2.56,10.21a8.36,8.36,0,0,0,7.23,3.67,9.24,9.24,0,0,0,7.4-3.3c1.9-2.21,2.85-5.59,2.85-10.17q0-6.33-2.48-10.08a8.32,8.32,0,0,0-7.48-3.81,8.9,8.9,0,0,0-7.36,3.43Q2188.23,319.58,2188.23,326.19Z"></path><path class="cls-2" d="M1259.61,380.8c-4.95,13.64-10.71,28.28-17.24,43.08-6.26,14.23-12.61,27.1-18.94,38.54q-4.54,8.19-9.06,15.38c-18.5,29.45-36.54,46-51.91,46.71-10.58.51-41.84-12.5-100.27-143.71h-17.12q1.1,2.51,2.2,5c19.94,44.92,38.75,80.61,55.9,106.07,21.89,32.49,41.09,48.32,58.64,48.32l1.41,0c21.55-1.06,42-20.47,60.19-47.63,3.11-4.65,6.14-9.53,9.1-14.57,17.59-30,32.52-66,43.48-97.15Z"></path><path class="cls-1" d="M1211,477.73c3,5,6.09,9.76,9.14,14.21,21.48,31.31,43.12,47.78,66.32,46.48,19.58-1.11,38.64-19.91,55.6-45.19,3.13-4.66,6.18-9.53,9.15-14.56,18.9-32,34.49-70,44.2-96.18h-16.72c-10.33,27-23.24,56.22-37,80.95-3,5.38-6,10.55-9.1,15.44-15.85,25.28-32.33,43.08-47,43.91-18.82,1.08-38-17.14-56.24-45.2q-4.63-7.11-9.2-15c-13.5-23.36-26.4-51.39-38.26-80.07H1165.2c15.59,38.2,30.68,70.32,45.76,95.24"></path><path class="cls-3" d="M1211,477.73c3,5,6.09,9.76,9.14,14.21,21.48,31.31,43.12,47.78,66.32,46.48,19.58-1.11,38.64-19.91,55.6-45.19,3.13-4.66,6.18-9.53,9.15-14.56,18.9-32,34.49-70,44.2-96.18h-16.72c-10.33,27-23.24,56.22-37,80.95-3,5.38-6,10.55-9.1,15.44-15.85,25.28-32.33,43.08-47,43.91-18.82,1.08-38-17.14-56.24-45.2q-4.63-7.11-9.2-15c-13.5-23.36-26.4-51.39-38.26-80.07H1165.2c15.59,38.2,30.68,70.32,45.76,95.24"></path><path class="cls-4" d="M1341.63,463.43c-3,5.38-6,10.56-9.1,15.45-15.85,25.28-32.34,43.08-47,43.91-18.82,1.08-37.94-17.14-56.24-45.2-3.09-4.74-6.16-9.77-9.21-15-13.49-23.36-26.39-51.39-38.25-80.07h-12.92c14.27,34.27,28.17,63.38,42,86.32,3,5,6.09,9.75,9.14,14.2,21.48,31.31,43.13,50.61,66.32,49.3,19.57-1.11,38.64-22.72,55.6-48,3.13-4.66,6.18-9.53,9.16-14.56,16.85-28.52,31-61.83,40.81-87.26h-13.34c-10.33,27-23.24,56.23-37,80.94"></path><path class="cls-5" d="M1504.34,383.15l-1.88,5.13c-13.68,37.24-57.85,133.89-97.47,133.89-16.63,0-34.46-18.1-51-43.48-3.18-4.89-6.32-10.06-9.39-15.41-14.42-25.12-27.38-54.49-37-80.13h-16.24c10.08,27.66,25.54,65.27,44.56,96.49,3,5,6.13,9.77,9.33,14.35,17.79,25.44,38.13,43.84,59.78,43.84,53.25,0,99.34-110.77,110.23-139h752.5V383.15Z"></path><path class="cls-2" d="M763.37,157l1.89-5.12C778.94,114.65,823.11,18,862.73,18c16.62,0,34.46,18.1,51,43.49,3.19,4.89,6.33,10.05,9.4,15.41,14.41,25.12,27.38,54.49,37,80.12H976.4c-10.09-27.66-25.54-65.26-44.56-96.48-3-5-6.14-9.77-9.34-14.35C904.72,20.74,884.38,2.35,862.73,2.35c-53.26,0-99.35,110.77-110.23,139H0V157Z"></path><path class="cls-1" d="M1056.76,62.44c-3-5-6.1-9.75-9.15-14.2C1026.13,16.93,1004.49.45,981.3,1.76c-19.58,1.11-38.65,19.9-55.61,45.18-3.12,4.66-6.18,9.53-9.15,14.57-18.9,32-34.48,70-44.19,96.17h16.72c10.32-27,23.24-56.22,37-80.94,3-5.38,6-10.56,9.1-15.45,15.85-25.27,32.33-43.07,47-43.9,18.82-1.08,37.94,17.14,56.23,45.19q4.65,7.13,9.21,15c13.5,23.36,26.4,51.38,38.26,80.06h16.62c-15.58-38.2-30.67-70.31-45.75-95.24"></path><path class="cls-3" d="M1056.76,62.44c-3-5-6.1-9.75-9.15-14.2C1026.13,16.93,1004.49.45,981.3,1.76c-19.58,1.11-38.65,19.9-55.61,45.18-3.12,4.66-6.18,9.53-9.15,14.57-18.9,32-34.48,70-44.19,96.17h16.72c10.32-27,23.24-56.22,37-80.94,3-5.38,6-10.56,9.1-15.45,15.85-25.27,32.33-43.07,47-43.9,18.82-1.08,37.94,17.14,56.23,45.19q4.65,7.13,9.21,15c13.5,23.36,26.4,51.38,38.26,80.06h16.62c-15.58-38.2-30.67-70.31-45.75-95.24"></path><path class="cls-4" d="M926.09,76.74c3-5.38,6-10.56,9.1-15.45,15.85-25.28,32.33-43.07,47-43.9,18.82-1.08,37.94,17.14,56.23,45.19q4.65,7.13,9.21,15c13.49,23.37,26.4,51.4,38.26,80.07h12.92c-14.28-34.26-28.17-63.37-42-86.31-3-5-6.1-9.76-9.15-14.21-21.47-31.31-43.12-50.6-66.31-49.29-19.58,1.1-38.65,22.72-55.61,48-3.12,4.65-6.18,9.53-9.15,14.56-16.85,28.51-31,61.83-40.82,87.25h13.35c10.32-27,23.23-56.22,37-80.94"></path><path class="cls-5" d="M1008.11,159.37c4.94-13.63,10.71-28.28,17.23-43.07,6.27-14.23,12.62-27.1,19-38.54q4.53-8.2,9.06-15.39c18.5-29.45,36.54-45.95,51.91-46.7,10.58-.52,41.84,12.49,100.26,143.7h17.13q-1.1-2.49-2.2-5c-19.94-44.93-38.75-80.61-55.9-106.07C1142.66,15.82,1123.46,0,1105.91,0c-.48,0-1,0-1.42,0-21.54,1.05-42,20.47-60.19,47.63-3.1,4.65-6.13,9.53-9.1,14.57-17.58,30-32.52,66-43.47,97.14Z"></path></svg>