<?xml version="1.0" standalone="yes"?>
<svg xmlns="http://www.w3.org/2000/svg" width="500" height="276">
<path style="fill:#ad3047; stroke:none;" d="M5 3L5.02778 4.5L5.25 6.05554L5.47222 7L6.25 9L6.77778 10L7.22222 11L7.77778 12L8.22222 13L8.75 14L9.61111 16L10.3889 18L11.25 20L11.7778 21L12.2222 22L12.7778 23L13.25 24L13.8333 25L14.3889 26L15.0278 27L16.3333 29L17 30L18.4167 32L19.1944 33L20.8056 35L21.6111 36L22.3889 37L24.0833 39L25.0278 40L27 42L28 43L30 45L32 46.9722L33 47.9167L35 49.6111L36 50.3889L38 52.0556L39 52.9444L41 54.6111L43 56.1389L44 56.8611L45 57.6389L46 58.3611L48 59.8611L49 60.6111L50 61.3056L51 62L53 63.3333L55 64.6667L56 65.3333L58 66.6111L59 67.1944L61 68.3889L63 69.6111L65 70.8056L66 71.3889L68 72.6111L69 73.1667L70 73.75L71 74.2222L73 75.2222L74 75.7778L75 76.2222L76 76.7778L77 77.2222L78 77.7778L79 78.2222L81 79.2222L82 79.75L83 80.1667L84 80.6111L86 81.3889L88 82.1944L89 82.6111L91 83.3333L92 83.6667L94 84.3333L99 86L101 86.6667L102 87L104 87.6667L105 88.0278L106 88.3889L108 89.1944L109 89.6111L110 89.9722L112 90.6667L113 91L116 92L117 92.3333L118 92.6667L120 93.3889L122 94.25L123 94.7778L125 95.75L126 96.1667L127 96.6111L128 97L130 97.8889L132 99L133 99.6111L135 100.75L136 101.25L138 102.389L140 103.667L141 104.306L142 104.889L142.944 105.361L144.5 105.889L146 106L145.722 104.5L145.139 102.944L144.75 102L144.222 101L143.75 100L142.611 98L141.972 97L140.667 95L140 94L138.583 92L136.944 90L136.056 89.0278L134.389 87.2222L133.611 86.3889L131.917 84.8611L130.972 84.1667L130 83.4444L128 82.2778L126 81.3889L124 80.6111L122 79.75L121 79.25L119 78.3889L117 77.6111L115 76.8056L114 76.3889L113 76.0278L111 75.3333L110 75L107 74L96 70.3333L92 69L90 68.3333L88 67.6111L87 67.1944L85 66.3889L83 65.6111L81 64.75L80 64.2222L78 63.25L77 62.8333L76 62.3889L74 61.6111L72 60.75L71 60.2222L70 59.7778L69 59.2222L68 58.75L66 57.6111L64 56.3889L63 55.8333L62 55.25L61 54.7778L60 54.2222L59 53.75L57 52.6111L56 51.9722L55 51.3333L54 50.6667L52 49.3889L51 48.8056L49 47.6111L47 46.3056L45 44.8611L44 44.1389L43 43.3611L41 41.8611L40 41.1389L39 40.3611L38 39.6389L37 38.8611L35 37.3611L33 35.7778L32 34.9167L30 33L29 32L28 31L25 28L22 25L21 24L19.0278 22L18.0833 21L16.3889 19L15.6389 18L14.8611 17L14.1389 16L12.6389 14L11.8611 13L11.1667 12L10.4444 11L9.83333 10L9.19444 9L8.61111 8L7.38889 6.02777L6.86111 5.11111L6.25 4.30554L6 3.77777L5 3z"/>
<path style="fill:#e11b3d; stroke:none;" d="M93 19L92.9722 20.5L92.7778 22.0556L92.3889 24L92.0833 26L92.0278 27L92 29L92 31L92 33L92 34L92.0833 36L92.3889 38L92.6389 39L92.8611 40L93.3889 42L93.6944 43L94.3333 45L94.6667 46L95.4167 48L95.8889 49L96.4167 50L97.6667 52L98.3333 53L99 54L100.417 56L101.194 57L102.806 59L104.389 61L105.222 62L106.083 63L108 65L109 66L111 67.9722L112 68.9167L114 70.6111L115 71.3889L117 73.0833L119 75L121 76.9167L123 78.6111L125 80.1944L127 81.8056L128 82.6111L130 84.1389L130.972 84.8611L132.778 86.3889L134.389 88.0833L136.056 90L136.944 91L138.583 93L139.306 94L140.667 96L141.333 97L142.611 99L143.75 100.972L144.25 101.889L144.806 102.667L145.778 103.639L147 104L146.75 102.5L146.361 100.944L146.139 100L145.861 99L145.306 97L144.611 95L144.194 94L143.389 92L142.611 90L141.75 88L141.222 87L140.75 86L140.167 85L139.611 84L138.972 83L138.333 82L137 80L135.667 78L135 77L133.583 75L132.778 74L131.056 72L130.222 71L128.611 69L126.917 67L125.972 66L124 64L123 63L121 61.0278L120 60.0833L118 58.3889L117 57.6111L115 55.9167L113 54L111.028 52L110.083 51L108.389 49L106.806 47L105.194 45L104.417 44L103.028 42L102.389 41L101.25 39L100.778 38L99.7778 36L99.25 35L98.3889 33L98.0278 32L97.3333 30L96.6944 28L96.3889 27L96.1389 26L95.8611 25L95.3889 23L95.0833 21.0556L95 19L93 19M2 22L2.25 23.5L2.38889 24.0556L2.80556 26L3.19444 28L3.41667 29L4.02778 31L4.38889 32L5.25 34L5.77778 35L6.22222 36L6.77778 37L7.25 38L8.44444 40L9.16667 41L9.86111 42L11.3889 44L13 46L14.6111 48L15.3889 49L17.0833 51L18.0278 52L20 54L22 55.9722L23 56.9167L25 58.6111L26 59.3889L28 61.0833L29 62L31 63.7778L32 64.6111L34 66.1944L36 67.8056L37 68.6111L38 69.3611L39 70.1389L41 71.6111L42 72.3056L44 73.6944L45 74.3889L46 75.1389L48 76.6111L49 77.3056L50 78L52 79.3333L54 80.6111L56 81.8056L57 82.3889L59 83.6667L60 84.3333L62 85.6111L63 86.1944L65 87.3889L67 88.6111L68 89.1667L69 89.75L70 90.2222L72 91.2222L73 91.7778L74 92.2222L75 92.7778L76 93.2222L77 93.7778L78 94.2222L79 94.7778L80 95.2222L81 95.7778L82 96.2222L83 96.7778L85 97.7778L86 98.2222L87 98.7778L88 99.2222L89 99.7778L91 100.778L92 101.222L93 101.778L94 102.222L95 102.778L96 103.25L98 104.389L99 105.028L101 106.389L102 107.139L103 107.861L105 109.389L107 111.083L108 112.028L109 113L111 115L113 117L114 118L115.917 120L116.778 121L117.583 122L119 124L120.333 126L121 127L122.417 128.889L123.167 129.667L124.528 130.639L126 131L126.417 129.5L126.778 127.944L126.917 127L127 125L127 124L126.917 122L126.583 120L126.306 119L125.611 117L124.722 115L123.556 113L122.833 112L121.361 110L120.611 109L118.917 107L117 105.028L116 104.083L115 103.222L114 102.389L112 100.806L110 99.1944L109 98.4167L108 97.6944L106 96.3889L105 95.8056L103 94.6111L101 93.3889L100 92.8333L99 92.25L98 91.7778L96 90.7778L95 90.25L94 89.8333L93 89.3889L91 88.6111L90 88.1667L89 87.75L88 87.2222L86 86.2222L85 85.7778L84 85.2222L83 84.7778L82 84.2222L81 83.7778L80 83.2222L78 82.2222L77 81.75L76 81.1667L75 80.6111L73 79.3889L72 78.8333L71 78.25L69 77.2222L68 76.75L66 75.6111L64 74.3889L62 73.25L61 72.75L59 71.6111L57 70.3889L55 69.1944L54 68.6111L53 67.9722L52 67.3333L51 66.6667L49 65.3889L47 64.1944L46 63.6111L44 62.3333L43 61.6667L41 60.3333L35 56.3333L32 54.3333L31 53.6667L30 53L28 51.5833L26 50L24 48.3889L23 47.6111L21 45.9167L20 44.9722L18 43L16 41L14 39L13 38L11.0833 36L9.41667 34L8.02778 32L7.38889 31L6.25 29L5.77778 28L5.25 27L4.44444 25.0278L3.80556 23.3333L3.36111 22.7222L3.13889 22.3611L2 22z"/>
<path style="fill:#ad3047; stroke:none;" d="M7 45L7.27778 46.5L7.86111 48.0556L8.25 49L8.77778 50L9.22222 51L9.77778 52L10.2222 53L10.7778 54L11.7778 56L12.2222 57L13.2222 59L13.7778 60L14.2222 61L14.7778 62L15.2222 63L16.25 65L16.8333 66L17.3889 67L18.6111 69L19.8333 71L20.4444 72L21.1667 73L22.6389 75L23.3889 76L25.0833 77.8889L25.9722 78.6667L27.5 79.6389L29 80L26.9444 81.4722L25.1111 83.0833L23.7222 85L23.1111 87L23.0278 88L23 89L23.0833 91L23.4167 93L24.0278 95L24.3889 96L24.8333 97L25.7778 99L26.25 100L27.4444 102L28.1667 103L29.6389 105L30.3889 106L32.0833 108L33.0278 109L35 110.917L37 112.611L38 113.361L38.9444 114.111L39.9444 114.778L40.5 115.25L42 116L40.7778 117.5L39.8889 119.056L39.5 120L39.0833 122L39 124L39.0278 126L39.0833 127L39.4167 129L40.0278 131L40.4167 132L41.4167 134L42.6944 136L43.4167 137L45.0556 139L45.9444 140L47.6111 142L48.3889 143L50.0833 144.917L52 146.611L53 147.361L53.9444 148.111L54.9444 148.778L55.5 149.25L57 150L56.4167 152.056L56.0833 154L56.0278 155L56 157L56.0833 159L56.25 160L56.5 161L56.9167 162L58.0278 164L59.4167 166L61.0833 167.917L63 169.583L65 171L66 171.667L68 172.972L69 173.611L71 174.75L72 175.222L74 176.222L76 177.222L77 177.75L79 178.611L80 178.972L82 179.667L83 180L85 180.583L85.9444 180.778L87.5 180.972L89 181L88.2222 179.778L87.6944 179.417L86.8889 178.806L85 177.778L84 177.222L83 176.75L82 176.167L81 175.611L79 174.389L78 173.806L76 172.528L74 170.944L73 170.056L71.0278 168.389L70.0833 167.611L68.3889 165.917L66.8611 164L66.1667 163L65.4444 162L64.8611 161L64.3056 160L63.7222 158L63.7222 157L64.3056 155L64.8333 154L65.9167 152L66.3611 151L66.8056 149L66.7222 148L66.5 147L65.5 145.083L64.75 144.222L62.9722 142.611L62 141.806L60 140.194L59.0278 139.389L58.0833 138.611L56.4167 136.917L55.6944 135.972L55 135L53.6111 133L52.8611 132L51.4722 130L50.9722 129L50.5833 128L50.5 127L50.9722 125L52.2222 123L53.7778 121L54.5 120L55.5 118L55.9167 116L56 114.056L56 112L53.9444 110.528L52 108.917L50 107.028L49 106.083L47 104.389L46 103.611L44 101.917L43 100.972L41 99L40 98L39 97L37.0833 95L35.5 93L34.9444 92.0556L34.2778 90.5L34 89L35.5 88.5L36.0556 88.1944L37.9444 87.4722L39.5 87.0833L41 87L42 86L42 83.9444L41.9722 82.9444L41.8889 82L41.2778 80.0833L39.8889 78.4167L38.9722 77.6944L38 77L36 75.5833L34 73.9444L33 73.0556L32 72.2222L31 71.3889L30 70.6111L28 68.9167L26.0833 67L24.3889 65L23.6111 64L21.9167 62L20.0278 60L19.0833 59L17.3889 57L16.6111 56L15 54L14.1944 53L12.6111 51L11 49L10.1944 48.0278L9.44444 47.1111L8.66667 46.3056L8.25 45.7778L7 45z"/>
<path style="fill:#fff; stroke:none;" d="M126 81L127 82L126 81z"/>
<path style="fill:#ad3047; stroke:none;" d="M146 95L148.056 95.5556L149.056 95.6944L151 95.5L153 94.75L154 94.2222L156 93.25L158 92.4722L160 92.1944L161 92.3333L163 93.1111L164 93.7222L164.972 94.4167L166.778 96.0833L168.389 98L169.222 99L170.056 100L170.944 101L172.611 103L173.389 104L175.083 106L177 107.917L179 109.5L179.944 110.056L181.5 110.722L183 111L182.667 109.5L182.361 108.944L181.889 107.944L181.306 107L180.028 105L179.389 104L178.806 103L177.611 101L176.389 99L175.806 98L174.611 96L173.389 94L172.194 92L171.611 91L170.972 90L169.583 88.0833L168.778 87.25L167.917 86.4722L166 85.2778L164 84.4722L162 84.0833L161 84.0278L159 84.0278L158 84.0833L156 84.4167L154 85.0278L152 85.8333L151 86.2778L149.028 87.4722L148.111 88.25L146.722 90.0278L146.111 91.9444L146 93.5L146 95M385 139L385 148L386.5 148.5L387.056 148.806L389 149.528L391 149.917L393 150L394 150L395 150L397 149.917L398 149.75L399 149.528L401 148.722L401.972 148.139L402.917 147.528L404.583 145.917L405.917 144L406.917 142L407.583 140L407.778 139L407.917 138L408 136L408 135L408 134L408 133L407.917 131L407.583 129L407.306 128L406.583 126L405.528 124L404.833 123L403.361 121L402.611 120L400.917 118L399 116L397 114L395.083 112L394.25 111L392.944 109L392.5 108L392.111 106L392.111 105L392.5 103L393.5 101.083L395.083 99.5L397 98.5278L399 98.3333L401 98.8333L402.944 99.5278L403.5 99.7222L405 100L405 91L403.5 90.75L401.944 90.3889L400 90.0833L399 90.0278L397 90L395 90.0278L394 90.0833L392 90.4722L390 91.2778L389.028 91.8611L388.083 92.4722L386.472 94.0833L385.278 96L384.444 98L384.167 99L383.639 101L383.389 102L383.083 104L383.083 106L383.389 108L383.639 109L383.861 110L384.444 112L385.278 114L386.472 116L387.25 117L388.083 118L390 120L391 121L393 123L393.972 124L394.917 125L396.583 127L397.278 128L398.444 130L399.278 132L399.694 134L399.667 135L399.472 136L398.5 137.972L397.75 138.917L395.972 140.5L394 141.417L392 141.444L391 141.111L389 140.25L387.056 139.472L386.5 139.278L385 139M448 90.4722L447 90.8611L445 91.8611L444.028 92.4722L442.25 94.0833L440.861 96L440.278 97L439.444 99L439.167 100L438.861 101L438.389 103L438.083 105L438 106L437.917 107L437.611 109L437.389 110L437.083 112L437.028 113L437 115L437 116L437 119L437 124L437 126L437.083 128L437.222 129L437.389 130L437.778 132L437.917 133L438.083 135L438.222 136L438.417 137L439 139L439.333 140L440.028 142L440.417 143L441.5 144.972L442.25 145.917L444.028 147.528L446 148.722L447 149.139L448 149.528L449 149.75L450 149.917L452 150L453 150L455 149.917L456 149.75L457 149.528L458 149.139L460 148.139L460.972 147.528L462.75 145.917L464.139 144L464.722 143L465.556 141L465.833 140L466.139 139L466.611 137L466.917 135L467 134L467.083 133L467.389 131L467.611 130L467.917 128L467.972 127L468 125L468 124L468 121L468 116L468 114L467.917 112L467.778 111L467.611 110L467.222 108L467.083 107L466.917 105L466.611 103L466.139 101L465.833 100L465.556 99L464.722 97L464.139 96L463.528 95.0278L461.917 93.25L460.972 92.4722L459 91.2778L458 90.8611L457 90.4722L456 90.25L455 90.0833L453 90L452 90L450 90.0833L449 90.25L448 90.4722M197 91L197 98L206 98L206 149L214 149L214 98L223 98L223 91L197 91M227 91L227 149L235 149L235 121L246 121L246 149L255 149L255 91L246 91L246 113L235 113L235 91L227 91M263 91L263 149L285 149L285 142L271 142L271 123L283 123L283 116L271 116L271 98L285 98L285 91L263 91M305 91L305 149L312 149L315 149L316 149L318 149L319 148.972L320 148.917L322 148.528L323.972 147.722L324.917 147.139L325.75 146.528L326.528 145.75L327.722 143.972L328.167 143L328.972 141L329.583 139L329.917 137L329.972 136L330 135L330 133L330 132L329.917 130L329.583 128L329.306 127L328.583 125L327.5 123.028L325.972 121.333L324.5 120.361L323 120L324.972 118.528L326.528 116.917L327.722 115L328.139 114L328.528 113L328.917 111L328.972 110L329 109L329 107L329 105L329 104L328.917 102L328.583 100L328.306 99L327.972 98L327.583 97L326.5 95.0278L324.917 93.25L323.972 92.5L322 91.5L320 91.0833L318 91L316 91L315 91L312 91L305 91M338 91L338 149L346 149L346 125L346.972 126.5L347.167 127.056L347.639 128.056L348.333 130L348.667 131L349.028 132L349.389 133L349.806 134L350.611 136L351.389 138L352.194 140L352.611 141L352.972 142L353.333 143L353.667 144L354.361 145.944L354.833 146.944L355.028 147.5L356 149L364 149L363.917 147.5L363.528 145.944L363.167 145L362.389 143L361.611 141L361.194 140L360.806 139L360.389 138L360.028 137L359.667 136L359.333 135L358.611 133L358.194 132L357.389 130L356.611 128L355.806 126L355.389 125L354.667 123.056L354.444 122.5L354 121L355.5 120.639L357.028 119.667L358.75 117.972L359.5 117L360.528 115L361.139 113L361.361 112L361.611 111L361.917 109L361.972 108L362 106L361.972 104L361.917 103L361.611 101L361.361 100L360.833 98L360.528 97L359.5 95.0278L357.917 93.3056L356 92.1111L354 91.4167L352 91.0833L351 91.0278L349 91L348 91L345 91L338 91M370 91L370 149L378 149L378 91L370 91M409 91L409 98L418 98L418 149L426 149L426 98L435 98L435 91L409 91M475 91L475 149L496 149L496 142L483 142L483 91L475 91z"/>
<path style="fill:#fff; stroke:none;" d="M314 98L314 116L315.5 115.917L316.028 115.75L316.972 115.5L318.528 114.5L319.139 113.75L320.139 111.972L320.528 111L320.917 109L321 107L320.917 105L320.778 104L320.583 103L319.889 101.083L318.694 99.5L317.028 98.5L316.056 98.25L315.5 98.0833L314 98M346 98L346 116L347.5 115.972L349.028 115.667L349.889 115.278L350.694 114.667L351.889 112.972L352.278 112L352.583 111L352.917 109L353 107L352.917 105L352.583 103L352.278 102.028L351.889 101.083L350.694 99.5L349.028 98.5L348.056 98.25L347.5 98.0833L346 98M451.083 98.5278L450.25 98.9444L449.5 99.5L448.417 101.083L447.694 103L447.417 104L447.222 105L447.056 106L446.944 107L446.611 109L446.389 110L446.083 112L446.028 113L446 114L446 116L446 121L446 124L446 125L446.028 127L446.083 128L446.389 130L446.611 131L446.944 133L447.056 134L447.417 136L447.694 137L448.417 138.917L449.5 140.5L451.083 141.472L452.028 141.667L453.917 141.472L454.75 141.056L455.5 140.5L456.583 138.917L457.306 137L457.583 136L457.778 135L457.944 134L458.056 133L458.389 131L458.611 130L458.917 128L458.972 127L459 126L459 124L459 119L459 116L459 115L458.972 113L458.917 112L458.611 110L458.389 109L458.056 107L457.944 106L457.583 104L457.306 103L456.583 101.083L455.5 99.5L453.917 98.5278L452.972 98.3333L451.083 98.5278z"/>
<path style="fill:#e11b3d; stroke:none;" d="M154 251L155 250L154.889 248.5L154.278 246.944L152.889 245.028L151.972 244.083L150 242.389L149 241.639L147 240.139L145 238.611L144 237.806L142 236.194L140 234.611L138 232.917L136 231L135 230L132 227L130 225L129 224L127.083 222L125.417 220L124.028 218L123.389 217L122.25 215L121.778 214L121.222 213L120.778 212L120.25 211L119.444 209L119.167 208L118.639 206L118.222 204L118.083 203L118.083 201L118.389 199L118.639 198L119.167 196L119.472 195L120.417 193L121.028 192L122.417 190L124.083 188.028L126 186.222L127 185.417L128 184.694L130 183.417L131 182.889L133 182L134 181.611L136 180.806L137 180.389L139 179.611L141 178.806L142 178.389L144 177.611L145 177.194L147 176.389L149 175.611L150 175.167L151 174.75L152 174.222L154 173.222L155 172.75L157 171.528L158 170.75L160 168.972L161.917 167L163.528 165L164.139 164L164.75 163L165.75 161L166.167 160L166.611 159L167.306 157L167.583 156L167.778 155L167.917 154L168 152L168 150L168 148L167.917 146L167.778 145L167.583 144L167 142L166.333 140L165.611 138L164.75 136L164.25 135L163.444 133L163.167 132L162.861 131L162.389 129L162 127L161.611 125L161.389 124L161.167 122L161.389 120L161.639 119L161.861 118L162.472 116L162.944 115L164.25 113L165.083 112.028L167 110.333L168 109.722L170 109.111L172 109.083L173 109.25L174 109.472L176 110.278L178 111.389L179.944 112.583L180.944 113.111L181.5 113.472L183 114L182.639 112.528L181.667 111.167L180.889 110.417L179.972 109.694L178 108.389L176 107.278L175 106.861L174 106.472L172 106.083L170 106L169 106L167 106.083L166 106.25L165 106.5L164 106.917L162 108.028L160.083 109.417L159.25 110.222L158.472 111.083L157.861 112.028L156.833 114L156.389 115L155.694 117L155.417 118L155.083 120L155 122L155 124L155.028 126L155.083 127L155.389 129L155.639 130L155.861 131L156.139 132L156.361 133L156.639 134L156.861 135L157.389 137L157.694 138L158.306 140L158.611 141L158.861 142L159.361 144L159.611 145L159.917 147L159.917 149L159.583 151L159.306 152L158.972 153L158.583 154L157.528 156L156.833 157L156.139 157.972L154.611 159.778L153.778 160.611L152.917 161.361L151 162.861L150 163.611L148 164.917L146 165.944L145 166.361L144 166.806L143 167.194L142 167.611L140 168.333L138 169L135 170L133 170.667L131 171.389L130 171.806L128 172.611L126 173.389L124 174.278L122 175.389L121 176.028L119 177.417L117 179.083L116 180.028L114.028 182L113.083 183L111.472 185L110.861 186L110.278 187L109.389 189L108.694 191L108.389 192L108.139 193L107.639 195L107.389 196L107.083 198L107.028 199L107 201L107 203L107.028 204L107.083 205L107.389 207L107.639 208L107.861 209L108.139 210L108.389 211L109 213L109.667 215L110.028 216L110.389 217L111.25 219L111.778 220L112.25 221L112.833 222L113.389 223L114.028 224L115.417 226L117.056 228L117.944 229L119.611 230.972L121.222 232.778L122.083 233.611L123.028 234.389L125 236.056L126 236.944L128 238.583L130 240L131 240.667L133 241.972L134 242.611L136 243.75L137 244.222L138 244.778L139 245.222L140 245.778L141 246.222L142 246.778L144 247.75L145 248.167L146 248.611L148 249.389L150 250.167L150.944 250.528L152.5 250.917L154 251z"/>
<path style="fill:#fff; stroke:none;" d="M176 107L177 108L176 107M314 123L314 142L315.5 141.917L316.056 141.75L317.028 141.5L318.694 140.5L319.889 138.917L320.583 137L320.778 136L320.972 134L321 133L320.917 131L320.583 129L319.889 127.028L318.694 125.25L317.028 123.944L316.056 123.5L315.5 123.278L314 123z"/>
<path style="fill:#ad3047; stroke:none;" d="M200 169L200 211L204 211L204 192L205.5 191.972L206.056 191.917L208 191.611L209 191.361L210 191.111L211.972 190.306L212.889 189.667L213.694 188.889L214.361 187.972L215.278 186L215.583 185L215.917 183L216 181L216 180L215.917 178L215.583 176L214.889 174L214.361 173.028L212.889 171.306L211 170.111L209 169.417L207 169.083L206 169.028L204 169L203.056 169L200 169M221 169L221 211L234 211L234 206L225 206L225 192L234 192L234 187L225 187L225 174L234 174L234 169L221 169M239 204L239 210L241.056 210.583L243 210.917L244 210.972L246 211L248 210.917L249 210.75L250 210.5L251.917 209.5L253.5 207.917L254.083 206.972L254.972 205L255.306 204L255.583 203L255.917 201L255.972 199L255.917 198L255.528 196L255.139 195L254.139 193.028L253.528 192.083L251.917 190.389L250 188.861L249 188.139L248 187.361L246.028 185.778L245.083 184.917L243.5 183L242.972 182L242.583 181L242.5 180L242.583 179L243.5 177.028L244.222 176.083L245.722 174.472L246.222 174.083L247 173L248.5 173.833L249.056 174.056L250.944 174.972L251.944 175.389L252.5 175.667L254 176L254 171L252.5 170.028L250.944 169.444L249 169.083L247 169.028L246 169.083L244 169.472L242.083 170.278L240.417 171.472L239.111 173.083L238.611 174.028L237.889 176L237.639 177L237.389 178L237.167 180L237.417 182L237.694 183L238.417 185L239.5 187L240.25 187.972L241.083 188.917L243 190.611L244 191.361L245 192.139L245.972 192.861L247.778 194.389L248.583 195.222L249.889 197.028L250.667 199L250.806 200L250.5 202L249.5 203.917L247.917 205.472L246 206.25L245 206.278L243 205.722L242.056 205.25L241.056 204.833L240.5 204.5L239 204M260 169L260 174L266 174L266 211L271 211L271 174L277 174L277 169L260 169M309 211L310 210L310 205L308.5 205.5L307.944 205.806L306 206.417L304 206.194L303.028 205.639L301.25 203.972L300.5 203L299.417 201L298.694 199L298.417 198L298.222 197L298.083 196L298 194L298 193L298 191L298 189L298 188L298.028 186L298.083 185L298.389 183L298.639 182L299.167 180L299.472 179L300.5 177.028L301.25 176.083L303.028 174.583L305 173.917L306 173.944L306.944 174.083L308.5 174.556L310 175L310 170L309 169L305.944 169L305 169L303 169.028L302 169.111L301 169.333L299.028 170.333L298.083 171.111L297.25 172.028L296.5 173L295.417 175L294.694 177L294.417 178L294 180L293.611 182L293.389 183L293.083 185L293.028 186L293 188L293 189L293 191L293 193L293.028 194L293.083 195L293.389 197L293.611 198L293.944 200L294.056 201L294.417 203L294.694 204L295.417 206L296.5 207.917L297.25 208.75L298.083 209.5L299.028 210.056L300 210.5L302 210.917L303 210.972L305 211L305.944 211L309 211M321 169.5L319.083 170.5L317.472 172.083L316.278 174L315.444 176L314.861 178L314.639 179L314.389 180L314.083 182L314 184L314 186L314 190L314 193L314 195L314.028 197L314.083 198L314.389 200L314.639 201L315.167 203L315.444 204L316.278 206L317.472 207.972L319.083 209.667L321 210.667L322 210.889L323 210.972L325 211L326 210.972L328 210.667L328.972 210.278L330.75 208.889L331.5 207.972L332.583 206L333.306 204L333.583 203L333.778 202L333.917 201L334.028 199L334.083 198L334.389 196L334.611 195L334.917 193L334.972 192L335 190L334.972 188L334.917 187L334.611 185L334.389 184L334.083 182L333.972 180L333.917 179L333.583 177L332.917 175L332.444 174L331.278 172.083L330.583 171.25L329.778 170.5L327.972 169.5L326 169.083L324 169.028L322 169.25L321 169.5M339 169L339 211L343 211L343 184L343.806 185.5L343.972 186.056L344.611 188L345.139 190L345.389 191L345.694 192L346 193L346.667 195L347.667 198L348 199L348.306 200L348.611 201L349.139 203L349.389 204L350 206L350.333 207L350.639 207.944L351.028 208.944L351.194 209.5L352 211L357 211L357 169L352 169L352 196L351.194 194.5L351.028 193.944L350.639 192.944L350.333 192L349.667 190L349.333 189L348.667 187L348 185L347.389 183L347.139 182L346.611 180L346.306 179L346 178L345.333 176L344.667 174L344.333 173L344 172.056L343.667 171.056L343.444 170.5L343 169L339 169M361 169L361 174L367 174L367 211L371 211L371 174L377 174L377 169L361 169M381 169L381 211L386 211L386 195L387 196.5L387.222 197.056L387.806 198.056L388.75 200L389.611 202L390.389 204L391.25 206L391.75 207L392.139 207.944L392.722 209.5L393 211L399 211L398.5 209.5L398.194 208.944L397.389 207L396.611 205L396.167 204L395.75 203L395.222 202L394.778 201L394.222 200L393.25 198L392.833 197L392.389 196L391.639 194.056L391.167 193.056L390.972 192.5L390 191L391.5 190.889L393.028 190.278L393.917 189.667L395.5 187.972L396.5 186L396.917 184L396.972 183L397 182L397 180L397 179L397 178L396.917 176L396.5 174.028L396.056 173.083L395.5 172.25L394.75 171.5L392.972 170.472L391 169.861L390 169.639L389 169.389L387 169.083L385 169L384.056 169L383.056 169L381 169M408 169.5L406.083 170.5L404.472 172.083L403.278 174L402.444 176L401.861 178L401.639 179L401.389 180L401.083 182L401 184L401 186L401 190L401 193L401 195L401.028 197L401.083 198L401.389 200L401.639 201L402.167 203L402.444 204L403.278 206L404.472 207.972L406.083 209.667L408 210.667L409 210.889L410 210.972L412 211L413 210.972L415 210.667L415.972 210.278L417.75 208.889L418.5 207.972L419.583 206L420.306 204L420.583 203L420.778 202L420.917 201L421.028 199L421.083 198L421.389 196L421.611 195L421.917 193L421.972 192L422 190L421.972 188L421.917 187L421.611 185L421.389 184L421.083 182L420.972 180L420.917 179L420.583 177L419.917 175L419.444 174L418.278 172.083L417.583 171.25L416.778 170.5L414.972 169.5L413 169.083L411 169.028L409 169.25L408 169.5M426 169L426 211L439 211L439 206L431 206L431 169L426 169M443 169L443 211L456 211L456 206L447 206L447 169L443 169M461 169L461 211L474 211L474 206L465 206L465 192L474 192L474 187L465 187L465 174L474 174L474 169L461 169M478 169L478 211L482 211L482 194L482.972 195.5L483.167 196.056L483.639 197.056L484.389 199L485.25 201L485.75 202L486.611 204L487.389 206L488.222 207.944L488.778 208.944L489 209.5L490 211L495 211L494.722 209.5L494.139 207.944L493.75 207L493.222 206L492.778 205L492.25 204L491.833 203L491.389 202L490.611 200L490.167 199L489.75 198L489.222 197L488.222 195L487.222 193.056L487 192.5L486 191L488.056 190.75L489.028 190.5L490.75 189.5L491.5 188.75L492.5 186.972L492.917 185L493 183L493 182L493 180L493 179L493 178L492.917 176L492.5 174.028L492.056 173.083L491.5 172.25L490.75 171.5L488.972 170.472L487 169.861L486 169.639L485 169.389L483 169.083L481.056 169L480.056 169L478 169z"/>
<path style="fill:#fff; stroke:none;" d="M324 173L322.056 174.472L321.25 175.278L320.111 177.028L319.722 178L319.417 179L319.083 181L319.028 182L319 183L319 185L319 186L319 188L319 193L319 196L319 198L319.083 200L319.472 202L320.278 203.917L321.472 205.5L323.083 206.472L324.972 206.583L325.917 206.25L326.75 205.667L328.083 203.972L328.583 203L329.306 201L329.583 200L329.917 198L329.972 197L330 196L330 194L330 189L330 187L330 186L330 185L329.917 183L329.611 181L329.361 180L329.139 179L328.528 177.028L328.056 176.083L326.806 174.5L325.472 173.528L324 173M411 173L409.056 174.472L408.25 175.278L407.111 177.028L406.722 178L406.417 179L406.083 181L406.028 182L406 183L406 185L406 186L406 188L406 193L406 196L406 198L406.083 200L406.472 202L407.278 203.917L408.472 205.5L410.083 206.472L411.972 206.583L412.917 206.25L413.75 205.667L415.083 203.972L415.583 203L416.306 201L416.583 200L416.917 198L416.972 197L417 196L417 194L417 189L417 187L417 186L417 185L416.917 183L416.611 181L416.361 180L416.139 179L415.528 177.028L415.056 176.083L413.806 174.5L412.472 173.528L411 173M204 174L204 187L205.5 187L207.056 186.889L207.972 186.667L208.889 186.278L209.667 185.667L210.278 184.889L210.667 183.972L210.889 183L211 181L211 179.056L211 176L209.5 175.028L207.944 174.444L206.056 174.083L204 174M386 174L386 187L387.5 186.972L389.028 186.75L389.917 186.5L390.75 186.056L391.5 185.5L392.056 184.75L392.75 182.972L392.917 182L392.972 180L392.917 179L392.75 178.028L392.056 176.25L391.5 175.5L390.75 174.944L389.917 174.5L389.028 174.25L387.5 174.028L386 174M482 174L482 187L483.5 186.972L485.028 186.75L485.917 186.5L486.75 186.056L487.5 185.5L488.5 183.917L488.917 182L488.972 180L488.917 179L488.556 177.056L487.972 175.5L487 174L482 174z"/>
<path style="fill:#e11b3d; stroke:none;" d="M98 209L96.0278 211.056L94.3889 213L92.7778 215L91.9444 216L91.0556 217L89.4167 219L88.6944 220L87.3333 222L86 224L84.6667 226L84.0278 227L83.3889 228L82.8333 229L82.25 230L81.7778 231L81.25 232L80.3889 234L80.0278 235L79.3333 237L78.6944 239L78.3889 240L78.1389 241L77.6389 243L77.3889 244L77.0833 246L77.0278 247L77 249L77 251L77.0278 252L77.0833 253L77.3889 255L77.6111 255.944L77.7778 256.944L77.9167 257.5L78 259L79 260L83 260L83.25 258.5L83.6111 256.944L83.9167 255L84.0833 253L84.3889 251L84.6389 250L85.1389 248L85.3611 247L85.6389 246L85.8611 245L86.3889 243L87 241L87.3333 240L88 238L88.6667 236L89.0278 235L89.3889 234L90.25 232L90.75 231L91.6111 229L92.3889 227L93.25 225L93.7778 224L94.2222 223L94.7778 222L95.75 220L96.1667 219L96.6111 218L97.3889 216L98.25 214L98.75 213L99.1389 212.056L99.7222 210.5L100 209L98 209z"/>
<path style="fill:#ad3047; stroke:none;" d="M122 209L122.028 210.5L122.25 212.056L122.5 213L123.5 215L125 217L125.806 217.972L127.389 219.778L128.222 220.611L130.028 222.222L131 223.056L133 224.778L134 225.583L136 227L137 227.667L139 228.972L140 229.611L142 230.75L143 231.222L144 231.778L145 232.222L146 232.778L147 233.222L148 233.75L149 234.167L150 234.611L151 234.972L153 235.583L154.944 235.917L156.5 236L158 236L157.222 235L156.694 234.778L154.972 233.75L153 232.611L151 231.306L150 230.583L149 229.806L147 228.194L145 226.611L143 224.917L142 223.972L140 222.028L139 221.083L137 219.389L136 218.611L134 216.917L133 215.972L131 214L129 212.083L127 210.5L125.056 209.5L124.056 209.25L122 209M106 215L105 216.5L104.778 217.056L104.194 218.056L103.778 219L103.222 220L102.25 222L101.833 223L101.389 224L100.611 226L99.8056 228L99.3889 229L98.6944 231L98.1389 233L97.8611 234L97.3889 236L97 238L96.6111 240L96.3889 241L96.0833 243L96.0278 244L96 245L96 247L95.9722 248L95.9167 249L95.6389 251L95.4722 252L95.4444 253L95.6389 255L95.9167 257L95.9722 258L96.0278 260L96.0833 261L96.3889 263L96.6389 264L97.1667 266L97.4444 267L98.2778 268.972L99.4722 270.667L100.194 271.278L101.528 271.889L103 272L103.583 269.944L103.778 268.944L103.917 268L104 266L104 265L104 264L104 262L104.028 260L104.083 259L104.389 257L104.611 256L104.917 254L104.972 253L105 251L105 250L105 247L105.028 245L105.083 244L105.389 242L105.611 241L105.917 239L105.972 238L106 236L106 235L106 233L106.028 231L106.083 230L106.389 228L106.611 227L106.917 225L106.972 224L107 222L107 220L106.972 218.028L106.944 217.111L106.75 216.306L106.722 215.778L106 215M113 225L113 231L113 233L113.028 234L113.083 235L113.389 237L113.611 238L114 240L114.194 241L114.611 243L114.806 244L115.194 246L115.417 247L115.694 248L116.333 250L117.028 252L117.389 253L117.806 254L118.611 256L119 257L119.889 259L120.417 260L121.694 262L122.417 263L124.083 264.972L126 266.75L127.944 268.056L129.5 268.722L131 269L131.694 267.5L131.694 265.944L131.5 265L130.806 263L130.389 262L129.611 260L129.167 259L128.75 258L128.222 257L127.778 256L127.25 255L126.389 253L125.611 251L125.167 250L124.75 249L124.222 248L123.778 247L123.222 246L122.25 244L121.833 243L121.389 242L120.611 240L119.75 238L119.222 237L118.222 235L117.778 234L117.25 233L116.389 231L115.611 229L115.167 228.028L114.778 227.111L114.222 226.306L114 225.778L113 225z"/>
</svg>
