<?xml version="1.0" encoding="UTF-8"?>
<svg id="Layer_1" data-name="Layer 1" xmlns="http://www.w3.org/2000/svg" version="1.1" viewBox="0 0 789.8 180.9">
  <defs>
    <style>
      .cls-1 {
        fill: #003e65;
      }

      .cls-1, .cls-2 {
        stroke-width: 0px;
      }

      .cls-2 {
        fill: #27daa0;
      }
    </style>
  </defs>
  <g>
    <path class="cls-1" d="M94,126.1c-20.6,0-37.1-12.6-37.1-35.7s16.6-35.7,37.1-35.7,23.1,6.5,23.1,6.5l-6,19.1s-7-6-15.5-6-15.8,5-15.8,15.8,7.8,15.5,15.8,15.5,13.5-3.3,16.5-6.3l6.5,18.1c-2.5,2.5-9.5,8.7-24.6,8.7Z"/>
    <path class="cls-1" d="M156.7,126.1c-21.6,0-37.6-13.1-37.6-35.7s16-35.8,37.6-35.8,37.6,13.2,37.6,35.8-16,35.7-37.6,35.7ZM156.7,73.8c-9,0-14.8,6.6-14.8,16.1s5.8,16.1,14.8,16.1,14.7-6.6,14.7-16.1c.1-9.5-5.7-16.1-14.7-16.1Z"/>
    <path class="cls-1" d="M256.5,117.9c-5,5-13,8.1-24.1,8.1s-19.1-3.1-24.1-8.1-7.5-11.5-7.5-22.6v-39.6h22.8v40.6c0,5.9,2.4,10,8.8,10s8.7-4.1,8.7-10v-40.6h22.9v39.6c0,11.1-2.5,17.6-7.5,22.6Z"/>
    <path class="cls-1" d="M313.5,124.9l-21.1-38.6s.5,7.5.5,12.5v26.1h-22.1V55.7h24.6l20.1,38.6s-.5-7.5-.5-12.5v-26.1h22.1v69.2s-23.6,0-23.6,0Z"/>
    <path class="cls-1" d="M381,73.4v51.5h-22.7v-51.5h-16.2v-17.7h55.3v17.7h-16.4Z"/>
    <path class="cls-1" d="M439,124.9l-11-23.1h-3v23.1h-22.7V55.7h30.1c8.5,0,15,1.5,20.1,5,5.1,3.5,8.5,9.5,8.5,17,0,14-8.5,19.1-11.5,20.9l15.5,26.3s-26,0-26,0ZM435.6,74.1c-1-.8-2.5-1.3-5-1.3h-5.7v12h5.7c3.9,0,7.5-1.5,7.5-6,.1-3-1.4-4-2.5-4.7Z"/>
    <path class="cls-1" d="M504.6,97.8v27.1h-22.6v-27.1l-24-42.1h25.1l10.2,23.4,10.3-23.4h25.1l-24.1,42.1Z"/>
    <path class="cls-1" d="M616.6,124.9h-23.1l-9.3-39.1-9.2,39.1h-23.1l-19.6-69.2h23.6l8.5,38.6,8.5-38.6h22.6l8.5,38.6,8.5-38.6h23.6l-19.5,69.2Z"/>
    <path class="cls-1" d="M640.2,124.9V55.7h22.7v69.2s-22.7,0-22.7,0Z"/>
    <path class="cls-1" d="M694.9,124.9h-26.1V55.7h26.1c23,0,39.1,9.7,39.1,34.6s-16.1,34.6-39.1,34.6ZM696.6,74.3h-5.2v31.6h5.2c10.1,0,14.5-5.7,14.5-15.5.1-10.1-3.9-16.1-14.5-16.1Z"/>
    <path class="cls-1" d="M739.7,124.9V55.7h49.1v17.9h-26.6v7.5h25.1v17.8h-25.1v8h27.6v18.1h-50.1Z"/>
  </g>
  <circle class="cls-1" cx="23.9" cy="128.8" r="13.7"/>
  <circle class="cls-1" cx="52" cy="156.9" r="13.7"/>
  <circle class="cls-1" cx="90.4" cy="167.2" r="13.7"/>
  <circle class="cls-1" cx="128.8" cy="156.9" r="13.7"/>
  <path class="cls-2" d="M135.6,12.1c-4.4-2.5-9.6-2.3-13.7,0h0c-8.8,5.1-14.6,3.6-19.7-5.3h0c-2.3-4-6.7-6.8-11.8-6.8s-9.5,2.8-11.8,6.8h0c-4,6.9-12.8,9.3-19.7,5.3h0c-4.1-2.4-9.3-2.5-13.7,0s-6.8,7.1-6.8,11.8h0c0,8-6.5,14.4-14.4,14.4h0c-4.7,0-9.3,2.4-11.8,6.8-2.5,4.4-2.3,9.6,0,13.7h0c4,6.9,1.6,15.7-5.3,19.7h0c-4.1,2.4-6.9,6.8-6.9,11.9,0,7.5,6.1,13.7,13.7,13.7s13.7-6.1,13.7-13.7-.7-4.8-1.8-6.8h0c-4-6.9-1.6-15.7,5.3-19.7h0c2-1.2,3.8-2.8,5-5s1.8-4.5,1.8-6.8h0c0-8,6.5-14.4,14.4-14.4h0c2.3,0,4.7-.6,6.8-1.8,2.2-1.2,3.8-3,5-5h0c4-6.9,12.8-9.3,19.7-5.3h0c2,1.2,4.3,1.8,6.8,1.8s4.8-.7,6.8-1.8h0c8.8-5.1,14.6-3.6,19.7,5.3h0c1.2,2,2.8,3.8,5,5,6.5,3.8,14.9,1.5,18.7-5s1.5-15-5-18.8Z"/>
  <g>
    <path class="cls-2" d="M207.8,165.2v15h-7v-37h11.9c3.9,0,7,.9,9.3,2.6s4,4.6,4,8.1c0,6.4-3.5,9-8,10.3l10,15.9h-8.1l-8.7-15h-3.3ZM216.7,158.6c1.4-1,2.1-2.3,2.1-4.3s-.8-3.4-2.1-4.3c-1.3-1-3.1-1.2-5.3-1.2h-3.6v11h3.6c2.3,0,4-.2,5.3-1.2Z"/>
    <path class="cls-2" d="M229.4,161.8c0-11.9,8.7-19.1,19.3-19.1s19.4,7.2,19.4,19.1-8.6,19.1-19.4,19.1-19.3-7.2-19.3-19.1ZM248.7,148.8c-6.9,0-12.2,4.9-12.2,13s5.4,13,12.2,13,12.2-5,12.2-13-5.3-13-12.2-13Z"/>
    <path class="cls-2" d="M271.5,161.8c0-11.9,8.7-19.1,19.4-19.1s19.4,7.2,19.4,19.1-8.6,19.1-19.4,19.1-19.4-7.2-19.4-19.1ZM290.9,148.8c-6.9,0-12.2,4.9-12.2,13s5.4,13,12.2,13,12.2-5,12.2-13-5.3-13-12.2-13Z"/>
    <path class="cls-2" d="M337.5,143.3v5.8h-14.8v10.4h14v5.7h-14v15h-7v-37h21.8Z"/>
    <path class="cls-2" d="M349.9,143.3v37h-7v-37h7Z"/>
    <path class="cls-2" d="M364.1,162.1v18.2h-6.8v-37h7.4l18.4,27s-.1-4.3-.1-8.7v-18.2h6.8v37h-7l-18.8-27.3s.1,4.7.1,9.1Z"/>
    <path class="cls-2" d="M414.8,159.9h15.7v14.8c-1.3,1.2-6.1,6.2-16,6.2s-19.2-6.6-19.2-19.1,8.7-19.1,19.1-19.1,13.8,5.1,15.1,6.4l-4.7,4.1c-1.9-2.1-5-4.7-10.5-4.7s-11.9,4.8-11.9,13.1,5.3,13.1,12.2,13.1,9.1-2.8,9.1-2.8v-6.8h-8.9v-5.4Z"/>
    <path class="cls-2" d="M458.2,180.9c-7.1,0-12.3-3.6-12.3-10.6s4.3-8.7,9.3-11c-1.8-2.1-4.1-4.3-4.1-8.1,0-5.4,4.9-8.5,10.6-8.5s10.3,3.4,10.3,8.2-3,6.7-7.4,9.5l6,7c1.2-1.3,3.7-5.2,4.7-7.1l5,2.6c-1,1.8-4,6.4-5.9,8.5l8.1,8.6v.4h-8l-4.1-4.6c-3.5,3.4-6.9,5.3-12.1,5.3ZM452.9,170c0,3.5,2.7,5.6,6.1,5.6s6.2-2,7.7-3.9l-7.7-8.7-1.3.7c-2.2,1.1-4.7,2.9-4.7,6.3ZM465.7,151.3c0-2.2-1.4-3.6-4-3.6s-4.1,1.2-4.1,3.6,1.2,3.1,2,4l1.3,1.5c1.7-1,4.8-2.6,4.8-5.5Z"/>
    <path class="cls-2" d="M504.1,143.3v37h-7v-37h7Z"/>
    <path class="cls-2" d="M518.3,162.1v18.2h-6.8v-37h7.4l18.4,27s-.1-4.3-.1-8.7v-18.2h6.8v37h-7l-18.8-27.3s.1,4.7.1,9.1Z"/>
    <path class="cls-2" d="M575.2,169.5c0,6.9-5,11.4-12.9,11.4s-10.7-2.9-13.1-5.7l3.3-5c2.9,3.2,6.4,4.9,9.9,4.9s5.8-1.7,5.8-4.9-1.9-3.9-5.1-5.1l-5.8-2.3c-4-1.6-6.7-4.4-6.7-9,0-6.4,5-10.9,12.8-10.9s9.1,2.2,11.3,4.4l-3.3,5c-2.4-2.1-5.2-3.7-8.4-3.7s-5.5,1.5-5.5,4.2,2.3,3.7,4.2,4.5l6.2,2.5c5.2,2.1,7.2,5,7.2,9.6Z"/>
    <path class="cls-2" d="M609.8,165c0,4.9-.7,8.5-3.3,11.5-2.5,2.8-6.4,4.4-11.5,4.4s-9-1.6-11.5-4.4c-2.6-2.9-3.3-6.5-3.3-11.5v-21.7h7v21.5c0,2.8.1,5.4,1.6,7.2,1.3,1.7,3.4,2.8,6.2,2.8s4.9-1.1,6.2-2.8c1.4-1.9,1.6-4.4,1.6-7.2v-21.5h7v21.7Z"/>
    <path class="cls-2" d="M623.9,143.3v31.2h12.9v5.8h-19.8v-37h6.9Z"/>
    <path class="cls-2" d="M648.2,171.7l-3.2,8.5h-7.2l14.5-37h6.8l14.5,37h-7.6l-3.2-8.5h-14.5ZM661,166.2l-5.5-15-5.6,15h11.1Z"/>
    <path class="cls-2" d="M669.5,148.9v-5.6h27.2v5.6h-10.1v31.4h-6.9v-31.4h-10.2Z"/>
    <path class="cls-2" d="M707.7,143.3v37h-7v-37h7Z"/>
    <path class="cls-2" d="M713.2,161.8c0-11.9,8.7-19.1,19.4-19.1s19.4,7.2,19.4,19.1-8.6,19.1-19.4,19.1-19.4-7.2-19.4-19.1ZM732.5,148.8c-6.9,0-12.2,4.9-12.2,13s5.4,13,12.2,13,12.2-5,12.2-13-5.3-13-12.2-13Z"/>
    <path class="cls-2" d="M764.1,162.1v18.2h-6.8v-37h7.4l18.4,27s-.1-4.3-.1-8.7v-18.2h6.8v37h-7l-18.8-27.3s.1,4.7.1,9.1Z"/>
  </g>
</svg>