<?xml version="1.0" encoding="UTF-8"?>
<svg xmlns="http://www.w3.org/2000/svg" xmlns:xlink="http://www.w3.org/1999/xlink" id="Layer_1" data-name="Layer 1" viewBox="0 0 24.096000671386719 24.096000671386719">
  <defs>
    <style>
      .cls-1 {
        clip-path: url(#clippath);
      }

      .cls-2 {
        stroke-width: 0px;
      }

      .cls-2, .cls-3 {
        fill: none;
      }

      .cls-3 {
        stroke: #1d3766;
        stroke-linecap: round;
        stroke-linejoin: round;
        stroke-width: 1.121999979019165px;
      }
    </style>
    <clipPath id="clippath">
      <rect class="cls-2" y="1.00433508336755" width="24.096000671386719" height="22.087330504651618"></rect>
    </clipPath>
  </defs>
  <g class="cls-1">
    <path class="cls-3" d="M20.581765636502496,19.577877886216811l-2.007775927213515-2.007776140537317M18.573989709288981,14.55754190877451v3.012559836904984M23.593431233886804,17.570101745679494c0,2.771876293558307-2.247565231042245,5.019440671316261-5.019441524597823,5.019440671316261-2.772772239642109,0-5.020335764120318-2.247564377757953-5.020335764120318-5.019440671316261,0-2.772772239641199,2.24756352447821-5.020335764118499,5.020335764120318-5.020335764118499,2.771876293555579,0,5.019441524597823,2.2475635244773,5.019441524597823,5.020335764118499ZM16.565317835988935,1.506100729233367v3.011663890822092M4.517765046698514,1.506100729233367v3.011663890822092M.502211912347775,8.53421242056902h20.079553724154721M11.134300864924626,20.581766063141913H1.506100729237005c-.554733125176426,0-1.00388881688923-.449154838428512-1.00388881688923-1.003888176925102V4.517764620055459c0-.55383803237055.449155691712804-1.003887963604939,1.00388881688923-1.003887963604939h18.071776943658733c.554733978458898,0,1.003887963606758.450049931234389,1.003887963606758,1.003887963604939v5.270861061904725"></path>
  </g>
</svg>
