<?xml version="1.0" encoding="UTF-8"?>
<svg xmlns="http://www.w3.org/2000/svg" xmlns:xlink="http://www.w3.org/1999/xlink" id="Layer_1" data-name="Layer 1" viewBox="0 0 24.096000671386719 24.096000671386719">
  <defs>
    <style>
      .cls-1 {
        clip-path: url(#clippath);
      }

      .cls-2 {
        stroke-width: 0px;
      }

      .cls-2, .cls-3 {
        fill: none;
      }

      .cls-3 {
        stroke: #1d3766;
        stroke-linecap: round;
        stroke-linejoin: round;
        stroke-width: 1.121999979019165px;
      }
    </style>
    <clipPath id="clippath">
      <rect class="cls-2" width="22.921027578053327" height="24.096000671386719"></rect>
    </clipPath>
  </defs>
  <g class="cls-1">
    <path class="cls-3" d="M6.591874638061199,23.588774261264916H1.521410300206298c-.56037114645369,0-1.014092522788815-.45372094535378-1.014092522788815-1.014092953762884v-12.170016619811577c0-.560372870366336.453721376335125-1.014997576199676,1.014092522788815-1.014997576199676h5.070464337854901c.560372008410013,0,1.014092522788815.454624705833339,1.014092522788815,1.014997576199676v12.170016619811577c0,.560372008409104-.453720514378801,1.014092953762884-1.014092522788815,1.014092953762884ZM5.962810799617728,21.415072573274301c0,.244936759685515-.198841096496835.444682047640526-.444681185686022.444682047640526-.244936759687334,0-.44468290959685-.199745287955011-.44468290959685-.444682047640526,0-.245840951143691.199746149909515-.444682478620962.44468290959685-.444682478620962.245840089189187,0,.444681185686022.198841527477271.444681185686022.444682478620962ZM18.412110094132004,20.081025137415054h.22234145479888c.859538706567946,0,1.556388459678601.696849753110655,1.556388459678601,1.556388459677692,0,.859538706568856-.696849753110655,1.556388459679511-1.556388459678601,1.556388459679511h-.667022640484902M18.856793003728853,23.193802056772256h-6.221034605344357c-1.781440764932995,0-5.029791237534482-1.633213703038564-5.029791237534482-1.633213703038564M20.190840008609484,12.967914724376897c.982458751160266,0,1.778729914475662.796270301356344,1.778729914475662,1.777825723018395s-.796271163315396,1.77872991447839-1.778729914475662,1.77872991447839h-.889364095282872M19.301475913326612,16.524470361873682c.982458751162085,0,1.778728190565744.796270301358163,1.778728190565744,1.778729052521157,0,.981555421662051-.796269439403659,1.777825723020214-1.778728190565744,1.777825723020214h-.444682909597759M20.190840008609484,12.967914724376897c.982458751160266,0,1.778729914475662.796270301356344,1.778729914475662,1.777825723018395s-.796271163315396,1.77872991447839-1.778729914475662,1.77872991447839h-.444682909597759M20.635522918206334,9.410455757379168c.982458751162085,0,1.777824861064801.796271163313577,1.777824861064801,1.777825723018395,0,.982458751162994-.795366109902716,1.779633243979333-1.777824861064801,1.779633243979333h-.44468290959685M7.605967160850014,11.418757210476542c3.398385917407722-.814347234832894,6.804905248142859-5.010811836513312,6.804905248142859-10.011680152876579,0-1.244569114825936,2.467446254261631-1.416296535020592,3.11187358985535.889364095282872.729386854237418,2.604826466505983-.44468290959685,4.890603504331011-1.333143675377869,7.114014604496333h4.445920594735981M21.342314467553479,16.101479427665254v-.004519233369138"></path>
  </g>
</svg>
