<?xml version="1.0" encoding="UTF-8"?>
<svg xmlns="http://www.w3.org/2000/svg" xmlns:xlink="http://www.w3.org/1999/xlink" id="Layer_1" data-name="Layer 1" viewBox="0 0 280.9949951171875 52.603000640869141">
  <defs>
    <style>
      .cls-1 {
        clip-path: url(#clippath);
      }

      .cls-2 {
        fill: none;
      }

      .cls-2, .cls-3, .cls-4 {
        stroke-width: 0px;
      }

      .cls-3 {
        fill: #40beb2;
      }

      .cls-5 {
        clip-path: url(#clippath-1);
      }

      .cls-6 {
        clip-path: url(#clippath-4);
      }

      .cls-7 {
        clip-path: url(#clippath-3);
      }

      .cls-8 {
        clip-path: url(#clippath-2);
      }

      .cls-9 {
        clip-path: url(#clippath-5);
      }

      .cls-4 {
        fill: #fff;
      }
    </style>
    <clipPath id="clippath">
      <rect class="cls-2" width="280.9949951171875" height="52.603000640869141"></rect>
    </clipPath>
    <clipPath id="clippath-1">
      <rect class="cls-2" width="280.9949951171875" height="52.603000640869141"></rect>
    </clipPath>
    <clipPath id="clippath-2">
      <rect class="cls-2" width="280.9949951171875" height="52.603000640869141"></rect>
    </clipPath>
    <clipPath id="clippath-3">
      <rect class="cls-2" width="280.9949951171875" height="52.603000640869141"></rect>
    </clipPath>
    <clipPath id="clippath-4">
      <rect class="cls-2" width="280.9949951171875" height="52.603000640869141"></rect>
    </clipPath>
    <clipPath id="clippath-5">
      <rect class="cls-2" width="280.9949951171875" height="52.603000640869141"></rect>
    </clipPath>
  </defs>
  <g class="cls-1">
    <path class="cls-3" d="M133.216400146484375,12.803798675537109l8.287994384765625-8.121997833251953,8.08599853515625,8.121997833251953h-16.373992919921875ZM168.153396606445312,2.869800567626953l-17.845001220703125,5.715000152587891L141.50439453125-.000198364257812l-8.498001098632812,8.478000640869141-18.155998229980469-5.327003479003906c-.566993713378906-.165996551513672-1.178001403808594-.056999206542969-1.652000427246094.295001983642578l-44.125,32.673000335693359,42.76800537109375-22.671001434326172c.621994018554688-.329998016357422,1.376998901367188-.285999298095703,1.95599365234375.115001678466797l26.639007568359375,18.439998626708984c.642990112304688.447000503540039,1.4949951171875.449001312255859,2.139999389648438.005001068115234l26.826995849609375-18.444999694824219c.580001831054688-.4010009765625,1.339004516601562-.442001342773438,1.962005615234375-.107002258300781l41.9949951171875,22.663002014160156L169.867401123046875,3.162799835205078c-.490005493164062-.370998382568359-1.1300048828125-.480998992919922-1.714004516601562-.292999267578125"></path>
  </g>
  <polygon class="cls-4" points="6.324299812316895 41.315200805664062 2.289299964904785 45.889200687408447 2.289299964904785 41.315200805664062 .00029993057251 41.315200805664062 .00029993057251 52.326200485229492 2.289299964904785 52.326200485229492 2.289299964904785 47.09920072555542 6.516299724578857 52.326200485229492 9.714300155639648 52.326200485229492 4.695300102233887 46.432200908660889 9.317299842834473 41.315200805664062 6.324299812316895 41.315200805664062"></polygon>
  <rect class="cls-4" x="13.704000473022461" y="41.379000663757324" width="2.289999961853027" height="10.948999971151352"></rect>
  <polygon class="cls-4" points="28.862100601196289 41.315200805664062 28.862100601196289 49.005200862884521 28.831100463867188 49.005200862884521 24.41510009765625 41.315200805664062 21.305099487304688 41.315200805664062 21.305099487304688 52.380200386047363 23.594100952148438 52.380200386047363 23.594100952148438 44.50420093536377 23.625101089477539 44.50420093536377 28.156101226806641 52.380200386047363 31.152099609375 52.380200386047363 31.152099609375 41.315200805664062 28.862100601196289 41.315200805664062"></polygon>
  <g class="cls-5">
    <path class="cls-4" d="M37.518398284912109,50.848700642585754c.5.47599995136261,1.090000152587891.842000007629395,1.7760009765625,1.095999956130981.683998107910156.254999995231628,1.432998657226562.382000088691711,2.243999481201172.382000088691711.763999938964844,0,1.512001037597656-.078999996185303,2.244998931884766-.235000014305115.735000610351562-.156000018119812,1.437999725341797-.412000060081482,2.113002777099609-.766000032424927v-5.443000197410583h-4.064002990722656v2.118000030517578h1.862998962402344v1.693000316619873c-.214996337890625.116999864578247-.502998352050781.23199987411499-.864997863769531.345999717712402-.362998962402344.111000061035156-.792999267578125.169000148773193-1.291999816894531.169000148773193-.490001678466797,0-.930999755859375-.08299994468689-1.327999114990234-.250999927520752-.395999908447266-.166000127792358-.736000061035156-.39900016784668-1.019001007080078-.697000026702881-.284000396728516-.300000190734863-.500999450683594-.654000282287598-.653999328613281-1.059999942779541-.150001525878906-.407999992370605-.227001190185547-.855000019073486-.227001190185547-1.348000049591064,0-.479000091552734.076999664306641-.926000118255615.227001190185547-1.338000297546387.152999877929688-.413000106811523.369998931884766-.7669997215271.653999328613281-1.066999912261963.283000946044922-.298999786376953.623001098632812-.532999992370605,1.019001007080078-.698999404907227.396999359130859-.166000366210938.837997436523438-.25100040435791,1.327999114990234-.25100040435791.586997985839844,0,1.076999664306641.085000038146973,1.467998504638672.25100040435791.391002655029297.165999412536621.743000030517578.411999702453613,1.055999755859375.73699951171875l1.614002227783203-1.765999794006348c-.527999877929688-.491000175476074-1.143001556396484-.836999893188477-1.840000152587891-1.038000106811523-.701000213623047-.202000617980957-1.466999053955078-.302000045776367-2.298000335693359-.302000045776367-.811000823974609,0-1.560001373291016.126999855041504-2.243999481201172.382999420166016-.686000823974609.256000518798828-1.2760009765625.620000839233398-1.7760009765625,1.095000267028809-.5.476000785827637-.887001037597656,1.052000045776367-1.166999816894531,1.729000091552734-.278999328613281.677999973297119-.417999267578125,1.433000087738037-.417999267578125,2.266000270843506,0,.835000038146973.138999938964844,1.590000152587891.417999267578125,2.266999959945679.279998779296875.675999879837036.666999816894531,1.253000020980835,1.166999816894531,1.728999972343445"></path>
    <path class="cls-4" d="M55.060001373291016,49.943600654602051c-.1510009765625.088000059127808-.323001861572266.154000043869019-.51300048828125.197999954223633-.190998077392578.044000148773193-.378997802734375.065999984741211-.565998077392578.065999984741211-.381000518798828,0-.75-.085999965667725-1.107002258300781-.256999969482422-.356998443603516-.171000003814697-.652000427246094-.414999961853027-.887001037597656-.727999925613403l-1.628997802734375,1.794999957084656c.498001098632812.460000038146973,1.035999298095703.794000029563904,1.612998962402344.99999988079071.577999114990234.207000017166138,1.204002380371094.31000018119812,1.878002166748047.31000018119812.538997650146484,0,1.049999237060547-.069000005722046,1.534000396728516-.206000089645386.484996795654297-.138000011444092.909999847412109-.347999930381775,1.276996612548828-.633999943733215.366001129150391-.284000039100647.657001495361328-.641000032424927.872001647949219-1.073000073432922.215000152587891-.431999921798706.324001312255859-.937000036239624.324001312255859-1.516999959945679,0-.60699987411499-.117000579833984-1.092999935150146-.353000640869141-1.454999923706055-.235000610351562-.363999843597412-.530002593994141-.651999950408936-.888999938964844-.86899995803833-.354999542236328-.216000080108643-.740001678466797-.381999969482422-1.1510009765625-.50100040435791-.409999847412109-.116999626159668-.793998718261719-.234999656677246-1.1510009765625-.351999759674072-.357997894287109-.11899995803833-.652000427246094-.258999824523926-.88800048828125-.427999973297119-.234996795654297-.164999961853027-.351997375488281-.407000064849854-.351997375488281-.719999313354492,0-.196001052856445.048999786376953-.362000465393066.146999359130859-.501001358032227.097000122070312-.136999130249023.2239990234375-.246999740600586.381000518798828-.329999923706055.155998229980469-.082999229431152.323997497558594-.145999908447266.5-.182999610900879.175998687744141-.040999412536621.347000122070312-.060999870300293.51300048828125-.060999870300293.282997131347656,0,.583999633789062.057000160217285.902000427246094.170999526977539.316997528076172.111000061035156.568996429443359.286001205444336.755996704101562.520999908447266l1.569000244140625-1.721999168395996c-.439998626708984-.390999794006348-.932998657226562-.671999931335449-1.480998992919922-.838000297546387-.547000885009766-.168000221252441-1.116001129150391-.250999450683594-1.701999664306641-.250999450683594-.507999420166016,0-1.001998901367188.071999549865723-1.481998443603516.21399974822998-.479000091552734.142000198364258-.902000427246094.355000495910645-1.270000457763672.640000343322754-.367000579833984.283999443054199-.659999847412109.637999534606934-.880001068115234,1.059999465942383-.220001220703125.420999526977539-.330001831054688.91200065612793-.330001831054688,1.471000194549561,0,.578999996185303.120002746582031,1.044999599456787.359001159667969,1.396999835968018.240001678466797.354000091552734.541999816894531.638999938964844.902000427246094.854000091552734.362998962402344.215999603271484.754001617431641.388999938964844,1.174999237060547.515999794006348.420001983642578.126999855041504.811000823974609.254000186920166,1.173999786376953.383000373840332.360000610351562.126999855041504.662002563476562.280999660491943.902000427246094.461999893188477.239002227783203.182999610900879.359001159667969.429999828338623.359001159667969.742999792098999,0,.187000036239624-.045001983642578.348999977111816-.138999938964844.486000061035156-.093002319335938.138000011444092-.215000152587891.250999927520752-.367000579833984.33899998664856"></path>
  </g>
  <polygon class="cls-4" points="62.874000549316406 41.379100799560547 62.874000549316406 52.32810115814209 69.402999877929688 52.32810115814209 69.402999877929688 50.101100921630859 65.16400146484375 50.101100921630859 65.16400146484375 41.379100799560547 62.874000549316406 41.379100799560547"></polygon>
  <polygon class="cls-4" points="73.980903625488281 41.268400192260742 73.980903625488281 52.326399803161621 81.301902770996094 52.326399803161621 81.301902770996094 50.078400611877441 76.270904541015625 50.078400611877441 76.270904541015625 47.827400207519531 80.773902893066406 47.827400207519531 80.773902893066406 45.579400062561035 76.270904541015625 45.579400062561035 76.270904541015625 43.516400337219238 81.038902282714844 43.516400337219238 81.038902282714844 41.268400192260742 73.980903625488281 41.268400192260742"></polygon>
  <polygon class="cls-4" points="92.395797729492188 41.268400192260742 90.061798095703125 45.406400203704834 87.861801147460938 41.268400192260742 85.014801025390625 41.268400192260742 88.917800903320312 47.609400272369385 88.917800903320312 52.326399803161621 91.206794738769531 52.326399803161621 91.206794738769531 47.609400272369385 95.109794616699219 41.268400192260742 92.395797729492188 41.268400192260742"></polygon>
  <polygon class="cls-4" points="6.324299812316895 41.315200805664062 2.289299964904785 45.889200687408447 2.289299964904785 41.315200805664062 .00029993057251 41.315200805664062 .00029993057251 52.326200485229492 2.289299964904785 52.326200485229492 2.289299964904785 47.09920072555542 6.516299724578857 52.326200485229492 9.714300155639648 52.326200485229492 4.695300102233887 46.432200908660889 9.317299842834473 41.315200805664062 6.324299812316895 41.315200805664062"></polygon>
  <rect class="cls-4" x="13.704000473022461" y="41.379000663757324" width="2.289999961853027" height="10.948999971151352"></rect>
  <polygon class="cls-4" points="28.862100601196289 41.315200805664062 28.862100601196289 49.005200862884521 28.831100463867188 49.005200862884521 24.41510009765625 41.315200805664062 21.305099487304688 41.315200805664062 21.305099487304688 52.380200386047363 23.594100952148438 52.380200386047363 23.594100952148438 44.50420093536377 23.625101089477539 44.50420093536377 28.156101226806641 52.380200386047363 31.152099609375 52.380200386047363 31.152099609375 41.315200805664062 28.862100601196289 41.315200805664062"></polygon>
  <g class="cls-8">
    <path class="cls-4" d="M37.518398284912109,50.848700642585754c.5.47599995136261,1.090000152587891.842000007629395,1.7760009765625,1.095999956130981.683998107910156.254999995231628,1.432998657226562.382000088691711,2.243999481201172.382000088691711.763999938964844,0,1.512001037597656-.078999996185303,2.244998931884766-.235000014305115.735000610351562-.156000018119812,1.437999725341797-.412000060081482,2.113002777099609-.766000032424927v-5.443000197410583h-4.064002990722656v2.118000030517578h1.862998962402344v1.693000316619873c-.214996337890625.116999864578247-.502998352050781.23199987411499-.864997863769531.345999717712402-.362998962402344.111000061035156-.792999267578125.169000148773193-1.291999816894531.169000148773193-.490001678466797,0-.930999755859375-.08299994468689-1.327999114990234-.250999927520752-.395999908447266-.166000127792358-.736000061035156-.39900016784668-1.019001007080078-.697000026702881-.284000396728516-.300000190734863-.500999450683594-.654000282287598-.653999328613281-1.059999942779541-.150001525878906-.407999992370605-.227001190185547-.855000019073486-.227001190185547-1.348000049591064,0-.479000091552734.076999664306641-.926000118255615.227001190185547-1.338000297546387.152999877929688-.413000106811523.369998931884766-.7669997215271.653999328613281-1.066999912261963.283000946044922-.298999786376953.623001098632812-.532999992370605,1.019001007080078-.698999404907227.396999359130859-.166000366210938.837997436523438-.25100040435791,1.327999114990234-.25100040435791.586997985839844,0,1.076999664306641.085000038146973,1.467998504638672.25100040435791.391002655029297.165999412536621.743000030517578.411999702453613,1.055999755859375.73699951171875l1.614002227783203-1.765999794006348c-.527999877929688-.491000175476074-1.143001556396484-.836999893188477-1.840000152587891-1.038000106811523-.701000213623047-.202000617980957-1.466999053955078-.302000045776367-2.298000335693359-.302000045776367-.811000823974609,0-1.560001373291016.126999855041504-2.243999481201172.382999420166016-.686000823974609.256000518798828-1.2760009765625.620000839233398-1.7760009765625,1.095000267028809-.5.476000785827637-.887001037597656,1.052000045776367-1.166999816894531,1.729000091552734-.278999328613281.677999973297119-.417999267578125,1.433000087738037-.417999267578125,2.266000270843506,0,.835000038146973.138999938964844,1.590000152587891.417999267578125,2.266999959945679.279998779296875.675999879837036.666999816894531,1.253000020980835,1.166999816894531,1.728999972343445"></path>
    <path class="cls-4" d="M55.060001373291016,49.943600654602051c-.1510009765625.088000059127808-.323001861572266.154000043869019-.51300048828125.197999954223633-.190998077392578.044000148773193-.378997802734375.065999984741211-.565998077392578.065999984741211-.381000518798828,0-.75-.085999965667725-1.107002258300781-.256999969482422-.356998443603516-.171000003814697-.652000427246094-.414999961853027-.887001037597656-.727999925613403l-1.628997802734375,1.794999957084656c.498001098632812.460000038146973,1.035999298095703.794000029563904,1.612998962402344.99999988079071.577999114990234.207000017166138,1.204002380371094.31000018119812,1.878002166748047.31000018119812.538997650146484,0,1.049999237060547-.069000005722046,1.534000396728516-.206000089645386.484996795654297-.138000011444092.909999847412109-.347999930381775,1.276996612548828-.633999943733215.366001129150391-.284000039100647.657001495361328-.641000032424927.872001647949219-1.073000073432922.215000152587891-.431999921798706.324001312255859-.937000036239624.324001312255859-1.516999959945679,0-.60699987411499-.117000579833984-1.092999935150146-.353000640869141-1.454999923706055-.235000610351562-.363999843597412-.530002593994141-.651999950408936-.888999938964844-.86899995803833-.354999542236328-.216000080108643-.740001678466797-.381999969482422-1.1510009765625-.50100040435791-.409999847412109-.116999626159668-.793998718261719-.234999656677246-1.1510009765625-.351999759674072-.357997894287109-.11899995803833-.652000427246094-.258999824523926-.88800048828125-.427999973297119-.234996795654297-.164999961853027-.351997375488281-.407000064849854-.351997375488281-.719999313354492,0-.196001052856445.048999786376953-.362000465393066.146999359130859-.501001358032227.097000122070312-.136999130249023.2239990234375-.246999740600586.381000518798828-.329999923706055.155998229980469-.082999229431152.323997497558594-.145999908447266.5-.182999610900879.175998687744141-.040999412536621.347000122070312-.060999870300293.51300048828125-.060999870300293.282997131347656,0,.583999633789062.057000160217285.902000427246094.170999526977539.316997528076172.111000061035156.568996429443359.286001205444336.755996704101562.520999908447266l1.569000244140625-1.721999168395996c-.439998626708984-.390999794006348-.932998657226562-.671999931335449-1.480998992919922-.838000297546387-.547000885009766-.168000221252441-1.116001129150391-.250999450683594-1.701999664306641-.250999450683594-.507999420166016,0-1.001998901367188.071999549865723-1.481998443603516.21399974822998-.479000091552734.142000198364258-.902000427246094.355000495910645-1.270000457763672.640000343322754-.367000579833984.283999443054199-.659999847412109.637999534606934-.880001068115234,1.059999465942383-.220001220703125.420999526977539-.330001831054688.91200065612793-.330001831054688,1.471000194549561,0,.578999996185303.120002746582031,1.044999599456787.359001159667969,1.396999835968018.240001678466797.354000091552734.541999816894531.638999938964844.902000427246094.854000091552734.362998962402344.215999603271484.754001617431641.388999938964844,1.174999237060547.515999794006348.420001983642578.126999855041504.811000823974609.254000186920166,1.173999786376953.383000373840332.360000610351562.126999855041504.662002563476562.280999660491943.902000427246094.461999893188477.239002227783203.182999610900879.359001159667969.429999828338623.359001159667969.742999792098999,0,.187000036239624-.045001983642578.348999977111816-.138999938964844.486000061035156-.093002319335938.138000011444092-.215000152587891.250999927520752-.367000579833984.33899998664856"></path>
  </g>
  <polygon class="cls-4" points="62.874000549316406 41.379100799560547 62.874000549316406 52.32810115814209 69.402999877929688 52.32810115814209 69.402999877929688 50.101100921630859 65.16400146484375 50.101100921630859 65.16400146484375 41.379100799560547 62.874000549316406 41.379100799560547"></polygon>
  <polygon class="cls-4" points="73.980903625488281 41.268400192260742 73.980903625488281 52.326399803161621 81.301902770996094 52.326399803161621 81.301902770996094 50.078400611877441 76.270904541015625 50.078400611877441 76.270904541015625 47.827400207519531 80.773902893066406 47.827400207519531 80.773902893066406 45.579400062561035 76.270904541015625 45.579400062561035 76.270904541015625 43.516400337219238 81.038902282714844 43.516400337219238 81.038902282714844 41.268400192260742 73.980903625488281 41.268400192260742"></polygon>
  <polygon class="cls-4" points="92.395797729492188 41.268400192260742 90.061798095703125 45.406400203704834 87.861801147460938 41.268400192260742 85.014801025390625 41.268400192260742 88.917800903320312 47.609400272369385 88.917800903320312 52.326399803161621 91.206794738769531 52.326399803161621 91.206794738769531 47.609400272369385 95.109794616699219 41.268400192260742 92.395797729492188 41.268400192260742"></polygon>
  <g class="cls-7">
    <path class="cls-4" d="M103.72650146484375,46.167200565338135h1.560005187988281c.879997253417969,0,1.319000244140625-.395999908447266,1.319000244140625-1.190000057220459,0-.375999450683594-.110000610351562-.669999122619629-.329002380371094-.88499927520752-.220001220703125-.215000152587891-.550003051757812-.322000503540039-.989997863769531-.322000503540039h-1.560005187988281v2.396999835968018ZM106.348503112792969,52.490200638771057l-2.301002502441406-4.199000000953674h-.320999145507812v4.199000000953674h-3.169998168945312v-11.389999985694885h5.002998352050781c.912002563476562,0,1.687004089355469.157999992370605,2.325004577636719.475000381469727.63800048828125.315999984741211,1.117996215820312.753000259399414,1.439994812011719,1.310999870300293.321998596191406.557000160217285.483001708984375,1.185000419616699.483001708984375,1.881999492645264,0,.794000148773193-.220001220703125,1.4830002784729-.659996032714844,2.066999912261963-.44000244140625.585000038146973-1.073005676269531.99500036239624-1.898002624511719,1.231000423431396l2.589996337890625,4.423999905586243h-3.490997314453125Z"></path>
    <path class="cls-4" d="M118.236701965332031,44.631200790405273c-.46099853515625.519999980926514-.691001892089844,1.230999946594238-.691001892089844,2.131999969482422,0,.879000186920166.230003356933594,1.581999778747559.691001892089844,2.10699987411499.461997985839844.526000022888184,1.095001220703125.789000034332275,1.899002075195312.789000034332275.793998718261719,0,1.420997619628906-.263000011444092,1.881996154785156-.789000034332275.46099853515625-.525000095367432.692001342773438-1.227999687194824.692001342773438-2.10699987411499,0-.901000022888184-.227996826171875-1.611999988555908-.683998107910156-2.131999969482422-.456001281738281-.520000457763672-1.086006164550781-.779999732971191-1.889999389648438-.779999732971191-.804000854492188,0-1.437004089355469.25999927520752-1.899002075195312.779999732971191M123.071701049804688,41.671200752258301c.885002136230469.498000144958496,1.582000732421875,1.192999839782715,2.09100341796875,2.083000183105469.509994506835938.890999794006348.763999938964844,1.892999649047852.763999938964844,3.008999824523926,0,1.114999771118164-.257003784179688,2.118000030517578-.772003173828125,3.008000373840332-.514999389648438.889999389648438-1.213996887207031,1.585000038146973-2.0989990234375,2.083999633789062-.885002136230469.498000144958496-1.858001708984375.748000144958496-2.919998168945312.748000144958496-1.062004089355469,0-2.038002014160156-.25-2.928001403808594-.748000144958496-.889999389648438-.49899959564209-1.593002319335938-1.194000244140625-2.107002258300781-2.083999633789062-.514999389648438-.890000343322754-.773002624511719-1.893000602722168-.773002624511719-3.008000373840332,0-1.116000175476074.258003234863281-2.118000030517578.773002624511719-3.008999824523926.513999938964844-.890000343322754,1.217002868652344-1.585000038146973,2.107002258300781-2.083000183105469.889999389648438-.49899959564209,1.865997314453125-.748000144958496,2.928001403808594-.748000144958496,1.071998596191406,0,2.050994873046875.249000549316406,2.935997009277344.748000144958496"></path>
    <path class="cls-4" d="M134.516891479492188,44.631200790405273c-.46099853515625.519999980926514-.690994262695312,1.230999946594238-.690994262695312,2.131999969482422,0,.879000186920166.229995727539062,1.581999778747559.690994262695312,2.10699987411499.462005615234375.526000022888184,1.095001220703125.789000034332275,1.899002075195312.789000034332275.79400634765625,0,1.421005249023438-.263000011444092,1.882003784179688-.789000034332275.46099853515625-.525000095367432.692001342773438-1.227999687194824.692001342773438-2.10699987411499,0-.901000022888184-.227996826171875-1.611999988555908-.684005737304688-2.131999969482422-.45599365234375-.520000457763672-1.08599853515625-.779999732971191-1.889999389648438-.779999732971191s-1.436996459960938.25999927520752-1.899002075195312.779999732971191M139.351898193359375,41.671200752258301c.884994506835938.498000144958496,1.582000732421875,1.192999839782715,2.09100341796875,2.083000183105469.509994506835938.890999794006348.763992309570312,1.892999649047852.763992309570312,3.008999824523926,0,1.114999771118164-.256988525390625,2.118000030517578-.772003173828125,3.008000373840332-.514999389648438.889999389648438-1.2139892578125,1.585000038146973-2.0989990234375,2.083999633789062-.884994506835938.498000144958496-1.857986450195312.748000144958496-2.919998168945312.748000144958496-1.061996459960938,0-2.037994384765625-.25-2.927993774414062-.748000144958496-.889999389648438-.49899959564209-1.593002319335938-1.194000244140625-2.10699462890625-2.083999633789062-.514999389648438-.890000343322754-.77301025390625-1.893000602722168-.77301025390625-3.008000373840332,0-1.116000175476074.258010864257812-2.118000030517578.77301025390625-3.008999824523926.513992309570312-.890000343322754,1.216995239257812-1.585000038146973,2.10699462890625-2.083000183105469.889999389648438-.49899959564209,1.865997314453125-.748000144958496,2.927993774414062-.748000144958496,1.072006225585938,0,2.051010131835938.249000549316406,2.936004638671875.748000144958496"></path>
  </g>
  <polygon class="cls-4" points="147.211196899414062 41.100100517272949 147.211196899414062 52.490100860595703 150.380203247070312 52.490100860595703 150.380203247070312 48.034100532531738 153.790191650390625 48.034100532531738 153.790191650390625 45.653100490570068 150.380203247070312 45.653100490570068 150.380203247070312 43.625101089477539 154.948196411132812 43.625101089477539 154.948196411132812 41.100100517272949 147.211196899414062 41.100100517272949"></polygon>
  <rect class="cls-4" x="159.839004516601562" y="41.100000381469727" width="3.169998168945312" height="11.390000261366367"></rect>
  <polygon class="cls-4" points="175.70159912109375 41.116300582885742 175.70159912109375 47.551300525665283 171.518600463867188 41.116300582885742 168.349594116210938 41.116300582885742 168.349594116210938 52.490300178527832 171.518600463867188 52.490300178527832 171.518600463867188 46.135300636291504 175.70159912109375 52.490300178527832 178.87060546875 52.490300178527832 178.87060546875 41.116300582885742 175.70159912109375 41.116300582885742"></polygon>
  <g class="cls-6">
    <path class="cls-4" d="M193.188995361328125,42.065300941467285c.932998657226562.708000183105469,1.496002197265625,1.663000106811523,1.688995361328125,2.86400032043457h-3.330001831054688c-.1719970703125-.311000347137451-.423995971679688-.558000564575195-.755996704101562-.74000072479248-.332992553710938-.182999610900879-.7239990234375-.273999214172363-1.175003051757812-.273999214172363-.771987915039062,0-1.386001586914062.25999927520752-1.841995239257812.779999732971191-.45599365234375.519999980926514-.682998657226562,1.215000152587891-.682998657226562,2.084000110626221,0,.985999584197998.242996215820312,1.734999656677246.73199462890625,2.24399995803833.488006591796875.508999824523926,1.2030029296875.763999938964844,2.147003173828125.763999938964844.537002563476562,0,1.00799560546875-.128000259399414,1.416000366210938-.386000156402588.408004760742188-.256999969482422.72900390625-.638000011444092.964996337890625-1.142000198364258h-3.152999877929688v-2.251999855041504h5.7760009765625v3.13700008392334c-.407989501953125.943999767303467-1.05999755859375,1.750000476837158-1.955001831054688,2.421000003814697-.89599609375.670000076293945-2.02398681640625,1.005000114440918-3.385986328125,1.005000114440918-1.159011840820312,0-2.172012329101562-.244000434875488-3.041000366210938-.732000350952148-.869003295898438-.48799991607666-1.5360107421875-1.170999526977539-2.003005981445312-2.050999641418457-.46600341796875-.879000186920166-.699996948242188-1.881999969482422-.699996948242188-3.007999897003174s.233993530273438-2.127000331878662.699996948242188-3.000999927520752c.466995239257812-.874000549316406,1.128997802734375-1.555000305175781,1.98699951171875-2.043000221252441s1.865997314453125-.732000350952148,3.024002075195312-.732000350952148c1.458999633789062,0,2.654998779296875.354000091552734,3.587997436523438,1.062000274658203"></path>
    <path class="cls-4" d="M204.104095458984375,49.699200630187988c.199005126953125-.188000202178955.298004150390625-.432000160217285.298004150390625-.73199987411499,0-.300000190734863-.10699462890625-.545000076293945-.322006225585938-.732000350952148-.2139892578125-.187999725341797-.47698974609375-.282000064849854-.787994384765625-.282000064849854s-.563003540039062.089000225067139-.755996704101562.265000343322754c-.193008422851562.177999973297119-.290008544921875.421999931335449-.290008544921875.732999801635742,0,.311000347137451.102005004882812.559999942779541.305999755859375.748000144958496.2030029296875.186999797821045.461013793945312.281000137329102.772003173828125.281000137329102.322006225585938,0,.582000732421875-.094000339508057.779998779296875-.281000137329102M207.137100219726562,52.490200638771057l-.981002807617188-1.238999962806702c-.054000854492188.074999928474426-.1510009765625.181999921798706-.289993286132812.322000026702881-.290008544921875.321999907493591-.6510009765625.57399994134903-1.08599853515625.75599992275238-.434005737304688.182000011205673-.925003051757812.274000011384487-1.472000122070312.274000011384487-.79400634765625,0-1.475006103515625-.159000001847744-2.042999267578125-.474999986588955-.568008422851562-.315999984741211-.998001098632812-.746000051498413-1.287002563476562-1.287000060081482-.290008544921875-.54200005531311-.43499755859375-1.144999742507935-.43499755859375-1.81000018119812,0-.878999710083008.227996826171875-1.617000102996826.683990478515625-2.211999893188477.456008911132812-.59499979019165,1.042999267578125-.973000049591064,1.762008666992188-1.133999824523926l-.193008422851562-.338000297546387c-.25799560546875-.535999774932861-.386001586914062-1.055999755859375-.386001586914062-1.560999870300293,0-.481999397277832.134002685546875-.937999725341797.402008056640625-1.366999626159668.267990112304688-.428999900817871.662002563476562-.774999618530273,1.182998657226562-1.038000106811523.518997192382812-.26200008392334,1.143997192382812-.394000053405762,1.873992919921875-.394000053405762,1.822998046875,0,2.981002807617188.723999977111816,3.475006103515625,2.171999931335449.1820068359375.546999931335449.257003784179688,1.131999969482422.225006103515625,1.753999710083008h-2.944000244140625c0-.257999897003174-.016006469726562-.466999053955078-.04901123046875-.627999305725098-.030990600585938-.449999809265137-.246002197265625-.675000190734863-.642990112304688-.675000190734863-.172012329101562,0-.307998657226562.048000335693359-.410003662109375.144000053405762-.102005004882812.097000122070312-.152999877929688.22599983215332-.152999877929688.38599967956543,0,.140000343322754.02899169921875.269000053405762.087997436523438.38599967956543.059005737304688.119000434875488.16900634765625.290000438690186.330001831054688.515000343322754l5.501998901367188,7.449000000953674h-3.152999877929688Z"></path>
    <path class="cls-4" d="M222.790206909179688,50.929600596427917c-.322006225585938.514999985694885-.79400634765625.922999978065491-1.416000366210938,1.223000049591064-.621994018554688.299999952316284-1.36700439453125.449999928474426-2.235992431640625.449999928474426-1.319000244140625,0-2.405014038085938-.315999984741211-3.258010864257812-.949000000953674-.85198974609375-.633000016212463-1.315994262695312-1.534000039100647-1.3909912109375-2.702999949455261h3.36199951171875c.031997680664062.396999835968018.154998779296875.691999912261963.3699951171875.884999990463257s.477005004882812.289999961853027.787994384765625.289999961853027c.279006958007812,0,.496002197265625-.069999933242798.652008056640625-.208999872207642.154998779296875-.140000104904175.233001708984375-.339000225067139.233001708984375-.596000194549561,0-.342999935150146-.154998779296875-.607999801635742-.467010498046875-.796000003814697-.310989379882812-.187999725341797-.804000854492188-.394000053405762-1.478988647460938-.61899995803833-.719009399414062-.246999740600586-1.31201171875-.488999843597412-1.777999877929688-.723999977111816-.467010498046875-.236000061035156-.869003295898438-.589999675750732-1.207000732421875-1.061999797821045s-.507003784179688-1.078000068664551-.507003784179688-1.818000316619873c0-.708000183105469.182998657226562-1.317000389099121.548004150390625-1.826000213623047.363998413085938-.508999824523926.862991333007812-.895999908447266,1.496002197265625-1.157999992370605.631988525390625-.262999534606934,1.350997924804688-.393999099731445,2.154998779296875-.393999099731445,1.308990478515625,0,2.35198974609375.307999610900879,3.129989624023438.923999786376953.777008056640625.616999626159668,1.2030029296875,1.482999801635742,1.279006958007812,2.598999977111816h-3.395004272460938c-.042999267578125-.354000091552734-.152999877929688-.617000579833984-.330001831054688-.789000511169434-.177001953125-.170999526977539-.410003662109375-.256999969482422-.699996948242188-.256999969482422-.246994018554688,0-.44000244140625.064000129699707-.578994750976562.192999839782715-.139007568359375.129000663757324-.208999633789062.322000503540039-.208999633789062.579000473022461,0,.321999549865723.152999877929688.573999881744385.457992553710938.75600004196167.305999755859375.183000087738037.785995483398438.386000156402588,1.441009521484375.611999988555908.717987060546875.256999969482422,1.31298828125.508999824523926,1.784988403320312.75600004196167.472000122070312.246999740600586.878997802734375.605999946594238,1.223007202148438,1.077999591827393.343002319335938.472000122070312.514999389648438,1.083000183105469.514999389648438,1.833000183105469,0,.633999824523926-.160995483398438,1.207000017166138-.483001708984375,1.722000002861023"></path>
    <path class="cls-4" d="M231.830795288085938,44.631200790405273c-.46099853515625.519999980926514-.690994262695312,1.230999946594238-.690994262695312,2.131999969482422,0,.879000186920166.229995727539062,1.581999778747559.690994262695312,2.10699987411499.462005615234375.526000022888184,1.095001220703125.789000034332275,1.899002075195312.789000034332275.79400634765625,0,1.421005249023438-.263000011444092,1.882003784179688-.789000034332275.46099853515625-.525000095367432.692001342773438-1.227999687194824.692001342773438-2.10699987411499,0-.901000022888184-.227996826171875-1.611999988555908-.684005737304688-2.131999969482422-.45599365234375-.520000457763672-1.08599853515625-.779999732971191-1.889999389648438-.779999732971191s-1.436996459960938.25999927520752-1.899002075195312.779999732971191M236.665802001953125,41.671200752258301c.884994506835938.498000144958496,1.582000732421875,1.192999839782715,2.09100341796875,2.083000183105469.509994506835938.890999794006348.763992309570312,1.892999649047852.763992309570312,3.008999824523926,0,1.114999771118164-.256988525390625,2.118000030517578-.772003173828125,3.008000373840332-.514999389648438.889999389648438-1.2139892578125,1.585000038146973-2.0989990234375,2.083999633789062-.884994506835938.498000144958496-1.857986450195312.748000144958496-2.919998168945312.748000144958496-1.061996459960938,0-2.037994384765625-.25-2.927993774414062-.748000144958496-.889999389648438-.49899959564209-1.593002319335938-1.194000244140625-2.10699462890625-2.083999633789062-.514999389648438-.890000343322754-.77301025390625-1.893000602722168-.77301025390625-3.008000373840332,0-1.116000175476074.258010864257812-2.118000030517578.77301025390625-3.008999824523926.513992309570312-.890000343322754,1.216995239257812-1.585000038146973,2.10699462890625-2.083000183105469.889999389648438-.49899959564209,1.865997314453125-.748000144958496,2.927993774414062-.748000144958496,1.072006225585938,0,2.051010131835938.249000549316406,2.936004638671875.748000144958496"></path>
  </g>
  <polygon class="cls-4" points="244.52459716796875 41.100100517272949 244.52459716796875 52.490100860595703 251.249603271484375 52.490100860595703 251.249603271484375 50.093100547790527 247.693603515625 50.093100547790527 247.693603515625 41.100100517272949 244.52459716796875 41.100100517272949"></polygon>
  <path class="cls-4" d="M261.207000732421875,44.509700775146484l1.222991943359375,3.700999736785889h-2.46099853515625l1.238006591796875-3.700999736785889ZM259.389007568359375,41.148700714111328l-4.1669921875,11.342000007629395h3.33099365234375l.626983642578125-1.89900016784668h4.03802490234375l.62799072265625,1.89900016784668h3.34600830078125l-4.1510009765625-11.342000007629395h-3.652008056640625Z"></path>
  <g class="cls-9">
    <path class="cls-4" d="M274.882476806640625,46.167200565338135h1.55999755859375c.8800048828125,0,1.32000732421875-.395999908447266,1.32000732421875-1.190000057220459,0-.375999450683594-.110992431640625-.669999122619629-.329986572265625-.88499927520752-.220001220703125-.215000152587891-.550018310546875-.322000503540039-.990020751953125-.322000503540039h-1.55999755859375v2.396999835968018ZM277.504486083984375,52.490200638771057l-2.300994873046875-4.199000000953674h-.321014404296875v4.199000000953674h-3.16998291015625v-11.389999985694885h5.00299072265625c.9119873046875,0,1.68701171875.157999992370605,2.32501220703125.475000381469727.63800048828125.315999984741211,1.11798095703125.753000259399414,1.44000244140625,1.310999870300293.321990966796875.557000160217285.483001708984375,1.185000419616699.483001708984375,1.881999492645264,0,.794000148773193-.220001220703125,1.4830002784729-.660003662109375,2.066999912261963-.44000244140625.585000038146973-1.072998046875.99500036239624-1.89801025390625,1.231000423431396l2.589996337890625,4.423999905586243h-3.490997314453125Z"></path>
  </g>
</svg>
