<?xml version="1.0" encoding="utf-8"?>
<!-- Generator: Adobe Illustrator 27.3.1, SVG Export Plug-In . SVG Version: 6.00 Build 0)  -->
<svg version="1.1" id="Layer_1" xmlns="http://www.w3.org/2000/svg" xmlns:xlink="http://www.w3.org/1999/xlink" x="0px" y="0px"
	 viewBox="0 0 841.9 595.3" style="enable-background:new 0 0 841.9 595.3;" xml:space="preserve">
<style type="text/css">
	.st0{fill:#09682F;}
</style>
<g>
	<path class="st0" d="M632.2,300.8c-14,30.6-31.9,56.5-33.6,93.1s19.3,45.6,19.3,45.6s-13.3,15-49.9,16c-20.3,0.6-67.8-7.6-139.3-7
		c-71.5,0.7-168.3,13-168.3,13H38.9V122.9h719.7v131c0,0-21.3-27.3-39.9-41.9s-55.5-40.6-56.2-41.6c-0.7-1-0.3-2,0.7-2.3
		c1-0.3,7.3,3,12,4.3c4.7,1.3,21.6,2.3,23.9,2c2.3-0.3,1.7-4.7-1.3-13.3c-3-8.6-13.3-13.6-19-13.3c-5.7,0.3-25.6,6.7-25.6,6.7
		s4.7-7,8-11c3.3-4,6-12.6,2-16c-4-3.3-16-3.3-25.9,7c-6.2,6.5-11,18.6-11,18.6s-12.3,0.3-23.9,4.3c-7.5,2.6-13,8.6-22.6,20.6
		c-9.6,12-22.9,40.6-23.6,62.9c-0.7,22.3,9.6,17.6,18.3,11.6s41.2-33.3,52.2-32.3c11,1,26.2,18.5,25.9,30.3
		C652.2,264.9,646.2,270.2,632.2,300.8z M112.4,168.2c0,0-4.2,6.2-9.5,15.7s-17.5,32.6-21.7,41.9c-4.2,9.3-8.9,16-10,23.9
		c-1.1,8-0.2,15.7,1.8,17.1s3.5,0.7,4.7-0.4c1.1-1.1,8.6-19.3,19.7-40.3s23.3-38.1,25.5-44.3c2.2-6.2,3.1-15.7,3.1-15.7
		s0.2,0.7,9.3-0.4c9.1-1.1,12-2.9,16.6-2.4s6.9,1.8,7.3,0.9c0.4-0.9,0.7-7.1-4.7-10.2c-5.3-3.1-11.7-4-19.3-3.1
		c-7.5,0.9-22.8,3.5-29.5,4.2c-6.7,0.7-16.8,0.9-20,0.9c-3.1,0-5.5,0.2-5.3,2.4c0.2,2.2,4.2,8.4,8.4,10.2c4.2,1.8,11.3,1.8,16.6,1.1
		S112.4,168.2,112.4,168.2z M159.1,201.4c0,0,13.3-18.8,17.7-25.9s8.9-15.3,8.9-20.2s-0.9-10.6-3.3-11.1c-2.4-0.4-4.7,0.4-6.4,3.3
		c-1.8,2.9-19.5,28.6-29.3,45.7c-9.8,17.1-24.6,43.2-27.9,52.5c-2.3,6.5-3.3,14.2-2,17.7c1.3,3.5,2.8,4.9,4.7,5.1
		c5.1,0.7,8.8-23,23.5-42.3c16.2-21.3,27.9-25.3,29-24.2c1.1,1.1,0.2,4.4-1.8,7.8c-2,3.3-16.5,27.4-19.1,35.7
		c-3.1,10-0.9,25.1,14.4,25.3c15.3,0.2,27.9-16.4,27.9-16.4s6.1,17.2,24.2,15.7c21.9-1.8,28.8-12.2,33.7-15.7c4.9-3.5,8-16,6.2-17.1
		c-1.8-1.1-4.9-0.7-6.9,2.9c-2,3.5-15.7,20.3-28.6,22.6c-21.9,4-14.4-27.5-14.4-27.5s10.4,8.4,19.5,5.8c9.1-2.7,18.2-9.1,21.1-17.1
		s6.2-25.1-8.2-30.4c-14.4-5.3-33,5.8-41.9,24.8c-8.9,19.1-8,25.9-8,25.9s-12.2,22.2-21.1,18.8c-8.9-3.3-0.9-19.7,3.3-27.7
		s18.4-28,13.1-37.5C179.5,183.9,159.1,201.4,159.1,201.4z M223.4,212c8.6-10.9,16.2-11.3,17.7-10c1.6,1.3,1.1,6.7-9.1,20.2
		c-10.2,13.5-17.2,9.8-17.7,8C213.5,227.3,214.8,222.9,223.4,212z M331,170.6c0,0-6,11.1-12.2,21.9S301,228,296.8,238
		c-4.2,10-5.5,20.4-4.4,24.2c1.1,3.8,2.9,6,4.7,6c1.8,0,12.9-24.6,15.3-29.5s4-9.1,4-9.1s2.7,6,19.5,0.2
		c16.8-5.8,36.6-16.2,46.8-31.9s8.6-53.4-15.3-49.4c-23.9,4-41.5,11.3-44.3,10.4c-2.9-0.9-4,1.8-4,2.4s1.3,6.2,4.9,7.8
		C327.4,170.6,331,170.6,331,170.6z M367.5,163.1c10.9-3.1,12.9,6.2,11.7,10.9s-0.9,11.3-19.7,27.5c-16,13.7-37.2,16-36.8,15.1
		s7.5-13.1,12-19.1c4.4-6,9.8-20.8,10.6-22.6c0.9-1.8-0.7-4.2-0.7-4.2C346.5,169.9,356.7,166.2,367.5,163.1z M389.7,235.5
		c0,0,6,6.9,14.4,6.2c8.4-0.7,20.2-8.9,23.7-15.7c3.5-6.9,8.4-22.4-2.2-29.5c-10.6-7.1-29.5-7.3-46.1,21.5
		c-16.6,28.8-2.4,50.9,14.2,51.7c23.5,1.1,36.8-14.4,36.8-14.4s9.1,15.8,26.6,14.4c21.7-1.8,30.4-12.6,30.4-12.6s5.8,12.4,17.3,13.1
		c11.5,0.7,26.4-16.2,29-20.2s3.5-13.5,1.3-14.2c-2.2-0.7-7.8,8.4-13.1,14.9c-5.3,6.4-11.7,15.5-17.5,12.6
		c-5.8-2.9-9.1-14.9,6.4-41.2c15.5-26.4,16.6-29.5,16.6-29.5s8.2-0.9,12.2-1.1c4-0.2,4.9-1.6,5.1-3.3c0.2-1.8-0.2-2.9-4.2-4.7
		c-4-1.8-8-2-8-2s2.2-5.1,3.5-7.8c1.3-2.7,2.2-12.9-1.3-14.9c-3.5-2-7.5,3.5-12.2,12c-4.7,8.4-7.3,12.9-7.3,12.9s-4.7,0.7-9.3,0.4
		c-4.7-0.2-9.5,0.2-9.8,1.1c-0.2,0.9,1.3,6,6,7.1c4.7,1.1,6.7,0.7,6.7,1.8c0,1.1-12,23.7-16.2,32.8c-4.2,9.1-4,13.5-6,16.2
		s-4.9,7.8-9.1,11.7c-4.2,4-9.3,5.3-9.3,5.3s6.9-2.8,6.4-25.1c-0.4-22.8-3.3-31.3-0.9-36.8c2.4-5.5,6.2-7.8,4.2-10.4
		c-2-2.7-7.1-4.4-11.1-1.3c-4,3.1-7.1,6.7-7.1,9.1s0.7,4.7-0.4,6.7c-1.1,2-5.8,10.9-11.5,18.6c-5.8,7.8-9.1,12.6-10.2,12.4
		s1.3-6.2-0.2-6.4c-1.6-0.2-4.7,0-7.1,4.7c-2.4,4.7-2.9,15.3-2.9,15.3s-13.7,17.1-27.3,16.8C379.5,263.3,389.7,235.5,389.7,235.5z
		 M440.2,244.9c0,0,7.3-8.4,10.6-14c3.3-5.5,9.3-15.5,9.3-15.5s1.1,25.5-0.7,34.1s-1.8,13.1-6.4,12.9c-4.7-0.2-10.2-4.9-11.7-10.2
		C439.8,246.9,440.2,244.9,440.2,244.9z M392.6,230.7c-1.3-1.2-1.1-6.7,10.4-18.8c8.8-9.3,16-12,17.5-10.6c1.6,1.3,0.7,7.1-7.8,19.3
		C405.3,231.3,397,234.9,392.6,230.7z M68.5,277.2v145h25.9v-70.5l15.5,47.2h14l16-48.6v71.2h24.8V277.7h-24.2L117,345.1l-23.7-67.6
		C93.3,277.4,68.9,277.7,68.5,277.2z M194.4,422.4l6-30.4h21.5l6,30.2H254l-31.7-144.5l-21.7-0.2l-31.5,144.8
		C168.8,421.9,194.4,422.4,194.4,422.4z M211.5,334.4l7.3,34.1h-14.2L211.5,334.4z M280.3,377.7h-24.5c0,0,0,9.1,0,16.2
		c0,12,13.3,31,36.1,30.6c22.8-0.4,37.7-16,37.7-40.3c0-24.4-2.7-35.7-16.4-43c-13.3-7.1-31.9-8.2-31.9-23.1
		c0-7.3-0.7-17.3,10.6-17.3s11.3,11.5,11.3,13.7c0,2.2,0,8.4,0,8.4h24.4h1.6c0,0,0-4.4,0-10.4c0-12-6.4-37.2-35.7-37.2
		s-38.1,21.9-38.1,37.7c0,15.7-1.1,25.9,14,37.5c15.1,11.5,34.1,5.3,34.1,29.3c0,16.6-6.2,18.4-12.4,18.2
		c-6.7-0.2-10.5-5.1-10.5-11.7C280.5,379.4,280.3,377.7,280.3,377.7z M329.4,301.6h22.8v120.6h26.2L378,301.4H401v-24.2h-71.2
		L329.4,301.6z M404.1,422.7h65.2v-25.5h-39.5v-36.6h33.5v-24.4h-33v-35h39.2v-23.7H405L404.1,422.7z M477.3,422h25.1v-60.1l6.4,0.2
		l19.7,59.9h28.8l-23.7-65c0,0,17.3-7.5,17.3-40.3c0-44.8-41-39.5-49.4-39.5s-24.2,0-24.2,0C477.7,276.8,477.3,422,477.3,422z
		 M502.5,300.5c0,0,0.9,0,7.5,0s15.5,2.7,15.5,18.4s-9.3,20.2-16.2,20.2s-6.9,0-6.9,0V300.5z"/>
	<circle class="st0" cx="601.3" cy="189.1" r="8"/>
	<path class="st0" d="M758.3,437.8v24.3H657.5c0,0,34-2.7,57.2-6.3C746.3,450.8,758.3,437.8,758.3,437.8z"/>
	<path d="M38.9,461.5v11.2h151.2c0,0,17.6-2.6,33.5-4.9s35.9-6.3,35.9-6.3S39,461.4,38.9,461.5z"/>
	<path d="M248.6,472.3h509.7v-10.1h-99.7c0,0-18.3-0.1-36.1,4s-28.7,5.5-50.8,5.5c-48.6,0-78.2-10.1-151.1-9.5
		C347.9,462.8,248.6,472.3,248.6,472.3z"/>
	<g>
		<path d="M773,149.1v-17.8h-6.4v-3.6h17.1v3.6h-6.4v17.8H773z"/>
		<path d="M786.4,149.1v-21.5h6.5l3.9,14.6l3.9-14.6h6.5v21.5h-4v-16.9l-4.3,16.9h-4.2l-4.2-16.9v16.9H786.4z"/>
	</g>
</g>
</svg>
