<?xml version="1.0" encoding="UTF-8"?>
<svg xmlns="http://www.w3.org/2000/svg" xmlns:xlink="http://www.w3.org/1999/xlink" width="250" zoomAndPan="magnify" viewBox="0 0 187.5 74.999997" height="100" preserveAspectRatio="xMidYMid meet" version="1.0">
  <defs>
    <g></g>
  </defs>
  <g fill="#404040" fill-opacity="1">
    <g transform="translate(4.423744, 34.94899)">
      <g>
        <path d="M 1.84375 -18.375 L 10.53125 -18.375 C 12.59375 -18.375 14.226562 -17.957031 15.4375 -17.125 C 16.65625 -16.289062 17.265625 -15.175781 17.265625 -13.78125 C 17.265625 -12.820312 16.984375 -11.976562 16.421875 -11.25 C 15.867188 -10.519531 15.101562 -10.015625 14.125 -9.734375 C 15.28125 -9.503906 16.195312 -8.96875 16.875 -8.125 C 17.5625 -7.289062 17.90625 -6.28125 17.90625 -5.09375 C 17.90625 -3.53125 17.269531 -2.289062 16 -1.375 C 14.726562 -0.457031 13.007812 0 10.84375 0 L 1.84375 0 Z M 6.484375 -14.8125 L 6.484375 -11.03125 L 10.265625 -11.03125 C 10.941406 -11.03125 11.484375 -11.195312 11.890625 -11.53125 C 12.296875 -11.875 12.5 -12.34375 12.5 -12.9375 C 12.5 -13.519531 12.296875 -13.976562 11.890625 -14.3125 C 11.484375 -14.644531 10.941406 -14.8125 10.265625 -14.8125 Z M 6.484375 -7.671875 L 6.484375 -3.59375 L 10.265625 -3.59375 C 11.140625 -3.59375 11.828125 -3.773438 12.328125 -4.140625 C 12.828125 -4.515625 13.078125 -5.023438 13.078125 -5.671875 C 13.078125 -6.285156 12.828125 -6.769531 12.328125 -7.125 C 11.828125 -7.488281 11.140625 -7.671875 10.265625 -7.671875 Z M 6.484375 -7.671875 "></path>
      </g>
    </g>
  </g>
  <g fill="#404040" fill-opacity="1">
    <g transform="translate(22.269564, 34.94899)">
      <g>
        <path d="M 8.375 -14.3125 C 10.6875 -14.3125 12.550781 -13.648438 13.96875 -12.328125 C 15.382812 -11.003906 16.09375 -9.253906 16.09375 -7.078125 C 16.09375 -4.910156 15.382812 -3.160156 13.96875 -1.828125 C 12.550781 -0.503906 10.6875 0.15625 8.375 0.15625 C 6.039062 0.15625 4.164062 -0.503906 2.75 -1.828125 C 1.332031 -3.160156 0.625 -4.910156 0.625 -7.078125 C 0.625 -9.253906 1.332031 -11.003906 2.75 -12.328125 C 4.164062 -13.648438 6.039062 -14.3125 8.375 -14.3125 Z M 8.375 -10.703125 C 7.425781 -10.703125 6.660156 -10.359375 6.078125 -9.671875 C 5.492188 -8.992188 5.203125 -8.113281 5.203125 -7.03125 C 5.203125 -5.925781 5.492188 -5.035156 6.078125 -4.359375 C 6.660156 -3.691406 7.425781 -3.359375 8.375 -3.359375 C 9.300781 -3.359375 10.054688 -3.691406 10.640625 -4.359375 C 11.234375 -5.035156 11.53125 -5.925781 11.53125 -7.03125 C 11.53125 -8.113281 11.234375 -8.992188 10.640625 -9.671875 C 10.054688 -10.359375 9.300781 -10.703125 8.375 -10.703125 Z M 8.375 -10.703125 "></path>
      </g>
    </g>
  </g>
  <g fill="#404040" fill-opacity="1">
    <g transform="translate(38.068353, 34.94899)">
      <g>
        <path d="M 15.59375 -14.15625 L 15.59375 0 L 11.046875 0 L 11.046875 -2.34375 C 10.085938 -0.65625 8.554688 0.1875 6.453125 0.1875 C 4.910156 0.1875 3.679688 -0.300781 2.765625 -1.28125 C 1.847656 -2.257812 1.390625 -3.570312 1.390625 -5.21875 L 1.390625 -14.15625 L 5.9375 -14.15625 L 5.9375 -6.515625 C 5.9375 -5.671875 6.148438 -5.007812 6.578125 -4.53125 C 7.003906 -4.050781 7.578125 -3.8125 8.296875 -3.8125 C 9.148438 -3.820312 9.820312 -4.140625 10.3125 -4.765625 C 10.800781 -5.390625 11.046875 -6.191406 11.046875 -7.171875 L 11.046875 -14.15625 Z M 15.59375 -14.15625 "></path>
      </g>
    </g>
  </g>
  <g fill="#404040" fill-opacity="1">
    <g transform="translate(54.549483, 34.94899)">
      <g>
        <path d="M 6.359375 -14.15625 L 6.359375 -11.765625 C 7.347656 -13.460938 8.878906 -14.328125 10.953125 -14.359375 L 10.953125 -10.265625 C 9.648438 -10.390625 8.585938 -10.175781 7.765625 -9.625 C 6.941406 -9.070312 6.472656 -8.285156 6.359375 -7.265625 L 6.359375 0 L 1.8125 0 L 1.8125 -14.15625 Z M 6.359375 -14.15625 "></path>
      </g>
    </g>
  </g>
  <g fill="#404040" fill-opacity="1">
    <g transform="translate(64.837021, 34.94899)">
      <g>
        <path d="M 11.078125 -14.359375 C 12.628906 -14.359375 13.878906 -13.863281 14.828125 -12.875 C 15.773438 -11.882812 16.25 -10.566406 16.25 -8.921875 L 16.25 0 L 11.734375 0 L 11.734375 -7.671875 C 11.734375 -8.492188 11.507812 -9.144531 11.0625 -9.625 C 10.613281 -10.101562 10.003906 -10.34375 9.234375 -10.34375 C 8.429688 -10.34375 7.769531 -10.078125 7.25 -9.546875 C 6.738281 -9.023438 6.441406 -8.335938 6.359375 -7.484375 L 6.359375 0 L 1.8125 0 L 1.8125 -14.15625 L 6.359375 -14.15625 L 6.359375 -11.84375 C 7.347656 -13.488281 8.921875 -14.328125 11.078125 -14.359375 Z M 11.078125 -14.359375 "></path>
      </g>
    </g>
  </g>
  <g fill="#404040" fill-opacity="1">
    <g transform="translate(81.58059, 34.94899)">
      <g>
        <path d="M 8 -14.3125 C 10.457031 -14.3125 12.300781 -13.554688 13.53125 -12.046875 C 14.757812 -10.546875 15.296875 -8.484375 15.140625 -5.859375 L 5.203125 -5.859375 C 5.421875 -5.015625 5.816406 -4.363281 6.390625 -3.90625 C 6.972656 -3.457031 7.6875 -3.234375 8.53125 -3.234375 C 9.820312 -3.234375 10.953125 -3.710938 11.921875 -4.671875 L 14.3125 -2.34375 C 12.78125 -0.675781 10.722656 0.15625 8.140625 0.15625 C 5.847656 0.15625 4.019531 -0.5 2.65625 -1.8125 C 1.300781 -3.125 0.625 -4.863281 0.625 -7.03125 C 0.625 -9.21875 1.300781 -10.976562 2.65625 -12.3125 C 4.019531 -13.644531 5.800781 -14.3125 8 -14.3125 Z M 5.125 -8.296875 L 10.78125 -8.296875 C 10.78125 -9.148438 10.53125 -9.835938 10.03125 -10.359375 C 9.539062 -10.890625 8.882812 -11.15625 8.0625 -11.15625 C 7.289062 -11.15625 6.640625 -10.894531 6.109375 -10.375 C 5.585938 -9.863281 5.257812 -9.171875 5.125 -8.296875 Z M 5.125 -8.296875 "></path>
      </g>
    </g>
  </g>
  <g fill="#404040" fill-opacity="1">
    <g transform="translate(96.460836, 34.94899)">
      <g>
        <path d="M 20.71875 -14.359375 C 22.269531 -14.359375 23.503906 -13.863281 24.421875 -12.875 C 25.335938 -11.882812 25.796875 -10.566406 25.796875 -8.921875 L 25.796875 0 L 21.28125 0 L 21.28125 -7.671875 C 21.28125 -8.503906 21.0625 -9.160156 20.625 -9.640625 C 20.1875 -10.128906 19.59375 -10.375 18.84375 -10.375 C 18.007812 -10.351562 17.34375 -10.03125 16.84375 -9.40625 C 16.34375 -8.789062 16.09375 -7.992188 16.09375 -7.015625 L 16.09375 0 L 11.546875 0 L 11.546875 -7.671875 C 11.546875 -8.503906 11.332031 -9.160156 10.90625 -9.640625 C 10.476562 -10.128906 9.890625 -10.375 9.140625 -10.375 C 8.273438 -10.351562 7.585938 -10.023438 7.078125 -9.390625 C 6.578125 -8.765625 6.328125 -7.972656 6.328125 -7.015625 L 6.328125 0 L 1.8125 0 L 1.8125 -14.15625 L 6.328125 -14.15625 L 6.328125 -11.8125 C 7.285156 -13.476562 8.84375 -14.328125 11 -14.359375 C 12.132812 -14.359375 13.117188 -14.070312 13.953125 -13.5 C 14.785156 -12.9375 15.375 -12.15625 15.71875 -11.15625 C 16.644531 -13.257812 18.3125 -14.328125 20.71875 -14.359375 Z M 20.71875 -14.359375 "></path>
      </g>
    </g>
  </g>
  <g fill="#404040" fill-opacity="1">
    <g transform="translate(122.757241, 34.94899)">
      <g>
        <path d="M 8.375 -14.3125 C 10.6875 -14.3125 12.550781 -13.648438 13.96875 -12.328125 C 15.382812 -11.003906 16.09375 -9.253906 16.09375 -7.078125 C 16.09375 -4.910156 15.382812 -3.160156 13.96875 -1.828125 C 12.550781 -0.503906 10.6875 0.15625 8.375 0.15625 C 6.039062 0.15625 4.164062 -0.503906 2.75 -1.828125 C 1.332031 -3.160156 0.625 -4.910156 0.625 -7.078125 C 0.625 -9.253906 1.332031 -11.003906 2.75 -12.328125 C 4.164062 -13.648438 6.039062 -14.3125 8.375 -14.3125 Z M 8.375 -10.703125 C 7.425781 -10.703125 6.660156 -10.359375 6.078125 -9.671875 C 5.492188 -8.992188 5.203125 -8.113281 5.203125 -7.03125 C 5.203125 -5.925781 5.492188 -5.035156 6.078125 -4.359375 C 6.660156 -3.691406 7.425781 -3.359375 8.375 -3.359375 C 9.300781 -3.359375 10.054688 -3.691406 10.640625 -4.359375 C 11.234375 -5.035156 11.53125 -5.925781 11.53125 -7.03125 C 11.53125 -8.113281 11.234375 -8.992188 10.640625 -9.671875 C 10.054688 -10.359375 9.300781 -10.703125 8.375 -10.703125 Z M 8.375 -10.703125 "></path>
      </g>
    </g>
  </g>
  <g fill="#404040" fill-opacity="1">
    <g transform="translate(138.556023, 34.94899)">
      <g>
        <path d="M 15.59375 -14.15625 L 15.59375 0 L 11.046875 0 L 11.046875 -2.34375 C 10.085938 -0.65625 8.554688 0.1875 6.453125 0.1875 C 4.910156 0.1875 3.679688 -0.300781 2.765625 -1.28125 C 1.847656 -2.257812 1.390625 -3.570312 1.390625 -5.21875 L 1.390625 -14.15625 L 5.9375 -14.15625 L 5.9375 -6.515625 C 5.9375 -5.671875 6.148438 -5.007812 6.578125 -4.53125 C 7.003906 -4.050781 7.578125 -3.8125 8.296875 -3.8125 C 9.148438 -3.820312 9.820312 -4.140625 10.3125 -4.765625 C 10.800781 -5.390625 11.046875 -6.191406 11.046875 -7.171875 L 11.046875 -14.15625 Z M 15.59375 -14.15625 "></path>
      </g>
    </g>
  </g>
  <g fill="#404040" fill-opacity="1">
    <g transform="translate(155.037153, 34.94899)">
      <g>
        <path d="M 10.046875 -3.90625 L 10.953125 -0.765625 C 9.847656 -0.117188 8.585938 0.203125 7.171875 0.203125 C 5.765625 0.203125 4.628906 -0.179688 3.765625 -0.953125 C 2.898438 -1.734375 2.46875 -2.84375 2.46875 -4.28125 L 2.46875 -10.53125 L 0.5 -10.53125 L 0.5 -13.5 L 2.46875 -13.5 L 2.46875 -17.4375 L 6.984375 -17.4375 L 6.984375 -13.515625 L 10.6875 -13.515625 L 10.6875 -10.53125 L 6.984375 -10.53125 L 6.984375 -4.984375 C 6.984375 -4.441406 7.09375 -4.039062 7.3125 -3.78125 C 7.53125 -3.53125 7.859375 -3.414062 8.296875 -3.4375 C 8.710938 -3.4375 9.296875 -3.59375 10.046875 -3.90625 Z M 10.046875 -3.90625 "></path>
      </g>
    </g>
  </g>
  <g fill="#404040" fill-opacity="1">
    <g transform="translate(165.534646, 34.94899)">
      <g>
        <path d="M 11.234375 -14.359375 C 12.796875 -14.359375 14.046875 -13.863281 14.984375 -12.875 C 15.929688 -11.882812 16.40625 -10.566406 16.40625 -8.921875 L 16.40625 0 L 11.859375 0 L 11.859375 -7.671875 C 11.859375 -8.492188 11.632812 -9.144531 11.1875 -9.625 C 10.75 -10.101562 10.144531 -10.34375 9.375 -10.34375 C 8.5 -10.34375 7.796875 -10.023438 7.265625 -9.390625 C 6.742188 -8.765625 6.484375 -7.960938 6.484375 -6.984375 L 6.484375 0 L 1.9375 0 L 1.9375 -19.484375 L 6.484375 -19.484375 L 6.484375 -11.8125 C 7.484375 -13.476562 9.066406 -14.328125 11.234375 -14.359375 Z M 11.234375 -14.359375 "></path>
      </g>
    </g>
  </g>
  <g fill="#f9a72b" fill-opacity="1">
    <g transform="translate(4.423744, 61.296154)">
      <g>
        <path d="M 7.921875 -4.765625 L 17.40625 -4.765625 L 17.40625 0 L 2.234375 0 L 2.234375 -22.359375 L 7.921875 -22.359375 Z M 7.921875 -4.765625 "></path>
      </g>
    </g>
  </g>
  <g fill="#f9a72b" fill-opacity="1">
    <g transform="translate(20.486377, 61.296154)">
      <g>
        <path d="M 12.84375 -22.546875 C 16.3125 -22.546875 19.191406 -21.460938 21.484375 -19.296875 C 23.785156 -17.140625 24.9375 -14.441406 24.9375 -11.203125 C 24.9375 -7.953125 23.78125 -5.226562 21.46875 -3.03125 C 19.164062 -0.84375 16.289062 0.25 12.84375 0.25 C 9.394531 0.25 6.519531 -0.835938 4.21875 -3.015625 C 1.914062 -5.203125 0.765625 -7.929688 0.765625 -11.203125 C 0.765625 -14.460938 1.914062 -17.164062 4.21875 -19.3125 C 6.519531 -21.46875 9.394531 -22.546875 12.84375 -22.546875 Z M 12.90625 -17.796875 C 11.15625 -17.796875 9.660156 -17.160156 8.421875 -15.890625 C 7.191406 -14.617188 6.578125 -13.046875 6.578125 -11.171875 C 6.578125 -9.304688 7.195312 -7.726562 8.4375 -6.4375 C 9.6875 -5.144531 11.171875 -4.5 12.890625 -4.5 C 14.617188 -4.5 16.082031 -5.144531 17.28125 -6.4375 C 18.488281 -7.726562 19.09375 -9.304688 19.09375 -11.171875 C 19.09375 -13.046875 18.488281 -14.617188 17.28125 -15.890625 C 16.082031 -17.160156 14.625 -17.796875 12.90625 -17.796875 Z M 12.90625 -17.796875 "></path>
      </g>
    </g>
  </g>
  <g fill="#f9a72b" fill-opacity="1">
    <g transform="translate(44.372965, 61.296154)">
      <g>
        <path d="M 12.71875 -22.546875 C 14.375 -22.546875 16.003906 -22.203125 17.609375 -21.515625 C 19.222656 -20.835938 20.59375 -19.925781 21.71875 -18.78125 L 18.421875 -14.890625 C 17.703125 -15.773438 16.835938 -16.476562 15.828125 -17 C 14.816406 -17.53125 13.8125 -17.796875 12.8125 -17.796875 C 11.039062 -17.796875 9.554688 -17.171875 8.359375 -15.921875 C 7.171875 -14.671875 6.578125 -13.132812 6.578125 -11.3125 C 6.578125 -9.4375 7.171875 -7.867188 8.359375 -6.609375 C 9.554688 -5.359375 11.039062 -4.734375 12.8125 -4.734375 C 13.75 -4.734375 14.722656 -4.960938 15.734375 -5.421875 C 16.742188 -5.890625 17.640625 -6.53125 18.421875 -7.34375 L 21.75 -3.828125 C 20.53125 -2.597656 19.097656 -1.609375 17.453125 -0.859375 C 15.804688 -0.117188 14.160156 0.25 12.515625 0.25 C 9.148438 0.25 6.347656 -0.84375 4.109375 -3.03125 C 1.878906 -5.226562 0.765625 -7.960938 0.765625 -11.234375 C 0.765625 -14.453125 1.898438 -17.140625 4.171875 -19.296875 C 6.453125 -21.460938 9.300781 -22.546875 12.71875 -22.546875 Z M 12.71875 -22.546875 "></path>
      </g>
    </g>
  </g>
  <g fill="#f9a72b" fill-opacity="1">
    <g transform="translate(64.650953, 61.296154)">
      <g>
        <path d="M 16.796875 0 L 10.890625 -8.78125 L 7.921875 -5.5 L 7.921875 0 L 2.234375 0 L 2.234375 -22.359375 L 7.921875 -22.359375 L 7.921875 -12.671875 L 16.484375 -22.359375 L 23.0625 -22.359375 L 14.75 -13.09375 L 23.609375 0 Z M 16.796875 0 "></path>
      </g>
    </g>
  </g>
  <g fill="#f9a72b" fill-opacity="1">
    <g transform="translate(86.685337, 61.296154)">
      <g>
        <path d="M 10.828125 -22.609375 C 14.171875 -22.609375 17.109375 -21.78125 19.640625 -20.125 L 17.5 -15.6875 C 16.332031 -16.363281 15.078125 -16.921875 13.734375 -17.359375 C 12.390625 -17.796875 11.257812 -18.015625 10.34375 -18.015625 C 8.707031 -18.015625 7.890625 -17.472656 7.890625 -16.390625 C 7.890625 -15.679688 8.289062 -15.113281 9.09375 -14.6875 C 9.90625 -14.257812 10.890625 -13.890625 12.046875 -13.578125 C 13.210938 -13.273438 14.375 -12.90625 15.53125 -12.46875 C 16.695312 -12.03125 17.679688 -11.320312 18.484375 -10.34375 C 19.296875 -9.363281 19.703125 -8.128906 19.703125 -6.640625 C 19.703125 -4.492188 18.859375 -2.816406 17.171875 -1.609375 C 15.492188 -0.410156 13.359375 0.1875 10.765625 0.1875 C 8.910156 0.1875 7.078125 -0.128906 5.265625 -0.765625 C 3.460938 -1.398438 1.890625 -2.273438 0.546875 -3.390625 L 2.75 -7.765625 C 3.875 -6.785156 5.203125 -5.976562 6.734375 -5.34375 C 8.265625 -4.71875 9.628906 -4.40625 10.828125 -4.40625 C 11.742188 -4.40625 12.457031 -4.566406 12.96875 -4.890625 C 13.476562 -5.222656 13.734375 -5.710938 13.734375 -6.359375 C 13.734375 -6.972656 13.441406 -7.488281 12.859375 -7.90625 C 12.273438 -8.320312 11.546875 -8.628906 10.671875 -8.828125 C 9.796875 -9.035156 8.847656 -9.304688 7.828125 -9.640625 C 6.804688 -9.984375 5.859375 -10.359375 4.984375 -10.765625 C 4.109375 -11.171875 3.378906 -11.8125 2.796875 -12.6875 C 2.210938 -13.570312 1.921875 -14.632812 1.921875 -15.875 C 1.921875 -17.914062 2.734375 -19.546875 4.359375 -20.765625 C 5.984375 -21.992188 8.140625 -22.609375 10.828125 -22.609375 Z M 10.828125 -22.609375 "></path>
      </g>
    </g>
  </g>
  <g fill="#f9a72b" fill-opacity="1">
    <g transform="translate(105.430463, 61.296154)">
      <g>
        <path d="M 26.796875 0 L 21.78125 0 L 21.75 -14.53125 L 16.390625 -2.234375 L 12.671875 -2.234375 L 7.3125 -14.53125 L 7.3125 0 L 2.234375 0 L 2.234375 -22.390625 L 8.46875 -22.390625 L 14.53125 -9.0625 L 20.59375 -22.390625 L 26.796875 -22.390625 Z M 26.796875 0 "></path>
      </g>
    </g>
  </g>
  <g fill="#f9a72b" fill-opacity="1">
    <g transform="translate(132.670174, 61.296154)">
      <g>
        <path d="M 7.921875 0 L 2.234375 0 L 2.234375 -22.359375 L 7.921875 -22.359375 Z M 7.921875 0 "></path>
      </g>
    </g>
  </g>
  <g fill="#f9a72b" fill-opacity="1">
    <g transform="translate(141.004646, 61.296154)">
      <g>
        <path d="M 19.328125 -17.796875 L 12.578125 -17.796875 L 12.578125 0 L 6.90625 0 L 6.90625 -17.796875 L 0.21875 -17.796875 L 0.21875 -22.390625 L 19.328125 -22.390625 Z M 19.328125 -17.796875 "></path>
      </g>
    </g>
  </g>
  <g fill="#f9a72b" fill-opacity="1">
    <g transform="translate(158.69594, 61.296154)">
      <g>
        <path d="M 22.875 0 L 17.1875 0 L 17.1875 -8.6875 L 7.921875 -8.6875 L 7.921875 0 L 2.234375 0 L 2.234375 -22.359375 L 7.921875 -22.359375 L 7.921875 -13.15625 L 17.1875 -13.15625 L 17.1875 -22.359375 L 22.875 -22.359375 Z M 22.875 0 "></path>
      </g>
    </g>
  </g>
</svg>
