<?xml version="1.0" encoding="utf-8"?>
<!-- Generator: Adobe Illustrator 22.0.1, SVG Export Plug-In . SVG Version: 6.00 Build 0)  -->
<svg version="1.1" id="Layer_1" xmlns="http://www.w3.org/2000/svg" xmlns:xlink="http://www.w3.org/1999/xlink" x="0px" y="0px"
	 width="433px" height="161.5px" viewBox="0 0 433 161.5" style="enable-background:new 0 0 433 161.5;" xml:space="preserve">
<style type="text/css">
	.st0{fill:#FFFFFF;}
</style>
<g>
	<g>
		<g>
			<path class="st0" d="M83.8,86.5c-3.4,1.2-6.8,1.8-10.2,1.8c-6.9,0-13.1-2.2-17.9-6.4c-5.4-4.6-8.5-11.7-8.5-19.4
				c0-8.1,2.6-15.4,7.6-21.2c5.9-6.8,14.6-10.8,24.7-10.8c5.3,0,9.9,1.1,14.1,3.2l-3.4,18.4c-3.8-2.2-7.4-3.3-11-3.3
				c-7,0-12,4.9-12,11.8c0,5.8,3.8,9.5,9.7,9.5c3.1,0,7-1.2,10.6-3.4L83.8,86.5z"/>
			<path class="st0" d="M121.9,31.9h22l7.2,55h-19.7l-0.4-7.3h-13.4l-3,7.3H92.9L121.9,31.9z M130.2,66.6l-0.2-5.9
				c-0.1-1.9-0.2-4.4-0.2-7.3c0-1.2,0-2.5,0.1-3.8c-1.2,3.7-2.2,6.4-2.8,7.9l-3.9,9.1H130.2z"/>
			<path class="st0" d="M168.6,31.9H190c16.2,0,24.5,5.8,24.5,16.5c0,9.1-5,15.5-13.7,17.3l8,21.1h-20.6l-6.1-20l-3.7,20h-20
				L168.6,31.9z M185.6,56.3c6.1,0,8.9-1.8,8.9-6.1c0-3.2-2.3-4.6-7.2-4.6c-0.4,0-0.8,0-1.2,0l-2,10.7
				C184.5,56.3,185.1,56.3,185.6,56.3z"/>
			<path class="st0" d="M230.9,31.9h38l-2.7,14.9h-18.1l-1,5.3h17L261.5,66h-17l-1.1,5.9h19.7l-2.8,14.9h-39.8L230.9,31.9z"/>
			<path class="st0" d="M283.4,31.9h21.4c16.2,0,24.5,5.8,24.5,16.5c0,9.1-5,15.5-13.7,17.3l8,21.1H303l-6.1-20l-3.7,20h-20
				L283.4,31.9z M300.3,56.3c6.1,0,8.9-1.8,8.9-6.1c0-3.2-2.3-4.6-7.2-4.6c-0.4,0-0.8,0-1.2,0l-2,10.7
				C299.3,56.3,299.8,56.3,300.3,56.3z"/>
			<path class="st0" d="M358.9,31.9h22l7.2,55h-19.7l-0.4-7.3h-13.4l-3,7.3h-21.7L358.9,31.9z M367.2,66.6l-0.2-5.9
				c-0.1-1.9-0.2-4.4-0.2-7.3c0-1.2,0-2.5,0.1-3.8c-1.2,3.7-2.2,6.4-2.8,7.9l-3.9,9.1H367.2z"/>
		</g>
		<g>
			<path class="st0" d="M59.3,97.8H69l0.3,8.5c0.1,1.3,0.1,2.6,0.1,3.8c0,1,0,2-0.1,3l6.1-15.3h8l1,15.1c0.6-2.3,1.2-4,1.7-5.3
				l3.8-9.8h10.6l-11.9,27.5H78.5l-0.9-15.1c-0.5,1.8-1,3.6-1.8,5.3l-4.2,9.8H61.5L59.3,97.8z"/>
			<path class="st0" d="M104.9,97.8h10.2l-5.1,27.5H99.8L104.9,97.8z"/>
			<path class="st0" d="M122.7,97.8h10.2l3.2,8.7c0.5,1.3,1.2,3.1,1.7,5.6l2.7-14.3h10.1l-5.1,27.5h-10.2l-5.1-14.2
				c-0.1,2-0.5,4.1-0.9,6.5l-1.4,7.7h-10.4L122.7,97.8z"/>
			<path class="st0" d="M157.8,97.8h7.5c4.4,0,7.6,0.4,9.7,1.4c4.4,2.2,6.8,6,6.8,10.9c0,4.6-2.1,8.8-5.8,11.6
				c-3.8,2.8-8.4,3.6-14.5,3.6h-8.7L157.8,97.8z M164.4,117.1c4.5,0,7.1-2.5,7.1-6.3c0-2.8-1.9-4.7-5-4.7c-0.1,0-0.1,0-0.2,0
				L164.4,117.1L164.4,117.1z"/>
			<path class="st0" d="M190.9,122.8c-2.6-2.3-4.2-5.8-4.2-9.6c0-4.1,1.3-7.7,3.8-10.6c3-3.4,7.3-5.4,12.3-5.4c8.5,0,14,5.3,14,12.9
				c0,4.1-1.3,7.7-3.8,10.6c-3,3.5-7.3,5.4-12.3,5.4C196.6,126,193.4,125,190.9,122.8z M196.6,112.1c0,2.9,1.8,4.8,4.6,4.8
				c3.1,0,5.5-2.7,5.5-6c0-2.8-2-4.7-4.6-4.7C198.9,106.3,196.6,108.9,196.6,112.1z"/>
			<path class="st0" d="M221.7,97.8h9.7l0.3,8.5c0.1,1.3,0.1,2.6,0.1,3.8c0,1,0,2-0.1,3l6.1-15.3h8l1,15.1c0.6-2.3,1.2-4,1.7-5.3
				l3.8-9.8h10.6L251,125.3h-10.1l-0.9-15.1c-0.5,1.8-1,3.6-1.8,5.3l-4.2,9.8h-10L221.7,97.8z"/>
			<path class="st0" d="M265.1,113.8c2.3,2.8,4.9,4.2,7.3,4.2c1.2,0,1.8-0.5,1.8-1.1c0-0.9-1-1.2-2.9-1.9c-4.5-1.9-6.8-4.3-6.8-8
				c0-5.6,4.4-9.7,11.5-9.7c4,0,7.3,1.2,10,3.5l-3.9,6.7c-2.2-1.9-4-2.9-5.6-2.9c-1,0-1.6,0.5-1.6,1.2c0,1.1,1.4,1.5,3.5,2.4
				c4,1.8,5.9,3.8,5.9,7.8c0,5.6-4.9,10.1-11.9,10.1c-4.3,0-8.6-1.7-12.4-5L265.1,113.8z"/>
			<path class="st0" d="M307.9,97.8h10.2l-3.6,19h8.5l-1.6,8.5h-18.7L307.9,97.8z"/>
			<path class="st0" d="M331.4,106.2h-5.9l1.6-8.3h21.8l-1.6,8.3h-5.7l-3.6,19.1h-10.2L331.4,106.2z"/>
			<path class="st0" d="M354.2,97.8h7.5c4.4,0,7.6,0.4,9.7,1.4c4.4,2.2,6.8,6,6.8,10.9c0,4.6-2.1,8.8-5.8,11.6
				c-3.8,2.8-8.4,3.6-14.5,3.6h-8.7L354.2,97.8z M360.8,117.1c4.5,0,7.1-2.5,7.1-6.3c0-2.8-1.9-4.7-5-4.7c-0.1,0-0.1,0-0.2,0l-2,11
				C360.7,117.1,360.8,117.1,360.8,117.1z"/>
		</g>
		<g>
			<path class="st0" d="M72.6,140.5h-4.8v-1.7h11.7v1.7h-4.8v14h-2.1C72.6,154.5,72.6,140.5,72.6,140.5z"/>
			<path class="st0" d="M81.5,137.9h2.1v7l0,0c0.3-0.6,0.8-1.1,1.5-1.4c0.6-0.3,1.3-0.6,2.1-0.6c1.5,0,4,0.9,4,4.8v6.7h-2.1v-6.5
				c0-1.8-0.7-3.4-2.6-3.4c-1.3,0-2.4,0.9-2.8,2.1c-0.1,0.3-0.1,0.6-0.1,1v6.8h-2.1V137.9z"/>
			<path class="st0" d="M96.1,149.2c0,2.8,1.8,3.9,3.9,3.9c1.5,0,2.4-0.3,3.2-0.6l0.4,1.5c-0.7,0.3-2,0.7-3.8,0.7
				c-3.5,0-5.6-2.3-5.6-5.7s2-6.1,5.3-6.1c3.7,0,4.7,3.2,4.7,5.3c0,0.4,0,0.7-0.1,1L96.1,149.2L96.1,149.2z M102.2,147.8
				c0-1.3-0.5-3.3-2.9-3.3c-2.1,0-3,1.9-3.2,3.3H102.2z"/>
			<path class="st0" d="M112.6,139c1-0.2,2.5-0.3,3.9-0.3c2.2,0,3.6,0.4,4.6,1.3c0.8,0.7,1.2,1.8,1.2,3c0,2.1-1.3,3.4-3,4v0.1
				c1.2,0.4,2,1.5,2.3,3.2c0.5,2.2,0.9,3.7,1.2,4.3h-2.1c-0.3-0.4-0.6-1.8-1.1-3.8c-0.5-2.2-1.3-3-3.2-3.1h-1.9v6.8h-2L112.6,139
				L112.6,139z M114.7,146.2h2.1c2.2,0,3.6-1.2,3.6-3c0-2-1.5-2.9-3.6-2.9c-1,0-1.7,0.1-2,0.2L114.7,146.2L114.7,146.2z"/>
			<path class="st0" d="M126.9,149.2c0,2.8,1.8,3.9,3.9,3.9c1.5,0,2.4-0.3,3.2-0.6l0.4,1.5c-0.7,0.3-2,0.7-3.8,0.7
				c-3.5,0-5.6-2.3-5.6-5.7s2-6.1,5.3-6.1c3.7,0,4.7,3.2,4.7,5.3c0,0.4,0,0.7-0.1,1L126.9,149.2L126.9,149.2z M133,147.8
				c0-1.3-0.5-3.3-2.9-3.3c-2.1,0-3,1.9-3.2,3.3H133z"/>
			<path class="st0" d="M146.1,154.1c-0.5,0.3-1.7,0.7-3.3,0.7c-3.4,0-5.7-2.3-5.7-5.8s2.4-6,6.1-6c1.2,0,2.3,0.3,2.9,0.6l-0.5,1.6
				c-0.5-0.3-1.3-0.5-2.4-0.5c-2.6,0-4,1.9-4,4.3c0,2.6,1.7,4.2,4,4.2c1.2,0,2-0.3,2.5-0.6L146.1,154.1z"/>
			<path class="st0" d="M159.1,148.8c0,4.2-2.9,6-5.7,6c-3.1,0-5.5-2.2-5.5-5.8c0-3.8,2.5-6,5.6-6
				C156.9,143,159.1,145.3,159.1,148.8z M150,148.9c0,2.5,1.4,4.3,3.5,4.3c2,0,3.5-1.8,3.5-4.4c0-1.9-1-4.3-3.4-4.3
				C151.1,144.5,150,146.7,150,148.9z"/>
			<path class="st0" d="M162.1,146.3c0-1.2,0-2.1-0.1-3.1h1.8l0.1,1.8h0.1c0.6-1.1,1.7-2.1,3.6-2.1c1.6,0,2.7,0.9,3.2,2.3l0,0
				c0.4-0.6,0.8-1.1,1.3-1.5c0.7-0.5,1.4-0.8,2.5-0.8c1.5,0,3.7,1,3.7,4.9v6.6h-2V148c0-2.2-0.8-3.5-2.5-3.5c-1.2,0-2.1,0.9-2.4,1.9
				c-0.1,0.3-0.2,0.7-0.2,1v7h-2v-6.8c0-1.8-0.8-3.1-2.4-3.1c-1.3,0-2.2,1-2.6,2.1c-0.1,0.3-0.2,0.7-0.2,1v6.8h-2L162.1,146.3
				L162.1,146.3z"/>
			<path class="st0" d="M182.2,146.3c0-1.2,0-2.1-0.1-3.1h1.8l0.1,1.8h0.1c0.6-1.1,1.7-2.1,3.6-2.1c1.6,0,2.7,0.9,3.2,2.3l0,0
				c0.4-0.6,0.8-1.1,1.3-1.5c0.7-0.5,1.4-0.8,2.5-0.8c1.5,0,3.7,1,3.7,4.9v6.6h-2V148c0-2.2-0.8-3.5-2.5-3.5c-1.2,0-2.1,0.9-2.4,1.9
				c-0.1,0.3-0.2,0.7-0.2,1v7h-2v-6.8c0-1.8-0.8-3.1-2.4-3.1c-1.3,0-2.2,1-2.6,2.1c-0.1,0.3-0.2,0.7-0.2,1v6.8h-2L182.2,146.3
				L182.2,146.3z"/>
			<path class="st0" d="M203.4,149.2c0,2.8,1.8,3.9,3.9,3.9c1.5,0,2.4-0.3,3.2-0.6l0.4,1.5c-0.7,0.3-2,0.7-3.8,0.7
				c-3.5,0-5.6-2.3-5.6-5.7s2-6.1,5.3-6.1c3.7,0,4.7,3.2,4.7,5.3c0,0.4,0,0.7-0.1,1L203.4,149.2L203.4,149.2z M209.4,147.8
				c0-1.3-0.5-3.3-2.9-3.3c-2.1,0-3,1.9-3.2,3.3H209.4z"/>
			<path class="st0" d="M214.4,146.3c0-1.2,0-2.1-0.1-3.1h1.8l0.1,1.9l0,0c0.6-1.1,1.9-2.1,3.8-2.1c1.6,0,4,0.9,4,4.8v6.7h-2.1V148
				c0-1.8-0.7-3.3-2.6-3.3c-1.4,0-2.4,1-2.8,2.1c-0.1,0.3-0.1,0.6-0.1,1v6.8h-2.1v-8.3H214.4z"/>
			<path class="st0" d="M237.7,137.9v13.6c0,1,0,2.1,0.1,2.9h-1.9l-0.1-2l0,0c-0.6,1.3-2,2.2-3.9,2.2c-2.8,0-4.9-2.3-4.9-5.7
				c0-3.8,2.3-6.1,5.1-6.1c1.7,0,2.9,0.8,3.4,1.7l0,0v-6.6L237.7,137.9L237.7,137.9z M235.7,147.8c0-0.3,0-0.6-0.1-0.9
				c-0.3-1.3-1.4-2.4-3-2.4c-2.1,0-3.4,1.9-3.4,4.4c0,2.3,1.1,4.2,3.4,4.2c1.4,0,2.7-0.9,3-2.4c0.1-0.3,0.1-0.6,0.1-0.9V147.8z"/>
			<path class="st0" d="M242.8,149.2c0,2.8,1.8,3.9,3.9,3.9c1.5,0,2.4-0.3,3.2-0.6l0.4,1.5c-0.7,0.3-2,0.7-3.8,0.7
				c-3.5,0-5.6-2.3-5.6-5.7s2-6.1,5.3-6.1c3.7,0,4.7,3.2,4.7,5.3c0,0.4,0,0.7-0.1,1L242.8,149.2L242.8,149.2z M248.8,147.8
				c0-1.3-0.5-3.3-2.9-3.3c-2.1,0-3,1.9-3.2,3.3H248.8z"/>
			<path class="st0" d="M263.6,137.9v13.6c0,1,0,2.1,0.1,2.9h-1.9l-0.1-2l0,0c-0.6,1.3-2,2.2-3.9,2.2c-2.8,0-4.9-2.3-4.9-5.7
				c0-3.8,2.3-6.1,5.1-6.1c1.7,0,2.9,0.8,3.4,1.7l0,0v-6.6L263.6,137.9L263.6,137.9z M261.6,147.8c0-0.3,0-0.6-0.1-0.9
				c-0.3-1.3-1.4-2.4-3-2.4c-2.1,0-3.4,1.9-3.4,4.4c0,2.3,1.1,4.2,3.4,4.2c1.4,0,2.7-0.9,3-2.4c0.1-0.3,0.1-0.6,0.1-0.9V147.8z"/>
			<path class="st0" d="M284.1,154c-0.8,0.4-2.3,0.7-4.2,0.7c-4.5,0-7.8-2.8-7.8-7.9c0-4.9,3.4-8.2,8.3-8.2c2,0,3.2,0.4,3.8,0.7
				l-0.5,1.7c-0.8-0.4-1.9-0.7-3.2-0.7c-3.7,0-6.2,2.4-6.2,6.5c0,3.8,2.2,6.3,6.1,6.3c1.2,0,2.5-0.3,3.3-0.7L284.1,154z"/>
			<path class="st0" d="M297,148.8c0,4.2-2.9,6-5.7,6c-3.1,0-5.5-2.2-5.5-5.8c0-3.8,2.5-6,5.6-6C294.8,143,297,145.3,297,148.8z
				 M288,148.9c0,2.5,1.4,4.3,3.5,4.3c2,0,3.5-1.8,3.5-4.4c0-1.9-1-4.3-3.4-4.3S288,146.7,288,148.9z"/>
			<path class="st0" d="M300.1,146.3c0-1.2,0-2.1-0.1-3.1h1.8l0.1,1.8h0.1c0.6-1.1,1.7-2.1,3.6-2.1c1.6,0,2.7,0.9,3.2,2.3l0,0
				c0.4-0.6,0.8-1.1,1.3-1.5c0.7-0.5,1.4-0.8,2.5-0.8c1.5,0,3.7,1,3.7,4.9v6.6h-2V148c0-2.2-0.8-3.5-2.5-3.5c-1.2,0-2.1,0.9-2.4,1.9
				c-0.1,0.3-0.2,0.7-0.2,1v7h-2v-6.8c0-1.8-0.8-3.1-2.4-3.1c-1.3,0-2.2,1-2.6,2.1c-0.1,0.3-0.2,0.7-0.2,1v6.8h-2v-8.1L300.1,146.3
				L300.1,146.3z"/>
			<path class="st0" d="M320.1,146.9c0-1.4,0-2.6-0.1-3.7h1.9l0.1,1.9l0,0c0.8-1.4,2.2-2.2,4-2.2c2.8,0,4.8,2.3,4.8,5.7
				c0,4.1-2.5,6.1-5.2,6.1c-1.5,0-2.8-0.7-3.5-1.8l0,0v6.1h-2L320.1,146.9L320.1,146.9z M322.2,149.9c0,0.3,0,0.6,0.1,0.8
				c0.4,1.4,1.6,2.4,3.1,2.4c2.2,0,3.5-1.8,3.5-4.4c0-2.3-1.2-4.2-3.4-4.2c-1.4,0-2.7,1-3.1,2.5c-0.1,0.3-0.1,0.6-0.1,0.8v2.1
				L322.2,149.9L322.2,149.9z"/>
			<path class="st0" d="M340.2,154.5l-0.2-1.4h-0.1c-0.6,0.9-1.9,1.7-3.5,1.7c-2.3,0-3.5-1.6-3.5-3.2c0-2.7,2.4-4.2,6.8-4.2v-0.2
				c0-0.9-0.3-2.6-2.6-2.6c-1.1,0-2.2,0.3-3,0.8l-0.5-1.4c0.9-0.6,2.3-1,3.7-1c3.5,0,4.3,2.4,4.3,4.6v4.2c0,1,0,1.9,0.2,2.7
				L340.2,154.5L340.2,154.5z M339.9,148.7c-2.3,0-4.8,0.3-4.8,2.5c0,1.3,0.9,2,2,2c1.5,0,2.4-0.9,2.8-1.9c0.1-0.2,0.1-0.4,0.1-0.7
				v-1.9L339.9,148.7L339.9,148.7z"/>
			<path class="st0" d="M345.7,146.3c0-1.2,0-2.1-0.1-3.1h1.8l0.1,1.9l0,0c0.6-1.1,1.9-2.1,3.8-2.1c1.6,0,4,0.9,4,4.8v6.7h-2.1V148
				c0-1.8-0.7-3.3-2.6-3.3c-1.4,0-2.4,1-2.8,2.1c-0.1,0.3-0.1,0.6-0.1,1v6.8h-2.1v-8.3H345.7z"/>
			<path class="st0" d="M359.6,143.2l2.5,6.7c0.3,0.7,0.5,1.6,0.7,2.3l0,0c0.2-0.7,0.4-1.5,0.7-2.4l2.3-6.6h2.2l-3.1,8
				c-1.5,3.9-2.5,5.8-3.9,7.1c-1,0.9-2,1.2-2.5,1.3l-0.5-1.7c0.5-0.2,1.2-0.5,1.8-1c0.6-0.4,1.3-1.2,1.7-2.3
				c0.1-0.2,0.2-0.4,0.2-0.5s0-0.3-0.1-0.5l-4.2-10.4L359.6,143.2L359.6,143.2z"/>
		</g>
	</g>
	<g>
		<g>
			<polygon class="st0" points="4.5,156.9 56.5,156.9 56.5,140 24.3,140 40.2,18.8 58.1,18.8 63.9,1.9 24.8,1.9 			"/>
		</g>
		<g>
			<polygon class="st0" points="376.5,158 428.5,158 408.2,3 369.1,3 374.9,19.9 392.8,19.9 408.7,141.1 376.5,141.1 			"/>
		</g>
	</g>
</g>
</svg>
