<?xml version="1.0" encoding="UTF-8"?><svg id="Layer_1" xmlns="http://www.w3.org/2000/svg" viewBox="0 0 382 127.99"><defs><style>.cls-1{fill:#23473e;}.cls-1,.cls-2{stroke-width:0px;}.cls-2{fill:#e85f0c;}</style></defs><g id="Group_17"><path id="Path_79" class="cls-1" d="m324.99,80.11h-7.05v-11.93c0-.33-.27-.6-.6-.6h-3.79c-.33,0-.6.27-.6.6h0v11.93h-6.02c-.37-.04-.71.23-.76.6v3.72c.05.37.39.64.76.6h6.02v28.55c0,.33.27.6.6.6h3.79c.33,0,.6-.27.6-.6h0v-28.55h7.05c.33,0,.6-.27.6-.6h0v-3.72c0-.33-.27-.6-.6-.6h0"/><path id="Path_80" class="cls-1" d="m151.5,80.38h-.24c-7.97,0-14.7,6.9-14.7,15.07v17.82c0,.64.52,1.15,1.15,1.15h2.76c.64,0,1.15-.52,1.15-1.15v-18.2c0-5.31,4.31-9.61,9.62-9.62.31,0,.62.02.93.04,4.99.59,8.74,4.84,8.69,9.87v17.91c0,.64.52,1.15,1.15,1.15h2.76c.64,0,1.15-.52,1.15-1.15v-18.2c-.04-8-6.44-14.51-14.44-14.69"/><path id="Path_81" class="cls-1" d="m188.43,80.38h-.24c-3.57.03-7,1.38-9.63,3.79v-15.38c0-.64-.52-1.15-1.15-1.15h-2.77c-.64,0-1.15.52-1.15,1.15v44.48c0,.64.52,1.15,1.15,1.15h2.76c.64,0,1.15-.52,1.15-1.15v-18.2c0-5.31,4.31-9.61,9.62-9.62.31,0,.62.02.93.04,4.99.59,8.74,4.84,8.69,9.87v17.9c0,.64.52,1.15,1.15,1.15h2.76c.64,0,1.15-.52,1.15-1.15v-18.2c-.04-8-6.44-14.52-14.44-14.69"/><path id="Path_82" class="cls-1" d="m55.58,80.41c-7.8.69-13.78,7.21-13.8,15.04v17.82c0,.64.51,1.15,1.15,1.15h2.76c.64,0,1.15-.52,1.15-1.15v-18.2c0-5.05,3.91-9.25,8.96-9.59.37-.02.66-.32.66-.68v-3.52c0-.47-.37-.86-.85-.86-.02,0-.03,0-.05,0"/><path id="Path_83" class="cls-1" d="m300.24,80.41c-7.8.69-13.78,7.21-13.8,15.04v17.83c0,.64.52,1.15,1.15,1.15h2.76c.64,0,1.15-.52,1.15-1.15v-18.2c0-5.06,3.91-9.25,8.96-9.6.37-.02.66-.32.66-.68v-3.52c0-.47-.37-.86-.85-.86-.02,0-.03,0-.05,0"/><path id="Path_84" class="cls-1" d="m262.93,80.48c-9.46,0-17.13,7.67-17.13,17.13,0,9.46,7.67,17.13,17.13,17.13,4.53,0,8.87-1.79,12.08-4.98v3.51c0,.64.52,1.15,1.15,1.15h2.76c.64,0,1.15-.52,1.15-1.15v-15.73h-.02c-.04-9.44-7.7-17.06-17.13-17.07m0,29.22c-6.67,0-12.08-5.41-12.08-12.08s5.41-12.08,12.08-12.08c6.67,0,12.08,5.41,12.08,12.08s-5.41,12.08-12.08,12.08h0"/><path id="Path_85" class="cls-1" d="m17.14,80.48C7.67,80.48,0,88.15,0,97.61c0,9.46,7.67,17.13,17.13,17.14,4.53,0,8.87-1.79,12.09-4.99v1.55h0v1.5c0,3.49-.83,6.17-2.58,7.96-1.53,1.57-3.91,2.45-7.11,2.63-.33.01-.58.28-.59.61v3.36c0,.35.29.62.64.61,0,0,.01,0,.02,0,3.88.16,7.66-1.18,10.57-3.75,2.75-2.48,4.1-6.15,4.12-10.93v-15.75h-.02c-.04-9.44-7.69-17.06-17.13-17.06m0,29.22c-6.67,0-12.08-5.41-12.08-12.08,0-6.67,5.41-12.08,12.08-12.08s12.08,5.41,12.08,12.08h0c0,6.67-5.41,12.08-12.08,12.08"/><path id="Path_86" class="cls-1" d="m76.8,80.11c-9.46-.19-17.29,7.33-17.48,16.79-.19,9.46,7.33,17.29,16.79,17.48,6.51.13,12.53-3.44,15.54-9.21.19-.36.06-.81-.3-1-.11-.06-.22-.09-.34-.09h-4.08c-.32,0-.61.15-.8.41-3.99,5.33-11.55,6.42-16.88,2.43-.78-.58-1.48-1.26-2.1-2.01-.18-.23-.14-.57.09-.75.03-.03.07-.05.1-.06l24.39-11.81c.53-.14.84-.68.7-1.21-.03-.12-.09-.24-.16-.34,0,0-4.28-10.59-15.46-10.63m8.2,9.8l-19.59,9.48c-.32.15-.71.02-.86-.3-.03-.06-.05-.13-.06-.2-.23-1.64-.11-3.31.34-4.91,1.79-6.42,8.45-10.17,14.87-8.38,2.1.58,3.99,1.72,5.49,3.3.23.26.21.66-.05.9-.05.04-.1.07-.15.1"/><path id="Path_87" class="cls-1" d="m114.65,80.11c-9.46-.19-17.29,7.33-17.48,16.79-.19,9.46,7.33,17.29,16.79,17.48,6.51.13,12.53-3.43,15.54-9.21.19-.36.06-.81-.3-1-.11-.06-.22-.09-.34-.09h-4.08c-.32,0-.61.15-.8.41-3.99,5.33-11.55,6.42-16.88,2.43-.78-.58-1.48-1.26-2.1-2.01-.18-.23-.14-.57.09-.75.03-.03.07-.05.1-.06l24.39-11.81c.53-.14.84-.68.7-1.21-.03-.12-.09-.24-.16-.34,0,0-4.28-10.59-15.46-10.63m8.2,9.8l-19.59,9.48c-.32.15-.71.02-.86-.3-.03-.06-.05-.13-.06-.2-.23-1.64-.11-3.31.34-4.91,1.79-6.42,8.45-10.17,14.87-8.38,2.1.58,3.99,1.72,5.49,3.3.23.26.21.66-.05.9-.05.04-.1.07-.15.1"/><path id="Path_88" class="cls-1" d="m225.46,80.11c-9.46-.19-17.29,7.33-17.48,16.79s7.33,17.29,16.79,17.48c6.51.13,12.53-3.43,15.54-9.21.19-.36.06-.8-.3-1-.11-.06-.22-.09-.35-.09h-4.08c-.32,0-.61.15-.8.41-3.99,5.33-11.55,6.42-16.88,2.43-.78-.58-1.48-1.26-2.1-2.01-.18-.23-.14-.57.09-.75.03-.03.07-.05.1-.06l24.39-11.81c.53-.14.84-.68.7-1.21-.03-.12-.09-.24-.16-.34,0,0-4.28-10.59-15.46-10.63m8.2,9.8l-19.58,9.49c-.32.15-.71.02-.86-.3-.03-.06-.05-.13-.06-.2-.23-1.64-.11-3.31.34-4.91,1.79-6.42,8.45-10.17,14.87-8.38,2.1.58,3.99,1.72,5.49,3.3.23.26.21.66-.05.9-.05.04-.1.07-.15.1"/><path id="Path_89" class="cls-2" d="m327.57,0c-17.8,1.43-31.08,17.02-29.65,34.82,1.27,15.82,13.83,28.38,29.65,29.65V0Z"/><path id="Path_90" class="cls-1" d="m334.3,0c26.35,0,47.7,25.56,47.7,57.09s-21.36,57.09-47.7,57.09V0Z"/></g></svg>