<svg width="130" height="54" viewBox="0 0 130 54" fill="none" xmlns="http://www.w3.org/2000/svg">
<rect width="34" height="54" fill="#E21837"/>
<path d="M10.5 5H5.5V32H10.5V5Z" fill="#EEE4DA"/>
<path d="M19.7333 5H14.7333V32H19.7333V5Z" fill="#EEE4DA"/>
<path d="M28.9666 5H23.9666V32H28.9666V5Z" fill="#EEE4DA"/>
<path d="M5 37C5 43.6274 10.3726 49 17 49C23.6274 49 29 43.6274 29 37H5Z" fill="#EEE4DA"/>
<path fill-rule="evenodd" clip-rule="evenodd" d="M54.6911 21.8784C54.6397 22.4477 54.5888 22.2405 54.6397 22.7581C54.6911 23.0685 54.7428 23.3788 54.7941 23.637C54.7941 24.051 54.7941 24.4131 54.896 24.7231C54.9474 24.9829 55.1524 25.5514 55.5122 26.069C55.8195 26.5862 56.0758 26.8455 56.3322 27.0001C56.6912 27.2073 57.0506 27.2591 57.4602 27.3619C58.2296 27.6209 58.5373 27.7245 59.9735 27.7245C60.4352 27.7245 60.8456 27.6209 61.3073 27.6209C61.3582 27.6209 62.2299 27.5695 62.6407 27.4659C62.9994 27.3101 63.307 27.1037 63.6661 26.9479C63.6661 26.9479 64.2309 26.7415 64.4868 26.5862C64.7941 26.3276 64.9486 26.0176 65.2049 25.7068C65.8203 24.9829 65.8716 25.1893 66.128 24.2585C66.4356 23.3266 66.5379 22.3441 66.5379 22.0337C66.5379 19.9639 66.7437 21.0508 66.128 19.4468C65.9743 19.0332 65.8203 18.5674 65.5635 18.1535C65.3589 17.8949 65.2562 17.8431 64.8459 17.4295C64.2814 16.9638 64.0768 16.7566 63.7688 16.6016C62.6921 15.9287 60.7938 15.7741 60.5892 15.7741C59.9735 15.7219 59.3581 15.7741 58.6918 15.7219C58.2296 15.6701 58.025 15.6187 57.7687 15.6187C57.6143 15.6701 57.4093 15.7219 57.0506 15.8255C56.7422 15.9287 56.4349 15.9804 56.1268 16.1358C55.2041 16.653 54.7941 18.2049 54.7941 18.2571C54.7428 18.3606 54.6911 19.8607 54.6911 20.8436V21.8784ZM74.6933 21.412C74.6933 21.8782 74.7447 22.3439 74.7447 22.8611C74.7447 25.4481 73.9752 26.9477 73.5135 27.9315C73.3599 28.345 73.2058 28.8104 73.0001 29.1726C72.7441 29.5865 72.3855 29.9487 72.1287 30.3627C71.513 31.2424 71.462 31.397 71.0003 31.8109C70.4363 32.3289 69.4105 33.0014 69.3596 33.0014C68.1284 33.8294 67.3594 34.5533 64.5898 35.0191C64.3335 35.0705 64.0254 35.0705 63.7691 35.1223C63.5131 35.174 63.3074 35.2258 63.051 35.2776C62.9997 35.2776 61.5635 35.3804 60.7432 35.3804C59.8715 35.3804 59.0507 35.1741 58.23 35.1741C58.0767 35.1741 56.7938 35.2258 56.6915 35.2776C56.5379 35.2776 56.3325 35.3294 56.1788 35.3804C56.0248 35.4326 55.7685 35.4844 55.6144 35.5362C55.3064 35.6916 54.7945 36.3124 54.64 36.5187C54.5891 36.6741 54.5373 36.8809 54.5373 36.9327C54.4346 37.3989 54.3841 38.1746 54.3841 38.2268C54.3841 38.5368 54.4346 38.7953 54.486 39.0543C54.486 39.2611 54.486 39.5197 54.5373 39.7269C54.5891 40.3994 54.64 40.5026 54.64 40.9162C54.64 41.1755 54.5891 41.3819 54.64 41.6405C54.64 42.3652 54.7431 42.3138 54.6914 43.3482C54.64 43.8649 54.5891 44.3311 54.1273 44.6411C53.6151 45.055 52.5889 45.159 51.1014 45.159C50.178 45.159 49.1526 45.055 48.2296 45.055C47.0498 45.1068 46.9984 45.3136 46.4858 44.6411C46.0754 44.0725 45.9731 43.8135 45.9731 43.1406C45.9731 42.7274 46.0244 42.3652 46.0244 41.9517C46.0244 41.1755 46.0754 40.4512 46.0754 39.6751C46.0754 39.2093 46.1263 38.6922 46.1263 38.1746C46.1263 37.2949 45.9731 36.4159 45.9731 35.5362C46.0244 34.9159 46.0754 34.2429 46.0244 33.6736V31.6559C46.0244 30.2587 46.1777 28.9144 46.1777 27.5175C46.1777 26.8963 46.1263 26.2756 46.1777 25.6548C46.229 25.2409 46.3317 24.8269 46.3317 24.3616C46.3317 23.8444 46.229 23.3264 46.2804 22.7579C46.2804 22.3439 46.3317 21.93 46.2804 21.5682C46.229 20.9984 46.1263 20.4295 46.1263 19.9123C46.1263 19.3434 46.1777 18.774 46.1777 18.2569C46.1777 17.5843 46.1263 16.9636 46.1263 16.2906C46.1263 15.7739 46.1777 15.2045 46.1263 14.6356C46.0244 13.7554 45.87 12.9279 45.87 12.049C45.87 10.8067 45.9731 9.87596 47.1521 9.25521C48.3832 8.53087 48.1782 8.78945 49.563 8.73766C50.0757 8.68626 50.5888 8.58227 51.1524 8.58227C51.9218 8.58227 52.6908 8.63407 53.4602 8.58227C54.076 8.58227 54.6914 8.53087 55.3064 8.47868C55.8712 8.47868 56.4352 8.47868 56.9992 8.42728C57.3582 8.42728 57.769 8.37549 58.1277 8.37549C58.9994 8.37549 59.8201 8.42728 60.6405 8.47868C62.1793 8.47868 62.9997 8.37549 65.6669 9.30701C65.9233 9.35841 66.795 9.61699 67.5644 10.0306C68.0257 10.2385 68.4875 10.5485 68.9492 10.8067C69.3082 11.0139 70.3849 11.635 71.3084 12.5143C72.026 13.2387 72.2828 13.7554 72.5905 14.1694C72.6928 14.377 73.8729 16.0838 74.2316 17.4807C74.3852 18.0497 74.4366 18.6708 74.4875 19.2916C74.5389 19.7051 74.642 20.1709 74.6933 20.5849V21.412Z" fill="#EEE4DA"/>
<path fill-rule="evenodd" clip-rule="evenodd" d="M82.8479 8.58237C84.2323 8.58237 84.4886 8.32418 85.1044 8.99633C85.8217 9.72067 85.5657 10.0828 85.5144 10.6004V11.1693C85.5144 11.5833 85.463 11.9973 85.463 12.4112C85.4117 13.2388 85.5657 14.1181 85.5657 14.946C85.5657 15.3078 85.5144 15.9803 85.4117 16.8083C85.3607 17.1704 85.3094 17.5844 85.3094 17.9466C85.3607 18.257 85.4117 18.5673 85.4117 18.8777C85.463 19.2399 85.3094 20.3268 85.9753 20.3268C86.4888 20.3268 87.1042 19.8606 87.5145 19.6538C87.8736 19.4467 88.079 19.4467 88.7453 19.2917C89.1047 19.1881 89.4633 19.0845 89.822 19.0331C90.1814 18.9813 90.4887 18.9813 90.8477 18.9295C91.2072 18.9295 91.6171 18.8777 91.9762 18.8777C92.3869 18.8777 93.9767 19.0331 94.3358 19.1363C94.4894 19.1881 96.1305 19.9124 97.1053 20.5846C97.5153 20.8957 97.7713 21.3607 98.0797 21.7751C98.7974 22.7066 98.8491 22.3962 99.2587 23.4823C99.3618 23.7927 99.5155 24.0509 99.6178 24.3613L99.9258 25.2928C100.49 27.1554 100.131 28.7073 100.131 30.5695C100.131 31.3971 100.182 32.225 100.233 33.0015C100.233 33.7777 100.182 34.6052 100.182 35.3805V37.2436C100.131 37.7089 100.131 38.2269 100.131 38.7436C100.131 39.2612 100.182 39.7784 100.131 40.3477C100.131 40.7099 100.079 41.1238 100.079 41.4856C100.028 43.1407 100.336 43.6064 99.6695 44.3312C98.8491 45.2623 98.9005 45.1069 97.7203 45.1069C97.259 45.1069 96.8999 45.1591 96.4382 45.1591C96.0792 45.1591 95.6688 45.1069 95.2584 45.1591C94.7461 45.1591 94.1817 45.2109 93.6686 45.2109C93.3614 45.2109 92.9506 45.4695 92.4375 44.9001C91.8225 44.2276 92.0275 43.2965 92.0275 42.4167V41.227C92.0789 40.7617 92.1302 40.2959 92.1302 39.8298C92.1302 39.2612 92.0789 38.6922 92.1302 38.1229C92.1816 37.7089 92.2329 37.295 92.2329 36.881C92.2329 36.2603 92.1816 35.6399 92.1816 35.0192C92.1816 34.5016 92.2329 33.984 92.2329 33.4669L92.0789 31.915C92.0275 30.9317 91.9252 30.2078 91.8225 29.8456C91.6685 29.4316 91.7202 29.6388 91.5145 29.1726C91.3612 28.9145 91.2581 28.6559 91.0535 28.4483C90.7968 28.2419 90.1297 27.7758 89.207 27.7758C88.7966 27.7758 88.438 27.8798 88.3349 27.8798C87.5145 28.0865 87.2578 28.2419 86.7961 28.9145C86.5401 29.2762 86.2838 29.5866 86.1298 29.9488C85.7703 30.6727 85.3607 32.4322 85.3607 34.5534C85.3607 35.3805 85.463 36.2603 85.463 37.0882C85.4117 37.8643 85.3607 38.5887 85.4117 39.313C85.4117 39.882 85.5144 40.3995 85.5144 40.9163C85.5144 41.4338 85.3607 41.8996 85.4117 42.4167C85.463 42.8825 85.7198 43.5033 85.2067 44.383C84.8986 44.9001 84.4886 45.2109 83.3602 45.1591C82.6421 45.1069 81.9245 45.0551 81.2064 45.0551C80.5397 45.0551 79.9243 45.1069 79.3085 45.1069C78.3855 45.1591 78.1801 45.1069 77.7697 44.693C77.052 43.9172 77.308 43.6064 77.308 42.6757V41.0203C77.3597 40.2437 77.4111 39.5198 77.4111 38.7436C77.3597 36.6742 77.308 34.657 77.308 32.5872C77.308 31.1907 77.308 29.742 77.3597 28.3451C77.3597 27.828 77.4111 27.3618 77.4111 26.845C77.4111 26.1203 77.3597 25.4482 77.3597 24.723C77.3597 24.2581 77.4111 23.7405 77.4111 23.2233C77.3597 22.6026 77.308 21.9822 77.3597 21.3607C77.3597 20.8957 77.4111 20.4296 77.4111 19.9638C77.4111 19.4985 77.3597 19.0331 77.4111 18.5673C77.4111 18.1534 77.4624 17.7398 77.4624 17.3776C77.4111 16.8083 77.3597 16.2393 77.3597 15.6186C77.3597 14.8938 77.4111 14.1695 77.4111 13.3938C77.3597 12.8248 77.308 12.2551 77.308 11.6869C77.308 11.3761 77.3597 11.0658 77.3597 10.7558C77.3597 10.3418 77.2057 8.68635 78.9499 8.47878C79.5135 8.42738 80.0779 8.53097 80.6416 8.58237H82.8479Z" fill="#EEE4DA"/>
<path fill-rule="evenodd" clip-rule="evenodd" d="M112.695 27.8283C112.336 28.0869 112.08 28.3968 111.977 28.5008C111.618 28.9666 110.542 30.1045 110.542 31.9153C110.542 33.5194 110.798 34.2437 111.105 34.9677C111.26 35.3303 111.413 35.692 111.618 36.0542C112.08 36.6746 113.208 37.5025 113.926 37.7611C114.235 37.8646 114.336 37.9164 114.952 38.0196C115.311 38.0718 115.67 38.1232 116.029 38.1232C116.439 38.1232 116.645 38.0718 117.004 37.9682C118.132 37.7093 118.594 37.3471 119.414 36.6746C119.517 36.6228 120.081 36.2088 120.388 35.7948C120.696 35.3813 120.593 35.3813 120.953 34.6569C121.055 34.3983 121.209 34.1398 121.26 33.8812C121.414 33.5194 121.568 32.1735 121.568 31.8114C121.568 31.2428 121.209 29.8973 120.953 29.3806C120.747 29.018 120.645 28.8626 120.081 28.3458C119.208 27.5179 119.465 27.6733 118.696 27.3103C117.568 26.7936 117.927 26.9482 117.004 26.7936C116.645 26.7418 116.337 26.69 116.029 26.6378C115.157 26.6378 113.362 27.3621 112.695 27.8283V27.8283ZM116.081 18.7745C116.542 18.7227 117.055 18.6709 117.568 18.6709C118.492 18.6709 120.543 19.1367 121.363 19.4988C121.825 19.7052 122.286 19.9638 122.748 20.2232C123.466 20.5849 123.928 20.6371 125.005 21.6197C126.184 22.6544 126.287 22.9647 126.902 23.6891C127.261 24.1548 127.722 24.5688 128.031 25.086C128.287 25.4995 128.595 26.1725 128.954 27.2072C129.159 27.7757 129.825 29.4834 129.825 31.346C129.825 32.0186 129.723 32.6911 129.672 33.3115C129.672 33.3637 129.62 34.6566 129.466 35.2777C129.313 36.0021 128.954 36.7264 128.903 36.881C128.697 37.295 128.595 37.7607 128.389 38.2269C127.928 39.3648 127.415 39.8819 126.697 40.8135C125.363 42.6239 125.671 42.3139 124.338 43.1929C124.03 43.4514 123.722 43.6586 123.364 43.8654C122.953 44.0726 122.851 44.0726 122.235 44.3312C121.876 44.4348 121.62 44.5901 121.312 44.7451C121.107 44.8483 120.132 45.2109 119.26 45.3655C118.389 45.5209 117.978 45.4695 117.158 45.5209C116.645 45.5209 116.132 45.6248 115.619 45.6248C114.901 45.6248 114.594 45.5209 113.26 45.3141C111.619 45.0551 111.311 45.0037 110.44 44.5901C109.67 44.228 107.875 43.2447 107.208 42.7279C106.644 42.2621 106.49 42.0032 106.286 41.6924C106.028 41.382 105.773 41.0202 105.516 40.7099C105.31 40.5031 105.105 40.2959 104.951 40.0891C103.926 38.8994 103.618 37.7607 103.157 36.3124C102.9 35.4845 102.695 34.9159 102.593 34.0358C102.541 33.2079 102.593 33.4155 102.644 32.2772C102.644 31.7596 102.541 31.2424 102.541 30.7249C102.541 30.3109 102.695 28.9662 102.798 28.6037C102.9 28.2937 103.003 27.9833 103.157 27.6212C103.413 26.8968 103.362 26.8968 103.567 26.4832C103.823 26.0175 104.182 25.5513 104.49 25.1374C104.9 24.517 105.413 23.6891 105.977 23.2233C106.131 23.0683 106.336 22.9647 106.49 22.8098C106.849 22.5508 107.413 21.8782 107.413 21.8782C107.516 21.775 107.772 21.5161 108.08 21.3097C108.798 20.7921 108.901 20.8435 109.67 20.4296C110.131 20.171 110.542 19.861 111.004 19.6538C112.08 19.1367 113.67 18.7745 114.901 18.7745H116.081Z" fill="#EEE4DA"/>
</svg>
