<?xml version="1.0" encoding="utf-8"?>
<!-- Generator: Adobe Illustrator 15.1.0, SVG Export Plug-In . SVG Version: 6.00 Build 0)  -->
<!DOCTYPE svg PUBLIC "-//W3C//DTD SVG 1.1//EN" "http://www.w3.org/Graphics/SVG/1.1/DTD/svg11.dtd">
<svg version="1.1" id="Layer_1" xmlns="http://www.w3.org/2000/svg" xmlns:xlink="http://www.w3.org/1999/xlink" x="0px" y="0px"
	 width="171.199px" height="113px" viewBox="0 0 171.199 113" enable-background="new 0 0 171.199 113" xml:space="preserve">
<g>
	<g>
		<path fill="#25395B" d="M40.78,19.603l-23.992,0v9.814h21.538c3.681,0,5.635,2.022,5.635,4.953v17.585
			c0,2.113-1.682,4.816-5.498,4.816H18.628c-3.407,0-5.293-2.84-5.293-5.089V0.701H0.703v50.982c0,11.11,9.542,14.905,16.085,14.905
			H40.78c10.632,0,15.994-6.862,15.994-10.359V33.235C56.774,22.898,46.573,19.603,40.78,19.603z"/>
		<path fill="#25395B" d="M65.903,33.235v20.721c0,5.929,5.361,12.632,15.994,12.632c8.713,0,24.705,0,30.244,0v-9.815
			c-4.658,0-26.139,0-27.927,0c-3.817,0-5.498-2.703-5.498-4.816V34.371c0-2.931,1.954-4.953,5.635-4.953h27.79v-9.815H81.897
			C76.104,19.603,65.903,22.898,65.903,33.235z"/>
		<path fill="#25395B" d="M170.521,53.319c0-10.224-6.68-14.858-15.744-14.858c-0.082,0-0.16,0.002-0.24,0.004V38.46h-18.824
			c-3.271,0-4.225-3.476-4.225-5.112c0-1.635,1.566-3.861,4.43-3.861h29.512v-9.815h-21.367h-8.895h-0.1v0.001
			c-5.883,0.034-16.463,3.101-16.463,13.267c0,10.209,6.66,14.845,15.705,14.858v0h19.104c3.271,0,4.225,3.476,4.225,5.111
			s-1.566,3.862-4.43,3.862h-30.365v9.815h22.221h8.895h0.1v-0.001C159.94,66.552,170.521,63.485,170.521,53.319z"/>
	</g>
	<g>
		<rect x="1.99" y="79.363" fill="#25395B" width="167.243" height="1.499"/>
		<rect x="1.99" y="110.748" fill="#25395B" width="167.243" height="1.499"/>
	</g>
	<g>
		<g>
			<polygon fill="#25395B" points="87.471,86.696 87.471,92.249 86.417,92.249 86.417,94.539 87.471,94.539 87.471,104.822 
				90.947,104.822 90.947,94.539 93.773,94.539 93.773,92.249 90.947,92.249 90.947,86.696 			"/>
			<rect x="26.565" y="86.696" fill="#25395B" width="3.476" height="18.126"/>
			<path fill="#25395B" d="M69.52,94.596h7.645v-2.699h-8.319c-1.595,0-4.401,0.906-4.401,3.75v5.699
				c0,1.632,1.476,3.476,4.401,3.476c2.396,0,6.796,0,8.319,0v-2.7c-1.281,0-7.19,0-7.683,0c-1.05,0-1.513-0.744-1.513-1.325v-4.838
				C67.969,95.153,68.507,94.596,69.52,94.596z"/>
			<path fill="#25395B" d="M44.338,91.897c-1.595,0-4.401,0.906-4.401,3.75v5.699c0,1.632,1.476,3.476,4.401,3.476
				c2.396,0,7.999,0,9.522,0v-2.7c-1.281,0-8.394,0-8.886,0c-1.05,0-1.513-0.744-1.513-1.325v-4.838c0-0.806,0.538-1.362,1.55-1.362
				h5.448c0.055,0.011,0.11,0.019,0.169,0.019c0.788,0,1.219,0.612,1.219,1.063c0,0.45-0.262,1.406-1.162,1.406h-6.034v2.568h6.42
				l0,0c2.488-0.005,4.32-1.28,4.32-4.088c0-2.812-2.943-3.649-4.557-3.649c-0.003,0-0.006,0-0.009,0v-0.019H44.338z"/>
			<path fill="#25395B" d="M138.293,94.596h7.645v-2.699h-8.32c-1.594,0-4.4,0.906-4.4,3.75v5.699c0,1.632,1.477,3.476,4.4,3.476
				c2.396,0,6.797,0,8.32,0v-2.7c-1.281,0-7.191,0-7.682,0c-1.051,0-1.516-0.744-1.516-1.325v-4.838
				C136.74,95.153,137.279,94.596,138.293,94.596z"/>
			<path fill="#25395B" d="M107.637,94.596h2.342v-2.699h-3.018c-1.594,0-4.4,0.906-4.4,3.75v9.175h3.525v-8.863
				C106.086,94.919,106.787,94.596,107.637,94.596z"/>
			<path fill="#25395B" d="M159.748,94.615h8.119v-2.699h-5.879h-2.445h-0.029l0,0c-1.617,0.01-4.529,0.852-4.529,3.649
				c0,2.808,1.832,4.083,4.32,4.088l0,0h5.258c0.898,0,1.16,0.956,1.16,1.407c0,0.449-0.43,1.062-1.217,1.062h-8.355v2.7h6.113
				h2.447h0.027l0,0c1.619-0.01,4.529-0.854,4.529-3.65c0-2.812-1.838-4.087-4.332-4.087c-0.023,0-0.043,0.001-0.064,0.001v-0.001
				h-5.18c-0.9,0-1.162-0.956-1.162-1.406C158.529,95.227,158.961,94.615,159.748,94.615z"/>
			<path fill="#25395B" d="M6.356,91.897c-1.594,0-4.4,0.906-4.4,3.75v5.699c0,1.632,1.475,3.476,4.4,3.476c2.397,0,8,0,9.523,0
				v-2.7c-1.281,0-8.395,0-8.887,0c-1.05,0-1.513-0.744-1.513-1.325v-4.838c0-0.806,0.538-1.362,1.551-1.362h5.448
				c0.055,0.011,0.11,0.019,0.169,0.019c0.787,0,1.219,0.612,1.219,1.063c0,0.45-0.263,1.406-1.163,1.406H6.671v2.568h6.42l0,0
				c2.488-0.005,4.32-1.28,4.32-4.088c0-2.812-2.944-3.649-4.557-3.649c-0.004,0-0.006,0-0.01,0v-0.019H6.356z"/>
			<rect x="119.664" y="86.696" fill="#25395B" width="3.477" height="3.61"/>
			<rect x="119.664" y="92.449" fill="#25395B" width="3.477" height="12.373"/>
		</g>
	</g>
</g>
</svg>
