<?xml version="1.0" encoding="UTF-8"?>
<!DOCTYPE svg PUBLIC "-//W3C//DTD SVG 1.1//EN" "http://www.w3.org/Graphics/SVG/1.1/DTD/svg11.dtd">
<!-- Creator: CorelDRAW 2018 (64-Bit) -->
<svg xmlns="http://www.w3.org/2000/svg" xml:space="preserve" width="354px" height="143px" version="1.1" style="shape-rendering:geometricPrecision; text-rendering:geometricPrecision; image-rendering:optimizeQuality; fill-rule:evenodd; clip-rule:evenodd"
viewBox="0 0 10712.1 4315.7"
 xmlns:xlink="http://www.w3.org/1999/xlink">
 <defs>
  <style type="text/css">
   <![CDATA[
    .fil1 {fill:#8FB6FF}
    .fil3 {fill:#FFE883}
    .fil2 {fill:white}
    .fil4 {fill:#8FB6FF;fill-rule:nonzero}
    .fil5 {fill:#FFE883;fill-rule:nonzero}
    .fil6 {fill:white;fill-rule:nonzero}
    .fil0 {fill:black;fill-opacity:0.200000}
    .fil7 {fill:white;fill-opacity:0.301961}
   ]]>
  </style>
 </defs>
 <g id="Layer_x0020_1">
  <metadata id="CorelCorpID_0Corel-Layer"/>
  <g id="_2488561525072">
   <path class="fil0" d="M1614.5 136.3c5120.7,5572.6 -5120.7,5572.6 0,0z"/>
   <path class="fil1" d="M1478.2 0c5120.7,5572.6 -5120.7,5572.6 0,0z"/>
   <rect class="fil2" x="805.7" y="2366.9" width="1345" height="1034"/>
   <polygon class="fil3" points="1178.8,824.2 1178.8,1200.1 1777.6,1200.1 1777.6,824.2 "/>
   <polygon class="fil2" points="1802.1,1249 1154.3,1249 854.2,1950 2102.2,1950 "/>
   <path class="fil2" d="M1081.6 775.3l793.3 0 -127.2 -469.4c-85.2,-100.3 -173.8,-201.8 -269.5,-305.9 -95.6,104.1 -184.3,205.7 -269.4,305.9l-127.2 469.4z"/>
   <path class="fil3" d="M2029.5 4027.4l0 -577.6 -1102.5 0 0 577.6c351.5,119.9 750.9,120 1102.5,0z"/>
   <circle class="fil2" cx="1478.2" cy="2883.9" r="398.6"/>
   <path class="fil4" d="M1478.2 2473.1c113.5,0 216.2,45.9 290.5,120.3 74.3,74.3 120.3,177 120.3,290.5 0,113.4 -46,216.1 -120.3,290.4 -74.3,74.4 -177,120.3 -290.5,120.3 -113.4,0 -216.1,-45.9 -290.4,-120.3 -74.4,-74.3 -120.4,-177 -120.4,-290.4 0,-113.5 46,-216.2 120.4,-290.5 74.3,-74.4 177,-120.3 290.4,-120.3zm273.2 137.6c-69.9,-69.9 -166.5,-113.2 -273.2,-113.2 -106.7,0 -203.2,43.3 -273.1,113.2 -70,69.9 -113.2,166.5 -113.2,273.2 0,106.6 43.2,203.2 113.2,273.1 69.9,69.9 166.4,113.2 273.1,113.2 106.7,0 203.3,-43.3 273.2,-113.2 69.9,-69.9 113.2,-166.5 113.2,-273.1 0,-106.7 -43.3,-203.3 -113.2,-273.2z"/>
   <path class="fil4" d="M1286.6 1157.7l0 -231.6c0,-13.5 10.9,-24.5 24.4,-24.5 13.6,0 24.5,11 24.5,24.5l0 231.6 -48.9 0z"/>
   <path class="fil4" d="M1453.8 1157.7l0 -231.6c0,-13.5 10.9,-24.5 24.4,-24.5 13.5,0 24.5,11 24.5,24.5l0 231.6 -48.9 0z"/>
   <path class="fil4" d="M1620.9 1157.7l0 -231.6c0,-13.5 11,-24.5 24.5,-24.5 13.5,0 24.5,11 24.5,24.5l0 231.6 -49 0z"/>
   <polygon class="fil3" points="2029.5,2318 2029.5,1998.9 927,1998.9 927,2318 "/>
   <g>
    <path class="fil4" d="M1086.3 2275.5l0 -209.7c0,-13.5 10.9,-24.4 24.4,-24.4 13.5,0 24.5,10.9 24.5,24.4l0 209.7 -48.9 0z"/>
    <path class="fil4" d="M1270 2275.5l0 -209.7c0,-13.5 11,-24.4 24.5,-24.4 13.5,0 24.4,10.9 24.4,24.4l0 209.7 -48.9 0z"/>
    <path class="fil4" d="M1453.8 2275.5l0 -209.7c0,-13.5 10.9,-24.4 24.4,-24.4 13.5,0 24.5,10.9 24.5,24.4l0 209.7 -48.9 0z"/>
    <path class="fil4" d="M1637.5 2275.5l0 -209.7c0,-13.5 11,-24.4 24.5,-24.4 13.5,0 24.4,10.9 24.4,24.4l0 209.7 -48.9 0z"/>
    <path class="fil4" d="M1821.3 2275.5l0 -209.7c0,-13.5 10.9,-24.4 24.4,-24.4 13.5,0 24.5,10.9 24.5,24.4l0 209.7 -48.9 0z"/>
   </g>
   <g>
    <path class="fil4" d="M1135.2 3701.9c0,13.5 -11,24.5 -24.5,24.5 -13.5,0 -24.4,-11 -24.4,-24.5l0 -209.7 48.9 0 0 209.7z"/>
    <path class="fil4" d="M1318.9 3824.2c0,13.5 -10.9,24.5 -24.4,24.5 -13.5,0 -24.5,-11 -24.5,-24.5l0 -332 48.9 0 0 332z"/>
    <path class="fil4" d="M1502.7 3946.5c0,13.5 -11,24.5 -24.5,24.5 -13.5,0 -24.4,-11 -24.4,-24.5l0 -454.3 48.9 0 0 454.3z"/>
    <path class="fil4" d="M1686.4 3824.2c0,13.5 -10.9,24.5 -24.4,24.5 -13.5,0 -24.5,-11 -24.5,-24.5l0 -332 48.9 0 0 332z"/>
    <path class="fil4" d="M1870.2 3701.9c0,13.5 -11,24.5 -24.5,24.5 -13.5,0 -24.4,-11 -24.4,-24.5l0 -209.7 48.9 0 0 209.7z"/>
   </g>
   <circle class="fil3" cx="1478.2" cy="2883.9" r="321.5"/>
   <path class="fil4" d="M1478.2 2537.9c95.6,0 182.1,38.7 244.7,101.3 62.6,62.6 101.3,149.1 101.3,244.7 0,95.5 -38.7,182 -101.3,244.6 -62.6,62.6 -149.1,101.3 -244.7,101.3 -95.5,0 -182,-38.7 -244.6,-101.3 -62.6,-62.6 -101.3,-149.1 -101.3,-244.6 0,-95.6 38.7,-182.1 101.3,-244.7 62.6,-62.6 149.1,-101.3 244.6,-101.3zm210.1 135.9c-53.8,-53.7 -128,-87 -210.1,-87 -82,0 -156.3,33.3 -210,87 -53.8,53.8 -87,128 -87,210.1 0,82 33.2,156.3 87,210 53.7,53.8 128,87 210,87 82.1,0 156.3,-33.2 210.1,-87 53.7,-53.7 87,-128 87,-210 0,-82.1 -33.3,-156.3 -87,-210.1z"/>
   <g>
    <path class="fil0" d="M3765.9 2313.7l0 92.1 -341.1 0 0 -92.1c17.7,-6.4 44.1,-15.2 79.5,-26.5l0 -503.2 -79.5 -31.8 0 -87.9 243.7 -5.3 296.6 0 0 201.3 -98.5 0 -26.5 -76.3 -171.6 0 0 187.5 219.2 0 0 116.5 -219.2 0 0 199.2c55,14.8 87.5,23.7 97.4,26.5zm585.8 0l0 92.1 -323.1 0 0 -92.1 79.5 -26.5 0 -503.2 -79.5 -31.8 0 -87.9 323.1 -5.3 0 93.2 -79.4 31.8 0 503.2 79.4 26.5zm381.4 0l0 92.1 -307.2 0 0 -92.1 79.4 -26.5 0 -503.2 -79.4 -31.8 0 -87.9 254.2 -5.3 286.1 489.4 0 -364.4 -77.4 -31.8 0 -87.9 301.9 -5.3 0 93.2 -79.4 31.8 0 621.8 -176.9 0 -283.9 -479.8 0 361.2 82.6 26.5zm789.2 -529.7l0 176.9 214 0 0 116.5 -214 0 0 204.5 187.5 0 24.4 -87.9 97.5 0 0 211.8 -553 0 0 -92.1 79.4 -26.5 0 -503.2 -79.4 -31.8 0 -87.9 243.6 -5.3 296.7 0 0 204.5 -98.6 0 -26.5 -79.5 -171.6 0zm888.8 0l0 497.9 162.1 0 23.3 -119.7 100.6 0 0 243.6 -529.6 0 0 -92.1 79.4 -26.5 0 -503.2 -79.4 -31.8 0 -87.9 323.1 -5.3 0 93.2 -79.5 31.8zm697.1 -5.3c-55.1,0 -96.8,19.6 -125,58.8 -28.3,39.2 -42.4,104.3 -42.4,195.5 0,86.8 12.9,150.9 38.7,192.2 25.7,41.3 65.1,62 118.1,62 55.8,0 98.3,-20.3 127.6,-60.9 29.3,-40.6 44,-106.8 44,-198.6 0,-86.2 -13.4,-149.2 -40.3,-189.1 -26.8,-39.9 -67.1,-59.9 -120.7,-59.9zm5.3 -132.4c105.9,0 188,33 246.3,99 58.2,66.1 87.4,158.4 87.4,277.1 0,119.3 -32.7,215.4 -98,288.1 -65.4,72.7 -151,109.1 -256.9,109.1 -106,0 -187.2,-32.5 -243.7,-97.4 -56.5,-65 -84.7,-159.7 -84.7,-284 0,-121.4 31.2,-217.1 93.7,-287 62.5,-69.9 147.8,-104.9 255.9,-104.9zm736.2 667.4l0 92.1 -307.2 0 0 -92.1 79.5 -26.5 0 -503.2 -79.5 -31.8 0 -87.9 254.3 -5.3 286 489.4 0 -364.4 -77.4 -31.8 0 -87.9 302 -5.3 0 93.2 -79.5 31.8 0 621.8 -176.9 0 -283.9 -479.8 0 361.2 82.6 26.5zm786.1 -529.7l0 497.9 87.9 0c55.1,0 97.4,-19.6 127.1,-58.8 29.7,-39.2 44.5,-104.3 44.5,-195.4 0,-86.2 -13.9,-148.3 -41.8,-186.5 -27.9,-38.1 -68.7,-57.2 -122.4,-57.2l-95.3 0zm-243.7 621.8l0 -92.1 79.5 -26.5 0 -503.2 -79.5 -31.8 0 -87.9 243.7 -5.3 100.6 0c107.3,0 190.3,31.1 248.9,93.2 58.7,62.2 88,152.2 88,270.2 0,118.6 -31.8,212.2 -95.4,280.7 -63.5,68.5 -149.3,102.7 -257.4,102.7l-328.4 0zm1120.8 -627.1c-55.1,0 -96.8,19.6 -125,58.8 -28.3,39.2 -42.4,104.3 -42.4,195.5 0,86.8 12.9,150.9 38.7,192.2 25.8,41.3 65.1,62 118.1,62 55.8,0 98.3,-20.3 127.7,-60.9 29.3,-40.6 43.9,-106.8 43.9,-198.6 0,-86.2 -13.4,-149.2 -40.2,-189.1 -26.9,-39.9 -67.1,-59.9 -120.8,-59.9zm5.3 -132.4c105.9,0 188,33 246.3,99 58.3,66.1 87.4,158.4 87.4,277.1 0,119.3 -32.7,215.4 -98,288.1 -65.3,72.7 -151,109.1 -256.9,109.1 -105.9,0 -187.1,-32.5 -243.6,-97.4 -56.5,-65 -84.8,-159.7 -84.8,-284 0,-121.4 31.3,-217.1 93.8,-287 62.5,-69.9 147.7,-104.9 255.8,-104.9zm736.2 667.4l0 92.1 -307.2 0 0 -92.1 79.5 -26.5 0 -503.2 -79.5 -31.8 0 -87.9 254.3 -5.3 286 489.4 0 -364.4 -77.3 -31.8 0 -87.9 301.9 -5.3 0 93.2 -79.5 31.8 0 621.8 -176.9 0 -283.9 -479.8 0 361.2 82.6 26.5zm-6212.8 636.7c-43.9,-14.9 -96.2,-22.4 -156.9,-22.4 -154.1,0 -231.2,114.4 -231.2,343.3 0,214.8 79.4,322.2 238.2,322.2 41.1,0 83.8,-8.1 128.2,-24.5 44.4,-16.3 78.7,-32.9 103,-49.7l35 -23.9 77.1 126.1c-3.8,3.8 -9.4,9.2 -16.9,16.2 -7.4,7 -23.5,19.3 -48.3,37.1 -24.7,17.7 -50.7,33.2 -77.8,46.2 -27,13.1 -60.9,25.3 -101.5,36.5 -40.7,11.2 -81.5,16.8 -122.6,16.8 -142.9,0 -253.4,-42.3 -331.4,-126.8 -78,-84.6 -117,-207.6 -117,-369.2 0,-163.5 42.5,-291.9 127.5,-385.3 85,-93.4 199.9,-140.2 344.7,-140.2 50.4,0 102.7,5.4 156.9,16.1 54.2,10.8 95.8,21.8 124.7,33l44.8 16.8 -6.9 266.2 -137.4 0 -32.2 -134.5zm602.5 -15.4l0 658.5 214.4 0 30.8 -158.3 133.1 0 0 322.3 -700.6 0 0 -121.9 105.1 -35.1 0 -665.5 -105.1 -42 0 -116.3 427.4 -7 0 123.3 -105.1 42zm788.9 0l0 234 283 0 0 154.1 -283 0 0 270.4 248 0 32.2 -116.3 128.9 0 0 280.3 -731.4 0 0 -121.9 105.1 -35.1 0 -665.5 -105.1 -42 0 -116.3 322.3 -7 392.3 0 0 270.4 -130.3 0 -35.1 -105.1 -226.9 0zm1004.6 81.3l-110.7 332 215.8 0 -105.1 -332zm126.1 -246.6l301.2 833.6 98.1 32.3 0 121.9 -445.6 0 0 -121.9 105.1 -32.3 -33.6 -105 -311.1 0 -35 103.6 109.3 33.7 0 121.9 -423.1 0 0 -121.9 102.2 -32.3 308.3 -829.4 224.2 -4.2zm871.5 865.9l0 121.9 -406.4 0 0 -121.9 105.1 -35.1 0 -665.5 -105.1 -42 0 -116.3 336.3 -7 378.3 647.3 0 -482 -102.2 -42 0 -116.3 399.3 -7 0 123.3 -105.1 42 0 822.5 -234 0 -375.5 -634.8 0 477.8 109.3 35.1zm1120.9 0l0 121.9 -427.3 0 0 -121.9 105 -35.1 0 -665.5 -105 -42 0 -116.3 427.3 -7 0 123.3 -105.1 42 0 665.5 105.1 35.1zm504.4 0l0 121.9 -406.3 0 0 -121.9 105.1 -35.1 0 -665.5 -105.1 -42 0 -116.3 336.3 -7 378.3 647.3 0 -482 -102.3 -42 0 -116.3 399.3 -7 0 123.3 -105.1 42 0 822.5 -234 0 -375.5 -634.8 0 477.8 109.3 35.1zm1383 -564.7l-35.1 -120.5c-43.9,-14.9 -96.7,-22.4 -158.3,-22.4 -156,0 -234,114.4 -234,343.3 0,216.7 79.4,325 238.2,325 21.5,0 45.1,-2.1 70.7,-6.3 25.7,-4.2 46.1,-8.2 61,-11.9l22.4 -7 0 -176.5 -105.1 -32.3 0 -114.9 403.6 -7 0 121.9 -95.3 32.3 0 285.8c-11.2,7.5 -26.9,16.3 -47,26.6 -20,10.3 -63.2,24.1 -129.6,41.4 -66.3,17.2 -134.5,25.9 -204.5,25.9 -142.9,0 -253.4,-42.3 -331.4,-126.8 -78,-84.6 -117,-207.6 -117,-369.2 0,-163.5 42.5,-291.9 127.5,-385.3 85,-93.4 199.9,-140.2 344.7,-140.2 50.4,0 102.7,5.4 156.9,16.1 54.2,10.8 96.2,21.8 126.1,33l43.5 16.8 -7 252.2 -130.3 0z"/>
    <g>
     <path class="fil5" d="M3680.8 2228.7l0 92.1 -341 0 0 -92.1c17.6,-6.4 44.1,-15.2 79.4,-26.5l0 -503.2 -79.4 -31.8 0 -87.9 243.6 -5.3 296.6 0 0 201.3 -98.5 0 -26.5 -76.3 -171.6 0 0 187.5 219.3 0 0 116.5 -219.3 0 0 199.2c55.1,14.8 87.6,23.6 97.4,26.5z"/>
     <polygon id="1" class="fil5" points="4266.6,2228.7 4266.6,2320.8 3943.5,2320.8 3943.5,2228.7 4023,2202.2 4023,1699 3943.5,1667.2 3943.5,1579.3 4266.6,1574 4266.6,1667.2 4187.2,1699 4187.2,2202.2 "/>
     <polygon id="2" class="fil5" points="4648,2228.7 4648,2320.8 4340.8,2320.8 4340.8,2228.7 4420.2,2202.2 4420.2,1699 4340.8,1667.2 4340.8,1579.3 4595,1574 4881,2063.4 4881,1699 4803.7,1667.2 4803.7,1579.3 5105.6,1574 5105.6,1667.2 5026.1,1699 5026.1,2320.8 4849.2,2320.8 4565.3,1841 4565.3,2202.2 "/>
     <polygon id="3" class="fil5" points="5437.1,1699 5437.1,1875.9 5651.1,1875.9 5651.1,1992.4 5437.1,1992.4 5437.1,2196.9 5624.6,2196.9 5649,2109 5746.4,2109 5746.4,2320.8 5193.5,2320.8 5193.5,2228.7 5272.9,2202.2 5272.9,1699 5193.5,1667.2 5193.5,1579.3 5437.1,1574 5733.7,1574 5733.7,1778.5 5635.2,1778.5 5608.7,1699 "/>
     <polygon id="4" class="fil5" points="6325.8,1699 6325.8,2196.9 6487.9,2196.9 6511.2,2077.2 6611.8,2077.2 6611.8,2320.8 6082.2,2320.8 6082.2,2228.7 6161.7,2202.2 6161.7,1699 6082.2,1667.2 6082.2,1579.3 6405.3,1574 6405.3,1667.2 "/>
     <path id="5" class="fil5" d="M7028.1 1561.3c106,0 188.1,33 246.3,99.1 58.3,66 87.4,158.3 87.4,277 0,119.3 -32.6,215.4 -98,288.1 -65.3,72.7 -150.9,109.1 -256.8,109.1 -106,0 -187.2,-32.5 -243.7,-97.5 -56.5,-64.9 -84.7,-159.6 -84.7,-283.8 0,-121.5 31.2,-217.2 93.7,-287.1 62.5,-69.9 147.8,-104.9 255.8,-104.9zm-5.3 132.4c-55,0 -96.7,19.6 -125,58.8 -28.2,39.2 -42.3,104.4 -42.3,195.5 0,86.8 12.9,150.9 38.6,192.2 25.8,41.3 65.2,62 118.1,62 55.8,0 98.4,-20.3 127.7,-60.9 29.3,-40.6 43.9,-106.8 43.9,-198.6 0,-86.2 -13.4,-149.2 -40.2,-189.1 -26.8,-39.9 -67.1,-59.9 -120.8,-59.9z"/>
     <polygon id="6" class="fil5" points="7764.3,2228.7 7764.3,2320.8 7457.1,2320.8 7457.1,2228.7 7536.6,2202.2 7536.6,1699 7457.1,1667.2 7457.1,1579.3 7711.4,1574 7997.4,2063.4 7997.4,1699 7920,1667.2 7920,1579.3 8221.9,1574 8221.9,1667.2 8142.5,1699 8142.5,2320.8 7965.6,2320.8 7681.7,1841 7681.7,2202.2 "/>
     <path id="7" class="fil5" d="M8306.7 2320.8l0 -92.1 79.4 -26.5 0 -503.2 -79.4 -31.8 0 -87.9 243.6 -5.3 100.6 0c107.4,0 190.4,31.1 249,93.2 58.6,62.2 87.9,152.2 87.9,270.2 0,118.6 -31.8,212.2 -95.3,280.7 -63.6,68.5 -149.4,102.7 -257.5,102.7l-328.3 0zm243.6 -621.8l0 497.9 87.9 0c55.1,0 97.5,-19.6 127.1,-58.8 29.7,-39.2 44.5,-104.3 44.5,-195.4 0,-86.2 -13.9,-148.3 -41.8,-186.5 -27.9,-38.1 -68.7,-57.2 -122.4,-57.2l-95.3 0z"/>
     <path id="8" class="fil5" d="M9432.7 1561.3c105.9,0 188,33 246.3,99.1 58.2,66 87.3,158.3 87.3,277 0,119.3 -32.6,215.4 -97.9,288.1 -65.4,72.7 -151,109.1 -256.9,109.1 -105.9,0 -187.1,-32.5 -243.6,-97.5 -56.5,-64.9 -84.8,-159.6 -84.8,-283.8 0,-121.5 31.3,-217.2 93.8,-287.1 62.5,-69.9 147.7,-104.9 255.8,-104.9zm-5.3 132.4c-55.1,0 -96.8,19.6 -125,58.8 -28.3,39.2 -42.4,104.4 -42.4,195.5 0,86.8 12.9,150.9 38.7,192.2 25.8,41.3 65.1,62 118.1,62 55.8,0 98.3,-20.3 127.6,-60.9 29.3,-40.6 44,-106.8 44,-198.6 0,-86.2 -13.4,-149.2 -40.3,-189.1 -26.8,-39.9 -67.1,-59.9 -120.7,-59.9z"/>
     <polygon id="9" class="fil5" points="10168.9,2228.7 10168.9,2320.8 9861.7,2320.8 9861.7,2228.7 9941.1,2202.2 9941.1,1699 9861.7,1667.2 9861.7,1579.3 10115.9,1574 10401.9,2063.4 10401.9,1699 10324.6,1667.2 10324.6,1579.3 10626.5,1574 10626.5,1667.2 10547,1699 10547,2320.8 10370.1,2320.8 10086.2,1841 10086.2,2202.2 "/>
     <path class="fil6" d="M3956.5 2865.4c-43.9,-14.9 -96.2,-22.4 -156.9,-22.4 -154.1,0 -231.2,114.4 -231.2,343.3 0,214.8 79.4,322.2 238.2,322.2 41.1,0 83.9,-8.2 128.2,-24.5 44.4,-16.4 78.7,-32.9 103,-49.7l35 -23.9 77.1 126.1c-3.7,3.8 -9.3,9.1 -16.8,16.2 -7.5,7 -23.6,19.3 -48.4,37.1 -24.7,17.7 -50.6,33.1 -77.7,46.2 -27.1,13.1 -61,25.2 -101.6,36.4 -40.6,11.2 -81.5,16.8 -122.6,16.8 -142.9,0 -253.4,-42.2 -331.3,-126.7 -78,-84.6 -117,-207.6 -117,-369.2 0,-163.5 42.5,-291.9 127.5,-385.3 85,-93.4 199.8,-140.1 344.6,-140.1 50.5,0 102.8,5.3 157,16.1 54.1,10.7 95.7,21.7 124.6,32.9l44.9 16.8 -7 266.2 -137.3 0 -32.3 -134.5z"/>
     <polygon id="1" class="fil6" points="4559,2850 4559,3508.5 4773.4,3508.5 4804.2,3350.2 4937.3,3350.2 4937.3,3672.4 4236.8,3672.4 4236.8,3550.5 4341.8,3515.5 4341.8,2850 4236.8,2808 4236.8,2691.7 4664.1,2684.7 4664.1,2808 "/>
     <polygon id="2" class="fil6" points="5347.8,2850 5347.8,3084 5630.8,3084 5630.8,3238.1 5347.8,3238.1 5347.8,3508.5 5595.8,3508.5 5628,3392.2 5756.9,3392.2 5756.9,3672.4 5025.6,3672.4 5025.6,3550.5 5130.6,3515.5 5130.6,2850 5025.6,2808 5025.6,2691.7 5347.8,2684.7 5740.1,2684.7 5740.1,2955.1 5609.8,2955.1 5574.8,2850 "/>
     <path id="3" class="fil6" d="M6478.5 2684.7l301.2 833.6 98.1 32.2 0 121.9 -445.6 0 0 -121.9 105.1 -32.2 -33.6 -105.1 -311 0 -35.1 103.7 109.3 33.6 0 121.9 -423.1 0 0 -121.9 102.3 -32.2 308.2 -829.4 224.2 -4.2zm-126.1 246.6l-110.7 332 215.8 0 -105.1 -332z"/>
     <polygon id="4" class="fil6" points="7349.9,3550.5 7349.9,3672.4 6943.6,3672.4 6943.6,3550.5 7048.7,3515.5 7048.7,2850 6943.6,2808 6943.6,2691.7 7279.9,2684.7 7658.2,3332 7658.2,2850 7555.9,2808 7555.9,2691.7 7955.2,2684.7 7955.2,2808 7850.1,2850 7850.1,3672.4 7616.2,3672.4 7240.7,3037.8 7240.7,3515.5 "/>
     <polygon id="5" class="fil6" points="8470.8,3550.5 8470.8,3672.4 8043.5,3672.4 8043.5,3550.5 8148.6,3515.5 8148.6,2850 8043.5,2808 8043.5,2691.7 8470.8,2684.7 8470.8,2808 8365.7,2850 8365.7,3515.5 "/>
     <polygon id="6" class="fil6" points="8975.2,3550.5 8975.2,3672.4 8568.9,3672.4 8568.9,3550.5 8674,3515.5 8674,2850 8568.9,2808 8568.9,2691.7 8905.1,2684.7 9283.4,3332 9283.4,2850 9181.2,2808 9181.2,2691.7 9580.5,2684.7 9580.5,2808 9475.4,2850 9475.4,3672.4 9241.4,3672.4 8865.9,3037.8 8865.9,3515.5 "/>
     <path id="7" class="fil6" d="M10358.1 2985.9l-35.1 -120.5c-43.9,-14.9 -96.6,-22.4 -158.3,-22.4 -156,0 -234,114.4 -234,343.3 0,216.7 79.4,325 238.2,325 21.5,0 45.1,-2.1 70.8,-6.3 25.7,-4.2 46,-8.2 60.9,-11.9l22.4 -7 0 -176.5 -105.1 -32.3 0 -114.8 403.6 -7.1 0 121.9 -95.3 32.3 0 285.8c-11.2,7.4 -26.9,16.3 -47,26.6 -20,10.3 -63.2,24.1 -129.6,41.3 -66.3,17.3 -134.5,25.9 -204.5,25.9 -142.9,0 -253.4,-42.2 -331.4,-126.7 -77.9,-84.6 -116.9,-207.6 -116.9,-369.2 0,-163.5 42.5,-291.9 127.4,-385.3 85,-93.4 199.9,-140.1 344.7,-140.1 50.5,0 102.8,5.3 156.9,16.1 54.2,10.7 96.2,21.7 126.1,32.9l43.5 16.8 -7 252.2 -130.3 0z"/>
    </g>
   </g>
   <path class="fil4" d="M1453.8 2562.3c0,-13.5 10.9,-24.4 24.4,-24.4 13.5,0 24.5,10.9 24.5,24.4l0 99.2c0,13.5 -11,24.5 -24.5,24.5 -13.5,0 -24.4,-11 -24.4,-24.5l0 -99.2z"/>
   <path class="fil4" d="M1453.8 3106.2c0,-13.5 10.9,-24.4 24.4,-24.4 13.5,0 24.5,10.9 24.5,24.4l0 99.2c0,13.5 -11,24.4 -24.5,24.4 -13.5,0 -24.4,-10.9 -24.4,-24.4l0 -99.2z"/>
   <path class="fil4" d="M1453.8 2562.3c0,-13.5 10.9,-24.4 24.4,-24.4 13.5,0 24.5,10.9 24.5,24.4l0 99.2c0,13.5 -11,24.5 -24.5,24.5 -13.5,0 -24.4,-11 -24.4,-24.5l0 -99.2z"/>
   <path class="fil4" d="M1453.8 3106.2c0,-13.5 10.9,-24.4 24.4,-24.4 13.5,0 24.5,10.9 24.5,24.4l0 99.2c0,13.5 -11,24.4 -24.5,24.4 -13.5,0 -24.4,-10.9 -24.4,-24.4l0 -99.2z"/>
   <path class="fil4" d="M1799.7 2859.4c13.5,0 24.5,11 24.5,24.5 0,13.5 -11,24.4 -24.5,24.4l-99.1 0c-13.5,0 -24.5,-10.9 -24.5,-24.4 0,-13.5 11,-24.5 24.5,-24.5l99.1 0z"/>
   <path class="fil4" d="M1255.9 2859.4c13.5,0 24.4,11 24.4,24.5 0,13.5 -10.9,24.4 -24.4,24.4l-99.2 0c-13.5,0 -24.5,-10.9 -24.5,-24.4 0,-13.5 11,-24.5 24.5,-24.5l99.2 0z"/>
   <path class="fil4" d="M1628.4 2599.3c3.4,-5.8 10.9,-7.8 16.7,-4.4 5.8,3.4 7.8,10.8 4.4,16.6l-49.5 85.9c-3.4,5.8 -10.9,7.8 -16.7,4.4 -5.8,-3.3 -7.8,-10.8 -4.5,-16.6l49.6 -85.9z"/>
   <path class="fil4" d="M1356.5 3070.4c3.3,-5.9 10.8,-7.9 16.6,-4.5 5.8,3.3 7.8,10.8 4.5,16.6l-49.6 85.9c-3.3,5.8 -10.8,7.8 -16.6,4.4 -5.8,-3.3 -7.8,-10.7 -4.5,-16.6l49.6 -85.8z"/>
   <path class="fil4" d="M1750.6 2712.5c5.8,-3.3 13.3,-1.3 16.6,4.5 3.4,5.9 1.4,13.3 -4.5,16.7l-85.8 49.5c-5.9,3.4 -13.3,1.4 -16.7,-4.5 -3.3,-5.8 -1.3,-13.2 4.5,-16.6l85.9 -49.6z"/>
   <path class="fil4" d="M1279.5 2984.5c5.9,-3.4 13.3,-1.4 16.7,4.4 3.4,5.9 1.4,13.3 -4.4,16.7l-85.9 49.6c-5.8,3.3 -13.3,1.4 -16.7,-4.5 -3.3,-5.8 -1.4,-13.3 4.5,-16.6l85.8 -49.6z"/>
   <path class="fil4" d="M1762.7 3034.1c5.9,3.3 7.9,10.8 4.5,16.6 -3.3,5.8 -10.8,7.8 -16.6,4.5l-85.9 -49.6c-5.8,-3.4 -7.8,-10.8 -4.5,-16.6 3.4,-5.8 10.8,-7.9 16.7,-4.5l85.8 49.6z"/>
   <path class="fil4" d="M1291.8 2762.1c5.8,3.4 7.8,10.9 4.4,16.7 -3.4,5.8 -10.8,7.8 -16.7,4.4l-85.8 -49.5c-5.9,-3.4 -7.8,-10.9 -4.5,-16.7 3.4,-5.8 10.9,-7.8 16.7,-4.5l85.9 49.6z"/>
   <path class="fil4" d="M1649.5 3156.2c3.4,5.9 1.4,13.3 -4.5,16.6 -5.8,3.4 -13.2,1.4 -16.6,-4.4l-49.6 -85.9c-3.3,-5.8 -1.3,-13.3 4.5,-16.6 5.9,-3.4 13.3,-1.4 16.7,4.5l49.5 85.8z"/>
   <path class="fil4" d="M1377.6 2685.2c3.4,5.8 1.4,13.3 -4.4,16.6 -5.9,3.4 -13.3,1.4 -16.7,-4.4l-49.6 -85.9c-3.4,-5.8 -1.4,-13.2 4.5,-16.6 5.8,-3.4 13.2,-1.4 16.6,4.4l49.6 85.9z"/>
   <circle class="fil1" cx="1478.2" cy="2883.9" r="50"/>
   <path class="fil4" d="M1501.7 2890.4c-3.6,12.9 -17,20.6 -30,17 -12.9,-3.6 -20.6,-17.1 -17,-30l41.2 -148.6c3.6,-12.9 17,-20.6 30,-17 13,3.6 20.6,17 17,30l-41.2 148.6z"/>
   <path class="fil4" d="M1501.7 2890.4c-3.6,12.9 -17,20.6 -30,17 -12.9,-3.6 -20.6,-17.1 -17,-30l41.2 -148.6c3.6,-12.9 17,-20.6 30,-17 13,3.6 20.6,17 17,30l-41.2 148.6z"/>
   <path class="fil4" d="M1474.5 2895.5c-6.4,-2.1 -9.9,-9 -7.9,-15.4 2.1,-6.4 8.9,-9.9 15.4,-7.8l193.3 61.9c6.4,2.1 9.9,9 7.9,15.4 -2.1,6.4 -9,9.9 -15.4,7.8l-193.3 -61.9z"/>
   <path class="fil7" d="M480.7 1531.7c-174.2,324.8 -304,661.1 -352,991.7 -37.8,260.1 -25.3,528.1 74.3,773.7 82.3,202.9 217.1,372.1 393.6,501 252.6,184.5 570.9,272.3 881.6,272.3 310.8,0 629,-87.8 881.6,-272.3 176.6,-128.9 311.4,-298.1 393.6,-500.9 99.7,-245.7 112.1,-513.7 74.3,-773.8 -130.5,-898.4 -753.8,-124.3 -1317.5,336.4 -627.4,512.6 -1348.9,-243 -1029.5,-1328.1z"/>
   <path class="fil7" d="M748.1 1262.5c64.6,23.1 90.8,115.2 58.5,205.8 -32.4,90.6 -110.9,145.3 -175.5,122.3 -64.6,-23.1 -90.8,-115.2 -58.5,-205.8 32.4,-90.6 110.9,-145.3 175.5,-122.3z"/>
   <path class="fil7" d="M910.9 1015.1c35.8,12.8 50.4,63.9 32.4,114.2 -17.9,50.3 -61.5,80.6 -97.4,67.9 -35.8,-12.8 -50.3,-64 -32.4,-114.2 17.9,-50.3 61.5,-80.7 97.4,-67.9z"/>
  </g>
 </g>
</svg>
