<?xml version="1.0" encoding="utf-8"?>
<!-- Generator: Adobe Illustrator 24.1.1, SVG Export Plug-In . SVG Version: 6.00 Build 0)  -->
<svg version="1.1" id="Layer_1" xmlns="http://www.w3.org/2000/svg" xmlns:xlink="http://www.w3.org/1999/xlink" x="0px" y="0px"
	 viewBox="0 0 214.1 140.9" style="enable-background:new 0 0 214.1 140.9;" xml:space="preserve">
<style type="text/css">
	.st0{fill-rule:evenodd;clip-rule:evenodd;fill:#FFFFFF;}
	.st1{fill-rule:evenodd;clip-rule:evenodd;fill:#61B5E2;}
	.st2{fill:#61B5E2;}
	.st3{fill:#FFFFFF;}
</style>
<g>
	<g>
		<g>
			<g>
				<g>
					<g>
						<path class="st0" d="M4.9,0.2h55.3c24.1,0,43.8,19.7,43.8,43.8v0.4c0,24.1-19.7,43.8-43.8,43.8H31.2v19.4l-4.4,4.8V88.1h-4.4
							v24.1h-4.4V88.1h-4.4v24.1H9.3V88.1H4.9v24.1l-4.4-4.8V88.1v-1.8v-2.6h59.7c21.7,0,39.4-17.7,39.4-39.4v-0.4
							c0-21.7-17.7-39.4-39.4-39.4H4.9v52.9h4.4V13.3V8.9h4.4h46.6c19.2,0,35,15.8,35,35v0.4c0,19.2-15.8,35-35,35H0.6V75h59.7
							c16.8,0,30.6-13.8,30.6-30.6v-0.4c0-16.8-13.8-30.6-30.6-30.6H13.7v44.2h4.4V22.1v-4.4h4.4h37.8c14.4,0,26.3,11.9,26.3,26.3
							v0.4c0,14.4-11.9,26.3-26.3,26.3H0.6v-4.4h59.7c12,0,21.9-9.9,21.9-21.9v-0.4c0-12-9.9-21.9-21.9-21.9H22.4v35.4h4.4V30.8
							v-4.4h4.4h29.1c9.6,0,17.5,7.9,17.5,17.5v0.4c0,9.6-7.9,17.5-17.5,17.5H0.6v-3.3v-1.1V4.6L4.9,0.2z M31.2,30.8v26.7h29.1
							c7.2,0,13.1-6,13.1-13.1v-0.4c0-7.2-6-13.1-13.1-13.1H31.2z"/>
					</g>
				</g>
				<g>
					<g>
						<g>
							<rect x="118.1" y="0" class="st1" width="4.1" height="112.2"/>
							<polygon class="st1" points="110,4.8 110,107.5 114,112.3 114,0 							"/>
							<polygon class="st1" points="134.3,0 134.3,112.3 138.4,109.9 138.4,0 							"/>
							<rect x="126.2" y="0" class="st1" width="4.1" height="112.2"/>
						</g>
						<g>
							<rect x="201.4" y="0" class="st1" width="4.1" height="112.2"/>
							<polygon class="st1" points="213.6,4.8 213.6,107.5 209.5,112.3 209.5,0 							"/>
							<polygon class="st1" points="189.2,0 189.2,112.3 185.1,109.9 185.1,0 							"/>
							<rect x="193.3" y="0" class="st1" width="4.1" height="112.2"/>
						</g>
						<polygon class="st2" points="185.1,0 161.8,41.7 138.4,0 138.4,8.7 161.8,50.4 185.1,8.7 						"/>
					</g>
				</g>
			</g>
		</g>
		<polygon class="st2" points="185.1,17.8 161.8,59.5 138.4,17.8 138.4,26.5 161.8,68.2 185.1,26.5 		"/>
		<polygon class="st2" points="185.1,35.6 161.8,77.3 138.4,35.6 138.4,44.3 161.8,86 185.1,44.3 		"/>
	</g>
	<g>
		<path class="st3" d="M2.9,130.7H0.4V129h6.9v1.7H4.8v6.6H2.9V130.7z"/>
		<path class="st3" d="M8.8,129h1.8v8.3H8.8V129z"/>
		<path class="st3" d="M12.7,129h1.8v6.6h4.1v1.7h-6V129z"/>
		<path class="st3" d="M20.1,129h1.8v8.3h-1.8V129z"/>
		<path class="st3" d="M24,129h1.7l3.9,5.1V129h1.8v8.3h-1.6l-4-5.3v5.3H24V129z"/>
		<path class="st3" d="M33,133.2L33,133.2c0-2.4,1.8-4.3,4.4-4.3c1.5,0,2.4,0.4,3.3,1.1l-1.2,1.4c-0.6-0.5-1.2-0.8-2.2-0.8
			c-1.3,0-2.4,1.2-2.4,2.6v0c0,1.5,1,2.6,2.5,2.6c0.7,0,1.3-0.2,1.7-0.5v-1.2h-1.8v-1.6h3.6v3.6c-0.9,0.7-2,1.3-3.5,1.3
			C34.8,137.5,33,135.7,33,133.2z"/>
		<path class="st2" d="M46.5,133.2L46.5,133.2c0-1,0.8-1.8,1.8-1.8s1.8,0.8,1.8,1.8v0c0,1-0.8,1.8-1.8,1.8S46.5,134.2,46.5,133.2z"
			/>
		<path class="st3" d="M55.7,129h3.9c0.9,0,1.7,0.3,2.2,0.7c0.4,0.4,0.6,0.8,0.6,1.4v0c0,0.9-0.5,1.5-1.1,1.8c1,0.4,1.6,0.9,1.6,2v0
			c0,1.5-1.2,2.3-3.1,2.3h-4V129z M59.2,132.4c0.8,0,1.3-0.3,1.3-0.9v0c0-0.5-0.4-0.9-1.2-0.9h-1.8v1.8H59.2z M59.7,135.8
			c0.8,0,1.3-0.3,1.3-0.9v0c0-0.6-0.4-0.9-1.4-0.9h-2.1v1.8H59.7z"/>
		<path class="st3" d="M67.2,129h1.7l3.6,8.4h-1.9l-0.8-1.9h-3.5l-0.8,1.9h-1.9L67.2,129z M69.1,133.9l-1.1-2.7l-1.1,2.7H69.1z"/>
		<path class="st3" d="M74.6,130.7H72V129h6.9v1.7h-2.5v6.6h-1.8V130.7z"/>
		<path class="st3" d="M80.3,129h1.8v3.3h3.4V129h1.8v8.3h-1.8V134h-3.4v3.3h-1.8V129z"/>
		<path class="st3" d="M89.3,129h3.8c1.1,0,1.9,0.3,2.4,0.8c0.5,0.5,0.7,1.1,0.7,1.9v0c0,1.3-0.7,2.2-1.8,2.6l2,3h-2.1l-1.8-2.7
			h-1.4v2.7h-1.8V129z M93,133.1c0.9,0,1.4-0.5,1.4-1.2v0c0-0.8-0.5-1.2-1.4-1.2h-1.8v2.4H93z"/>
		<path class="st3" d="M97.5,133.2L97.5,133.2c0-2.4,1.9-4.3,4.4-4.3c2.6,0,4.4,1.9,4.4,4.3v0c0,2.4-1.9,4.3-4.4,4.3
			C99.4,137.5,97.5,135.6,97.5,133.2z M104.5,133.2L104.5,133.2c0-1.4-1-2.6-2.5-2.6c-1.5,0-2.5,1.2-2.5,2.6v0c0,1.4,1,2.6,2.5,2.6
			S104.5,134.7,104.5,133.2z"/>
		<path class="st3" d="M107.6,133.2L107.6,133.2c0-2.4,1.9-4.3,4.4-4.3c2.6,0,4.4,1.9,4.4,4.3v0c0,2.4-1.9,4.3-4.4,4.3
			S107.6,135.6,107.6,133.2z M114.6,133.2L114.6,133.2c0-1.4-1-2.6-2.5-2.6c-1.5,0-2.5,1.2-2.5,2.6v0c0,1.4,1,2.6,2.5,2.6
			C113.5,135.8,114.6,134.7,114.6,133.2z"/>
		<path class="st3" d="M118.1,129h2l2.2,3.5l2.2-3.5h2v8.3h-1.8v-5.4l-2.3,3.5h0l-2.3-3.5v5.4h-1.8V129z"/>
		<path class="st3" d="M127.8,136.1l1.1-1.3c0.7,0.6,1.5,1,2.5,1c0.7,0,1.2-0.3,1.2-0.8v0c0-0.5-0.3-0.7-1.7-1.1
			c-1.7-0.4-2.8-0.9-2.8-2.5v0c0-1.5,1.2-2.5,2.9-2.5c1.2,0,2.2,0.4,3.1,1.1l-1,1.4c-0.7-0.5-1.5-0.8-2.2-0.8s-1.1,0.3-1.1,0.7v0
			c0,0.5,0.4,0.7,1.8,1.1c1.7,0.4,2.6,1,2.6,2.5v0c0,1.7-1.3,2.6-3.1,2.6C130.1,137.5,128.8,137,127.8,136.1z"/>
		<path class="st2" d="M139.8,133.2L139.8,133.2c0-1,0.8-1.8,1.8-1.8s1.8,0.8,1.8,1.8v0c0,1-0.8,1.8-1.8,1.8
			S139.8,134.2,139.8,133.2z"/>
		<path class="st3" d="M149,129h6.3v1.7h-4.5v1.8h4v1.7h-4v3.2H149V129z"/>
		<path class="st3" d="M156.8,129h1.8v6.6h4.1v1.7h-6V129z"/>
		<path class="st3" d="M163.3,133.2L163.3,133.2c0-2.4,1.9-4.3,4.4-4.3c2.6,0,4.4,1.9,4.4,4.3v0c0,2.4-1.9,4.3-4.4,4.3
			C165.2,137.5,163.3,135.6,163.3,133.2z M170.3,133.2L170.3,133.2c0-1.4-1-2.6-2.5-2.6c-1.5,0-2.5,1.2-2.5,2.6v0
			c0,1.4,1,2.6,2.5,2.6C169.2,135.8,170.3,134.7,170.3,133.2z"/>
		<path class="st3" d="M173.4,133.2L173.4,133.2c0-2.4,1.9-4.3,4.4-4.3c2.6,0,4.4,1.9,4.4,4.3v0c0,2.4-1.9,4.3-4.4,4.3
			C175.3,137.5,173.4,135.6,173.4,133.2z M180.3,133.2L180.3,133.2c0-1.4-1-2.6-2.5-2.6c-1.5,0-2.5,1.2-2.5,2.6v0
			c0,1.4,1,2.6,2.5,2.6C179.3,135.8,180.3,134.7,180.3,133.2z"/>
		<path class="st3" d="M183.9,129h3.8c1.1,0,1.9,0.3,2.4,0.8c0.5,0.5,0.7,1.1,0.7,1.9v0c0,1.3-0.7,2.2-1.8,2.6l2,3h-2.1l-1.8-2.7
			h-1.4v2.7h-1.8V129z M187.6,133.1c0.9,0,1.4-0.5,1.4-1.2v0c0-0.8-0.5-1.2-1.4-1.2h-1.8v2.4H187.6z"/>
		<path class="st3" d="M192.5,129h1.8v8.3h-1.8V129z"/>
		<path class="st3" d="M196.4,129h1.7l3.9,5.1V129h1.8v8.3h-1.6l-4-5.3v5.3h-1.8V129z"/>
		<path class="st3" d="M205.5,133.2L205.5,133.2c0-2.4,1.8-4.3,4.4-4.3c1.5,0,2.4,0.4,3.3,1.1l-1.2,1.4c-0.6-0.5-1.2-0.8-2.2-0.8
			c-1.3,0-2.4,1.2-2.4,2.6v0c0,1.5,1,2.6,2.5,2.6c0.7,0,1.3-0.2,1.7-0.5v-1.2h-1.8v-1.6h3.6v3.6c-0.9,0.7-2,1.3-3.5,1.3
			C207.2,137.5,205.5,135.7,205.5,133.2z"/>
	</g>
</g>
</svg>
