<svg xmlns="http://www.w3.org/2000/svg" width="705.6" height="146.66" viewBox="0 0 705.6 146.66"><rect x="-68.15" y="-226.67" width="841.89" height="595.28" fill="none"/><path d="M38,25.42l.83.15v17l-1.16-.18a26.38,26.38,0,0,0-3.44-.23c-5.75,0-12.9,3.19-15.73,12.14A31.53,31.53,0,0,0,17.24,64V89.2H0V26H16.64V37c3.89-7.21,10.85-11.79,18.44-11.79A18,18,0,0,1,38,25.42Zm9.4,63.78H64.65V26H47.41Zm78.19-21c-.07.07-7.52,7.5-17.28,7.5-9,0-18.08-6.25-18.08-18.2,0-10.41,7.4-18,17.6-18,9,0,15.18,6.23,15.24,6.3l.88.9,7.79-12.11-.46-.57c-.32-.38-8-9.48-24.29-9.48-19.84,0-34.24,13.9-34.24,33s14.4,33,34.24,33c16.7,0,25.58-9.88,25.95-10.3l.46-.52-6.86-12.6ZM178,24.58a24.91,24.91,0,0,0-20.14,9.7V2H140.64V89.2h17.21V60.12a26.58,26.58,0,0,1,.91-7.63c2.24-7.29,8.36-12,15.6-12,6.28,0,8.72,3.22,8.72,11.48V89.21H200.2V48.84c0-16.11-7.45-24.28-22.21-24.28Zm90.08,30c0,1.82-.35,5.8-.36,6l-.08.91h-42c1,6.78,6,14.2,17.23,14.2,9.36,0,16.91-6.41,17-6.48l.94-.81,6.84,12.69-.56.53a39,39,0,0,1-25.29,9c-19.63,0-33.87-13.9-33.87-33,0-19.45,13.19-33,32.07-33,17.05-.06,28.08,11.71,28.08,30ZM226.19,49h24.47c-.57-6.64-4.74-10.72-11.07-10.72-6.91,0-11.74,3.91-13.4,10.74Zm85.43-23.88c-7.58,0-14.54,4.58-18.44,11.79v-11H276.54v63.2h17.24V64a31.54,31.54,0,0,1,1.28-9.66c2.82-9,10-12.14,15.72-12.14a26.54,26.54,0,0,1,3.45.23l1.15.18v-17l-.82-.15a18.05,18.05,0,0,0-2.94-.26Z" fill="#101010"/><path d="M369.4,71.33c0,11.4-10,19.36-24.4,19.36-15.5,0-24.13-8.93-24.49-9.31L320,80.8,328,68.43l.87.87c.07.07,6.57,6.43,16,6.43,3.5,0,7-1.4,7-4.52s-4.67-4.94-10.07-7.15c-8.78-3.6-19.69-8.07-19.69-20.45,0-11.36,9.8-19,24.4-19,14.06,0,21,7,21.24,7.27l.49.51-6.56,13.1-1-.91a22.44,22.44,0,0,0-14.31-5c-3.14,0-6.8,1.18-6.8,4.52,0,2.77,4.53,4.59,9.78,6.7C357.85,54.13,369.4,58.77,369.4,71.33ZM443.85,57.6c0,18.84-14.87,33-34.59,33s-34.72-14.2-34.72-33,14.87-33,34.6-33S443.85,38.76,443.85,57.6Zm-17.47,0c0-10.31-7.36-18.08-17.12-18.08S392,47.29,392,57.6s7.41,18.08,17.24,18.08,17.16-7.77,17.16-18.08Zm66.25-2.52c0,9.46-5.05,19.64-16.15,19.64-6,0-8.48-3.33-8.48-11.48V26H450.85V66.33c0,16.11,7.48,24.28,22.24,24.28a24.94,24.94,0,0,0,20.24-10.1v8.66H510V26h-17.3ZM556,24.56c-11.31,0-17.67,6-20.72,10.23V26H518.72V89.2H536V60.12a24.58,24.58,0,0,1,1-7.86c2.26-7.27,8.2-11.78,15.48-11.78,6.28,0,8.72,3.22,8.72,11.48V89.2h17.12V48.84c0-16.11-7.43-24.28-22.21-24.28ZM632,2h17.24V89.2H632.85V82.49c-2.66,3.27-8.3,8.19-18.21,8.19-16.81,0-28.11-13.28-28.11-33s11.54-33,28.71-33c9.31,0,14.38,3.59,16.77,6.06V30ZM618.27,39.64c-8.58,0-14.36,7.22-14.36,18s5.73,18.2,14.24,18.2c7,0,14.36-4.81,14.36-18.32,0-8.63-4.43-17.88-14.22-17.88Zm67.33,11.1c-5.25-2.11-9.79-3.93-9.79-6.7,0-3.34,3.67-4.52,6.8-4.52a22.41,22.41,0,0,1,14.32,5l1,.91,6.55-13.1-.49-.51c-.28-.3-7.17-7.27-21.24-7.27-14.59,0-24.4,7.64-24.4,19C658.35,55.93,669.27,60.4,678,64c5.41,2.21,10.07,4.13,10.07,7.15s-3.53,4.52-7,4.52c-9.4,0-15.91-6.36-16-6.43l-.87-.87-8.06,12.37.54.58c.36.38,9,9.31,24.48,9.31,14.37,0,24.4-8,24.4-19.36,0-12.5-11.55-17.14-20-20.53ZM56,0A10.22,10.22,0,1,0,66.25,10.22h0A10.23,10.23,0,0,0,56,0Z" fill="#ff281e"/><path d="M190.61,109.8h16.16v2.53H193.42v10.45h10.9v2.55h-10.9V136h14.09v2.53h-16.9Z" fill="#707070"/><path d="M219.72,129.64s-.33.61-.69,1.14l-5,7.72h-3.26L218,127.8,211.38,118h3.27l4.41,6.9c.32.53.69,1.18.69,1.18h0s.37-.65.7-1.18l4.4-6.9h3.27l-6.61,9.84,7.22,10.7h-3.26l-5-7.72c-.37-.53-.7-1.14-.7-1.14h-.05Z" fill="#707070"/><path d="M233.15,118h2.7v2c0,.53,0,1.06-.08,1.59h.08s1.67-4.08,7.1-4.08,8.94,4.41,8.94,10.78S248,139,242.71,139a7.42,7.42,0,0,1-6.74-3.92h-.12s.08.73.08,1.79v9.8h-2.78Zm9.23,18.58c3.63,0,6.62-3.06,6.62-8.29,0-5-2.66-8.25-6.5-8.25-3.43,0-6.65,2.45-6.65,8.29C235.85,132.41,238.14,136.54,242.38,136.54Z" fill="#707070"/><path d="M265.9,117.47c5.68,0,8.57,4.37,8.57,9.47,0,.49-.08,1.43-.08,1.43H258.63c.13,5.27,3.72,8.13,8,8.13a9.52,9.52,0,0,0,6.25-2.49l1.27,2.12a11.78,11.78,0,0,1-7.6,2.86,10.38,10.38,0,0,1-10.73-10q0-.36,0-.72C255.78,121.51,260.35,117.47,265.9,117.47Zm5.76,8.62c-.17-4.29-2.78-6.29-5.84-6.29a7,7,0,0,0-7.06,6.29Z" fill="#707070"/><path d="M279.79,118h2.73v3.63c0,.9-.08,1.64-.08,1.64h.08c1-3.11,3.27-5.47,6.49-5.47a5.24,5.24,0,0,1,1.11.12v2.74a5.55,5.55,0,0,0-1-.09c-2.89,0-5.06,2.29-6,5.31a13.58,13.58,0,0,0-.57,4v8.66h-2.77Z" fill="#707070"/><path d="M294.24,109.8h2.9v3.47h-2.9Zm.08,8.16h2.78V138.5h-2.78Z" fill="#707070"/><path d="M312.49,117.47c5.68,0,8.57,4.37,8.57,9.47,0,.49-.08,1.43-.08,1.43H305.22c.13,5.27,3.72,8.13,8,8.13a9.52,9.52,0,0,0,6.25-2.49l1.27,2.12a11.78,11.78,0,0,1-7.6,2.86,10.38,10.38,0,0,1-10.73-10q0-.36,0-.72C302.37,121.51,306.94,117.47,312.49,117.47Zm5.76,8.62c-.17-4.29-2.78-6.29-5.84-6.29a7,7,0,0,0-7.06,6.29Z" fill="#707070"/><path d="M326.38,118h2.73V121c0,.9-.08,1.64-.08,1.64h.08a8.75,8.75,0,0,1,8.21-5.19c5.06,0,6.86,2.9,6.86,8v13.07H341.4V126.17c0-3.23-.49-6.09-4.45-6.09a7.81,7.81,0,0,0-7.47,5.8,10,10,0,0,0-.33,2.78v9.84h-2.77Z" fill="#707070"/><path d="M359.94,117.47a10.13,10.13,0,0,1,7.51,2.94L366,122.49a8.64,8.64,0,0,0-6-2.49,7.88,7.88,0,0,0-8,7.75c0,.17,0,.33,0,.5a8,8,0,0,0,7.75,8.25h.33a9.08,9.08,0,0,0,6.58-2.9l1.26,2.16a11,11,0,0,1-8,3.23,10.76,10.76,0,1,1,0-21.52Z" fill="#707070"/><path d="M381.7,117.47c5.68,0,8.58,4.37,8.58,9.47,0,.49-.08,1.43-.08,1.43H374.44c.12,5.27,3.71,8.13,8,8.13a9.56,9.56,0,0,0,6.24-2.49l1.27,2.12a11.76,11.76,0,0,1-7.59,2.86,10.38,10.38,0,0,1-10.74-10c0-.24,0-.49,0-.73C371.58,121.51,376.15,117.47,381.7,117.47Zm5.76,8.62c-.16-4.29-2.78-6.29-5.84-6.29a7,7,0,0,0-7.06,6.29Z" fill="#707070"/><path d="M407.39,109.8h9.8c4.53,0,7.76,2.73,7.76,7.22a6.63,6.63,0,0,1-3.64,6.25v.06c2.94.82,4.82,3.63,4.82,7.1,0,5.11-3.8,8-8.62,8H407.39Zm9.8,12.45a4.69,4.69,0,0,0,4.87-4.51c0-.16,0-.33,0-.49a4.57,4.57,0,0,0-4.21-4.9,4,4,0,0,0-.69,0h-6.94v9.92Zm.37,13.72a5.23,5.23,0,0,0,5.63-4.78,5.61,5.61,0,0,0,0-.82,5.37,5.37,0,0,0-5.07-5.67c-.21,0-.41,0-.61,0h-7.3V136Z" fill="#707070"/><path d="M440.85,117.47c5.68,0,8.57,4.37,8.57,9.47,0,.49-.08,1.43-.08,1.43H433.56c.13,5.27,3.72,8.13,8,8.13a9.52,9.52,0,0,0,6.25-2.49l1.27,2.12a11.78,11.78,0,0,1-7.6,2.86,10.38,10.38,0,0,1-10.73-10q0-.36,0-.72C430.71,121.51,435.28,117.47,440.85,117.47Zm5.76,8.62c-.17-4.29-2.78-6.29-5.84-6.29a7,7,0,0,0-7.06,6.29Z" fill="#707070"/><path d="M455.49,120.53h-2.64v-2.32h2.73v-5.88h2.74v5.92h5.14v2.32h-5.14v10.21c0,4.82,3.06,5.43,4.61,5.43a4.9,4.9,0,0,0,.94-.08v2.49a7.8,7.8,0,0,1-1.18.08c-2.37,0-7.15-.78-7.15-7.63Z" fill="#707070"/><path d="M469.17,120.53h-2.69v-2.32h2.73v-5.88H472v5.92h5.14v2.32H472v10.21c0,4.82,3.06,5.43,4.61,5.43a4.9,4.9,0,0,0,.94-.08v2.49a7.8,7.8,0,0,1-1.18.08c-2.37,0-7.15-.78-7.15-7.63Z" fill="#707070"/><path d="M490.77,117.47c5.67,0,8.57,4.37,8.57,9.47,0,.49-.08,1.43-.08,1.43H483.5c.12,5.27,3.72,8.13,8,8.13a9.52,9.52,0,0,0,6.25-2.49l1.27,2.12a11.78,11.78,0,0,1-7.6,2.86,10.39,10.39,0,0,1-10.74-10c0-.24,0-.47,0-.71C480.64,121.51,485.22,117.47,490.77,117.47Zm5.76,8.62c-.17-4.29-2.78-6.29-5.84-6.29a7,7,0,0,0-7.07,6.29Z" fill="#707070"/><path d="M504.65,118h2.74v3.63c0,.9-.08,1.64-.08,1.64h.08c1-3.11,3.27-5.47,6.49-5.47a5.08,5.08,0,0,1,1.1.12v2.74a5.55,5.55,0,0,0-1-.09c-2.9,0-5.06,2.29-6,5.31a13.58,13.58,0,0,0-.57,4v8.66h-2.76Z" fill="#707070"/></svg>