<?xml version="1.0" encoding="UTF-8"?>
<svg id="Layer_1" data-name="Layer 1" xmlns="http://www.w3.org/2000/svg" baseProfile="tiny" version="1.2" viewBox="0 0 262 80">
  <g>
    <path d="M27.3,10.45c-4.14-2.97-7.46-4.77-8.62-5.37C8.06,11.52,1.33,22.69.56,35.1c1.88-1.13,5.19-3,9.47-4.84,6.2-2.68,15.76-5.88,26.08-5.88,2.11,0,4.2.13,6.24.4-4.95-6.46-10.88-11.34-15.05-14.33Z" fill="#21076a" stroke-width="0"/>
    <path d="M43.09,22.53c3.2,4.01,5.73,8.24,7.53,12.56,5.31-12.85,5.34-26.05,5.21-29.85l-.06-.55C50.22,1.62,43.95,0,37.64,0c-5.81,0-11.6,1.37-16.81,3.96,2.46,1.37,6.77,3.98,11.51,7.84,4.13,3.36,7.74,6.97,10.75,10.74Z" fill="#21076a" stroke-width="0"/>
    <path d="M74.65,39.1c-1.89,1.14-5.23,3.01-9.48,4.84-6.2,2.68-15.77,5.88-26.08,5.88-2.1,0-4.18-.13-6.21-.4,8.42,11.05,19.81,17.67,23.15,19.47l.48.24c10.63-6.44,17.36-17.61,18.14-30.03Z" fill="#21076a" stroke-width="0"/>
    <path d="M45.73,47.49c8.17-1.04,15.47-3.8,20.2-5.96,4.62-2.11,7.88-4.12,8.92-4.79-.25-12.57-6.63-24.11-17.1-30.99.06,2.76-.02,7.89-.99,14.07-.82,5.23-2.12,10.16-3.85,14.64-1.88,4.88-4.3,9.26-7.19,13.03Z" fill="#ef4238" stroke-width="0"/>
    <path d="M29.29,26.86c-13.74,1.8-25.14,8.39-28.36,10.4-.16.1-.31.2-.45.29.24,12.46,6.51,23.9,16.83,30.78-.04-2.51.03-7.74,1.01-13.92.83-5.26,2.14-10.22,3.89-14.71,1.87-4.8,4.25-9.11,7.08-12.84Z" fill="#21076a" stroke-width="0"/>
    <path d="M32.13,51.76c-3.2-4.01-5.74-8.22-7.54-12.54-3.71,8.92-4.86,18.04-5.17,24.19-.15,3.07-.07,5.29-.03,6.14,5.56,3.08,11.83,4.7,18.15,4.7,5.81,0,11.6-1.36,16.81-3.95-2.46-1.37-6.75-3.97-11.48-7.82-4.11-3.33-7.72-6.94-10.74-10.72Z" fill="#21076a" stroke-width="0"/>
  </g>
  <path d="M94.17,10.73c-.46-1.5-1.39-1.87-2.88-1.87h-1.31V1.12h5.69c4.19,0,5.78,1.02,6.99,5.03l8.39,28.07c.75,2.42,1.12,5.03,1.12,5.03h.18s.55-2.61,1.31-5.03L123.82,1.3h8.31l10.26,32.92c.74,2.42,1.21,5.03,1.21,5.03h.19s.38-2.61,1.12-5.03l8.3-28.07c1.2-4.01,2.89-5.03,7.08-5.03h5.6v7.74h-1.31c-1.5,0-2.42.37-2.9,1.87l-12.39,37.58h-10.17l-9.8-30.31c-.74-2.42-1.31-5.12-1.31-5.12h-.19s-.57,2.7-1.3,5.12l-9.7,30.31h-10.25l-12.41-37.58Z" fill="#21076a" stroke-width="0"/>
  <path d="M192.59,0c13.25,0,20.33,9.88,20.33,22.09,0,1.22-.28,3.74-.28,3.74h-34.4c.56,10.07,7.83,15.76,16.22,15.76s13.8-5.51,13.8-5.51l3.92,6.43s-6.99,6.9-18.18,6.9c-14.92,0-25.08-10.72-25.08-24.71,0-15.02,10.27-24.71,23.68-24.71ZM203.61,19.21c-.28-7.84-5.23-12.03-11.1-12.03-6.9,0-12.49,4.2-13.89,12.03h24.99Z" fill="#21076a" stroke-width="0"/>
  <path d="M234.04,24.05l-9.04-13.43c-1.03-1.49-2.05-1.77-4.01-1.77h-2.62V1.12h5.79c4.37,0,5.68.83,8.2,4.75l5.78,9.14c.66,1.21,1.49,2.98,1.49,2.98h.18s.85-1.77,1.59-2.98l5.68-9.14c2.43-4.01,3.83-4.75,8.21-4.75h5.87v7.74h-2.7c-1.87,0-3.08.28-4.01,1.67l-9.06,13.52,15.96,24.24h-10.16l-9.98-15.38c-.66-1.12-1.41-2.52-1.41-2.52h-.18s-.75,1.4-1.49,2.52l-9.79,15.38h-10.25l15.95-24.24Z" fill="#21076a" stroke-width="0"/>
  <path d="M91.85,61.96c0-.45-.24-.65-.65-.65h-1.22v-2.47h2.71c1.34,0,1.84.57,1.84,1.52,0,.45-.03.8-.03.8h.06s1.25-2.68,5-2.68c4.05,0,6.63,3.21,6.63,7.88s-2.92,7.88-6.84,7.88c-3.33,0-4.61-2.41-4.61-2.41h-.06s.06.54.06,1.31v6.69h-2.89v-17.88ZM98.9,71.78c2.38,0,4.34-1.96,4.34-5.39s-1.76-5.39-4.25-5.39c-2.23,0-4.34,1.58-4.34,5.41,0,2.68,1.46,5.36,4.25,5.36Z" fill="#21076a" stroke-width="0"/>
  <path d="M108.58,56.01c0-.45-.24-.65-.65-.65h-1.22v-2.47h2.86c1.34,0,1.9.57,1.9,1.84v5.86c0,.71-.06,1.25-.06,1.25h.06c.65-1.46,2.59-3.36,5.59-3.36,3.54,0,5.15,1.93,5.15,5.77v6.52c0,.45.24.65.65.65h1.22v2.47h-2.83c-1.34,0-1.9-.57-1.9-1.9v-7.08c0-2.11-.45-3.78-2.86-3.78s-4.14,1.55-4.76,3.72c-.21.6-.27,1.28-.27,1.99v7.05h-2.89v-17.88Z" fill="#21076a" stroke-width="0"/>
  <path d="M133.32,58.48c4.49,0,8.12,3.3,8.12,7.85s-3.63,7.91-8.12,7.91-8.09-3.33-8.09-7.91,3.6-7.85,8.09-7.85ZM133.32,71.75c2.86,0,5.18-2.26,5.18-5.41s-2.32-5.36-5.18-5.36-5.15,2.23-5.15,5.36,2.32,5.41,5.15,5.41Z" fill="#21076a" stroke-width="0"/>
  <path d="M144.08,61.15h-1.96v-2.32h2.02v-4.14h2.83v4.14h3.6v2.32h-3.6v6.9c0,3,2.08,3.39,3.18,3.39.42,0,.68-.06.68-.06v2.56s-.39.06-1.01.06c-1.9,0-5.74-.59-5.74-5.62v-7.23Z" fill="#21076a" stroke-width="0"/>
  <path d="M159.88,58.48c4.49,0,8.12,3.3,8.12,7.85s-3.63,7.91-8.12,7.91-8.09-3.33-8.09-7.91,3.6-7.85,8.09-7.85ZM159.88,71.75c2.86,0,5.18-2.26,5.18-5.41s-2.32-5.36-5.18-5.36-5.15,2.23-5.15,5.36,2.32,5.41,5.15,5.41Z" fill="#21076a" stroke-width="0"/>
  <path d="M177.31,56.51h1.55v17.34h-1.55v-17.34Z" fill="#21076a" stroke-width="0"/>
  <path d="M189.17,61.9c-.18-.45-.45-.6-.92-.6h-.3v-2.47h1.49c1.34,0,1.84.33,2.29,1.52l3.24,8.66c.3.83.54,1.96.54,1.96h.06s.24-1.13.54-1.96l3.21-8.66c.45-1.19.98-1.52,2.29-1.52h1.4v2.47h-.3c-.51,0-.8.15-.98.6l-4.58,11.99h-3.33l-4.64-11.99Z" fill="#21076a" stroke-width="0"/>
  <path d="M206.73,61.96c0-.45-.24-.65-.65-.65h-1.22v-2.47h2.83c1.34,0,1.9.57,1.9,1.9v10.03c0,.45.24.65.65.65h1.22v2.47h-2.83c-1.34,0-1.9-.57-1.9-1.9v-10.03ZM206.79,52.88h2.59v3h-2.59v-3Z" fill="#21076a" stroke-width="0"/>
  <path d="M219.44,58.48c3.48,0,4.64,2.32,4.64,2.32h.06s-.06-.45-.06-1.01v-3.78c0-.45-.24-.65-.65-.65h-1.22v-2.47h2.86c1.34,0,1.9.57,1.9,1.9v15.98c0,.45.24.65.65.65h1.22v2.47h-2.77c-1.31,0-1.84-.59-1.84-1.61,0-.45.03-.77.03-.77h-.06s-1.25,2.74-4.94,2.74c-4.08,0-6.63-3.21-6.63-7.88s2.83-7.88,6.81-7.88ZM224.17,66.33c0-2.68-1.4-5.36-4.28-5.36-2.35,0-4.31,1.96-4.31,5.39s1.75,5.39,4.25,5.39c2.23,0,4.34-1.58,4.34-5.41Z" fill="#21076a" stroke-width="0"/>
  <path d="M237.16,58.48c4.22,0,6.49,3.15,6.49,7.05,0,.39-.09,1.19-.09,1.19h-10.98c.18,3.21,2.5,5.03,5.18,5.03s4.4-1.76,4.4-1.76l1.25,2.05s-2.23,2.2-5.8,2.2c-4.76,0-8-3.42-8-7.88,0-4.79,3.27-7.88,7.56-7.88ZM240.67,64.61c-.09-2.5-1.67-3.84-3.54-3.84-2.2,0-3.99,1.34-4.43,3.84h7.97Z" fill="#21076a" stroke-width="0"/>
  <path d="M253.39,58.48c4.49,0,8.12,3.3,8.12,7.85s-3.63,7.91-8.12,7.91-8.09-3.33-8.09-7.91,3.6-7.85,8.09-7.85ZM253.39,71.75c2.86,0,5.18-2.26,5.18-5.41s-2.32-5.36-5.18-5.36-5.15,2.23-5.15,5.36,2.32,5.41,5.15,5.41Z" fill="#21076a" stroke-width="0"/>
</svg>