<svg xmlns="http://www.w3.org/2000/svg" width="704" height="302" style=""><rect id="backgroundrect" width="100%" height="100%" x="0" y="0" fill="none" stroke="none" class="" style=""/><defs><style>.a{fill:#fff;}</style></defs><title>homeclean-logo-white</title><g class="currentLayer" style=""><title>Layer 1</title><polygon class="a" points="391.6000061035156,85.30000305175781 391.6000061035156,107.5 196.10000610351562,22.200000762939453 0,107.5 0,85.30000305175781 44.900001525878906,65.80000305175781 44.900001525878906,37.5 73.69999694824219,37.5 73.69999694824219,53.29999923706055 196.10000610351562,0 391.6000061035156,85.30000305175781 " id="svg_1"/><path class="a" d="M44.9,135.7 V115.9 c35.4,0 64.1,32.8 98.7,32.8 s62.7,-32.8 98.4,-32.8 s63.3,32.8 105.4,32.8 v19.9 c-42.1,0 -69.7,-32.8 -105.4,-32.8 s-63.8,32.8 -98.4,32.8 S80.3,135.7 44.9,135.7 zm0,-32.7 V99.8 L71,88.5 c24.4,9.3 46.8,27.5 72.6,27.5 c34.6,0 62.7,-32.8 98.4,-32.8 S305.2,116 347.4,116 v19.9 c-42.1,0 -69.7,-32.9 -105.4,-32.9 s-63.8,32.8 -98.4,32.8 S80.3,103 44.9,103 zm61.8,-30 c11.9,5.7 24,10.3 36.9,10.3 c32.2,0 58.8,-28.4 91.1,-32.3 l112.7,49.2 v3 c-42.1,0 -69.7,-32.8 -105.4,-32.8 s-63.8,32.8 -98.4,32.8 c-20.6,0 -39,-11.6 -58,-21 zM44.9,168.4 V148.6 c35.4,0 64.1,32.8 98.7,32.8 s62.7,-32.8 98.4,-32.8 s63.3,32.8 105.4,32.8 v19.9 c-42.1,0 -69.7,-32.8 -105.4,-32.8 s-63.8,32.8 -98.4,32.8 s-63.3,-32.9 -98.7,-32.9 zM216.2,42.8 c-24.5,9.3 -46.7,27.6 -72.6,27.6 a67.27,67.27 0 0 1 -21.8,-4 L196.1,34 l20.1,8.8 z" id="svg_2"/><path class="a" d="M44.6,300.4 V228.6 a8.37,8.37 0 0 1 8.3,-8.4 h8.3 V250 H94.3 V220.2 H111 v80.2 H94.3 V264.7 H61.2 v35.7 z" id="svg_3"/><path class="a" d="M115.9,260.3 c0,-13.1 3.4,-23.4 10.3,-31 c7.3,-7.6 16.9,-11.4 28.7,-11.4 c11.6,0 21.2,3.8 28.7,11.4 c7,7.8 10.5,18.1 10.5,31 s-3.5,23.1 -10.5,30.8 c-7.2,7.4 -16.7,11.2 -28.7,11.2 s-21.7,-3.7 -28.7,-11.2 S115.9,273.4 115.9,260.3 zm16.5,0 c0,9 1.9,15.8 5.8,20.5 s9.4,7.2 16.6,7.2 c7,0 12.5,-2.4 16.6,-7.2 c4,-5 6.1,-11.8 6.1,-20.5 s-2,-15.6 -6.1,-20.8 c-4,-4.8 -9.6,-7.2 -16.6,-7.2 s-12.7,2.4 -16.6,7.2 S132.4,251.3 132.4,260.3 z" id="svg_4"/><path class="a" d="M200.7,300.4 V228.6 a8.07,8.07 0 0 1 2.4,-5.9 A9,9 0 0 1 209,220 h16.1 l15.8,61.3 L256.8,220 h24.5 v80.4 H266 V235.6 l-16.3,64.8 h-17 l-16.6,-64.8 v64.8 z" id="svg_5"/><path class="a" d="M288.3,300.4 V228.6 a8.37,8.37 0 0 1 8.3,-8.4 h50 V234 h-42 v17.3 h31.2 v5.4 a8.37,8.37 0 0 1 -8.3,8.4 H304.6 v20.5 h42 v14.9 H288.3 z" id="svg_6"/><path class="a" d="M422.5,272.7 q-1.2,13.95 -10.5,21.9 c-6.4,5.1 -14.8,7.7 -25.2,7.7 c-12.1,0 -21.4,-3.6 -27.7,-11 c-6.4,-7 -9.6,-17.3 -9.6,-31 c0,-14 3.3,-24.5 9.8,-31.5 c6.7,-7.3 16.3,-11 28.9,-11 c10.3,0 18.4,2.6 24.5,7.7 c5.7,5 9,12 9.8,21 h-10 a8.1,8.1 0 0 1 -7.9,-4.9 a23.65,23.65 0 0 0 -4,-5.4 c-3.1,-2.3 -7.2,-3.5 -12.4,-3.5 c-7.2,0 -12.7,2.3 -16.5,7 s-5.6,11.5 -5.6,20.5 c0,8.7 1.9,15.4 5.6,20 c3.6,4.8 8.9,7.2 16.1,7.2 c5,0 9.1,-1.2 12.4,-3.7 c2.9,-2.3 5,-6.1 6.3,-11.2 z" id="svg_7"/><path class="a" d="M429,300.4 V228.6 a8.37,8.37 0 0 1 8.3,-8.4 h8.3 v65.3 h39.2 v14.9 z" id="svg_8"/><path class="a" d="M490.2,300.4 V228.6 a8.37,8.37 0 0 1 8.3,-8.4 h50 V234 h-42 v17.3 h31.2 v5.4 a8.37,8.37 0 0 1 -8.3,8.4 H506.5 v20.5 h42 v14.9 H490.2 z" id="svg_9"/><path class="a" d="M588.8,220.2 h13 L631,300.4 H613.5 l-5.4,-16.5 H576.9 l-5.1,16.5 H554.3 l26.6,-74.8 A7.79,7.79 0 0 1 588.8,220.2 zm3.7,16.1 l-11.2,34 h22.4 z" id="svg_10"/><path class="a" d="M637.7,300.4 V228.6 a7.79,7.79 0 0 1 2.5,-5.9 a9,9 0 0 1 5.9,-2.7 H655 l32.6,55.2 V220 h16.3 v80.4 h-17 L654,245.2 v55.2 z" id="svg_11"/></g></svg>