<?xml version="1.0" encoding="UTF-8"?>
<svg xmlns="http://www.w3.org/2000/svg" id="Layer_2" data-name="Layer 2" viewBox="0 0 615.98 205.33">
  <defs>
    <style>
      .cls-1 {
        fill: #093250;
      }

      .cls-1, .cls-2, .cls-3, .cls-4 {
        stroke-width: 0px;
      }

      .cls-2 {
        fill: #dd1f29;
      }

      .cls-3 {
        fill: #fff;
      }

      .cls-4 {
        fill: #ebebeb;
      }
    </style>
  </defs>
  <g id="Layer_1-2" data-name="Layer 1">
    <g>
      <rect class="cls-3" x="6.99" y="6.66" width="600" height="194" rx="42.83" ry="42.83"></rect>
      <path class="cls-4" d="M575.45,191.59c-61.12,16.48-441.56,6.18-535.18,5.33-.33,0-8.16-.12-8.3-.58-.86-2.8,14.92-9.76,31.87-10.24,72.79-2.06,452.34-2.66,488.94-17.85,36.4-15.11,41.89-52.88,41.89-52.88l12.36,6.87c-1.37,28.61-8.24,46.01-31.59,69.36Z"></path>
      <g>
        <g>
          <path class="cls-2" d="M67.64,50.45h26.52c11.65,0,20.49,8.44,20.49,19.69s-8.84,19.69-20.49,19.69h-11.17v16.07h-15.35v-55.45ZM82.99,64.92v10.45h10.85c2.89,0,5.06-2.25,5.06-5.22s-2.17-5.22-5.06-5.22h-10.85Z"></path>
          <path class="cls-2" d="M120.03,50.45h25.72c11.65,0,20.49,8.36,20.49,19.53,0,7.31-3.94,13.26-9.96,16.39l11.65,19.53h-19.05l-9.24-17.2h-4.26v17.2h-15.35v-55.45ZM135.38,64.92v10.45h10.05c2.89,0,5.06-2.25,5.06-5.22s-2.17-5.22-5.06-5.22h-10.05Z"></path>
          <path class="cls-2" d="M170.26,78.18c0-16.31,12.7-28.69,29.49-28.69s29.49,12.38,29.49,28.69-12.7,28.69-29.49,28.69-29.49-12.38-29.49-28.69ZM213.49,78.18c0-7.96-5.95-13.9-13.74-13.9s-13.74,5.95-13.74,13.9,5.95,13.9,13.74,13.9,13.74-5.95,13.74-13.9Z"></path>
          <path class="cls-2" d="M235.43,76.89h24.43v13.98h-24.43v-13.98Z"></path>
        </g>
        <g>
          <path class="cls-1" d="M268.62,50.45h36.32v14.47h-20.97v6.51h18v14.46h-18v20.01h-15.35v-55.45Z"></path>
          <path class="cls-1" d="M321.73,50.45h18.08l19.93,55.45h-16.8l-2.49-7.63h-19.69l-2.49,7.63h-16.47l19.93-55.45ZM335.96,84.13l-5.3-16.63-5.38,16.63h10.69Z"></path>
          <path class="cls-1" d="M359.66,88.71h15.75c0,2.49,2.81,4.5,6.27,4.5,2.97,0,5.54-1.45,5.54-3.29,0-6.19-26.76-3.7-26.76-22.5,0-10.77,9-17.92,20.73-17.92s20.97,7.47,20.97,17.44h-15.75c0-2.17-2.33-3.78-5.38-3.78-2.57,0-4.82,1.13-4.82,3.05,0,6.43,26.76,2.57,26.76,21.94,0,11.33-9.4,18.72-21.46,18.72s-21.86-7.96-21.86-18.16Z"></path>
          <path class="cls-1" d="M406.99,78.18c0-16.31,12.7-28.69,29.49-28.69,14.79,0,26.44,9.64,28.61,23.06h-16.31c-1.69-4.98-6.51-8.28-12.29-8.28-7.79,0-13.74,5.95-13.74,13.9s5.95,13.9,13.74,13.9c5.79,0,10.61-3.29,12.29-8.28h16.31c-2.17,13.42-13.82,23.06-28.61,23.06-16.79,0-29.49-12.38-29.49-28.69Z"></path>
          <path class="cls-1" d="M471.28,50.45h15.35v55.45h-15.35v-55.45Z"></path>
          <path class="cls-1" d="M510.33,50.45h18.08l19.93,55.45h-16.8l-2.49-7.63h-19.69l-2.49,7.63h-16.47l19.93-55.45ZM524.55,84.13l-5.3-16.63-5.38,16.63h10.69Z"></path>
        </g>
        <g>
          <path class="cls-1" d="M67.64,124.99h7.56v11.51h10.9v-11.51h7.56v30.32h-7.56v-11.69h-10.9v11.69h-7.56v-30.32Z"></path>
          <path class="cls-1" d="M97.61,140.15c0-8.92,6.9-15.69,16.08-15.69s16.08,6.77,16.08,15.69-6.94,15.69-16.08,15.69-16.08-6.77-16.08-15.69ZM121.99,140.15c0-4.79-3.6-8.39-8.3-8.39s-8.35,3.6-8.35,8.39,3.6,8.39,8.35,8.39,8.3-3.6,8.3-8.39Z"></path>
          <path class="cls-1" d="M133.72,124.99h9.36l7.82,14.9,7.87-14.9h9.23v30.32h-7.56v-18.98l-7.43,14.19h-4.31l-7.43-14.19v18.98h-7.56v-30.32Z"></path>
          <path class="cls-1" d="M173.44,124.99h20.3v7.12h-12.74v4.39h11.34v7.12h-11.34v4.57h12.96v7.12h-20.52v-30.32Z"></path>
          <path class="cls-1" d="M207.4,124.99h7.56v30.32h-7.56v-30.32Z"></path>
          <path class="cls-1" d="M220.36,124.99h9.36l7.82,14.9,7.87-14.9h9.23v30.32h-7.56v-18.98l-7.43,14.19h-4.31l-7.43-14.19v18.98h-7.56v-30.32Z"></path>
          <path class="cls-1" d="M260.08,124.99h14.24c6.2,0,10.9,4.53,10.9,10.55s-4.7,10.5-10.9,10.5h-6.68v9.27h-7.56v-30.32ZM267.64,132.11v6.81h6.5c1.89,0,3.34-1.45,3.34-3.38s-1.45-3.43-3.34-3.43h-6.5Z"></path>
          <path class="cls-1" d="M288.55,124.99h13.84c6.2,0,10.85,4.44,10.85,10.41,0,4.13-2.33,7.43-5.89,9.01l6.81,10.9h-9.36l-5.76-9.89h-2.94v9.89h-7.56v-30.32ZM296.11,132.11v6.72h6.11c1.89,0,3.3-1.45,3.3-3.38s-1.41-3.34-3.3-3.34h-6.11Z"></path>
          <path class="cls-1" d="M315.79,140.15c0-8.92,6.9-15.69,16.08-15.69s16.08,6.77,16.08,15.69-6.94,15.69-16.08,15.69-16.08-6.77-16.08-15.69ZM340.17,140.15c0-4.79-3.6-8.39-8.3-8.39s-8.35,3.6-8.35,8.39,3.6,8.39,8.35,8.39,8.3-3.6,8.3-8.39Z"></path>
          <path class="cls-1" d="M347.33,124.99h8.44l7.21,20.12,7.21-20.12h8.26l-11.69,30.32h-7.73l-11.69-30.32Z"></path>
          <path class="cls-1" d="M381.25,124.99h20.3v7.12h-12.74v4.39h11.34v7.12h-11.34v4.57h12.96v7.12h-20.52v-30.32Z"></path>
          <path class="cls-1" d="M405.86,124.99h9.36l7.82,14.9,7.87-14.9h9.23v30.32h-7.56v-18.98l-7.43,14.19h-4.31l-7.43-14.19v18.98h-7.56v-30.32Z"></path>
          <path class="cls-1" d="M445.57,124.99h20.3v7.12h-12.74v4.39h11.34v7.12h-11.34v4.57h12.96v7.12h-20.52v-30.32Z"></path>
          <path class="cls-1" d="M470.18,124.99h7.56l11.38,17.14v-17.14h7.56v30.32h-7.56l-11.38-17.14v17.14h-7.56v-30.32Z"></path>
          <path class="cls-1" d="M508.05,132.11h-7.65v-7.12h22.85v7.12h-7.65v23.2h-7.56v-23.2Z"></path>
          <path class="cls-1" d="M525.05,146.08h7.78c0,1.67,1.8,3.03,4.04,3.03,2.02,0,3.69-1.06,3.69-2.42,0-4.09-15.03-2.37-15.03-12.65,0-5.76,4.83-9.58,11.12-9.58s11.2,4,11.2,9.36h-7.73c0-1.49-1.54-2.64-3.56-2.64-1.76,0-3.3.88-3.3,2.28,0,4.17,15.07,1.8,15.07,12.35,0,6.06-5.05,10.02-11.56,10.02s-11.73-4.26-11.73-9.75Z"></path>
        </g>
      </g>
      <path class="cls-4" d="M32.61,13.34C93.73-3.14,474.17,7.16,567.79,8.01c.33,0,8.16.12,8.3.58.86,2.8-14.92,9.76-31.87,10.24-72.79,2.06-452.34,2.66-488.94,17.85C18.88,51.8,13.38,89.57,13.38,89.57l-12.36-6.87c1.37-28.61,8.24-46.01,31.59-69.36Z"></path>
      <path class="cls-2" d="M571.35,205.33H44.64c-24.61,0-44.64-20.02-44.64-44.64V44.64C0,20.02,20.02,0,44.64,0h526.71c24.61,0,44.64,20.02,44.64,44.64v116.05c0,24.61-20.02,44.64-44.64,44.64ZM44.64,20.6c-13.25,0-24.03,10.78-24.03,24.03v116.05c0,13.25,10.78,24.03,24.03,24.03h526.71c13.25,0,24.03-10.78,24.03-24.03V44.64c0-13.25-10.78-24.03-24.03-24.03H44.64Z"></path>
    </g>
  </g>
</svg>
