<svg xmlns="http://www.w3.org/2000/svg" width="199" height="34" viewBox="0 0 199 34" fill="none">
    <g clip-path="url(#clip0_156_76)">
        <path d="M153.98 20.6062V26.6788C152.387 28.3398 150.499 29.148 148.252 29.148C143.743 29.148 140.7 25.957 140.7 21.2193C140.7 16.4816 143.804 13.2878 148.335 13.2878C150.391 13.2878 152.235 14.096 153.685 15.6037L152.637 16.738C151.505 15.5592 149.931 14.8819 148.338 14.8819C144.771 14.8819 142.337 17.4598 142.337 21.2165C142.337 24.9733 144.708 27.5511 148.252 27.5511C149.867 27.5511 151.295 27.0049 152.447 25.9793V22.1557H147.748V20.6034H153.977L153.98 20.6062Z" fill="white"/>
        <path d="M163.356 18.6611L162.643 20.0155C162.097 19.6448 161.529 19.4916 160.901 19.4916C159.035 19.4916 157.734 21.1302 157.734 23.4684V28.8639H156.182V18.073H157.588L157.61 20.127C158.365 18.6639 159.52 17.8975 160.967 17.8975C161.868 17.8975 162.75 18.1817 163.359 18.6611" fill="white"/>
        <path d="M163.356 23.4654C163.356 20.2549 165.537 17.8499 168.77 17.8499C172.003 17.8499 174.161 20.2521 174.161 23.4654C174.161 26.6787 172 29.081 168.77 29.081C165.539 29.081 163.356 26.6787 163.356 23.4654ZM172.606 23.4654C172.606 21.1718 171.055 19.3576 168.767 19.3576C166.479 19.3576 164.905 21.1718 164.905 23.4654C164.905 25.759 166.457 27.5733 168.767 27.5733C171.077 27.5733 172.606 25.759 172.606 23.4654Z" fill="white"/>
        <path d="M185.53 18.0701V28.8609H184.147L184.125 27.1135C183.265 28.337 181.922 29.0365 180.349 29.0365C177.686 29.0365 175.985 27.1804 175.985 24.1427V18.0701H177.537V24.0563C177.537 26.2858 178.648 27.5511 180.536 27.5511C182.592 27.5511 183.976 25.9792 183.976 23.903V18.0701H185.528H185.53Z" fill="white"/>
        <path d="M199 23.4711C199 26.7708 196.861 29.0867 193.799 29.0867C192.079 29.0867 190.632 28.3649 189.813 27.186V34.0027H188.262V18.0785H189.667L189.689 19.9568C190.464 18.6693 191.996 17.8611 193.802 17.8611C196.864 17.8611 199.003 20.177 199.003 23.4767M197.451 23.4767C197.451 21.0298 195.858 19.3688 193.634 19.3688C191.409 19.3688 189.816 21.0298 189.816 23.4767C189.816 25.9235 191.412 27.5845 193.634 27.5845C195.855 27.5845 197.451 25.9235 197.451 23.4767Z" fill="white"/>
        <path d="M37.6667 20.9936H40.7289C41.914 20.9936 42.5177 20.1157 42.5177 19.1097C42.5177 18.1036 41.892 17.1811 40.7289 17.1811H37.6667V20.9936ZM37.6667 24.6528V28.7941H33.3973V13.4551H40.7261C44.7778 13.4551 46.7843 16.0413 46.7843 19.0428C46.7843 22.0443 44.7585 24.6082 40.7261 24.6528H37.6639H37.6667Z" fill="white"/>
        <path d="M50.621 23.382C50.621 24.8953 51.5691 25.7481 52.7543 25.7481C54.0911 25.7481 54.9538 24.6528 54.9538 23.382C54.9538 21.9356 54.1572 20.9936 52.7543 20.9936C51.5691 20.9936 50.621 21.8715 50.621 23.382ZM55.1715 17.9699H58.9007V28.7941H55.2349L55.0613 27.632C54.1572 28.6826 52.7323 29.0561 51.5471 28.9892C48.4215 28.7913 46.6741 26.534 46.6741 23.3792C46.6741 20.2244 48.744 17.7246 51.8475 17.7246C53.3579 17.7246 54.4136 18.2513 54.9731 19.1264L55.166 17.9643L55.1715 17.9699Z" fill="white"/>
        <path d="M63.8151 17.9697L64.0521 19.1542C64.6116 18.1453 65.6039 17.7078 66.6402 17.7078C67.6765 17.7078 68.7542 18.123 69.4433 18.8699L67.8474 21.785C67.1997 21.2583 66.7256 21.1273 66.0586 21.1273C65.0664 21.1273 64.2257 21.7404 64.2257 23.1645V28.7968H60.2595V17.9725H63.8178L63.8151 17.9697Z" fill="white"/>
        <path d="M76.3863 21.9355C76.2788 20.2271 72.7866 20.1602 72.5275 21.9355H76.3863ZM79.9446 24.5217H72.5082C72.7894 25.486 74.0159 25.904 74.8786 25.904C76.0417 25.904 76.9265 25.5528 77.6155 25.0261L79.5559 27.2389C78.2853 28.4428 76.5379 29.0365 74.705 29.0365C71.3424 29.0365 68.4979 27.3476 68.4979 23.4042C68.4979 19.4607 71.538 17.7078 74.4266 17.7078C78.1999 17.7078 80.8514 20.2494 79.9446 24.5217Z" fill="white"/>
        <path d="M88.0782 28.794V22.8106C88.0782 21.4729 87.323 21.013 86.5898 21.013C85.6417 21.013 84.7569 21.6707 84.7569 23.0948V28.7912H80.832V17.967H84.3462L84.5199 19.1514C85.4239 18.0784 86.7607 17.6827 87.8825 17.705C90.1233 17.7273 92.0444 18.9312 92.0444 22.7883V28.794H88.0782Z" fill="white"/>
        <path d="M98.0585 14.9015V18.0339H100.451V21.1246H98.0364V24.6751C98.0585 25.4415 98.4885 25.7257 99.0921 25.7257C99.4807 25.7257 99.9327 25.5725 100.255 25.3523L101.118 28.3315C100.214 28.8582 99.1555 29.0561 98.0557 29.0561C95.9417 29.0561 94.0454 28.0695 94.1116 24.6723V21.1218H92.4082V18.0311H94.1116V15.3362L98.0557 14.8987L98.0585 14.9015Z" fill="white"/>
        <path d="M106.079 20.9936H109.141C110.326 20.9936 110.93 20.1157 110.93 19.1097C110.93 18.1036 110.304 17.1811 109.141 17.1811H106.079V20.9936ZM106.079 24.6528V28.7941H101.81V13.4551H109.139C113.19 13.4551 115.197 16.0413 115.197 19.0428C115.197 22.0443 113.171 24.6082 109.139 24.6528H106.076H106.079Z" fill="white"/>
        <path d="M118.904 23.382C118.904 24.8953 119.852 25.7481 121.037 25.7481C122.374 25.7481 123.237 24.6528 123.237 23.382C123.237 21.9356 122.44 20.9936 121.037 20.9936C119.852 20.9936 118.904 21.8715 118.904 23.382ZM123.452 17.9699H127.181V28.7941H123.515L123.341 27.632C122.437 28.6826 121.012 29.0561 119.827 28.9892C116.702 28.7913 114.954 26.534 114.954 23.3792C114.954 20.2244 117.024 17.7246 120.128 17.7246C121.638 17.7246 122.694 18.2513 123.253 19.1264L123.446 17.9643L123.452 17.9699Z" fill="white"/>
        <path d="M140.334 17.9697L133.738 33.3756H129.598L131.753 28.3146L127.528 17.9697H131.731L132.638 20.556L133.801 24.3043L135.094 20.5337L136.086 17.9697H140.334Z" fill="white"/>
        <path d="M68.8452 0H68.2609C66.7146 0 65.8409 0.902951 65.8409 2.57229V2.94295H64.8321V4.21934H65.8409V8.35787H67.4478V4.21934H68.5255V2.94295H67.4478V2.57229C67.4478 1.92295 67.7124 1.54115 68.2609 1.54115H68.8452V0ZM61.3703 8.44984C62.8835 8.44984 64.1568 7.33787 64.1568 5.63229C64.1568 3.92672 62.8862 2.8259 61.3703 2.8259C59.8544 2.8259 58.5975 3.91557 58.5975 5.63229C58.5975 7.34902 59.8461 8.44984 61.3703 8.44984ZM61.3703 6.87246C60.7171 6.87246 60.1658 6.38475 60.1658 5.63229C60.1658 4.87984 60.7171 4.40328 61.3703 4.40328C62.0235 4.40328 62.5858 4.89098 62.5858 5.63229C62.5858 6.37361 62.0456 6.87246 61.3703 6.87246ZM54.2509 2.94295V0.869508H52.6689V2.94574H51.6932V4.22213H52.6689V8.36066H54.2509V4.21934H55.3755V2.94295H54.2509ZM48.9094 6.46836C48.9094 5.03033 49.3228 4.31131 50.2406 4.31131C50.5052 4.31131 50.7671 4.33361 51.0537 4.47295L51.3404 3.02377C51.0758 2.89557 50.8001 2.8259 50.4225 2.8259C49.8713 2.8259 49.185 3.24393 48.9094 4.25279V2.94295H47.3163V8.35787H48.9094V6.46836ZM41.6301 5.64623C41.6301 4.86869 42.2944 4.35869 42.9724 4.35869C43.6505 4.35869 44.2679 4.84639 44.2679 5.64623C44.2679 6.44607 43.6257 6.93377 42.9724 6.93377C42.3192 6.93377 41.6301 6.42377 41.6301 5.64623ZM44.2679 8.36066H45.8499V2.94295H44.2679V3.54492C43.8324 2.9541 43.0634 2.8259 42.7078 2.8259C41.3435 2.8259 39.9792 3.91557 39.9792 5.64344C39.9792 7.37131 41.3435 8.46098 42.7078 8.46098C43.1102 8.46098 43.9344 8.25197 44.2679 7.74197V8.35787V8.36066ZM33.3973 2.94295V11.011H34.9794V7.69459C35.244 8.19344 35.8724 8.47213 36.5504 8.47213C37.9258 8.47213 39.1413 7.37131 39.1413 5.63229C39.1413 3.89328 37.9258 2.8259 36.5504 2.8259C35.8751 2.8259 35.244 3.11574 34.9794 3.61459V2.94295H33.3973ZM35.0152 5.66852C35.0152 4.87984 35.5775 4.35869 36.2527 4.35869C36.928 4.35869 37.4903 4.86869 37.4903 5.66852C37.4903 6.46836 36.939 6.95607 36.2527 6.95607C35.6105 6.95607 35.0152 6.47951 35.0152 5.66852Z" fill="white"/>
        <path d="M20.3658 21.4646L9.01837 28.089V33.3423C12.2211 34.3038 15.7904 33.9833 18.9105 32.1635C22.0305 30.3408 24.0895 27.3756 24.8667 24.0926L20.3658 21.4646Z" fill="white"/>
        <path d="M9.01837 14.1601L24.9963 23.4878C25.9609 18.3153 23.6733 12.867 18.9105 10.0857C15.7904 8.26304 12.2211 7.94533 9.01837 8.90681V14.1601Z" fill="white"/>
        <path d="M8.43683 9.09082C3.52522 10.8326 0 15.562 0 21.1246V33.8718H8.43683V9.09082Z" fill="white"/>
    </g>
    <defs>
        <clipPath id="clip0_156_76">
            <rect width="199" height="34" fill="white"/>
        </clipPath>
    </defs>
</svg>