<svg width="85" height="10" viewBox="0 0 85 10" fill="none" xmlns="http://www.w3.org/2000/svg">
<path fill-rule="evenodd" clip-rule="evenodd" d="M1.7286 0V7.09442L2.23702 7.57171H7.15168V9.06686H0V0H1.7286Z" fill="white"/>
<path fill-rule="evenodd" clip-rule="evenodd" d="M12.8493 4.91496L13.1347 5.20128H15.1484L15.4496 4.89905L14.3873 2.02002H13.9116L12.8493 4.91496ZM18.7099 9.06686H16.9765L16.0757 6.60131H12.2197L11.319 9.06686H9.63281L13.147 0H15.2115L18.7099 9.06686Z" fill="white"/>
<path fill-rule="evenodd" clip-rule="evenodd" d="M29.7077 0V9.06686H27.7904L24.0542 2.51327H23.5626V9.06686H22.0059V0H24.2672L27.6593 6.06048H28.1509V0H29.7077Z" fill="white"/>
<path fill-rule="evenodd" clip-rule="evenodd" d="M35.9642 1.4628L35.4808 1.94V7.12561L35.9642 7.60281H36.5281C37.5485 7.60281 38.3514 7.32716 38.9369 6.77566C39.5223 6.22444 39.8151 5.47682 39.8151 4.5329C39.8151 3.58916 39.5223 2.84145 38.9369 2.28995C38.3514 1.73873 37.5485 1.4628 36.5281 1.4628H35.9642ZM41.5358 4.53352C41.5358 5.9015 41.0818 6.99898 40.1742 7.82613C39.2664 8.65328 38.0499 9.06686 36.5248 9.06686H33.834V0H36.5248C38.0499 0 39.2664 0.413576 40.1742 1.24073C41.0818 2.06788 41.5358 3.16554 41.5358 4.53352V4.53352Z" fill="white"/>
<path fill-rule="evenodd" clip-rule="evenodd" d="M50.5053 2.79953C50.5053 2.37556 50.3366 2.05191 49.9997 1.82921C49.6625 1.60652 49.1672 1.49517 48.5137 1.49517H46.8956L46.4288 1.97238V4.08798H48.5137C49.1672 4.08798 49.6625 3.97939 49.9997 3.76193C50.3366 3.54466 50.5053 3.22377 50.5053 2.79953V2.79953ZM48.1715 5.58328H46.4288V9.06686H44.8418V0H48.5449C49.6963 0 50.5831 0.244118 51.2055 0.731711C51.8279 1.21958 52.1391 1.90881 52.1391 2.79959C52.1391 3.45719 51.9703 4.00602 51.6334 4.4459C51.2963 4.88605 50.8061 5.19627 50.163 5.37649V5.74234L52.5436 9.06686H50.6455L48.1715 5.58328Z" fill="white"/>
<path fill-rule="evenodd" clip-rule="evenodd" d="M57.6783 4.91496L57.9637 5.20128H59.9773L60.2785 4.89905L59.2163 2.02002H58.7405L57.6783 4.91496ZM63.54 9.06686H61.8065L60.9059 6.60131H57.0497L56.1491 9.06686H54.4629L57.9772 0H60.0415L63.54 9.06686Z" fill="white"/>
<path fill-rule="evenodd" clip-rule="evenodd" d="M69.997 1.60809C69.1493 1.60809 68.4852 1.89754 68.005 2.47655C67.5246 3.05537 67.2845 3.83283 67.2845 4.80828C67.2845 5.78391 67.5246 6.561 68.005 7.14C68.4852 7.71882 69.1493 8.00828 69.997 8.00828C70.4827 8.00828 70.9264 7.86903 71.3277 7.59018C71.7287 7.3115 72.144 6.83995 72.5737 6.17515L73.9977 7.20423C73.4891 8.04044 72.9154 8.65151 72.2771 9.03755C71.6384 9.4234 70.8841 9.61637 70.0139 9.61637C68.7141 9.61637 67.6321 9.1609 66.7675 8.24949C65.9029 7.33837 65.4707 6.19123 65.4707 4.80828C65.4707 3.42532 65.9029 2.27828 66.7675 1.36687C67.6321 0.455842 68.7141 0 70.0139 0C70.8841 0 71.6384 0.192971 72.2771 0.579005C72.9154 0.964853 73.4891 1.57593 73.9977 2.41213L72.5737 3.4414C72.144 2.77669 71.7287 2.30514 71.3277 2.02619C70.9264 1.74761 70.4827 1.60809 69.997 1.60809" fill="white"/>
<path fill-rule="evenodd" clip-rule="evenodd" d="M78.9992 5.15383V7.09435L79.4993 7.57164H85.0006V9.06686H77.2988V0H84.8339V1.49531H79.4993L78.9992 1.97242V3.65852H84.1004V5.15383H78.9992Z" fill="white"/>
</svg>
