<svg id="Layer_1" data-name="Layer 1" xmlns="http://www.w3.org/2000/svg" viewBox="0 0 66.72 17.67"><defs><style>.cls-1{fill:#fff}</style></defs><path class="cls-1" d="M24.94 1.56h1v3.5h3.38v-3.5h1v7.67h-1V6H25.9v3.23h-1z"/><path d="M38.9 1.48a16.49 16.49 0 012.73.29v.76c-.06 0-1.56-.14-2.64-.14-1.32 0-1.6.92-1.6 3 0 2.23.38 3 1.61 3a5.25 5.25 0 001.82-.48V6h-1.56v-.67a6.17 6.17 0 011.82-.25h.71v4.15h-.71l-.23-.51a3.57 3.57 0 01-1.93.57c-2.17 0-2.49-1.72-2.49-3.93s.39-3.88 2.47-3.88zM48.34 3a1.26 1.26 0 011.41-1.42s3.14.15 3.33.17v.77h-3.23c-.54 0-.54.3-.54.59v1.82l3.33.07v.78l-3.34.11v1.88c0 .55.35.54.65.54h3.13v.76c-.17 0-3.22.18-3.22.18-.69 0-1.52-.14-1.52-1.38zm17.85-.31a1.21 1.21 0 00-1.41-1.13L63 7.62l-1.8-6.06a1.21 1.21 0 00-1.41 1.13c-.1 1.3-.53 6.53-.53 6.53h1l.48-5.95 1.77 5.95h1l1.77-5.95.48 5.95h1s-.47-5.22-.57-6.53z" fill="#929b9f"/><path class="cls-1" d="M24.94 13.84a.46.46 0 01.52-.52l1.21.06v.28h-1.18c-.2 0-.2.11-.2.21v.67h1.22v.29h-1.22v.67c0 .2.13.2.24.2h1.14v.28l-1.18.06c-.25 0-.55-.05-.55-.5zm2.17.25h.26l.09.24a1.22 1.22 0 01.7-.26.59.59 0 01.55.29 1.26 1.26 0 01.79-.29.61.61 0 01.62.67v1.38h-.35v-1.39a.31.31 0 00-.31-.34 1.06 1.06 0 00-.68.2v1.53h-.35v-1.39a.31.31 0 00-.31-.34 1.21 1.21 0 00-.66.2v1.53h-.35zm3.47 0h.27l.08.22a1.52 1.52 0 01.71-.24c.54 0 .66.52.66 1s-.09 1.05-.66 1.05a2.28 2.28 0 01-.72-.15v1.15h-.34zm1 1.74c.22 0 .35-.13.35-.73s-.13-.71-.35-.71a1.61 1.61 0 00-.68.16v1.18a2.27 2.27 0 00.71.1zm2.02-1.76c.69 0 .9.26.9 1.06s-.21 1-.9 1-.9-.28-.9-1 .23-1.06.9-1.06zm0 1.74c.38 0 .55-.05.55-.68s-.14-.74-.55-.74-.55.06-.55.74.19.68.55.68zm1.49-1.72l.55 1.55.48-1.55h.37l-.19.62.41.93.56-1.55h.38l-.74 2h-.37l-.41-.92-.31.92h-.39l-.73-2zm3.69-.01c.51 0 .8 0 .8.72 0 .31-.17.48-.53.48h-.8c0 .45.1.54.4.54a5.5 5.5 0 00.9 0V16a3.5 3.5 0 01-1 .11c-.52 0-.67-.26-.67-1s.27-1.03.9-1.03zM39 15c.15 0 .22-.06.22-.18 0-.36-.07-.4-.43-.4s-.55 0-.55.58zm1-.91h.27l.08.26a1.25 1.25 0 01.71-.28.82.82 0 01.27 0v.34h-.29a1.14 1.14 0 00-.69.22v1.47H40zm1.67-.56c0-.06 0-.1.09-.1H42a.09.09 0 01.09.1v.24a.08.08 0 01-.09.09h-.25a.09.09 0 01-.09-.09zm0 .56H42v2h-.3zm.89 0h.26l.09.23a1.29 1.29 0 01.72-.27.61.61 0 01.62.66v1.4h-.35v-1.4a.3.3 0 00-.31-.34 1.26 1.26 0 00-.68.21v1.53h-.35zm2.34 1.27a.66.66 0 01-.22-.56c0-.48.25-.72.67-.72h1.2v.24l-.29.07a.72.72 0 01.11.43.65.65 0 01-.64.73h-.56c-.06 0-.16 0-.16.11s.07.12.16.12h.76a.49.49 0 01.52.55v.24a.53.53 0 01-.59.59h-.57a.55.55 0 01-.61-.59v-.31l.16-.23a.39.39 0 01-.15-.33.32.32 0 01.21-.34zm.43 1.47h.5c.22 0 .27-.12.27-.28v-.2c0-.16 0-.24-.24-.24h-.66a.47.47 0 01-.17 0v.47c-.03.22.16.25.3.25zm0-1.6h.33c.28 0 .35-.24.34-.42s-.07-.4-.34-.4h-.31c-.29 0-.34.2-.34.4s.08.42.34.42zm2.67-1.9h.35v1.27h1.25v-1.27h.35v2.79h-.35v-1.18h-1.24v1.18H48zm3.31.74c.69 0 .9.26.9 1.06s-.21 1-.9 1-.9-.28-.9-1 .23-1.06.9-1.06zm0 1.74c.38 0 .55-.05.55-.68s-.14-.74-.55-.74-.55.06-.55.74.19.68.55.68zm1.24-1.22c0-.31.13-.52.53-.52a8.25 8.25 0 011 .07v.25h-1c-.21 0-.22.08-.22.2v.15c0 .19.1.19.22.19h.57a.46.46 0 01.51.5v.19a.44.44 0 01-.5.5 8.49 8.49 0 01-1.07-.08v-.24h1a.17.17 0 00.19-.18v-.16c0-.12 0-.19-.19-.19h-.57c-.36 0-.54-.12-.54-.51zm2.08-.5h.27l.08.22a1.52 1.52 0 01.71-.24c.54 0 .66.52.66 1s-.09 1.05-.66 1.05A2.28 2.28 0 0155 16v1.15h-.34zm1 1.74c.22 0 .35-.13.35-.73s-.13-.71-.35-.71a1.61 1.61 0 00-.68.16v1.18a2.27 2.27 0 00.7.1zm1.15-2.3c0-.06 0-.1.09-.1h.25a.09.09 0 01.09.1v.24a.08.08 0 01-.09.09h-.25a.09.09 0 01-.09-.09zm0 .56h.35v2h-.35zm.75.08l.36-.08.08-.56h.28v.56h.55v.32h-.55v1c0 .32.08.4.21.43l.32.08v.24h-.38c-.3 0-.5-.18-.5-.72v-1h-.36zm1.6 1.24a.49.49 0 01.53-.52h.78v-.22c0-.23-.11-.29-.3-.29h-.94v-.24a3.61 3.61 0 011-.12.55.55 0 01.62.61v1.46h-.27l-.08-.24a1.87 1.87 0 01-.78.26.5.5 0 01-.53-.52zm.57.42a2.62 2.62 0 00.74-.19v-.5l-.75.05a.22.22 0 00-.21.24v.16c0 .18.09.23.21.23zm1.55-2.7h.35v2.24c0 .32.08.39.21.43l.32.08v.24h-.36c-.31 0-.51-.18-.51-.72zm1.2.4c0-.06 0-.1.09-.1h.25a.09.09 0 01.09.1v.24a.08.08 0 01-.09.09h-.25a.09.09 0 01-.09-.09zm0 .56h.35v2h-.35zm.75.08l.36-.08.08-.56h.28v.56h.55v.32h-.55v1c0 .32.08.4.21.43l.32.08v.24h-.37c-.3 0-.5-.18-.5-.72v-1h-.38zm1.91-.08l.45 1.54a.19.19 0 00.24.15l.53-1.69h.38l-.84 2.67-.28.39h-.23l.34-1c-.13 0-.38 0-.5-.45l-.47-1.58zM8.59 17.67H6.18a2.81 2.81 0 01-2.27-1.31L.32 10.14a2.81 2.81 0 010-2.62L4.44.39a.78.78 0 011.35.78L1.67 8.31a1.29 1.29 0 000 1.06l3.59 6.22a1.29 1.29 0 00.92.53h2.41a.29.29 0 00.28-.28V11.2a.78.78 0 011.56 0v4.63a1.84 1.84 0 01-1.84 1.84zm5.58 0a.78.78 0 01-.67-1.17l4.12-7.14a1.29 1.29 0 000-1.06L14 2.09a1.29 1.29 0 00-.92-.53H10.7a.28.28 0 00-.28.28v4.63a.78.78 0 01-1.56 0V1.84A1.84 1.84 0 0110.7 0h2.41a2.81 2.81 0 012.27 1.31L19 7.53a2.81 2.81 0 010 2.62l-4.12 7.14a.78.78 0 01-.71.38z"/></svg>