<svg width="32" height="32" viewBox="0 0 32 32" fill="none" xmlns="http://www.w3.org/2000/svg">
<path d="M22.8358 22.3644L22.3643 22.8358C22.104 23.0961 21.6819 23.0961 21.4215 22.8358L16.0004 17.4146L10.5792 22.8357C10.3189 23.0961 9.89675 23.0961 9.6364 22.8357L9.16499 22.3643C8.90464 22.104 8.90464 21.6819 9.16499 21.4215L14.5862 16.0004L9.16499 10.5792C8.90464 10.3189 8.90464 9.89675 9.16499 9.6364L9.63639 9.165C9.89674 8.90465 10.3189 8.90465 10.5792 9.165L16.0004 14.5862L21.4215 9.16499C21.6819 8.90464 22.104 8.90464 22.3643 9.16499L22.8358 9.63639C23.0961 9.89674 23.0961 10.3189 22.8358 10.5792L17.4146 16.0004L22.8358 21.4215C23.0961 21.6819 23.0961 22.104 22.8358 22.3644Z" fill="#F8DB88"/>
</svg>
