<?xml version="1.0" encoding="UTF-8"?>
<svg xmlns="http://www.w3.org/2000/svg" id="Layer_1" viewBox="0 0 871.68 218.15">
  <defs>
    <style>.cls-1{fill:#f7b28a;}.cls-2,.cls-3{fill:#004288;}.cls-4{fill:#008e5b;}.cls-5,.cls-6{fill:#fff;}.cls-7{fill:#ffed00;}.cls-8{fill:#c5004b;}.cls-9{fill:#7c321c;}.cls-6,.cls-3{fill-rule:evenodd;}</style>
  </defs>
  <polygon class="cls-2" points="191.94 22.17 851 22.17 851 34.92 191.94 34.92 191.94 22.17 191.94 22.17"></polygon>
  <polygon class="cls-2" points="191.94 156.81 851 156.81 851 169.57 191.94 169.57 191.94 156.81 191.94 156.81"></polygon>
  <path class="cls-3" d="m194.58,133.32v-8.19h12.95c3.94,0,4.76.7,4.76,3.58v1.03c0,2.88-.82,3.58-4.76,3.58h-12.95Zm0,10.84v-8.43h12.19c5.96,0,8.37-.68,8.37-5.05v-2.79c0-4.38-2.41-5.08-8.37-5.08h-14.83v21.35h2.64Z"></path>
  <path class="cls-3" d="m221.48,144.16h3.03l2.73-4.7h16.98l2.79,4.7h2.82l-12.43-21.35h-3.52l-12.4,21.35h0Zm7.05-6.96l7.14-12.28,7.26,12.28h-14.39Z"></path>
  <polygon class="cls-2" points="263.1 144.16 263.1 122.8 260.45 122.8 260.45 144.16 263.1 144.16 263.1 144.16"></polygon>
  <polygon class="cls-2" points="279.14 144.16 279.14 124.95 298.73 144.16 302.61 144.16 302.61 122.8 299.96 122.8 299.96 141.72 280.66 122.8 276.49 122.8 276.49 144.16 279.14 144.16 279.14 144.16"></polygon>
  <polygon class="cls-2" points="327.13 144.16 327.13 125.18 337.7 125.18 337.7 122.8 313.91 122.8 313.91 125.18 324.48 125.18 324.48 144.16 327.13 144.16 327.13 144.16"></polygon>
  <polygon class="cls-2" points="351.73 144.16 351.73 122.8 349.08 122.8 349.08 144.16 351.73 144.16 351.73 144.16"></polygon>
  <polygon class="cls-2" points="367.77 144.16 367.77 124.95 387.36 144.16 391.24 144.16 391.24 122.8 388.59 122.8 388.59 141.72 369.29 122.8 365.12 122.8 365.12 144.16 367.77 144.16 367.77 144.16"></polygon>
  <path class="cls-2" d="m422.31,141.95h-10.11c-2.29,0-3.73-.35-4.58-1.56-.73-1.03-.76-2.35-.76-4.14v-5.67c0-1.79.03-3.11.76-4.14.88-1.23,2.29-1.56,4.58-1.56h10.19c3.64,0,4.99,1.09,4.99,4.49v.32h2.44c.03-.41.03-.79.03-1.15,0-4.91-2.47-6.02-8.93-6.02h-7.67c-3.41,0-5.7.21-7.23,1.5-1.53,1.29-2.03,3.44-2.03,6.73v5.82c0,3.03.5,5.02,2.03,6.32,1.59,1.35,3.91,1.53,7.26,1.53h7.64c3.61,0,6.02-.15,7.43-1.35,1.7-1.44,1.7-3.44,1.7-6.23v-3.47h-13.63v2.38h10.96v1.09c0,4.02-.76,5.11-5.08,5.11h0Z"></path>
  <path class="cls-3" d="m471.68,144.42h6.76c4.52,0,7.11-.38,8.23-2.47l4.26,2.2.88-2.2-4.26-2.26c.21-.67.21-1.73.21-3.23v-2.94h-2.59v4.88l-15.6-8.49c-1.17-.65-1.79-1-1.79-2.56,0-1.91,1.06-2.47,3.52-2.47h7.4c3.17,0,4.11.41,4.11,3.2,0,.29,0,.62-.03.97h2.79c.03-.32.03-.65.03-.97,0-3.67-1.76-5.55-5.26-5.55h-8.2c-4.93,0-7.05.79-7.05,4.82,0,1.91.59,2.94,2.32,4.08h-.15c-3.29,0-4.96,2-4.96,5.64,0,2.76.68,4.7,2.06,5.85,1.62,1.32,3.94,1.5,7.31,1.5h0Zm-2.32-11.66l14.92,7.99c-.65,1.09-2.14,1.2-4.67,1.2h-9.02c-2.23,0-3.7-.15-4.67-1.17-.73-.79-.85-1.91-.85-3.64,0-3.03,1.26-4.35,4.29-4.38h0Z"></path>
  <path class="cls-3" d="m536.69,122.8h-16.07v21.35h16.07c3.29,0,5.7-.18,7.37-1.38,1.85-1.32,2.5-3.32,2.5-6.4v-5.79c0-3.08-.65-5.08-2.5-6.4-1.67-1.2-4.08-1.38-7.37-1.38h0Zm1.7,2.38c4.2,0,5.41,1.2,5.41,5.2v6.23c0,3.85-1.44,5.17-5.41,5.17h-15.13v-16.6h15.13Z"></path>
  <polygon class="cls-2" points="559.69 144.16 580.72 144.16 580.72 141.78 562.27 141.78 562.27 134.26 579.96 134.26 579.96 131.88 562.27 131.88 562.27 125.18 580.72 125.18 580.72 122.8 559.69 122.8 559.69 144.16 559.69 144.16"></polygon>
  <path class="cls-2" d="m601.43,144.42h6.7c3.61,0,6.02-.15,7.43-1.35,1.29-1.09,1.7-2.7,1.7-5.17,0-.32-.03-.68-.03-1.06h-2.44v.59c0,3.55-1.35,4.52-5.23,4.52h-9.22c-2.29,0-3.73-.35-4.58-1.56-.73-1.03-.76-2.35-.76-4.14v-5.67c0-1.79.03-3.11.76-4.14.85-1.2,2.29-1.56,4.58-1.56h9.25c3.64,0,4.99,1.12,4.99,4.49v.32h2.41c.03-.41.03-.79.03-1.15,0-4.91-2.44-6.02-8.9-6.02h-6.73c-3.41,0-5.7.21-7.23,1.5-1.53,1.29-2.03,3.44-2.03,6.73v5.82c0,3.03.5,5.05,2.03,6.35,1.59,1.35,3.91,1.5,7.26,1.5h0Z"></path>
  <path class="cls-3" d="m647.57,124.89c2.44,0,4,.32,4.93,1.56.73.97.79,2.2.79,3.85v6.26c0,1.64-.06,2.88-.79,3.85-.94,1.23-2.5,1.56-4.93,1.56h-9.66c-2.44,0-3.99-.32-4.93-1.56-.79-1.06-.82-2.38-.82-4.17v-5.61c0-1.79.03-3.11.82-4.17.94-1.23,2.5-1.56,4.93-1.56h9.66Zm-8.37,19.53h7.11c3.61,0,6.08-.18,7.73-1.5,1.56-1.23,2.14-3.32,2.14-6.46v-5.96c0-3.17-.62-5.26-2.14-6.46-1.62-1.29-4.11-1.5-7.73-1.5h-7.14c-3.61,0-6.11.21-7.73,1.5-1.62,1.29-2.14,3.44-2.14,6.73v5.82c0,3.06.56,5.05,2.17,6.35,1.67,1.32,4.14,1.5,7.73,1.5h0Z"></path>
  <path class="cls-3" d="m671.58,144.16v-8.37h12.95c3.67,0,5.17.26,5.17,3.61v4.76h2.64v-5.29c0-2.5-1.2-3.91-3.53-4.17,2.94-.62,3.76-1.73,3.76-4.26v-2.56c0-4.35-2.38-5.08-8.4-5.08h-15.25v21.35h2.64Zm13.45-19.03c3.79,0,4.76.68,4.76,3.58v1.03c0,2.91-.97,3.58-4.76,3.58h-13.45v-8.19h13.45Z"></path>
  <path class="cls-3" d="m702.6,144.16h3.03l2.73-4.7h16.98l2.79,4.7h2.82l-12.43-21.35h-3.53l-12.4,21.35h0Zm7.05-6.96l7.14-12.28,7.26,12.28h-14.39Z"></path>
  <polygon class="cls-2" points="748.06 144.16 748.06 125.18 758.64 125.18 758.64 122.8 734.84 122.8 734.84 125.18 745.42 125.18 745.42 144.16 748.06 144.16 748.06 144.16"></polygon>
  <polygon class="cls-2" points="772.66 144.16 772.66 122.8 770.01 122.8 770.01 144.16 772.66 144.16 772.66 144.16"></polygon>
  <polygon class="cls-2" points="788.7 144.16 788.7 124.95 808.29 144.16 812.17 144.16 812.17 122.8 809.53 122.8 809.53 141.72 790.23 122.8 786.05 122.8 786.05 144.16 788.7 144.16 788.7 144.16"></polygon>
  <path class="cls-2" d="m843.24,141.95h-10.11c-2.29,0-3.73-.35-4.58-1.56-.73-1.03-.76-2.35-.76-4.14v-5.67c0-1.79.03-3.11.76-4.14.88-1.23,2.29-1.56,4.58-1.56h10.19c3.64,0,4.99,1.09,4.99,4.49v.32h2.44c.03-.41.03-.79.03-1.15,0-4.91-2.47-6.02-8.93-6.02h-7.67c-3.41,0-5.7.21-7.23,1.5-1.53,1.29-2.03,3.44-2.03,6.73v5.82c0,3.03.5,5.02,2.03,6.32,1.59,1.35,3.91,1.53,7.26,1.53h7.64c3.61,0,6.02-.15,7.43-1.35,1.7-1.44,1.7-3.44,1.7-6.23v-3.47h-13.63v2.38h10.96v1.09c0,4.02-.76,5.11-5.08,5.11h0Z"></path>
  <path class="cls-3" d="m251.06,110.08c13.81,0,19.99-4.89,19.99-16.9,0-8.92-3.43-13.56-11.33-14.84,6.26-2.4,9.18-6.52,9.18-13.21,0-11.76-6.78-17.42-20.77-17.42h-56.2v62.38h59.12Zm-6.61-38.1h-33.46v-10.3h33.46c2.92,0,4.89,2.06,4.89,5.15,0,3.35-1.72,5.15-4.89,5.15h0Zm1.72,23.94h-35.18v-11.24h35.18c3.17,0,5.23,2.14,5.23,5.49,0,3.69-1.89,5.75-5.23,5.75h0Z"></path>
  <path class="cls-3" d="m294.48,110.08l6.09-10.38h38.01l6.01,10.38h20.94l-33.46-62.38h-24.28l-34.07,62.38h20.77Zm13.3-25.4l11.84-22.05,12.1,22.05h-23.94Z"></path>
  <path class="cls-2" d="m426.97,70.18h19.14c.09-1.2.09-2.4.09-3.52,0-7.46-1.72-12.61-5.75-15.7-4.55-3.52-12.01-4.03-22.91-4.03h-21.28c-21.28,0-29.43,5.32-29.43,24.02v16.99c0,8.49,1.97,14.16,7.21,18.28,5.41,4.2,12.44,4.63,22.31,4.63h21.19c19.91,0,29.17-3.6,29.17-16.22v-20.51h-42.22v12.61h22.4c.09.69.17,1.29.17,1.89,0,5.32-4.46,6.61-14.42,6.61h-10.98c-11.16,0-15.36-1.97-15.36-11.76v-8.67c0-10.64,2.92-12.27,15.27-12.27h11.07c9.95,0,14.33.6,14.33,7.46v.17h0Z"></path>
  <polygon class="cls-2" points="540.37 110.08 540.37 47.7 521.41 47.7 521.41 93.43 484.25 47.7 456.02 47.7 456.02 110.08 475.07 110.08 475.07 64.69 512.48 110.08 540.37 110.08 540.37 110.08"></polygon>
  <path class="cls-3" d="m565.03,110.08l6.09-10.38h38.01l6.01,10.38h20.94l-33.47-62.38h-24.28l-34.07,62.38h20.77Zm13.3-25.4l11.84-22.05,12.1,22.05h-23.94Z"></path>
  <polygon class="cls-2" points="660.45 94.98 660.45 47.7 641.4 47.7 641.4 110.08 701.98 110.08 701.98 94.98 660.45 94.98 660.45 94.98"></polygon>
  <polygon class="cls-2" points="727.45 94.98 727.45 47.7 708.4 47.7 708.4 110.08 768.98 110.08 768.98 94.98 727.45 94.98 727.45 94.98"></polygon>
  <path class="cls-2" d="m773.34,89.31c-.17,2.57-.26,4.29-.26,4.98,0,13.64,6.86,16.56,26.17,16.56h25.4c9.1,0,15.45-.51,19.31-3,5.58-3.6,7.04-8.24,7.04-16.13,0-14.59-5.15-19.91-19.48-20.25l-31.32-.77c-5.23-.17-7.47-1.29-7.47-5.15,0-4.38,3.09-4.89,9.01-4.89h21.97c4.2,0,6.26,2.06,6.26,6.18v.26h18.36c.09-1.2.17-2.4.17-3.43,0-12.01-6.18-16.73-20.34-16.73h-29.09c-10.04,0-16.9.43-21.45,4.8-3.17,3.17-4.38,7.81-4.38,14.59,0,14.33,4.63,18.19,19.14,18.62l29.95.94c6.18.17,9.18.86,9.18,5.4,0,3.78-1.97,5.15-6.52,5.15h-23.94c-6.61,0-8.92-.86-8.92-6.01v-1.12h-18.79Z"></path>
  <path class="cls-2" d="m204.58,190.35h-8.52l-1.76,4.01h-2.36l7.26-16.03h2.27l7.28,16.03h-2.4l-1.76-4.01Zm-.8-1.83l-3.46-7.86-3.46,7.86h6.92Z"></path>
  <path class="cls-2" d="m243.99,183.91c0,3.48-2.52,5.59-6.69,5.59h-3.96v4.86h-2.29v-16.03h6.25c4.17,0,6.69,2.11,6.69,5.59Zm-2.29,0c0-2.29-1.53-3.6-4.47-3.6h-3.89v7.19h3.89c2.93,0,4.47-1.31,4.47-3.6Z"></path>
  <path class="cls-2" d="m263.65,190.35h-8.52l-1.76,4.01h-2.36l7.26-16.03h2.27l7.28,16.03h-2.4l-1.76-4.01Zm-.8-1.83l-3.46-7.86-3.46,7.86h6.92Z"></path>
  <path class="cls-2" d="m275.61,192.52l.85-1.79c1.19,1.08,3.23,1.86,5.29,1.86,2.77,0,3.96-1.08,3.96-2.47,0-3.92-9.71-1.44-9.71-7.4,0-2.47,1.92-4.58,6.14-4.58,1.88,0,3.82.5,5.15,1.42l-.76,1.83c-1.4-.89-2.98-1.31-4.4-1.31-2.73,0-3.89,1.14-3.89,2.54,0,3.92,9.71,1.47,9.71,7.35,0,2.45-1.97,4.56-6.21,4.56-2.45,0-4.86-.83-6.14-2.02Z"></path>
  <path class="cls-2" d="m296.71,192.52l.85-1.79c1.19,1.08,3.23,1.86,5.29,1.86,2.77,0,3.96-1.08,3.96-2.47,0-3.92-9.71-1.44-9.71-7.4,0-2.47,1.92-4.58,6.14-4.58,1.88,0,3.82.5,5.15,1.42l-.76,1.83c-1.4-.89-2.98-1.31-4.4-1.31-2.73,0-3.89,1.14-3.89,2.54,0,3.92,9.71,1.47,9.71,7.35,0,2.45-1.97,4.56-6.21,4.56-2.45,0-4.86-.83-6.14-2.02Z"></path>
  <path class="cls-2" d="m319.27,178.32h2.29v16.03h-2.29v-16.03Z"></path>
  <path class="cls-2" d="m331.94,186.34c0-4.69,3.62-8.2,8.54-8.2s8.5,3.48,8.5,8.2-3.62,8.2-8.5,8.2-8.54-3.5-8.54-8.2Zm14.75,0c0-3.55-2.66-6.16-6.21-6.16s-6.25,2.61-6.25,6.16,2.66,6.16,6.25,6.16,6.21-2.61,6.21-6.16Z"></path>
  <path class="cls-2" d="m373.15,178.32v16.03h-1.88l-9.62-11.96v11.96h-2.29v-16.03h1.88l9.62,11.96v-11.96h2.29Z"></path>
  <path class="cls-2" d="m400.17,180.32v5.59h8.04v1.97h-8.04v6.48h-2.29v-16.03h11.31v1.99h-9.02Z"></path>
  <path class="cls-2" d="m417.81,186.34c0-4.69,3.62-8.2,8.54-8.2s8.5,3.48,8.5,8.2-3.62,8.2-8.5,8.2-8.54-3.5-8.54-8.2Zm14.75,0c0-3.55-2.66-6.16-6.21-6.16s-6.25,2.61-6.25,6.16,2.66,6.16,6.25,6.16,6.21-2.61,6.21-6.16Z"></path>
  <path class="cls-2" d="m455.95,194.36l-3.46-4.92c-.32.02-.66.04-1.01.04h-3.96v4.88h-2.29v-16.03h6.25c4.17,0,6.69,2.11,6.69,5.59,0,2.47-1.28,4.26-3.53,5.06l3.8,5.38h-2.5Zm-.07-10.44c0-2.29-1.53-3.6-4.47-3.6h-3.89v7.21h3.89c2.93,0,4.47-1.33,4.47-3.62Z"></path>
  <path class="cls-2" d="m494.74,183.91c0,3.48-2.52,5.59-6.69,5.59h-3.96v4.86h-2.29v-16.03h6.25c4.17,0,6.69,2.11,6.69,5.59Zm-2.29,0c0-2.29-1.53-3.6-4.47-3.6h-3.89v7.19h3.89c2.93,0,4.47-1.31,4.47-3.6Z"></path>
  <path class="cls-2" d="m514.4,190.35h-8.52l-1.76,4.01h-2.36l7.26-16.03h2.27l7.28,16.03h-2.4l-1.76-4.01Zm-.8-1.83l-3.46-7.86-3.46,7.86h6.92Z"></path>
  <path class="cls-2" d="m527.83,178.32h2.29v16.03h-2.29v-16.03Z"></path>
  <path class="cls-2" d="m555.59,178.32v16.03h-1.88l-9.62-11.96v11.96h-2.29v-16.03h1.88l9.62,11.96v-11.96h2.29Z"></path>
  <path class="cls-2" d="m570.46,180.32h-5.5v-1.99h13.26v1.99h-5.5v14.04h-2.27v-14.04Z"></path>
  <path class="cls-2" d="m587.6,178.32h2.29v16.03h-2.29v-16.03Z"></path>
  <path class="cls-2" d="m615.36,178.32v16.03h-1.88l-9.62-11.96v11.96h-2.29v-16.03h1.88l9.62,11.96v-11.96h2.29Z"></path>
  <path class="cls-2" d="m638.16,186.25h2.2v6.25c-1.6,1.35-3.83,2.04-6.07,2.04-4.92,0-8.54-3.46-8.54-8.2s3.62-8.2,8.59-8.2c2.54,0,4.7.85,6.16,2.47l-1.42,1.42c-1.33-1.28-2.84-1.85-4.65-1.85-3.71,0-6.39,2.59-6.39,6.16s2.68,6.16,6.37,6.16c1.35,0,2.61-.3,3.76-1.03v-5.22Z"></path>
  <path class="cls-2" d="m663.18,192.52l.85-1.79c1.19,1.08,3.23,1.86,5.29,1.86,2.77,0,3.96-1.08,3.96-2.47,0-3.92-9.71-1.44-9.71-7.4,0-2.47,1.92-4.58,6.14-4.58,1.88,0,3.82.5,5.15,1.42l-.76,1.83c-1.4-.89-2.98-1.31-4.4-1.31-2.73,0-3.89,1.14-3.89,2.54,0,3.92,9.71,1.47,9.71,7.35,0,2.45-1.97,4.56-6.21,4.56-2.45,0-4.86-.83-6.14-2.02Z"></path>
  <path class="cls-2" d="m685.74,178.32h2.29v16.03h-2.29v-16.03Z"></path>
  <path class="cls-2" d="m713.51,178.32v16.03h-1.88l-9.62-11.96v11.96h-2.29v-16.03h1.88l9.62,11.96v-11.96h2.29Z"></path>
  <path class="cls-2" d="m723.89,186.34c0-4.74,3.62-8.2,8.5-8.2,2.47,0,4.63.85,6.09,2.5l-1.49,1.44c-1.24-1.31-2.75-1.9-4.51-1.9-3.62,0-6.3,2.61-6.3,6.16s2.68,6.16,6.3,6.16c1.76,0,3.27-.62,4.51-1.92l1.49,1.44c-1.47,1.65-3.62,2.52-6.12,2.52-4.86,0-8.47-3.46-8.47-8.2Z"></path>
  <path class="cls-2" d="m760.27,192.36v1.99h-11.63v-16.03h11.31v1.99h-9.02v4.92h8.04v1.95h-8.04v5.18h9.34Z"></path>
  <path class="cls-2" d="m787.56,178.32v16.03h-2.27v-14.04h-3.62v-1.99h5.89Z"></path>
  <path class="cls-2" d="m810.58,189.82c0,2.91-2.47,4.72-6.39,4.72s-6.34-1.81-6.34-4.72c0-1.83,1.01-3.18,2.82-3.87-1.47-.69-2.25-1.88-2.25-3.46,0-2.68,2.31-4.35,5.77-4.35s5.82,1.67,5.82,4.35c0,1.58-.8,2.77-2.27,3.46,1.83.71,2.84,2.04,2.84,3.87Zm-2.29-.07c0-1.76-1.56-2.86-4.1-2.86s-4.05,1.1-4.05,2.86,1.51,2.93,4.05,2.93,4.1-1.12,4.1-2.93Zm-7.6-7.17c0,1.58,1.31,2.57,3.5,2.57s3.57-.99,3.57-2.57-1.42-2.59-3.57-2.59-3.5.98-3.5,2.59Z"></path>
  <path class="cls-2" d="m831.24,178.32v1.56l-6.48,14.47h-2.43l6.34-14.04h-7.33v2.86h-2.2v-4.86h12.09Z"></path>
  <path class="cls-2" d="m850.97,189.55c0,2.77-1.97,4.99-6.07,4.99-2.27,0-4.51-.73-5.89-1.95l1.05-1.81c1.08,1.01,2.86,1.72,4.81,1.72,2.43,0,3.8-1.12,3.8-2.86s-1.15-2.93-4.86-2.93h-3.64l.85-8.38h9.05v1.99h-7.12l-.44,4.4h1.79c4.79,0,6.67,1.99,6.67,4.83Z"></path>
  <path class="cls-2" d="m182.08,194.54H18.87V22.22h163.21v172.32Zm-5.05-37.99V27.27H23.92v129.28h153.12Z"></path>
  <polygon class="cls-5" points="49.25 182.62 59.01 182.62 59.35 180.11 52.29 180.11 53.02 174.49 60.08 174.49 60.4 172.05 53.36 172.05 53.92 167.67 60.98 167.67 61.3 165.21 51.54 165.21 49.25 182.62 49.25 182.62"></polygon>
  <path class="cls-5" d="m62.9,179.62c1.07,2.31,2.8,3.45,5.28,3.45,3.67,0,5.91-2.12,5.91-5.38,0-2.24-1-3.53-3.21-4.82-1.78-1.02-3.16-1.41-3.16-3.14,0-1.53,1.12-2.68,2.87-2.68,1.19,0,2.12.61,2.9,1.87l1.65-1.53c-1.05-1.73-2.65-2.6-4.79-2.6-3.21,0-5.33,2.17-5.33,5.18,0,1.09.34,2.04.97,2.75.83.93,2.02,1.48,3.33,2.24,1.39.8,2.04,1.53,2.04,2.85,0,1.7-1.22,2.92-3.09,2.92-1.51,0-2.53-.85-3.46-2.7l-1.92,1.58h0Z"></path>
  <polygon class="cls-5" points="80.32 182.62 83.07 182.62 85.04 167.72 89.47 167.72 89.81 165.21 77.93 165.21 77.59 167.72 82.29 167.72 80.32 182.62 80.32 182.62"></polygon>
  <path class="cls-5" d="m88.08,181.3c0,.85.68,1.53,1.56,1.53s1.56-.68,1.56-1.53-.68-1.56-1.56-1.56-1.56.68-1.56,1.56h0Z"></path>
  <polygon class="cls-5" points="99.74 182.62 102.39 182.62 104.68 165.39 99.52 165.39 98.28 167.7 101.71 167.7 99.74 182.62 99.74 182.62"></polygon>
  <path class="cls-6" d="m112.95,173.17c-2.58.8-3.89,2.46-3.89,4.89,0,3.07,2,4.99,5.4,4.99,3.63,0,5.99-2.29,5.99-5.67,0-1.97-1.05-3.38-2.94-3.94,2.21-.71,3.46-2.14,3.46-4.19,0-2.56-1.87-4.21-4.94-4.21-3.29,0-5.48,1.87-5.48,4.55,0,1.56.78,2.7,2.41,3.58h0Zm.15-3.16c0-1.63,1.09-2.73,2.82-2.73,1.41,0,2.41.95,2.41,2.19,0,1.8-1.12,2.87-2.77,2.87-1.51,0-2.46-.88-2.46-2.34h0Zm-1.41,7.98c0-1.92,1.36-3.26,3.21-3.26s2.94,1.02,2.94,2.68c0,1.95-1.36,3.33-3.29,3.33-1.73,0-2.87-1.12-2.87-2.75h0Z"></path>
  <polygon class="cls-5" points="124.81 182.08 126.97 183.32 137.34 165.39 125.63 165.39 125.34 167.62 133.15 167.62 124.81 182.08 124.81 182.08"></polygon>
  <path class="cls-5" d="m140.24,178.67l-1.87,1.68c1.46,1.92,3.21,2.75,5.72,2.75,3.77,0,6.64-2.87,6.64-6.57,0-3.33-2.29-5.69-5.79-5.69-.32,0-.8.02-1.41.1l1.05-3.38h6.16l.29-2.17h-8.42l-2.58,8.81.46.22c1.34-.9,2.51-1.41,3.77-1.41,2.41,0,3.85,1.36,3.85,3.7s-1.85,4.04-4.23,4.04c-1.51,0-2.7-.68-3.63-2.07h0Z"></path>
  <path class="cls-2" d="m28.96,32.31h18.87l81.35,78.09c-3.02,3.13-5.69,6.6-7.97,10.33L28.96,64.84v-32.53h0Z"></path>
  <path class="cls-4" d="m114.97,134.77l-86.01-25.24v-36.63l90.99,49.99c-2.06,3.73-3.74,7.7-4.97,11.87h0Z"></path>
  <path class="cls-9" d="m112.53,151.5H28.96v-34.73l85.28,20.71c-1.1,4.5-1.7,9.19-1.71,14.02h0Z"></path>
  <path class="cls-8" d="m158.23,93.76l-14.64-61.44h28.4v59.82c-4.74,0-9.34.57-13.76,1.63h0Z"></path>
  <path class="cls-7" d="m143.61,99.38l-36.52-67.07h29.37l18.57,62.3c-4,1.2-7.83,2.8-11.42,4.77h0Z"></path>
  <path class="cls-1" d="m130.89,108.69L57.57,32.31h41.57l41.9,68.55c-3.66,2.24-7.06,4.87-10.15,7.83h0Z"></path>
</svg>
