<svg xmlns="http://www.w3.org/2000/svg" width="49" height="49" fill="none"><path fill="#fff" stroke="#002855" stroke-width="2.133" d="M24.5 47C36.926 47 47 36.926 47 24.5S36.926 2 24.5 2 2 12.074 2 24.5 12.074 47 24.5 47Z"/><path fill="#002855" d="M24.675 16.59a3.079 3.079 0 0 1-2.842-1.9 3.072 3.072 0 0 1 .667-3.351 3.073 3.073 0 0 1 4.733.466c.337.505.518 1.1.518 1.709a3.082 3.082 0 0 1-3.076 3.076Z"/><path fill="#002855" d="m34.343 16.634-.025.006-.023.007c-.055.016-.109.032-.164.05-1.023.3-5.984 1.698-9.48 1.698-3.248 0-7.76-1.209-9.204-1.619a4.082 4.082 0 0 0-.44-.142c-1.043-.274-1.756.786-1.756 1.755 0 .96.862 1.416 1.732 1.744v.016l5.231 1.633c.534.205.676.415.746.596.227.582.046 1.734-.018 2.136l-.32 2.472-1.767 9.678-.015.08-.013.07c-.126.888.525 1.748 1.759 1.748 1.076 0 1.552-.743 1.757-1.754.206-1.011 1.539-8.656 2.307-8.656.769 0 2.354 8.656 2.354 8.656.205 1.011.681 1.754 1.757 1.754 1.238 0 1.89-.864 1.759-1.754a3.176 3.176 0 0 0-.043-.223l-1.793-9.598-.317-2.472c-.23-1.44-.045-1.916.018-2.027a.128.128 0 0 0 .004-.009c.06-.11.33-.355.96-.592l4.904-1.715a.875.875 0 0 0 .09-.028c.878-.33 1.757-.786 1.757-1.754 0-.969-.713-2.03-1.757-1.756Z"/></svg>