<?xml version="1.0" encoding="UTF-8" standalone="no"?>
<svg width="108px" height="111px" viewBox="0 0 108 111" version="1.1" xmlns="http://www.w3.org/2000/svg" xmlns:xlink="http://www.w3.org/1999/xlink">
    <!-- Generator: Sketch 50 (54983) - http://www.bohemiancoding.com/sketch -->
    <title>logo white</title>
    <desc>Created with Sketch.</desc>
    <defs></defs>
    <g id="Page-1" stroke="none" stroke-width="1" fill="none" fill-rule="evenodd">
        <g id="Home" transform="translate(-135.000000, -9.000000)" fill="#FFFFFE">
            <g id="logo-white" transform="translate(135.000000, 9.000000)">
                <path d="M0,53.2512355 L0,55.5247652 C0,78.4402667 27.9674317,94 52.1320764,94 L57.1136116,94 C69.114085,94 84.4454199,88.4290673 91.2267218,83.2849497 C95.9745764,79.6826789 99.0468071,77.2817687 102.449781,72.2798221 C105.09664,68.3916999 108,61.9197468 108,55.5247652 C108,42.3372664 99.1645602,32.0324295 91.0262068,26.737689 C85.7121027,23.2797022 81.9573907,21.6077583 75.495574,19.2681235 C71.1691356,17.701827 61.3189499,16 55.51223,16 L52.3094668,16 C39.9730776,16 24.5945806,20.9762893 17.6444079,26.1738343 C12.7234227,29.8530767 9.66366715,31.901125 6.05196283,36.9890986 C3.45530869,40.6469097 0,47.1300313 0,53.2512355 Z M56.4019203,45.731563 C55.9786784,46.3527691 55.1565365,46.801921 55.1565365,47.8300201 L55.1565365,48.1795617 C55.1565365,49.4476311 57.4391823,52.310069 58.3592997,52.5518504 C58.2683225,56.5643346 54.4451494,57.3295228 54.4451494,58.3226074 C54.4451494,59.0144462 57.3786322,60.3791074 58.0036062,61.2964277 C57.578843,61.9188412 55.3348397,63.6943194 55.3348397,64.2693425 L55.3348397,64.7942587 C56.3550625,65.0619991 58.5379072,67.2371259 58.5379072,68.4665586 L58.5379072,68.8161002 C58.5379072,71.6833677 57.0670581,74.3260593 56.7682633,76.5211082 C56.1995797,80.6974966 57.5904053,80.8840395 60.2838178,82.3151076 C62.8661712,83.6858057 71.5260462,87.2687582 71.5260462,90.3277001 C70.2605805,90.3277001 66.5423811,91.2709795 64.9233517,91.5332866 C62.7462882,91.8849412 60.0814772,92.2519901 57.6476084,92.2519901 L51.0637787,92.2519901 C46.3445256,92.2519901 41.0736281,91.2187596 37.186558,90.3277001 C38.4352887,85.0586168 52.1320764,83.2912885 52.1320764,78.2609682 C52.1320764,75.3176346 49.9963938,72.2061709 49.9963938,68.6416312 L49.9963938,68.4665586 C49.9963938,66.7082858 53.1991571,64.7369073 53.1991571,64.4447171 C53.1991571,63.8597329 50.7944983,61.9444984 50.3523916,61.2964277 C50.8739132,60.5306358 53.9111527,58.8586919 53.9111527,58.3226074 C53.9111527,57.3763095 49.8180906,56.5181516 49.8180906,52.5518504 C50.5735971,52.3529316 53.0208539,49.3256839 53.0208539,48.3540307 C53.0208539,46.3476376 49.9997408,44.7638338 48.6162177,43.4157743 C47.3781364,42.2080749 46.1939112,38.784197 45.72655,36.8116111 L45.5491596,35.7620807 C45.5047359,35.7128793 42.5925521,27.9870437 42.2389885,27.1231507 C41.5711122,25.488938 38.1401453,20.0791929 38.0753354,19.3227583 C43.7609552,18.0205799 48.994123,17.5738428 56.0462267,17.5738428 C58.3644723,17.5738428 66.2773605,18.2524003 67.4332884,18.9729148 L69.5771864,19.2774809 C67.0255645,24.0476071 64.9221346,26.9169875 63.2343399,32.8585913 C62.5050008,35.4246131 61.8219109,37.9815794 61.0092014,40.4654982 C60.4158717,42.2790095 58.1505694,45.27245 56.4019203,45.731563 Z M67.9675894,39.4349843 C67.9675894,38.7440511 68.3640554,37.1614546 69.0349743,37.1614546 C71.6836589,37.1614546 74.5873231,40.3885266 75.6178912,40.6592855 C75.3464809,41.6587089 71.7986736,40.93095 70.3439509,41.4208516 C68.9272622,41.8995848 67.0870273,43.0764956 66.1876004,43.2826588 C66.2737092,42.2717651 67.6484085,41.9774619 68.323283,41.5334414 C68.1668874,40.8732968 67.9675894,40.439841 67.9675894,39.6094533 L67.9675894,39.4349843 Z M32.3824131,41.3592743 C32.5001662,39.9641264 37.2626259,37.1614546 38.7882438,37.1614546 C39.2321762,37.1614546 39.9280454,38.7636713 39.8553245,39.4349843 L39.648724,41.7057974 L41.9331955,43.1051713 L41.8123996,43.2826588 C40.5603219,43.18003 38.220473,41.3592743 36.8296473,41.3592743 L32.3824131,41.3592743 Z M69.7466657,50.2780188 C69.7466657,49.5309415 70.7239862,47.6259699 71.1691356,47.305104 C71.6158063,47.6259699 72.5931268,49.5309415 72.5931268,50.2780188 L72.5931268,50.9774039 C72.5931268,51.5225439 72.02992,52.0269343 71.347743,52.0269343 L70.9917452,52.0269343 C70.1613879,52.0269343 69.7466657,51.6191357 69.7466657,50.8029349 L69.7466657,50.2780188 Z" id="Fill-9-Copy"></path>
                <path d="M20.188534,5.70020729 L20.7638713,5.45362859 C21.5150307,5.13164727 22.3610455,4.90483135 23.3013245,4.77196465 L23.3293969,4.70203481 L23.309303,4.65277987 L25.2398004,4 L25.3074698,4.02858002 L25.3272683,4.078139 L25.9572729,8.5551691 L25.909402,8.57584401 L24.4029462,9.16295064 L24.2108716,9.24534624 L24.0749419,9.18757811 L23.9596971,8.48463117 C23.053696,8.5636823 22.4248733,8.67861047 22.0735246,8.8294157 C20.7623938,9.39067869 20.3401252,10.4785438 20.8058322,12.093011 L20.9654019,12.4879626 C21.5342382,13.8941605 22.5087951,14.6342007 23.8893683,14.7086912 L24.4567271,14.5816013 C25.3121978,14.2152297 25.938361,13.2140168 26.3361032,11.5770504 C24.6204337,11.6944109 23.7425051,11.7038363 23.7026127,11.6047183 C23.6074619,11.1152094 23.5746614,10.8011332 23.6030294,10.6634018 C24.6393457,10.1425765 26.3044847,9.39067869 28.5984464,8.40831643 L28.6457263,10.4721589 L30,11.4551292 C29.1702377,14.7822695 27.9403693,16.7947288 26.3100992,17.493115 L25.9262455,17.6572981 C23.9041432,18.523212 21.6586434,17.7482069 19.1903371,15.3319789 C18.4781836,14.4989016 17.9589911,13.6792023 17.6327598,12.8728808 L17.4533917,12.4289783 C16.5648251,10.2334853 16.9823657,8.29855699 18.7057181,6.62480142 C19.2225465,6.21008705 19.716917,5.9020917 20.188534,5.70020729" id="Fill-11-Copy"></path>
                <path d="M37.2228709,1 L37.2853098,1.03873858 L37.297856,1.09018825 C37.8991953,4.48072151 38.170542,6.18340294 38.1127715,6.19883784 L38.0628787,6.21154894 C36.9996663,6.18733733 36.4560976,6.12771624 36.4333395,6.03329096 L36.2833693,5.41407905 L35.922449,5.45342292 L35.7237532,5.50517523 C33.7009071,6.03268567 32.3418394,6.75298105 31.6462581,7.66545609 L32.0707844,8.98105442 L32.1206772,8.96804068 L34.9429749,7.73839356 L35.8532994,9.75007566 L32.7083033,11.1734157 L32.9956974,12.3600872 L33.0455902,12.3470734 C34.2056704,11.8253132 35.7806485,11.2684462 37.7702327,10.6764724 C39.6436922,10.2612433 40.6100366,10.1737788 40.668099,10.4140791 C40.9152287,12.3062163 41.024351,13.3385388 40.9954657,13.5104413 C39.9669741,13.2668119 38.8973428,13.2895103 37.7862801,13.5794443 C37.1397163,13.7480177 35.763434,14.2531324 33.6583086,15.0944858 C33.7084932,15.3011924 33.4351041,15.4821742 32.8381413,15.6377338 C32.848645,15.681012 32.5956798,15.8017674 32.0798293,16 L30.1696067,10.5190969 C29.3567336,8.76526845 28.6337259,7.38157497 28,6.36710853 L30.0000879,4.36450578 C30.0995817,4.3384783 30.1701902,4.41171842 30.2119135,4.58362085 L30.2618062,4.57090975 C30.2072451,4.34725501 31.3095547,3.7307669 33.5681515,2.72114279 C34.7016805,2.27020156 35.2735511,2.01143999 35.283763,1.94455541 C35.2627555,1.85890685 35.9090276,1.54385328 37.2228709,1" id="Fill-12-Copy"></path>
                <path d="M42.119046,7.77630352 C42.2614005,9.02878732 42.8779773,9.73990341 43.9681906,9.90994651 L44.4345043,9.908473 C45.6535982,9.76790011 46.460274,8.96277405 46.8545317,7.49191602 L46.8351996,6.86832644 C46.7162779,5.82183939 46.0214939,4.87643515 44.7508477,4.03211372 L43.960282,3.9145276 C42.9113692,4.03535544 42.2854192,5.06327626 42.0824321,6.99858476 L42.119046,7.77630352 Z M43.6864106,0.139688781 L44.0956067,0.0928311521 C44.6752768,0.0262284842 45.3486783,0.174463625 46.1155182,0.53812598 C46.1363149,0.188019921 46.1849381,0.00854636003 46.2616806,0 C47.9482599,1.46555339 48.7982865,2.25417613 48.8111745,2.36557352 C48.5909058,2.55624576 48.4848721,2.69004049 48.4939524,2.76695774 C49.2871543,3.97052099 49.7575687,5.22005777 49.9046098,6.51527336 L49.9459102,6.875694 C50.2314981,9.38891325 49.3861581,11.2243177 47.410476,12.3813181 C46.8457444,12.6550963 46.2774978,12.82455 45.7063221,12.8905632 L45.2974189,12.9374209 C42.210727,13.2928316 40.1960879,12.1343577 39.2532086,9.46199936 L39.0906432,8.49007193 L39.0440705,8.07837314 C38.82263,6.13098186 39.4356919,4.07897135 40.8832561,1.9223416 C41.8565981,0.836953879 42.7912758,0.242834506 43.6864106,0.139688781 Z" id="Fill-13-Copy"></path>
                <path d="M53.5900673,2.59384231 L53.5655458,4.58830859 L54.7658562,4.60174437 C56.1567512,4.61756873 56.9606829,4.31183018 57.1776513,3.68423016 L57.235075,3.47522921 C56.9631661,2.66729122 56.2768753,2.25705219 55.1765132,2.24451214 C54.4855665,2.23674924 53.9563373,2.35319264 53.5900673,2.59384231 Z M56.3501293,0.000737568185 L56.7868598,0.00581330573 C58.6598034,0.0270119743 59.9240559,0.7588139 60.5793068,2.20121908 L60.7307812,3.19994509 L60.7301604,3.2524939 C60.7127781,4.65220317 59.7899638,5.74378532 57.9617175,6.52783748 L57.9607863,6.58038629 C60.0193482,7.80214618 61.3658562,9.25201568 62,10.9299948 L59.3057424,12.5790124 L57.4796689,10.1964014 C56.8715986,9.36726478 55.8786342,8.77847922 54.5004656,8.43034334 L53.5748577,8.26224686 L53.5742369,8.31479567 L53.5875841,11.6740382 L53.9020176,12.727403 L53.7368857,12.8304107 L50.1881014,13 L50.0807036,12.8414578 L50,10.5311015 L50.5469219,10.4322739 L50.0189343,0.1386782 L50.0741852,0.0870251065 L50.6741852,0.0938922808 L53.5118469,0.0735893306 L53.5639938,0.284083152 C54.5212623,0.0852336697 55.4499741,-0.00941390691 56.3501293,0.000737568185 Z" id="Fill-15-Copy"></path>
                <path d="M66.9410027,1.04700368 L67.5735986,1.13198727 C68.399,1.24255415 69.2607227,1.47986125 70.1578587,1.84361453 L70.2177888,1.7995054 L70.2253558,1.74804475 L72.2587429,2.17737359 L72.3041445,2.2358917 L72.2968803,2.28705829 L70.5937142,6.33745246 L70.5410484,6.33010094 L68.9144597,6.06015308 L68.7034935,6.03192324 L68.6126903,5.91518108 L68.8651233,5.27089375 C68.0257987,4.88008688 67.4128769,4.65865906 67.0260551,4.60661029 C65.5853104,4.41341231 64.6633549,5.10739592 64.2598858,6.687973 L64.2014691,7.09789383 C63.9944377,8.55731783 64.481143,9.66592724 65.6621905,10.4246042 L66.2278946,10.6048635 C67.1674054,10.7307216 68.2258685,10.2119982 69.4029811,9.04781133 C67.8290584,8.28001845 67.0493612,7.84510245 67.0638898,7.74247521 C67.2270329,7.28609277 67.3565789,7.0079112 67.4513169,6.90734239 C68.6290349,6.99585471 70.4783941,7.20904883 73,7.54721881 L72.0002564,9.29158778 L72.6994413,10.7942387 C70.2883127,13.1496662 68.1865204,14.207109 66.3946699,13.9665672 L65.9730402,13.9101075 C63.7504797,13.6119298 62.1590016,11.8331557 61.1989087,8.57349118 C60.9906666,7.51957709 60.9458704,6.57446551 61.0648226,5.73786239 L61.1305036,5.27706903 C61.4540658,2.99839149 62.7988617,1.59601529 65.1654968,1.06994043 C65.8307818,0.9852509 66.4225162,0.977311257 66.9410027,1.04700368" id="Fill-17-Copy"></path>
                <path d="M77.1306834,2.05103042 C78.630406,2.56467592 79.2279145,3.37448012 78.9225288,4.48044301 C78.4525477,5.55025936 77.7394144,5.97946166 76.7814283,5.76865741 L76.607651,5.7303846 C75.6204186,5.5128978 74.7144638,4.85496986 73.8887662,3.75660078 L73.8731228,3.36840507 L73.9013489,3.26452171 C74.1043726,2.53035189 75.1031674,2.10843965 76.8984135,2 L77.1306834,2.05103042 Z M77.2469885,6.3111594 C77.305481,6.39742511 77.1487073,8.52581896 76.7776875,12.6969485 L76.849443,12.6580681 L77.3721354,12.7728866 L77.6765008,12.7850367 L77.4962621,15 L72,14.6142343 L72.0336672,12.037198 C72.2754592,12.0168466 72.5944478,12.0505631 72.9913132,12.1380438 L73.0055963,12.0861022 L74.3022952,5.8275854 C74.3189587,5.76713865 75.3004098,5.92812748 77.2469885,6.3111594 Z" id="Fill-18-Copy"></path>
                <path d="M89.9678347,6.40491675 L90,6.4735085 L89.9819261,6.52358654 C88.5856446,9.69185744 87.8580955,11.265522 87.7995853,11.2442768 L87.7487334,11.2263701 C86.8367698,10.5871922 86.3977897,10.2217742 86.4311803,10.1298127 L86.6511299,9.52766216 L86.3150788,9.35041623 L86.1122841,9.27787895 C84.0533968,8.53945543 82.4625916,8.34733784 81.3407875,8.70152619 L80.9655254,10.0424037 L81.0163772,10.0606139 L84.1685793,10.6800642 L83.8224191,12.8822841 L80.2790254,12.2358221 L79.8575064,13.3897416 L79.9080519,13.4076483 C81.2133516,13.6489334 82.8994274,14.1020638 84.9662794,14.7676465 C86.8321748,15.5124436 87.7223885,16.0016909 87.6369206,16.235692 C86.7807102,17.9523066 86.2914909,18.8737426 86.1692627,19 C85.4116926,18.1987513 84.4675637,17.5956903 83.3365695,17.1902099 C82.6785588,16.9543878 81.194665,16.5737947 78.8864199,16.0484305 C78.8128991,16.2493496 78.4725593,16.240548 77.8650941,16.0229362 C77.849471,16.0645161 77.5612084,16.0180801 77,15.8827177 L78.4400877,10.2150971 C78.7255932,8.28390565 78.8793741,6.7129726 78.902043,5.50138744 L81.7770106,5 C81.8781017,5.03611689 81.8980135,5.138094 81.8370526,5.30532431 L81.8875981,5.32353451 C81.9672456,5.10622615 83.2749959,5.23491155 85.812687,5.7092872 C87.0542687,5.9942768 87.6984942,6.11142907 87.7450574,6.06195803 C87.775691,5.97849462 88.5167189,6.09291537 89.9678347,6.40491675" id="Fill-19-Copy"></path>
                <path d="M23.1174019,94.4234353 L22.3588051,97.0784789 C24.7555575,97.1474332 26.0776311,96.8854066 26.3244182,96.2920991 L26.4259291,96.0483603 C26.3815561,95.6697108 26.0867489,95.3603155 25.5418114,95.1204741 L24.9980896,94.9004197 C24.5944772,94.736728 23.96748,94.5778331 23.1174019,94.4234353 Z M27.4571466,92.8767585 L28.0504081,93.1171994 C29.8706148,93.8544117 30.8538121,94.8224713 31,96.0210784 L30.8349687,96.6947327 L30.7538208,96.8896038 C30.3444338,97.8729533 29.1199201,98.6872146 27.0802796,99.3326876 C25.9712574,99.614801 24.8719608,99.7581062 23.7823897,99.762903 C22.6721518,99.6552742 21.9852813,99.5476454 21.7217784,99.440916 L20.5288729,103.971219 L20.459578,104 L20.4097343,103.979913 L17.165943,102.894032 C17.2200417,102.763918 17.1647273,102.665583 17,102.598727 L17.8716568,99.5338545 L18.1883466,99.6049075 L21.0653005,91.0284812 L21.1352032,91 L21.184439,91.0197869 L23.4781608,91.89191 L23.5769364,91.9317836 C23.6428882,91.9584659 23.6486627,92.0373138 23.594868,92.1668281 C25.024835,92.1767216 26.3122612,92.4132651 27.4571466,92.8767585 Z" id="Fill-20-Copy"></path>
                <path d="M32.4388146,102.759157 C32.1275572,103.994917 32.479802,104.884058 33.4955489,105.42658 L33.9562716,105.588593 C35.2111629,105.882298 36.2980984,105.402203 37.2180028,104.147715 L37.4238641,103.550495 C37.6839644,102.518069 37.3384994,101.379517 36.3883939,100.135433 L35.650005,99.7471953 C34.5707738,99.494514 33.5818381,100.248991 32.6831979,102.010031 L32.4388146,102.759157 Z M36.7409468,96.0773707 L37.162223,96.176065 C37.7585429,96.315783 38.3699634,96.6921295 38.9961763,97.3045101 C39.1425598,96.9807807 39.2556602,96.8276856 39.3348614,96.8461165 C40.4717214,98.8247599 41.0267458,99.8684824 40.9990099,99.9787703 C40.7127148,100.081924 40.5601678,100.1717 40.5410609,100.247802 C40.8902239,101.664898 40.9040918,103.01273 40.5823565,104.290406 L40.4929855,104.645943 C39.8686216,107.125787 38.3721206,108.567557 36.0034825,108.97155 C35.3470683,109.033085 34.7248617,108.994737 34.1368625,108.8571 L33.7158945,108.758406 C30.5398362,108.014631 28.9678321,106.21227 29.0004988,103.351917 L29.1909513,102.374784 L29.2932656,101.96871 C29.7767932,100.04744 31.1222882,98.3190999 33.3297504,96.7839866 C34.6823334,96.0972879 35.8198098,95.8615511 36.7409468,96.0773707 Z" id="Fill-21-Copy"></path>
                <path d="M44.4522062,99.7525794 L44.2386214,101.698333 L45.4274013,101.815476 C46.8053473,101.951363 47.6318677,101.722347 47.9063442,101.12843 L47.9829998,100.9287 C47.7898153,100.11631 47.1484429,99.655936 46.0585735,99.5487497 C45.3739278,99.4813922 44.8385751,99.5493354 44.4522062,99.7525794 Z M47.4352832,97.4586168 L47.8673982,97.5013742 C49.7228962,97.6844109 50.9070396,98.5082226 51.4198285,99.9733949 L51.4754656,100.962379 L51.4699019,101.013629 C51.3199907,102.378937 50.3009041,103.365578 48.4135693,103.972967 L48.4080056,104.024217 C50.33305,105.395968 51.5304845,106.928497 52,108.6221 L49.1723978,110 L47.5879762,107.514508 C47.0631327,106.652332 46.1343018,105.991349 44.8008655,105.532147 L43.8989259,105.287903 L43.8933622,105.339153 L43.5879762,108.621514 L43.7997064,109.677563 L43.626304,109.763956 L40.0911831,109.622505 L40,109.458211 L40.1390928,107.194706 L40.6908276,107.145506 L41.1439611,97.0459788 L41.2036164,97 L41.7980063,97.0585718 L44.6138629,97.2843658 L44.6453906,97.4943456 C45.6134765,97.3830592 46.5435438,97.371052 47.4352832,97.4586168 Z" id="Fill-22-Copy"></path>
                <path d="M55.8767428,98.0204975 L56.4973842,98.0032628 C57.3068653,97.9803824 58.1716452,98.0778472 59.0914299,98.2953603 L59.1417283,98.2415764 L59.1402576,98.1895753 L61.1604307,98.2891202 L61.2136705,98.3399327 L61.2151412,98.3919338 L60.2485878,102.70416 L60.1968187,102.705646 L58.5931519,102.698812 L58.3863695,102.704755 L58.2798898,102.60313 L58.4160779,101.919984 C57.5468858,101.666219 56.9230089,101.544388 56.5441529,101.555085 C55.1310907,101.5952 54.3613188,102.435538 54.2345433,104.076395 L54.2460148,104.494186 C54.287489,105.982011 54.9366622,107.008661 56.1935346,107.574136 L56.7653483,107.662686 C57.6868978,107.636537 58.6160951,106.94834 59.5526459,105.597798 C57.9178,105.086999 57.0992004,104.778855 57.096259,104.674853 C57.1774424,104.193471 57.2553903,103.895134 57.3298084,103.77984 C58.4734358,103.677621 60.2815318,103.591447 62.7538024,103.521617 L62.0822743,105.421886 L63,106.806897 C61.0760117,109.54364 59.2352658,110.936674 57.4780564,110.986595 L57.0644916,110.998184 C54.8851872,111.059991 53.0673845,109.543937 51.6107891,106.450021 C51.2375218,105.43288 51.0392696,104.497752 51.0157381,103.644934 L51.0027959,103.175142 C50.9380844,100.851733 51.9967045,99.2367285 54.1786561,98.3298296 C54.8025331,98.1384657 55.3687581,98.0350578 55.8767428,98.0204975" id="Fill-24-Copy"></path>
                <path d="M66.2891362,100.820081 C66.3772596,100.879745 67.087254,102.856617 68.4197869,106.750403 L68.4701908,106.692217 L68.9935905,106.631076 L69.2769874,106.545421 L70,108.607949 L64.8220816,110 L63.8203453,107.656285 C64.0329764,107.561178 64.3380704,107.490586 64.7352934,107.444214 L64.7279497,107.392525 L63.4040957,101.315407 C63.395083,101.255448 64.3567632,101.09034 66.2891362,100.820081 Z M64.4749287,97.0001366 C66.05147,96.9900942 66.9223564,97.5338596 67.0865864,98.6320236 C67.0859188,99.7493863 66.6059132,100.364039 65.6462358,100.476573 L65.471658,100.496953 C64.4826061,100.613031 63.3910774,100.304376 62.1964043,99.5715771 L62.0258321,99.2248195 L62.0104772,99.1217374 C61.9013243,98.3927787 62.6450326,97.6945378 64.2422695,97.0273101 L64.4749287,97.0001366 Z" id="Fill-26-Copy"></path>
                <path d="M76.3296024,95 L76.3918056,95.0394945 L76.4038355,95.0911411 C76.9736405,98.5013367 77.2292018,100.213574 77.1708129,100.228157 L77.1206396,100.240612 C76.0514484,100.204156 75.5057032,100.138838 75.4836973,100.043444 L75.3390455,99.4200389 L74.9758022,99.4555839 L74.7754022,99.5057115 C72.7358995,100.01276 71.3618539,100.720622 70.6532654,101.628995 L71.0666821,102.954186 L71.1168554,102.94173 L73.9673472,101.738364 L74.8625454,103.767773 L71.6848999,105.162231 L71.9618803,106.356179 L72.0120536,106.343723 C73.1842322,105.832726 74.7736417,105.291348 76.7802823,104.718678 C78.6683847,104.322518 79.6410435,104.245352 79.6970851,104.487787 C79.9262394,106.389598 80.0251191,107.426783 79.9946043,107.59904 C78.9623829,107.343541 77.8864433,107.354478 76.7667854,107.633066 C76.1148253,107.795297 74.7258157,108.287155 72.6003435,109.108336 C72.6484629,109.316138 72.3714826,109.495078 71.7699892,109.64455 C71.7799652,109.68769 71.5244039,109.806477 71.0035986,110 L69.1392625,104.477154 C68.3394231,102.708105 67.6267268,101.310609 67,100.285879 L69.031874,98.2974845 C69.1319273,98.2725726 69.202346,98.3467007 69.24225,98.5198688 L69.2924233,98.5074128 C69.2404895,98.2822943 70.354866,97.6755985 72.6364331,96.6870215 C73.7807376,96.2471139 74.3584646,95.9934378 74.3696142,95.926601 C74.3496623,95.8403208 75.0025026,95.5313525 76.3296024,95" id="Fill-27-Copy"></path>
                <path d="M82.3311296,91.461014 L82.6899884,91.3255772 C83.9966754,90.8319919 85.4802735,90.8997103 87.140468,91.5281486 L87.1615588,91.5757266 C87.2959735,93.4455713 87.3227305,94.4143528 87.243089,94.4811955 L87.1914637,94.5007521 C87.0768807,94.2392191 86.2304145,94.1712088 84.652065,94.2961375 L83.6157813,94.5214763 C82.915377,94.7859283 82.620735,95.2482814 82.7315405,95.9082437 L82.7730926,96.0033997 C83.0856775,96.1254096 84.6873213,95.9637028 87.5786535,95.5176955 C89.0619368,95.5392953 90.0210973,96.04514 90.456135,97.0349375 L90.56033,97.2725357 C91.2424766,98.8248045 91.1307267,100.067378 90.2260246,100.999966 C89.3675964,102.173946 88.2463199,103.021885 86.8628245,103.544659 L86.5552762,103.660539 C85.3937067,104.099249 84.1849189,104.112676 82.9285981,103.701112 C82.9978516,103.859608 82.9984811,103.951261 82.930172,103.977239 C81.6527604,103.721252 80.9148962,103.538238 80.717209,103.428195 C80.2809122,101.256829 80.084799,100.130719 80.1291841,100.048989 L80.9186736,99.8061373 L81.9949355,99.399827 L82.2376374,100.360727 C83.8773706,100.738725 85.1585597,100.753319 86.0808899,100.404803 C87.0224223,99.8277371 87.3538945,99.2223581 87.0756215,98.5886658 C86.7589443,97.8682823 84.9168021,97.9360007 81.5488802,98.7926966 C80.4131234,99.0186192 79.6960352,98.7909453 79.3966713,98.109675 L79.2506095,97.7769209 C78.7217648,96.5734601 79.0299428,95.053591 80.1748285,93.2173136 C80.8522533,92.3337639 81.5709154,91.7482333 82.3311296,91.461014" id="Fill-28-Copy"></path>
            </g>
        </g>
    </g>
</svg>