<svg width="252" height="140" viewBox="0 0 252 140" fill="none" xmlns="http://www.w3.org/2000/svg">
<g id="Frame" clip-path="url(#clip0_1491_382)">
<path id="Vector" d="M30.9115 122.754V123.189H24.5418V122.754C25.9251 122.642 26.5052 121.917 26.2486 120.467L22.6119 101.202L15.0709 123.189H14.0558L5.96813 101.012L2.98964 120.456C2.73307 122.018 3.16813 122.642 4.55139 122.743V123.178H0V122.743C1.3498 122.631 2.00797 122.018 2.21992 120.456L5.30996 100.432C5.53307 98.9371 5.27649 98.2789 3.89323 98.1785V97.71H7.09482L15.361 120.132L23.0359 97.71H25.9474V98.1785C24.5976 98.29 24.2741 99.0151 24.5641 100.432L28.6024 120.456C28.937 122.018 29.5171 122.642 30.9004 122.743" fill="white"/>
<path id="Vector_2" d="M47.7117 113.618H34.5372V114.454C34.5707 122.832 44.0751 124.427 47.1651 119.519L47.6002 119.809C46.1054 122.029 43.9189 123.59 40.8289 123.59C36.0209 123.59 32.0161 120.065 32.0161 114.454C32.0161 108.843 35.7309 105.608 40.5388 105.608C46.3619 105.608 47.7117 110.594 47.7117 113.361V113.618ZM34.6042 112.959H45.4583C45.3803 110.26 44.7332 106.11 40.5388 106.11C37.2257 106.11 34.9723 108.553 34.6042 112.959Z" fill="white"/>
<path id="Vector_3" d="M59.7033 122.029C59.1567 122.687 57.9631 123.557 56.5352 123.557C54.2818 123.557 52.2404 122.319 52.2404 118.492V106.623H49.3623V105.965C52.5304 105.965 53.7687 103.857 54.0253 101.19H54.65V105.965H58.7998V106.623H54.65V118.492C54.65 120.567 55.23 121.772 56.2898 122.285C57.2715 122.72 58.4763 122.542 59.4914 121.661L59.7033 122.029Z" fill="white"/>
<path id="Vector_4" d="M74.6295 109.579C73.7594 110.081 72.6662 109.546 72.6216 108.52C72.5435 107.281 72.0415 106.701 71.0263 106.623C68.8399 106.478 66.3299 109.245 66.3299 114.053V120.456C66.3299 121.906 66.6869 122.642 68.0702 122.743V123.178H62.2471V122.743C63.5969 122.631 63.9538 121.906 63.9538 120.456V109.501C63.9538 108.084 63.5857 107.315 62.2471 107.203V106.768L66.0287 105.608H66.3188V110.449C67.267 107.649 69.0072 105.675 71.6287 105.608C73.224 105.574 74.5403 106.3 75.0534 107.426C75.3769 108.151 75.31 109.178 74.6184 109.579" fill="white"/>
<path id="Vector_5" d="M94.2964 114.599C94.2964 120.166 90.3251 123.557 85.5283 123.557C80.7315 123.557 76.749 120.166 76.749 114.599C76.749 109.033 80.6869 105.608 85.5283 105.608C90.3697 105.608 94.2964 108.988 94.2964 114.599ZM91.7865 114.599C91.7865 109.356 89.1984 106.155 85.5283 106.155C81.8582 106.155 79.2701 109.356 79.2701 114.599C79.2701 119.842 81.8582 123.01 85.5283 123.01C89.1984 123.01 91.7865 119.809 91.7865 114.599Z" fill="white"/>
<path id="Vector_6" d="M114.332 114.566C114.332 120.032 110.873 123.557 106.255 123.557C103.667 123.557 101.492 122.207 100.254 119.809V126.636C100.254 128.053 100.611 128.789 101.994 128.923V129.358H96.1372V128.923C97.5205 128.778 97.8774 128.053 97.8774 126.636V109.501C97.8774 108.084 97.5093 107.315 96.1372 107.203V106.768L99.9189 105.608H100.254V109.356C101.492 106.947 103.667 105.608 106.255 105.608C110.873 105.608 114.332 109.144 114.332 114.566ZM111.822 114.566C111.822 109.546 109.78 106.155 106.255 106.155C102.73 106.155 100.254 109.323 100.254 114.566C100.254 119.809 102.764 123.01 106.255 123.01C109.747 123.01 111.822 119.63 111.822 114.566Z" fill="white"/>
<path id="Vector_7" d="M134.444 114.599C134.444 120.166 130.484 123.557 125.676 123.557C120.868 123.557 116.908 120.166 116.908 114.599C116.908 109.033 120.835 105.608 125.676 105.608C130.518 105.608 134.444 108.988 134.444 114.599ZM131.934 114.599C131.934 109.356 129.346 106.155 125.676 106.155C122.006 106.155 119.418 109.356 119.418 114.599C119.418 119.842 122.006 123.01 125.676 123.01C129.346 123.01 131.934 119.809 131.934 114.599Z" fill="white"/>
<path id="Vector_8" d="M142.465 123.2H136.642V122.765C137.992 122.653 138.349 121.895 138.349 120.478V100.454C138.349 99.0375 137.981 98.3012 136.642 98.1673V97.7323L140.424 96.5721H140.747V120.489C140.747 121.906 141.115 122.676 142.454 122.776V123.211L142.465 123.2Z" fill="white"/>
<path id="Vector_9" d="M160.348 113.618H147.173V114.454C147.207 122.832 156.711 124.427 159.812 119.519L160.247 119.809C158.752 122.029 156.566 123.59 153.476 123.59C148.668 123.59 144.663 120.065 144.663 114.454C144.663 108.843 148.378 105.608 153.186 105.608C159.009 105.608 160.359 110.594 160.359 113.361V113.618H160.348ZM147.24 112.959H158.094C158.016 110.26 157.369 106.11 153.175 106.11C149.861 106.11 147.608 108.553 147.24 112.959Z" fill="white"/>
<path id="Vector_10" d="M192.107 100.443V120.467C192.107 121.917 192.475 122.653 193.813 122.754V123.189H187.957V122.754C189.307 122.642 189.664 121.917 189.664 120.467V110.639H174.515V120.467C174.515 121.917 174.883 122.653 176.221 122.754V123.189H170.365V122.754C171.715 122.642 172.072 121.917 172.072 120.467V100.443C172.072 99.0263 171.703 98.2901 170.365 98.1897V97.7211H176.221V98.1897C174.872 98.3012 174.515 99.0263 174.515 100.443V109.947H189.664V100.443C189.664 99.0263 189.295 98.2901 187.957 98.1897V97.7211H193.813V98.1897C192.464 98.3012 192.107 99.0263 192.107 100.443Z" fill="white"/>
<path id="Vector_11" d="M213.927 114.599C213.927 120.166 209.956 123.557 205.159 123.557C200.362 123.557 196.379 120.166 196.379 114.599C196.379 109.033 200.317 105.608 205.159 105.608C210 105.608 213.927 108.988 213.927 114.599ZM211.417 114.599C211.417 109.356 208.829 106.155 205.159 106.155C201.489 106.155 198.901 109.356 198.901 114.599C198.901 119.842 201.489 123.01 205.159 123.01C208.829 123.01 211.417 119.809 211.417 114.599Z" fill="white"/>
<path id="Vector_12" d="M226.276 122.029C225.729 122.687 224.524 123.557 223.107 123.557C220.854 123.557 218.813 122.319 218.813 118.492V106.623H215.935V105.965C219.103 105.965 220.341 103.857 220.598 101.19H221.222V105.965H225.372V106.623H221.222V118.492C221.222 120.567 221.802 121.772 222.862 122.285C223.844 122.72 225.048 122.542 226.064 121.661L226.287 122.029H226.276Z" fill="white"/>
<path id="Vector_13" d="M243.432 113.618H230.258V114.454C230.291 122.832 239.796 124.427 242.886 119.519L243.321 119.809C241.826 122.029 239.64 123.59 236.55 123.59C231.742 123.59 227.737 120.065 227.737 114.454C227.737 108.843 231.452 105.608 236.26 105.608C242.083 105.608 243.432 110.594 243.432 113.361V113.618ZM230.325 112.959H241.179C241.101 110.26 240.454 106.11 236.26 106.11C232.946 106.11 230.693 108.553 230.325 112.959Z" fill="white"/>
<path id="Vector_14" d="M251.453 123.2H245.63V122.765C246.98 122.653 247.337 121.895 247.337 120.478V100.454C247.337 99.0375 246.969 98.3012 245.63 98.1673V97.7323L249.412 96.5721H249.747V120.489C249.747 121.906 250.115 122.676 251.453 122.776V123.211V123.2Z" fill="white"/>
<path id="Vector_15" d="M82.8062 132.838L79.7608 139.877H78.1544L75.1201 132.838H76.8827L79.0245 137.869L81.1886 132.838H82.8062Z" fill="white"/>
<path id="Vector_16" d="M91.8534 138.572V139.877H86.3984V132.838H91.7196V134.143H88.016V135.672H91.2845V136.943H88.016V138.572H91.8534Z" fill="white"/>
<path id="Vector_17" d="M102.607 132.838V139.877H101.28L97.7656 135.605V139.877H96.1592V132.838H97.509L101.001 137.111V132.838H102.607Z" fill="white"/>
<path id="Vector_18" d="M107.226 136.787V132.849H108.854V136.731C108.854 138.07 109.434 138.628 110.427 138.628C111.42 138.628 111.989 138.07 111.989 136.731V132.849H113.595V136.787C113.595 138.862 112.413 140 110.405 140C108.397 140 107.214 138.851 107.214 136.787" fill="white"/>
<path id="Vector_19" d="M123.668 138.572V139.877H118.225V132.838H123.535V134.143H119.842V135.672H123.1V136.943H119.842V138.572H123.668Z" fill="white"/>
<path id="Vector_20" d="M139.241 140L138.405 139.219C137.758 139.721 136.954 140 136.051 140C134.5 140 133.362 139.197 133.362 138.07C133.362 137.189 133.831 136.575 134.913 135.973C134.4 135.437 134.188 134.991 134.188 134.478C134.188 133.452 135.047 132.749 136.374 132.749C137.59 132.749 138.393 133.374 138.393 134.367C138.393 135.092 137.969 135.627 137.01 136.14L138.293 137.334C138.438 137.022 138.561 136.653 138.65 136.241L139.911 136.631C139.777 137.233 139.565 137.78 139.263 138.226L140.089 138.996L139.23 139.989L139.241 140ZM137.479 138.36L135.783 136.776C135.136 137.144 134.913 137.468 134.913 137.903C134.913 138.416 135.393 138.773 136.162 138.773C136.642 138.773 137.099 138.628 137.479 138.36ZM135.616 134.456C135.616 134.724 135.727 134.924 136.162 135.348C136.854 134.98 137.077 134.712 137.077 134.4C137.077 134.065 136.832 133.82 136.385 133.82C135.906 133.82 135.616 134.088 135.616 134.467" fill="white"/>
<path id="Vector_21" d="M149.471 139.186L150.028 137.959C150.62 138.394 151.512 138.695 152.349 138.695C153.319 138.695 153.71 138.371 153.71 137.936C153.71 136.62 149.616 137.523 149.616 134.913C149.616 133.72 150.586 132.727 152.583 132.727C153.464 132.727 154.379 132.939 155.026 133.351L154.524 134.59C153.866 134.222 153.197 134.032 152.572 134.032C151.601 134.032 151.233 134.389 151.233 134.835C151.233 136.129 155.327 135.237 155.327 137.825C155.327 138.996 154.346 140 152.338 140C151.222 140 150.095 139.665 149.471 139.186Z" fill="white"/>
<path id="Vector_22" d="M165.546 135.393C165.546 136.955 164.375 137.936 162.489 137.936H161.073V139.877H159.444V132.838H162.489C164.363 132.838 165.546 133.809 165.546 135.393ZM163.895 135.393C163.895 134.623 163.393 134.166 162.4 134.166H161.073V136.609H162.4C163.393 136.609 163.895 136.151 163.895 135.393Z" fill="white"/>
<path id="Vector_23" d="M174.002 138.371H170.733L170.108 139.877H168.435L171.57 132.838H173.176L176.322 139.877H174.615L173.99 138.371H174.002ZM173.488 137.133L172.373 134.433L171.257 137.133H173.488Z" fill="white"/>
<path id="Vector_24" d="M209.609 30.3649H166.527" stroke="white" stroke-linecap="round" stroke-linejoin="round"/>
<path id="Vector_25" d="M166.539 15.439V5.65578H84.9258V15.439" stroke="white" stroke-linecap="round" stroke-linejoin="round"/>
<path id="Vector_26" d="M84.9146 54.059V15.439H90.2022L103.99 0.55777L117.778 15.439H125.732H133.675L147.463 0.55777L161.251 15.439H166.527V54.059" fill="#313A3F"/>
<path id="Vector_27" d="M84.9146 54.059V15.439H90.2022L103.99 0.55777L117.778 15.439H125.732H133.675L147.463 0.55777L161.251 15.439H166.527V54.059" stroke="white" stroke-linecap="round" stroke-linejoin="round"/>
<path id="Vector_28" d="M125.721 54.059L131.712 60.7299V75.8343" stroke="white" stroke-linecap="round" stroke-linejoin="round"/>
<path id="Vector_29" d="M119.73 75.8343V60.7299L125.721 54.059" stroke="white" stroke-linecap="round" stroke-linejoin="round"/>
<path id="Vector_30" d="M125.721 54.059H209.61" stroke="white" stroke-linecap="round" stroke-linejoin="round"/>
<path id="Vector_31" d="M131.711 60.451H209.609" stroke="white" stroke-linecap="round" stroke-linejoin="round"/>
<path id="Vector_32" d="M84.9146 19.5777H51.5265L41.8325 30.3649V72.3873C41.8325 74.2837 43.372 75.8343 45.2795 75.8343H206.174C208.07 75.8343 209.621 74.2948 209.621 72.3873V30.3761L199.927 19.5888H166.538" stroke="white" stroke-linecap="round" stroke-linejoin="round"/>
<path id="Vector_33" d="M41.8438 30.3649H84.9258" stroke="white" stroke-linecap="round" stroke-linejoin="round"/>
<path id="Vector_34" d="M125.721 54.059H41.8438" stroke="white" stroke-linecap="round" stroke-linejoin="round"/>
<path id="Vector_35" d="M119.731 60.451H41.8438" stroke="white" stroke-linecap="round" stroke-linejoin="round"/>
<path id="Vector_36" d="M161.128 54.059L166.561 48.1801" stroke="white" stroke-miterlimit="10"/>
<path id="Vector_37" d="M156.477 54.0924L166.338 43.4167" stroke="white" stroke-miterlimit="10"/>
<path id="Vector_38" d="M151.958 53.9809L166.36 38.3968" stroke="white" stroke-miterlimit="10"/>
<path id="Vector_39" d="M147.207 54.137L166.416 33.3211" stroke="white" stroke-miterlimit="10"/>
<path id="Vector_40" d="M142.566 54.1594L166.26 28.502" stroke="white" stroke-miterlimit="10"/>
<path id="Vector_41" d="M138.037 54.0701L166.271 23.4932" stroke="white" stroke-miterlimit="10"/>
<path id="Vector_42" d="M133.34 54.1594L166.394 18.3506" stroke="white" stroke-miterlimit="10"/>
<path id="Vector_43" d="M128.856 54.0032L164.33 15.5952" stroke="white" stroke-miterlimit="10"/>
<path id="Vector_44" d="M124.059 54.204L160.437 14.8032" stroke="white" stroke-miterlimit="10"/>
<path id="Vector_45" d="M119.575 54.059L158.34 12.0701" stroke="white" stroke-miterlimit="10"/>
<path id="Vector_46" d="M114.934 54.0813L155.785 9.83904" stroke="white" stroke-miterlimit="10"/>
<path id="Vector_47" d="M110.472 53.9251L153.386 7.44064" stroke="white" stroke-miterlimit="10"/>
<path id="Vector_48" d="M105.764 54.0143L151.211 4.79681" stroke="white" stroke-miterlimit="10"/>
<path id="Vector_49" d="M101.012 54.1705L149.047 2.13068" stroke="white" stroke-miterlimit="10"/>
<path id="Vector_50" d="M96.4272 54.1259L132.024 15.5729" stroke="white" stroke-miterlimit="10"/>
<path id="Vector_51" d="M91.8423 54.0924L127.372 15.6064" stroke="white" stroke-miterlimit="10"/>
<path id="Vector_52" d="M87.3579 53.9474L122.564 15.8183" stroke="white" stroke-miterlimit="10"/>
<path id="Vector_53" d="M84.7363 51.7833L118.057 15.7068" stroke="white" stroke-miterlimit="10"/>
<path id="Vector_54" d="M84.7139 46.8191L115.514 13.4534" stroke="white" stroke-miterlimit="10"/>
<path id="Vector_55" d="M84.8926 41.6096L113.35 10.7984" stroke="white" stroke-miterlimit="10"/>
<path id="Vector_56" d="M84.8701 36.6454L110.862 8.48924" stroke="white" stroke-miterlimit="10"/>
<path id="Vector_57" d="M84.8032 31.7036L108.81 5.71156" stroke="white" stroke-miterlimit="10"/>
<path id="Vector_58" d="M84.6694 26.851L106.422 3.30199" stroke="white" stroke-miterlimit="10"/>
<path id="Vector_59" d="M84.6245 21.9092L90.4142 15.6287" stroke="white" stroke-miterlimit="10"/>
<path id="Vector_60" d="M209.677 66.051L203.764 60.1386" stroke="white" stroke-miterlimit="10"/>
<path id="Vector_61" d="M209.598 70.9817L198.967 60.3506" stroke="white" stroke-miterlimit="10"/>
<path id="Vector_62" d="M208.427 74.8191L193.981 60.3729" stroke="white" stroke-miterlimit="10"/>
<path id="Vector_63" d="M204.144 75.5442L188.995 60.3841" stroke="white" stroke-miterlimit="10"/>
<path id="Vector_64" d="M199.28 75.6892L183.941 60.3506" stroke="white" stroke-miterlimit="10"/>
<path id="Vector_65" d="M194.171 75.5777L178.955 60.3729" stroke="white" stroke-miterlimit="10"/>
<path id="Vector_66" d="M189.251 75.6669L173.711 60.1386" stroke="white" stroke-miterlimit="10"/>
<path id="Vector_67" d="M184.32 75.745L168.859 60.2837" stroke="white" stroke-miterlimit="10"/>
<path id="Vector_68" d="M179.144 75.5777L163.939 60.3618" stroke="white" stroke-miterlimit="10"/>
<path id="Vector_69" d="M174.292 75.7339L159.009 60.451" stroke="white" stroke-miterlimit="10"/>
<path id="Vector_70" d="M169.238 75.6892L153.766 60.2167" stroke="white" stroke-miterlimit="10"/>
<path id="Vector_71" d="M164.062 75.5219L148.913 60.3618" stroke="white" stroke-miterlimit="10"/>
<path id="Vector_72" d="M159.332 75.7896L143.86 60.3283" stroke="white" stroke-miterlimit="10"/>
<path id="Vector_73" d="M154.212 75.6892L138.817 60.2837" stroke="white" stroke-miterlimit="10"/>
<path id="Vector_74" d="M149.103 75.5777L133.831 60.306" stroke="white" stroke-miterlimit="10"/>
<path id="Vector_75" d="M144.049 75.5331L131.645 63.1283" stroke="white" stroke-miterlimit="10"/>
<path id="Vector_76" d="M139.063 75.5554L131.555 68.0478" stroke="white" stroke-miterlimit="10"/>
<path id="Vector_77" d="M134.333 75.8343L131.533 73.0343" stroke="white" stroke-miterlimit="10"/>
<path id="Vector_78" d="M119.864 66.1179L113.93 60.1833" stroke="white" stroke-miterlimit="10"/>
<path id="Vector_79" d="M119.709 70.9705L108.988 60.239" stroke="white" stroke-miterlimit="10"/>
<path id="Vector_80" d="M119.653 75.9124L104.113 60.3729" stroke="white" stroke-miterlimit="10"/>
<path id="Vector_81" d="M114.499 75.7673L99.0264 60.2948" stroke="white" stroke-miterlimit="10"/>
<path id="Vector_82" d="M109.457 75.7339L94.0957 60.3729" stroke="white" stroke-miterlimit="10"/>
<path id="Vector_83" d="M104.158 75.4438L89.0869 60.3729" stroke="white" stroke-miterlimit="10"/>
<path id="Vector_84" d="M99.361 75.6558L84 60.2948" stroke="white" stroke-miterlimit="10"/>
<path id="Vector_85" d="M94.0621 75.3657L79.2031 60.5068" stroke="white" stroke-miterlimit="10"/>
<path id="Vector_86" d="M89.444 75.7562L73.938 60.2502" stroke="white" stroke-miterlimit="10"/>
<path id="Vector_87" d="M84.5689 75.8789L68.9849 60.2948" stroke="white" stroke-miterlimit="10"/>
<path id="Vector_88" d="M79.1806 75.5108L63.9424 60.2725" stroke="white" stroke-miterlimit="10"/>
<path id="Vector_89" d="M74.5626 75.89L58.8335 60.161" stroke="white" stroke-miterlimit="10"/>
<path id="Vector_90" d="M69.1744 75.5108L54.0254 60.3618" stroke="white" stroke-miterlimit="10"/>
<path id="Vector_91" d="M64.5564 75.9012L48.9946 60.3394" stroke="white" stroke-miterlimit="10"/>
<path id="Vector_92" d="M59.2573 75.6112L43.9521 60.306" stroke="white" stroke-miterlimit="10"/>
<path id="Vector_93" d="M54.3823 75.745L41.8325 63.1952" stroke="white" stroke-miterlimit="10"/>
<path id="Vector_94" d="M49.2511 75.6223L41.9443 68.3044" stroke="white" stroke-miterlimit="10"/>
</g>
<defs>
<clipPath id="clip0_1491_382">
<rect width="251.453" height="140" fill="white"/>
</clipPath>
</defs>
</svg>
