<?xml version="1.0" encoding="UTF-8"?>
<svg width="87px" height="87px" viewBox="0 0 87 87" version="1.1" xmlns="http://www.w3.org/2000/svg" xmlns:xlink="http://www.w3.org/1999/xlink">
    <title>Fill 1</title>
    <g id="Design" stroke="none" stroke-width="1" fill="none" fill-rule="evenodd">
        <g id="Homepage-1" transform="translate(-40.000000, -43.000000)" fill="#f5d742">
            <path d="M114.5394,92.1019 C113.3514,94.7669 111.5054,96.8039 109.0854,98.2859 C107.4954,99.2579 105.7924,99.9059 103.9774,100.2399 C102.8514,100.4479 101.7154,100.5299 100.5724,100.5329 C98.7084,100.5369 96.8444,100.5369 94.9794,100.5379 C94.9144,100.5379 94.8504,100.5279 94.7804,100.5219 L94.7804,90.1609 L94.9884,90.1609 C96.6914,90.1599 98.3944,90.1619 100.0984,90.1579 C100.7704,90.1569 101.4314,90.0589 102.0564,89.7889 C103.6544,89.0979 104.5874,87.8529 104.8474,86.0679 C104.9764,85.1759 104.8944,84.2979 104.5254,83.4769 C103.8764,82.0339 102.7944,81.1339 101.3034,80.7779 C100.8904,80.6799 100.4674,80.6479 100.0444,80.6479 C98.0284,80.6459 96.0144,80.6459 93.9994,80.6449 L93.8064,80.6449 C93.8034,80.7269 93.7974,80.7889 93.7974,80.8509 C93.8024,82.7459 93.8064,84.6399 93.8114,86.5349 C93.8154,87.6729 93.7994,88.8139 93.8344,89.9519 C93.8764,91.2929 93.8914,92.6349 93.8824,93.9779 C93.8714,95.7449 93.8694,97.5119 93.8534,99.2779 C93.8484,99.9169 93.8004,100.5559 93.7934,101.1949 C93.7834,102.1189 93.7934,103.0419 93.7954,103.9659 C93.7964,104.1229 93.8014,104.2809 93.8014,104.4379 C93.8014,104.6599 93.7714,104.6919 93.5614,104.6919 C93.0554,104.6939 92.5484,104.69315 92.0424,104.69315 C89.9994,104.6919 87.9564,104.6919 85.9144,104.6869 C85.6654,104.6859 85.4134,104.6699 85.1664,104.6339 C84.0314,104.4669 83.3214,103.7879 83.0014,102.6489 C82.9024,102.2939 82.8554,101.9339 82.8554,101.5649 C82.8554,101.3319 82.8514,101.0999 82.8514,100.8679 C82.8514,91.6849 82.8514,82.5019 82.8524,73.3199 C82.8524,72.9069 82.8734,72.4969 82.9964,72.0969 C83.2844,71.1609 83.8924,70.5999 84.8064,70.3869 C85.1904,70.2979 85.5814,70.3089 85.9704,70.3089 C91.2124,70.3069 96.4554,70.3059 101.6974,70.3109 C102.0414,70.3109 102.3864,70.3579 102.7284,70.3949 C103.6704,70.4989 104.5994,70.6749 105.5104,70.9459 C107.3094,71.4799 108.9764,72.2949 110.4744,73.4739 C112.1354,74.7809 113.4044,76.4269 114.3534,78.3529 C115.0334,79.7299 115.5224,81.1759 115.7844,82.7029 C115.9854,83.8799 116.0454,85.0669 115.9664,86.2619 C115.8324,88.2989 115.3654,90.2499 114.5394,92.1019 L114.5394,92.1019 Z M82.2374,100.8599 C82.1964,100.8639 82.1544,100.8699 82.1114,100.8719 C82.0724,100.8729 82.0344,100.8719 81.9954,100.8719 C74.2584,100.8719 66.5214,100.8729 58.7854,100.8709 C58.3974,100.8709 58.0064,100.8759 57.6214,100.8369 C56.2154,100.6929 55.1974,99.9539 54.5794,98.6289 C54.2694,97.9679 54.1014,97.2639 54.0414,96.5339 C54.0114,96.1609 54.0024,95.7849 54.0024,95.4099 C54.0004,87.9499 54.0004,80.4899 54.0004,73.0299 C54.0004,72.8509 53.9974,72.6719 54.0024,72.4929 C54.0254,71.6249 54.4184,71.0039 55.1674,70.6289 C55.5734,70.4259 56.0114,70.3499 56.4564,70.3209 C56.6554,70.3089 56.8554,70.3079 57.0554,70.3079 C59.6364,70.3069 62.2174,70.3069 64.7974,70.3069 L65.0164,70.3069 C65.0224,70.3589 65.0304,70.3919 65.0314,70.4249 C65.0354,70.5399 65.0374,70.6559 65.0374,70.7709 C65.0384,76.4579 65.0384,82.1459 65.0384,87.8329 C65.0384,88.2079 65.0324,88.5849 65.1294,88.9519 C65.1824,89.1509 65.2414,89.3519 65.3274,89.5379 C65.6514,90.2399 66.2094,90.5779 66.9444,90.6199 C67.0664,90.6259 67.1884,90.6229 67.3104,90.6229 L82.0134,90.6229 L82.2374,90.6229 L82.2374,100.8599 Z M83.4994,42.9999 C59.4754,42.9999 39.9994,62.4759 39.9994,86.4999 C39.9994,110.5249 59.4754,129.9999 83.4994,129.9999 C107.5244,129.9999 127.0004,110.5249 127.0004,86.4999 C127.0004,62.4759 107.5244,42.9999 83.4994,42.9999 L83.4994,42.9999 Z" id="Fill-1"></path>
        </g>
    </g>
</svg>