<svg xmlns="http://www.w3.org/2000/svg" data-name="Layer 1" viewBox="0 0 431.07 116.23"><path fill="#ffffff" d="M16.88 94.07a9.55 9.55 0 0 0 8.15-3.88q2.88-3.88 2.88-12V18.58q0-8.63-1.92-11t-9.11-2.4v-2.4h31.21v2.4q-7.19 0-9.11 2.35t-1.92 11.08v58.32q0 11.13-6.62 16.4-5.18 4.12-13.43 4.13a22.9 22.9 0 0 1-11-2.69Q.06 91.61.06 86.62a3.79 3.79 0 0 1 1.15-2.78 3.91 3.91 0 0 1 2.88-1.15 3.93 3.93 0 0 1 3.93 3.93 7.1 7.1 0 0 0 2.4 5.13 8.92 8.92 0 0 0 6.46 2.32zM125.33 37.79a24.9 24.9 0 0 1 12.09 7.88 20 20 0 0 1-2.59 28q-7.67 6.37-20.73 6.37H75.55v-2.7q8.1 0 10.26-2.65t2.16-12.47V20.09q0-9.72-2.16-12.42T75.55 4.95v-2.7h34.88q12 0 18.68 5.61a17.11 17.11 0 0 1 6.37 13.82 16.52 16.52 0 0 1-2.75 9.12 21.48 21.48 0 0 1-7.4 6.99zM98.23 7.02v29.26h11.55q7 0 10.64-4a17.2 17.2 0 0 0 .16-20.89q-3.78-4.32-10.8-4.32H98.23zm15.76 68.24q8 0 12.25-4.8a17.77 17.77 0 0 0 4.26-12.25q0-7.45-4-12.09-4.43-5.07-12.52-5.07H98.23v19.11q0 9.72 2.16 12.42t10.26 2.7H114z"/><path fill="#ffffff" d="M178.19 45.95l12.57 14.84a62.94 62.94 0 0 0 12.22 11.48 27.51 27.51 0 0 0 12 5v2.7h-21.37l-25.7-34h-6.15v16.2q0 9.72 2.16 12.42t10.26 2.7v2.7h-35.09v-2.7q8.1 0 10.26-2.65t2.16-12.47V20.09q0-9.72-2.16-12.42t-10.26-2.72v-2.7h34.23q13.17 0 20.73 6.38a19.32 19.32 0 0 1 7.13 15.58 19.77 19.77 0 0 1-6.15 14.61q-6.16 6.13-16.84 7.13zm-5-4.74q8 0 12.25-4.8a17.77 17.77 0 0 0 4.26-12.25q0-7.45-4-12.09Q181.27 7 173.18 7h-11.42v34.25h11.45z"/><path fill="#ffffff" d="M221.99 53.13l-6.2 14.36a13.24 13.24 0 0 0-1.18 4.64q0 5.19 11.34 5.18v2.7H195.7v-2.7q9 0 11.66-3.67a48.15 48.15 0 0 0 3.78-7.67l28.51-66h1.73l28.61 66q3.24 7.45 5.18 9.07 2.7 2.27 10.26 2.27v2.7h-36v-2.7q11.44 0 11.45-5.07a11.56 11.56 0 0 0-1.33-4.74l-6.23-14.38h-31.33zm29.31-4.75l-13.71-31.34-13.54 31.34h27.24z"/><path fill="#ffffff" d="M339.46 63.81V20.06q0-9.7-2.16-12.39t-10.26-2.72v-2.7h29.58v2.7q-8.1 0-10.26 2.64t-2.16 12.45v62h-3l-52.69-65v45.13q0 9.72 2.16 12.42t10.26 2.7v2.7h-29.6v-2.7q8.1 0 10.26-2.65t2.16-12.47V20.09q0-9.72-2.16-12.42t-10.26-2.72v-2.7h18.37z"/><path fill="#ffffff" d="M351.27 80.01v-2.7q8.1 0 10.26-2.65t2.16-12.47v-42.1q0-9.72-2.16-12.42t-10.26-2.72v-2.7h35.2q21.48 0 32.82 11.34 10.37 10.37 10.37 27.53T419.4 68.55q-11.31 11.46-32.93 11.46h-35.2zm22.67-73v53.12q0 9.83 2.11 12.47t10 2.65h.54q17.17 0 24.83-11.34 5.83-8.53 5.83-22.78 0-14-5.83-22.67-7.77-11.44-24.83-11.45h-12.65zM49.27 86.86c-1.18.62-2.4 1.68-2.4 2.93a1.33 1.33 0 0 0 1.15 1.34.44.44 0 0 1 .31.34 1.68 1.68 0 0 1-1.56 1.31 2.06 2.06 0 0 1-2-2.27c0-2.52 3-4.42 4.55-4.42.19 0 .5 0 .5.22a.82.82 0 0 1-.55.55zm4.8 0a3.57 3.57 0 0 0-2.4 3 1.25 1.25 0 0 0 1.12 1.31.47.47 0 0 1 .31.41 1.59 1.59 0 0 1-1.53 1.28 2.11 2.11 0 0 1-2-2.3c0-2.52 3-4.39 4.58-4.42.19 0 .53.06.53.25s-.11.19-.59.44zM57.4 87.74c.47 0 2.21.16 3.33.16.44 0 1.18-.06 1.34-.06s.37.09.47.81c.16 1.49 1 7.07 1.4 9.44.59 3.21.65 4 .87 4.42.09.19.25.19.37 0 1.15-1.59 6.7-9 8-10.43a19.42 19.42 0 0 0 2.8-3.83.71.71 0 0 1 .47-.31c1.46 0 3.18-.16 4.2-.16.62 0 .84.16.84.31 0 .31-.44.4-1.25.5-1.74.16-2.12 1.09-2.55 2.24a121.93 121.93 0 0 0-3.71 13.67c-.37 1.87-.09 2.62 1.59 2.8.84.13.93.25.93.47a.83.83 0 0 1-.9.37c-.69 0-3.08-.19-4.42-.19-1.12 0-1.71.19-2.68.19-.69 0-.84-.22-.84-.34s.19-.37.87-.5a2.68 2.68 0 0 0 2.4-2.27c.87-2.58 3-9.84 4-13.2.16-.47-.19-.34-.31-.19a117.11 117.11 0 0 0-8.1 10.62c-1 1.59-2.06 3.08-2.77 4.42a1.62 1.62 0 0 1-1 1c-.28 0-.37-.5-.37-1.06-.06-1-.28-3.24-.59-5.45-.53-3.71-1-7.88-1.25-8.5-.12-.31-.25-.37-.4-.12-.28.41-3.58 8.88-4 10.46-.78 2.74-.9 4 1.31 4.24.53 0 .78.22.78.44s-.37.37-.93.37-1.68-.09-3-.09-2.58.19-3.55.19a.78.78 0 0 1-.84-.37c0-.22.25-.34.9-.44 2.12-.25 2.62-.78 3.67-3.52 1.25-3.05 4.45-11 5-12.27.72-1.84.28-2.46-.75-2.71a7.74 7.74 0 0 0-1.56-.28c-.47-.06-.84-.16-.84-.4s.51-.43 1.07-.43z"/><path fill="#ffffff" d="M83.76 97.55a33.71 33.71 0 0 1 .31 8.6c0 .13.34 0 .53-.34a22.78 22.78 0 0 0 2.93-10.15.73.73 0 0 1 .5-.5 1.67 1.67 0 0 1 1.12 1.25c0 2.62-2.58 7.85-3.58 9.53-1.34 2.21-2.71 4.45-3.36 5.26a26.6 26.6 0 0 1-3.33 3.58 5.65 5.65 0 0 1-3.33 1.43 1.45 1.45 0 0 1-1.59-1.28 1.68 1.68 0 0 1 1.28-1.56.5.5 0 0 1 .37.12c.47.34.78 1 1.43 1 .93 0 1.74-.53 3-2 1.37-1.62 2.27-5.08 2.27-8.81a27.46 27.46 0 0 0-.47-5.67c-.16-.47-.22-1-.65-1s-1.18 1-1.84 2.3a1.29 1.29 0 0 1-.56.75c-.19 0-.25-.22-.28-.53-.09-1.53 1.62-4.17 3.55-4.17.95-.03 1.57 1.47 1.7 2.19zM102.76 90.95a13.06 13.06 0 0 1 9-3.64 10.42 10.42 0 0 1 4.3.84 1.12 1.12 0 0 0 1.28 0 .77.77 0 0 1 .69-.22 1 1 0 0 1 .13.75 11.84 11.84 0 0 0-1.84 4.24.22.22 0 0 1-.25.22.84.84 0 0 1-.47-.81 3.11 3.11 0 0 0-.59-2.93 4.52 4.52 0 0 0-3-1.28 10.31 10.31 0 0 0-6.95 3.27 14.38 14.38 0 0 0-3.64 9.44 7.12 7.12 0 0 0 1.25 4.42 5.59 5.59 0 0 0 4.27 2.27 8.29 8.29 0 0 0 4-1.37 23.83 23.83 0 0 0 2.86-2.8.38.38 0 0 1 .28-.19 1.11 1.11 0 0 1 .06 1 21.28 21.28 0 0 1-2.43 4 .69.69 0 0 1-.56.19 1.77 1.77 0 0 0-1.59-.47 19.49 19.49 0 0 1-3.74.59 7.45 7.45 0 0 1-6.54-4 8.94 8.94 0 0 1-.75-4 13.32 13.32 0 0 1 4.23-9.52zM122.63 95.83a1.38 1.38 0 0 1-.09.59c-.62 1.18-3.18 7.72-3.43 8.69s-.09 1.21.31 1.21c1.25 0 4.33-3.39 5.92-6 1.09-1.74 1.87-3.21 2.37-4.11a1.52 1.52 0 0 1 .9-.84 1.12 1.12 0 0 1 .9.75 4 4 0 0 1-.41 1.28c-.69 1.68-2.34 5.67-3.08 8-.16.44 0 .62.25.62a6.67 6.67 0 0 0 3.08-2.18c.25-.25.59-.31.59-.09a1.67 1.67 0 0 1-.25.68c-.87 1.71-4 4-5.26 4a1.07 1.07 0 0 1-.81-.84 2.1 2.1 0 0 1 .12-.53c.16-.47 1.4-3.61 1.59-4.2s0-.59-.4-.16a29.54 29.54 0 0 1-5.76 5.08 3.9 3.9 0 0 1-1.77.65 1.13 1.13 0 0 1-.84-.37 1.29 1.29 0 0 1-.12-1.34c.37-1 2.74-6.91 3.49-8.56.16-.31.06-.44-.09-.44a11.62 11.62 0 0 0-2.06 1.25c-.31.22-.65.22-.69 0a.88.88 0 0 1 .22-.5c.4-.78 3.33-3.15 4.8-3.15a.82.82 0 0 1 .52.51zM139.09 95.9a1 1 0 0 1 .31.69 2.49 2.49 0 0 1-.81 1.25.54.54 0 0 1-.47-.09c-.75-.44-1.15-1-2-1a1.51 1.51 0 0 0-1.25 1.46 6.14 6.14 0 0 0 1.46 3 6.3 6.3 0 0 1 1.25 2.74 4.06 4.06 0 0 1-1.71 2.9 6.47 6.47 0 0 1-3.61 1.53c-.69 0-2-.65-2-1.65a3 3 0 0 1 .59-1.25.42.42 0 0 1 .47 0 4.34 4.34 0 0 0 2.74 1.4 1.65 1.65 0 0 0 1.65-1.68c0-.65-.5-1.46-1.37-2.77a5.59 5.59 0 0 1-1.18-2.83 4.15 4.15 0 0 1 1.71-3 4.56 4.56 0 0 1 2.71-1.21 2.11 2.11 0 0 1 1.51.51zM147.42 92.87c-.09.37-.65 2.21-.75 2.55a.22.22 0 0 0 .16.28c.65 0 2.09.06 2.9.09a.24.24 0 0 1 .12.25.81.81 0 0 1-.62.68c-.47 0-2.3.13-2.9.13a.36.36 0 0 0-.28.25c-.44 1-2.09 5.29-3 7.85-.19.53-.16.87.16.87a7.83 7.83 0 0 0 3.11-2c.28-.25.69-.47.69-.09a1.31 1.31 0 0 1-.28.75c-1.25 1.74-4.36 3.86-5.82 3.86a1.06 1.06 0 0 1-.81-.72 2.53 2.53 0 0 1 .16-.78c.12-.31 2.27-6.17 3.61-9.62.09-.22 0-.37-.06-.37l-1.65-.09a.48.48 0 0 1-.5-.28 1 1 0 0 1 .62-.65c.62-.06 1.68-.09 1.9-.09a.49.49 0 0 0 .34-.31c.47-.9.93-1.78 1.28-2.34a1.56 1.56 0 0 1 1.46-.9c.29 0 .32.16.16.68zM159.95 98.82a10.54 10.54 0 0 1-5.42 8.94 5.78 5.78 0 0 1-2.58.65 3.1 3.1 0 0 1-2.71-3.33 12.56 12.56 0 0 1 3.92-8.1 6 6 0 0 1 3.86-1.65c1.9 0 2.93 2 2.93 3.49zm-5.42-1.28a15.33 15.33 0 0 0-3.11 8.63 1.21 1.21 0 0 0 1.18 1.37 2.91 2.91 0 0 0 2.06-1.4c1.34-1.62 3.27-5.7 3.27-8.5 0-.87-.31-1.5-1.15-1.5a3.1 3.1 0 0 0-2.25 1.41zM167.7 95.62a.78.78 0 0 1 .19.75c-.09.28-1.09 2.83-1.62 3.83-.22.37.22.47.56 0a28 28 0 0 1 4-4 4.81 4.81 0 0 1 2.49-.87 1.72 1.72 0 0 1 1.71 1.5 10.83 10.83 0 0 1-1.12 3.3c-.09.22.09.31.25.16a27.77 27.77 0 0 1 4-4.08 5.12 5.12 0 0 1 2.43-.87 1.75 1.75 0 0 1 1.74 1.81 5 5 0 0 1-.44 1.81c-.5.9-2.46 4.92-3.08 6.35-.25.28-.06.47.06.44a11.64 11.64 0 0 0 3.43-2.18c.34-.28.62-.28.62-.09a2.14 2.14 0 0 1-.4 1c-1.15 1.53-4.67 4-6.07 4a1 1 0 0 1-.72-.44.41.41 0 0 1-.06-.5c.19-.44 3.89-7.94 4.24-8.91.53-1.12.47-2.15-.31-2.15-1 0-3.08 2.21-4.67 4.42s-3.11 5-4.11 6.51a1.92 1.92 0 0 1-1.4 1.06.57.57 0 0 1-.53-.62 3.1 3.1 0 0 1 .22-.9c.9-2.34 4-9 4.08-9.53a.77.77 0 0 0-.69-1c-1.12 0-3.52 2.4-6.17 6.45-.84 1.28-2.43 3.86-3 4.67a1.78 1.78 0 0 1-1 1 1 1 0 0 1-.87-.75 3.77 3.77 0 0 1 .37-1.37c.81-1.65 2.65-5.7 4-8.6.19-.44.16-.72-.34-.72-.72 0-1.43.41-2.52 1.56a1.26 1.26 0 0 1-.59.44c-.09 0-.25-.25-.12-.72a4 4 0 0 1 4.17-2.93 2.68 2.68 0 0 1 1.27.17zM194.65 97.24a4.16 4.16 0 0 1-2.4 3.05 26.32 26.32 0 0 1-4.55 1.68.75.75 0 0 0-.5.47 7.75 7.75 0 0 0-.4 2.43c0 1.56.81 1.87 1.65 1.87a5 5 0 0 0 3.05-1.46 1.25 1.25 0 0 1 .78-.47.23.23 0 0 1 .19.19 1.77 1.77 0 0 1-.37.78 7.57 7.57 0 0 1-5.14 2.58 3.22 3.22 0 0 1-2.4-3.24 12 12 0 0 1 3.43-7.44 6.83 6.83 0 0 1 4.39-2.34c1.83-.01 2.27 1.18 2.27 1.9zm-6.89 3.71c0 .06 0 .31.09.28 2-.69 4.92-2 4.92-4.33a.63.63 0 0 0-.53-.78c-1.58-.04-3.95 3.11-4.48 4.83zM200.69 96.74a16.2 16.2 0 0 1-1 4c-.19.56.16.47.56-.22a21.74 21.74 0 0 1 2.46-3.39 4.12 4.12 0 0 1 2.71-1.78 1.16 1.16 0 0 1 1.18 1.28 2.7 2.7 0 0 1-1.51 2.32c-.22 0-.37-.16-.37-.69a1.14 1.14 0 0 0-.59-1.15c-.37 0-.93.34-2.06 2.12s-3.86 7.1-4.36 8.1a1.58 1.58 0 0 1-1.31 1.12.9.9 0 0 1-.72-.44.8.8 0 0 1 0-.47c1.31-3.33 2.18-5.51 3.18-8.63.34-1.18 0-1.46-.31-1.46a2.71 2.71 0 0 0-1.74 1.21 1.45 1.45 0 0 1-.69.62.79.79 0 0 1-.12-.9c.65-1.81 2.06-3.05 3.36-3.05a1.33 1.33 0 0 1 1.33 1.41zM208.69 106.42c0 2.93-3.58 4.67-5 5.14-.37.13-.78 0-.78-.19a1.2 1.2 0 0 1 .72-.62c1.74-1 2.93-2.34 2.93-3.71a1.3 1.3 0 0 0-1.25-1.12.7.7 0 0 1-.44-.53 1.75 1.75 0 0 1 1.9-1.43c1.39-.01 1.92 1.43 1.92 2.46zM223.71 87.74c.47 0 2.21.16 3.33.16.44 0 1.18-.06 1.34-.06s.37.09.47.81c.16 1.49 1 7.07 1.4 9.44.59 3.21.65 4 .87 4.42.09.19.25.19.37 0 1.15-1.59 6.7-9 8-10.43a19.45 19.45 0 0 0 2.8-3.83.71.71 0 0 1 .47-.31c1.46 0 3.18-.16 4.2-.16.62 0 .84.16.84.31 0 .31-.44.4-1.25.5-1.74.16-2.12 1.09-2.55 2.24a121.93 121.93 0 0 0-3.71 13.67c-.37 1.87-.09 2.62 1.59 2.8.84.13.93.25.93.47a.83.83 0 0 1-.9.37c-.68 0-3.08-.19-4.42-.19-1.12 0-1.71.19-2.68.19-.69 0-.84-.22-.84-.34s.19-.37.87-.5a2.68 2.68 0 0 0 2.4-2.27c.87-2.58 3-9.84 4-13.2.16-.47-.19-.34-.31-.19a117.11 117.11 0 0 0-8.1 10.62c-1 1.59-2.06 3.08-2.77 4.42a1.62 1.62 0 0 1-1 1c-.28 0-.37-.5-.37-1.06-.06-1-.28-3.24-.59-5.45-.53-3.71-1-7.88-1.25-8.5-.12-.31-.25-.37-.4-.12-.28.41-3.58 8.88-4 10.46-.78 2.74-.9 4 1.31 4.24.53 0 .78.22.78.44s-.37.37-.93.37-1.68-.09-3-.09-2.58.19-3.55.19a.78.78 0 0 1-.84-.37c0-.22.25-.34.9-.44 2.12-.25 2.62-.78 3.67-3.52 1.25-3.05 4.45-11 5-12.27.72-1.84.28-2.46-.75-2.71a7.74 7.74 0 0 0-1.56-.28c-.47-.06-.84-.16-.84-.4s.51-.43 1.07-.43z"/><path fill="#ffffff" d="M250.09 97.55a33.73 33.73 0 0 1 .31 8.6c0 .13.34 0 .53-.34a22.79 22.79 0 0 0 2.93-10.15.73.73 0 0 1 .5-.5 1.67 1.67 0 0 1 1.12 1.25c0 2.62-2.58 7.85-3.58 9.53-1.34 2.21-2.71 4.45-3.36 5.26a26.63 26.63 0 0 1-3.33 3.58 5.65 5.65 0 0 1-3.33 1.43 1.45 1.45 0 0 1-1.59-1.28 1.68 1.68 0 0 1 1.28-1.56.5.5 0 0 1 .37.12c.47.34.78 1 1.43 1 .93 0 1.74-.53 3-2 1.37-1.62 2.27-5.08 2.27-8.81a27.36 27.36 0 0 0-.47-5.67c-.16-.47-.22-1-.65-1s-1.18 1-1.84 2.3a1.29 1.29 0 0 1-.56.75c-.19 0-.25-.22-.28-.53-.09-1.53 1.62-4.17 3.55-4.17.92-.03 1.54 1.47 1.7 2.19zM277.59 96.39a16.83 16.83 0 0 1-2.65 1.12.45.45 0 0 0-.12.47 35.19 35.19 0 0 0 2 6.6c.81 1.84 1.46 2.58 3.27 2.8.5.06.75.19.75.4a.86.86 0 0 1-.84.37 16.11 16.11 0 0 1-3-.09c-1.43-.12-1.93-.44-2.74-2.9-.69-2-1.21-4.36-1.62-5.64-.16-.5-.62-1.43-1.25-1.43h-1.28s-.4.19-.75 1.09c-.19.56-1.12 3.8-1.4 5.17-.47 2.15-.16 2.55 1.71 2.87a.79.79 0 0 1 .75.41.89.89 0 0 1-.93.37c-1.37 0-2.77-.12-3.74-.12s-2.3.13-3.27.13c-.5 0-.87-.09-.87-.34a.9.9 0 0 1 .9-.47c1.84-.25 2.12-.93 2.37-1.53.81-1.87 4.14-13.14 4.67-14.92.47-1.62.37-2.15-1.87-2.15a.77.77 0 0 1-.84-.37c0-.25.28-.37.78-.37s2.3-.06 3.3-.09c.84 0 2.24-.16 3.24-.16 2.06 0 3.64.28 4.67 1.09a3.51 3.51 0 0 1 1.5 3.05 5.63 5.63 0 0 1-2.74 4.64zm-4.24-7.91a1.24 1.24 0 0 0-.75.69 75.85 75.85 0 0 0-2.51 7.88c-.06.19 0 .37.13.37a15.21 15.21 0 0 0 3.24-.34c2.09-.65 4.2-2.58 4.2-5.11.03-1.52-1.03-3.49-4.3-3.49zM292.26 97.24a4.15 4.15 0 0 1-2.4 3.05 26.29 26.29 0 0 1-4.55 1.68.75.75 0 0 0-.5.47 7.76 7.76 0 0 0-.41 2.43c0 1.56.81 1.87 1.65 1.87a5 5 0 0 0 3.05-1.46 1.25 1.25 0 0 1 .78-.47.23.23 0 0 1 .19.19 1.76 1.76 0 0 1-.37.78 7.56 7.56 0 0 1-5.14 2.58 3.22 3.22 0 0 1-2.4-3.24 12 12 0 0 1 3.43-7.44 6.83 6.83 0 0 1 4.39-2.34c1.85-.01 2.28 1.18 2.28 1.9zm-6.88 3.71c0 .06 0 .31.09.28 2-.69 4.92-2 4.92-4.33a.63.63 0 0 0-.53-.78c-1.58-.04-3.95 3.11-4.48 4.83zM300.27 95.9a1 1 0 0 1 .31.69 2.49 2.49 0 0 1-.81 1.25.54.54 0 0 1-.47-.09c-.75-.44-1.15-1-2-1a1.51 1.51 0 0 0-1.25 1.46 6.13 6.13 0 0 0 1.46 3 6.3 6.3 0 0 1 1.25 2.74 4.06 4.06 0 0 1-1.71 2.9 6.47 6.47 0 0 1-3.61 1.53c-.69 0-2-.65-2-1.65a3 3 0 0 1 .59-1.25.42.42 0 0 1 .47 0 4.34 4.34 0 0 0 2.74 1.4 1.65 1.65 0 0 0 1.65-1.68c0-.65-.5-1.46-1.37-2.77a5.59 5.59 0 0 1-1.18-2.83 4.15 4.15 0 0 1 1.71-3 4.56 4.56 0 0 1 2.71-1.21 2.11 2.11 0 0 1 1.51.51zM307.09 107.82a3.6 3.6 0 0 1-1.65.53 4.29 4.29 0 0 1-1.62-.4 51.7 51.7 0 0 0-1.59 5.76c-.25 1 .34 1.25 1.49 1.49.56.09.78.25.78.44a.82.82 0 0 1-.87.37h-2c-1 0-2.58.22-3.55.25-.68 0-.9-.16-.9-.37a.92.92 0 0 1 .81-.47 2 2 0 0 0 1.9-1.56c.65-2.06 4.42-14.08 5.29-16.82 0 0 0-.16-.12-.12a13 13 0 0 0-2.67 1.03c-.53.28-.78.16-.78 0a1.07 1.07 0 0 1 .47-.69 18.45 18.45 0 0 1 3.39-1.59.53.53 0 0 0 .25-.28 6.25 6.25 0 0 1 .81-1.9 1.91 1.91 0 0 1 1.34-.41c.41 0 .34.31.34.5a9.4 9.4 0 0 1-.44 1.56.15.15 0 0 0 .13.19c2.77 0 5.33 1 5.33 3.52 0 3.55-3.14 7.48-6.14 8.97zm.65-11.37a.61.61 0 0 0-.4.28c-.93 2.9-2 5.86-3 9.44a.52.52 0 0 0 0 .37 1.94 1.94 0 0 0 1 1 2.66 2.66 0 0 0 1.65-.78 11.81 11.81 0 0 0 3.92-8.16c.01-1.52-1.7-2.14-3.16-2.14zM325.63 98.82a10.54 10.54 0 0 1-5.42 8.94 5.78 5.78 0 0 1-2.58.65 3.1 3.1 0 0 1-2.71-3.33 12.56 12.56 0 0 1 3.92-8.1 6 6 0 0 1 3.86-1.65c1.9 0 2.93 2 2.93 3.49zm-5.42-1.28a15.33 15.33 0 0 0-3.11 8.63 1.21 1.21 0 0 0 1.18 1.37 2.91 2.91 0 0 0 2.05-1.4c1.34-1.62 3.27-5.7 3.27-8.5 0-.87-.31-1.5-1.15-1.5a3.1 3.1 0 0 0-2.24 1.41zM340.64 97.11a4.6 4.6 0 0 1-.44 1.84c-.68 1.84-2.52 5.73-2.8 6.23s-.25.84.09.84c.62 0 1.87-1 2.8-1.87.25-.22.62-.28.62-.06a1.94 1.94 0 0 1-.37.9c-1.09 1.65-4 3.43-5.11 3.43a1.32 1.32 0 0 1-1-.53.8.8 0 0 1 0-1c.28-.53 4-8.13 4.3-9.12s0-1.37-.44-1.37c-.75 0-1.9.72-3.52 2.68-1.31 1.5-4.2 6.14-5.17 7.51s-1.25 1.9-1.59 1.9a1.09 1.09 0 0 1-.87-.87 10.61 10.61 0 0 1 1-2.58c.87-2 2.37-5 3.27-7.32.19-.37 0-.5-.28-.5a3.79 3.79 0 0 0-2.4 1.4.83.83 0 0 1-.4.31.33.33 0 0 1-.19-.31 4.16 4.16 0 0 1 4-3.24 1.49 1.49 0 0 1 1.15.62 1 1 0 0 1-.06.81c-.22.5-1.62 3.86-1.9 4.52-.12.25.25.28.37 0a31.16 31.16 0 0 1 3.86-4.42 5.48 5.48 0 0 1 3.24-1.56 1.73 1.73 0 0 1 1.84 1.76zM350.61 95.9a1 1 0 0 1 .31.69 2.49 2.49 0 0 1-.81 1.25.54.54 0 0 1-.47-.09c-.75-.44-1.15-1-2-1a1.51 1.51 0 0 0-1.25 1.46 6.13 6.13 0 0 0 1.46 3 6.3 6.3 0 0 1 1.25 2.74 4.06 4.06 0 0 1-1.71 2.9 6.47 6.47 0 0 1-3.61 1.53c-.69 0-2-.65-2-1.65a3 3 0 0 1 .59-1.25.42.42 0 0 1 .47 0 4.34 4.34 0 0 0 2.74 1.4 1.65 1.65 0 0 0 1.65-1.68c0-.65-.5-1.46-1.37-2.77a5.59 5.59 0 0 1-1.18-2.83 4.15 4.15 0 0 1 1.71-3 4.56 4.56 0 0 1 2.71-1.21 2.11 2.11 0 0 1 1.51.51zM358.09 96.08a3.67 3.67 0 0 1-.31 1.06c-1.5 3.49-2.46 6-3.55 8.47a.39.39 0 0 0 .34.53 8.37 8.37 0 0 0 2.9-2.09 1.65 1.65 0 0 1 .72-.59.17.17 0 0 1 .16.19 2.09 2.09 0 0 1-.56 1.12c-1.4 1.62-4 3.64-5.33 3.64a1 1 0 0 1-.93-.78 1.28 1.28 0 0 1 .16-.56c1.12-2.77 2.4-5.79 3.86-9.19.12-.28-.09-.5-.25-.44a6.37 6.37 0 0 0-2.3 1.37c-.16.16-.41.09-.41-.09a1.45 1.45 0 0 1 .41-.78c.62-.75 3.3-2.62 4.39-2.62a1 1 0 0 1 .7.76zm1.18-5.76a1.72 1.72 0 0 1-1.43 1.68 1.25 1.25 0 0 1-.47-.09 1.34 1.34 0 0 1-.68-1.15 1.81 1.81 0 0 1 .62-1.31 1.49 1.49 0 0 1 .84-.37 1.19 1.19 0 0 1 1.09 1.24zM372.44 97.95c0 2.9-2.77 7.29-6.26 9.31a6.46 6.46 0 0 1-3.43 1.15 2.58 2.58 0 0 1-2.62-2.9 29.48 29.48 0 0 1 1.49-5.64c.72-2.34 3.18-9.37 3.74-11.12.41-1.12 0-1.34-.68-1.77a.65.65 0 0 1-.41-.47 1.1 1.1 0 0 1 .78-.4c.37-.09 3.24-.53 3.55-.53a.44.44 0 0 1 .09.56c-.78 1.53-4.36 11.31-5.23 14-.06.09.16.13.22 0 1.46-1.9 4-4.76 6.29-4.76a2.5 2.5 0 0 1 2.47 2.57zm-8.35 3.27a11.1 11.1 0 0 0-1.87 4.83 1.8 1.8 0 0 0 1.21 1.49 3.72 3.72 0 0 0 2.06-1.18c2-1.84 5-6.38 5-9a1 1 0 0 0-1.06-1c-1.94 0-4.06 2.71-5.34 4.86zM380.32 96.08a3.67 3.67 0 0 1-.31 1.06c-1.5 3.49-2.46 6-3.55 8.47a.39.39 0 0 0 .34.53 8.37 8.37 0 0 0 2.9-2.09 1.65 1.65 0 0 1 .72-.59.17.17 0 0 1 .16.19 2.09 2.09 0 0 1-.56 1.12c-1.4 1.62-4 3.64-5.33 3.64a1 1 0 0 1-.93-.78 1.28 1.28 0 0 1 .16-.56c1.12-2.77 2.4-5.79 3.86-9.19.12-.28-.09-.5-.25-.44a6.37 6.37 0 0 0-2.3 1.37c-.16.16-.41.09-.41-.09a1.45 1.45 0 0 1 .41-.78c.62-.75 3.3-2.62 4.39-2.62a1 1 0 0 1 .7.76zm1.18-5.76a1.72 1.72 0 0 1-1.43 1.68 1.25 1.25 0 0 1-.47-.09 1.34 1.34 0 0 1-.68-1.15 1.81 1.81 0 0 1 .62-1.31 1.49 1.49 0 0 1 .84-.37 1.19 1.19 0 0 1 1.13 1.24zM387.02 86.3c.34-.06 2.4-.34 3.05-.53a3.08 3.08 0 0 1 .9-.19c.25 0 .09.75 0 1-2.15 5.67-6.29 17.41-6.85 19.18-.19.56-.16 1.31.19 1.31.62 0 3.21-2.8 3.8-3.21.22-.16.34-.12.37 0a2 2 0 0 1-.19.72c-1.18 2.3-3.67 3.83-5.42 3.83a1.49 1.49 0 0 1-1.31-1.18 25.61 25.61 0 0 1 1-3.21c1.25-3.55 3.58-10.06 5.42-15.35.44-1.21.16-1.37-.84-1.59a1.15 1.15 0 0 1-.75-.31.64.64 0 0 1 .63-.47zM396.37 96.08a3.67 3.67 0 0 1-.31 1.06c-1.5 3.49-2.46 6-3.55 8.47a.39.39 0 0 0 .34.53 8.37 8.37 0 0 0 2.9-2.09 1.65 1.65 0 0 1 .72-.59.17.17 0 0 1 .16.19 2.09 2.09 0 0 1-.56 1.12c-1.4 1.62-4 3.64-5.33 3.64a1 1 0 0 1-.93-.78 1.28 1.28 0 0 1 .16-.56c1.12-2.77 2.4-5.79 3.86-9.19.12-.28-.09-.5-.25-.44a6.37 6.37 0 0 0-2.3 1.37c-.16.16-.41.09-.41-.09a1.45 1.45 0 0 1 .41-.78c.62-.75 3.3-2.62 4.39-2.62a1 1 0 0 1 .7.76zm1.18-5.76a1.72 1.72 0 0 1-1.43 1.68 1.25 1.25 0 0 1-.47-.09 1.34 1.34 0 0 1-.68-1.15 1.81 1.81 0 0 1 .62-1.31 1.49 1.49 0 0 1 .84-.37 1.19 1.19 0 0 1 1.12 1.24zM405.34 92.87c-.09.37-.65 2.21-.75 2.55a.22.22 0 0 0 .16.28c.65 0 2.09.06 2.9.09a.24.24 0 0 1 .12.25.81.81 0 0 1-.62.68c-.47 0-2.3.13-2.9.13a.36.36 0 0 0-.28.25c-.44 1-2.09 5.29-3 7.85-.19.53-.16.87.16.87a7.82 7.82 0 0 0 3.11-2c.28-.25.68-.47.68-.09a1.31 1.31 0 0 1-.28.75c-1.25 1.74-4.36 3.86-5.82 3.86a1.06 1.06 0 0 1-.81-.72 2.54 2.54 0 0 1 .16-.78c.13-.31 2.27-6.17 3.61-9.62.09-.22 0-.37-.06-.37l-1.65-.09a.48.48 0 0 1-.5-.28 1 1 0 0 1 .62-.65c.62-.06 1.68-.09 1.9-.09a.49.49 0 0 0 .34-.31c.47-.9.93-1.78 1.28-2.34a1.56 1.56 0 0 1 1.46-.9c.29 0 .32.16.17.68zM413.31 97.55a33.73 33.73 0 0 1 .31 8.6c0 .13.34 0 .53-.34a22.79 22.79 0 0 0 2.94-10.16.73.73 0 0 1 .5-.5 1.67 1.67 0 0 1 1.12 1.25c0 2.62-2.58 7.85-3.58 9.53-1.34 2.21-2.71 4.45-3.36 5.26a26.63 26.63 0 0 1-3.33 3.58 5.65 5.65 0 0 1-3.33 1.43 1.45 1.45 0 0 1-1.59-1.28 1.68 1.68 0 0 1 1.28-1.56.5.5 0 0 1 .37.12c.47.34.78 1 1.43 1 .93 0 1.74-.53 3-2 1.37-1.62 2.27-5.08 2.27-8.81a27.36 27.36 0 0 0-.47-5.67c-.16-.47-.22-1-.65-1s-1.18 1-1.84 2.3a1.29 1.29 0 0 1-.56.75c-.19 0-.25-.22-.28-.53-.09-1.53 1.62-4.17 3.55-4.17.94-.02 1.57 1.48 1.69 2.2zM421.85 92.03c1.28-.65 2.4-1.65 2.4-3a1.22 1.22 0 0 0-1.12-1.34.51.51 0 0 1-.34-.44 1.66 1.66 0 0 1 1.56-1.25 2.07 2.07 0 0 1 2 2.3c0 2.49-3 4.39-4.55 4.42a.57.57 0 0 1-.56-.22c-.05-.15.11-.22.61-.47zm4.8 0c1.18-.69 2.4-1.71 2.4-2.93a1.34 1.34 0 0 0-1.15-1.37.44.44 0 0 1-.31-.37 1.66 1.66 0 0 1 1.5-1.31 2.06 2.06 0 0 1 1.93 2.27c0 2.49-3 4.42-4.52 4.45-.19 0-.5-.06-.5-.25s.14-.24.64-.52z"/></svg>
