<?xml version="1.0" encoding="utf-8"?>
<!-- Generator: Adobe Illustrator 24.2.0, SVG Export Plug-In . SVG Version: 6.00 Build 0)  -->
<svg version="1.1" id="Layer_1" xmlns="http://www.w3.org/2000/svg" xmlns:xlink="http://www.w3.org/1999/xlink" x="0px" y="0px"
	 viewBox="0 0 200 75" style="enable-background:new 0 0 200 75;" xml:space="preserve">
<style type="text/css">
	.st0{fill:#D9D9D9;}
</style>
<g>
	<path class="st0" d="M20.4,52.6c1.1,0,2,0.1,4.3,0.1c2.1,0,3.2-0.1,4.2-0.1c0.1,0.1,0.1,0.8,0,1c-0.8,0.1-1.1,0.2-1.5,0.3
		c-0.7,0.2-0.8,0.6-0.8,1.3c0,0.7-0.1,3-0.1,6.1c0,3.4,0,6.8,0.1,7.8c0,0.6,0.3,0.8,0.6,0.9c0.7,0.2,2.9,0.2,4.2,0.2
		c0.6,0,1.1-0.3,1.7-1.1c0.6-0.8,1.4-2.4,1.9-3.7c0.2-0.1,1,0.2,1.1,0.4c-0.2,0.9-1.1,4.4-1.8,5.5c-0.1,0.3-0.4,0.4-1.6,0.4
		c-2.3,0-6.1-0.2-8.2-0.2c-2,0-3.5,0.1-4.5,0.1c-0.1-0.2-0.1-0.9,0-1c1-0.1,1.3-0.1,1.8-0.3c0.6-0.2,0.8-0.5,0.8-1.3
		c0.1-0.8,0.1-4,0.1-7.5c0-3.5,0-5.3-0.1-6.3c0-0.8-0.2-1.3-0.9-1.5c-0.4-0.1-1-0.2-1.6-0.3C20.2,53.4,20.2,52.7,20.4,52.6"/>
	<path class="st0" d="M37.4,56.3c0.8,0,2,0.1,3.6,0.1c2.1,0,3-0.1,3.6-0.1c0.1,0.1,0.1,0.7,0,0.8c-0.5,0.1-1,0.1-1.3,0.2
		c-0.6,0.2-0.6,0.6-0.6,1.3c-0.1,0.9-0.1,2.8-0.1,5c0,2.8,0,4.9,0.1,5.8c0,0.6,0.1,1.1,0.8,1.3c0.3,0.1,0.9,0.2,1.4,0.3
		c0.1,0.1,0,0.8-0.1,0.8c-0.9,0-2-0.1-3.6-0.1c-2,0-2.9,0.1-3.8,0.1c-0.1-0.1-0.1-0.7,0-0.8c0.5-0.1,0.9-0.1,1.2-0.2
		c0.7-0.2,0.8-0.4,0.9-1.3c0.1-0.8,0.1-3.6,0.1-6.1c0-2.5,0-3.8-0.1-4.9c-0.1-0.6-0.2-0.9-0.7-1.1c-0.4-0.1-0.8-0.2-1.4-0.3
		C37.3,57,37.3,56.4,37.4,56.3"/>
	<path class="st0" d="M49,70.4c0.7,0.5,1.6,0.7,2.4,0.7c1.2,0,2.3-0.7,2.3-2.2c0-1.3-0.7-2.1-3-3.5c-2.2-1.3-3.9-2.5-3.9-5
		c0-2.9,2.4-4.5,5.2-4.5c1.9,0,2.9,0.3,4.1,0.4c-0.2,0.9-0.4,2.2-0.4,3.6c-0.1,0.1-0.7,0.1-0.8,0c-0.2-1.5-0.5-2.2-1.1-2.7
		c-0.6-0.4-1.2-0.6-2-0.6c-1.5,0-2.3,1.1-2.3,2.3c0,1.2,0.6,1.9,1.6,2.6c1.1,0.7,1.9,1.1,2.9,1.7c1.7,1,2.6,2.1,2.6,3.9
		c0,2.6-2.1,4.8-5.9,4.8c-1.7,0-3.2-0.5-3.8-0.8c-0.3-0.4-0.7-3.1-0.8-3.9c0.1-0.2,0.7-0.3,0.8-0.3C47.5,68.8,48.1,69.8,49,70.4"/>
	<path class="st0" d="M59.9,68.8c1.4-3.2,3.5-9,4.1-10.8c0.2-0.5,0.4-1.3,0.5-1.7c0.3,0,0.7,0.1,1.1,0.1c0.5,0,0.9,0,1.1-0.1
		c0.1,0.4,0.3,1,0.4,1.4c0.8,2.1,3,8.6,3.9,10.8c0.8,2,0.9,2.1,2.8,2.4c0.1,0.1,0,0.7-0.1,0.8c-0.7,0-1.8-0.1-3.5-0.1
		c-1.8,0-2.9,0.1-3.7,0.1c-0.1-0.1-0.1-0.7,0-0.8c0.5-0.1,1-0.2,1.3-0.3c0.3-0.2,0.3-0.4,0.3-0.6c-0.2-0.9-0.9-2.8-1.3-3.7
		c0-0.1-0.2-0.2-0.2-0.2c-0.4,0-1.3,0-2.1,0c-1.2,0-1.7,0-2,0c-0.1,0-0.2,0.1-0.3,0.2c-0.5,1.3-1.1,2.9-1.1,3.4
		c0,0.4,0.1,0.7,0.7,0.9c0.4,0.1,0.8,0.2,1.2,0.2c0.1,0.1,0,0.7-0.1,0.8c-0.7,0-1.7-0.1-3.2-0.1c-1.1,0-2,0.1-2.8,0.1
		c-0.1-0.1-0.1-0.7,0-0.8C58.9,70.7,59.2,70.5,59.9,68.8 M64.6,59.7c-0.5,1.4-1.3,3.7-1.7,4.9c0,0.1,0,0.2,0.1,0.2
		c0.3,0,0.9,0,1.6,0c0.8,0,1.4,0,1.7,0c0,0,0.1-0.1,0.1-0.2c-0.3-1.1-1.2-3.7-1.7-4.9C64.6,59.7,64.6,59.7,64.6,59.7"/>
	<path class="st0" d="M83,52.6c1.9,0,3.7,0.1,6.6,0.1c0.1,0.6,0.3,1.3,0.5,1.9c1.4,3.2,4.1,9.2,4.7,10.6c0.1,0.1,0.1,0,0.2,0
		c0.7-1.4,3.8-8.2,4.8-10.7c0.3-0.7,0.5-1.3,0.5-1.8c3.2,0,4.6-0.1,6.2-0.1c0.2,0.1,0.2,0.9,0,1c-0.8,0.1-1.4,0.3-1.8,0.4
		c-0.7,0.3-0.8,0.7-0.8,1.5c-0.1,2.1,0.2,11.1,0.3,13.2c0.1,0.9,0.2,1.5,1.1,1.8c0.4,0.1,1,0.2,1.7,0.3c0.1,0.2,0.1,0.9-0.1,1
		c-0.9,0-2.1-0.1-4.7-0.1c-1.7,0-3,0.1-4.2,0.1c-0.1-0.2-0.1-0.9,0-1c0.7-0.1,1.2-0.2,1.6-0.3c0.5-0.2,0.7-0.7,0.7-1.5
		c0.1-2.3,0-8.9,0-11.8c0,0-0.1,0-0.2,0C99,59.8,95,68.8,94.1,71.5c-0.2,0.1-1.1,0.1-1.2,0c-0.7-2.6-3.5-9.2-5.7-14.6
		c-0.1,0-0.1,0-0.2,0.1c-0.2,2.6-0.5,9.1-0.5,11.4c0,1.1,0.2,1.6,1.1,1.9c0.5,0.2,1,0.3,1.9,0.4c0.2,0.1,0.1,0.9-0.1,1
		c-0.8,0-2.1-0.1-3.9-0.1c-1.3,0-2.7,0.1-3.6,0.1c-0.1-0.2-0.1-0.9,0-1c0.6-0.1,1.1-0.1,1.5-0.3c0.9-0.3,1.2-0.7,1.4-2.1
		c0.3-2.4,0.9-10.3,1.1-12.9c0-0.6-0.2-1.2-0.8-1.5c-0.5-0.2-1.2-0.3-2.1-0.5C82.8,53.4,82.9,52.7,83,52.6"/>
	<path class="st0" d="M108.7,56.3c0.8,0,2,0.1,3.6,0.1c2.1,0,3-0.1,3.6-0.1c0.1,0.1,0.1,0.7,0,0.8c-0.5,0.1-1,0.1-1.3,0.2
		c-0.6,0.2-0.6,0.6-0.6,1.3c-0.1,0.9-0.1,2.8-0.1,5c0,2.8,0,4.9,0.1,5.8c0,0.6,0.1,1.1,0.8,1.3c0.3,0.1,0.9,0.2,1.4,0.3
		c0.1,0.1,0,0.8-0.1,0.8c-0.9,0-2-0.1-3.6-0.1c-2,0-2.9,0.1-3.8,0.1c-0.1-0.1-0.1-0.7,0-0.8c0.5-0.1,0.9-0.1,1.2-0.2
		c0.7-0.2,0.8-0.4,0.9-1.3c0.1-0.8,0.1-3.6,0.1-6.1c0-2.5,0-3.8-0.1-4.9c-0.1-0.6-0.2-0.9-0.7-1.1c-0.4-0.1-0.8-0.2-1.4-0.3
		C108.6,57,108.6,56.4,108.7,56.3"/>
	<path class="st0" d="M117.5,56.3c0.9,0,1.7,0.1,3.6,0.1c1.8,0,2.7-0.1,3.5-0.1c0.1,0.1,0.1,0.7,0,0.8c-0.7,0.1-1,0.2-1.2,0.2
		c-0.6,0.2-0.7,0.5-0.7,1.1c0,0.6-0.1,2.4-0.1,4.9c0,2.7,0,5.5,0.1,6.3c0,0.5,0.3,0.7,0.5,0.8c0.6,0.2,2.4,0.2,3.5,0.2
		c0.5,0,1-0.2,1.5-0.9c0.5-0.7,1.2-1.9,1.6-2.9c0.2-0.1,0.8,0.2,0.9,0.3c-0.1,0.7-0.9,3.5-1.5,4.5c-0.1,0.2-0.4,0.3-1.3,0.3
		c-1.9,0-5.1-0.1-6.9-0.1c-1.7,0-3,0.1-3.7,0.1c-0.1-0.1-0.1-0.7,0-0.8c0.8-0.1,1.1-0.1,1.5-0.2c0.5-0.2,0.7-0.4,0.7-1
		c0.1-0.6,0.1-3.2,0.1-6c0-2.8,0-4.2-0.1-5.1c0-0.7-0.1-1-0.8-1.2c-0.3-0.1-0.9-0.2-1.3-0.2C117.3,57,117.3,56.4,117.5,56.3"/>
	<path class="st0" d="M131.1,56.3c0.8,0,2,0.1,3.5,0.1c0.7,0,1.3,0,1.6-0.1c0.1,0.4,0.4,0.7,0.9,1.4c2.1,2.7,6.3,7.9,7.8,9.7
		c0,0,0.1,0,0.1,0c0-3.2,0.1-6.9-0.1-8.6c-0.1-0.8-0.3-1.2-1.1-1.4c-0.5-0.1-0.9-0.2-1.6-0.3c-0.1-0.1-0.1-0.8,0-0.8
		c0.6,0,1.8,0.1,3.4,0.1c1.2,0,2.4-0.1,2.9-0.1c0.1,0.1,0.1,0.7,0,0.8c-0.4,0.1-0.7,0.1-1,0.2c-0.7,0.2-0.9,0.6-1,1.5
		c-0.2,2.1-0.2,5.8-0.2,9.5c0,1.1,0,2.6,0.1,3.5c-0.4-0.1-1.8,0-2.3,0c-1.4-2-7.5-9.8-9.1-11.9c-0.1-0.1-0.1,0-0.1,0
		c-0.1,2.7,0,8,0.1,9.1c0.1,1.1,0.4,1.4,1.1,1.6c0.4,0.1,0.9,0.2,1.5,0.3c0.1,0.1,0.1,0.7-0.1,0.8c-0.8,0-1.9-0.1-3.2-0.1
		c-1.4,0-2.5,0.1-3.2,0.1c-0.1-0.1-0.1-0.7,0-0.8c0.6-0.1,1-0.1,1.4-0.3c0.6-0.2,0.8-0.6,0.9-1.4c0.2-1.3,0.2-5.9,0.3-10.1
		c0-0.5-0.3-1.2-0.8-1.5c-0.5-0.2-1-0.4-1.7-0.4C131,57.1,131,56.4,131.1,56.3"/>
	<path class="st0" d="M149.6,56.3c0.9,0,2.4,0.1,3.6,0.1h5c1,0,2.3,0,3.1-0.1c0.1,0,0.1,0.1,0.1,0.1c-0.2,0.8-0.3,2.4-0.4,3.7
		c-0.1,0.1-0.8,0.2-0.9,0.1c-0.1-0.9-0.2-1.4-0.4-1.8c-0.2-0.5-0.6-0.7-1.1-0.8c-0.6-0.1-3.3-0.1-3.6,0c-0.2,0-0.3,0.3-0.3,0.5
		c0,1.6,0,3.5,0,5c0,0.1,0.1,0.2,0.2,0.2c0.8,0,2.6,0,3.4-0.1c0.5,0,0.7-0.3,0.9-0.8c0.1-0.3,0.2-0.6,0.2-0.9c0.2-0.1,0.8-0.1,1,0.1
		c-0.1,0.6-0.2,1.6-0.2,2.4c0,0.8,0,1.8,0.1,2.4c-0.1,0.1-0.8,0.1-0.9,0c-0.2-0.7-0.2-0.7-0.3-1c-0.1-0.4-0.3-0.7-0.9-0.7
		c-0.6-0.1-2.5-0.1-3.3-0.1c-0.1,0-0.2,0.2-0.2,0.2c0,1.4,0,3.4,0,4.6c0,0.5,0.3,0.8,0.6,0.9c0.5,0.1,2,0.2,3.3,0.2
		c1.1,0,1.5-0.2,2-0.8c0.5-0.5,0.9-1.4,1.3-2.3c0.2,0,0.8,0.2,0.9,0.3c-0.1,0.6-0.7,2.8-1.1,3.6c-0.1,0.3-0.3,0.4-1.4,0.4
		c-2.1,0-4.3-0.1-7-0.1c-1.4,0-3.1,0.1-4.3,0.1c-0.1-0.2-0.1-0.7,0-0.8c0.8-0.1,1.5-0.2,1.9-0.3c0.5-0.1,0.7-0.4,0.8-1.3
		c0.1-1.1,0.1-3.2,0.1-6c0-2,0-4.1-0.1-4.8c-0.1-0.8-0.2-1-0.7-1.1c-0.4-0.1-0.8-0.2-1.3-0.2C149.4,57,149.5,56.4,149.6,56.3"/>
	<path class="st0" d="M169.1,65c0,0-0.1,0.1-0.1,0.2c0,1.5,0,3.3,0.1,4.3c0.1,0.8,0.2,1.1,0.8,1.2c0.4,0.1,0.7,0.2,1.4,0.2
		c0.1,0.1,0.1,0.8-0.1,0.8c-0.5,0-1.7-0.1-3.6-0.1c-1.9,0-3,0.1-3.6,0.1c-0.1-0.1-0.2-0.7,0-0.8c0.5-0.1,0.9-0.1,1.2-0.2
		c0.6-0.1,0.7-0.5,0.8-1.3c0.1-0.7,0.1-4.1,0.1-5.6c0-2.5,0-4.3-0.1-5.3c0-0.7-0.2-1-0.8-1.1c-0.3-0.1-0.8-0.2-1.3-0.2
		c-0.1-0.2-0.1-0.8,0.1-0.8c0.6,0,2.4,0.1,3.3,0.1c1.9,0,3.2-0.1,4.6-0.1c3,0,4.7,1.6,4.7,3.8c0,2-1.3,3.2-2.9,3.9
		c-0.1,0-0.1,0.2,0,0.2c0.6,1.1,2.8,4.3,4,5.5c0.9,0.9,1.2,1,2.5,1.2c0.1,0.1-0.1,0.8-0.2,0.8c-1.4,0.1-3.7,0-4.7-0.5
		c-0.5-0.3-1-0.7-1.2-1c-1-1.2-2.3-3.4-3.1-4.8c-0.2-0.3-0.4-0.4-0.7-0.5H169.1z M169.2,57.5c-0.1,0.1-0.2,0.3-0.2,0.4
		c-0.1,0.7-0.1,3-0.1,5.9c0,0.1,0.1,0.2,0.2,0.2c1.3,0.1,2.4,0,2.9-0.3c0.7-0.4,1.3-1.1,1.3-2.7c0-2.2-1.2-3.6-3.4-3.6
		C169.8,57.3,169.4,57.4,169.2,57.5"/>
</g>
<g>
	<path class="st0" d="M89.4,8.2c3-2.3,6.7-3.6,10.7-3.6c6.4,0,12.1,3.4,15.2,8.6h2.5c-3.3-6.4-10-10.7-17.7-10.7
		c-5.5,0-10.4,2.2-14,5.8H89.4z"/>
	<path class="st0" d="M82.6,24.9c-0.1-0.8-0.2-1.7-0.2-2.6c0-2.3,0.4-4.5,1.2-6.5v-3.2h-0.9c-1.6,2.9-2.5,6.2-2.5,9.7
		c0,0.9,0.1,1.7,0.2,2.6H82.6z"/>
	<path class="st0" d="M82.3,9.4c1.1,0,1.9,0.1,4.1,0.1c2,0,3.1-0.1,4-0.1c0.1,0.1,0.1,0.8,0,1c-0.7,0.1-1.1,0.2-1.4,0.3
		c-0.7,0.2-0.7,0.5-0.8,1.2c0,0.7-0.1,2.8-0.1,5.8c0,3.2,0,6.5,0.1,7.4c0,0.5,0.3,0.8,0.5,0.9c0.7,0.2,2.7,0.2,4,0.2
		c0.6,0,1.1-0.2,1.7-1c0.5-0.8,1.3-2.3,1.8-3.5c0.2-0.1,0.9,0.2,1,0.4c-0.1,0.9-1.1,4.2-1.7,5.3c-0.1,0.2-0.4,0.4-1.5,0.4
		c-2.1,0-5.8-0.1-7.8-0.1c-1.9,0-3.4,0.1-4.3,0.1c-0.1-0.1-0.1-0.9,0-1c0.9-0.1,1.2-0.1,1.7-0.3c0.6-0.2,0.7-0.5,0.8-1.2
		c0.1-0.7,0.1-3.8,0.1-7.1c0-3.3,0-5-0.1-6c0-0.8-0.1-1.2-0.9-1.4c-0.3-0.1-1-0.2-1.5-0.3C82.1,10.1,82.2,9.5,82.3,9.4"/>
	<path class="st0" d="M113.8,33.6c-3.3,3.9-8.2,6.4-13.6,6.4c-7.4,0-13.7-4.5-16.4-11h-2.3c2.8,7.7,10.1,13.1,18.7,13.1
		c6.8,0,12.8-3.4,16.4-8.6H113.8z"/>
	<path class="st0" d="M96.1,14.4c1.7,0,3.4,0.1,6.1,0.1c0.1,0.6,0.2,1.2,0.5,1.8c1.3,3,3.7,8.7,4.4,10.1c0.1,0.1,0.1,0,0.2,0
		c0.6-1.3,3.5-7.8,4.4-10.1c0.2-0.7,0.5-1.3,0.5-1.8c3,0,4.2-0.1,5.7-0.1c0.1,0.1,0.1,0.8,0,1c-0.8,0.1-1.3,0.2-1.7,0.4
		c-0.7,0.2-0.8,0.7-0.8,1.4c-0.1,2,0.2,10.6,0.3,12.6c0.1,0.9,0.2,1.5,1,1.7c0.4,0.1,0.9,0.2,1.6,0.3c0.1,0.2,0.1,0.8-0.1,1
		c-0.8,0-2-0.1-4.3-0.1c-1.5,0-2.8,0.1-3.8,0.1c-0.1-0.1-0.1-0.8,0-1c0.7-0.1,1.1-0.2,1.5-0.3c0.5-0.2,0.6-0.6,0.6-1.4
		c0.1-2.2,0-8.5,0-11.2c0,0-0.1,0-0.1,0c-1.1,2.6-4.8,11.2-5.6,13.8c-0.1,0.1-1,0.1-1.1,0c-0.7-2.4-3.3-8.8-5.2-13.9
		c-0.1,0-0.1,0-0.1,0.1c-0.2,2.4-0.5,8.6-0.5,10.9c0,1.1,0.2,1.5,1,1.8c0.5,0.2,0.9,0.2,1.7,0.4c0.1,0.1,0.1,0.9-0.1,1
		c-0.8,0-1.9-0.1-3.6-0.1c-1.2,0-2.5,0.1-3.3,0.1c-0.1-0.1-0.1-0.8,0-1c0.5-0.1,1-0.1,1.4-0.2c0.8-0.2,1.1-0.6,1.2-2
		c0.3-2.3,0.9-9.8,1-12.2c0-0.5-0.1-1.2-0.7-1.4c-0.5-0.2-1.1-0.3-2-0.4C96,15.2,96,14.5,96.1,14.4"/>
	<path class="st0" d="M119.3,16.5H117c0.6,1.7,0.9,3.6,0.9,5.5c0,2.4-0.5,4.7-1.4,6.8v1h2c1-2.4,1.6-5,1.6-7.8
		C120,20.1,119.8,18.3,119.3,16.5z"/>
</g>
</svg>
