<svg width="184" height="50" viewBox="0 0 184 50" fill="none" xmlns="http://www.w3.org/2000/svg">
<g clip-path="url(#clip0_130_642)">
<path d="M1.03618 41.7983H0.0853271V49.7976H4.69572V48.9151H1.03618V41.7983Z" fill="#3B3C43"/>
<path d="M6.94365 46.0698H10.7495V45.1872H6.94365V42.6785H11.0225V41.7983H5.99524V49.7976H11.2249V48.9151H6.94365V46.0698Z" fill="#3B3C43"/>
<path d="M15.5524 41.7983L12.027 49.7976H13.0997L13.9238 47.8301H17.9247L18.7366 49.7976H19.8459L16.4326 41.7983H15.5524ZM14.2968 46.95L15.9596 43.0174H15.9815L17.5541 46.95H14.2968Z" fill="#3B3C43"/>
<path d="M27.3455 43.4538C27.1503 43.1654 26.9128 42.9082 26.6409 42.6907C25.915 42.1172 25.0181 41.8031 24.0931 41.7983H21.0187V49.7976H24.0931C24.3741 49.7949 24.6542 49.7647 24.9293 49.7074C25.2312 49.6444 25.5249 49.547 25.8046 49.4173C26.1027 49.2805 26.3835 49.1086 26.6409 48.9053C26.9128 48.6878 27.1503 48.4305 27.3455 48.1422C27.5585 47.8255 27.7228 47.4787 27.8331 47.1133C28.0741 46.253 28.0741 45.343 27.8331 44.4826C27.7233 44.1171 27.5589 43.7702 27.3455 43.4538ZM26.7481 47.2108C26.5985 47.5828 26.3668 47.9162 26.0704 48.1861C25.775 48.4423 25.4284 48.6326 25.0537 48.7444C24.6394 48.8687 24.2087 48.9296 23.7761 48.9248H21.9695V42.6785H23.7761C24.2088 42.6745 24.6395 42.7362 25.0537 42.8613C25.4288 42.9721 25.7756 43.1626 26.0704 43.4196C26.3668 43.6895 26.5985 44.0229 26.7481 44.3949C27.0791 45.3077 27.0791 46.3078 26.7481 47.2206V47.2108Z" fill="#3B3C43"/>
<path d="M30.7465 41.7983H29.7981V49.7976H30.7465V41.7983Z" fill="#3B3C43"/>
<path d="M38.8482 48.4421H38.8238L34.1915 41.7983H32.9944V49.7976H33.9428V43.1539H33.9672L38.5971 49.7976H39.7966V41.7983H38.8482V48.4421Z" fill="#3B3C43"/>
<path d="M46.0552 46.2039H47.8959V48.6566C47.5872 48.8133 47.2594 48.9288 46.9207 49.0004C46.5871 49.0766 46.2462 49.1167 45.904 49.1199C45.4438 49.1269 44.9867 49.0441 44.5582 48.8761C44.1655 48.7201 43.81 48.4834 43.5147 48.1812C43.2207 47.878 42.9903 47.5191 42.8369 47.1255C42.5118 46.2704 42.5118 45.3256 42.8369 44.4705C42.9887 44.0798 43.2182 43.7241 43.5116 43.4249C43.8049 43.1256 44.156 42.8891 44.5436 42.7297C44.9486 42.563 45.3832 42.4801 45.8211 42.4859C46.2299 42.4884 46.6341 42.5712 47.0109 42.7297C47.3868 42.8799 47.7248 43.1114 48.0008 43.4075L48.7127 42.6638C48.3491 42.2922 47.9019 42.013 47.4083 41.8495C46.9173 41.6881 46.4038 41.6058 45.887 41.6057C45.312 41.5999 44.7411 41.7033 44.2047 41.9105C43.6985 42.105 43.2342 42.3947 42.8369 42.7638C42.4412 43.1349 42.1281 43.5852 41.9178 44.0852C41.6885 44.6297 41.5747 45.2158 41.5838 45.8065C41.5763 46.3907 41.684 46.9706 41.9007 47.5132C42.0996 48.0131 42.4011 48.4657 42.7857 48.8419C43.1739 49.2156 43.6332 49.5075 44.1364 49.7001C44.6814 49.9068 45.2602 50.0102 45.8431 50.0049C46.3627 50.0046 46.8806 49.944 47.3864 49.8245C47.8981 49.7054 48.3905 49.515 48.8492 49.2588V45.3238H46.0552V46.2039Z" fill="#3B3C43"/>
<path d="M59.194 45.4237C59.3731 45.2343 59.5124 45.011 59.6037 44.7668C59.695 44.5227 59.7364 44.2628 59.7255 44.0023C59.7465 43.5892 59.6484 43.1788 59.4427 42.8199C59.2629 42.5377 59.0102 42.3094 58.7113 42.1592C58.3893 42.0035 58.0429 41.9046 57.6873 41.8666C57.3071 41.8206 56.9244 41.7978 56.5414 41.7983H54.4958V49.7976H55.4467V46.2039H56.6657L58.8356 49.7976H59.9986L57.7287 46.1137C58.2797 46.051 58.7947 45.8085 59.194 45.4237ZM56.2903 45.3238H55.4443V42.6785H56.7754C57.0078 42.6792 57.2399 42.6946 57.4703 42.7248C57.6865 42.751 57.8967 42.8136 58.092 42.9101C58.2739 43.0021 58.4279 43.141 58.5382 43.3124C58.6623 43.5203 58.7218 43.7605 58.7088 44.0023C58.7237 44.2772 58.6369 44.548 58.465 44.763C58.3068 44.9423 58.1041 45.0769 57.8775 45.1531C57.6256 45.2386 57.363 45.2878 57.0973 45.2994C56.8266 45.3165 56.5633 45.3238 56.2903 45.3238Z" fill="#3B3C43"/>
<path d="M68.3734 42.7858C67.9926 42.4103 67.542 42.113 67.047 41.9105C65.9673 41.4907 64.7695 41.4907 63.6898 41.9105C63.1966 42.1135 62.7477 42.4108 62.3684 42.7858C61.9915 43.1667 61.6962 43.6205 61.5004 44.1194C61.0843 45.1989 61.0843 46.3946 61.5004 47.4742C61.6956 47.9733 61.991 48.4272 62.3684 48.8078C62.7465 49.1843 63.1957 49.4818 63.6898 49.6831C64.769 50.1057 65.9679 50.1057 67.047 49.6831C67.5412 49.4818 67.9904 49.1843 68.3685 48.8078C68.7466 48.4273 69.0428 47.9735 69.2389 47.4742C69.65 46.3972 69.6509 45.2067 69.2413 44.1291C69.0466 43.6269 68.7512 43.1697 68.3734 42.7858ZM68.3051 47.0914C68.1589 47.4818 67.9387 47.8402 67.6566 48.1471C67.3754 48.4501 67.0353 48.6924 66.657 48.859C66.2513 49.0312 65.8152 49.1199 65.3745 49.1199C64.9339 49.1199 64.4977 49.0312 64.0921 48.859C63.7135 48.693 63.3731 48.4506 63.0925 48.1471C62.8088 47.841 62.5876 47.4824 62.4415 47.0914C62.1328 46.2568 62.1328 45.3392 62.4415 44.5046C62.5876 44.1136 62.8088 43.755 63.0925 43.4489C63.3731 43.1453 63.7135 42.903 64.0921 42.737C64.4977 42.5648 64.9339 42.476 65.3745 42.476C65.8152 42.476 66.2513 42.5648 66.657 42.737C67.0353 42.9036 67.3754 43.1459 67.6566 43.4489C67.9387 43.7557 68.1589 44.1142 68.3051 44.5046C68.6139 45.3392 68.6139 46.2568 68.3051 47.0914Z" fill="#3B3C43"/>
<path d="M78.0549 42.7857C77.6755 42.4108 77.2267 42.1135 76.7335 41.9105C75.6545 41.4913 74.4576 41.4913 73.3787 41.9105C72.8844 42.1128 72.4346 42.4102 72.0548 42.7857C71.6793 43.1707 71.3857 43.6276 71.1917 44.1291C70.7756 45.2087 70.7756 46.4043 71.1917 47.4839C71.3877 47.9826 71.683 48.4363 72.0597 48.8175C72.4382 49.1946 72.8883 49.4922 73.3835 49.6928C74.4619 50.1153 75.66 50.1153 76.7383 49.6928C77.2325 49.4916 77.6817 49.194 78.0598 48.8175C78.4379 48.4371 78.7341 47.9832 78.9302 47.4839C79.343 46.4037 79.343 45.2093 78.9302 44.1291C78.7332 43.6262 78.4354 43.169 78.0549 42.7857ZM77.9866 47.0914C77.8405 47.4818 77.6203 47.8402 77.3381 48.1471C77.057 48.4501 76.7168 48.6924 76.3385 48.859C75.9329 49.0312 75.4967 49.1199 75.0561 49.1199C74.6154 49.1199 74.1792 49.0312 73.7736 48.859C73.395 48.693 73.0547 48.4506 72.774 48.1471C72.4911 47.8403 72.2701 47.4819 72.1231 47.0914C71.8143 46.2567 71.8143 45.3392 72.1231 44.5046C72.2701 44.1141 72.4911 43.7556 72.774 43.4489C73.0547 43.1453 73.395 42.903 73.7736 42.737C74.1792 42.5648 74.6154 42.476 75.0561 42.476C75.4967 42.476 75.9329 42.5648 76.3385 42.737C76.7168 42.9036 77.057 43.1458 77.3381 43.4489C77.6203 43.7557 77.8405 44.1142 77.9866 44.5046C78.2954 45.3392 78.2954 46.2567 77.9866 47.0914Z" fill="#3B3C43"/>
<path d="M81.0197 49.7976H81.9705V46.2039H85.6983V45.3238H81.9705V42.6785H85.9811V41.7983H81.0197V49.7976Z" fill="#3B3C43"/>
<path d="M88.5093 41.7983H87.5609V49.7976H88.5093V41.7983Z" fill="#3B3C43"/>
<path d="M96.6111 48.4421H96.5892L91.9569 41.7983H90.7598V49.7976H91.7082V43.1539H91.7301L96.3625 49.7976H97.5595V41.7983H96.6111V48.4421Z" fill="#3B3C43"/>
<path d="M103.818 46.2039H105.661V48.6566C105.352 48.8127 105.024 48.9282 104.686 49.0004C104.352 49.0769 104.011 49.117 103.669 49.1199C103.21 49.127 102.754 49.0441 102.326 48.876C101.933 48.7196 101.577 48.483 101.28 48.1812C100.986 47.878 100.756 47.519 100.602 47.1255C100.277 46.2704 100.277 45.3256 100.602 44.4704C100.754 44.0776 100.985 43.72 101.28 43.4196C101.572 43.1244 101.919 42.8898 102.302 42.7297C102.707 42.5632 103.141 42.4803 103.579 42.4859C103.989 42.4882 104.394 42.571 104.771 42.7297C105.146 42.88 105.484 43.1114 105.759 43.4074L106.471 42.6638C106.107 42.2917 105.66 42.0124 105.166 41.8495C104.676 41.6884 104.163 41.6061 103.647 41.6057C103.072 41.6002 102.5 41.7036 101.963 41.9105C101.457 42.1045 100.993 42.3942 100.597 42.7638C100.2 43.1342 99.886 43.5845 99.6757 44.0852C99.4475 44.63 99.3339 45.2159 99.3417 45.8065C99.3355 46.3906 99.4431 46.9703 99.6586 47.5132C99.8596 48.0126 100.162 48.465 100.546 48.8419C100.934 49.2161 101.393 49.508 101.897 49.7001C102.442 49.907 103.021 50.0104 103.603 50.0049C104.122 50.0046 104.639 49.944 105.144 49.8245C105.656 49.7054 106.148 49.515 106.607 49.2588V45.3238H103.818V46.2039Z" fill="#3B3C43"/>
<path d="M113.207 46.0698H117.013V45.1872H113.207V42.6785H117.286V41.7983H112.259V49.7976H117.488V48.9151H113.207V46.0698Z" fill="#3B3C43"/>
<path d="M125.115 41.7983H123.927L121.794 44.9288L119.634 41.7983H118.415L121.104 45.5822L118.188 49.7976H119.363L121.748 46.2502L124.12 49.7976H125.375L122.425 45.5822L125.115 41.7983Z" fill="#3B3C43"/>
<path d="M131.51 48.8322C131.111 49.0171 130.678 49.1152 130.239 49.1198C129.799 49.1244 129.364 49.0355 128.962 48.859C128.596 48.6926 128.269 48.4518 128.001 48.1519C127.727 47.8462 127.514 47.4902 127.375 47.1036C127.221 46.6852 127.144 46.2425 127.148 45.7968C127.147 45.3671 127.224 44.9409 127.375 44.5387C127.516 44.1478 127.731 43.7871 128.006 43.4757C128.279 43.169 128.611 42.9203 128.981 42.7443C129.362 42.5629 129.779 42.4703 130.2 42.4737C130.583 42.4728 130.961 42.556 131.307 42.7175C131.663 42.8806 131.97 43.1325 132.2 43.4489L133.024 42.8491C132.702 42.4179 132.266 42.0851 131.766 41.8885C131.267 41.6939 130.736 41.5946 130.2 41.596C129.386 41.5814 128.587 41.8189 127.913 42.2758C127.238 42.7327 126.722 43.3868 126.434 44.1486C126.027 45.2224 126.027 46.4077 126.434 47.4815C126.63 47.9754 126.922 48.426 127.292 48.8078C127.66 49.1832 128.101 49.4808 128.586 49.6831C129.094 49.8969 129.64 50.0047 130.191 50C130.783 50.0101 131.37 49.8946 131.914 49.6611C132.433 49.4256 132.882 49.0603 133.219 48.6005L132.507 48.0008C132.239 48.3476 131.899 48.6314 131.51 48.8322Z" fill="#3B3C43"/>
<path d="M135.757 46.0698H139.563V45.1872H135.757V42.6785H139.836V41.7983H134.808V49.7976H140.038V48.9151H135.757V46.0698Z" fill="#3B3C43"/>
<path d="M142.715 41.7983H141.767V49.7976H146.377V48.9151H142.715V41.7983Z" fill="#3B3C43"/>
<path d="M148.625 41.7983H147.674V49.7976H152.284V48.9151H148.625V41.7983Z" fill="#3B3C43"/>
<path d="M154.532 46.0698H158.341V45.1872H154.532V42.6785H158.611V41.7983H153.584V49.7976H158.814V48.9151H154.532V46.0698Z" fill="#3B3C43"/>
<path d="M166.396 48.4421H166.372L161.739 41.7983H160.542V49.7976H161.491V43.1539H161.515L166.147 49.7976H167.344V41.7983H166.396V48.4421Z" fill="#3B3C43"/>
<path d="M174.505 48.8322C173.926 49.1144 173.271 49.2007 172.638 49.078C172.006 48.9553 171.431 48.6303 170.999 48.1519C170.725 47.8462 170.512 47.4902 170.373 47.1036C170.219 46.6852 170.142 46.2425 170.146 45.7968C170.145 45.3671 170.221 44.9409 170.373 44.5387C170.514 44.1478 170.728 43.7871 171.004 43.4757C171.277 43.169 171.608 42.9203 171.979 42.7443C172.36 42.5629 172.777 42.4703 173.198 42.4737C173.581 42.4728 173.959 42.556 174.305 42.7175C174.661 42.8806 174.968 43.1325 175.198 43.4489L176.022 42.8491C175.7 42.4179 175.264 42.0851 174.764 41.8885C174.265 41.6941 173.734 41.5949 173.198 41.596C172.384 41.5814 171.585 41.8189 170.911 42.2758C170.236 42.7327 169.72 43.3868 169.431 44.1486C169.025 45.2224 169.025 46.4077 169.431 47.4815C169.628 47.9754 169.92 48.426 170.29 48.8078C170.658 49.1832 171.099 49.4808 171.584 49.6831C172.092 49.8969 172.638 50.0048 173.189 50C173.781 50.0099 174.368 49.8944 174.912 49.6611C175.431 49.4256 175.88 49.0603 176.217 48.6005L175.505 48.0008C175.237 48.3482 174.896 48.6321 174.505 48.8322Z" fill="#3B3C43"/>
<path d="M178.755 48.9151V46.0698H182.561V45.1872H178.755V42.6785H182.831V41.7983H177.804V49.7976H183.036V48.9151H178.755Z" fill="#3B3C43"/>
<path d="M46.6281 31.79C47.1778 31.79 47.7049 31.5717 48.0935 31.1831C48.4822 30.7944 48.7005 30.2673 48.7005 29.7177V7.08504L72.7716 31.222C73.0612 31.5124 73.4304 31.7105 73.8325 31.791C74.2347 31.8715 74.6517 31.8308 75.0308 31.6742C75.4098 31.5176 75.7339 31.252 75.9619 30.9111C76.1899 30.5702 76.3116 30.1693 76.3117 29.7591V2.07236C76.3117 1.52274 76.0933 0.995624 75.7047 0.606981C75.3161 0.218337 74.7889 0 74.2393 0C73.6897 0 73.1626 0.218337 72.7739 0.606981C72.3853 0.995624 72.167 1.52274 72.167 2.07236V24.7464L48.0959 0.609518C47.8063 0.319043 47.4371 0.121016 47.0349 0.0405102C46.6328 -0.0399954 46.2158 0.000640994 45.8367 0.157274C45.4577 0.313907 45.1336 0.579493 44.9056 0.920405C44.6776 1.26132 44.5558 1.66222 44.5558 2.07236V29.7177C44.5564 30.2671 44.775 30.7938 45.1635 31.1823C45.552 31.5708 46.0787 31.7894 46.6281 31.79Z" fill="#3B3C43"/>
<path d="M111.881 4.14472C112.43 4.14472 112.957 3.92639 113.346 3.53774C113.735 3.1491 113.953 2.62199 113.953 2.07236C113.953 1.52274 113.735 0.995624 113.346 0.606981C112.957 0.218338 112.43 0 111.881 0L84.6352 0C84.0856 0 83.5585 0.218338 83.1698 0.606981C82.7812 0.995624 82.5629 1.52274 82.5629 2.07236V29.7567C82.5629 30.3063 82.7812 30.8334 83.1698 31.2221C83.5585 31.6107 84.0856 31.829 84.6352 31.829C85.1849 31.829 85.712 31.6107 86.1006 31.2221C86.4893 30.8334 86.7076 30.3063 86.7076 29.7567V19.1828H108.982C109.531 19.1828 110.059 18.9644 110.447 18.5758C110.836 18.1871 111.054 17.66 111.054 17.1104C111.054 16.5608 110.836 16.0337 110.447 15.645C110.059 15.2564 109.531 15.038 108.982 15.038H86.7076V4.14472H111.881Z" fill="#3B3C43"/>
<path d="M180.756 31.79C181.306 31.79 181.833 31.5717 182.222 31.183C182.61 30.7944 182.829 30.2673 182.829 29.7177C182.829 29.168 182.61 28.6409 182.222 28.2523C181.833 27.8636 181.306 27.6453 180.756 27.6453H170.572C169.015 27.6677 167.469 27.3804 166.024 26.7999C164.578 26.2195 163.263 25.3576 162.154 24.2642C161.044 23.1709 160.164 21.868 159.562 20.4312C158.961 18.9944 158.652 17.4525 158.652 15.895C158.652 14.3375 158.961 12.7956 159.562 11.3588C160.164 9.92208 161.044 8.61915 162.154 7.52581C163.263 6.43247 164.578 5.57053 166.024 4.99009C167.469 4.40965 169.015 4.12229 170.572 4.14472H180.756C181.306 4.14472 181.833 3.92638 182.222 3.53774C182.61 3.1491 182.829 2.62198 182.829 2.07236C182.829 1.52274 182.61 0.995622 182.222 0.606979C181.833 0.218336 181.306 -1.57068e-06 180.756 -1.57068e-06H170.572C168.469 -0.026059 166.38 0.365829 164.429 1.15294C162.478 1.94005 160.702 3.10672 159.205 4.58529C157.708 6.06387 156.52 7.82492 155.708 9.76635C154.897 11.7078 154.479 13.7909 154.479 15.895C154.479 17.9991 154.897 20.0823 155.708 22.0237C156.52 23.9651 157.708 25.7262 159.205 27.2047C160.702 28.6833 162.478 29.85 164.429 30.6371C166.38 31.4242 168.469 31.8161 170.572 31.79H180.756Z" fill="#3B3C43"/>
<path d="M150.592 31.183C150.98 30.7945 151.197 30.2685 151.197 29.7201C151.197 29.1717 150.98 28.6457 150.592 28.2573L141.255 18.917C143.763 18.8653 146.148 17.8191 147.886 16.0088C149.623 14.1984 150.57 11.772 150.518 9.26346C150.466 6.75491 149.42 4.36965 147.61 2.63241C145.799 0.895177 143.373 -0.0517302 140.865 -8.40286e-07H121.026C120.477 0.000644406 119.95 0.219189 119.561 0.607693C119.173 0.996196 118.954 1.52293 118.954 2.07236V29.7177C118.954 30.2673 119.172 30.7944 119.561 31.1831C119.949 31.5717 120.476 31.79 121.026 31.79C121.576 31.79 122.103 31.5717 122.491 31.1831C122.88 30.7944 123.098 30.2673 123.098 29.7177V18.9243H135.403L147.662 31.183C148.05 31.57 148.576 31.7874 149.125 31.7874C149.673 31.7874 150.199 31.57 150.588 31.183H150.592ZM123.098 4.14472H140.865C142.275 4.14472 143.627 4.70495 144.625 5.70216C145.622 6.69938 146.182 8.05189 146.182 9.46216C146.182 10.8724 145.622 12.2249 144.625 13.2222C143.627 14.2194 142.275 14.7796 140.865 14.7796H123.098V4.14472Z" fill="#3B3C43"/>
<path d="M31.8193 1.86756C31.8193 1.83831 31.8193 1.80905 31.8193 1.77979C31.8193 1.75054 31.8193 1.70421 31.8022 1.66764C31.7852 1.63107 31.7852 1.59938 31.7778 1.56524C31.7705 1.53111 31.7608 1.50185 31.7535 1.47016C31.7461 1.43846 31.7291 1.40677 31.7193 1.37264C31.7096 1.3385 31.6974 1.30925 31.6852 1.27999C31.673 1.25073 31.6559 1.21904 31.6437 1.18978C31.6316 1.16052 31.6145 1.12639 31.5974 1.09469C31.5804 1.063 31.5633 1.03862 31.5462 1.0118C31.5292 0.984982 31.5121 0.950848 31.4926 0.921592C31.4731 0.892335 31.4487 0.86064 31.4268 0.831383L31.3731 0.758241C31.2857 0.653372 31.1886 0.557042 31.083 0.470548L31.0099 0.414472L30.9196 0.348644L30.8294 0.295007L30.7343 0.243807L30.6393 0.199922L30.5515 0.158475C30.5198 0.143846 30.4857 0.134094 30.454 0.121904L30.3589 0.0902087L30.2589 0.0633899L30.1638 0.0414472C30.1236 0.0325733 30.0829 0.0260606 30.0419 0.0219427H29.9639C29.8912 0.0106215 29.818 0.00329623 29.7445 0L2.07236 0C1.52274 0 0.995624 0.218338 0.606981 0.606981C0.218338 0.995624 0 1.52274 0 2.07236C0 2.62199 0.218338 3.1491 0.606981 3.53774C0.995624 3.92639 1.52274 4.14472 2.07236 4.14472H24.7464L6.76809 22.1304C6.55699 22.318 6.38647 22.5468 6.26698 22.8027C6.1475 23.0585 6.08158 23.3362 6.07327 23.6185C6.06496 23.9007 6.11444 24.1818 6.21866 24.4442C6.32289 24.7067 6.47966 24.9451 6.67935 25.1448C6.87905 25.3445 7.11746 25.5013 7.37993 25.6055C7.64241 25.7097 7.92342 25.7592 8.20571 25.7509C8.488 25.7426 8.76562 25.6767 9.02151 25.5572C9.2774 25.4377 9.50617 25.2672 9.69378 25.0561L27.6843 7.07041V29.7128C27.6843 30.2624 27.9027 30.7895 28.2913 31.1782C28.6799 31.5668 29.2071 31.7852 29.7567 31.7852C30.3063 31.7852 30.8334 31.5668 31.2221 31.1782C31.6107 30.7895 31.829 30.2624 31.829 29.7128V2.07236C31.8294 2.00397 31.8262 1.93561 31.8193 1.86756Z" fill="#E40038"/>
</g>
<defs>
<clipPath id="clip0_130_642">
<rect width="183.036" height="50" fill="white"/>
</clipPath>
</defs>
</svg>
