<svg xmlns="http://www.w3.org/2000/svg" width="40" height="40" fill="none" aria-hidden="true"><path fill="#F60" fill-rule="evenodd" d="M0 40h40V0H0z" clip-rule="evenodd"></path><path fill="#FEFEFE" fill-rule="evenodd" d="M8.675 29.197h-.672v-2.08h.672c.713 0 1.142.337 1.142 1.015 0 .68-.429 1.065-1.142 1.065m-.672-6.382h.507c.703 0 1.08.301 1.08.907 0 .605-.377.954-1.08.954h-.507zm3.848 2.99c1.367-.682 1.754-1.502 1.736-2.788-.021-1.654-1.261-2.847-3.79-2.847H4.062v11.673H9.9c2.125 0 3.983-1.108 3.983-3.272 0-1.434-.73-2.374-2.033-2.766Zm6.387 3.665c-.328-.255-.57-1.04.35-1.621.39.41.84.907 1.273 1.42-.634.397-1.19.545-1.623.202Zm1.132-6.07c.38 0 .64.351.64.7 0 .242-.158.587-.742.962-.354-.373-.565-.68-.565-.985 0-.323.267-.677.667-.677m4.968 8.455c-.107-.696-.48-1.5-1.065-2.377q.35-.334.717-.724l-1.497-1.651c-.218.184-.433.374-.647.56q-.462-.52-.995-1.058c1.037-.668 1.739-1.529 1.739-2.625 0-1.214-1.13-2.44-3.195-2.44-2.162 0-3.396 1.188-3.396 2.56 0 .778.496 1.542 1.017 2.144-1.018.668-1.902 1.584-1.976 2.721-.133 2.02 1.498 3.1 3.494 3.02.797-.032 1.669-.269 2.672-.876.161.281.273.538.314.746zm4.347-5.951c0-1.976.44-2.925 1.389-2.925.948 0 1.39.949 1.39 2.925s-.442 2.924-1.39 2.924c-.949 0-1.389-.948-1.389-2.924m6.986-.073c.144-3.745-1.899-5.83-5.597-5.83-3.428 0-5.42 2.37-5.42 5.903 0 3.725 1.992 5.928 5.42 5.928h5.794V29.68h-1.705c.842-.79 1.442-2.158 1.508-3.849" clip-rule="evenodd"></path></svg>