<svg xmlns="http://www.w3.org/2000/svg" id="Layer_2" data-name="Layer 2" viewBox="0 0 956.11 216.49"><defs><style>      .cls-1 {        fill: #fff;      }    </style></defs><g id="Layer_1-2" data-name="Layer 1"><g><g><g><path class="cls-1" d="M282.16,56.36c-1.56-1.49-3.63-2.71-6.23-3.65-2.6-.94-5.06-1.41-7.4-1.41-4.54,0-6.81,1.56-6.81,4.67,0,1.36.57,2.47,1.7,3.31,1.13.84,2.64,1.62,4.53,2.34,1.62.58,3.39,1.15,5.3,1.7,1.91.55,3.86,1.18,5.84,1.9,1.98.71,3.89,1.56,5.74,2.53,1.85.97,3.5,2.16,4.96,3.55,1.46,1.4,2.63,3.03,3.5,4.91.88,1.88,1.31,4.12,1.31,6.71,0,3.11-.63,5.95-1.9,8.51-1.26,2.56-3.05,4.74-5.35,6.52-2.3,1.79-5.08,3.16-8.32,4.14-3.24.97-6.88,1.46-10.9,1.46-2.53,0-5.08-.24-7.64-.73-2.56-.49-5.01-1.17-7.35-2.04-2.34-.88-4.51-1.93-6.52-3.16-2.01-1.23-3.76-2.63-5.25-4.18l9.44-11c.91.91,2.04,1.77,3.41,2.58,1.36.81,2.82,1.51,4.38,2.09s3.18,1.04,4.87,1.36c1.69.33,3.31.49,4.87.49,5.9,0,8.86-1.72,8.86-5.16,0-1.69-.88-3.02-2.63-3.99-1.75-.97-3.96-1.85-6.62-2.63-2.47-.71-5.09-1.51-7.88-2.38-2.79-.88-5.37-2.06-7.74-3.55-2.37-1.49-4.33-3.37-5.89-5.64-1.56-2.27-2.33-5.12-2.33-8.56,0-3.11.58-5.92,1.75-8.42,1.17-2.5,2.82-4.62,4.96-6.37,2.14-1.75,4.74-3.11,7.79-4.09,3.05-.97,6.45-1.46,10.22-1.46,2.33,0,4.65.21,6.96.63,2.3.42,4.48,1.02,6.52,1.8,2.04.78,3.91,1.69,5.6,2.72,1.69,1.04,3.05,2.21,4.09,3.5l-9.83,11Z"></path><path class="cls-1" d="M355.43,53.92h-18.59v48.46h-16.54v-48.46h-18.59v-15.57h53.71v15.57Z"></path><path class="cls-1" d="M363.41,70.47c0-4.61.83-8.95,2.48-13.04s3.99-7.64,7.01-10.66,6.6-5.4,10.75-7.15c4.15-1.75,8.72-2.63,13.72-2.63s9.57.88,13.72,2.63c4.15,1.75,7.72,4.14,10.7,7.15,2.98,3.02,5.3,6.57,6.96,10.66s2.48,8.43,2.48,13.04-.83,8.84-2.48,12.89c-1.65,4.06-3.97,7.59-6.96,10.61-2.99,3.02-6.55,5.4-10.7,7.15-4.15,1.75-8.73,2.63-13.72,2.63s-9.57-.88-13.72-2.63c-4.15-1.75-7.74-4.14-10.75-7.15s-5.35-6.55-7.01-10.61c-1.65-4.05-2.48-8.35-2.48-12.89ZM379.95,70.37c0,2.6.42,4.98,1.26,7.15.84,2.17,2.03,4.06,3.55,5.64,1.52,1.59,3.36,2.82,5.5,3.7,2.14.88,4.51,1.31,7.1,1.31s4.95-.44,7.05-1.31c2.11-.88,3.92-2.11,5.45-3.7,1.52-1.59,2.71-3.47,3.55-5.64.84-2.17,1.27-4.56,1.27-7.15s-.42-4.98-1.27-7.15c-.84-2.17-2.03-4.05-3.55-5.64-1.52-1.59-3.34-2.82-5.45-3.7-2.11-.88-4.46-1.31-7.05-1.31s-4.96.44-7.1,1.31-3.97,2.11-5.5,3.7c-1.52,1.59-2.71,3.47-3.55,5.64-.84,2.17-1.26,4.56-1.26,7.15Z"></path><path class="cls-1" d="M444.47,102.38V38.35h30.55c4.09,0,7.67.57,10.75,1.7,3.08,1.14,5.63,2.68,7.64,4.62,2.01,1.95,3.52,4.22,4.52,6.81,1,2.6,1.51,5.35,1.51,8.27,0,3.89-1.15,7.41-3.46,10.56-2.3,3.15-5.3,5.6-9,7.35l14.3,24.72h-18.2l-11.97-22.09h-10.12v22.09h-16.54ZM461.01,53.92v12.16h14.01c2.27,0,4.15-.45,5.64-1.36,1.49-.91,2.24-2.5,2.24-4.77s-.75-3.84-2.24-4.72c-1.49-.88-3.37-1.31-5.64-1.31h-14.01Z"></path><path class="cls-1" d="M518.72,38.35h18.29l14.99,39.51h.19l14.99-39.51h18.29l5.94,64.03h-16.74l-2.04-21.8-.39-18-.2-.97-12.36,38.92h-15.08l-12.46-38.05-.19-.97-.39,19.07-2.04,21.8h-16.74l5.94-64.03Z"></path><path class="cls-1" d="M643.85,56.36c-1.56-1.49-3.63-2.71-6.23-3.65-2.6-.94-5.06-1.41-7.4-1.41-4.54,0-6.81,1.56-6.81,4.67,0,1.36.57,2.47,1.7,3.31,1.13.84,2.64,1.62,4.53,2.34,1.62.58,3.39,1.15,5.3,1.7,1.91.55,3.86,1.18,5.84,1.9,1.98.71,3.89,1.56,5.74,2.53,1.85.97,3.5,2.16,4.96,3.55,1.46,1.4,2.63,3.03,3.5,4.91.88,1.88,1.31,4.12,1.31,6.71,0,3.11-.63,5.95-1.9,8.51-1.26,2.56-3.05,4.74-5.35,6.52-2.3,1.79-5.08,3.16-8.32,4.14-3.24.97-6.88,1.46-10.9,1.46-2.53,0-5.08-.24-7.64-.73-2.56-.49-5.01-1.17-7.35-2.04-2.34-.88-4.51-1.93-6.52-3.16-2.01-1.23-3.76-2.63-5.25-4.18l9.44-11c.91.91,2.04,1.77,3.41,2.58,1.36.81,2.82,1.51,4.38,2.09s3.18,1.04,4.87,1.36c1.69.33,3.31.49,4.87.49,5.9,0,8.86-1.72,8.86-5.16,0-1.69-.88-3.02-2.63-3.99-1.75-.97-3.96-1.85-6.62-2.63-2.47-.71-5.09-1.51-7.88-2.38-2.79-.88-5.37-2.06-7.74-3.55-2.37-1.49-4.33-3.37-5.89-5.64-1.56-2.27-2.33-5.12-2.33-8.56,0-3.11.58-5.92,1.75-8.42,1.17-2.5,2.82-4.62,4.96-6.37,2.14-1.75,4.74-3.11,7.79-4.09,3.05-.97,6.45-1.46,10.22-1.46,2.33,0,4.65.21,6.96.63,2.3.42,4.48,1.02,6.52,1.8,2.04.78,3.91,1.69,5.6,2.72,1.69,1.04,3.05,2.21,4.09,3.5l-9.83,11Z"></path><path class="cls-1" d="M669.64,38.35h16.54v23.35h24.42v-23.35h16.54v64.03h-16.54v-25.11h-24.42v25.11h-16.54V38.35Z"></path><path class="cls-1" d="M759.26,102.38h-16.54V38.35h16.54v64.03Z"></path><path class="cls-1" d="M824.26,102.38h-49.43V38.35h48.95v15.18h-32.4v9.44h31.04v14.6h-31.04v9.63h32.89v15.18Z"></path><path class="cls-1" d="M883.81,102.38h-45.35V38.35h16.54v48.46h28.8v15.57Z"></path><path class="cls-1" d="M896.17,102.38V38.35h24.13c6.08,0,11.37.84,15.86,2.53,4.49,1.69,8.21,3.97,11.16,6.86,2.94,2.89,5.14,6.28,6.6,10.17,1.46,3.89,2.19,8.04,2.19,12.46s-.73,8.56-2.19,12.46c-1.46,3.89-3.66,7.28-6.6,10.17-2.94,2.89-6.66,5.17-11.16,6.86-4.5,1.69-9.78,2.53-15.86,2.53h-24.13ZM912.62,53.92v32.89h7.59c2.4,0,4.77-.23,7.1-.68,2.33-.45,4.41-1.3,6.23-2.53,1.82-1.23,3.28-2.9,4.38-5.01,1.1-2.11,1.65-4.85,1.65-8.22s-.55-6.13-1.65-8.27c-1.1-2.14-2.56-3.81-4.38-5.01-1.82-1.2-3.89-2.03-6.23-2.48-2.34-.45-4.7-.68-7.1-.68h-7.59Z"></path></g><g><path class="cls-1" d="M247.03,178.45v-64.03h25.59c2.98,0,5.71.44,8.17,1.31,2.46.88,4.59,2.11,6.37,3.7,1.78,1.59,3.16,3.55,4.14,5.89.97,2.34,1.46,4.96,1.46,7.88,0,4.8-1.38,8.73-4.14,11.77-2.76,3.05-6.37,5.06-10.85,6.03l16.83,27.44h-6.62l-16.44-26.76h-18.68v26.76h-5.84ZM252.87,120.06v25.98h19.46c4.73,0,8.33-1.17,10.8-3.5,2.46-2.34,3.7-5.45,3.7-9.34s-1.25-7.14-3.75-9.54c-2.5-2.4-6.08-3.6-10.75-3.6h-19.46Z"></path><path class="cls-1" d="M306.68,146.63c0-4.61.88-8.95,2.63-13.04,1.75-4.09,4.12-7.64,7.1-10.66,2.98-3.02,6.47-5.4,10.46-7.15,3.99-1.75,8.25-2.63,12.8-2.63s8.81.88,12.8,2.63c3.99,1.75,7.48,4.14,10.46,7.15,2.98,3.02,5.35,6.57,7.1,10.66,1.75,4.09,2.63,8.43,2.63,13.04s-.88,8.82-2.63,12.84c-1.75,4.02-4.12,7.54-7.1,10.56-2.98,3.02-6.47,5.4-10.46,7.15-3.99,1.75-8.26,2.63-12.8,2.63s-8.81-.88-12.8-2.63c-3.99-1.75-7.48-4.14-10.46-7.15-2.99-3.02-5.35-6.54-7.1-10.56-1.75-4.02-2.63-8.3-2.63-12.84ZM312.52,146.63c0,3.76.71,7.3,2.14,10.61,1.43,3.31,3.37,6.2,5.84,8.66,2.46,2.47,5.35,4.43,8.66,5.89,3.31,1.46,6.81,2.19,10.51,2.19s7.2-.73,10.51-2.19c3.31-1.46,6.18-3.42,8.61-5.89,2.43-2.46,4.36-5.35,5.79-8.66,1.43-3.31,2.14-6.84,2.14-10.61s-.71-7.41-2.14-10.75c-1.43-3.34-3.36-6.26-5.79-8.76-2.43-2.5-5.3-4.48-8.61-5.94s-6.81-2.19-10.51-2.19-7.2.73-10.51,2.19-6.2,3.44-8.66,5.94c-2.47,2.5-4.41,5.42-5.84,8.76-1.43,3.34-2.14,6.93-2.14,10.75Z"></path><path class="cls-1" d="M386.77,146.63c0-4.61.88-8.95,2.63-13.04,1.75-4.09,4.12-7.64,7.1-10.66,2.98-3.02,6.47-5.4,10.46-7.15,3.99-1.75,8.25-2.63,12.8-2.63s8.81.88,12.8,2.63c3.99,1.75,7.48,4.14,10.46,7.15,2.98,3.02,5.35,6.57,7.1,10.66,1.75,4.09,2.63,8.43,2.63,13.04s-.88,8.82-2.63,12.84c-1.75,4.02-4.12,7.54-7.1,10.56-2.98,3.02-6.47,5.4-10.46,7.15-3.99,1.75-8.26,2.63-12.8,2.63s-8.81-.88-12.8-2.63c-3.99-1.75-7.48-4.14-10.46-7.15-2.99-3.02-5.35-6.54-7.1-10.56-1.75-4.02-2.63-8.3-2.63-12.84ZM392.6,146.63c0,3.76.71,7.3,2.14,10.61,1.43,3.31,3.37,6.2,5.84,8.66,2.46,2.47,5.35,4.43,8.66,5.89,3.31,1.46,6.81,2.19,10.51,2.19s7.2-.73,10.51-2.19c3.31-1.46,6.18-3.42,8.61-5.89,2.43-2.46,4.36-5.35,5.79-8.66,1.43-3.31,2.14-6.84,2.14-10.61s-.71-7.41-2.14-10.75c-1.43-3.34-3.36-6.26-5.79-8.76-2.43-2.5-5.3-4.48-8.61-5.94s-6.81-2.19-10.51-2.19-7.2.73-10.51,2.19-6.2,3.44-8.66,5.94c-2.47,2.5-4.41,5.42-5.84,8.76-1.43,3.34-2.14,6.93-2.14,10.75Z"></path><path class="cls-1" d="M476.39,178.45h-5.84v-64.03h40.67v5.55h-34.84v22.77h33.96v5.55h-33.96v30.17Z"></path><path class="cls-1" d="M534.48,178.45h-5.84v-64.03h5.84v64.03Z"></path><path class="cls-1" d="M556.96,114.42h6.33l38.15,54.78v-54.78h5.84v64.03h-6.33l-38.14-54.88v54.69l-5.84.19v-64.03Z"></path><path class="cls-1" d="M689.78,149.35c-.07,4.02-.83,7.88-2.29,11.58-1.46,3.7-3.52,6.94-6.18,9.73-2.66,2.79-5.94,5.01-9.83,6.67s-8.34,2.48-13.33,2.48c-4.54,0-8.81-.88-12.8-2.63-3.99-1.75-7.48-4.12-10.46-7.1-2.98-2.98-5.35-6.5-7.1-10.56-1.75-4.05-2.63-8.35-2.63-12.89s.88-8.95,2.63-13.04c1.75-4.09,4.12-7.64,7.1-10.66,2.98-3.02,6.47-5.4,10.46-7.15,3.99-1.75,8.25-2.63,12.8-2.63,5.77,0,11.08,1.4,15.91,4.18,4.83,2.79,8.74,6.52,11.73,11.19l-4.87,3.21c-2.34-3.7-5.48-6.75-9.44-9.15-3.96-2.4-8.43-3.6-13.43-3.6-3.7,0-7.2.73-10.51,2.19s-6.2,3.44-8.66,5.94c-2.47,2.5-4.41,5.42-5.84,8.76-1.43,3.34-2.14,6.93-2.14,10.75s.71,7.3,2.14,10.61c1.43,3.31,3.37,6.2,5.84,8.66,2.46,2.47,5.35,4.43,8.66,5.89,3.31,1.46,6.81,2.19,10.51,2.19s6.84-.54,9.83-1.61c2.98-1.07,5.58-2.55,7.79-4.43,2.21-1.88,3.99-4.14,5.35-6.76,1.36-2.63,2.24-5.53,2.63-8.71h-25.5v-5.55h31.62v2.43Z"></path></g></g><path class="cls-1" d="M94.28,21.26c18.51,6.85,51.44,20.41,73.88,33.92.69,9.6,1.1,29.76-4.55,52.57-4.57,18.43-12.18,34.82-22.6,48.74-11.87,15.84-27.57,28.6-46.72,38-19.15-9.39-34.85-22.16-46.72-38-10.43-13.91-18.03-30.31-22.6-48.74-5.66-22.81-5.24-42.98-4.55-52.57,22.43-13.52,55.36-27.08,73.88-33.93M94.28,0l-2.15.77c-2.27.81-56.07,20.06-88.09,41.09l-2.39,1.57-.43,2.83c-.19,1.24-4.51,30.7,4.33,66.32,5.22,21.04,13.97,39.85,26.01,55.92,15.07,20.11,35.3,35.87,60.13,46.85l2.59,1.15,2.59-1.15c24.83-10.98,45.06-26.75,60.13-46.85,12.04-16.06,20.79-34.88,26.01-55.92,8.84-35.63,4.51-65.09,4.33-66.32l-.43-2.83-2.39-1.57C152.5,20.83,98.71,1.57,96.43.77l-2.15-.77h0Z"></path></g></g></svg>