<?xml version="1.0" encoding="UTF-8"?>
<svg xmlns="http://www.w3.org/2000/svg" width="236" height="126" viewBox="0 0 236 126" fill="none">
  <g id="Layer_1" clip-path="url(#clip0_1202_2261)">
    <g id="Group">
      <path id="Vector" d="M24.4425 37.9195C32.1915 37.9195 38.4733 31.7281 38.4733 24.0906C38.4733 16.4531 32.1915 10.2617 24.4425 10.2617C16.6934 10.2617 10.4116 16.4531 10.4116 24.0906C10.4116 31.7281 16.6934 37.9195 24.4425 37.9195Z" fill="#FDD407"></path>
      <g id="Group_2">
        <path id="Vector_2" d="M26.4036 8.61174L23.5974 8.51745L23.5496 0.440127C23.5496 0.188693 23.7568 -0.0155972 24.0119 0.000117479L26.5311 0.0786907C26.7862 0.0786907 26.9776 0.298696 26.9616 0.55013L26.4036 8.59603V8.61174Z" fill="#FDD407"></path>
        <path id="Vector_3" d="M36.9426 14.5046L35.0293 12.4774L40.7851 6.74158C40.9605 6.56872 41.2475 6.56872 41.4229 6.74158L43.1449 8.54877C43.3203 8.73734 43.3043 9.02021 43.113 9.17735L36.9426 14.4889V14.5046Z" fill="#FDD407"></path>
        <path id="Vector_4" d="M40.1633 26.0235L40.259 23.2577L48.4543 23.2106C48.7094 23.2106 48.9167 23.4149 48.9007 23.6663L48.821 26.1492C48.821 26.4006 48.5978 26.5892 48.3427 26.5735L40.1793 26.0235H40.1633Z" fill="#FDD407"></path>
        <path id="Vector_5" d="M34.1685 36.4109L36.2253 34.5251L42.0449 40.1981C42.2203 40.371 42.2203 40.6539 42.0449 40.8267L40.2113 42.5239C40.02 42.6968 39.733 42.681 39.5735 42.4925L34.1844 36.4109H34.1685Z" fill="#FDD407"></path>
        <path id="Vector_6" d="M22.4813 39.5852L25.2875 39.6795L25.3353 47.7568C25.3353 48.0083 25.1281 48.2125 24.873 48.1968L22.3538 48.1183C22.0987 48.1183 21.9073 47.8982 21.9233 47.6468L22.4813 39.6009V39.5852Z" fill="#FDD407"></path>
        <path id="Vector_7" d="M11.9582 33.6765L13.8715 35.7037L8.11568 41.4395C7.9403 41.6124 7.6533 41.6124 7.47792 41.4395L5.75595 39.6324C5.58056 39.4438 5.59651 39.1609 5.78784 39.0038L11.9582 33.6922V33.6765Z" fill="#FDD407"></path>
        <path id="Vector_8" d="M8.73753 22.1577L8.64186 24.9235L0.446566 24.9707C0.19146 24.9707 -0.0158143 24.7664 0.000129892 24.5149L0.0798507 22.032C0.0798507 21.7806 0.303069 21.592 0.558175 21.6077L8.72158 22.1577H8.73753Z" fill="#FDD407"></path>
        <path id="Vector_9" d="M14.7164 11.786L12.6597 13.6718L6.84004 7.99878C6.66465 7.82592 6.66465 7.54306 6.84004 7.37019L8.67361 5.67301C8.86494 5.50015 9.15194 5.51587 9.31138 5.70444L14.7005 11.786H14.7164Z" fill="#FDD407"></path>
      </g>
      <g id="Group_3">
        <path id="Vector_10" d="M32.3509 10.576L29.7998 9.4131L32.9408 1.96436C33.0365 1.72864 33.3075 1.63435 33.5467 1.72864L35.8267 2.7658C36.0499 2.87581 36.1456 3.14295 36.034 3.36296L32.3509 10.576Z" fill="#FDD407"></path>
        <path id="Vector_11" d="M39.7331 20.0519L38.7605 17.459L46.334 14.3789C46.5731 14.2846 46.8282 14.3946 46.9239 14.6303L47.7849 16.9561C47.8646 17.1918 47.753 17.4432 47.4979 17.5218L39.7171 20.0519H39.7331Z" fill="#FDD407"></path>
        <path id="Vector_12" d="M38.1545 31.8851L39.3344 29.3707L46.8919 32.4665C47.1311 32.5608 47.2268 32.8279 47.1311 33.0637L46.0788 35.3109C45.9672 35.5309 45.6961 35.6252 45.4729 35.5152L38.1545 31.8851Z" fill="#FDD407"></path>
        <path id="Vector_13" d="M28.5562 39.1609L31.1869 38.2023L34.312 45.6667C34.4077 45.9024 34.2961 46.1539 34.0569 46.2482L31.6972 47.0968C31.458 47.1753 31.2029 47.0653 31.1232 46.8139L28.5562 39.1451V39.1609Z" fill="#FDD407"></path>
        <path id="Vector_14" d="M16.5343 37.6051L19.0854 38.768L15.9444 46.2167C15.8487 46.4524 15.5777 46.5467 15.3385 46.4524L13.0585 45.4153C12.8353 45.3053 12.7396 45.0381 12.8512 44.8181L16.5343 37.6051Z" fill="#FDD407"></path>
        <path id="Vector_15" d="M9.15211 28.1449L10.1247 30.7378L2.55123 33.8179C2.31207 33.9122 2.05696 33.8022 1.9613 33.5665L1.10031 31.2407C1.02059 31.005 1.1322 30.7535 1.38731 30.675L9.16806 28.1449H9.15211Z" fill="#FDD407"></path>
        <path id="Vector_16" d="M10.7305 16.296L9.55064 18.8104L1.99311 15.7146C1.75394 15.6203 1.65828 15.3532 1.75394 15.1174L2.80626 12.8703C2.91787 12.6502 3.18892 12.556 3.41214 12.666L10.7305 16.296Z" fill="#FDD407"></path>
        <path id="Vector_17" d="M20.3449 9.02022L17.7142 9.97881L14.5891 2.51436C14.4934 2.27864 14.605 2.0272 14.8442 1.93291L17.2039 1.08432C17.4431 1.00575 17.6982 1.11575 17.7779 1.36719L20.3449 9.03593V9.02022Z" fill="#FDD407"></path>
      </g>
    </g>
    <g id="Group_4">
      <path id="Vector_18" d="M48.8848 81.7004C40.6576 81.7004 33.977 75.1003 33.977 67.0072C33.977 63.7543 35.0771 60.5957 37.102 58.0185C36.1932 57.4999 35.3163 56.9342 34.5031 56.337C33.6581 57.4056 32.6855 58.3642 31.6013 59.2128C32.4623 60.8942 32.9247 62.7643 32.9247 64.65C32.9247 71.2973 27.4399 76.7032 20.6955 76.7032C13.9511 76.7032 8.46631 71.2973 8.46631 64.65C8.46631 62.7643 8.92869 60.91 9.78968 59.2128C5.62825 55.9441 3.17285 50.9469 3.17285 45.7139C3.17285 36.1908 11.0333 28.4278 20.7114 28.4278C22.5131 28.4278 24.2989 28.7107 26.0527 29.2607C28.3487 22.472 33.4827 17.0975 40.2271 14.4261C43.1767 13.2632 46.254 12.666 49.4109 12.666C59.5355 12.666 68.512 18.6533 72.2908 27.9092C76.9784 39.4123 72.0197 52.5969 61.0023 58.3799C62.8359 60.8785 63.8404 63.9115 63.8404 67.0072C63.8404 75.116 57.1438 81.7004 48.9326 81.7004H48.8848Z" fill="url(#paint0_radial_1202_2261)"></path>
      <path id="Vector_19" d="M49.3791 13.4675C58.834 13.4675 67.7787 19.0462 71.5096 28.2235C76.2131 39.7738 70.9516 52.8012 59.7428 58.1285C61.7837 60.5328 63.0114 63.6443 63.0114 67.023C63.0114 74.7074 56.6975 80.9304 48.9008 80.9304C41.1041 80.9304 34.7902 74.7074 34.7902 67.023C34.7902 63.4872 36.1455 60.2657 38.3617 57.7985C36.9586 57.0756 35.6193 56.2113 34.3757 55.2213C33.3393 56.6827 32.0638 57.9556 30.5969 59.0085C31.5695 60.6742 32.1435 62.5914 32.1435 64.65C32.1435 70.873 27.0254 75.9174 20.7115 75.9174C14.3976 75.9174 9.27955 70.873 9.27955 64.65C9.27955 62.5914 9.85354 60.6585 10.8261 59.0085C6.68066 56.007 3.98609 51.1826 3.98609 45.7296C3.98609 36.6151 11.4798 29.2292 20.7275 29.2292C22.7843 29.2292 24.7454 29.6064 26.579 30.2821C28.5879 23.6505 33.5147 17.9461 40.5301 15.1646C43.4479 14.0175 46.4454 13.4675 49.411 13.4675M49.3791 11.896C46.1265 11.896 42.9377 12.5089 39.9083 13.7032C33.1799 16.359 28.0299 21.6391 25.5426 28.3021C23.9641 27.8621 22.3378 27.6578 20.7115 27.6578C10.6029 27.6578 2.37573 35.7665 2.37573 45.7296C2.37573 50.994 4.75141 56.0227 8.80123 59.4485C8.05185 61.0828 7.66919 62.8743 7.66919 64.6658C7.66919 71.7531 13.5207 77.5046 20.6956 77.5046C26.6427 77.5046 31.6652 73.5602 33.2277 68.1858C33.8336 76.1846 40.6258 82.5019 48.8848 82.5019C57.1439 82.5019 64.5898 75.556 64.5898 67.023C64.5898 64.0529 63.7129 61.1457 62.1026 58.6628C72.9286 52.5026 77.7119 39.2395 72.9765 27.6421C69.0861 18.0876 59.8066 11.9117 49.3632 11.9117L49.3791 11.896ZM32.5899 59.4328C33.3233 58.8042 34.0249 58.1285 34.6467 57.4056C35.0772 57.7042 35.5077 57.987 35.9541 58.2542C34.8859 59.7785 34.1046 61.4757 33.6582 63.2672C33.5147 61.9471 33.148 60.6585 32.6059 59.4328H32.5899Z" fill="white"></path>
    </g>
    <g id="Group_5">
      <path id="Vector_20" d="M67.3321 94.1464C67.1089 93.9264 66.9973 93.5964 66.9973 93.1407V60.2814C66.9973 59.4328 67.364 59.0085 68.0815 59.0085H76.0217C76.7392 59.0085 77.1059 59.3856 77.1059 60.1399V64.0843C77.1059 64.3515 77.2016 64.5243 77.4088 64.5872C77.6161 64.65 77.8234 64.5558 78.0466 64.2886C78.9554 63.0786 79.9759 62.0414 81.1398 61.1457C82.2878 60.25 83.4836 59.5585 84.7113 59.0714C85.939 58.5842 87.087 58.3328 88.1712 58.3328C89.7975 58.3328 90.6106 58.7099 90.6106 59.4642V67.2273C90.6106 67.9344 90.2758 68.233 89.5902 68.0916C88.777 67.8716 87.932 67.7301 87.071 67.6515C86.21 67.5887 85.4607 67.5573 84.8229 67.5573C84.0097 67.5573 83.1647 67.7144 82.2718 68.0287C81.3949 68.343 80.5817 68.783 79.8643 69.3644C79.1468 69.9459 78.5568 70.5745 78.0944 71.2345C77.648 71.9102 77.4088 72.6174 77.4088 73.3717V92.9207C77.4088 93.9421 76.8189 94.4607 75.639 94.4607H68.3685C67.8742 94.4607 67.5075 94.3507 67.2843 94.1307L67.3321 94.1464Z" fill="#0F3A1E"></path>
      <path id="Vector_21" d="M101.182 92.8107C98.4393 91.255 96.3027 89.1021 94.7721 86.352C93.2255 83.6019 92.4602 80.4747 92.4602 76.9546C92.4602 73.246 93.2574 70.0088 94.8359 67.2116C96.4144 64.4301 98.5987 62.2457 101.357 60.69C104.115 59.1342 107.24 58.3485 110.732 58.3485C114.399 58.3485 117.588 59.1342 120.315 60.7214C123.025 62.3086 125.146 64.4929 126.66 67.2744C128.175 70.0559 128.94 73.2617 128.94 76.8761C128.94 80.4904 128.175 83.6019 126.629 86.352C125.082 89.1021 122.945 91.255 120.219 92.8107C117.477 94.3665 114.304 95.1522 110.684 95.1522C107.065 95.1522 103.956 94.3665 101.214 92.8107H101.182ZM114.941 87.0277C116.073 86.1634 116.919 84.8591 117.493 83.1148C118.067 81.3705 118.338 79.249 118.338 76.7504C118.338 74.1103 118.051 71.9417 117.493 70.2288C116.934 68.5159 116.073 67.2116 114.941 66.3158C113.809 65.4201 112.406 64.9801 110.732 64.9801C109.058 64.9801 107.719 65.4201 106.555 66.3158C105.407 67.2116 104.53 68.5159 103.94 70.2288C103.35 71.9417 103.063 74.126 103.063 76.7504C103.063 79.3747 103.35 81.4176 103.94 83.1462C104.53 84.8591 105.407 86.1634 106.555 87.0277C107.703 87.892 109.106 88.332 110.732 88.332C112.359 88.332 113.809 87.892 114.941 87.0277Z" fill="#0F3A1E"></path>
      <path id="Vector_22" d="M152.57 65.7029C151.262 64.9957 149.652 64.6343 147.755 64.6343C146.08 64.6343 144.661 64.9643 143.513 65.6086C142.365 66.2529 141.775 67.1329 141.775 68.2487C141.775 68.8301 141.999 69.3801 142.461 69.883C142.907 70.4016 143.96 70.8573 145.586 71.2502L153.399 73.1202C157.162 73.9688 159.824 75.3517 161.419 77.2689C162.997 79.1861 163.794 81.3232 163.794 83.6962C163.794 86.0691 163.109 88.1591 161.722 89.8563C160.334 91.5535 158.421 92.8578 155.982 93.7692C153.542 94.6807 150.736 95.1364 147.563 95.1364C143.529 95.1364 140.117 94.4293 137.311 93.0307C134.505 91.6321 132.528 89.872 131.396 87.782C131.22 87.4677 131.125 87.1691 131.125 86.8862C131.125 86.6034 131.268 86.3834 131.539 86.2577L136.163 83.9162C136.61 83.6962 136.96 83.5862 137.215 83.6176C137.471 83.649 137.678 83.759 137.869 83.979C138.459 84.7805 139.161 85.5348 139.974 86.2577C140.787 86.9648 141.807 87.5463 143.035 87.9705C144.263 88.3948 145.793 88.5834 147.659 88.5363C148.918 88.5363 150.066 88.3948 151.087 88.0963C152.107 87.8134 152.904 87.3891 153.494 86.8234C154.084 86.2734 154.371 85.6134 154.371 84.8433C154.371 84.0733 154.052 83.429 153.415 82.8633C152.777 82.3133 151.597 81.8261 149.891 81.4175L142.892 79.9404C139.495 79.1861 136.928 77.9917 135.191 76.3574C133.453 74.7231 132.576 72.6016 132.576 69.9616C132.576 67.6829 133.182 65.6715 134.377 63.9429C135.573 62.2142 137.327 60.8314 139.639 59.8256C141.951 58.8199 144.709 58.317 147.93 58.317C151.374 58.317 154.339 58.9456 156.859 60.1871C159.378 61.4442 161.164 62.9371 162.264 64.6657C162.439 64.9329 162.583 65.2157 162.678 65.4986C162.774 65.7815 162.614 66.0486 162.2 66.2686L157.305 68.6101C156.986 68.7358 156.699 68.783 156.46 68.7044C156.205 68.6415 155.966 68.4687 155.743 68.2015C154.977 67.2272 153.925 66.3786 152.617 65.6558L152.57 65.7029Z" fill="#0F3A1E"></path>
      <path id="Vector_23" d="M183.358 66.1115C182.864 66.1115 182.608 66.3787 182.608 66.913V83.0362C182.608 84.5605 182.975 85.6291 183.693 86.2891C184.41 86.9334 185.574 87.2634 187.153 87.2634H190.82C191.139 87.2634 191.378 87.3734 191.569 87.5935C191.744 87.8135 191.84 88.0806 191.84 88.3949L191.776 92.4807C191.776 93.3293 191.282 93.8636 190.278 94.0836C189.464 94.1779 188.588 94.2565 187.663 94.3193C186.738 94.3822 185.813 94.4293 184.873 94.445C183.948 94.4607 183.055 94.4765 182.194 94.4765C179.117 94.4765 176.677 93.7536 174.86 92.3078C173.042 90.8621 172.149 88.7092 172.149 85.8491V67.1173C172.149 66.4415 171.862 66.1115 171.272 66.1115H167.127C166.266 66.1115 165.835 65.7344 165.835 64.9801V60.03C165.835 59.3542 166.25 59.0242 167.063 59.0242H171.75C172.165 59.0242 172.388 58.7728 172.436 58.2856L173.393 48.1183C173.441 47.364 173.775 46.9868 174.413 46.9868H181.811C182.529 46.9868 182.895 47.4111 182.895 48.2597V58.3014C182.895 58.7414 183.119 58.9771 183.581 58.9771H190.708C191.521 58.9771 191.936 59.3385 191.936 60.0457V64.9958C191.936 65.7501 191.489 66.1273 190.581 66.1273H183.39L183.358 66.1115Z" fill="#0F3A1E"></path>
      <path id="Vector_24" d="M224.127 65.3416C222.82 64.6344 221.209 64.273 219.312 64.273C217.638 64.273 216.219 64.603 215.071 65.2473C213.923 65.8916 213.333 66.7716 213.333 67.8873C213.333 68.4688 213.556 69.0188 214.018 69.5217C214.465 70.0402 215.517 70.496 217.143 70.8888L224.956 72.7589C228.719 73.6075 231.382 74.9904 232.976 76.9075C234.554 78.8247 235.352 80.9619 235.352 83.3348C235.352 85.7077 234.666 87.7978 233.279 89.495C231.892 91.1922 229.979 92.4965 227.539 93.4079C225.1 94.3194 222.293 94.7751 219.121 94.7751C215.087 94.7751 211.675 94.0679 208.868 92.6693C206.062 91.2707 204.085 89.5107 202.953 87.4206C202.778 87.1064 202.682 86.8078 202.682 86.5249C202.682 86.242 202.826 86.022 203.097 85.8963L207.72 83.5548C208.167 83.3348 208.518 83.2248 208.773 83.2563C209.028 83.2877 209.235 83.3977 209.427 83.6177C210.016 84.4191 210.718 85.1734 211.531 85.8963C212.344 86.6035 213.365 87.1849 214.592 87.6092C215.82 88.0335 217.351 88.2221 219.216 88.1749C220.476 88.1749 221.624 88.0335 222.644 87.7349C223.665 87.4521 224.462 87.0278 225.052 86.462C225.642 85.912 225.929 85.252 225.929 84.482C225.929 83.712 225.61 83.0677 224.972 82.502C224.334 81.9519 223.154 81.4648 221.448 81.0562L214.449 79.579C211.053 78.8247 208.486 77.6304 206.748 75.9961C205.01 74.3618 204.133 72.2403 204.133 69.6002C204.133 67.3216 204.739 65.3101 205.935 63.5815C207.131 61.8529 208.884 60.47 211.196 59.4643C213.508 58.4586 216.267 57.9557 219.487 57.9557C222.931 57.9557 225.897 58.5843 228.416 59.8257C230.935 61.0829 232.721 62.5758 233.821 64.3044C233.996 64.5715 234.14 64.8544 234.236 65.1373C234.331 65.4201 234.172 65.6873 233.757 65.9073L228.862 68.2488C228.544 68.3745 228.257 68.4216 228.017 68.3431C227.762 68.2802 227.523 68.1073 227.3 67.8402C226.535 66.8659 225.482 66.0173 224.175 65.2944L224.127 65.3416Z" fill="#0F3A1E"></path>
    </g>
    <path id="Vector_25" d="M41.407 98.0436C40.0836 98.0436 39.0154 96.9907 39.0154 95.6864V74.8802C39.0154 74.5974 39.1908 74.3459 39.4618 74.2516L55.4219 69.0658C55.693 68.9715 55.8843 68.7201 55.8843 68.4372L55.8524 61.4442C55.8524 61.0042 55.406 60.6899 54.9755 60.8313L39.8604 65.75C39.4299 65.8914 38.9835 65.5771 38.9835 65.1214V52.8169C38.9835 52.3769 39.2705 51.9683 39.701 51.8268L62.1822 43.8595C62.6127 43.7024 62.8997 43.3095 62.8997 42.8695V33.4093C62.8997 32.6707 62.1504 32.1678 61.4488 32.4193L27.8066 44.7081C27.3921 44.8653 27.1051 45.2581 27.1051 45.6981V61.9628C27.1051 62.3556 26.7065 62.6385 26.3238 62.5128L18.3836 59.747C18.001 59.6213 17.6024 59.8884 17.6024 60.297L17.6343 64.0057C17.6343 64.2414 17.7937 64.4614 18.0169 64.54L26.7065 67.5729C26.9456 67.6515 27.0891 67.8715 27.0891 68.1229V95.7021C27.0891 97.0064 26.0209 98.0593 24.6975 98.0593H17.5864V101.658H235.288V98.0593H41.407V98.0436Z" fill="#0F3A1E"></path>
    <g id="Group_6">
      <path id="Vector_26" d="M37.2933 105.901C37.5165 105.901 37.6122 106.027 37.6122 106.278V125.324C37.6122 125.45 37.5643 125.544 37.4846 125.623C37.4049 125.701 37.2933 125.733 37.1498 125.733H34.9017C34.7741 125.733 34.6625 125.733 34.5828 125.686C34.4871 125.654 34.3914 125.576 34.2639 125.434L25.0003 112.454C24.9206 112.344 24.8568 112.297 24.7931 112.328C24.7293 112.344 24.6974 112.391 24.6974 112.485V125.308C24.7133 125.591 24.5698 125.733 24.235 125.733H21.8434C21.5245 125.733 21.3491 125.591 21.3491 125.308V106.372C21.3491 106.074 21.4926 105.917 21.7796 105.917H24.4901C24.6655 105.917 24.809 105.932 24.8887 105.979C24.9844 106.027 25.0801 106.121 25.1917 106.262L33.9131 118.661C34.0247 118.803 34.1204 118.865 34.2001 118.834C34.2798 118.803 34.3277 118.724 34.3277 118.583V106.341C34.3277 106.058 34.4712 105.917 34.7582 105.917H37.2773L37.2933 105.901Z" fill="#12AA4B"></path>
      <path id="Vector_27" d="M63.7765 122.92C63.1547 124.004 62.2778 124.79 61.1139 125.277C59.9499 125.764 58.5469 126 56.9046 126C55.0232 126 53.5244 125.701 52.3765 125.12C51.2285 124.539 50.3994 123.659 49.8892 122.496C49.363 121.333 49.1079 119.887 49.1079 118.174V106.388C49.1079 106.074 49.2355 105.901 49.4906 105.901H52.7432C52.9983 105.901 53.1258 106.042 53.1258 106.325V118.74C53.1258 120.248 53.4766 121.364 54.1622 122.056C54.8638 122.747 55.8682 123.093 57.2075 123.093C58.0526 123.093 58.802 122.951 59.4238 122.653C60.0616 122.354 60.5399 121.883 60.8906 121.223C61.2255 120.563 61.4009 119.714 61.4009 118.661V106.341C61.4009 106.042 61.5284 105.885 61.7835 105.885H64.3505C64.5897 105.885 64.7013 106.027 64.7013 106.31V118.63C64.7013 120.39 64.3984 121.82 63.7765 122.904V122.92Z" fill="#12AA4B"></path>
      <path id="Vector_28" d="M91.8382 125.528C91.7584 125.654 91.6468 125.733 91.4874 125.733H88.187C87.9319 125.733 87.7565 125.591 87.6449 125.308L84.5198 117.514C84.4241 117.278 84.185 117.168 83.7864 117.168H80.5338C80.4062 117.168 80.3265 117.2 80.2786 117.263C80.2308 117.325 80.2149 117.388 80.2149 117.467V125.183C80.2149 125.56 80.0076 125.748 79.5931 125.748H76.7231C76.5318 125.748 76.3883 125.701 76.3245 125.623C76.2448 125.544 76.2129 125.418 76.2129 125.261V106.372C76.2129 106.074 76.3404 105.917 76.6115 105.917H84.7749C87.0868 105.917 88.8885 106.372 90.18 107.3C91.4715 108.211 92.1252 109.531 92.1252 111.26C92.1252 112.202 91.9498 113.02 91.5831 113.727C91.2163 114.434 90.754 115.015 90.18 115.455C89.606 115.911 88.9842 116.257 88.3305 116.493C88.171 116.524 88.1391 116.65 88.2188 116.838L91.8541 125.088C91.9179 125.246 91.9179 125.403 91.8541 125.528H91.8382ZM86.9911 113.711C87.6289 113.224 87.9478 112.517 87.9478 111.542C87.9478 110.568 87.6449 109.83 87.023 109.342C86.4172 108.855 85.5721 108.604 84.5039 108.604H80.6773C80.3584 108.604 80.183 108.73 80.183 108.981V114.025C80.183 114.293 80.2946 114.418 80.5338 114.418H84.169C85.3967 114.418 86.3374 114.183 86.9752 113.695L86.9911 113.711Z" fill="#12AA4B"></path>
      <path id="Vector_29" d="M112.677 108.997C112.04 108.635 111.179 108.462 110.078 108.462C108.867 108.462 107.942 108.698 107.32 109.154C106.698 109.61 106.379 110.238 106.379 110.992C106.379 111.244 106.443 111.511 106.555 111.794C106.666 112.077 106.906 112.36 107.256 112.643C107.607 112.925 108.117 113.161 108.787 113.381L112.964 114.607C114.623 115.094 115.818 115.801 116.552 116.76C117.285 117.718 117.652 118.818 117.652 120.091C117.652 121.364 117.333 122.354 116.711 123.25C116.089 124.146 115.181 124.821 114.033 125.293C112.869 125.764 111.497 126 109.887 126C108.707 126 107.623 125.874 106.587 125.607C105.55 125.34 104.657 124.947 103.876 124.428C103.095 123.91 102.457 123.297 101.963 122.59C101.867 122.448 101.835 122.323 101.867 122.197C101.899 122.087 101.979 121.977 102.122 121.867L103.828 120.688C104.052 120.563 104.211 120.516 104.323 120.531C104.434 120.547 104.546 120.61 104.641 120.72C105.088 121.286 105.534 121.757 105.981 122.118C106.427 122.48 106.937 122.763 107.511 122.936C108.085 123.108 108.787 123.203 109.632 123.203C110.892 123.203 111.912 122.998 112.661 122.574C113.427 122.15 113.793 121.506 113.793 120.61C113.793 120.248 113.714 119.934 113.57 119.636C113.411 119.337 113.172 119.07 112.805 118.818C112.454 118.567 111.944 118.331 111.274 118.127L107.177 116.901C106.124 116.587 105.263 116.147 104.594 115.597C103.924 115.063 103.398 114.418 103.063 113.711C102.712 113.004 102.553 112.265 102.553 111.495C102.553 110.364 102.856 109.342 103.478 108.462C104.083 107.582 104.96 106.891 106.076 106.388C107.193 105.885 108.5 105.634 109.999 105.634C110.971 105.634 111.896 105.744 112.757 105.964C113.618 106.184 114.399 106.498 115.085 106.907C115.77 107.315 116.36 107.802 116.807 108.368C116.871 108.462 116.934 108.557 116.966 108.651C116.998 108.745 116.95 108.855 116.807 108.981L114.878 110.395C114.782 110.458 114.702 110.49 114.623 110.458C114.543 110.427 114.431 110.348 114.288 110.207C113.857 109.751 113.315 109.342 112.693 108.981L112.677 108.997Z" fill="#12AA4B"></path>
      <path id="Vector_30" d="M128.813 105.901H141.967C142.206 105.901 142.317 106.027 142.317 106.294V108.321C142.317 108.667 142.158 108.824 141.823 108.824H132.878C132.575 108.824 132.416 108.95 132.416 109.201V113.868C132.416 114.135 132.544 114.261 132.799 114.261H138.985C139.256 114.261 139.384 114.387 139.384 114.654V116.823C139.384 116.917 139.352 116.995 139.304 117.043C139.256 117.105 139.144 117.137 139.001 117.137H132.767C132.528 117.137 132.416 117.247 132.416 117.451V122.417C132.416 122.637 132.512 122.731 132.719 122.731H142.206C142.493 122.731 142.636 122.857 142.636 123.108V125.277C142.636 125.387 142.604 125.481 142.525 125.56C142.445 125.638 142.333 125.686 142.174 125.686H128.924C128.574 125.686 128.414 125.528 128.414 125.198V106.309C128.414 106.011 128.542 105.854 128.813 105.854V105.901Z" fill="#12AA4B"></path>
      <path id="Vector_31" d="M168.944 125.528C168.864 125.654 168.753 125.733 168.593 125.733H165.293C165.038 125.733 164.862 125.591 164.751 125.308L161.626 117.514C161.53 117.278 161.291 117.168 160.892 117.168H157.64C157.512 117.168 157.432 117.2 157.385 117.263C157.337 117.325 157.321 117.388 157.321 117.467V125.183C157.321 125.56 157.114 125.748 156.699 125.748H153.829C153.638 125.748 153.494 125.701 153.43 125.623C153.351 125.544 153.319 125.418 153.319 125.261V106.372C153.319 106.074 153.446 105.917 153.717 105.917H161.881C164.193 105.917 165.994 106.372 167.286 107.3C168.577 108.211 169.231 109.531 169.231 111.26C169.231 112.202 169.056 113.02 168.689 113.727C168.322 114.434 167.86 115.015 167.286 115.455C166.712 115.911 166.09 116.257 165.436 116.493C165.277 116.524 165.245 116.65 165.325 116.838L168.96 125.088C169.024 125.246 169.024 125.403 168.96 125.528H168.944ZM164.113 113.711C164.751 113.224 165.07 112.517 165.07 111.542C165.07 110.568 164.767 109.83 164.145 109.342C163.539 108.855 162.694 108.604 161.626 108.604H157.799C157.48 108.604 157.305 108.73 157.305 108.981V114.025C157.305 114.293 157.416 114.418 157.656 114.418H161.291C162.519 114.418 163.459 114.183 164.097 113.695L164.113 113.711Z" fill="#12AA4B"></path>
      <path id="Vector_32" d="M183.693 105.901C183.948 105.901 184.075 106.042 184.075 106.325V125.136C184.075 125.356 184.027 125.497 183.932 125.591C183.836 125.686 183.661 125.717 183.437 125.717H180.615C180.392 125.717 180.249 125.67 180.185 125.591C180.105 125.513 180.073 125.387 180.073 125.23V106.341C180.073 106.042 180.201 105.885 180.472 105.885H183.693V105.901Z" fill="#12AA4B"></path>
      <path id="Vector_33" d="M196.193 105.901H209.347C209.586 105.901 209.697 106.027 209.697 106.294V108.321C209.697 108.667 209.538 108.824 209.203 108.824H200.259C199.956 108.824 199.796 108.95 199.796 109.201V113.868C199.796 114.135 199.924 114.261 200.179 114.261H206.365C206.636 114.261 206.764 114.387 206.764 114.654V116.823C206.764 116.917 206.732 116.995 206.684 117.043C206.636 117.105 206.525 117.137 206.381 117.137H200.147C199.908 117.137 199.796 117.247 199.796 117.451V122.417C199.796 122.637 199.892 122.731 200.099 122.731H209.586C209.873 122.731 210.016 122.857 210.016 123.108V125.277C210.016 125.387 209.984 125.481 209.905 125.56C209.825 125.638 209.713 125.686 209.554 125.686H196.304C195.954 125.686 195.794 125.528 195.794 125.198V106.309C195.794 106.011 195.922 105.854 196.193 105.854V105.901Z" fill="#12AA4B"></path>
      <path id="Vector_34" d="M230.425 108.997C229.787 108.635 228.926 108.462 227.826 108.462C226.614 108.462 225.689 108.698 225.068 109.154C224.446 109.61 224.127 110.238 224.127 110.992C224.127 111.244 224.191 111.511 224.302 111.794C224.414 112.077 224.653 112.36 225.004 112.643C225.355 112.925 225.865 113.161 226.535 113.381L230.712 114.607C232.37 115.094 233.566 115.801 234.299 116.76C235.033 117.718 235.399 118.818 235.399 120.091C235.399 121.364 235.081 122.354 234.459 123.25C233.837 124.146 232.928 124.821 231.78 125.293C230.616 125.764 229.245 126 227.635 126C226.455 126 225.371 125.874 224.334 125.607C223.298 125.34 222.405 124.947 221.624 124.428C220.842 123.91 220.205 123.297 219.71 122.59C219.615 122.448 219.583 122.323 219.615 122.197C219.647 122.087 219.726 121.977 219.87 121.867L221.576 120.688C221.799 120.563 221.959 120.516 222.07 120.531C222.182 120.547 222.293 120.61 222.389 120.72C222.835 121.286 223.282 121.757 223.728 122.118C224.175 122.48 224.685 122.763 225.259 122.936C225.833 123.108 226.534 123.203 227.38 123.203C228.639 123.203 229.66 122.998 230.409 122.574C231.174 122.15 231.541 121.506 231.541 120.61C231.541 120.248 231.461 119.934 231.318 119.636C231.158 119.337 230.919 119.07 230.552 118.818C230.202 118.567 229.691 118.331 229.022 118.127L224.924 116.901C223.872 116.587 223.011 116.147 222.341 115.597C221.672 115.063 221.145 114.418 220.811 113.711C220.46 113.004 220.3 112.265 220.3 111.495C220.3 110.364 220.603 109.342 221.225 108.462C221.831 107.582 222.708 106.891 223.824 106.388C224.94 105.885 226.247 105.634 227.746 105.634C228.719 105.634 229.644 105.744 230.505 105.964C231.366 106.184 232.147 106.498 232.832 106.907C233.518 107.315 234.108 107.802 234.554 108.368C234.618 108.462 234.682 108.557 234.714 108.651C234.746 108.745 234.698 108.855 234.554 108.981L232.625 110.395C232.529 110.458 232.45 110.49 232.37 110.458C232.29 110.427 232.179 110.348 232.035 110.207C231.605 109.751 231.063 109.342 230.441 108.981L230.425 108.997Z" fill="#12AA4B"></path>
    </g>
    <path id="Vector_35" d="M198.585 59.8885C198.999 59.8256 199.19 58.9142 200.912 57.1384C202.618 55.3627 206.062 54.8755 207.019 51.7169C207.641 49.6425 206.78 47.3953 205.919 46.1382C205.632 47.0339 204.643 49.4225 201.837 52.0312C199.446 54.2469 198.872 57.217 198.872 57.217C198.872 57.217 198.648 54.1055 201.327 51.4497C204.723 48.0711 205.217 45.3053 205.201 45.3053C205.744 43.6867 205.712 42.5395 205.409 42.2567C204.898 41.8166 203.782 42.1152 203.719 42.8067C203.687 43.121 203.543 44.0953 203.256 45.2424C201.088 45.4782 197.405 46.3582 196.193 50.8997C195.46 53.6498 198.154 59.9356 198.569 59.8728L198.585 59.8885Z" fill="#12AA4B"></path>
  </g>
  <defs>
    <radialGradient id="paint0_radial_1202_2261" cx="0" cy="0" r="1" gradientUnits="userSpaceOnUse" gradientTransform="translate(38.5848 47.1911) scale(35.2206 34.7136)">
      <stop stop-color="white"></stop>
      <stop offset="1" stop-color="#12AA4B"></stop>
    </radialGradient>
    <clipPath id="clip0_1202_2261">
      <rect width="235.384" height="126" fill="white"></rect>
    </clipPath>
  </defs>
</svg>
