<svg xmlns="http://www.w3.org/2000/svg" width="366.021" height="32.607" viewBox="0 0 366.021 32.607">
  <g id="Group_23" data-name="Group 23" transform="translate(15638.001 14260)">
    <path id="Path_80" data-name="Path 80" d="M210.669,221.921v.537c-1.611,0-2.971,1-2.971,3.293V240.6c0,8.447-4.51,11.632-10.344,12.492l-.143-.537c3.078-1.109,5.978-3.972,5.978-11.74v-10.7c0-6.729-.036-7.659-2.792-7.659v-.537Z" transform="translate(-15835.211 -14480.489)" fill="#fff"/>
    <path id="Path_81" data-name="Path 81" d="M231.774,248.607l-4.689.824c-.931.142-.931-.609-.931-.609v-3.077a6.665,6.665,0,0,1-5.727,3.722c-2.684,0-4.8-1.074-4.8-5.441v-7.839c0-2.255.072-2.47-2-2.684v-.537l5.762-.681v11.632c0,2.362,1.289,3.365,3.365,3.365a4.08,4.08,0,0,0,3.4-2.541v-8.555c0-2.183.108-2.542-1.682-2.684v-.537l5.477-.681V246c0,1.718.322,1.933,1.826,2.112Z" transform="translate(-15838.418 -14482.515)" fill="#fff"/>
    <path id="Path_82" data-name="Path 82" d="M245.147,246.789h-6.693v-.537c1.36-.393,1.431-1.468,1.431-3.293V224.1c0-1.253-.322-1.79-1.789-2.184v-.537l5.584-1.145v22.727c0,1.969.179,2.971,1.468,3.293Z" transform="translate(-15843.201 -14480.158)" fill="#fff"/>
    <path id="Path_83" data-name="Path 83" d="M250.256,225.492a2.124,2.124,0,0,1,2.112-2.148,2.185,2.185,0,0,1,2.183,2.148,2.154,2.154,0,0,1-2.183,2.111,2.092,2.092,0,0,1-2.112-2.111M256.09,247.4h-6.658v-.537c1.361-.429,1.432-1.468,1.432-3.293v-8.948c0-1.217-.358-1.719-1.826-2.327v-.537l5.584-1.217v13.028c0,1.969.179,2.936,1.468,3.293Z" transform="translate(-15845.34 -14480.767)" fill="#fff"/>
    <path id="Path_84" data-name="Path 84" d="M277.952,248.607l-4.689.824c-.931.142-.931-.609-.931-.609v-3.077a6.665,6.665,0,0,1-5.727,3.722c-2.684,0-4.8-1.074-4.8-5.441v-7.839c0-2.255.072-2.47-2-2.684v-.537l5.762-.681v11.632c0,2.362,1.288,3.365,3.365,3.365a4.08,4.08,0,0,0,3.4-2.541v-8.555c0-2.183.108-2.542-1.682-2.684v-.537l5.477-.681V246c0,1.718.322,1.933,1.826,2.112Z" transform="translate(-15847.443 -14482.515)" fill="#fff"/>
    <path id="Path_85" data-name="Path 85" d="M291.242,249.467c-4.331,0-6.371-1.539-6.371-1.539v-4.688h.537c.393,1.9,1.4,5.691,5.834,5.691,3.15,0,3.15-3.509.43-5.3l-3.616-2.184c-3.472-2.219-4.33-4.724-2.612-7.23,0,0,1.216-1.933,4.832-1.933,4.116,0,5.87,1.109,5.87,1.109v4.189h-.537c-.357-1.683-1.431-4.761-5.333-4.761-2.863,0-3.508,3.043-.393,5.012l3.615,2.255c3.222,2,4.259,5.01,2.505,7.515,0,0-1.289,1.862-4.761,1.862" transform="translate(-15852.287 -14482.515)" fill="#fff"/>
    <path id="Path_86" data-name="Path 86" d="M322.229,222.458h-1.109v12.6h1.109c3.794,0,6.729,0,6.729-6.3,0-6.371-3.078-6.3-6.729-6.3m15.642,24.662h-3.007c-5.513-.036-4.761-.036-7.052-7.8a5.019,5.019,0,0,0-5.011-3.723h-1.682v7.48c0,2.47,1,3.508,2.505,3.508v.537H314.39v-.537c1.54,0,2.4-1,2.4-3.722V225.428c0-2.219-.823-2.97-2.4-2.97v-.537h7.839c7.123,0,11.633.858,11.633,6.836,0,4.617-2.792,6.156-6.837,6.514,2.362-.072,5.012.823,6.8,7.982a4.44,4.44,0,0,0,4.045,3.329Z" transform="translate(-15858.111 -14480.489)" fill="#fff"/>
    <path id="Path_87" data-name="Path 87" d="M360.788,248.607l-4.689.824c-.93.142-.93-.609-.93-.609v-3.077a6.666,6.666,0,0,1-5.728,3.722c-2.684,0-4.8-1.074-4.8-5.441v-7.839c0-2.255.072-2.47-2-2.684v-.537l5.762-.681v11.632c0,2.362,1.289,3.365,3.364,3.365a4.08,4.08,0,0,0,3.4-2.541v-8.555c0-2.183.108-2.542-1.682-2.684v-.537l5.477-.681V246c0,1.718.322,1.933,1.825,2.112Z" transform="translate(-15863.633 -14482.515)" fill="#fff"/>
    <path id="Path_88" data-name="Path 88" d="M377.608,244.94a5.317,5.317,0,0,1-4.76,3.257c-2.684,0-4.331-1.145-4.331-5.476V231.876h-1.789l-.108-.537h1.9V226.4l3.794-.609v5.548h4.259l-.142.537h-4.116v10.737c0,2.434.929,3.436,2.684,3.436a2.468,2.468,0,0,0,2.147-1.4Z" transform="translate(-15868.318 -14481.245)" fill="#fff"/>
    <path id="Path_89" data-name="Path 89" d="M398.795,246.789H392.1v-.537c1.36-.393,1.431-1.5,1.431-3.329v-7.194c0-2.327-1.074-3.543-3.365-3.543a4.212,4.212,0,0,0-3.328,2.505v8.232c0,1.969.179,2.971,1.468,3.293v.573h-6.693v-.573c1.36-.393,1.431-1.468,1.431-3.293V224.1c0-1.253-.322-1.647-1.789-2.04v-.537l5.584-1.288V233.9a6.868,6.868,0,0,1,5.762-3.973c2.9,0,4.725,1.36,4.725,5.655v7.338c0,1.969.215,3.007,1.468,3.329Z" transform="translate(-15871.18 -14480.158)" fill="#fff"/>
    <path id="Path_90" data-name="Path 90" d="M416.86,240.017c0-4.868-1.9-7.194-3.722-7.194-2.077,0-3.937,3.221-3.937,7.194Zm3.15,4.832c-.465,1.754-2.541,4.617-7.051,4.617-4.546,0-7.767-4.008-7.767-8.483,0-5.155,3.4-8.7,8.089-8.7s7.3,2.649,7.3,8.268H409.2c.215,4.152,2.184,6.05,4.761,6.443,2.077.322,4.761-.68,5.548-2.4Z" transform="translate(-15875.857 -14482.515)" fill="#fff"/>
    <path id="Path_91" data-name="Path 91" d="M439.143,233a2.312,2.312,0,0,1,0,3.257,2.355,2.355,0,0,1-3.292.036,2.151,2.151,0,0,1-.609-1.575c.072-.5-1.861.107-3.078,2.362v8.2c0,2,.179,2.971,1.468,3.329v.537H426.9v-.537c1.36-.43,1.431-1.468,1.431-3.329v-8.948c0-1.217-.322-1.754-1.79-2.291V233.5l5.62-1.217v3.865c1.612-2.684,3.365-3.436,4.51-3.722a2.875,2.875,0,0,1,2.469.573" transform="translate(-15880.029 -14482.515)" fill="#fff"/>
    <path id="Path_92" data-name="Path 92" d="M454.564,224.865a1.939,1.939,0,0,1-.966-2.578,1.67,1.67,0,0,1,1.109-.929c.429-.073-.108-.717-1.289-.717-1.538,0-2.469,1.934-2.469,9.592h3.937l-.107.537h-3.83v12.456c0,1.933.322,2.72,1.611,3.007v.537h-6.8v-.537c1.36-.323,1.4-1.217,1.4-3.007V230.771h-2.291l-.035-.537h2.327c0-8.018,2-10.092,6.228-10.092a4.593,4.593,0,0,1,3.508,1.575,2.474,2.474,0,0,1,.25,2.184,1.981,1.981,0,0,1-2.577.965" transform="translate(-15883.604 -14480.141)" fill="#fff"/>
    <path id="Path_93" data-name="Path 93" d="M465.75,232.823c-2.649,0-3.9,1.575-3.9,8.054s1.253,8.054,3.9,8.054c2.684,0,3.9-1.575,3.9-8.054s-1.217-8.054-3.9-8.054m0,16.644c-5.441,0-8.376-3.9-8.376-8.59,0-4.725,2.936-8.59,8.376-8.59,5.476,0,8.411,3.865,8.411,8.59,0,4.689-2.935,8.59-8.411,8.59" transform="translate(-15886.055 -14482.515)" fill="#fff"/>
    <path id="Path_94" data-name="Path 94" d="M489.951,232.823c-2.649,0-3.9,1.575-3.9,8.054s1.253,8.054,3.9,8.054c2.684,0,3.9-1.575,3.9-8.054s-1.217-8.054-3.9-8.054m0,16.644c-5.44,0-8.376-3.9-8.376-8.59,0-4.725,2.936-8.59,8.376-8.59,5.476,0,8.411,3.865,8.411,8.59,0,4.689-2.935,8.59-8.411,8.59" transform="translate(-15890.785 -14482.515)" fill="#fff"/>
    <path id="Path_95" data-name="Path 95" d="M517.174,233a2.312,2.312,0,0,1,0,3.257,2.355,2.355,0,0,1-3.292.036,2.152,2.152,0,0,1-.609-1.575c.072-.5-1.861.107-3.078,2.362v8.2c0,2,.179,2.971,1.468,3.329v.537h-6.729v-.537c1.36-.43,1.431-1.468,1.431-3.329v-8.948c0-1.217-.322-1.754-1.79-2.291V233.5l5.62-1.217v3.865c1.612-2.684,3.365-3.436,4.51-3.722a2.875,2.875,0,0,1,2.469.573" transform="translate(-15895.279 -14482.515)" fill="#fff"/>
    <path id="Path_96" data-name="Path 96" d="M535.9,236.05c0-3.973-2.184-5.585-4.295-5.585-2.506,0-4.259,1.826-4.259,7.41,0,5.727,1.5,8.089,4.51,8.089a3.968,3.968,0,0,0,4.045-4.259Zm5.584,10.308-4.581.716c-1,.143-1-.644-1-.644v-2.076a6.4,6.4,0,0,1-5.369,2.756c-4.438,0-7.588-3.508-7.588-8.806,0-5.691,3.722-8.375,8.59-8.375a8.243,8.243,0,0,1,4.366,1.181v-7.123c0-1.253-.358-1.683-1.825-2.077v-.536l5.584-1.146v23.408c0,1.755.357,2.077,1.825,2.184Z" transform="translate(-15898.871 -14480.158)" fill="#fff"/>
    <path id="Path_97" data-name="Path 97" d="M568.422,227.195,571,230.989c4.688-3.078,3.866-6.873,2.291-8.841a3.744,3.744,0,0,0-3.83-1.038c-1.862.644-2.756,3.543-1.038,6.085m5.333,14.639-5.834-8.411-1.79,1.145c-2,1.432-3.4,4.975-.609,8.447a4.907,4.907,0,0,0,8.233-1.181m11.489.788a4.367,4.367,0,0,1-4.116,4.474s-3.543.322-4.975-1.79l-2-2.934c-1.361,4.08-8.7,7.123-12.278,2.147-3.579-4.9,1.11-8.841,3.938-10.487l1.789-1.074-1.9-2.864c-3.365-4.653-1.109-9.127,2.9-9.807,2.4-.43,4.081.215,5.19,1.468,1.4,1.646,2.97,5.87-2.469,9.735l4.509,6.693c1.361-3.006,3.186-3.687,4.117-3.9a2.868,2.868,0,0,1,2.4.429,1.981,1.981,0,0,1,.215,2.9,2.088,2.088,0,0,1-2.934.25,1.935,1.935,0,0,1-.681-1.4c0-.752-1.933-.179-2.827,2.147l2.827,4.08a3.839,3.839,0,0,0,2.971,1.647c1.253,0,2.505-.394,2.791-1.719Z" transform="translate(-15906.223 -14480.143)" fill="#fff"/>
    <path id="Path_98" data-name="Path 98" d="M621.881,239.559l.465,5.584c-2.649,1.754-5.119,2.219-8.948,2.219-7.552,0-12.42-5.369-12.42-12.921,0-7.589,4.868-12.922,12.42-12.922,3.687,0,6.693.359,8.948,2.184l-.465,5.584h-.537c-1.5-5.368-4.474-7.23-7.946-7.23-3.865,0-6.908,2.076-6.908,12.385,0,10.415,3.15,12.384,6.908,12.384a8.122,8.122,0,0,0,7.946-7.266Z" transform="translate(-15914.119 -14480.41)" fill="#fff"/>
    <path id="Path_99" data-name="Path 99" d="M639.65,224.546c-2.649,0-3.9,1.575-3.9,8.054s1.253,8.054,3.9,8.054c2.684,0,3.9-1.575,3.9-8.054s-1.217-8.054-3.9-8.054m0,16.644c-5.441,0-8.376-3.9-8.376-8.59,0-4.725,2.936-8.59,8.376-8.59,5.476,0,8.411,3.865,8.411,8.59,0,4.689-2.935,8.59-8.411,8.59" transform="translate(-15920.041 -14480.896)" fill="#fff"/>
    <rect id="Rectangle_767" data-name="Rectangle 767" width="7.945" height="2.804" transform="translate(-15284.346 -14235.852)" fill="#fff"/>
  </g>
</svg>
