<?xml version="1.0" encoding="utf-8"?>
<!-- Generator: Adobe Illustrator 24.3.0, SVG Export Plug-In . SVG Version: 6.00 Build 0)  -->
<svg version="1.1" id="Layer_1" xmlns="http://www.w3.org/2000/svg" xmlns:xlink="http://www.w3.org/1999/xlink" x="0px" y="0px"
	 viewBox="0 0 175 72.4" style="enable-background:new 0 0 175 72.4;" xml:space="preserve">
<style type="text/css">
	.st0{fill:#FFFFFF;}
</style>
<g id="Layer_1_1_">
</g>
<g id="Design">
	<path class="st0" d="M140.4,62h1v7c0,2.7-2.2,3.4-4.1,3.4c-3.3,0-3.6-1.6-3.7-2.4h1c0.2,0.8,0.4,1.6,2.8,1.6c1.9,0,3-0.9,3-2.6
		v-1.3l0,0c-0.4,0.7-1.3,1.7-3.2,1.7c-1.8,0-3.9-1-3.9-3.8c0-1.9,1.2-3.7,4-3.7c1.4,0,2.6,0.5,3.1,1.6l0,0L140.4,62L140.4,62z
		 M137.3,62.6c-1.8,0-3,1.1-3,2.8c0,2.1,1.3,2.9,3.1,2.9c1.7,0,3-1.1,3-2.9C140.4,64,139.4,62.6,137.3,62.6"/>
	<path class="st0" d="M143,62h1v1.7l0,0c0.4-0.9,1.1-1.9,2.8-1.9c0.3,0,0.5,0,0.6,0.1V63c-0.3-0.1-0.6-0.1-1-0.1
		c-1.1,0-2.5,0.7-2.5,2.8v3.7h-1L143,62L143,62z"/>
	<path class="st0" d="M152.1,61.8c2.8,0,4.1,1.8,4.1,3.9s-1.3,3.9-4.1,3.9s-4.1-1.8-4.1-3.9S149.3,61.8,152.1,61.8 M152.1,68.6
		c2,0,3.1-1.2,3.1-3c0-1.8-1.1-3-3.1-3s-3.1,1.2-3.1,3C149,67.4,150.1,68.6,152.1,68.6"/>
	<path class="st0" d="M163.7,67.9L163.7,67.9c-0.3,0.8-1.4,1.7-3,1.7c-2.4,0-3.2-1.3-3.2-3V62h1v4.7c0,1.4,0.9,1.9,2.2,1.9
		c2,0,3-1,3-2.7V62h1v7.3h-1V67.9z"/>
	<path class="st0" d="M166.4,62h1v1.5l0,0c0.3-0.6,1-1.7,3-1.7c3,0,4,2.1,4,3.9c0,2-1.2,3.9-4,3.9c-1.4,0-2.5-0.8-3-1.7l0,0v4.3h-1
		V62z M170.4,68.6c1.6,0,2.9-1.1,2.9-3c0-1.5-0.8-3-2.9-3c-1.7,0-3.1,1.1-3.1,3C167.3,67.1,168.3,68.6,170.4,68.6"/>
	<path class="st0" d="M152.5,45.2c0-5.9,3.9-11,11.9-11c4,0,8.6,2,10.6,6.9h-4.3c-1.3-2.9-4.2-3.4-6.4-3.4c-3.5,0-7.1,3-7.4,7.5
		c0.3,4.5,3.9,7.5,7.4,7.5c2.2,0,5.1-0.5,6.4-3.4h4.3c-2,4.9-6.5,6.9-10.6,6.9C156.4,56.1,152.5,51.1,152.5,45.2"/>
	<path class="st0" d="M130,46.3c0.3,4.2,3.9,6.3,7.4,6.3c2.2,0,5.1-0.5,6.4-3.4h4.3c-2,4.9-6.5,6.9-10.6,6.9c-8,0-11.9-5.1-11.9-11
		s3.9-11,11.9-11c5.4,0,11.1,3.1,11.1,11.6v0.5H130V46.3z M144.3,43.1c-0.6-3.7-3.3-5.4-7-5.4c-3.6,0-6.7,1.7-7.2,5.4H144.3z"/>
	<path class="st0" d="M113,28.6h4.1v6.3h5.7v3.2h-5.7v12.5c0,1.6,1,2,3,2c0.9,0,1.8-0.1,2.7-0.3v3.5c-1.3,0.2-2.8,0.3-4.4,0.3
		c-3.8,0-5.4-1.9-5.4-4.9v-13h-4.2V35h4.2C113,35,113,28.6,113,28.6z"/>
	<path class="st0" d="M96.1,34.3c-4.2,0-6.2,1.7-7.7,3c-2-1.7-4.5-2.9-8-2.9c-7.1,0-9.8,5.6-9.8,8.2v13.6h4.1V44.3
		c0-4,2.2-5.9,5.8-5.9c2.5,0,5.6,0.9,5.7,4.6v13.1l0,0h4.1l0,0V42.6l0,0v-0.2c0-1.7,2.2-4,5.8-4c2.5,0,5.7,0.9,5.7,4.7v13h4.1V42.5
		C105.8,40.4,104.3,34.3,96.1,34.3"/>
	<path class="st0" d="M47.2,46.3c0.3,4.2,3.9,6.3,7.4,6.3c2.2,0,5.1-0.5,6.4-3.4h4.3c-2,4.9-6.5,6.9-10.6,6.9c-8,0-11.9-5.1-11.9-11
		s3.9-11,11.9-11c5.4,0,11.1,3.1,11.1,11.6v0.5H47.2V46.3z M61.5,43.1c-0.6-3.7-3.3-5.4-7-5.4c-3.6,0-6.7,1.7-7.2,5.4H61.5z"/>
	<path class="st0" d="M12.2,23.1c0.4,0.4,0.4,1,0,1.4l-5.3,5.3c-0.4,0.4-1,0.4-1.4,0l-5.3-5.3c-0.4-0.4-0.4-1,0-1.4l5.3-5.3
		c0.4-0.4,1-0.4,1.4,0L12.2,23.1z"/>
	<path class="st0" d="M21,14.3c0.4,0.4,0.4,1,0,1.4L15.7,21c-0.4,0.4-1,0.4-1.4,0L9,15.7c-0.4-0.4-0.4-1,0-1.4L14.3,9
		c0.4-0.4,1-0.4,1.4,0L21,14.3z"/>
	<path class="st0" d="M29.8,5.6c0.4,0.4,0.4,1,0,1.4l-5.3,5.3c-0.4,0.4-1,0.4-1.4,0L17.8,7c-0.4-0.4-0.4-1,0-1.4l5.3-5.3
		c0.4-0.4,1-0.4,1.4,0L29.8,5.6z"/>
	<path class="st0" d="M21,31.9c0.4,0.4,0.4,1,0,1.4l-5.3,5.3c-0.4,0.4-1,0.4-1.4,0L9,33.3c-0.4-0.4-0.4-1,0-1.4l5.3-5.3
		c0.4-0.4,1-0.4,1.4,0L21,31.9z"/>
	<path class="st0" d="M29.8,23.1c0.4,0.4,0.4,1,0,1.4l-5.3,5.3c-0.4,0.4-1,0.4-1.4,0l-5.3-5.3c-0.4-0.4-0.4-1,0-1.4l5.3-5.3
		c0.4-0.4,1-0.4,1.4,0L29.8,23.1z"/>
	<path class="st0" d="M38.6,14.3c0.4,0.4,0.4,1,0,1.4L33.3,21c-0.4,0.4-1,0.4-1.4,0l-5.3-5.3c-0.4-0.4-0.4-1,0-1.4L31.9,9
		c0.4-0.4,1-0.4,1.4,0L38.6,14.3z"/>
	<path class="st0" d="M29.8,40.7c0.4,0.4,0.4,1,0,1.4l-5.3,5.3c-0.4,0.4-1,0.4-1.4,0L17.8,42c-0.4-0.4-0.4-1,0-1.4l5.3-5.3
		c0.4-0.4,1-0.4,1.4,0L29.8,40.7z"/>
	<path class="st0" d="M38.5,31.9c0.4,0.4,0.4,1,0,1.4l-5.3,5.3c-0.4,0.4-1,0.4-1.4,0l-5.3-5.3c-0.4-0.4-0.4-1,0-1.4l5.3-5.3
		c0.4-0.4,1-0.4,1.4,0L38.5,31.9z"/>
	<path class="st0" d="M47.3,23.1c0.4,0.4,0.4,1,0,1.4L42,29.8c-0.4,0.4-1,0.4-1.4,0l-5.3-5.3c-0.4-0.4-0.4-1,0-1.4l5.3-5.3
		c0.4-0.4,1-0.4,1.4,0L47.3,23.1z"/>
</g>
</svg>
