<?xml version="1.0" encoding="UTF-8"?><svg id="Layer_2" xmlns="http://www.w3.org/2000/svg" viewBox="0 0 521.42 996.09"><defs><style>.cls-1{fill:#19d3c5;}.cls-2{fill:#e65300;}</style></defs><g id="Layer_2-2"><path class="cls-1" d="M78.17,479.34H3.69V5.42h74.47v203.11h84.63V5.42h75.83v473.92h-75.83v-203.11h-84.63v203.11Z"/><path class="cls-1" d="M404.37,276.23h33.85v94.11c0,33.85-14.9,46.03-38.59,46.03s-38.59-12.18-38.59-46.03V114.42c0-33.85,14.9-46.71,38.59-46.71s38.59,12.86,38.59,46.71v34.65h70.41v-29.9C508.64,43.33,470.72,0,397.61,0s-111.03,43.33-111.03,119.16v246.44c0,75.83,37.92,119.16,111.03,119.16s111.03-43.33,111.03-119.16v-157.07h-104.27v67.7Z"/><path class="cls-2" d="M265.02,990.61H1.39v-74.14l.87-1.15c2.54-3.38,29.77-40.61,30.04-40.98,17.68-23.58,35.24-47.91,52.22-72.36,17.45-25.16,31.6-46.77,43.26-66.08,25.89-42.91,39.02-78.72,39.02-106.45,0-17.16-3.73-30.77-11.07-40.45-7.16-9.43-16.44-14.02-28.36-14.02s-21.04,4.47-27.97,13.66c-7.11,9.4-10.5,22.16-10.08,37.96v39.3H0v-41.92c1.89-37.66,14.86-68.3,38.56-91.29,23.76-23.04,54.79-34.73,92.23-34.73s67.46,12.3,90.33,36.56c22.78,24.25,34.34,56.42,34.34,95.62,0,23.14-4,46.39-11.88,69.09-7.86,22.6-20.44,47.07-37.37,72.72-11.25,18.02-24.99,38.35-40.77,60.33-15.74,21.88-26.11,36.23-31.14,43.1-6.84,9.14-12.76,17.09-17.77,23.94l-10.35,14.28h158.86v77.02ZM10.05,981.95h246.31v-59.7H89.18l20.33-28.04c5.04-6.89,10.98-14.87,17.81-23.99,4.99-6.82,15.34-21.15,31.06-43.01,15.68-21.82,29.31-41.99,40.52-59.95,16.6-25.15,28.86-48.96,36.48-70.89,7.57-21.78,11.4-44.07,11.4-66.24,0-36.92-10.76-67.09-31.98-89.68-21.15-22.45-49.42-33.84-84.02-33.84s-64.11,10.86-86.2,32.28c-22.07,21.41-34.16,50.1-35.94,85.29v33.04h72.01v-30.52c-.47-17.69,3.51-32.3,11.83-43.29,8.55-11.35,20.28-17.1,34.88-17.1s26.47,5.87,35.26,17.44c8.52,11.22,12.83,26.59,12.83,45.68,0,29.33-13.54,66.65-40.26,110.93-11.76,19.47-26.01,41.24-43.56,66.54-17.04,24.54-34.66,48.96-52.38,72.58-1.02,1.39-23.95,32.74-29.21,39.85v62.6Z"/><path class="cls-2" d="M400.84,996.09c-34.56,0-61.51-9.16-80.1-27.21-34.19-33.23-38.77-95.51-38.8-96.13-.41-6.96-.4-13.23-.4-13.5v-4.32s83.81,0,83.81,0l-.45,4.74c0,.09-.84,9.38,1.62,20.37l.19.85c5.56,25.33,17.04,38.18,34.13,38.18,9.52,0,16.98-3.12,22.8-9.53,6.02-6.59,10.08-16.19,12.09-28.55,1.66-10.98,2.51-25.48,2.51-43.07,0-19.25-1.42-69.8-3.75-80.95-2-11.01-6.03-19.55-12-25.5-5.84-5.82-12.92-8.64-21.65-8.64-18.48,0-32.25,12.99-37.78,35.64l-.81,3.3h-81.36v-258.33h233.46v77.02h-150.28v88.63c7.53-6.65,16.72-12.93,24.37-16.41,11-5.02,22.73-7.56,34.87-7.56,26.86,0,48.8,9.34,65.21,27.75,16.13,18.14,25.9,43.87,29.02,76.48,2.69,15.16,3.88,70.64,3.88,89.29v2.56c.09,23.2.36,93.8-37.46,126.52-21.78,18.84-49.73,28.39-83.1,28.39ZM290.25,863.59c.05,2.36.15,5.45.33,8.64.03.59,4.34,59.48,36.19,90.43,17.15,16.66,41.38,24.76,74.06,24.76s57-8.6,77.43-26.28c34.81-30.12,34.56-97.72,34.48-119.94v-2.59c0-20.09-1.29-74.25-3.78-87.93l-.05-.37c-2.93-30.82-11.97-54.95-26.89-71.71-14.9-16.72-34.11-24.85-58.74-24.85-10.89,0-21.41,2.28-31.27,6.78-9.38,4.28-21.87,13.63-29.05,21.76l-7.58,8.57v-119.09h150.28v-59.7h-216.13v241.01h65.97c7.05-24.46,23.8-38.94,45.32-38.94,10.99,0,20.33,3.76,27.76,11.17,7.25,7.22,12.09,17.31,14.39,29.98,2.73,13.03,3.91,67.2,3.91,82.61,0,18.01-.88,32.96-2.62,44.41-2.29,14.09-7.08,25.19-14.24,33.04-7.44,8.2-17.27,12.36-29.2,12.36-14.92,0-34.43-7.8-42.59-44.98l-.18-.81c-1.67-7.44-2-14.11-1.98-18.35h-65.84Z"/></g></svg>