<?xml version="1.0" encoding="iso-8859-1"?>
<!-- Generator: Adobe Illustrator 25.2.3, SVG Export Plug-In . SVG Version: 6.00 Build 0)  -->
<svg version="1.1" id="Layer_1" xmlns="http://www.w3.org/2000/svg" xmlns:xlink="http://www.w3.org/1999/xlink" x="0px" y="0px"
	 viewBox="0 0 393.0787659 97.4072342" style="enable-background:new 0 0 393.0787659 97.4072342;" xml:space="preserve">
<g>
	<g>
		<path style="fill:#0A1B2B;" d="M85.0626144,48.7037468c0,0.6106148-0.495163,1.1060448-1.1050797,1.1083984h0.0079346
			c0.6120071,0,1.1091843-0.4956894,1.1091843-1.1092682c0-0.6120949-0.4971771-1.1077881-1.1091843-1.1077881h-0.0093307
			C84.5667496,47.5967445,85.0626144,48.092701,85.0626144,48.7037468z"/>
	</g>
	<g>
		<path style="fill:#0A1B2B;" d="M112.1663437,51.6819153c0.4375992,0.6001015,0.9721146,1.1424484,1.6045227,1.6289902
			c0.631424,0.4865456,1.3685837,0.8830223,2.2114716,1.1913948c0.8428802,0.3083725,1.7826843,0.4610939,2.8203812,0.4610939
			c1.0690308,0,2.0333023-0.1860046,2.8928299-0.5589867c0.8575745-0.3720055,1.5868988-0.8751945,2.1870041-1.5066223
			c0.6000977-0.6324081,1.0611954-1.3773994,1.3862076-2.236927c0.3230591-0.8575706,0.4855652-1.7738762,0.4855652-2.7459831
			c0-1.4909592-0.3808136-2.6745224-1.1424484-3.5497131s-1.7092667-1.6045189-2.8438797-2.1879768
			c-1.1346207-0.5824814-2.3583221-1.1179733-3.6701279-1.6035385c-1.3127823-0.4865456-2.5364838-1.0944786-3.6711044-1.8238068
			c-1.134613-0.7293243-2.0822449-1.6603165-2.8438797-2.7949333c-0.7616348-1.134613-1.1424484-2.6568985-1.1424484-4.569788
			c0-1.3617344,0.2427826-2.601099,0.7293243-3.7190723c0.4865494-1.1189518,1.1913986-2.0822506,2.1145554-2.8928299
			c0.9241409-0.8096008,2.0333023-1.442009,3.3304291-1.896246c1.2961426-0.4532604,2.7547989-0.680378,4.3749771-0.680378
			c1.5565491,0,2.9006577,0.1869812,4.0352783,0.5589867c1.134613,0.3729839,2.187973,0.9476337,3.1600876,1.7259064
			c-0.2917328,0.5511551-0.5345154,1.1346169-0.729332,1.7503834c-0.1938324,0.6157665-0.388649,1.3940392-0.5834579,2.3328629
			h-0.5824814c-0.1634903-0.4532585-0.3817978-0.9476337-0.6568832-1.4821453
			c-0.2760696-0.5354919-0.6490555-1.0288887-1.1179733-1.4831257c-0.469902-0.4532604-1.0298691-0.8340759-1.6769638-1.1424484
			c-0.6490479-0.307394-1.4273224-0.4620686-2.3338394-0.4620686c-0.9075012,0-1.7425537,0.1458645-2.5041809,0.4375954
			c-0.7616348,0.291729-1.4263458,0.7048512-1.9931641,1.2403431c-0.5668182,0.5345116-1.0044174,1.1747532-1.3127899,1.9197426
			c-0.3083725,0.7459679-0.4610901,1.5555687-0.4610901,2.4307594c0,1.5242424,0.379837,2.7224884,1.1424484,3.597683
			c0.7606506,0.8751907,1.7092667,1.6123466,2.8438797,2.2124519c1.1336365,0.6001015,2.357338,1.134613,3.6701279,1.6045151
			c1.3127823,0.469902,2.5355072,1.0445518,3.6711044,1.7249298c1.1336365,0.6813545,2.0822449,1.5565491,2.8438797,2.6255722
			c0.7606506,1.0700035,1.1424408,2.4963493,1.1424408,4.2780609c0,1.4919357-0.2672577,2.901638-0.8027496,4.2300873
			c-0.5345001,1.3294296-1.3117981,2.4875412-2.3328552,3.4762917s-2.2692337,1.7494049-3.7435455,2.284893
			c-1.475296,0.5345154-3.1522598,0.8017693-5.0318604,0.8017693c-2.0098114,0-3.6388016-0.2672539-4.885994-0.8017693
			c-1.2481766-0.5354881-2.2937088-1.1424446-3.1356125-1.8238029c0.2917328-0.7449875,0.4933929-1.4165573,0.607933-2.0166588
			c0.1125793-0.6001015,0.2183075-1.3695679,0.3152237-2.3093681h0.5834656
			C111.3802414,50.491497,111.7287521,51.0827904,112.1663437,51.6819153z"/>
		<path style="fill:#0A1B2B;" d="M134.2145081,35.4683647c1.4586487-1.1013298,2.8027649-1.8472977,4.0352783-2.2359467
			c1.2315216-0.388649,2.4953613-0.5834618,3.7915039-0.5834618c1.1669312,0,2.2369385,0.1703415,3.2090454,0.5100403
			c0.9721069,0.3406792,1.7983398,0.8272209,2.4797058,1.4586525c0.6803741,0.6324081,1.2148895,1.3940392,1.6035309,2.284893
			c0.3896332,0.8918343,0.5834656,1.8717728,0.5834656,2.9417763c0,1.8473015-0.0323029,3.6867676-0.0969238,5.5174255
			c-0.0655823,1.8316345-0.0969086,3.7680206-0.0969086,5.8101311c0,0.388649,0.0078278,0.8017693,0.0244751,1.2393646
			c0.0156555,0.4375954,0.0881042,0.8262444,0.2183075,1.1669235c0.1292267,0.3406792,0.3162079,0.6245766,0.5589905,0.8507156
			c0.2427826,0.2271194,0.6079254,0.3406792,1.0944672,0.3406792c0.1615295,0,0.3318787-0.0078316,0.5100403-0.0244751
			c0.1781769-0.0156631,0.3475342-0.0734215,0.5100403-0.1703377v1.0700035
			c-0.3563385,0.1625099-0.8017731,0.291729-1.3362732,0.388649c-0.5354919,0.0969162-1.1267853,0.1458626-1.7748566,0.1458626
			c-1.0377045,0-1.8316498-0.2672539-2.3818207-0.8017693c-0.552124-0.5354881-0.8751831-1.2236977-0.9721069-2.0665855
			c-1.1669159,1.1669235-2.3181763,2.0254707-3.4518127,2.5766258c-1.1355896,0.5511551-2.528656,0.8262444-4.1811371,0.8262444
			c-0.8105927,0-1.6045227-0.1135597-2.3827972-0.3396988c-0.777298-0.2271194-1.4664917-0.6001053-2.0656128-1.1189537
			c-0.6000977-0.5178719-1.0866394-1.1424484-1.4586487-1.8717728c-0.3729858-0.7293282-0.5589905-1.5634003-0.5589905-2.5032043
			c0-1.9451942,0.6079407-3.4518166,1.8228302-4.5218201c1.2158661-1.0690269,2.8928223-1.7817078,5.0318604-2.1390305
			c1.7503815-0.291729,3.1189728-0.5423431,4.1077118-0.7528191c0.9887543-0.2104759,1.7180786-0.4297638,2.1879883-0.6568832
			c0.4698944-0.2261391,0.7537994-0.4933968,0.850708-0.8017693c0.0979004-0.3083725,0.145874-0.7048531,0.145874-1.1913948
			c0-0.8096008-0.0969238-1.5878754-0.2917328-2.3338432c-0.1938324-0.7449913-0.5022125-1.3930626-0.9231567-1.9442177
			c-0.421936-0.5511551-0.9730988-0.996582-1.6534729-1.3372612c-0.6803741-0.3406754-1.5066223-0.5100365-2.4797058-0.5100365
			c-1.2961426,0-2.5032043,0.291729-3.62117,0.8751907c-1.1189575,0.5834618-1.9530334,1.3930626-2.5041809,2.4307594h-0.5345154
			V35.4683647z M146.2224426,44.1223793c-0.5511627,0.1948128-1.1914062,0.3573189-1.9197388,0.4865417
			c-0.7293396,0.1292229-1.4674683,0.2672577-2.2124634,0.4131241c-0.7459564,0.1458626-1.4831238,0.3328476-2.2124481,0.5589867
			c-0.7293243,0.2271194-1.3773956,0.5345116-1.9442139,0.9231606c-0.5677948,0.3896255-1.0210571,0.8751907-1.3617401,1.4586487
			c-0.3396912,0.5834618-0.5100403,1.3294296-0.5100403,2.236927c0,1.523262,0.4376068,2.673542,1.3127899,3.4518166
			c0.8751984,0.7772942,1.8473053,1.1659431,2.9173126,1.1659431c1.230545,0,2.3573303-0.3396988,3.3783875-1.0200768
			c1.0210571-0.6813583,1.8061829-1.475296,2.3583221-2.3827934L146.2224426,44.1223793z"/>
		<path style="fill:#0A1B2B;" d="M166.5202179,36.586338c-0.4699097-0.1615295-0.9476318-0.2427826-1.4341736-0.2427826
			c-0.777298,0-1.475296,0.1781731-2.0900879,0.5345116c-0.6157684,0.3573227-1.134613,0.8350563-1.5555725,1.4341774
			c-0.421936,0.6001053-0.7459717,1.3127899-0.9730835,2.1400108c-0.2271271,0.8262444-0.3397064,1.7092667-0.3397064,2.6490669
			v5.3480644c0,2.1713333,0.007843,3.8326302,0.0244751,4.9829102c0.0156708,1.1512604,0.0724487,2.0832291,0.1693726,2.7959137
			c-0.6480865-0.0655899-1.2961578-0.0978966-1.9442291-0.0978966c-0.7136536,0-1.3940277,0.0323067-2.0421143,0.0978966
			c0.0979004-1.1023102,0.1537018-2.6011009,0.1703491-4.4973488c0.0156555-1.896244,0.0244751-4.2212791,0.0244751-6.9760742
			v-1.5565491c0-1.2638359-0.0088196-2.7224884-0.0244751-4.3749733c-0.0166473-1.6534653-0.0724487-3.5487328-0.1703491-5.6877632
			c0.3563538,0.0646095,0.6970215,0.1213913,1.0210571,0.1693573c0.3240356,0.0489502,0.6637421,0.0734253,1.0210571,0.0734253
			c0.2917328,0,0.5991364-0.0244751,0.9241486-0.0734253c0.3230591-0.047966,0.6637268-0.1047478,1.0200806-0.1693573
			c-0.1292267,1.1659431-0.202652,2.0900803-0.2183228,2.7704582c-0.0166321,0.680378-0.0244598,1.3294296-0.0244598,1.9451942
			l0.0969086,0.0479698c1.9128876-3.4997864,4.0519257-5.2501678,6.4180756-5.2501678
			c0.2917175,0,0.5423431,0.0166435,0.7537994,0.0489502c0.2094879,0.0323029,0.4777222,0.1135597,0.8017578,0.2427826
			c-0.1625061,0.3886452-0.2594147,0.9809189-0.2917175,1.7738762c-0.0323181,0.7949142-0.0489502,1.5164108-0.0489502,2.1635017
			l-0.3397064,0.243763C167.3063202,36.9270172,166.9901123,36.7498245,166.5202179,36.586338z"/>
		<path style="fill:#0A1B2B;" d="M170.8227539,48.886982c0-1.7180748,0.0244751-3.1845589,0.07341-4.4004288
			c0.0479736-1.2148895,0.0724487-2.4219513,0.0724487-3.6211777c0-1.1346169-0.0078278-2.3661461-0.0244751-3.6955757
			c-0.0166473-1.3284492-0.0401306-2.673542-0.0724487-4.0342979c0.8096008,0.1625061,1.4899902,0.2427826,2.0421143,0.2427826
			c0.5178833,0,1.1825867-0.0802765,1.9931641-0.2427826c-0.1625061,1.9442139-0.2838898,4.0754128-0.3651428,6.3926125
			c-0.0812531,2.3172035-0.1213989,4.6911812-0.1213989,7.1219406c0,1.6857719,0.145874,2.9740829,0.4376068,3.8649406
			c0.2917175,0.8918304,0.6480713,1.5643768,1.0699921,2.0176353c0.4532623,0.5188522,1.0279083,0.948616,1.7259064,1.2883148
			c0.6960449,0.3406792,1.5144653,0.5110168,2.455246,0.5110168c1.3607483,0,2.4953613-0.2995605,3.4028625-0.8996658
			c0.9065247-0.5991249,1.571228-1.3372612,1.9931641-2.2124519c0.2261353-0.5501747,0.4052887-1.0200768,0.5345154-1.4097023
			c0.1292267-0.388649,0.2349548-0.906517,0.3162079-1.5555687c0.0802765-0.6480713,0.1292114-1.523262,0.1458588-2.6255722
			c0.0156708-1.1013336,0.0244751-2.6079521,0.0244751-4.5208435v-4.0842247c0-0.7117043-0.0088043-1.3930626-0.0244751-2.0411339
			c-0.0166473-0.6480713-0.0411224-1.2648163-0.0734253-1.8472977c0.3563385,0.0646095,0.6970215,0.1213913,1.0210571,0.1693573
			c0.3240356,0.0489502,0.6647186,0.0734253,1.0210571,0.0734253s0.6970215-0.0244751,1.0210571-0.0734253
			c0.3240356-0.047966,0.6480713-0.1047478,0.9721069-0.1693573c-0.1625061,2.5276756-0.2594147,4.9662666-0.2917328,7.3167534
			c-0.0323029,2.3495064-0.0479584,4.8370438-0.0479584,7.4626198c0,1.4576721,0.0156555,2.8849983,0.0479584,4.2780571
			c0.0323181,1.394043,0.0812531,2.7391319,0.145874,4.0352783c-0.6480713-0.0655899-1.2804871-0.0978966-1.8952789-0.0978966
			c-0.616745,0-1.2481689,0.0323067-1.8962402,0.0978966c0.0313263-0.2917328,0.0558014-0.6001053,0.0724487-0.9241409
			c0.0166321-0.3240356,0.0244751-0.6637344,0.0244751-1.0210533v-2.0900841h-0.0969238
			c-0.8428802,1.5555687-1.9285583,2.6980171-3.2570038,3.4273415c-1.329422,0.7293282-2.7714386,1.093502-4.3270111,1.093502
			c-2.528656,0-4.5139771-0.6725464-5.9559937-2.0176392C171.5442352,53.3520241,170.8227539,51.4146576,170.8227539,48.886982z"/>
		<path style="fill:#0A1B2B;" d="M196.1758728,37.6318665c-0.0489502-1.6045151-0.1536865-3.1033058-0.3161926-4.4963646
			c0.907486,0.1625061,1.6368103,0.2427826,2.187973,0.2427826c0.2594299,0,0.5423431-0.0244751,0.850708-0.0734253
			c0.3074036-0.047966,0.6725464-0.1047478,1.0935059-0.1693573c-0.0969238,1.2961426-0.1458588,2.5932655-0.1458588,3.8884315
			h0.0978851c1.7171021-2.9163246,4.1322021-4.3749771,7.2433319-4.3749771c0.8105774,0,1.6045227,0.1213913,2.3827972,0.3641739
			c0.777298,0.243763,1.4821472,0.5766068,2.1145477,0.996582c0.6324158,0.4219322,1.1747589,0.9329491,1.6289978,1.532074
			c0.4532623,0.6001053,0.7606506,1.2393646,0.9231567,1.9197426h0.0979004
			c0.777298-1.5555687,1.8384857-2.7469635,3.1835785-3.5732079c1.3450928-0.8262405,2.8928375-1.2393646,4.643219-1.2393646
			c1.0699921,0,2.0577698,0.1458664,2.965271,0.4375954c0.907486,0.2917328,1.6936035,0.7459679,2.3583069,1.3607559
			c0.6637421,0.616745,1.1825867,1.4106827,1.5555725,2.3827934c0.3720093,0.9721069,0.5589905,2.1390266,0.5589905,3.4997826
			c0,0.5521355-0.0166473,1.1512604-0.0489502,1.7993317s-0.0646057,1.4018707-0.0969238,2.2604218
			c-0.0323029,0.8595276-0.0655823,1.8316345-0.0969086,2.9173012c-0.0332794,1.0856667-0.0489502,2.3416748-0.0489502,3.7670441
			c0,0.8751907,0.0078278,1.7190552,0.0244751,2.528656c0.0156555,0.8105774,0.0558014,1.6857681,0.1213837,2.6255722
			c-0.3573151-0.0655899-0.712677-0.0978966-1.0690155-0.0978966c-0.3573303,0-0.697998,0-1.0210571,0
			c-0.3573303,0-0.7136688,0-1.0700073,0c-0.3573151,0-0.712677,0.0323067-1.0690308,0.0978966
			c0.0969238-0.8105812,0.2016754-2.447403,0.3152313-4.9104691s0.1703339-5.8992195,0.1703339-10.3064995
			c0-0.8105812-0.0890808-1.5722122-0.2672577-2.2848969c-0.1781616-0.7126808-0.4620667-1.3294258-0.850708-1.848278
			c-0.3886566-0.517868-0.9075012-0.9309921-1.5555725-1.2393646c-0.6490479-0.3073921-1.4586487-0.4620667-2.4307556-0.4620667
			c-1.1669312,0-2.1556702,0.2271156-2.9662476,0.6813545c-0.8096008,0.4542389-1.4420166,0.9887505-1.8952789,1.6035385
			c-0.2604065,0.3573227-0.4620667,0.7136612-0.6079254,1.0700035c-0.145874,0.3573227-0.2594299,0.8996658-0.340683,1.6289902
			c-0.0812531,0.7283478-0.138031,1.7494049-0.1693573,3.062191c-0.0332947,1.3127861-0.0489502,3.1199493-0.0489502,5.4205055
			c0,1.394043,0.0244751,2.6666908,0.0724487,3.8169708c0.0489349,1.15028,0.1047363,2.4062843,0.1703339,3.7680206
			c-0.7459717-0.0655899-1.4586487-0.0978966-2.1390381-0.0978966c-0.6803741,0-1.3940277,0.0323067-2.1390228,0.0978966
			c0.1615295-1.7826881,0.2750854-3.597683,0.340683-5.4449806c0.0646057-1.848278,0.0969086-3.6622925,0.0969086-5.445961
			c0-1.5222816-0.0088043-2.7136803-0.0244751-3.5732079c-0.0166321-0.8575668-0.056778-1.5389252-0.1213837-2.0411339
			c-0.0655975-0.5022049-0.1546783-0.9153252-0.2672577-1.2403412c-0.1145325-0.3230591-0.2672577-0.680378-0.4620667-1.0690269
			c-0.3573303-0.6157646-0.9163055-1.1424446-1.6769714-1.58004c-0.7626038-0.4375992-1.5487061-0.6568832-2.3583069-0.6568832
			c-2.1390381,0-3.7112427,0.697998-4.7156525,2.0910606c-1.0054016,1.3940392-1.5075989,3.35392-1.5075989,5.882576v4.1321945
			c0,1.4586487,0.0244751,2.9897461,0.07341,4.5942612c0.0489502,1.6045189,0.1537018,3.055336,0.3162079,4.3514824
			c-0.7459717-0.0655899-1.475296-0.0978966-2.187973-0.0978966c-0.7136688,0-1.4429932,0.0323067-2.187973,0.0978966
			c0.1625061-1.2961464,0.2672424-2.7469635,0.3161926-4.3514824c0.0489502-1.6045151,0.0734253-3.1356125,0.0734253-4.5942612
			v-5.0563354C196.2492981,40.7674789,196.224823,39.2363853,196.1758728,37.6318665z"/>
		<g>
			<path style="fill:#0A1B2B;" d="M271.5788879,55.0872269c-0.6314392,0.3083725-1.394043,0.5824814-2.2849121,0.8262405
				c-0.8918152,0.2427826-1.8883972,0.4620705-2.9897461,0.6559029c-1.1022949,0.1948166-2.252594,0.2917328-3.4518127,0.2917328
				c-2.5609741,0-4.927124-0.3641739-7.0974731-1.093502c-2.1723022-0.7293243-4.0440826-1.8394661-5.6153107-3.3304214
				c-1.5731964-1.4899788-2.8037415-3.3137856-3.6955719-5.4694557c-0.8918457-2.1546936-1.3362885-4.6099281-1.3362885-7.3657036
				c0-2.7538147,0.4444427-5.2090492,1.3362885-7.3647232c0.8918304-2.1556702,2.1399994-3.9784966,3.7435455-5.4694538
				c1.6045074-1.4909573,3.525238-2.6255722,5.7611847-3.4028683c2.236908-0.7782726,4.6990051-1.1669216,7.3901672-1.1669216
				c2.1390381,0,4.091095,0.2183094,5.8580933,0.6559048c1.7660522,0.4375954,3.3304443,0.9652557,4.6911926,1.5800419
				c-0.2594299,0.4542389-0.4699097,1.0700054-0.6314392,1.8472996c-0.1625061,0.7782745-0.2917175,1.4273262-0.3896179,1.9451962
				l-0.2917175,0.0969162c-0.3240356-0.3886471-0.7773132-0.8262424-1.3607788-1.3127861
				c-0.5834351-0.4855652-1.2638245-0.9554653-2.0421143-1.4097042c-0.7782593-0.4532585-1.6524658-0.834074-2.6255493-1.1424465
				c-0.9721069-0.307394-2.0411377-0.4620705-3.2080688-0.4620705c-1.9128723,0-3.6877441,0.3083725-5.3235779,0.924139
				c-1.6368408,0.6157665-3.0631714,1.5634022-4.2780609,2.8438816c-1.2158813,1.2804813-2.1635132,2.9006615-2.8448639,4.8615208
				c-0.6803741,1.9618378-1.0200806,4.286869-1.0200806,6.9760742c0,2.6911659,0.3397064,5.0161972,1.0200806,6.9770546
				c0.6813507,1.9608612,1.6289825,3.5810394,2.8448639,4.8615189c1.2148895,1.2804832,2.6412201,2.2290955,4.2780609,2.8438835
				c1.6358337,0.6157646,3.4107056,0.9241371,5.3235779,0.9241371c1.1669312,0,2.2437744-0.1458626,3.2325439-0.4375954
				c0.988739-0.291729,1.8962402-0.6402397,2.7224731-1.0455284s1.5722046-0.8428841,2.2369385-1.3127861
				c0.6637268-0.4689217,1.2227173-0.8820457,1.6769409-1.2393646l0.1948242,0.1938324l-0.4375916,2.8683586
				C272.6733398,54.4959335,272.2112732,54.7788506,271.5788879,55.0872269z"/>
			<path style="fill:#0A1B2B;" d="M275.4927673,44.7562523c0-2.2046204,0.3485107-4.0754166,1.0455322-5.6153221
				c0.6960449-1.5389252,1.6113586-2.7871017,2.7469482-3.7435455c1.1336365-0.9554672,2.4062805-1.6534653,3.8160095-2.0910606
				c1.4096985-0.4375954,2.811554-0.6559029,4.2055969-0.6559029c1.4253845,0,2.835083,0.2183075,4.229126,0.6559029
				c1.3930664,0.4375954,2.6578674,1.1355934,3.7924805,2.0910606c1.1336365,0.9564438,2.0489807,2.2046204,2.7469788,3.7435455
				c0.6960449,1.5399055,1.0445557,3.4107018,1.0445557,5.6153221c0,2.20364-0.3485107,4.0754128-1.0445557,5.6143379
				c-0.697998,1.5399055-1.6133423,2.7880821-2.7469788,3.7435493c-1.134613,0.9564438-2.3994141,1.6289902-3.7924805,2.0176353
				c-1.394043,0.3896294-2.8037415,0.5834618-4.229126,0.5834618c-1.394043,0-2.7958984-0.1938324-4.2055969-0.5834618
				c-1.409729-0.3886452-2.682373-1.0611916-3.8160095-2.0176353c-1.1355896-0.9554672-2.0509033-2.2036438-2.7469482-3.7435493
				C275.8412781,48.831665,275.4927673,46.9598923,275.4927673,44.7562523z M279.770813,44.7562523
				c0,1.3607521,0.1213989,2.673542,0.3651733,3.9373779c0.2427673,1.2638397,0.6558838,2.390625,1.2393494,3.3793755
				s1.3617249,1.7738762,2.3338318,2.357338c0.9721069,0.5834579,2.1713562,0.8751907,3.5976868,0.8751907
				c1.4253845,0,2.6255798-0.2917328,3.5976868-0.8751907c0.9721069-0.5834618,1.7503967-1.3685875,2.3328552-2.357338
				c0.5834656-0.9887505,0.9975586-2.1155357,1.2403564-3.3793755c0.2427673-1.2638359,0.3641663-2.5766258,0.3641663-3.9373779
				c0-1.3617363-0.1213989-2.6745224-0.3641663-3.9383621c-0.2427979-1.2638397-0.6568909-2.3896446-1.2403564-3.3783951
				c-0.5824585-0.9887505-1.3607483-1.7748566-2.3328552-2.3583145c-0.9721069-0.5834618-2.1723022-0.8751907-3.5976868-0.8751907
				c-1.4263306,0-2.6255798,0.291729-3.5976868,0.8751907c-0.9721069,0.5834579-1.7503662,1.3695641-2.3338318,2.3583145
				s-0.996582,2.1145554-1.2393494,3.3783951C279.8922119,42.0817299,279.770813,43.394516,279.770813,44.7562523z"/>
			<path style="fill:#0A1B2B;" d="M304.0559082,29.9768772c-0.0166321-1.2961445-0.0411072-2.5776043-0.0734253-3.8414421
				c-0.0323181-1.2638397-0.0724487-2.4708977-0.1213989-3.6211758c-0.0489502-1.15028-0.1057129-2.1311989-0.1703186-2.9417782
				c0.9074707,0.162508,1.6368103,0.2427826,2.1879578,0.2427826c0.5501709,0,1.2795105-0.0802746,2.1879883-0.2427826
				c-0.0655823,0.8105793-0.1213989,1.7914982-0.1703491,2.9417782c-0.0489502,1.1502781-0.0900574,2.357336-0.1213989,3.6211758
				c-0.0332642,1.2638378-0.0577393,2.5452976-0.0733948,3.8414421c-0.0166626,1.2961445-0.0244751,2.4953709-0.0244751,3.5967045
				v8.7998772c0,1.1023102,0.0078125,2.3015366,0.0244751,3.597683c0.0156555,1.297123,0.0401306,2.5766258,0.0733948,3.8404617
				c0.0313416,1.2638397,0.0724487,2.4640465,0.1213989,3.597683c0.0489502,1.1355934,0.1047668,2.0744171,0.1703491,2.820385
				c-0.7459717-0.0655899-1.4753113-0.0978966-2.1879883-0.0978966c-0.7136536,0-1.4429932,0.0323067-2.1879578,0.0978966
				c0.0646057-0.7459679,0.1213684-1.6847916,0.1703186-2.820385c0.0489502-1.1336365,0.0890808-2.3338432,0.1213989-3.597683
				c0.0323181-1.2638359,0.0567932-2.5433388,0.0734253-3.8404617c0.0156555-1.2961464,0.0234985-2.4953728,0.0234985-3.597683
				v-8.7998772C304.0794067,32.4722481,304.0715637,31.2730217,304.0559082,29.9768772z"/>
			<path style="fill:#0A1B2B;" d="M315.8699951,29.9768772c-0.0166321-1.2961445-0.0411072-2.5776043-0.0734253-3.8414421
				c-0.0322876-1.2638397-0.0724182-2.4708977-0.1213684-3.6211758c-0.0489502-1.15028-0.1057434-2.1311989-0.1703491-2.9417782
				c0.9075012,0.162508,1.6368103,0.2427826,2.1879883,0.2427826c0.5501709,0,1.27948-0.0802746,2.1879578-0.2427826
				c-0.0655823,0.8105793-0.1213684,1.7914982-0.1703186,2.9417782c-0.0489502,1.1502781-0.0900879,2.357336-0.1213989,3.6211758
				c-0.0332947,1.2638378-0.0577698,2.5452976-0.0734253,3.8414421c-0.0166321,1.2961445-0.0244751,2.4953709-0.0244751,3.5967045
				v8.7998772c0,1.1023102,0.007843,2.3015366,0.0244751,3.597683c0.0156555,1.297123,0.0401306,2.5766258,0.0734253,3.8404617
				c0.031311,1.2638397,0.0724487,2.4640465,0.1213989,3.597683c0.0489502,1.1355934,0.1047363,2.0744171,0.1703186,2.820385
				c-0.7459717-0.0655899-1.4752808-0.0978966-2.1879578-0.0978966c-0.7136841,0-1.4429932,0.0323067-2.1879883,0.0978966
				c0.0646057-0.7459679,0.1213989-1.6847916,0.1703491-2.820385c0.0489502-1.1336365,0.0890808-2.3338432,0.1213684-3.597683
				c0.0323181-1.2638359,0.0567932-2.5433388,0.0734253-3.8404617c0.015686-1.2961464,0.0234985-2.4953728,0.0234985-3.597683
				v-8.7998772C315.8934937,32.4722481,315.8856812,31.2730217,315.8699951,29.9768772z"/>
			<path style="fill:#0A1B2B;" d="M324.450592,45.4366264c0-3.9863281,0.9486084-7.114109,2.8438721-9.3833389
				c1.8962708-2.2682533,4.6588745-3.4028664,8.289856-3.4028664c1.7171021,0,3.2002258,0.2672539,4.4483948,0.8017693
				c1.2471924,0.5354881,2.291748,1.2481728,3.1356201,2.1390266c0.8418884,0.8918343,1.4654846,1.9373665,1.8717651,3.1365929
				c0.4043274,1.1992264,0.6069641,2.4787292,0.6069641,3.8404617c0,0.3240356-0.007843,0.6402397-0.0234985,0.9476357
				c-0.0166321,0.3083725-0.0411072,0.6245766-0.0734253,0.9486122c-1.7503662-0.0323067-3.4841309-0.0646095-5.2022095-0.0978966
				c-1.7180786-0.0313263-3.4518127-0.0479698-5.2012024-0.0479698c-1.0700073,0-2.1321716,0.0166435-3.1845703,0.0479698
				c-1.0533447,0.033287-2.114563,0.0655899-3.1845398,0.0978966c-0.0323181,0.1625099-0.0489502,0.4052887-0.0489502,0.7283478
				v0.6324081c0,1.2638397,0.1860046,2.447403,0.55896,3.5487328c0.3729858,1.1023102,0.9153442,2.0509224,1.6289978,2.8448601
				c0.712677,0.7939377,1.5878906,1.4263458,2.6255798,1.8952713c1.0367126,0.4708786,2.2359619,0.7048492,3.5976868,0.7048492
				c0.6480713,0,1.3127747-0.0881042,1.9931641-0.2672539c0.6803589-0.1771927,1.3441162-0.4209557,1.9931641-0.7293282
				c0.6480713-0.3073921,1.256012-0.671566,1.8228149-1.0934982c0.5668335-0.4209518,1.0611877-0.8751907,1.4831238-1.3617363
				l0.2427979,0.1458664l-0.291748,2.3827896c-0.9721069,0.777298-2.1801453,1.442009-3.6221313,1.9931641
				c-1.4420166,0.5511551-2.9408264,0.8262444-4.4963684,0.8262444c-1.7503967,0-3.3470764-0.2672577-4.789093-0.8017693
				s-2.6901855-1.3127861-3.7435303-2.3338432c-1.0533752-1.0210533-1.8639526-2.2281151-2.4307861-3.6221542
				C324.7344971,48.5644073,324.450592,47.0577888,324.450592,45.4366264z M335.6812439,34.2059898
				c-1.1992493,0-2.2124634,0.2760658-3.0386963,0.8262405c-0.8262634,0.5521355-1.5066223,1.240345-2.0421143,2.0665894
				c-0.5345154,0.8262405-0.9398193,1.7337379-1.2149048,2.7224884c-0.276062,0.9887505-0.4464111,1.920723-0.5110168,2.7949333
				c1.004425,0.0332832,2.0499573,0.0655899,3.1356201,0.0978966s2.1468506,0.0479698,3.1845703,0.0479698
				c1.0700073,0,2.1556702-0.0156631,3.2579651-0.0479698c1.1013489-0.0323067,2.1703491-0.0646133,3.2080688-0.0978966
				c0-0.8742104-0.0724487-1.7983513-0.2183228-2.7704582c-0.1458435-0.9721107-0.4375916-1.8796043-0.8751831-2.7224922
				c-0.4375916-0.8428841-1.0455322-1.5389252-1.8228149-2.0910606
				C337.9661255,34.4820557,336.9450684,34.2059898,335.6812439,34.2059898z"/>
			<path style="fill:#0A1B2B;" d="M371.8822937,45.4366264c0-3.9863281,0.9486084-7.114109,2.8438721-9.3833389
				c1.8962708-2.2682533,4.6588745-3.4028664,8.289856-3.4028664c1.7171021,0,3.2002258,0.2672539,4.4483948,0.8017693
				c1.2471924,0.5354881,2.291748,1.2481728,3.1356201,2.1390266c0.8418884,0.8918343,1.4654846,1.9373665,1.8717651,3.1365929
				c0.4042969,1.1992264,0.6069641,2.4787292,0.6069641,3.8404617c0,0.3240356-0.007843,0.6402397-0.0234985,0.9476357
				c-0.0166626,0.3083725-0.0411072,0.6245766-0.0734253,0.9486122c-1.7503967-0.0323067-3.4841309-0.0646095-5.2022095-0.0978966
				c-1.7180786-0.0313263-3.4518127-0.0479698-5.2012024-0.0479698c-1.0700073,0-2.1321716,0.0166435-3.1845703,0.0479698
				c-1.0533447,0.033287-2.114563,0.0655899-3.1845703,0.0978966c-0.0322876,0.1625099-0.0489502,0.4052887-0.0489502,0.7283478
				v0.6324081c0,1.2638397,0.1860046,2.447403,0.5589905,3.5487328c0.3729858,1.1023102,0.9153442,2.0509224,1.6289978,2.8448601
				c0.712677,0.7939377,1.5878906,1.4263458,2.6255798,1.8952713c1.0367126,0.4708786,2.2359314,0.7048492,3.5976868,0.7048492
				c0.6480713,0,1.3127747-0.0881042,1.9931641-0.2672539c0.6803589-0.1771927,1.3441162-0.4209557,1.9931641-0.7293282
				c0.6480713-0.3073921,1.256012-0.671566,1.8228149-1.0934982c0.5668335-0.4209518,1.0611877-0.8751907,1.4831238-1.3617363
				l0.2427979,0.1458664l-0.291748,2.3827896c-0.9721069,0.777298-2.1801453,1.442009-3.6221619,1.9931641
				c-1.4419861,0.5511551-2.9407959,0.8262444-4.4963684,0.8262444c-1.7503662,0-3.3470459-0.2672577-4.7890625-0.8017693
				s-2.6901855-1.3127861-3.7435608-2.3338432c-1.0533447-1.0210533-1.8639221-2.2281151-2.4307556-3.6221542
				C372.1661987,48.5644073,371.8822937,47.0577888,371.8822937,45.4366264z M383.1129456,34.2059898
				c-1.1992493,0-2.2124634,0.2760658-3.0386963,0.8262405c-0.8262634,0.5521355-1.5066223,1.240345-2.0421143,2.0665894
				c-0.5345154,0.8262405-0.9398193,1.7337379-1.2149048,2.7224884c-0.276062,0.9887505-0.4464111,1.920723-0.5110168,2.7949333
				c1.004425,0.0332832,2.0499573,0.0655899,3.1356201,0.0978966s2.1468506,0.0479698,3.1845703,0.0479698
				c1.0699768,0,2.1556702-0.0156631,3.2579651-0.0479698c1.1013489-0.0323067,2.1703491-0.0646133,3.2080688-0.0978966
				c0-0.8742104-0.0724487-1.7983513-0.2183228-2.7704582c-0.145874-0.9721107-0.4375916-1.8796043-0.8751831-2.7224922
				c-0.4375916-0.8428841-1.0455322-1.5389252-1.8228149-2.0910606
				C385.3978271,34.4820557,384.37677,34.2059898,383.1129456,34.2059898z"/>
			<g>
				<g>
					<path style="fill:#0A1B2B;" d="M361.8855896,54.253933c-1.8528442,0-3.6496582-0.1024818-5.5018311-0.1503029
						c-2.2483826-0.0485077-2.9459229-1.2625542-2.9459229-3.0122299c0-1.2987671,1.2502441-2.2969208,2.4472046-2.2969208
						c0.949646,0,1.8514709,0.0963287,2.7478333,0.0963287c5.6459656,0,9.2956238-2.9944649,9.2956238-7.9975395
						c0-2.4950485-1.4012451-5.1950531-3.4453735-6.2950058l0.0963135-0.0963326
						c1.8036499,0.0478249,3.6496582,0.2466354,5.5496521,0.3969383c-0.047821-0.3491135-0.1018066-0.6975479-0.1018066-1.0466614
						c0-0.3545799,0.0539856-0.7030106,0.1018066-1.0521278c-0.6490479,0.1503029-2.098114,0.2527847-4.0466003,0.2527847
						c-0.7037048,0-2.0024414-0.1024818-3.4993591-0.2042809c-1.7975159-0.0963287-2.8018188-0.1988106-4.0466003-0.1988106
						c-5.2012024,0-9.5484009,2.5975304-9.5484009,8.1471634c0,3.650341,1.8521729,6.0429077,4.9006042,7.396328v0.0963326
						c-1.6533508,0.3006058-3.5478821,1.953949-3.5478821,4.1483917c0,1.9539528,1.0945129,3.403019,3.1447754,3.9987679v0.0061493
						c0.0184631,0.0054665,0.0423584,0.0116158,0.0601501,0.017765c1.7619629,0.5711555,5.3993225,0.3245201,5.639801,0.3245201
						c5.2975464,0,9.1760559,3.3613434,9.1760559,7.2576332c0,7.006218-3.90448,12.105629-13.7152405,9.3482285
						c-3.993988-1.1224976-5.8659668-3.3442612-5.8659668-7.890274c0-0.5950699,0.0396423-0.9858627,0.0396423-0.9858627
						l-0.5069275,0.0245972c-0.4679871,0.0225449-0.9380493,0.008194-1.4039917-0.043045l-0.4256287-0.0464554
						c0.1817322,1.1484604,0.3026428,7.3389359,0.3026428,8.0843048c0,1.5358353-0.0170593,2.0892334-0.0170593,2.0892334
						c0.3231506-0.1127319,1.2434082-1.1689606,4.4906616-0.3429718
						c10.8649597,4.4667664,20.7993469-0.9674072,20.7993469-10.7009621
						C372.0591125,60.0324402,369.7259827,54.253933,361.8855896,54.253933 M352.8844299,40.796936
						c0-4.0465927,2.104248-6.6980934,5.6999207-6.6980934c3.2472534,0,5.4478455,2.3508911,5.4478455,6.4459915
						c0,3.6974831-1.7018433,7.0465279-5.4956665,7.0465279C354.6880798,47.591362,352.8844299,44.8920403,352.8844299,40.796936"/>
				</g>
			</g>
		</g>
		<g>
			<path style="fill:#0A1B2B;" d="M120.4759521,67.2676315c-0.8745956-0.8886795-2.0271606-1.388298-3.1938095-1.388298
				c-2.2634201,0-4.2212219,1.9431992-4.2212219,4.3317795c0,2.2915802,1.9160843,4.3328247,4.2488556,4.3328247
				c1.1249313,0,2.2774963-0.5006638,3.1661758-1.3893433v1.4446259c-0.9027557,0.6529465-2.0136032,1.0273972-3.1244507,1.0273972
				c-2.81884,0-5.4567108-2.249855-5.4567108-5.3737869c0-3.0550842,2.5132294-5.4572296,5.4567108-5.4572296
				c1.6245499,0,2.7218323,0.7082367,3.1244507,1.0274048V67.2676315z"/>
			<path style="fill:#0A1B2B;" d="M127.1822357,64.4764328l4.7072754,10.9697418h-1.2912903l-1.2360077-2.9716492h-4.4710312
				l-1.2636566,2.9716492h-1.2772141L127.1822357,64.4764328z M125.3631592,71.3918457h3.541153l-1.7497177-4.1940994
				L125.3631592,71.3918457z"/>
			<path style="fill:#0A1B2B;" d="M138.6369934,64.9760513v1.083725h-2.5544281v9.3863983h-1.1666412v-9.3863983h-2.5273132
				v-1.083725H138.6369934z"/>
			<path style="fill:#0A1B2B;" d="M142.4420319,64.9760513v4.249382h5.3597107v-4.249382h1.1661224v10.4701233h-1.1661224
				v-5.1380615h-5.3597107v5.1380615h-1.1666412V64.9760513H142.4420319z"/>
			<path style="fill:#0A1B2B;" d="M157.9511261,64.9760513v1.083725h-4.2629395v3.1103745h4.1377716v1.0826797h-4.1377716v4.1106567
				h4.2629395v1.0826874h-5.4290771V64.9760513H157.9511261z"/>
			<path style="fill:#0A1B2B;" d="M163.5324707,64.9760513c1.8049927,0,2.9852142,0.5142212,3.860321,1.2777328
				c1.2078552,1.0420074,1.7215576,2.4720306,1.7215576,3.9990463c0,1.7909164-0.8469543,3.4024277-2.3604126,4.3745499
				c-0.8193207,0.526741-1.7914429,0.8187943-3.2355499,0.8187943h-2.194046V64.9760513H163.5324707z M163.6018372,74.3634872
				c3.1380157,0,4.3463898-2.3332977,4.3463898-4.1523743c0-1.3747406-0.5835876-2.5961456-1.7079926-3.4159851
				c-0.7082367-0.513176-1.6109924-0.7353516-2.7635651-0.7353516h-0.985672v8.3037109H163.6018372z"/>
			<path style="fill:#0A1B2B;" d="M173.7241058,64.9760513c2.4855804,0,3.7492371,0.9449997,3.7492371,2.8881989
				c0,1.5969086-0.9997711,2.7494812-2.6243134,2.8882065l3.3325348,4.693718h-1.4300079l-3.1661835-4.5956726h-0.2915344v4.5956726
				h-1.1666412V64.9760513H173.7241058z M173.2938385,69.822052h0.5137024c1.5275574,0,2.4996643-0.513176,2.4996643-1.8743515
				c0-0.9856873-0.3614044-1.8879242-2.4026489-1.8879242h-0.6107178V69.822052z"/>
			<path style="fill:#0A1B2B;" d="M184.901413,64.4764328l4.7072754,10.9697418h-1.2912903l-1.2360229-2.9716492h-4.4710236
				l-1.2636566,2.9716492h-1.2772064L184.901413,64.4764328z M183.0823364,71.3918457h3.541153l-1.7497253-4.1940994
				L183.0823364,71.3918457z"/>
			<path style="fill:#0A1B2B;" d="M193.302124,64.9760513v9.3874359h2.8881989v1.0826874h-4.0543213V64.9760513H193.302124z"/>
			<path style="fill:#0A1B2B;" d="M212.0472717,67.2676315c-0.8746033-0.8886795-2.0271606-1.388298-3.1938171-1.388298
				c-2.2634125,0-4.2212219,1.9431992-4.2212219,4.3317795c0,2.2915802,1.9160919,4.3328247,4.2488708,4.3328247
				c1.1249237,0,2.2774963-0.5006638,3.1661682-1.3893433v1.4446259c-0.9027557,0.6529465-2.0136108,1.0273972-3.1244507,1.0273972
				c-2.8188477,0-5.4567108-2.249855-5.4567108-5.3737869c0-3.0550842,2.5132294-5.4572296,5.4567108-5.4572296
				c1.6245422,0,2.7218323,0.7082367,3.1244507,1.0274048V67.2676315z"/>
			<path style="fill:#0A1B2B;" d="M216.5730591,64.9760513v9.3874359h2.8881989v1.0826874h-4.0548553V64.9760513H216.5730591z"/>
			<path style="fill:#0A1B2B;" d="M226.5983124,75.6266174c-3.0128326,0-5.4566956-2.4438629-5.4566956-5.4009018
				c0-2.9580841,2.4297791-5.4301147,5.4566956-5.4301147c3.0274506,0,5.4572296,2.4720306,5.4572296,5.4301147
				C232.055542,73.1545944,229.6669617,75.6266174,226.5983124,75.6266174z M230.8894196,70.211113
				c0-2.3322601-1.8472443-4.3317795-4.304657-4.3317795c-2.3744965,0-4.2770233,1.9713593-4.2770233,4.3317795
				s1.9442444,4.3328247,4.2905731,4.3328247C228.9728241,74.5439377,230.8894196,72.5579681,230.8894196,70.211113z"/>
			<path style="fill:#0A1B2B;" d="M239.4283295,67.0172958c-0.4578857-0.8052292-0.9997559-1.1379623-1.7909088-1.1379623
				c-0.9862061,0-1.7497101,0.680069-1.7497101,1.6240234c0,0.1950531,0.0552826,0.4860611,0.2638855,0.7499542
				c0.4719849,0.5830612,1.4993896,0.930397,2.4021454,1.3465729c1.1384888,0.5277863,2.1799774,1.2360153,2.1799774,2.7911987
				c0,1.7919617-1.4441071,3.2355347-3.2908325,3.2355347c-1.6521759,0-2.9158325-1.0409622-3.2631683-2.7077484
				l1.1384888-0.3191757c0.1804504,1.1661301,1.0414886,1.9442444,2.0970459,1.9442444
				c1.1661224,0,2.1523285-0.9032822,2.1523285-2.0412445c0-1.2078552-0.8751221-1.6386337-2.4438629-2.3051376
				c-1.8607941-0.7781143-2.4026642-1.610466-2.4026642-2.7359161c0-1.5969086,1.3471069-2.6660385,2.9299316-2.6660385
				c1.1802063,0,2.1387634,0.5830688,2.7077484,1.6250763L239.4283295,67.0172958z"/>
			<path style="fill:#0A1B2B;" d="M249.2590637,64.9760513v1.083725h-4.2629395v3.1103745h4.1377716v1.0826797h-4.1377716v4.1106567
				h4.2629395v1.0826874h-5.4295807V64.9760513H249.2590637z"/>
			<path style="fill:#0A1B2B;" d="M253.6742859,73.9191513l1.0279388,0.3608932l-1.5692749,3.5547104l-0.7499542-0.3056107
				L253.6742859,73.9191513z"/>
			<path style="fill:#0A1B2B;" d="M268.7119141,67.0172958c-0.4578857-0.8052292-0.9997559-1.1379623-1.7908936-1.1379623
				c-0.9862061,0-1.7497253,0.680069-1.7497253,1.6240234c0,0.1950531,0.0552673,0.4860611,0.2638855,0.7499542
				c0.4719849,0.5830612,1.4993896,0.930397,2.4021606,1.3465729c1.1384888,0.5277863,2.1799622,1.2360153,2.1799622,2.7911987
				c0,1.7919617-1.4440918,3.2355347-3.2908325,3.2355347c-1.6521912,0-2.9158325-1.0409622-3.2631531-2.7077484
				l1.1384888-0.3191757c0.1804199,1.1661301,1.0414734,1.9442444,2.0970459,1.9442444
				c1.1661072,0,2.1523132-0.9032822,2.1523132-2.0412445c0-1.2078552-0.8751221-1.6386337-2.4438477-2.3051376
				c-1.8608093-0.7781143-2.4026794-1.610466-2.4026794-2.7359161c0-1.5969086,1.3471069-2.6660385,2.9299316-2.6660385
				c1.1802063,0,2.1387634,0.5830688,2.7077637,1.6250763L268.7119141,67.0172958z"/>
			<path style="fill:#0A1B2B;" d="M276.6260681,64.4764328l4.7072754,10.9697418h-1.2912903l-1.2360229-2.9716492h-4.4710388
				l-1.2636414,2.9716492h-1.2772217L276.6260681,64.4764328z M274.8069763,71.3918457h3.5411377l-1.7496948-4.1940994
				L274.8069763,71.3918457z"/>
			<path style="fill:#0A1B2B;" d="M285.0267639,64.9760513v9.3874359h2.8882141v1.0826874h-4.0543518V64.9760513H285.0267639z"/>
			<path style="fill:#0A1B2B;" d="M291.9969482,64.9760513v10.4701233h-1.1661377V64.9760513H291.9969482z"/>
			<path style="fill:#0A1B2B;" d="M300.2583923,67.0172958c-0.4578857-0.8052292-0.9997559-1.1379623-1.7908936-1.1379623
				c-0.9862061,0-1.7497253,0.680069-1.7497253,1.6240234c0,0.1950531,0.0552979,0.4860611,0.2638855,0.7499542
				c0.4719849,0.5830612,1.4993896,0.930397,2.4021606,1.3465729c1.1384888,0.5277863,2.1799622,1.2360153,2.1799622,2.7911987
				c0,1.7919617-1.4440918,3.2355347-3.2908325,3.2355347c-1.65271,0-2.9158325-1.0409622-3.2631531-2.7077484l1.1384888-0.3191757
				c0.1804199,1.1661301,1.0414734,1.9442444,2.0970459,1.9442444c1.1661072,0,2.1517944-0.9032822,2.1517944-2.0412445
				c0-1.2078552-0.8746033-1.6386337-2.4438477-2.3051376c-1.8602905-0.7781143-2.4021606-1.610466-2.4021606-2.7359161
				c0-1.5969086,1.3471069-2.6660385,2.9299316-2.6660385c1.1802063,0,2.1382446,0.5830688,2.7077637,1.6250763
				L300.2583923,67.0172958z"/>
			<path style="fill:#0A1B2B;" d="M306.4515076,64.9760513c2.1664124,0,3.4300537,0.9585648,3.4300537,2.8329239
				c0,0.8469543-0.305603,1.5551834-1.0279236,2.0412445c1.2219543,0.3056107,1.9859619,1.4029007,1.9859619,2.694191
				c0,1.8743591-1.4581604,2.9017639-3.6798706,2.9017639h-2.4996643V64.9760513H306.4515076z M305.8267212,69.5863266
				c0.4026184,0,0.6941528,0,1.013855-0.0135574c1.2354736-0.0552826,1.8743591-0.5413437,1.8743591-1.7637939
				c0-1.4717484-0.8328857-1.7491989-2.3604431-1.7491989h-0.527771V69.5863266z M307.0627441,74.3634872
				c1.7079773,0,2.6102295-0.6247864,2.6102295-1.9160767c0-1.2224579-0.8746033-1.8608017-2.7630615-1.8608017h-1.0831909
				v3.7768784H307.0627441z"/>
			<path style="fill:#0A1B2B;" d="M315.0738525,64.9760513v6.4575119c0,1.4853058,0.2221985,2.1382523,1.1108704,2.6931534
				c0.4302368,0.2638931,0.9439392,0.4172211,1.4576416,0.4172211c1.0555725,0,2.0412598-0.6529465,2.3327942-1.3747406
				c0.1528015-0.3754959,0.2362366-0.6946716,0.2362366-1.7637939v-6.4293518h1.1666565v6.6796799
				c0,1.0545273-0.1528015,1.6803513-0.4860535,2.2216949c-0.6665039,1.0826874-1.9301758,1.7491913-3.2496338,1.7491913
				c-0.9439392,0-1.9577942-0.3744507-2.6102295-0.9856796c-0.72229-0.680069-1.1249084-1.319458-1.1249084-3.0133667v-6.6515198
				H315.0738525z"/>
			<path style="fill:#0A1B2B;" d="M326.4310913,64.9760513c2.4855957,0,3.7492371,0.9449997,3.7492371,2.8881989
				c0,1.5969086-0.9997559,2.7494812-2.6242981,2.8882065l3.33255,4.693718h-1.4300232l-3.1661682-4.5956726h-0.2915344v4.5956726
				h-1.1661377V64.9760513H326.4310913z M326.0008545,69.822052h0.5137024c1.5275269,0,2.4996643-0.513176,2.4996643-1.8743515
				c0-0.9856873-0.3614197-1.8879242-2.4021606-1.8879242h-0.6112061V69.822052z"/>
			<path style="fill:#0A1B2B;" d="M333.8742981,64.9760513l2.6660156,4.6655579l2.6660461-4.6655579h1.3465881l-3.4295654,5.9714508
				v4.4986725h-1.1666565v-4.4986725l-3.4295349-5.9714508H333.8742981z"/>
		</g>
	</g>
	<g>
		<path style="fill:none;" d="M43.2115326,53.7471886c1.4875183-1.4876556,2.9321327-2.9325409,3.9352722-3.9340553H13.4504662
			c-0.0775499,0-0.1457605-0.0292358-0.218709-0.0443916c-0.5056295-0.1023178-0.8933773-0.5283661-0.8933773-1.064312
			c0-0.6133614,0.4956141-1.1092453,1.1077557-1.1092453h0.0020294c0.0008125,0,0.0014887-0.0005417,0.0023012-0.0005417h33.6953926
			c-0.948597-0.9484596-2.2976646-2.2959023-3.7010002-3.7007294H20.927309c-0.000948,0-0.0014896-0.0010796-0.0024376-0.0010796
			h-0.0012169c-0.1874466,0-0.3401089-0.1526642-0.3401089-0.3399734c0-0.1889343,0.1526623-0.3415985,0.3401089-0.3415985
			h21.8370609c-1.2716522-1.2716522-2.5449295-2.5433044-3.5690422-3.5691795H27.0447979
			c-0.0950089,0-0.1800022-0.0389786-0.2414455-0.1012344c-0.0621204-0.0617142-0.1008282-0.1467056-0.1008282-0.2409019
			c0-0.1883965,0.1526623-0.3410568,0.3399734-0.3410568h11.4657078c-0.8644142-0.8645515-1.4417725-1.443264-1.503624-1.5082283
			c-2.9801788-2.8924789-6.8610458-4.44347-10.9155521-4.368763c-3.9957695,0.0146141-7.6544075,1.5260887-10.5816708,4.3714714
			c-0.2507839,0.238739-9.6688042,9.6659622-11.2525482,11.2510605c1.5853691,1.5850983,11.0167866,11.024231,11.2465935,11.2483521
			c2.9800453,2.8935661,6.8594227,4.4423904,10.9215088,4.3731003c3.9956341-0.0151596,7.6544075-1.5260925,10.5816689-4.3703918
			c0.004467-0.0027084,0.0104218-0.0092049,0.0165138-0.0167809c0.1315498-0.1326332,0.7964745-0.7990456,1.7471008-1.7496719
			H26.7735767c-0.1889343,0-0.3415966-0.1526642-0.3415966-0.3415985c0-0.094738,0.0392475-0.1791916,0.1019115-0.2409058
			c0.0617142-0.0622559,0.1471138-0.1006927,0.2419872-0.1006927h12.6745644c0.0002708,0,0.0004044,0,0.0006752,0
			c0.9111061-0.9105644,1.9878693-1.9878693,3.0754585-3.0754585H21.148859c-0.1889343,0-0.3415966-0.1521225-0.3415966-0.3415985
			c0-0.094738,0.0401955-0.1797295,0.1036701-0.2414436c0.0615788-0.061718,0.1465721-0.1001511,0.2404976-0.1001511H43.2115326z"/>
		<path style="fill:none;" d="M57.8884468,58.3379097c-1.0132904-1.0117989-2.2844009-2.2829094-3.5649834-3.5637665v21.8708992
			c0,0.1883926-0.1526642,0.3410568-0.3415985,0.3410568c-0.0963593,0-0.1810837-0.041687-0.2430687-0.1066513
			c-0.061985-0.0617142-0.1008301-0.1472473-0.1008301-0.2419891V54.0876999
			c-1.447998-1.4481316-2.8472748-2.8475456-3.8240204-3.8241577v33.6985016c0,0.6133652-0.4956169,1.1092453-1.1077576,1.1092453
			c-0.4617767,0-0.8558884-0.2809601-1.0231667-0.681572c-0.0571136-0.1337128-0.0894623-0.2804184-0.0894623-0.4347076V50.2667923
			c-0.9308662,0.9305954-2.2437935,2.2439308-3.6174927,3.6189842c0.0423622,0.0557594,0.0680771,0.1272163,0.0680771,0.2040901
			v22.5551758c0,0.1883926-0.1526642,0.3410568-0.3401108,0.3410568c-0.1889343,0-0.3414612-0.1526642-0.3414612-0.3410568
			v-0.0054169c0-0.0010834-0.0008125-0.0010834-0.0008125-0.0021667V54.4985924
			c-1.2601471,1.2619095-2.5292282,2.5319366-3.5702629,3.5702629v12.456665c0,0.189476-0.1526604,0.3421402-0.3399734,0.3421402
			c-0.1889343,0-0.3415947-0.1526642-0.3415947-0.3421402V58.7504234c-0.8825531,0.8824158-1.4991608,1.4979401-1.6381531,1.6349068
			c-0.0060883,0.0059547-0.0105553,0.0108261-0.0120468,0.0135307L37.458107,60.400486
			c-2.896946,2.9801826-4.4505119,6.8579369-4.3733673,10.9202919c0.0151558,3.9957657,1.5263596,7.654274,4.370388,10.581398
			c0.238739,0.2495651,9.6658287,9.6692123,11.2510605,11.2526855c1.5868568-1.58564,11.0243683-11.016655,11.2479477-11.246727
			c2.894104-2.9785614,4.4476662-6.857933,4.3736382-10.9213791c-0.0151596-3.9957657-1.5263596-7.6542702-4.3705254-10.5830193
			c-0.0075798-0.0059547-0.0227356-0.0227394-0.0453377-0.045475c-0.160244-0.1586189-0.6467896-0.6453018-1.3359375-1.3328247
			v11.5000839c0,0.189476-0.1526642,0.3421402-0.3415985,0.3421402c-0.0954132,0-0.1804085-0.0411453-0.2421227-0.1050262
			c-0.0634727-0.0617142-0.1038055-0.1461639-0.1038055-0.2425232V58.3379097z"/>
		<path style="fill:none;" d="M39.3797951,26.6267338v-0.0043316c0-0.1889343,0.1526642-0.3415966,0.3415985-0.3415966
			c0.1873093,0,0.3399734,0.1526623,0.3399734,0.3415966v12.6775436c0,0.0860748-0.0316696,0.1634903-0.0845909,0.2219543
			c0.9398003,0.9398003,2.0487747,2.0490456,3.160862,3.1626205V21.0030975c0,0,0.0006752-0.0005398,0.0006752-0.0010815v-0.0043316
			c0-0.1889343,0.1525269-0.3415966,0.3414612-0.3415966c0.1873093,0,0.3399734,0.1526623,0.3399734,0.3415966v22.3689461
			c1.4313545,1.4313545,2.8081627,2.8080292,3.7738113,3.7754364V13.451684c0-0.1542873,0.0320778-0.3004541,0.0890541-0.4336281
			c0.1674156-0.4006062,0.5622025-0.6826534,1.0230331-0.6826534c0.6120071,0,1.1092453,0.4969673,1.1092453,1.1092443v33.7001266
			c0.9768829-0.9771538,2.3749428-2.3765678,3.8228035-3.8257828V21.0030975c0-0.0952778,0.0391159-0.1802711,0.1015053-0.242527
			c0.0621223-0.0638809,0.1472511-0.1044827,0.2436142-0.1044827c0.1873093,0,0.3399734,0.1526623,0.3399734,0.3415966v21.6359482
			c1.106266-1.105999,2.2079315-2.2076607,3.1387978-3.1387978c-0.0259857-0.0384369-0.0323486-0.087162-0.041687-0.1342583
			c-0.0041924-0.021656-0.0239525-0.0357285-0.0239525-0.0584679V26.6278172c0-0.0963631,0.0397873-0.1813564,0.1028557-0.2436123
			c0.0615807-0.0633392,0.1464386-0.1033993,0.2423935-0.1033993c0.1889343,0,0.341465,0.1526623,0.341465,0.3415966v12.2514915
			c1.039814-1.0383263,1.7637444-1.7610397,1.8679581-1.8633575l0.0060883-0.0059547
			c2.84552-2.9303741,4.3568535-6.5877953,4.3718758-10.5786915c0.0740356-4.0683117-1.479393-7.9460659-4.3749886-10.9262457
			c-0.2222252-0.2295361-9.6612244-9.6610889-11.2479477-11.2461882
			c-1.5853691,1.5834746-11.0108299,11.0014944-11.2495689,11.2505198c-2.8456535,2.92875-4.3568573,6.5861712-4.3720169,10.5786924
			c-0.0755196,4.0639801,1.4749336,7.9384842,4.3689041,10.9186668c0.0756531,0.0741653,0.8326073,0.830986,1.9264221,1.9234467
			V26.6278172C39.3793869,26.6267338,39.3797951,26.6267338,39.3797951,26.6267338z"/>
		<path style="fill:none;" d="M81.9058304,37.4539108c-2.9288864-2.8459244-6.5873871-4.3568573-10.5785599-4.3720131
			c-4.0668182-0.0801239-7.9445724,1.4779091-10.9262428,4.3747177l-0.004467,0.0048752
			c-0.110302,0.1115189-0.6725006,0.6750717-1.4946899,1.4973984h11.5171356c0.1889343,0,0.3415985,0.1526604,0.3415985,0.3415947
			c0,0.1873131-0.1526642,0.3399734-0.3415985,0.3399734h-0.0041962c-0.0017548,0-0.0027008,0.0016251-0.0043259,0.0016251
			H58.2186737c-1.02425,1.0258751-2.2960358,2.2975273-3.569313,3.5691795h21.8886261
			c0.188797,0,0.3414612,0.1526642,0.3414612,0.3415985c0,0.1873093-0.1526642,0.3399734-0.3414612,0.3399734h-0.007576
			c-0.0008163,0-0.001358,0.0010796-0.0021667,0.0010796H53.9778061c-0.0017586,0-0.0029793-0.0021629-0.0047379-0.0021629
			c-0.0012169,0-0.0025711,0-0.003788,0c-1.405098,1.4048271-2.7542992,2.7528076-3.7033005,3.7028923h33.687542
			c0.000946,0,0.0017548,0.0010834,0.0027084,0.0010834h0.0093384c0.6120071,0,1.1092453,0.4953423,1.1092453,1.1076202
			c0,0.6133614-0.4972382,1.1092453-1.1092453,1.1092453h-0.007988c-0.0014877,0-0.0025711,0.0005417-0.0040588,0.0005417
			H50.2662506c1.0012436,1.0015144,2.4462624,2.4463997,3.9336472,3.9340553h22.3284836
			c0.0020294,0,0.0031128,0.0021629,0.0051422,0.0021629h0.0044632c0.188797,0,0.3414612,0.1510391,0.3414612,0.3399734
			s-0.1526642,0.3415985-0.3414612,0.3415985H54.8836327c1.1168251,1.1152,2.2214661,2.2195702,3.1463776,3.1463776
			c0.0411453-0.0319405,0.0948753-0.040062,0.1472511-0.0498047c0.0196228-0.0037918,0.032074-0.021656,0.0526466-0.021656
			h12.6745644c0.0020294,0,0.0029755,0.0016251,0.0050049,0.0016251h0.0036545c0.1874466,0,0.3401108,0.1526642,0.3401108,0.3399734
			c0,0.1889343-0.1526642,0.3415985-0.3401108,0.3415985H58.6436424c0.8870163,0.8889084,1.5292015,1.5309601,1.7166481,1.7215195
			c0.0227394,0.0211143,0.0377617,0.0378952,0.0453377,0.0438499c2.9287529,2.8453827,6.5859032,4.3568573,10.5785561,4.3714752
			c4.0681763,0.0741653,7.9459305-1.4789963,10.9261093-4.3731003c0.2296753-0.2235794,9.661232-9.6627121,11.2449722-11.2494354
			C91.5730133,47.1193314,82.1551285,37.6921082,81.9058304,37.4539108z"/>
		<g>
			<path style="fill:#0A1B2B;" d="M76.8684845,54.087162c0,0.1889343-0.1511688,0.3415947-0.3401031,0.3415947h-22.210331
				v22.2087021c0,0.1889343-0.1511765,0.3415985-0.3401108,0.3415985c-0.0932465,0-0.1775627-0.0384369-0.2391434-0.0996094
				c0.061985,0.0649643,0.1467094,0.1066513,0.2430687,0.1066513c0.1889343,0,0.3415985-0.1526642,0.3415985-0.3410568V54.7741432
				c1.2805824,1.2808571,2.551693,2.5519676,3.5649834,3.5637665v-0.4920959c0-0.1672783,0.1288414-0.2901688,0.2888145-0.3183174
				c-0.0523758,0.0097427-0.1061058,0.0178642-0.1472511,0.0498047c-0.9249115-0.9268074-2.0295525-2.0311775-3.1463776-3.1463776
				h21.6543541c0.188797,0,0.3414612-0.1526642,0.3414612-0.3415985s-0.1526642-0.3399734-0.3414612-0.3399734h-0.0044632
				C76.7194748,53.7526016,76.8684845,53.901474,76.8684845,54.087162z"/>
		</g>
		<g>
			<path style="fill:#0A1B2B;" d="M53.641758,54.09095c-0.0012169-0.0010834-0.0025711-0.0021667-0.0037918-0.0032501v22.5497589
				c0,0.0947418,0.0388451,0.180275,0.1008301,0.2419891c-0.0584679-0.0611725-0.0970383-0.1429138-0.0970383-0.2344055V54.09095z"
				/>
		</g>
		<g>
			<path style="fill:#0A1B2B;" d="M47.5969429,50.2635422c-0.0010796,0.0010834-0.0024338,0.0021667-0.0033836,0.0032501v33.6882172
				c0,0.1542892,0.0323486,0.3009949,0.0894623,0.4347076c-0.0549469-0.131546-0.0860786-0.2760925-0.0860786-0.4276733V50.2635422z
				"/>
		</g>
		<g>
			<path style="fill:#0A1B2B;" d="M47.596405,13.4446468c0-0.1515808,0.0312614-0.2955828,0.0862083-0.4265909
				c-0.0569763,0.1331739-0.0890541,0.2793407-0.0890541,0.4336281V47.142067
				c0.0008125,0.0005417,0.0020332,0.0016251,0.0028458,0.0027084V13.4446468z"/>
		</g>
		<g>
			<polygon style="fill:#0A1B2B;" points="50.2662506,49.8131332 83.9535217,49.8131332 83.9575806,49.8125916 
				50.2653008,49.8125916 			"/>
		</g>
		<g>
			<path style="fill:#0A1B2B;" d="M85.062767,48.7038879c0,0.6106529-0.4952087,1.1059952-1.1051865,1.1087036h0.007988
				c0.6120071,0,1.1092453-0.4958839,1.1092453-1.1092453c0-0.612278-0.4972382-1.1076202-1.1092453-1.1076202h-0.0093384
				C84.5668793,47.5968094,85.062767,48.093235,85.062767,48.7038879z"/>
		</g>
		<g>
			<path style="fill:#0A1B2B;" d="M47.1468048,49.8131332c-1.0031395,1.0015144-2.4477539,2.4463997-3.9352722,3.9340553h0.4903336
				c0.1888008,0,0.3399734,0.1526604,0.3399734,0.3399734v22.5502968c0,0.1889343-0.1511726,0.3415985-0.3399734,0.3415985
				c-0.1881218,0-0.3379402-0.1521225-0.3392944-0.3394318v0.0054169c0,0.1883926,0.1525269,0.3410568,0.3414612,0.3410568
				c0.1874466,0,0.3401108-0.1526642,0.3401108-0.3410568V54.0898666c0-0.0768738-0.0257149-0.1483307-0.0680771-0.2040901
				c1.3736992-1.3750534,2.6866264-2.6883888,3.6174927-3.6189842v-0.4536591H47.1468048z"/>
		</g>
		<g>
			<path style="fill:#0A1B2B;" d="M53.6379662,54.087162v0.0005379c0.0012207,0.0010834,0.0025749,0.0021667,0.0037918,0.0032501
				v22.5540924c0,0.0914917,0.0385704,0.173233,0.0970383,0.2344055c0.0615807,0.0611725,0.1458969,0.0996094,0.2391434,0.0996094
				c0.1889343,0,0.3401108-0.1526642,0.3401108-0.3415985V54.4287567h22.210331
				c0.1889343,0,0.3401031-0.1526604,0.3401031-0.3415947c0-0.185688-0.1490097-0.3345604-0.3349609-0.3378105h-22.331459
				c-0.000679-0.0010834-0.0013542-0.0016251-0.0021667-0.0021629h-0.2219582
				C53.7906303,53.7471886,53.6379662,53.8998489,53.6379662,54.087162z"/>
		</g>
		<g>
			<polygon style="fill:#0A1B2B;" points="76.5335236,53.7493515 76.5283813,53.7471886 54.1998978,53.7471886 
				54.2020645,53.7493515 			"/>
		</g>
		<g>
			<path style="fill:#0A1B2B;" d="M49.8104248,83.9550095c0,0.6117325-0.4956131,1.1092453-1.1076202,1.1092453
				c-0.4575844,0-0.850338-0.2782593-1.019783-0.6745377c0.1672783,0.4006119,0.5613899,0.681572,1.0231667,0.681572
				c0.6121407,0,1.1077576-0.4958801,1.1077576-1.1092453V50.2635422c0.9767456,0.9766121,2.3760223,2.3760262,3.8240204,3.8241577
				V54.087162c0-0.1873131,0.1526642-0.3399734,0.3399734-0.3399734h0.2219582
				c-1.4873848-1.4876556-2.9324036-2.9325409-3.9336472-3.9340553h-0.4558258V83.9550095z"/>
		</g>
		<g>
			<polygon style="fill:#0A1B2B;" points="83.9562302,47.595726 83.9535217,47.5946426 50.2659798,47.5946426 50.2653008,47.595726 
							"/>
		</g>
		<g>
			<path style="fill:#0A1B2B;" d="M53.6412163,20.9976845c0-0.0925713,0.0384369-0.1753998,0.0979843-0.237114
				c-0.0623894,0.0622559-0.1015053,0.1472492-0.1015053,0.242527v22.3158951
				c0.0012207-0.0016251,0.0023041-0.0027084,0.003521-0.0037918V20.9976845z"/>
		</g>
		<g>
			<polygon style="fill:#0A1B2B;" points="43.1383133,21.0020161 43.1376381,21.0030975 43.1376381,42.6845207 
				43.1383133,42.6850624 			"/>
		</g>
		<g>
			<polygon style="fill:#0A1B2B;" points="20.9248714,43.8928337 20.927309,43.8939133 43.4448586,43.8939133 
				43.4437752,43.8928337 			"/>
		</g>
		<g>
			<path style="fill:#0A1B2B;" d="M43.8177185,43.5523186v-22.549221l-0.3399734,22.8908157
				C43.6650543,43.8939133,43.8177185,43.7412529,43.8177185,43.5523186z"/>
		</g>
		<g>
			<path style="fill:#0A1B2B;" d="M43.8177185,21.0030975c0-0.1883926-0.1526642-0.3410549-0.3399734-0.3410549
				c-0.1883926,0-0.3386192,0.1515808-0.3394318,0.3399734v21.6830463c-0.0002708,0-0.0004044-0.0005417-0.0006752-0.0005417
				v0.5278244H20.927309c-0.1889343,0-0.3399734,0.1526604-0.3399734,0.3399734c0,0.187851,0.1499557,0.3388901,0.3375359,0.3405151
				h22.5189037c0.0004044,0.0005417,0.0006752,0.0005417,0.0010834,0.0010796h0.0328865L43.8177185,21.0030975z"/>
		</g>
		<g>
			<polygon style="fill:#0A1B2B;" points="47.1458588,47.5946426 13.4504662,47.5946426 13.4481649,47.5951843 
				47.1464005,47.5951843 			"/>
		</g>
		<g>
			<path style="fill:#0A1B2B;" d="M12.3428459,48.7038879c0-0.6111946,0.4945316-1.1070786,1.105319-1.1087036h-0.0020294
				c-0.6121416,0-1.1077557,0.4958839-1.1077557,1.1092453c0,0.5359459,0.3877478,0.9619942,0.8933773,1.064312
				C12.7282934,49.664257,12.3428459,49.2387505,12.3428459,48.7038879z"/>
		</g>
		<g>
			<path style="fill:#0A1B2B;" d="M47.5935593,47.142067c-0.9656487-0.9674072-2.3424568-2.3440819-3.7738113-3.7754364V20.9976845
				c0-0.1889343-0.1526642-0.3415966-0.3399734-0.3415966c-0.1889343,0-0.3414612,0.1526623-0.3414612,0.3415966v0.0043316
				c0.0008125-0.1883926,0.1510391-0.3399734,0.3394318-0.3399734c0.1873093,0,0.3399734,0.1526623,0.3399734,0.3410549v22.549221
				c0,0.1889343-0.1526642,0.3415947-0.3399734,0.3415947h-0.0328865c1.4033356,1.4048271,2.7524033,2.7522697,3.7010002,3.7007294
				h0.4477005V47.142067z"/>
		</g>
		<g>
			<path style="fill:#0A1B2B;" d="M13.4461355,49.8120499c-0.0760612,0-0.1426487-0.0281525-0.2143784-0.0433083
				c0.0729485,0.0151558,0.1411591,0.0443916,0.218709,0.0443916h33.6963387c0.0002708,0,0.0006752-0.0005417,0.0010834-0.0010834
				H13.4461355z"/>
		</g>
		<g>
			<path style="fill:#0A1B2B;" d="M20.5873356,43.5523186c0-0.1873131,0.1510391-0.3399734,0.3399734-0.3399734h22.2103291
				v-0.5278244c-1.1120872-1.113575-2.2210617-2.2228203-3.160862-3.1626205
				c0.0529213-0.0584641,0.0845909-0.1358795,0.0845909-0.2219543V26.6224022c0-0.1889343-0.1526642-0.3415966-0.3399734-0.3415966
				c-0.1889343,0-0.3415985,0.1526623-0.3415985,0.3415966v0.0043316c0.0008125-0.1883926,0.1511726-0.3405151,0.3397026-0.3405151
				c0.1873093,0,0.3399734,0.1521225,0.3399734,0.3415985v12.6742916c0,0.1873093-0.1526642,0.3399734-0.3399734,0.3399734
				h-0.5278244c1.0241127,1.0258751,2.29739,2.2975273,3.5690422,3.5691795H20.9236546
				c-0.1874466,0-0.3401089,0.1526642-0.3401089,0.3415985c0,0.1873093,0.1526623,0.3399734,0.3401089,0.3399734h0.0012169
				C20.7372913,43.8912086,20.5873356,43.7401695,20.5873356,43.5523186z"/>
		</g>
		<g>
			<path style="fill:#0A1B2B;" d="M43.3625717,76.6396255c0.0013542,0.1873093,0.1511726,0.3394318,0.3392944,0.3394318
				c0.1888008,0,0.3399734-0.1526642,0.3399734-0.3415985V54.087162c0-0.1873131-0.1511726-0.3399734-0.3399734-0.3399734
				h-0.4903336c-0.000679,0.0005379-0.0013542,0.0010796-0.0020294,0.0016212H21.148859
				c-0.0929775,0-0.1763477,0.0384369-0.2379265,0.0985298c-0.0614452,0.0611725-0.0996113,0.1461639-0.0996113,0.2398224
				c0,0.1889343,0.1526642,0.3415947,0.3401089,0.3415947h22.2103291v0.0698357
				c0.0002708-0.0005417,0.0005417-0.0005417,0.0008125-0.0005417V76.6396255z"/>
		</g>
		<g>
			<path style="fill:#0A1B2B;" d="M43.2095032,53.7488098c0.0006752-0.0005417,0.0013504-0.0010834,0.0020294-0.0016212H21.1514301
				c-0.0939255,0-0.1789188,0.0384331-0.2404976,0.1001511c0.0615788-0.0600929,0.144949-0.0985298,0.2379265-0.0985298H43.2095032z
				"/>
		</g>
		<g>
			<polygon style="fill:#0A1B2B;" points="43.3625717,76.6396255 43.3625717,54.4980507 43.3617592,54.4985924 
				43.3617592,76.6374588 			"/>
		</g>
		<g>
			<path style="fill:#0A1B2B;" d="M26.7758789,57.5058403c-0.0948734,0-0.1802731,0.0384369-0.2419872,0.1006927
				c0.0615788-0.0611725,0.145895-0.0990677,0.2396851-0.0990677h12.676054
				c0.0005417-0.0005417,0.0010834-0.0010834,0.0014877-0.0016251c-0.0002708,0-0.0004044,0-0.0006752,0H26.7758789z"/>
		</g>
		<g>
			<path style="fill:#0A1B2B;" d="M26.7735767,57.5074654c-0.0937901,0-0.1781063,0.0378952-0.2396851,0.0990677
				c-0.0614452,0.0611763-0.0996113,0.1456261-0.0996113,0.2392807c0,0.1883926,0.1526642,0.3399734,0.3415985,0.3399734h12.3345909
				v12.3343239c0,0.1889343,0.1510391,0.3399734,0.3399734,0.3399734s0.340107-0.1510391,0.340107-0.3399734V57.8458138
				c0-0.1873093-0.1507683-0.3394318-0.3394318-0.3399734c-0.0004044,0.0005417-0.000946,0.0010834-0.0014877,0.0016251H26.7735767z
				"/>
		</g>
		<g>
			<path style="fill:#0A1B2B;" d="M57.8944016,58.3438644c-0.0017586-0.0021667-0.0041962-0.0043297-0.0059547-0.0059547v12.1822014
				c0,0.0963593,0.0403328,0.180809,0.1038055,0.2425232c-0.0595512-0.0617142-0.0978508-0.1439972-0.0978508-0.237114V58.3438644z"
				/>
		</g>
		<g>
			<g>
				<path style="fill:#0A1B2B;" d="M96.875351,48.1701088l-1.6866074-1.6895828
					c-7.2569122-7.2617874-11.0243607-11.0291023-11.198143-11.1963806
					c-3.4395218-3.3418083-7.9323959-5.1927147-12.6473541-5.2111206c-1.5158081-0.0286922-3.0270081,0.1364212-4.5004578,0.4915524
					c0.3234634-1.3496075,0.4896622-2.7311535,0.4941254-4.1229877c0.0876999-4.8462448-1.7665863-9.4797344-5.2242432-13.0386276
					c-0.2115364-0.2176266-7.6120491-7.6136703-10.4304962-10.4303608l-1.0728378-1.0702665l-1.3692322-1.3690965L48.7051048,0
					l-0.5335083,0.5332385l-1.3690948,1.3674724c-0.110302,0.1120613-11.2298126,11.2212858-11.5155144,11.5174084
					c-3.3427563,3.4408779-5.1940689,7.9336147-5.212204,12.6472244c-0.0272026,1.5158062,0.1360168,3.0240307,0.4896584,4.4992332
					c-1.4779091-0.3551311-2.995203-0.5202446-4.5276527-0.4915524c-4.6892509,0.0184059-9.1775227,1.8709354-12.6246243,5.21978
					C13.1218615,35.571064,2.0145316,46.6905746,1.9026055,46.8020935l-1.3676076,1.3680153L0,48.7033463l0.5349979,0.5348625
					l1.3692317,1.3696365l1.0411685,1.0426598C5.738133,54.444458,13.1808691,61.8935547,13.4075632,62.1128044
					c3.5649824,3.464695,8.207406,5.3204765,13.0705671,5.2224922c1.3736992-0.0059586,2.7442837-0.1705322,4.087801-0.4942627
					c-0.3536434,1.4795303-0.5183506,2.9985886-0.491148,4.530632c0.0181351,4.6908722,1.8709354,9.1792755,5.2197838,12.6261139
					c0.1602402,0.1667328,3.9352722,3.9416275,11.2116737,11.2120819l1.6653557,1.6635971l0.5335083,0.5337753l0.5349998-0.5337753
					l2.0114174-2.0095291c7.2600288-7.2542038,10.7099724-10.7042847,10.8626366-10.8629074
					c3.4561691-3.5545578,5.3104553-8.1950836,5.2227554-13.0646133c-0.0059509-1.3782959-0.1706619-2.7517242-0.4941254-4.0970001
					c1.349472,0.3237305,2.730751,0.4899292,4.1240768,0.4958878c5.0460052,0.0027008,9.570549-1.8541565,13.0388947-5.2241173
					c0.2009811-0.1965103,6.2352371-6.2326622,11.2616196-11.26297l1.6079712-1.6100006l0.533371-0.5348625L96.875351,48.1701088z
					 M81.9102936,59.9527817c-2.9801788,2.894104-6.857933,4.4472656-10.9261093,4.3731003
					c-3.9926529-0.0146179-7.6498032-1.5260925-10.5785561-4.3714752c-0.007576-0.0059547-0.0225983-0.0227356-0.0453377-0.0438499
					c-0.1874466-0.1905594-0.8296318-0.8326111-1.7166481-1.7215195h12.2694893
					c0.1874466,0,0.3401108-0.1526642,0.3401108-0.3415985c0-0.1873093-0.1526642-0.3399734-0.3401108-0.3399734h-0.0036545
					c0.1860962,0.0032463,0.3351059,0.1526642,0.3351059,0.3383484c0,0.1883926-0.1511765,0.3399734-0.3401108,0.3399734H58.5700188
					v12.3343239c0,0.1889343-0.1526642,0.3399734-0.3401108,0.3399734c-0.0929794,0-0.1762123-0.0378952-0.2376556-0.0974503
					c0.0617142,0.0638809,0.1467094,0.1050262,0.2421227,0.1050262c0.1889343,0,0.3415985-0.1526642,0.3415985-0.3421402V59.0254364
					c0.6891479,0.6875229,1.1756935,1.1742058,1.3359375,1.3328247c0.0226021,0.0227356,0.0377579,0.0395203,0.0453377,0.045475
					c2.8441658,2.9287491,4.3553658,6.5872536,4.3705254,10.5830193c0.074028,4.063446-1.4795341,7.9428177-4.3736382,10.9213791
					c-0.2235794,0.230072-9.6610909,9.661087-11.2479477,11.246727
					c-1.5852318-1.5834732-11.0123215-11.0031204-11.2510605-11.2526855
					c-2.8440285-2.927124-4.3552322-6.5856323-4.370388-10.581398c-0.0771446-4.062355,1.4764214-7.9401093,4.3733673-10.9202919
					l0.0016212-0.0016251c0.0014915-0.0027046,0.0059586-0.007576,0.0120468-0.0135307
					c0.1389923-0.1369667,0.7556-0.752491,1.6381531-1.6349068v11.7750969c0,0.189476,0.1526604,0.3421402,0.3415947,0.3421402
					c0.1873131,0,0.3399734-0.1526642,0.3399734-0.3421402v-12.456665c1.0410347-1.0383263,2.3101158-2.3083534,3.5702629-3.5702629
					v-0.0698357H21.1514301c-0.1874447,0-0.3401089-0.1526604-0.3401089-0.3415947
					c0-0.0936584,0.038166-0.1786499,0.0996113-0.2398224c-0.0634747,0.0617142-0.1036701,0.1467056-0.1036701,0.2414436
					c0,0.189476,0.1526623,0.3415985,0.3415966,0.3415985h21.377718c-1.0875893,1.0875893-2.1643524,2.1648941-3.0754585,3.0754585
					c0.1886635,0.0005417,0.3394318,0.1526642,0.3394318,0.3399734v12.6742973c0,0.1889343-0.1511726,0.3399734-0.340107,0.3399734
					s-0.3399734-0.1510391-0.3399734-0.3399734V58.1857872H26.7758789c-0.1889343,0-0.3415985-0.1515808-0.3415985-0.3399734
					c0-0.0936546,0.038166-0.1781044,0.0996113-0.2392807c-0.062664,0.0617142-0.1019115,0.1461678-0.1019115,0.2409058
					c0,0.1889343,0.1526623,0.3415985,0.3415966,0.3415985h11.9946194c-0.9506264,0.9506264-1.615551,1.6170387-1.7471008,1.7496719
					c-0.0060921,0.007576-0.0120468,0.0140724-0.0165138,0.0167809c-2.9272614,2.8442993-6.5860348,4.3552322-10.5816689,4.3703918
					c-4.0620861,0.0692902-7.9414635-1.4795341-10.9215088-4.3731003
					c-0.2298069-0.2241211-9.6612244-9.6632538-11.2465935-11.2483521
					c1.583745-1.5850983,11.0017643-11.0123215,11.2525482-11.2510605
					c2.9272633-2.8453827,6.5859013-4.3568573,10.5816708-4.3714714c4.0545063-0.074707,7.9353733,1.476284,10.9155521,4.368763
					c0.0618515,0.0649643,0.6392097,0.6436768,1.503624,1.5082283H27.0424976c-0.1873112,0-0.3399734,0.1526604-0.3399734,0.3410568
					c0,0.0941963,0.0387077,0.1791878,0.1008282,0.2409019c-0.0607681-0.0611725-0.0985279-0.1456261-0.0985279-0.238739
					c0-0.1889343,0.1510391-0.3399734,0.3399734-0.3399734h12.334589v-0.0373535
					c-1.0938148-1.0924606-1.850769-1.8492813-1.9264221-1.9234467c-2.8939705-2.9801826-4.4444237-6.8546867-4.3689041-10.9186668
					c0.0151596-3.9925213,1.5263634-7.6499424,4.3720169-10.5786924c0.238739-0.2490253,9.6641998-9.6670456,11.2495689-11.2505198
					c1.5867233,1.5850987,11.0257225,11.0166521,11.2479477,11.2461882
					c2.8955956,2.9801798,4.4490242,6.857934,4.3749886,10.9262457c-0.0150223,3.9908962-1.5263557,7.6483173-4.3718758,10.5786915
					l-0.0060883,0.0059547c-0.1042137,0.1023178-0.8281441,0.8250313-1.8679581,1.8633575V26.6224022
					c0-0.1889343-0.1525307-0.3415966-0.341465-0.3415966c-0.0959549,0-0.1808128,0.04006-0.2423935,0.1033993
					c0.0611763-0.0595493,0.1441383-0.0979862,0.2371178-0.0979862c0.188797,0,0.3399734,0.1521225,0.3399734,0.3415985v12.3343182
					h12.3345909c0.1873093,0,0.3399734,0.1510391,0.3399734,0.3399734c0,0.185688-0.1506348,0.3356438-0.3356476,0.3383484
					h0.0041962c0.1889343,0,0.3415985-0.1526604,0.3415985-0.3399734c0-0.1889343-0.1526642-0.3415947-0.3415985-0.3415947
					H58.9018707c0.8221893-0.8223267,1.384388-1.3858795,1.4946899-1.4973984l0.004467-0.0048752
					c2.9816704-2.8968086,6.8594246-4.4548416,10.9262428-4.3747177c3.9911728,0.0151558,7.6496735,1.5260887,10.5785599,4.3720131
					c0.2492981,0.2381973,9.6671829,9.6654205,11.2494354,11.2494354
					C91.5715256,50.2900696,82.1399689,59.7292023,81.9102936,59.9527817z"/>
			</g>
		</g>
		<g>
			<path style="fill:#0A1B2B;" d="M58.229908,57.5058403c-0.0205727,0-0.0330238,0.0178642-0.0526466,0.021656
				c0.0207062-0.0043335,0.0364075-0.020031,0.058197-0.020031h12.6740189c-0.0020294,0-0.0029755-0.0016251-0.0050049-0.0016251
				H58.229908z"/>
		</g>
		<g>
			<path style="fill:#0A1B2B;" d="M58.1772614,57.5274963c-0.1599731,0.0281487-0.2888145,0.1510391-0.2888145,0.3183174v0.4920959
				c0.0017586,0.0016251,0.0041962,0.003788,0.0059547,0.0059547v12.1816559c0,0.0931168,0.0382996,0.1753998,0.0978508,0.237114
				c0.0614433,0.0595551,0.1446762,0.0974503,0.2376556,0.0974503c0.1874466,0,0.3401108-0.1510391,0.3401108-0.3399734V58.1857872
				h12.3344536c0.1889343,0,0.3401108-0.1515808,0.3401108-0.3399734c0-0.1856842-0.1490097-0.3351021-0.3351059-0.3383484
				H58.2354584C58.2136688,57.5074654,58.1979675,57.5231628,58.1772614,57.5274963z"/>
		</g>
		<g>
			<path style="fill:#0A1B2B;" d="M39.1916733,39.6420822c-0.000679-0.0005417-0.0012207-0.0010834-0.0018959-0.0021667H27.0424976
				c-0.0932484,0-0.1775665-0.0378914-0.2391453-0.0990677c0.0614433,0.0622559,0.1464367,0.1012344,0.2414455,0.1012344H39.1916733
				z"/>
		</g>
		<g>
			<path style="fill:#0A1B2B;" d="M49.8104248,13.451684c0-0.6117353-0.4956131-1.1076202-1.1076202-1.1076202
				c-0.4578552,0-0.8508797,0.2777176-1.0201912,0.6739922c-0.0549469,0.1310081-0.0862083,0.2750101-0.0862083,0.4265909
				v33.7001266c-0.0008125-0.0010834-0.0020332-0.0021667-0.0028458-0.0027084v0.4525757h-0.4477005
				c0.0002708,0.0005417,0.0002708,0.0005417,0.0005417,0.0005417H13.4481649
				c-0.6107874,0.0016251-1.105319,0.497509-1.105319,1.1087036c0,0.5348625,0.3854475,0.9603691,0.8889112,1.0648537
				c0.0717297,0.0151558,0.1383171,0.0433083,0.2143784,0.0433083h33.7017517
				c-0.0004082,0.0005417-0.0008125,0.0010834-0.0010834,0.0010834h0.4467545v0.4536591
				c0.0009499-0.0010834,0.0023041-0.0021667,0.0033836-0.0032501v33.6985016c0,0.1515808,0.0311317,0.2961273,0.0860786,0.4276733
				c0.169445,0.3962784,0.5621986,0.6745377,1.019783,0.6745377c0.6120071,0,1.1076202-0.4975128,1.1076202-1.1092453V49.8131332
				h0.4558258c-0.0002708,0-0.000679-0.0005417-0.0009499-0.0005417h33.6922798
				c0.6099777-0.0027084,1.1051865-0.4980507,1.1051865-1.1087036s-0.4958878-1.1070786-1.1065369-1.1081619H50.2653008
				c0.0002708-0.0005417,0.0004082-0.0005417,0.000679-0.0010834h-0.455555V13.451684z"/>
		</g>
		<g>
			<path style="fill:#0A1B2B;" d="M57.419899,39.3605766c0.0093384,0.0470963,0.0157013,0.0958214,0.041687,0.1342583
				c-0.9308662,0.9311371-2.0325317,2.0327988-3.1387978,3.1387978V20.9976845c0-0.1889343-0.1526642-0.3415966-0.3399734-0.3415966
				c-0.0963631,0-0.1814919,0.0406017-0.2436142,0.1044827c0.0613098-0.0606327,0.1449509-0.0985279,0.2386055-0.0985279
				c0.1889343,0,0.3399734,0.1526623,0.3399734,0.3410549v22.2092476H76.528244
				c0.1873093,0,0.3399734,0.1526604,0.3399734,0.3399734c0,0.187851-0.1514435,0.3394318-0.3378067,0.3405151h0.007576
				c0.188797,0,0.3414612-0.1526642,0.3414612-0.3399734c0-0.1889343-0.1526642-0.3415985-0.3414612-0.3415985H54.6493607
				c1.2732773-1.2716522,2.545063-2.5433044,3.569313-3.5691795H57.73592
				C57.5699921,39.6420822,57.4507599,39.5164871,57.419899,39.3605766z"/>
		</g>
		<g>
			<polygon style="fill:#0A1B2B;" points="53.9730682,43.8917503 53.9778061,43.8939133 76.528244,43.8939133 
				76.5304108,43.8928337 53.9829483,43.8928337 			"/>
		</g>
		<g>
			<path style="fill:#0A1B2B;" d="M76.8682175,43.5523186c0-0.1873131-0.1526642-0.3399734-0.3399734-0.3399734H54.3177795
				V21.0030975c0-0.1883926-0.1510391-0.3410549-0.3399734-0.3410549c-0.0936546,0-0.1772957,0.0378952-0.2386055,0.0985279
				c-0.0595474,0.0617142-0.0979843,0.1445427-0.0979843,0.237114v22.3175163
				c-0.0012169,0.0010834-0.0023003,0.0021667-0.003521,0.0037918v0.233326c0,0.1867676,0.1490097,0.3361816,0.3353729,0.3394318
				c0.0032501,0.0005417,0.0064964,0.0010834,0.0098801,0.0010834h22.5474625
				C76.716774,43.8917503,76.8682175,43.7401695,76.8682175,43.5523186z"/>
		</g>
		<g>
			<path style="fill:#0A1B2B;" d="M53.6376953,43.5523186v-0.233326c-1.4478607,1.4492149-2.8459206,2.848629-3.8228035,3.8257828
				V13.4446468c0-0.612277-0.4972382-1.1092443-1.1092453-1.1092443c-0.4608307,0-0.8556175,0.2820473-1.0230331,0.6826534
				c0.1693115-0.3962746,0.562336-0.6739922,1.0201912-0.6739922c0.6120071,0,1.1076202,0.4958849,1.1076202,1.1076202v34.1429596
				h0.455555c0.9490013-0.9500847,2.2982025-2.2980652,3.7033005-3.7028923c0.0012169,0,0.0025711,0,0.003788,0
				C53.786705,43.8885002,53.6376953,43.7390862,53.6376953,43.5523186z"/>
		</g>
		<g>
			<path style="fill:#0A1B2B;" d="M57.4010887,39.2999458c0,0.0227356,0.0147514,0.0389748,0.0188103,0.0606308
				c0.0308609,0.1559105,0.1500931,0.2815056,0.316021,0.2815056h0.4827538
				c0.0005417-0.0005417,0.0012207-0.0010834,0.0017624-0.0016251h12.1943741
				c0.1850128-0.0027046,0.3356476-0.1526604,0.3356476-0.3383484c0-0.1889343-0.1526642-0.3399734-0.3399734-0.3399734H58.0758934
				V26.6278172c0-0.189476-0.1511765-0.3415985-0.3399734-0.3415985c-0.0929794,0-0.1759415,0.0384369-0.2371178,0.0979862
				c-0.0598183,0.0617161-0.0977135,0.1450844-0.0977135,0.2381973V39.2999458z"/>
		</g>
		<g>
			<path style="fill:#0A1B2B;" d="M57.3959465,39.3021088c0,0.0227394,0.0197601,0.0368118,0.0239525,0.0584679
				c-0.0040588-0.021656-0.0188103-0.0378952-0.0188103-0.0606308V26.6224022c0-0.0931129,0.0378952-0.1764812,0.0977135-0.2381973
				c-0.0630684,0.0622559-0.1028557,0.1472492-0.1028557,0.2436123V39.3021088z"/>
		</g>
		<g>
			<polygon style="fill:#0A1B2B;" points="58.2186737,39.6420822 70.4104843,39.6420822 70.4148102,39.6404572 
				58.2204361,39.6404572 			"/>
		</g>
		<g>
			<polygon style="fill:#0A1B2B;" points="39.3797951,26.6267338 39.3793869,26.6278172 39.3793869,38.9247818 
				39.3797951,38.9253235 			"/>
		</g>
		<g>
			<path style="fill:#0A1B2B;" d="M39.1897774,39.6399155c0.0006752,0.0010834,0.0012169,0.0016251,0.0018959,0.0021667h0.5278244
				c0.1873093,0,0.3399734-0.1526642,0.3399734-0.3399734V26.6278172c0-0.189476-0.1526642-0.3415985-0.3399734-0.3415985
				c-0.18853,0-0.3388901,0.1521225-0.3397026,0.3405151v12.2985897c-0.0001373-0.0005417-0.0002708-0.0005417-0.0004082-0.0005417
				v0.0373535h-12.334589c-0.1889343,0-0.3399734,0.1510391-0.3399734,0.3399734
				c0,0.0931129,0.0377598,0.1775665,0.0985279,0.238739c0.0615788,0.0611763,0.1458969,0.0990677,0.2391453,0.0990677H39.1897774z"
				/>
		</g>
	</g>
</g>
<g>
</g>
<g>
</g>
<g>
</g>
<g>
</g>
<g>
</g>
<g>
</g>
</svg>
