<svg xmlns="http://www.w3.org/2000/svg" width="38.2" height="39.8" fill="currentColor" fill-rule="evenodd" xmlns:v="https://vecta.io/nano"><path d="M32.9 12.7V1.1c0-.404-.201-.751-.551-.954s-.751-.202-1.1 0l-10.1 5.82a1.1 1.1 0 0 0-.403 1.5l3.36 5.82c.202.35.55.551.954.551h6.72a1.1 1.1 0 0 0 1.1-1.1" fill="#1f86ef"/><path d="M23.1 22.1l10.1-5.82a1.1 1.1 0 0 1 1.5.403l3.36 5.82c.202.35.202.751 0 1.1l-3.36 5.82a1.1 1.1 0 0 1-1.5.403l-.036-.02-10-5.8a1.08 1.08 0 0 1-.551-.955c0-.404.201-.751.551-.954" fill="#02af74"/><path d="M32 31.9l-.036-.02-10-5.8c-.35-.202-.751-.202-1.1 0s-.551.549-.551.954v11.6a1.1 1.1 0 0 0 1.1 1.1l6.72-.001c.404 0 .752-.201.954-.551l3.36-5.82a1.1 1.1 0 0 0-.403-1.5" fill="#042e43"/><path d="M6.2 31.9l.036-.021 10-5.8c.35-.202.751-.202 1.1 0s.551.549.551.954v11.6a1.1 1.1 0 0 1-1.1 1.1l-6.72.001a1.07 1.07 0 0 1-.954-.551l-3.36-5.82a1.1 1.1 0 0 1 .403-1.5" fill="#1f86ef"/><path d="M6.2 14.2l.036.021 10 5.8c.35.202.751.202 1.1 0s.551-.549.551-.954v-11.6c0-.606-.495-1.1-1.1-1.1h-6.72c-.404 0-.751.201-.954.551l-3.36 5.82c-.304.526-.122 1.2.403 1.5" fill="#042e43"/><path d="M15.1 22.1l-10-5.8-.036-.021a1.1 1.1 0 0 0-1.5.403l-3.36 5.82c-.202.35-.202.751 0 1.1l3.36 5.82a1.1 1.1 0 0 0 1.5.404l.037-.022 10-5.8c.35-.202.551-.55.551-.954s-.201-.752-.551-.954" fill="#02af74"/></svg>