<svg xmlns="http://www.w3.org/2000/svg" xmlns:xlink="http://www.w3.org/1999/xlink" id="Layer_1" viewBox="0 0 513.91 253.65"><defs><style>      .st0 {        fill: #6f8f87;      }      .st1 {        clip-path: url(#clippath-1);      }      .st2 {        clip-path: url(#clippath-3);      }      .st3 {        clip-path: url(#clippath-4);      }      .st4 {        clip-path: url(#clippath-2);      }      .st5 {        clip-path: url(#clippath-5);      }      .st6 {        fill: #fff;      }      .st7 {        fill: #9d9d9c;      }      .st8 {        clip-path: url(#clippath);      }    </style><clipPath id="clippath"><path class="st6" d="M277.54,118.11c0,13.31,22.41,7.54,22.41,17.6,0,4.66-4.37,6.95-9.54,6.95-5.55,0-9.54-2.51-10.87-6.51l-3.18,1.85c1.77,4.73,6.66,8.21,14.05,8.21,7.91,0,13.24-4.44,13.24-10.5,0-13.53-22.41-7.69-22.41-17.6,0-4.44,4.07-6.95,8.88-6.95,4.07,0,7.91,1.77,9.47,5.62l3.11-1.78c-2-4.51-6.58-7.4-12.57-7.4-7.54,0-12.57,4.66-12.57,10.5"></path></clipPath><clipPath id="clippath-1"><path class="st6" d="M315.26,99.17v9.25h-8.13v3.62h8.13v24.04c0,8.43,5.11,10.8,14.79,9.32v-3.33c-7.55.66-11.02.52-11.02-5.99v-24.04h11.02v-3.62h-11.02v-10.35l-3.77,1.11Z"></path></clipPath><clipPath id="clippath-2"><path class="st6" d="M365.55,108.42v19.53c0,9.98-5.7,14.72-12.94,14.72s-10.87-4.44-10.87-11.24v-23h-3.77v23c0,8.95,5.55,14.79,14.35,14.79,5.7,0,10.43-2.37,13.24-7.84v7.03h3.7v-36.98h-3.7Z"></path></clipPath><clipPath id="clippath-3"><path class="st6" d="M381.9,126.91c0-8.8,6.88-15.75,15.68-15.75s15.68,6.95,15.68,15.75-6.88,15.75-15.68,15.75-15.68-6.95-15.68-15.75M413.25,93.63v23.37c-3.03-5.7-8.73-9.39-15.9-9.39-10.58,0-19.16,8.36-19.16,19.3s8.58,19.3,19.16,19.3c7.17,0,12.87-3.7,15.9-9.39v8.58h3.7v-51.77h-3.7Z"></path></clipPath><clipPath id="clippath-4"><path class="st6" d="M428.34,145.4h3.7v-36.98h-3.7v36.98ZM427.23,96.51c0,1.63,1.33,2.96,2.96,2.96s2.96-1.33,2.96-2.96-1.33-2.88-2.96-2.88-2.96,1.33-2.96,2.88"></path></clipPath><clipPath id="clippath-5"><path class="st6" d="M444.68,126.91c0-8.8,6.88-15.75,15.68-15.75s15.61,6.95,15.61,15.75-6.8,15.75-15.61,15.75-15.68-6.95-15.68-15.75M440.91,126.91c0,10.94,8.65,19.3,19.45,19.3s19.38-8.36,19.38-19.3-8.66-19.3-19.38-19.3-19.45,8.36-19.45,19.3"></path></clipPath></defs><g><path class="st7" d="M51.05,87.35h-3.63v10.74h-.89v-10.74h-3.63v-.83h8.16v.83Z"></path><path class="st7" d="M64.63,86.52v11.56h-.88v-5.53h-6.72v5.53h-.88v-11.56h.88v5.2h6.72v-5.2h.88Z"></path><path class="st7" d="M77.46,97.26v.83h-6.66v-11.56h6.57v.83h-5.7v4.49h5.29v.83h-5.29v4.59h5.78Z"></path></g><g><path class="st0" d="M493.87,127.99c0,63.91-51.81,115.72-115.72,115.72s-115.72-51.81-115.72-115.72S314.24,12.27,378.15,12.27s115.72,51.81,115.72,115.72"></path><path class="st0" d="M59.58,125.8c0,10.97-8.6,19.34-19.19,19.34-7.19,0-12.9-3.71-15.93-9.41v8.6h-3.71v-51.87h3.71v23.42c3.04-5.71,8.74-9.41,15.93-9.41,10.6,0,19.19,8.37,19.19,19.34M55.87,125.8c0-8.82-6.89-15.78-15.71-15.78s-15.71,6.97-15.71,15.78,6.89,15.79,15.71,15.79,15.71-6.97,15.71-15.79"></path><path class="st0" d="M102.05,125.95c0,.59-.07,1.19-.07,1.78h-33.57c.89,8.38,7.26,13.86,15.71,13.86,6.08,0,10.67-2.82,12.82-6.74l3.26,1.93c-3.04,5.04-8.82,8.37-16.16,8.37-11.41,0-19.49-8.15-19.49-19.34s7.85-19.34,19.19-19.34,18.3,9.34,18.3,19.49M68.41,124.1h29.79c-.81-9.04-7.19-14.08-14.45-14.08-8.45,0-14.6,5.85-15.34,14.08"></path><path class="st0" d="M145.63,107.28v37.05h-3.78v-8.37c-3.11,5.56-8.82,9.19-15.93,9.19-10.52,0-19.19-8.37-19.19-19.34s8.67-19.34,19.19-19.34c7.12,0,12.82,3.63,15.93,9.19v-8.38h3.78ZM141.86,125.8c0-8.82-6.82-15.78-15.64-15.78s-15.71,6.97-15.71,15.78,6.89,15.79,15.71,15.79,15.64-6.97,15.64-15.79"></path><path class="st0" d="M184.49,107.28v37.05h-3.71v-7.04c-2.82,5.48-7.56,7.85-13.27,7.85-8.82,0-14.38-5.85-14.38-14.82v-23.05h3.78v23.05c0,6.82,3.93,11.26,10.89,11.26s12.97-4.74,12.97-14.75v-19.56h3.71Z"></path><path class="st0" d="M202.36,110.91v24.08c0,6.52,3.48,6.67,11.04,6v3.34c-9.71,1.48-14.82-.89-14.82-9.34v-24.08h-8.15v-3.63h8.15v-9.26l3.78-1.11v10.38h11.04v3.63h-11.04Z"></path><path class="st0" d="M254.16,107.28l-16.01,40.46c-2.82,7.12-8.3,11.93-14.67,11.41v-3.48c4.97.45,8.74-3.26,11.04-8.67l.82-2-17.04-37.72h4l14.97,32.98,12.89-32.98h4Z"></path></g><g><path class="st6" d="M277.54,118.11c0,13.31,22.41,7.54,22.41,17.6,0,4.66-4.37,6.95-9.54,6.95-5.55,0-9.54-2.51-10.87-6.51l-3.18,1.85c1.77,4.73,6.66,8.21,14.05,8.21,7.91,0,13.24-4.44,13.24-10.5,0-13.53-22.41-7.69-22.41-17.6,0-4.44,4.07-6.95,8.88-6.95,4.07,0,7.91,1.77,9.47,5.62l3.11-1.78c-2-4.51-6.58-7.4-12.57-7.4-7.54,0-12.57,4.66-12.57,10.5"></path><g class="st8"><rect class="st6" x="270.66" y="113.21" width="38.69" height="27.4" transform="translate(162.26 416.55) rotate(-89.83)"></rect></g></g><g><path class="st6" d="M315.26,99.17v9.25h-8.13v3.62h8.13v24.04c0,8.43,5.11,10.8,14.79,9.32v-3.33c-7.55.66-11.02.52-11.02-5.99v-24.04h11.02v-3.62h-11.02v-10.35l-3.77,1.11Z"></path><g class="st1"><rect class="st6" x="294.15" y="110.94" width="48.88" height="23.07" transform="translate(195.2 440.71) rotate(-89.83)"></rect></g></g><g><path class="st6" d="M365.55,108.42v19.53c0,9.98-5.7,14.72-12.94,14.72s-10.87-4.44-10.87-11.24v-23h-3.77v23c0,8.95,5.55,14.79,14.35,14.79,5.7,0,10.43-2.37,13.24-7.84v7.03h3.7v-36.98h-3.7Z"></path><g class="st4"><rect class="st6" x="334.67" y="111.62" width="37.88" height="31.39" transform="translate(225.27 480.56) rotate(-89.83)"></rect></g></g><g><path class="st6" d="M381.9,126.91c0-8.8,6.88-15.75,15.68-15.75s15.68,6.95,15.68,15.75-6.88,15.75-15.68,15.75-15.68-6.95-15.68-15.75M413.25,93.63v23.37c-3.03-5.7-8.73-9.39-15.9-9.39-10.58,0-19.16,8.36-19.16,19.3s8.58,19.3,19.16,19.3c7.17,0,12.87-3.7,15.9-9.39v8.58h3.7v-51.77h-3.7Z"></path><g class="st2"><rect class="st6" x="371.23" y="100.47" width="52.7" height="38.91" transform="translate(276.51 517.15) rotate(-89.83)"></rect></g></g><g><path class="st6" d="M428.34,145.4h3.7v-36.98h-3.7v36.98ZM427.23,96.51c0,1.63,1.33,2.96,2.96,2.96s2.96-1.33,2.96-2.96-1.33-2.88-2.96-2.88-2.96,1.33-2.96,2.88"></path><g class="st3"><rect class="st6" x="404.3" y="116.48" width="51.79" height="6.07" transform="translate(309.43 549.36) rotate(-89.83)"></rect></g></g><g><path class="st6" d="M444.68,126.91c0-8.8,6.88-15.75,15.68-15.75s15.61,6.95,15.61,15.75-6.8,15.75-15.61,15.75-15.68-6.95-15.68-15.75M440.91,126.91c0,10.94,8.65,19.3,19.45,19.3s19.38-8.36,19.38-19.3-8.66-19.3-19.38-19.3-19.45,8.36-19.45,19.3"></path><g class="st5"><rect class="st6" x="440.97" y="107.44" width="38.72" height="38.94" transform="translate(332.09 586.87) rotate(-89.83)"></rect></g></g></svg>