<?xml version="1.0" encoding="UTF-8"?>
<svg xmlns="http://www.w3.org/2000/svg" id="Layer_2" data-name="Layer 2" viewBox="0 0 515.73 515.73">
  <defs>
    <style>
      .cls-1 {
        fill: #000;
      }

      .cls-1, .cls-2 {
        stroke-width: 0px;
      }

      .cls-2 {
        fill: #fff;
      }
    </style>
  </defs>
  <g id="Layer_1-2" data-name="Layer 1">
    <g>
      <circle class="cls-1" cx="257.86" cy="257.86" r="257.86"></circle>
      <path class="cls-2" d="M257.86,31.05c30.62,0,60.33,6,88.28,17.82,27.01,11.42,51.27,27.78,72.1,48.61,20.83,20.83,37.19,45.09,48.61,72.1,11.83,27.96,17.82,57.66,17.82,88.28s-6,60.33-17.82,88.28c-11.42,27.01-27.78,51.27-48.61,72.1-20.83,20.83-45.09,37.19-72.1,48.61-27.96,11.83-57.66,17.82-88.28,17.82s-60.33-6-88.28-17.82c-27.01-11.42-51.27-27.78-72.1-48.61-20.83-20.83-37.19-45.09-48.61-72.1-11.83-27.96-17.82-57.66-17.82-88.28s6-60.33,17.82-88.28c11.42-27.01,27.78-51.27,48.61-72.1,20.83-20.83,45.09-37.19,72.1-48.61,27.96-11.83,57.66-17.82,88.28-17.82M257.86,23.05c-129.68,0-234.81,105.13-234.81,234.81s105.13,234.81,234.81,234.81,234.81-105.13,234.81-234.81S387.55,23.05,257.86,23.05h0Z"></path>
      <g>
        <g>
          <path class="cls-2" d="M85.11,322.83h7.23v23.47h-7.23v-23.47Z"></path>
          <path class="cls-2" d="M102.01,322.83h7.4l6.84,12.56h.07v-12.56h6.84v23.47h-7.04l-7.2-12.82h-.07v12.82h-6.84v-23.47Z"></path>
          <path class="cls-2" d="M138.6,338.41c0,.59.1,1.12.26,1.55.53,1.41,2.1,1.71,3.45,1.71,1.18,0,2.99-.39,2.99-2.14,0-1.22-1.02-1.55-5.06-2.7-3.72-1.05-7.96-2.07-7.96-6.81,0-5.42,4.64-7.76,9.47-7.76,5.1,0,9.6,1.94,9.8,7.66h-6.84c.13-.89-.26-1.48-.85-1.87-.59-.43-1.41-.59-2.14-.59-.99,0-2.6.26-2.6,1.58.13,1.68,3.48,2.04,6.81,2.96,3.32.92,6.61,2.47,6.61,6.77,0,6.12-5.62,8.09-10.85,8.09-2.66,0-10.26-.95-10.32-8.45h7.23Z"></path>
          <path class="cls-2" d="M166.19,328.85h-6.58v-6.02h20.38v6.02h-6.58v17.46h-7.23v-17.46Z"></path>
          <path class="cls-2" d="M192.66,322.83h7.07l8.55,23.47h-7.5l-.99-3.35h-7.46l-1.05,3.35h-7.27l8.65-23.47ZM198.35,337.92l-2.1-7.23h-.07l-2.27,7.23h4.44Z"></path>
          <path class="cls-2" d="M215.81,322.83h7.23v17.46h10.39v6.02h-17.62v-23.47Z"></path>
          <path class="cls-2" d="M242.44,322.83h7.23v17.46h10.39v6.02h-17.62v-23.47Z"></path>
          <path class="cls-2" d="M275.58,322.83h7.07l8.55,23.47h-7.5l-.99-3.35h-7.46l-1.05,3.35h-7.27l8.65-23.47ZM281.27,337.92l-2.1-7.23h-.07l-2.27,7.23h4.44Z"></path>
          <path class="cls-2" d="M301.99,328.85h-6.58v-6.02h20.38v6.02h-6.58v17.46h-7.23v-17.46Z"></path>
          <path class="cls-2" d="M324.38,322.83h7.23v23.47h-7.23v-23.47Z"></path>
          <path class="cls-2" d="M352.46,322.27c7.13,0,11.9,5.13,11.9,12.3s-4.77,12.3-11.9,12.3-11.9-5.13-11.9-12.3,4.77-12.3,11.9-12.3ZM352.46,341.01c1.84,0,4.67-1.22,4.67-6.44s-2.83-6.44-4.67-6.44-4.67,1.22-4.67,6.44,2.83,6.44,4.67,6.44Z"></path>
          <path class="cls-2" d="M373.37,322.83h7.4l6.84,12.56h.07v-12.56h6.84v23.47h-7.04l-7.2-12.82h-.07v12.82h-6.84v-23.47Z"></path>
          <path class="cls-2" d="M409.97,338.41c0,.59.1,1.12.26,1.55.53,1.41,2.1,1.71,3.45,1.71,1.18,0,2.99-.39,2.99-2.14,0-1.22-1.02-1.55-5.06-2.7-3.72-1.05-7.96-2.07-7.96-6.81,0-5.42,4.64-7.76,9.47-7.76,5.1,0,9.6,1.94,9.8,7.66h-6.84c.13-.89-.26-1.48-.85-1.87-.59-.43-1.41-.59-2.14-.59-.99,0-2.6.26-2.6,1.58.13,1.68,3.48,2.04,6.81,2.96,3.32.92,6.61,2.47,6.61,6.77,0,6.12-5.62,8.09-10.85,8.09-2.66,0-10.26-.95-10.32-8.45h7.23Z"></path>
        </g>
        <g>
          <path class="cls-2" d="M177.13,188.89c-6.47,11.83-12.72,23.27-19.12,34.98-.83-.74-1.4-1.24-1.96-1.75-9.72-8.85-25.31-10.03-35.58-2.5-8.6,6.31-12.54,14.87-10.48,25.43,2.14,10.97,9.33,17.65,20.01,20.3,9.09,2.25,17.32-.09,24.61-5.88,1.45-1.15,2.88-2.32,4.63-3.74,6.85,11.27,13.67,22.48,20.59,33.87-8.96,6.8-18.47,12.09-29.54,13.9-25.56,4.18-47.94-2.27-65.41-21.75-27.08-30.2-18.71-76.64,17.2-96.64,20.36-11.34,41.55-12.29,63-3.12,4.17,1.78,7.93,4.51,12.06,6.9ZM156.8,197.89c-.25-.38-.28-.49-.35-.52-.31-.16-.63-.32-.95-.45-14.66-5.82-28.99-5.01-43.03,2.09-19.78,10-29.85,33-23.59,54.25,8.35,28.31,40.64,40.68,65.72,30.96,1.68-.65,3.29-1.47,5.1-2.29-.92-1.57-1.61-2.76-2.35-4.04-.74.27-1.32.45-1.87.69-14.06,6.2-27.89,5.44-41.31-1.75-21.33-11.42-28.41-37.79-15.73-58.06,10.68-17.08,31.79-24.72,51.42-18.61,1.67.52,3.32,1.08,5.18,1.68.67-1.49,1.26-2.81,1.77-3.94Z"></path>
          <path class="cls-2" d="M330.88,179.12h41.3c4.4,8.42,8.76,16.78,13.43,25.72,4.56-8.85,8.9-17.26,13.26-25.72h41.27c-.47,1.04-.77,1.8-1.15,2.53-11.14,21.49-22.32,42.95-33.38,64.48-.88,1.72-1.36,3.83-1.38,5.77-.11,15.47-.07,30.95-.08,46.42,0,.95,0,1.91,0,3.08h-37.26c0-1.46,0-2.93,0-4.4,0-15.47.03-30.95-.02-46.42,0-1.17-.4-2.44-.95-3.49-11.22-21.74-22.49-43.46-33.74-65.19-.4-.78-.74-1.59-1.29-2.78ZM357.95,193.75c.36.84.54,1.33.77,1.78,7.64,14.84,15.33,29.67,22.88,44.56.88,1.73,1.45,3.82,1.47,5.75.13,12.64.06,25.29.06,37.93,0,.94,0,1.88,0,2.98h4.75v-2.96c0-12.82-.04-25.64.05-38.46.01-1.51.42-3.17,1.11-4.52,7.68-14.92,15.46-29.79,23.19-44.68.35-.67.58-1.41.96-2.33h-5.26c-7.38,14.33-14.71,28.58-22.33,43.39-7.73-14.88-15.15-29.17-22.56-43.44h-5.1Z"></path>
          <path class="cls-2" d="M259.46,211.01h-21.4v-31.83h81.28v31.73h-21.37v90.52h-38.51v-90.41ZM281.02,286.78v-88.73h25.17c-.09-1.64-.15-2.91-.22-4.17h-54.43v4.33h24.83v88.57h4.65Z"></path>
          <path class="cls-2" d="M187.57,179.17h39.2v122.23h-39.2v-122.23ZM209.35,286.77v-92.92h-4.28v92.93c.92.05,1.61.12,2.31.12.6,0,1.2-.08,1.97-.13Z"></path>
        </g>
      </g>
    </g>
  </g>
</svg>
