<svg width="101" height="70" viewBox="0 0 101 70" fill="none" xmlns="http://www.w3.org/2000/svg">
<path d="M87.5772 51.1502C87.0503 50.9803 86.8682 50.7044 86.8682 50.1517V48.6428C86.8682 48.0056 87.1111 47.7504 87.8201 47.9841C88.6709 48.303 90.1301 48.5582 91.1637 48.5582C92.7235 48.5582 93.413 48.0263 93.413 47.0916C93.413 46.3053 92.9266 45.7734 91.528 45.2207L90.3123 44.7534C87.9011 43.7964 87.0294 42.3305 87.0294 40.1407C87.0294 37.1867 89.1978 35.6133 92.6425 35.6133C94.1214 35.6133 95.2359 35.9538 96.0469 36.2505C96.6338 36.4634 96.816 36.7609 96.6952 37.3981L96.4112 38.7579C96.2695 39.3321 95.9855 39.4805 95.4187 39.2683C94.6287 39.0124 93.6559 38.7794 92.6837 38.7794C91.3668 38.7794 90.6368 39.2253 90.6368 40.1823C90.6368 40.9901 91.103 41.5213 92.5015 42.0739L93.7172 42.5628C96.1487 43.519 97.0001 44.9003 97.0001 47.1318C97.0001 50.3194 94.4465 51.723 91.1846 51.723C89.8265 51.723 88.5096 51.4893 87.5779 51.1488" fill="white"/>
<path d="M30.8891 51.7245H34.1641C34.2823 51.6106 34.3842 51.4586 34.4873 51.2586C35.2976 49.415 36.2091 45.9707 36.736 42.4819H36.7967C37.3236 45.9707 38.2357 49.4157 39.046 51.2586C39.1419 51.4586 39.2438 51.6106 39.3652 51.7245H42.624C42.7415 51.6091 42.8329 51.455 42.9158 51.2586C44.1524 48.582 45.8944 39.586 45.8944 36.6234C45.8944 36.0965 45.611 35.855 45.0841 35.855H43.5243C42.8355 35.855 42.5521 36.0973 42.511 36.6894C42.1258 40.8583 41.559 44.2589 40.8702 47.7914H40.7886C39.9581 44.4783 39.1681 40.7487 38.6007 36.6894C38.54 36.075 38.2566 35.855 37.5469 35.855H36.1085C35.3988 35.855 35.1357 36.0743 35.0554 36.6894C34.488 40.7487 33.6973 44.479 32.8668 47.7914H32.7858C32.097 44.2589 31.5296 40.8576 31.1646 36.6894C31.1039 36.0973 30.8199 35.855 30.1311 35.855H28.4289C27.8824 35.855 27.6187 36.0973 27.6187 36.6234C27.6187 39.5853 29.341 48.5813 30.577 51.2586C30.6678 51.4557 30.7677 51.6091 30.8898 51.7245" fill="white"/>
<path d="M77.4895 39.2122H79.496C81.7648 39.2122 82.515 40.3749 82.515 43.9295C82.515 47.4842 81.7648 48.6469 79.496 48.6469H77.4895V39.2122ZM81.9796 51.7242C84.904 50.9629 86.1021 48.5874 86.1021 43.9303C86.1021 38.0932 84.2374 35.8553 79.4764 35.8553H74.8968C74.3294 35.8553 74.0865 36.1191 74.0865 36.7549V51.1056C74.0865 51.3794 74.1342 51.5808 74.2315 51.7249H81.9803L81.9796 51.7242Z" fill="white"/>
<path d="M25.8263 39.1903C26.393 39.1903 26.6568 38.905 26.6568 38.2907V36.7546C26.6568 36.1188 26.393 35.855 25.8263 35.855H17.559C16.9923 35.855 16.7488 36.1188 16.7488 36.7546V51.7245H26.5046C26.6058 51.5804 26.6574 51.379 26.6574 51.1052V49.5691C26.6574 48.9548 26.3936 48.6695 25.8269 48.6695H20.1537V45.509H24.9762C25.5638 45.509 25.8067 45.246 25.8067 44.6101V43.2052C25.8067 42.5472 25.5638 42.3056 24.9762 42.3056H20.1537V39.1903H25.8269H25.8263Z" fill="white"/>
<path d="M9.45054 43.5564H7.4043V39.0584H9.45054C11.1729 39.0584 12.0243 39.8046 12.0243 41.3185C12.0243 42.8324 11.1736 43.5557 9.45054 43.5557M12.8548 46.0581C14.6582 45.246 15.5906 43.6668 15.5906 41.2963C15.5906 37.6979 13.5234 35.855 9.49102 35.855H4.81092C4.24354 35.855 4 36.1188 4 36.7546V51.7245H7.4043V46.6502H9.49167C10.505 48.2308 11.0515 49.2838 11.66 51.1489C11.7436 51.402 11.8493 51.589 11.9871 51.7245H15.3274C15.4737 51.5131 15.4809 51.1898 15.3274 50.7762C14.6993 49.0429 13.9694 47.6602 12.8555 46.0588" fill="white"/>
<path d="M66.6891 43.5564H64.6429V39.0584H66.6891C68.4115 39.0584 69.2629 39.8046 69.2629 41.3185C69.2629 42.8324 68.4122 43.5557 66.6891 43.5557M70.0934 46.0581C71.8968 45.246 72.8285 43.6668 72.8285 41.2963C72.8285 37.6979 70.7614 35.855 66.7296 35.855H62.0489C61.4821 35.855 61.2393 36.1188 61.2393 36.7546V51.7245H64.6429V46.6502H66.7303C67.7429 48.2308 68.2901 49.2838 68.8986 51.1489C68.9822 51.402 69.088 51.589 69.2257 51.7245H72.566C72.7116 51.5131 72.7188 51.1898 72.566 50.7762C71.9373 49.0429 71.208 47.6602 70.0941 46.0588" fill="white"/>
<path d="M56.0831 38.5523C55.9884 38.2684 55.8481 37.9322 55.6365 37.5817C55.2186 36.8871 54.7152 36.4527 54.3685 36.204C54.0238 36.5724 53.6301 37.0606 53.2619 37.682C52.6847 38.6555 52.3928 39.5816 52.2374 40.2533C52.7147 41.7148 53.192 43.1764 53.6699 44.6387C54.9581 44.6423 56.247 44.6459 57.5352 44.6502C56.4572 45.6093 55.3799 46.5677 54.3019 47.5261L55.485 51.7244H60.0796L56.0831 38.5523Z" fill="#C5A459"/>
<path d="M48.9833 51.7216C49.3816 50.326 49.7805 48.9296 50.1781 47.534C49.0962 46.5727 48.0144 45.6115 46.9325 44.6495C48.2207 44.6452 49.5089 44.6402 50.7964 44.6352C51.2724 43.1872 51.7484 41.7392 52.2244 40.2906C52.2302 40.2719 52.2355 40.2526 52.2413 40.2339C52.3804 39.6354 52.6318 38.8225 53.1084 37.9509C53.5282 37.1825 53.9918 36.6069 54.3685 36.204C54.1694 36.075 52.6723 35.1374 50.8898 35.8219C49.0564 36.5259 48.4512 38.3602 48.3813 38.5853L44.3842 51.7245H48.9833C48.9833 51.7245 48.9833 51.7223 48.9846 51.7216H48.9833Z" fill="white"/>
<path d="M53.1084 37.9509C52.6324 38.8225 52.381 39.6361 52.2413 40.2339C52.24 40.2382 52.2387 40.2418 52.238 40.2461C52.238 40.2483 52.238 40.2511 52.238 40.2533C52.4639 40.945 52.6899 41.6374 52.9158 42.3292C52.9138 41.5371 52.9798 40.5163 53.235 39.3623C53.5308 38.0261 53.982 36.9617 54.3692 36.2047C53.9924 36.6076 53.5288 37.1832 53.109 37.9516L53.1084 37.9509Z" fill="#927126"/>
<path d="M20.323 29.275C20.0064 29.275 19.8707 29.1393 19.8707 28.8114V21.4162C19.8707 21.0883 20.0064 20.9526 20.323 20.9526H24.9365C25.2532 20.9526 25.4002 21.0883 25.4002 21.4162V22.2077C25.4002 22.5243 25.2532 22.6713 24.9365 22.6713H21.7704V24.277H24.4616C24.7895 24.277 24.9252 24.4014 24.9252 24.7406V25.4643C24.9252 25.7923 24.7895 25.9279 24.4616 25.9279H21.7704V27.5563H24.9365C25.2532 27.5563 25.4002 27.7033 25.4002 28.0199V28.8114C25.4002 29.1393 25.2532 29.275 24.9365 29.275H20.323ZM26.4563 29.275C26.2075 29.275 26.0492 29.1733 26.0492 28.8793C26.0492 27.9973 27.4853 23.1463 28.5934 21.337C28.7404 21.0996 28.8761 20.9526 29.2945 20.9526H30.233C30.6514 20.9526 30.7871 21.0996 30.9341 21.337C32.0423 23.1463 33.4784 27.9973 33.4784 28.8793C33.4784 29.1733 33.32 29.275 33.0826 29.275H32.0423C31.6465 29.275 31.4882 29.1506 31.4317 28.8453C31.3525 28.4156 31.262 27.952 31.149 27.4884H28.3107C28.1977 27.9633 28.0959 28.4269 28.0167 28.8453C27.9715 29.1506 27.8019 29.275 27.4061 29.275H26.4563ZM28.6839 25.9166H30.7758C30.4479 24.7519 30.0747 23.6212 29.7242 22.7731C29.3737 23.6325 29.0005 24.7746 28.6839 25.9166ZM39.4542 29.275C39.1037 29.275 38.9227 29.1506 38.8097 28.834C38.4704 27.8729 38.1651 27.3301 37.5997 26.5159H36.435V28.8114C36.435 29.1393 36.3107 29.275 35.9827 29.275H34.9877C34.671 29.275 34.5354 29.1393 34.5354 28.8114V21.4162C34.5354 21.0883 34.671 20.9526 34.9877 20.9526H37.5997C39.85 20.9526 41.0034 21.9024 41.0034 23.7569C41.0034 24.9781 40.4832 25.7923 39.4768 26.2106C40.0987 27.0361 40.5058 27.7485 40.8564 28.6418C41.0147 29.0376 40.8677 29.275 40.4832 29.275H39.4542ZM36.435 24.9216H37.5771C38.5383 24.9216 39.0132 24.5484 39.0132 23.7682C39.0132 22.9879 38.5383 22.6035 37.5771 22.6035H36.435V24.9216ZM42.8832 29.275C42.5666 29.275 42.4309 29.1393 42.4309 28.8114V21.4162C42.4309 21.0883 42.5666 20.9526 42.8832 20.9526H44.0366C44.3645 20.9526 44.5567 21.0769 44.7037 21.3709L46.6939 25.3286C46.8635 25.6566 47.0331 26.0071 47.1688 26.3689L47.2027 26.3576C47.1688 25.9619 47.1575 25.4983 47.1575 25.1025V21.4162C47.1575 21.0883 47.2932 20.9526 47.6211 20.9526H48.5596C48.8762 20.9526 49.0119 21.0883 49.0119 21.4162V28.8114C49.0119 29.1393 48.8762 29.275 48.5596 29.275H47.4062C47.0783 29.275 46.8748 29.1506 46.7391 28.8566L44.7489 24.9103C44.5906 24.571 44.4097 24.2205 44.274 23.8586L44.2401 23.8699C44.274 24.277 44.2853 24.7406 44.2853 25.1364V28.8114C44.2853 29.1393 44.1496 29.275 43.833 29.275H42.8832ZM55.1389 29.275C54.7771 29.275 54.6075 29.1619 54.4718 28.8906C53.782 27.511 52.8209 22.8749 52.8209 21.3483C52.8209 21.0769 52.9679 20.9526 53.2732 20.9526H54.223C54.6075 20.9526 54.7658 21.0769 54.7997 21.3823C55.0032 23.5307 55.3199 25.2834 55.7043 27.1039H55.7496C56.2132 25.3965 56.6542 23.4742 56.9708 21.3823C57.016 21.0656 57.163 20.9526 57.5588 20.9526H58.3616C58.7574 20.9526 58.9157 21.0656 58.9496 21.3823C59.2662 23.4742 59.7072 25.3965 60.1709 27.1039H60.2161C60.6006 25.2834 60.9172 23.5307 61.132 21.3823C61.1546 21.0769 61.3129 20.9526 61.6974 20.9526H62.5681C62.8621 20.9526 63.0204 21.0769 63.0204 21.3483C63.0204 22.8749 62.0479 27.511 61.3582 28.8906C61.2338 29.1619 61.0755 29.275 60.7023 29.275H59.8769C59.515 29.275 59.3454 29.1733 59.1984 28.8906C58.7461 27.9407 58.2372 26.1654 57.9432 24.3675H57.9093C57.6153 26.1654 57.1065 27.9407 56.6542 28.8906C56.4959 29.1733 56.3489 29.275 55.9757 29.275H55.1389ZM64.6924 29.275C64.3758 29.275 64.2401 29.1393 64.2401 28.8114V21.4162C64.2401 21.0883 64.3758 20.9526 64.6924 20.9526H65.6875C66.0154 20.9526 66.1398 21.0883 66.1398 21.4162V28.8114C66.1398 29.1393 66.0154 29.275 65.6875 29.275H64.6924ZM69.7839 29.275C69.4673 29.275 69.3203 29.1393 69.3203 28.8114V22.6826H67.5902C67.2736 22.6826 67.1379 22.5469 67.1379 22.219V21.4162C67.1379 21.0883 67.2736 20.9526 67.5902 20.9526H72.9727C73.2893 20.9526 73.425 21.0883 73.425 21.4162V22.219C73.425 22.5469 73.2893 22.6826 72.9727 22.6826H71.2426V28.8114C71.2426 29.1393 71.0956 29.275 70.779 29.275H69.7839ZM74.8738 29.275C74.5572 29.275 74.4215 29.1393 74.4215 28.8114V21.4162C74.4215 21.0883 74.5572 20.9526 74.8738 20.9526H75.8689C76.1968 20.9526 76.3212 21.0883 76.3212 21.4162V24.2205H79.0915V21.4162C79.0915 21.0883 79.2385 20.9526 79.5552 20.9526H80.5502C80.8782 20.9526 81.0025 21.0883 81.0025 21.4162V28.8114C81.0025 29.1393 80.8782 29.275 80.5502 29.275H79.5552C79.2385 29.275 79.0915 29.1393 79.0915 28.8114V25.9619H76.3212V28.8114C76.3212 29.1393 76.1968 29.275 75.8689 29.275H74.8738Z" fill="white"/>
</svg>
