<?xml version="1.0" encoding="UTF-8"?>
<svg width="54px" height="32px" viewBox="0 0 54 32" version="1.1" xmlns="http://www.w3.org/2000/svg" xmlns:xlink="http://www.w3.org/1999/xlink">
    <!-- Generator: Sketch 61.2 (89653) - https://sketch.com -->
    <title>marden-roofing-in-melksham</title>
    <desc>Created with Sketch.</desc>
    <g id="Page-1" stroke="none" stroke-width="1" fill="none" fill-rule="evenodd">
        <g id="Vector-(Flat)-White-Logo-Simplified-No-Text" fill="#FFFFFF">
            <g id="Marden-Logo-copy">
                <path d="M48.1276081,11.0359273 L45.083458,3.68170874 L41.8531052,11.3070747 L41.8622097,11.3070747 C41.6207923,11.894159 41.4815809,12.5546582 41.4815809,13.2561264 C41.4815809,15.6639774 43.0819256,17.6159093 45.0558506,17.6159093 C47.029482,17.6159093 48.6298267,15.6639774 48.6298267,13.2561264 C48.6298267,12.4442126 48.4445051,11.6868162 48.1276081,11.0359273" id="Fill-3"></path>
                <path d="M40.9206231,22.3530532 L37.8764731,14.9988346 L34.6461203,22.6242005 L34.6552248,22.6242005 C34.4138074,23.2113143 34.2745959,23.8717841 34.2745959,24.5732523 C34.2745959,26.9811033 35.8749407,28.9330646 37.8488657,28.9330646 C39.822497,28.9330646 41.4228418,26.9811033 41.4228418,24.5732523 C41.4228418,23.7613384 41.2375202,23.0039421 40.9206231,22.3530532" id="Fill-4"></path>
                <path d="M39.3684444,7.37449731 L36.3242943,0.0202787434 L33.0936478,7.64564468 L33.1027523,7.64564468 C32.8616286,8.232729 32.7224171,8.89322824 32.7224171,9.59469643 C32.7224171,12.0025474 34.3224682,13.9544793 36.2963932,13.9544793 C38.2703182,13.9544793 39.8703693,12.0025474 39.8703693,9.59469643 C39.8703693,8.78278256 39.6850477,8.02538619 39.3684444,7.37449731" id="Fill-5"></path>
                <path d="M54.037929,31.3559336 L40.2562847,17.5648892 L41.8719017,21.4686355 C42.2871866,22.3213125 42.5297788,23.3134721 42.5297788,24.3771069 C42.5297788,25.191607 42.387924,25.9647855 42.1359336,26.6660186 L46.8224269,31.3559336 L54.037929,31.3559336 Z M34.7374595,19.2625433 L36.5022735,15.0970837 C36.4332552,15.1007573 36.3654116,15.1098093 36.2955122,15.1098093 C33.7098202,15.1098093 31.613718,12.5527479 31.613718,9.39849224 C31.613718,9.2429337 31.6260532,9.09137214 31.6363325,8.93907584 L27.3845081,4.68441912 L19.5587075,12.5153351 L19.5587075,8.52262686 L14.5664776,8.52262686 L14.5664776,17.5111358 L0.731087146,31.3559336 L7.94658923,31.3559336 L27.3845081,11.9045923 L34.7374595,19.2625433 L34.7374595,19.2625433 Z" id="Fill-6"></path>
            </g>
        </g>
    </g>
</svg>