<?xml version="1.0" encoding="utf-8"?>
<!-- Generator: Adobe Illustrator 24.2.1, SVG Export Plug-In . SVG Version: 6.00 Build 0)  -->
<svg version="1.1" id="Layer_1" xmlns="http://www.w3.org/2000/svg" xmlns:xlink="http://www.w3.org/1999/xlink" x="0px" y="0px"
	 viewBox="0 0 70 70" style="enable-background:new 0 0 70 70;" xml:space="preserve">
<style type="text/css">
	.st0{clip-path:url(#SVGID_2_);fill:url(#SVGID_3_);}
	.st1{clip-path:url(#SVGID_5_);fill:url(#SVGID_6_);}
	.st2{clip-path:url(#SVGID_8_);fill:url(#SVGID_9_);}
	.st3{clip-path:url(#SVGID_11_);fill:url(#SVGID_12_);}
	.st4{clip-path:url(#SVGID_14_);fill:url(#SVGID_15_);}
	.st5{clip-path:url(#SVGID_17_);fill:url(#SVGID_18_);}
	.st6{clip-path:url(#SVGID_20_);fill:url(#SVGID_21_);}
	.st7{clip-path:url(#SVGID_23_);fill:url(#SVGID_24_);}
	.st8{clip-path:url(#SVGID_26_);fill:url(#SVGID_27_);}
	.st9{clip-path:url(#SVGID_29_);fill:url(#SVGID_30_);}
	.st10{clip-path:url(#SVGID_32_);fill:url(#SVGID_33_);}
	.st11{clip-path:url(#SVGID_35_);fill:url(#SVGID_36_);}
	.st12{clip-path:url(#SVGID_38_);fill:url(#SVGID_39_);}
	.st13{clip-path:url(#SVGID_41_);fill:url(#SVGID_42_);}
	.st14{clip-path:url(#SVGID_44_);fill:url(#SVGID_45_);}
	.st15{clip-path:url(#SVGID_47_);fill:url(#SVGID_48_);}
	.st16{clip-path:url(#SVGID_50_);fill:url(#SVGID_51_);}
	.st17{clip-path:url(#SVGID_53_);fill:url(#SVGID_54_);}
	.st18{fill:#383330;}
	.st19{clip-path:url(#SVGID_56_);fill:url(#SVGID_57_);}
	.st20{clip-path:url(#SVGID_59_);fill:url(#SVGID_60_);}
	.st21{clip-path:url(#SVGID_62_);fill:url(#SVGID_63_);}
	.st22{clip-path:url(#SVGID_65_);fill:url(#SVGID_66_);}
	.st23{clip-path:url(#SVGID_68_);fill:url(#SVGID_69_);}
	.st24{clip-path:url(#SVGID_71_);fill:url(#SVGID_72_);}
	.st25{clip-path:url(#SVGID_74_);fill:url(#SVGID_75_);}
	.st26{clip-path:url(#SVGID_77_);fill:url(#SVGID_78_);}
	.st27{clip-path:url(#SVGID_80_);fill:url(#SVGID_81_);}
	.st28{clip-path:url(#SVGID_83_);fill:url(#SVGID_84_);}
	.st29{clip-path:url(#SVGID_86_);fill:url(#SVGID_87_);}
	.st30{clip-path:url(#SVGID_89_);fill:url(#SVGID_90_);}
	.st31{clip-path:url(#SVGID_92_);fill:url(#SVGID_93_);}
	.st32{clip-path:url(#SVGID_95_);fill:url(#SVGID_96_);}
	.st33{clip-path:url(#SVGID_98_);fill:url(#SVGID_99_);}
	.st34{clip-path:url(#SVGID_101_);fill:url(#SVGID_102_);}
	.st35{clip-path:url(#SVGID_104_);fill:url(#SVGID_105_);}
	.st36{clip-path:url(#SVGID_107_);fill:url(#SVGID_108_);}
	.st37{fill:#2390CF;}
	.st38{fill:#2E2868;}
</style>
<g>
	<g>
		<path class="st37" d="M59.9,36.76v-3.91h-3.12c-0.2-0.59-0.39-1.17-0.59-1.56l2.34-2.34l-2.73-2.73l-2.34,2.34
			c-0.59-0.2-0.98-0.59-1.56-0.59v-3.32h-3.91v3.12c-0.59,0.2-0.98,0.39-1.56,0.59l-2.34-2.34l-2.93,2.93l2.34,2.34
			c-0.2,0.59-0.59,0.98-0.59,1.56h-3.32v3.91h3.32c0.2,0.59,0.39,1.17,0.59,1.56l-2.34,2.34l2.73,2.73l2.34-2.34
			c0.39,0.2,0.98,0.39,1.56,0.59v3.13h3.91v-3.13c0.59-0.2,1.17-0.39,1.56-0.59l2.34,2.34l2.73-2.73L56,38.32
			c0.2-0.59,0.59-0.98,0.59-1.56H59.9z M53.07,35c-0.2,1.76-1.56,2.93-3.32,3.12c-1.76,0-3.32-1.56-3.32-3.32
			c0-1.76,1.37-3.32,3.32-3.32C51.7,31.48,53.26,33.05,53.07,35z M49.94,17.81v-1.17c0-1.56-0.98-3.32-3.13-5.47
			c-1.56-1.56-3.91-1.56-5.47,0c-2.15,2.15-3.13,3.91-3.13,5.47v1.17h-2.54v-1.17c0-1.56-0.98-3.32-3.13-5.47
			c-1.56-1.56-3.91-1.56-5.47,0c-2.15,2.15-3.12,3.91-3.12,5.47v1.17h-2.34v-1.17c0-1.56-0.98-3.32-3.12-5.47
			c-1.56-1.56-3.91-1.56-5.47,0c-2.15,1.95-3.12,3.71-3.12,5.47v36.91c0,1.56,0.98,3.32,3.12,5.27c0.78,0.78,1.76,1.17,2.73,1.17
			s1.95-0.39,2.73-1.17c2.15-1.95,3.12-3.71,3.12-5.47v-1.17h2.54v1.17c0,1.56,0.98,3.32,3.12,5.47c0.78,0.78,1.76,1.17,2.73,1.17
			c0.98,0,1.95-0.39,2.73-1.17c2.15-2.15,3.13-3.91,3.13-5.47v-1.17h2.54v1.17c0,1.56,0.98,3.32,3.12,5.47
			C42.32,59.61,43.3,60,44.28,60s1.95-0.39,2.73-1.17c2.15-2.15,3.13-3.91,3.13-5.47v-1.17h9.96v-3.91H46.23v5.08
			c0,0.2-0.39,1.17-1.95,2.73c-1.56-1.56-1.95-2.34-1.95-2.73v-5.08h-6.45V21.72h6.45v-5.08c0-0.2,0.39-1.17,1.95-2.73
			c1.56,1.56,1.95,2.34,1.95,2.73v5.08H60.1v-3.91H49.94z M17.71,53.36c0,0.2-0.39,1.17-1.95,2.73c-1.56-1.56-1.95-2.34-1.95-2.73
			V16.64c0-0.39,0.39-1.17,1.95-2.73c1.56,1.56,1.95,2.34,1.95,2.73V53.36z M23.96,48.28h-2.34V21.72h2.54v26.56H23.96z
			 M31.78,53.36c0,0.2-0.39,1.17-1.95,2.73c-1.56-1.56-1.95-2.34-1.95-2.73V16.45c0-0.2,0.39-1.17,1.95-2.73
			c1.56,1.56,1.95,2.34,1.95,2.73V53.36z"/>
	</g>
</g>
</svg>
