<?xml version="1.0" encoding="utf-8"?>
<!-- Generator: Adobe Illustrator 24.2.1, SVG Export Plug-In . SVG Version: 6.00 Build 0)  -->
<svg version="1.1" id="Layer_1" xmlns="http://www.w3.org/2000/svg" xmlns:xlink="http://www.w3.org/1999/xlink" x="0px" y="0px"
	 viewBox="0 0 70 70" style="enable-background:new 0 0 70 70;" xml:space="preserve">
<style type="text/css">
	.st0{clip-path:url(#SVGID_2_);fill:url(#SVGID_3_);}
	.st1{clip-path:url(#SVGID_5_);fill:url(#SVGID_6_);}
	.st2{clip-path:url(#SVGID_8_);fill:url(#SVGID_9_);}
	.st3{clip-path:url(#SVGID_11_);fill:url(#SVGID_12_);}
	.st4{clip-path:url(#SVGID_14_);fill:url(#SVGID_15_);}
	.st5{clip-path:url(#SVGID_17_);fill:url(#SVGID_18_);}
	.st6{clip-path:url(#SVGID_20_);fill:url(#SVGID_21_);}
	.st7{clip-path:url(#SVGID_23_);fill:url(#SVGID_24_);}
	.st8{clip-path:url(#SVGID_26_);fill:url(#SVGID_27_);}
	.st9{clip-path:url(#SVGID_29_);fill:url(#SVGID_30_);}
	.st10{clip-path:url(#SVGID_32_);fill:url(#SVGID_33_);}
	.st11{clip-path:url(#SVGID_35_);fill:url(#SVGID_36_);}
	.st12{clip-path:url(#SVGID_38_);fill:url(#SVGID_39_);}
	.st13{clip-path:url(#SVGID_41_);fill:url(#SVGID_42_);}
	.st14{clip-path:url(#SVGID_44_);fill:url(#SVGID_45_);}
	.st15{clip-path:url(#SVGID_47_);fill:url(#SVGID_48_);}
	.st16{clip-path:url(#SVGID_50_);fill:url(#SVGID_51_);}
	.st17{clip-path:url(#SVGID_53_);fill:url(#SVGID_54_);}
	.st18{fill:#383330;}
	.st19{clip-path:url(#SVGID_56_);fill:url(#SVGID_57_);}
	.st20{clip-path:url(#SVGID_59_);fill:url(#SVGID_60_);}
	.st21{clip-path:url(#SVGID_62_);fill:url(#SVGID_63_);}
	.st22{clip-path:url(#SVGID_65_);fill:url(#SVGID_66_);}
	.st23{clip-path:url(#SVGID_68_);fill:url(#SVGID_69_);}
	.st24{clip-path:url(#SVGID_71_);fill:url(#SVGID_72_);}
	.st25{clip-path:url(#SVGID_74_);fill:url(#SVGID_75_);}
	.st26{clip-path:url(#SVGID_77_);fill:url(#SVGID_78_);}
	.st27{clip-path:url(#SVGID_80_);fill:url(#SVGID_81_);}
	.st28{clip-path:url(#SVGID_83_);fill:url(#SVGID_84_);}
	.st29{clip-path:url(#SVGID_86_);fill:url(#SVGID_87_);}
	.st30{clip-path:url(#SVGID_89_);fill:url(#SVGID_90_);}
	.st31{clip-path:url(#SVGID_92_);fill:url(#SVGID_93_);}
	.st32{clip-path:url(#SVGID_95_);fill:url(#SVGID_96_);}
	.st33{clip-path:url(#SVGID_98_);fill:url(#SVGID_99_);}
	.st34{clip-path:url(#SVGID_101_);fill:url(#SVGID_102_);}
	.st35{clip-path:url(#SVGID_104_);fill:url(#SVGID_105_);}
	.st36{clip-path:url(#SVGID_107_);fill:url(#SVGID_108_);}
	.st37{fill:#2390CF;}
	.st38{fill:#2E2868;}
</style>
<g>
	<path class="st37" d="M19.06,18.92c0-1.36,0.04-2.58-0.01-3.81c-0.05-1.09-0.92-1.78-2.18-1.79c-3.21-0.01-6.41,0-9.62,0
		c-0.33,0-0.65,0-1.05,0c0-1.11,0-2.17,0-3.28C6.54,10.03,6.84,10,7.13,10c3.23,0,6.47,0,9.7,0.01c3.34,0.01,5.57,2.25,5.58,5.58
		c0,1.07,0,2.14,0,3.27c1.33,0,2.57,0,3.94,0c0-1.34,0-2.65,0-3.95c0-1.32,0-2.63,0-4.02c1.09,0,2.12,0,3.28,0c0,2.65,0,5.29,0,7.98
		c1.29,0,2.44,0,3.69,0c0-2.67,0-5.29,0-7.98c1.13,0,2.16,0,3.33,0c0,2.67,0,5.31,0,7.98c1.29,0,2.44,0,3.69,0c0-2.68,0-5.3,0-7.98
		c1.12,0,2.15,0,3.29,0c0,2.64,0,5.26,0,7.96c1.34,0,2.58,0,3.96,0c0-1.01,0-2.05,0-3.08c0-3.54,2.17-5.74,5.69-5.75
		c3.18-0.01,6.35,0,9.53,0c0.32,0,0.64,0.03,1.01,0.05c0,1.11,0,2.14,0,3.26c-0.5,0-0.94,0-1.39,0c-3.06,0-6.11,0-9.17,0
		c-1.57,0-2.3,0.73-2.31,2.31c-0.01,1.05,0,2.09,0,3.25c4.29,0,8.53,0,12.85,0c0.03,0.42,0.07,0.74,0.07,1.05
		c0,13.03,0,26.06,0.02,39.09c0,0.72-0.17,0.98-0.94,0.98c-18.63-0.02-37.26-0.03-55.89-0.01c-0.79,0-0.93-0.27-0.93-0.98
		c0.02-13.03,0.02-26.06-0.01-39.09c0-0.88,0.31-1.03,1.09-1.02c3.59,0.03,7.19,0.01,10.78,0.01
		C18.31,18.92,18.63,18.92,19.06,18.92z M60.5,22.36c-17.05,0-34.01,0-50.96,0c0,11.45,0,22.82,0,34.19c17.02,0,33.98,0,50.96,0
		C60.5,45.12,60.5,33.78,60.5,22.36z"/>
	<path class="st37" d="M12.99,25.75c14.71,0,29.34,0,44.04,0c0,9.13,0,18.21,0,27.38c-14.65,0-29.31,0-44.04,0
		C12.99,44.05,12.99,34.94,12.99,25.75z M16.32,49.8c12.5,0,24.91,0,37.37,0c0-6.93,0-13.8,0-20.72c-12.47,0-24.89,0-37.37,0
		C16.32,35.97,16.32,42.85,16.32,49.8z"/>
	<path class="st37" d="M47.9,41.81c0,1.62,0,3.13,0,4.68c-1.14,0-2.18,0-3.32,0c0-1.5,0-3,0-4.6c-0.77-0.03-1.44-0.06-2.17-0.1
		c0-1.08,0-2.11,0-3.23c2.54,0,5.09,0,7.71,0c0,1.02,0,2.07,0,3.24C49.4,41.81,48.7,41.81,47.9,41.81z"/>
	<path class="st37" d="M38.88,38.54c0,1.08,0,2.12,0,3.28c-0.72,0-1.45,0-2.25,0c0,1.61,0,3.1,0,4.65c-1.11,0-2.14,0-3.29,0
		c0-1.48,0-2.99,0-4.59c-0.78-0.04-1.46-0.07-2.2-0.1c0-1.09,0-2.14,0-3.25C33.72,38.54,36.28,38.54,38.88,38.54z"/>
	<path class="st37" d="M19.92,38.54c2.56,0,5.09,0,7.68,0c0,1.08,0,2.11,0,3.27c-0.7,0-1.4,0-2.21,0c0,1.63,0,3.14,0,4.69
		c-1.15,0-2.19,0-3.31,0c0-1.53,0-3.01,0-4.6c-0.75-0.04-1.41-0.07-2.16-0.11C19.92,40.7,19.92,39.65,19.92,38.54z"/>
	<path class="st37" d="M47.84,32.64c0,1.09,0,2.12,0,3.22c-1.06,0-2.11,0-3.23,0c0-1.06,0-2.11,0-3.22
		C45.66,32.64,46.69,32.64,47.84,32.64z"/>
	<path class="st37" d="M22.11,35.86c0-1.06,0-2.1,0-3.27c0.97,0,1.95-0.02,2.92,0.02c0.13,0.01,0.34,0.32,0.35,0.5
		c0.04,0.89,0.02,1.78,0.02,2.75C24.26,35.86,23.21,35.86,22.11,35.86z"/>
	<path class="st37" d="M36.56,32.65c0,1.08,0,2.12,0,3.22c-1.08,0-2.14,0-3.24,0c0-1.07,0-2.11,0-3.22
		C34.39,32.65,35.42,32.65,36.56,32.65z"/>
</g>
</svg>
