<?xml version="1.0" encoding="utf-8"?>
<!-- Generator: Adobe Illustrator 24.2.1, SVG Export Plug-In . SVG Version: 6.00 Build 0)  -->
<svg version="1.1" id="Layer_1" xmlns="http://www.w3.org/2000/svg" xmlns:xlink="http://www.w3.org/1999/xlink" x="0px" y="0px"
	 viewBox="0 0 70 70" style="enable-background:new 0 0 70 70;" xml:space="preserve">
<style type="text/css">
	.st0{clip-path:url(#SVGID_2_);fill:url(#SVGID_3_);}
	.st1{clip-path:url(#SVGID_5_);fill:url(#SVGID_6_);}
	.st2{clip-path:url(#SVGID_8_);fill:url(#SVGID_9_);}
	.st3{clip-path:url(#SVGID_11_);fill:url(#SVGID_12_);}
	.st4{clip-path:url(#SVGID_14_);fill:url(#SVGID_15_);}
	.st5{clip-path:url(#SVGID_17_);fill:url(#SVGID_18_);}
	.st6{clip-path:url(#SVGID_20_);fill:url(#SVGID_21_);}
	.st7{clip-path:url(#SVGID_23_);fill:url(#SVGID_24_);}
	.st8{clip-path:url(#SVGID_26_);fill:url(#SVGID_27_);}
	.st9{clip-path:url(#SVGID_29_);fill:url(#SVGID_30_);}
	.st10{clip-path:url(#SVGID_32_);fill:url(#SVGID_33_);}
	.st11{clip-path:url(#SVGID_35_);fill:url(#SVGID_36_);}
	.st12{clip-path:url(#SVGID_38_);fill:url(#SVGID_39_);}
	.st13{clip-path:url(#SVGID_41_);fill:url(#SVGID_42_);}
	.st14{clip-path:url(#SVGID_44_);fill:url(#SVGID_45_);}
	.st15{clip-path:url(#SVGID_47_);fill:url(#SVGID_48_);}
	.st16{clip-path:url(#SVGID_50_);fill:url(#SVGID_51_);}
	.st17{clip-path:url(#SVGID_53_);fill:url(#SVGID_54_);}
	.st18{fill:#383330;}
	.st19{clip-path:url(#SVGID_56_);fill:url(#SVGID_57_);}
	.st20{clip-path:url(#SVGID_59_);fill:url(#SVGID_60_);}
	.st21{clip-path:url(#SVGID_62_);fill:url(#SVGID_63_);}
	.st22{clip-path:url(#SVGID_65_);fill:url(#SVGID_66_);}
	.st23{clip-path:url(#SVGID_68_);fill:url(#SVGID_69_);}
	.st24{clip-path:url(#SVGID_71_);fill:url(#SVGID_72_);}
	.st25{clip-path:url(#SVGID_74_);fill:url(#SVGID_75_);}
	.st26{clip-path:url(#SVGID_77_);fill:url(#SVGID_78_);}
	.st27{clip-path:url(#SVGID_80_);fill:url(#SVGID_81_);}
	.st28{clip-path:url(#SVGID_83_);fill:url(#SVGID_84_);}
	.st29{clip-path:url(#SVGID_86_);fill:url(#SVGID_87_);}
	.st30{clip-path:url(#SVGID_89_);fill:url(#SVGID_90_);}
	.st31{clip-path:url(#SVGID_92_);fill:url(#SVGID_93_);}
	.st32{clip-path:url(#SVGID_95_);fill:url(#SVGID_96_);}
	.st33{clip-path:url(#SVGID_98_);fill:url(#SVGID_99_);}
	.st34{clip-path:url(#SVGID_101_);fill:url(#SVGID_102_);}
	.st35{clip-path:url(#SVGID_104_);fill:url(#SVGID_105_);}
	.st36{clip-path:url(#SVGID_107_);fill:url(#SVGID_108_);}
	.st37{fill:#2390CF;}
	.st38{fill:#2E2868;}
</style>
<g>
	<path class="st37" d="M10.63,49.89c-0.25,0.55-0.49,1.09-0.74,1.63c-0.03,0.07-0.14,0.16-0.21,0.16c-0.92,0.01-1.83,0.01-2.75,0.01
		c-0.03,0-0.06-0.01-0.1-0.02c0-11.3,0-22.6,0-33.91c1.68,0,3.36,0,5.06,0c0,4.16,0,8.31,0,12.5c0.09-0.04,0.15-0.07,0.21-0.1
		c1.93-1.15,4.01-1.7,6.25-1.64c1.42,0.04,2.79,0.28,4.07,0.93c1.69,0.86,2.78,2.24,3.49,3.96c0.54,1.31,0.81,2.69,0.97,4.1
		c0.17,1.58,0.19,3.17,0.08,4.76c-0.12,1.86-0.41,3.68-1.19,5.4c-1.13,2.51-3.07,3.97-5.78,4.4c-2.36,0.37-4.67,0.17-6.87-0.77
		c-0.76-0.33-1.47-0.79-2.2-1.2C10.83,50.03,10.73,49.96,10.63,49.89z M11.89,40.37c0,2.01,0,4.01,0,6.02
		c0,0.16,0.05,0.25,0.19,0.33c1.81,0.98,3.73,1.39,5.78,1.12c1.43-0.18,2.52-0.89,3.18-2.21c0.31-0.62,0.5-1.28,0.61-1.95
		c0.24-1.37,0.26-2.75,0.23-4.13c-0.03-1.11-0.11-2.22-0.41-3.3c-0.33-1.16-0.88-2.16-1.96-2.79c-0.77-0.45-1.62-0.61-2.5-0.63
		c-1.77-0.05-3.42,0.37-4.97,1.22c-0.14,0.08-0.16,0.17-0.16,0.31C11.89,36.36,11.89,38.36,11.89,40.37z"/>
	<path class="st37" d="M44.7,34.01c-0.73-0.22-1.44-0.46-2.16-0.65c-1.89-0.49-3.82-0.68-5.77-0.54c-0.66,0.05-1.31,0.17-1.92,0.47
		c-0.96,0.47-1.46,1.31-1.4,2.37c0.06,1.17,0.51,1.77,1.68,2.07c0.76,0.19,1.55,0.3,2.33,0.39c1.72,0.19,3.43,0.41,5.04,1.11
		c1.26,0.54,2.25,1.36,2.78,2.66c0.3,0.73,0.42,1.5,0.47,2.28c0.08,1.23-0.02,2.43-0.48,3.58c-0.64,1.6-1.8,2.7-3.34,3.41
		c-1.16,0.54-2.38,0.81-3.64,0.95c-1.57,0.17-3.14,0.15-4.71-0.01c-1.58-0.16-3.14-0.44-4.64-0.98c-0.23-0.08-0.29-0.18-0.29-0.42
		c0.01-1.26,0.01-2.51,0.01-3.77c0-0.08,0-0.17,0-0.25c0.69,0.21,1.35,0.42,2.03,0.6c1.94,0.53,3.93,0.72,5.93,0.6
		c0.89-0.05,1.78-0.16,2.61-0.52c0.77-0.33,1.34-0.84,1.5-1.69c0.11-0.57,0.08-1.13-0.12-1.68c-0.21-0.59-0.66-0.95-1.22-1.18
		c-0.69-0.29-1.42-0.4-2.16-0.47c-1.73-0.17-3.45-0.37-5.09-0.99c-1.16-0.44-2.18-1.08-2.84-2.17c-0.44-0.72-0.64-1.52-0.72-2.35
		c-0.11-1.07-0.08-2.13,0.21-3.17c0.58-2.09,1.96-3.47,3.93-4.29c1.26-0.52,2.58-0.74,3.94-0.82c1.35-0.08,2.69-0.03,4.02,0.11
		c1.33,0.13,2.63,0.4,3.88,0.91c0.1,0.04,0.19,0.07,0.19,0.22c-0.01,1.39,0,2.78-0.01,4.17C44.71,33.98,44.7,33.99,44.7,34.01z"/>
	<path class="st37" d="M47.8,29.07c1.7,0,3.38,0,5.08,0c0,0.12,0,0.23,0,0.33c0,5.44,0,10.89,0,16.33c0,0.24,0.01,0.49,0.03,0.73
		c0.05,0.79,0.48,1.21,1.28,1.28c0.19,0.02,0.38,0.03,0.58,0.05c0,1.37,0,2.73,0,4.14c-0.4,0.02-0.8,0.07-1.2,0.06
		c-1.02-0.02-2.03-0.15-2.98-0.57c-1.39-0.62-2.22-1.72-2.54-3.18c-0.14-0.62-0.23-1.26-0.23-1.9c-0.02-5.7-0.01-11.39-0.01-17.09
		C47.8,29.21,47.8,29.15,47.8,29.07z"/>
	<path class="st37" d="M50.34,25.67c-1.84-0.01-3.3-1.5-3.3-3.35c0.01-1.79,1.52-3.27,3.34-3.26c1.8,0.01,3.28,1.5,3.28,3.3
		C53.67,24.17,52.15,25.67,50.34,25.67z"/>
	<path class="st37" d="M63.17,48.92c0,1.81-1.47,3.29-3.28,3.29c-1.81,0-3.3-1.47-3.31-3.27c-0.01-1.8,1.5-3.31,3.3-3.31
		C61.69,45.63,63.17,47.11,63.17,48.92z"/>
</g>
</svg>
