<?xml version="1.0" encoding="UTF-8"?> <svg xmlns="http://www.w3.org/2000/svg" xmlns:xlink="http://www.w3.org/1999/xlink" version="1.1" id="Layer_1" x="0px" y="0px" width="735px" height="110px" viewBox="0 0 735 110" xml:space="preserve"> <g> <g> <defs> <rect id="SVGID_1_" x="0.12" y="0.441" width="734.88" height="109.117"></rect> </defs> <clipPath id="SVGID_2_"> <use xlink:href="#SVGID_1_" overflow="visible"></use> </clipPath> <path clip-path="url(#SVGID_2_)" fill="#3150A2" d="M52.399,2.658c6.495-1.372,13.124-2.286,19.774-2.212 c4.125-0.037,8.277,0.351,12.271,1.416c2.84,0.786,5.677,1.96,7.837,4.021c1.587,1.51,2.612,3.623,2.667,5.828 c0.071,2.741-1.083,5.346-2.568,7.59c-1.869,2.773-4.246,5.175-6.816,7.301c-0.427,0.442-1.169,0.452-1.579-0.015 c-0.44-0.427-0.279-1.102,0.032-1.549c0.956-1.567,1.725-3.332,1.695-5.197c0.042-1.864-0.895-3.65-2.274-4.864 c-1.975-1.745-4.54-2.625-7.071-3.201c-5.027-1.07-10.222-0.959-15.308-0.41c-7.118,0.8-14.109,2.562-20.837,5.004 c-6.48,2.393-12.774,5.427-18.373,9.508c-2.99,2.234-5.864,4.77-7.842,7.975c-1.184,1.93-1.987,4.283-1.418,6.549 c0.546,2.192,2.328,3.838,4.281,4.832c0.581,0.331,1.265,0.512,1.747,0.989c0.504,0.722-0.163,1.851-1.058,1.658 c-4.481-0.408-9.083-1.288-12.953-3.702C2.13,42.643,0.156,40.073,0,37.082v-1.05c0.158-2.128,0.957-4.159,2.051-5.973 c1.732-2.875,4.098-5.304,6.601-7.513c5.217-4.5,11.21-8.015,17.406-10.985C34.452,7.581,43.321,4.62,52.399,2.658L52.399,2.658z"></path> </g> <path fill="#3150A2" d="M400.691,50.905c-4.085,8.947-8.183,17.886-12.264,26.834c7.99-0.003,15.983,0.008,23.974-0.005 C408.486,68.795,404.599,59.846,400.691,50.905L400.691,50.905z M361.636,108.267c13.073-28.118,26.165-56.228,39.261-84.335 c12.644,28.103,25.25,56.223,37.885,84.33c-4.393,0.002-8.784-0.003-13.176,0c-2.771-6.404-5.538-12.81-8.301-19.215 c-11.297,0-22.597,0-33.894,0c-2.929,6.41-5.877,12.811-8.811,19.217C370.278,108.262,365.956,108.259,361.636,108.267 L361.636,108.267z"></path> <path fill="#E91D2D" d="M271.582,28.01c10.511-1.243,21.442,1.043,30.46,6.621c-2.602,6.792-5.209,13.581-7.81,20.372 c-4.72-3.223-10.138-5.815-15.945-5.998c-1.931-0.077-4.006,0.158-5.593,1.354c-1.263,0.937-1.796,2.833-0.986,4.227 c0.61,1.021,1.782,1.497,2.872,1.826c4.424,1.146,8.961,1.851,13.321,3.237c4.414,1.443,8.704,3.695,11.811,7.219 c2.66,2.988,4.239,6.844,4.721,10.793c0.581,4.716,0.054,9.617-1.802,14.008c-1.728,4.11-4.617,7.689-8.156,10.381 c-6.838,5.199-15.542,7.396-24.03,7.51h-0.373c-10.479-0.205-20.96-2.624-30.361-7.293c2.943-7.493,5.907-14.979,8.86-22.47 c4.152,3.356,8.756,6.352,13.979,7.708c2.743,0.675,5.665,1.065,8.442,0.352c1.275-0.339,2.55-0.9,3.45-1.896 c1.048-1.161,1.236-3.012,0.413-4.347c-0.687-1.061-1.916-1.569-3.084-1.881c-4.893-1.164-9.994-1.493-14.734-3.27 c-3.771-1.387-7.348-3.52-10.004-6.579c-2.607-2.961-4.157-6.797-4.476-10.719c-0.324-3.815,0.17-7.703,1.411-11.324 c1.532-4.434,4.33-8.378,7.867-11.44C257.336,31.633,264.405,28.907,271.582,28.01L271.582,28.01z"></path> <path fill="#E91D2D" d="M23.108,54.77c-0.002-8.613,0-17.228,0-25.841c20.204,0.003,40.408,0,60.611,0 c0.002,8.613,0.002,17.226,0,25.839c-5.293-0.25-10.587-0.484-15.879-0.741c0.002,18.078-0.002,36.154,0.002,54.232 c-9.619,0.008-19.24,0-28.858,0.003c0.005-18.081,0.005-36.162,0-54.243C33.695,54.291,28.399,54.506,23.108,54.77L23.108,54.77z"></path> <path fill="#E91D2D" d="M115.23,50.68c-0.002,4.466,0,8.935,0,13.402c1.747,0.006,3.504-0.01,5.244-0.209 c1.834-0.238,3.789-0.844,4.965-2.363c1.268-1.65,1.322-3.881,1.031-5.855c-0.262-1.678-1.278-3.257-2.845-3.986 C121.011,50.433,118.038,50.712,115.23,50.68L115.23,50.68z M86.994,28.929c11.205,0,22.411,0.003,33.616,0 c5.262-0.034,10.58,0.425,15.626,1.992c3.848,1.187,7.548,3.03,10.575,5.714c3.005,2.617,5.242,6.075,6.515,9.844 c1.198,3.502,1.604,7.234,1.51,10.924c-0.037,4.564-0.924,9.421-3.952,13.004c-2.909,3.479-7.207,5.305-11.376,6.779 c-0.111,0.855,0.941,1.123,1.428,1.658c2.548,1.874,4.085,4.682,5.843,7.236c4.938,7.397,9.898,14.777,14.838,22.172 c-11.107,0.024-22.213,0-33.32,0.012c-4.147-8.381-8.301-16.761-12.463-25.134c-0.121-0.126-0.363-0.381-0.487-0.509 c-0.069,0.323-0.109,0.652-0.121,0.982c0.005,8.221-0.002,16.438,0.005,24.658c-9.414,0-18.825,0-28.238,0 C86.992,81.817,86.994,55.373,86.994,28.929L86.994,28.929z"></path> <path fill="#E91D2D" d="M161.94,28.929c9.616,0,19.235,0.003,28.851,0c0.005,15.012,0,30.022,0.005,45.034 c0.042,1.906,0.062,3.838,0.521,5.701c0.341,1.464,1.087,2.895,2.333,3.784c1.604,1.135,3.653,1.369,5.568,1.312 c1.955-0.079,4.07-0.596,5.375-2.163c1.624-1.981,1.801-4.68,1.891-7.135c0.005-15.51,0-31.023,0.002-46.534 c9.638,0,19.277,0,28.916,0c0.002,13.773,0,27.55,0,41.322c-0.01,3.376,0.074,6.759-0.218,10.128 c-0.375,4.229-1.354,8.436-3.19,12.275c-1.666,3.475-4.058,6.613-7.039,9.062c-3.692,3.074-8.175,5.086-12.81,6.261 c-4.305,1.122-8.761,1.493-13.195,1.581h-0.517c-6.935-0.096-14.02-1.05-20.308-4.137c-3.937-1.913-7.454-4.718-10.071-8.237 c-2.753-3.675-4.461-8.054-5.326-12.542c-0.848-4.16-0.825-8.42-0.791-12.642C161.94,57.643,161.94,43.286,161.94,28.929 L161.94,28.929z"></path> <path fill="#E91D2D" d="M303.861,54.77c-0.003-8.615-0.003-17.228,0-25.841c20.204,0.003,40.408,0,60.611,0 c0.002,8.613,0.002,17.226,0,25.839c-5.294-0.25-10.587-0.487-15.879-0.741c0.002,18.078,0,36.157,0,54.235 c-9.619,0.002-19.237,0-28.856,0c0.005-18.081,0.005-36.162,0-54.243C314.446,54.291,309.152,54.508,303.861,54.77L303.861,54.77z"></path> <path fill="#E91D2D" d="M477.666,50.68c-0.005,4.57-0.002,9.143,0,13.711c2.598-0.01,5.237,0.09,7.79-0.494 c1.765-0.402,3.537-1.292,4.506-2.884c1.055-1.774,1.198-3.999,0.682-5.968c-0.455-1.713-1.91-3-3.547-3.562 C484.072,50.418,480.812,50.725,477.666,50.68L477.666,50.68z M449.801,28.929c11.037,0.003,22.077,0,33.117,0 c4.889-0.066,9.836,0.077,14.589,1.33c4.984,1.26,9.792,3.63,13.432,7.315c3.235,3.173,5.425,7.315,6.542,11.687 c1.162,4.6,1.315,9.434,0.67,14.122c-0.746,5.047-2.824,9.994-6.411,13.682c-2.963,3.107-6.873,5.217-11.002,6.305 c-2.904,0.776-5.919,1.065-8.92,1.046c-4.718-0.005-9.436-0.003-14.153-0.003c-0.003,7.951,0,15.898,0,23.85 c-9.288,0-18.578,0-27.865,0C449.799,81.817,449.796,55.373,449.801,28.929L449.801,28.929z"></path> <path fill="#E91D2D" d="M553.022,79.529c3.823,0.004,7.646,0,11.472,0c-1.826-8.035-4.164-15.971-5.239-24.159 c-0.336,0-0.665,0.002-0.983,0.002C556.52,63.425,554.765,71.475,553.022,79.529L553.022,79.529z M542.551,28.929 c10.632,0,21.265,0.003,31.896-0.002c9.434,26.447,18.869,52.888,28.303,79.335c-10.189,0.002-20.377-0.003-30.564,0.002 c-0.885-3.294-1.752-6.591-2.635-9.885c-7.229-0.006-14.457,0-21.684-0.003c-0.779,3.292-1.553,6.587-2.313,9.883 c-10.192,0.008-20.385,0-30.576,0.003C524.174,81.82,533.35,55.371,542.551,28.929L542.551,28.929z"></path> <g> <defs> <rect id="SVGID_3_" x="0.12" y="0.441" width="734.88" height="109.117"></rect> </defs> <clipPath id="SVGID_4_"> <use xlink:href="#SVGID_3_" overflow="visible"></use> </clipPath> <path clip-path="url(#SVGID_4_)" fill="#E91D2D" d="M632.684,50.677c-0.002,4.469,0,8.94,0,13.408 c2.162-0.021,4.357,0.032,6.485-0.433c1.532-0.354,3.099-1.095,3.959-2.471c1.038-1.607,1.053-3.626,0.815-5.458 c-0.257-1.742-1.319-3.388-2.961-4.103C638.385,50.44,635.456,50.712,632.684,50.677L632.684,50.677z M604.447,28.929 c8.505,0,17.009,0,25.516,0c6.195,0.079,12.448-0.326,18.585,0.769c5.299,0.917,10.558,2.783,14.801,6.164 c2.85,2.244,5.134,5.192,6.608,8.509c1.644,3.692,2.363,7.768,2.334,11.801c0.076,4.498-0.497,9.262-3.07,13.078 c-2.837,4.17-7.634,6.356-12.263,7.908c0.005,0.148,0.02,0.44,0.024,0.586c1.863,1.359,3.643,2.896,4.918,4.842 c5.719,8.559,11.458,17.104,17.172,25.668c-11.111,0.018-22.221,0.003-33.33,0.008c-3.932-8.053-7.978-16.05-11.917-24.097 c-0.321-0.511-0.417-1.347-1.129-1.436c-0.03,8.511-0.005,17.022-0.013,25.532c-9.414,0-18.825,0-28.238,0 C604.45,81.817,604.447,55.373,604.447,28.929L604.447,28.929z"></path> <path clip-path="url(#SVGID_4_)" fill="#E91D2D" d="M674.327,54.768c-0.003-8.613,0-17.226,0-25.839 c20.224,0.008,40.447-0.01,60.673,0.01v25.829c-5.293-0.25-10.587-0.482-15.879-0.744c-0.002,18.078,0,36.16,0,54.238 c-9.639,0.002-19.276,0-28.913,0c0-18.076-0.007-36.154,0.003-54.233C684.917,54.278,679.621,54.518,674.327,54.768 L674.327,54.768z"></path> </g> </g> </svg> 