<?xml version="1.0" encoding="utf-8"?>
<!-- Generator: Adobe Illustrator 22.0.1, SVG Export Plug-In . SVG Version: 6.00 Build 0)  -->
<svg version="1.1" id="Layer_1" xmlns="http://www.w3.org/2000/svg" xmlns:xlink="http://www.w3.org/1999/xlink" x="0px" y="0px"
	 viewBox="0 0 557 289" style="enable-background:new 0 0 557 289;" xml:space="preserve">
<style type="text/css">
	.st0{fill:#0098A6;}
	.st1{fill:#FFFFFF;}
</style>
<g>
	<path class="st0" d="M536,270.5H66.5C41.4,270.5,21,250.1,21,225V63.3c0-25.1,20.4-45.5,45.5-45.5h424.1
		c25.1,0,45.5,20.4,45.5,45.5V270.5z"/>
	<g>
		<path class="st1" d="M161.7,129c2.2,0,4.2,0.2,6.1,0.6c1.8,0.4,3.4,1,4.7,1.9c1.3,0.9,2.3,2.1,3,3.6c0.7,1.5,1.1,3.3,1.1,5.5
			c0,2.4-0.5,4.3-1.6,5.9c-1.1,1.6-2.6,2.9-4.7,3.9c2.9,0.8,5,2.3,6.4,4.3c1.4,2.1,2.1,4.6,2.1,7.5c0,2.4-0.5,4.4-1.4,6.1
			c-0.9,1.7-2.1,3.1-3.7,4.2c-1.5,1.1-3.3,1.9-5.3,2.4c-2,0.5-4,0.8-6.1,0.8h-22.6V129H161.7z M160.4,147.9c1.8,0,3.3-0.4,4.5-1.3
			c1.2-0.9,1.8-2.3,1.8-4.2c0-1.1-0.2-2-0.6-2.7c-0.4-0.7-0.9-1.2-1.6-1.6c-0.7-0.4-1.4-0.7-2.3-0.8c-0.8-0.2-1.7-0.2-2.6-0.2H150
			v10.9H160.4z M161,167.7c1,0,2-0.1,2.9-0.3c0.9-0.2,1.7-0.5,2.4-1c0.7-0.5,1.3-1.1,1.7-1.9c0.4-0.8,0.6-1.8,0.6-3
			c0-2.4-0.7-4.1-2-5.1c-1.4-1-3.1-1.5-5.4-1.5H150v12.8H161z"/>
		<path class="st1" d="M193.8,129v46.7h-9.3V129H193.8z"/>
		<path class="st1" d="M200.1,152.3c0.1-2.2,0.7-4,1.6-5.4c1-1.4,2.2-2.6,3.7-3.5c1.5-0.9,3.1-1.5,5-1.9c1.9-0.4,3.7-0.6,5.6-0.6
			c1.7,0,3.4,0.1,5.2,0.4c1.7,0.2,3.3,0.7,4.8,1.4c1.4,0.7,2.6,1.7,3.5,2.9c0.9,1.2,1.4,2.9,1.4,4.9v17.6c0,1.5,0.1,3,0.3,4.4
			c0.2,1.4,0.5,2.4,0.9,3.1h-9.4c-0.2-0.5-0.3-1.1-0.4-1.6c-0.1-0.5-0.2-1.1-0.2-1.7c-1.5,1.5-3.2,2.6-5.2,3.2
			c-2,0.6-4.1,0.9-6.1,0.9c-1.6,0-3.1-0.2-4.5-0.6c-1.4-0.4-2.6-1-3.7-1.8c-1-0.8-1.9-1.9-2.5-3.1c-0.6-1.3-0.9-2.8-0.9-4.5
			c0-1.9,0.3-3.5,1-4.7c0.7-1.2,1.5-2.2,2.6-3c1.1-0.7,2.3-1.3,3.7-1.7c1.4-0.4,2.8-0.7,4.2-0.9c1.4-0.2,2.8-0.4,4.1-0.5
			c1.4-0.1,2.5-0.3,3.6-0.6c1-0.3,1.9-0.6,2.5-1.1c0.6-0.5,0.9-1.2,0.9-2.2c0-1-0.2-1.8-0.5-2.4s-0.8-1-1.3-1.4
			c-0.5-0.3-1.2-0.5-1.9-0.7c-0.7-0.1-1.5-0.2-2.3-0.2c-1.8,0-3.3,0.4-4.3,1.2c-1,0.8-1.7,2.1-1.8,3.9H200.1z M221.5,159.1
			c-0.4,0.3-0.9,0.6-1.5,0.8c-0.6,0.2-1.2,0.4-1.9,0.5c-0.7,0.1-1.4,0.2-2.1,0.3c-0.7,0.1-1.5,0.2-2.2,0.3c-0.7,0.1-1.4,0.3-2.1,0.5
			c-0.7,0.2-1.3,0.5-1.8,0.9c-0.5,0.4-0.9,0.8-1.2,1.4c-0.3,0.6-0.5,1.3-0.5,2.2c0,0.8,0.2,1.5,0.5,2.1c0.3,0.6,0.7,1,1.2,1.3
			c0.5,0.3,1.1,0.6,1.8,0.7c0.7,0.1,1.4,0.2,2.2,0.2c1.8,0,3.2-0.3,4.2-0.9c1-0.6,1.7-1.3,2.2-2.2c0.5-0.8,0.8-1.7,0.9-2.6
			c0.1-0.9,0.2-1.6,0.2-2.1V159.1z"/>
		<path class="st1" d="M253.6,148c-1.5,0-2.7,0.3-3.7,1c-1,0.7-1.8,1.5-2.5,2.6c-0.6,1.1-1.1,2.2-1.3,3.5c-0.3,1.3-0.4,2.6-0.4,3.8
			c0,1.2,0.1,2.5,0.4,3.7c0.3,1.3,0.7,2.4,1.3,3.4c0.6,1,1.4,1.9,2.4,2.5c1,0.7,2.2,1,3.7,1c2.2,0,3.9-0.6,5.1-1.9
			c1.2-1.2,2-2.9,2.3-5h9c-0.6,4.5-2.4,7.9-5.2,10.3c-2.9,2.4-6.6,3.5-11,3.5c-2.5,0-4.8-0.4-7-1.3c-2.1-0.8-3.9-2-5.4-3.6
			c-1.5-1.5-2.6-3.3-3.5-5.5c-0.8-2.1-1.2-4.4-1.2-7c0-2.6,0.4-5,1.1-7.3c0.8-2.2,1.9-4.2,3.4-5.8c1.5-1.6,3.3-2.9,5.4-3.8
			c2.1-0.9,4.6-1.4,7.3-1.4c2,0,3.9,0.3,5.8,0.8c1.9,0.5,3.5,1.3,5,2.4c1.5,1.1,2.6,2.4,3.6,4c0.9,1.6,1.4,3.5,1.6,5.7h-9.1
			C259.8,149.9,257.5,148,253.6,148z"/>
		<path class="st1" d="M284.5,129v25l11.7-12.2h11l-12.7,12.4l14.2,21.4h-11.2l-9.3-15.1l-3.6,3.5v11.6h-9.3V129H284.5z"/>
		<path class="st1" d="M320.6,129v17h0.1c1.1-1.7,2.7-3,4.6-3.8c1.9-0.8,4-1.2,6-1.2c1.7,0,3.4,0.3,5,1c1.7,0.7,3.1,1.8,4.5,3.2
			c1.3,1.4,2.4,3.3,3.2,5.5c0.8,2.2,1.2,4.9,1.2,8c0,3.1-0.4,5.8-1.2,8c-0.8,2.2-1.9,4.1-3.2,5.5c-1.3,1.4-2.8,2.5-4.5,3.2
			c-1.7,0.7-3.3,1-5,1c-2.5,0-4.7-0.4-6.7-1.2c-2-0.8-3.4-2.1-4.4-4h-0.1v4.3h-8.8V129H320.6z M335.6,154.7
			c-0.3-1.3-0.8-2.5-1.4-3.5s-1.5-1.8-2.5-2.4s-2.2-0.9-3.6-0.9c-1.4,0-2.5,0.3-3.5,0.9c-1,0.6-1.8,1.4-2.5,2.4
			c-0.7,1-1.1,2.2-1.4,3.5c-0.3,1.3-0.5,2.7-0.5,4.1c0,1.4,0.2,2.7,0.5,4.1c0.3,1.3,0.8,2.5,1.4,3.5c0.7,1,1.5,1.8,2.5,2.4
			c1,0.6,2.2,0.9,3.5,0.9c1.4,0,2.6-0.3,3.6-0.9s1.8-1.4,2.5-2.4c0.7-1,1.1-2.2,1.4-3.5c0.3-1.3,0.5-2.7,0.5-4.1
			C336.1,157.4,335.9,156,335.6,154.7z"/>
		<path class="st1" d="M373.5,175.7V171h-0.2c-1.2,2-2.7,3.4-4.6,4.2c-1.9,0.9-3.8,1.3-5.8,1.3c-2.5,0-4.5-0.3-6.1-1
			c-1.6-0.7-2.8-1.6-3.8-2.8c-0.9-1.2-1.6-2.7-1.9-4.4c-0.4-1.7-0.6-3.6-0.6-5.7v-20.8h9.3V161c0,2.8,0.4,4.9,1.3,6.2
			c0.9,1.4,2.4,2.1,4.6,2.1c2.5,0,4.4-0.8,5.5-2.3c1.1-1.5,1.7-4,1.7-7.4v-17.7h9.3v33.8H373.5z"/>
		<path class="st1" d="M397.6,141.9v6.3h0.1c0.4-1,1-2,1.8-2.9c0.7-0.9,1.6-1.7,2.5-2.3c1-0.6,2-1.1,3.1-1.5
			c1.1-0.3,2.2-0.5,3.4-0.5c0.6,0,1.3,0.1,2,0.3v8.6c-0.4-0.1-1-0.2-1.6-0.2c-0.6-0.1-1.2-0.1-1.8-0.1c-1.7,0-3.1,0.3-4.3,0.8
			c-1.2,0.6-2.1,1.3-2.8,2.3c-0.7,1-1.2,2.1-1.5,3.4c-0.3,1.3-0.5,2.7-0.5,4.2v15.2h-9.3v-33.8H397.6z"/>
		<path class="st1" d="M423.7,141.9v4.7h0.2c1.2-2,2.7-3.4,4.6-4.3c1.9-0.9,3.8-1.3,5.8-1.3c2.5,0,4.5,0.3,6.1,1
			c1.6,0.7,2.8,1.6,3.8,2.8c0.9,1.2,1.6,2.7,1.9,4.4c0.4,1.7,0.6,3.6,0.6,5.7v20.8h-9.3v-19.1c0-2.8-0.4-4.9-1.3-6.2
			c-0.9-1.4-2.4-2.1-4.6-2.1c-2.5,0-4.4,0.8-5.5,2.3c-1.1,1.5-1.7,4-1.7,7.4v17.7h-9.3v-33.8H423.7z"/>
		<path class="st1" d="M485.7,173.9c-2.3,1-4.9,1.5-7.8,1.5c-2.3,0-4.4-0.3-6.4-1c-2-0.7-3.7-1.6-5.2-2.9c-1.5-1.3-2.6-2.9-3.5-4.7
			c-0.8-1.9-1.3-4-1.3-6.4c0-1.8,0.3-3.4,0.9-4.9c0.6-1.5,1.5-2.8,2.5-4c1.1-1.2,2.3-2.3,3.6-3.2c1.4-0.9,2.8-1.8,4.2-2.5
			c-1.4-1.7-2.5-3.3-3.4-5c-0.9-1.7-1.4-3.6-1.4-5.8c0-1.7,0.4-3.3,1.1-4.7c0.7-1.4,1.7-2.6,2.9-3.6c1.2-1,2.6-1.8,4.2-2.3
			c1.6-0.5,3.2-0.8,4.9-0.8c1.9,0,3.7,0.3,5.4,0.8c1.7,0.5,3.1,1.3,4.4,2.3c1.2,1,2.2,2.3,3,3.8c0.7,1.5,1.1,3.3,1.1,5.2
			c0,3-0.9,5.5-2.6,7.5c-1.7,2-3.9,3.7-6.4,5.1l6.5,8c0.5-0.9,0.9-1.9,1.2-2.9c0.3-1,0.5-2,0.6-3.1h8.7c-0.2,2.3-0.8,4.5-1.6,6.6
			c-0.8,2.1-1.9,4.1-3.3,5.9l10.3,12h-12.3l-4.1-5C490.2,171.4,488,172.9,485.7,173.9z M475.6,153.5c-0.8,0.5-1.6,1.1-2.3,1.8
			c-0.7,0.7-1.2,1.5-1.6,2.3c-0.4,0.8-0.6,1.8-0.6,2.8c0,0.9,0.2,1.8,0.6,2.6c0.4,0.8,0.9,1.5,1.6,2.1c0.7,0.6,1.4,1.1,2.3,1.4
			c0.9,0.4,1.8,0.5,2.7,0.5c1.8,0,3.4-0.4,4.7-1.2c1.3-0.8,2.6-1.9,3.8-3.2l-8.6-10.5C477.4,152.5,476.5,153,475.6,153.5z
			 M485,131.5c-0.9-0.9-2-1.4-3.2-1.4c-1.2,0-2.3,0.4-3.2,1.2c-0.9,0.8-1.3,1.9-1.3,3.2c0,1.6,0.4,3,1.3,4.1
			c0.8,1.1,1.7,2.3,2.7,3.5c1.4-0.9,2.6-1.9,3.6-2.9c1-1,1.5-2.5,1.5-4.3C486.4,133.6,485.9,132.4,485,131.5z"/>
		<path class="st1" d="M155.7,190l10.9,32.1h0.1L177,190h14.4v46.7h-9.6v-33.1h-0.1l-11.4,33.1h-7.9l-11.4-32.7h-0.1v32.7h-9.6V190
			H155.7z"/>
		<path class="st1" d="M223.9,236.6v-4.7h-0.2c-1.2,2-2.7,3.4-4.6,4.2c-1.9,0.9-3.8,1.3-5.8,1.3c-2.5,0-4.5-0.3-6.1-1
			c-1.6-0.7-2.8-1.6-3.8-2.8c-0.9-1.2-1.6-2.7-1.9-4.4c-0.4-1.7-0.6-3.6-0.6-5.7v-20.8h9.3v19.1c0,2.8,0.4,4.9,1.3,6.2
			c0.9,1.4,2.4,2.1,4.6,2.1c2.5,0,4.4-0.8,5.5-2.3c1.1-1.5,1.7-4,1.7-7.4v-17.7h9.3v33.8H223.9z"/>
		<path class="st1" d="M250.1,202.8v6.3h0.1c0.4-1,1-2,1.8-2.9c0.7-0.9,1.6-1.7,2.5-2.3c1-0.6,2-1.1,3.1-1.5
			c1.1-0.3,2.2-0.5,3.4-0.5c0.6,0,1.3,0.1,2,0.3v8.6c-0.4-0.1-1-0.2-1.6-0.2c-0.6-0.1-1.2-0.1-1.8-0.1c-1.7,0-3.1,0.3-4.3,0.8
			c-1.2,0.6-2.1,1.3-2.8,2.3c-0.7,1-1.2,2.1-1.5,3.4c-0.3,1.3-0.5,2.7-0.5,4.2v15.2h-9.3v-33.8H250.1z"/>
		<path class="st1" d="M298.3,239.1c-0.4,1.7-1.2,3.4-2.4,4.9c-1.2,1.5-3,2.8-5.3,3.8c-2.3,1-5.4,1.6-9.3,1.6
			c-1.7,0-3.3-0.2-5.1-0.6c-1.7-0.4-3.3-1.1-4.7-1.9c-1.4-0.9-2.6-2-3.5-3.4c-0.9-1.4-1.5-3-1.6-4.9h9.2c0.4,1.7,1.3,3,2.5,3.6
			c1.3,0.7,2.7,1,4.4,1c2.6,0,4.5-0.8,5.7-2.4c1.2-1.6,1.8-3.6,1.7-5.9v-4.4h-0.1c-1,1.8-2.4,3.1-4.3,4c-1.9,0.8-3.8,1.3-5.9,1.3
			c-2.5,0-4.7-0.4-6.5-1.3c-1.8-0.9-3.3-2.1-4.5-3.7c-1.2-1.5-2-3.4-2.6-5.4c-0.5-2.1-0.8-4.3-0.8-6.6c0-2.2,0.3-4.3,0.9-6.3
			c0.6-2,1.6-3.8,2.8-5.4c1.2-1.5,2.7-2.8,4.5-3.7c1.8-0.9,3.9-1.4,6.2-1.4c2.2,0,4.2,0.4,5.9,1.2c1.7,0.8,3.1,2.2,4.2,4.2h0.1v-4.5
			h8.8v31.6C298.9,235.8,298.7,237.4,298.3,239.1z M285.6,227.9c1-0.5,1.8-1.2,2.5-2.1c0.7-0.9,1.1-1.9,1.5-3
			c0.3-1.1,0.5-2.3,0.5-3.5c0-1.4-0.1-2.7-0.4-4c-0.3-1.2-0.7-2.3-1.3-3.3c-0.6-1-1.4-1.7-2.4-2.3c-1-0.6-2.3-0.8-3.8-0.8
			c-1.3,0-2.4,0.3-3.4,0.8c-0.9,0.5-1.7,1.2-2.4,2.1c-0.6,0.9-1.1,1.9-1.4,3.1c-0.3,1.2-0.4,2.4-0.4,3.6c0,1.2,0.1,2.4,0.4,3.6
			c0.2,1.2,0.7,2.3,1.2,3.2c0.6,1,1.4,1.7,2.3,2.4c1,0.6,2.2,0.9,3.6,0.9C283.4,228.7,284.6,228.4,285.6,227.9z"/>
		<path class="st1" d="M307.4,213.2c0.1-2.2,0.7-4,1.6-5.4c1-1.4,2.2-2.6,3.7-3.5c1.5-0.9,3.1-1.5,5-1.9c1.9-0.4,3.7-0.6,5.6-0.6
			c1.7,0,3.4,0.1,5.2,0.4c1.7,0.2,3.3,0.7,4.8,1.4c1.4,0.7,2.6,1.7,3.5,2.9c0.9,1.2,1.4,2.9,1.4,4.9v17.6c0,1.5,0.1,3,0.3,4.4
			c0.2,1.4,0.5,2.4,0.9,3.1h-9.4c-0.2-0.5-0.3-1.1-0.4-1.6c-0.1-0.5-0.2-1.1-0.2-1.7c-1.5,1.5-3.2,2.6-5.2,3.2
			c-2,0.6-4.1,0.9-6.1,0.9c-1.6,0-3.1-0.2-4.5-0.6c-1.4-0.4-2.6-1-3.7-1.8c-1-0.8-1.9-1.9-2.5-3.1c-0.6-1.3-0.9-2.8-0.9-4.5
			c0-1.9,0.3-3.5,1-4.7c0.7-1.2,1.5-2.2,2.6-3c1.1-0.7,2.3-1.3,3.7-1.7c1.4-0.4,2.8-0.7,4.2-0.9c1.4-0.2,2.8-0.4,4.1-0.5
			c1.4-0.1,2.5-0.3,3.6-0.6c1-0.3,1.9-0.6,2.5-1.1c0.6-0.5,0.9-1.2,0.9-2.2c0-1-0.2-1.8-0.5-2.4c-0.3-0.6-0.8-1-1.3-1.4
			c-0.5-0.3-1.2-0.5-1.9-0.7c-0.7-0.1-1.5-0.2-2.3-0.2c-1.8,0-3.3,0.4-4.3,1.2c-1,0.8-1.7,2.1-1.8,3.9H307.4z M328.9,220.1
			c-0.4,0.3-0.9,0.6-1.5,0.8c-0.6,0.2-1.2,0.4-1.9,0.5c-0.7,0.1-1.4,0.2-2.1,0.3c-0.7,0.1-1.5,0.2-2.2,0.3c-0.7,0.1-1.4,0.3-2.1,0.5
			c-0.7,0.2-1.3,0.5-1.8,0.9c-0.5,0.4-0.9,0.8-1.2,1.4c-0.3,0.6-0.5,1.3-0.5,2.2c0,0.8,0.2,1.5,0.5,2.1c0.3,0.6,0.7,1,1.2,1.3
			c0.5,0.3,1.1,0.6,1.8,0.7c0.7,0.1,1.4,0.2,2.2,0.2c1.8,0,3.2-0.3,4.2-0.9c1-0.6,1.7-1.3,2.2-2.2c0.5-0.8,0.8-1.7,0.9-2.6
			c0.1-0.9,0.2-1.6,0.2-2.1V220.1z"/>
		<path class="st1" d="M365.4,202.8v6.2h-6.8v16.7c0,1.6,0.3,2.6,0.8,3.1c0.5,0.5,1.6,0.8,3.1,0.8c0.5,0,1,0,1.5-0.1
			c0.5,0,0.9-0.1,1.4-0.2v7.2c-0.8,0.1-1.7,0.2-2.6,0.3c-1,0-1.9,0.1-2.8,0.1c-1.4,0-2.8-0.1-4.1-0.3c-1.3-0.2-2.4-0.6-3.4-1.1
			c-1-0.6-1.8-1.4-2.3-2.4c-0.6-1-0.8-2.4-0.8-4.1V209h-5.6v-6.2h5.6v-10.1h9.3v10.1H365.4z"/>
		<path class="st1" d="M380.2,202.8v6.3h0.1c0.4-1,1-2,1.8-2.9c0.7-0.9,1.6-1.7,2.5-2.3c1-0.6,2-1.1,3.1-1.5
			c1.1-0.3,2.2-0.5,3.4-0.5c0.6,0,1.3,0.1,2,0.3v8.6c-0.4-0.1-1-0.2-1.6-0.2c-0.6-0.1-1.2-0.1-1.8-0.1c-1.7,0-3.1,0.3-4.3,0.8
			c-1.2,0.6-2.1,1.3-2.8,2.3c-0.7,1-1.2,2.1-1.5,3.4c-0.3,1.3-0.5,2.7-0.5,4.2v15.2h-9.3v-33.8H380.2z"/>
		<path class="st1" d="M397.3,212.4c0.8-2.2,2-4.1,3.5-5.6c1.5-1.5,3.4-2.7,5.5-3.6c2.1-0.9,4.5-1.3,7.2-1.3c2.7,0,5.1,0.4,7.2,1.3
			c2.2,0.8,4,2,5.5,3.6c1.5,1.5,2.7,3.4,3.5,5.6c0.8,2.2,1.2,4.7,1.2,7.4c0,2.7-0.4,5.1-1.2,7.3c-0.8,2.2-2,4-3.5,5.6
			c-1.5,1.5-3.4,2.7-5.5,3.6c-2.2,0.8-4.6,1.2-7.2,1.2c-2.7,0-5.1-0.4-7.2-1.2c-2.1-0.8-4-2-5.5-3.6c-1.5-1.5-2.7-3.4-3.5-5.6
			c-0.8-2.2-1.2-4.6-1.2-7.3C396.1,217.1,396.5,214.6,397.3,212.4z M405.8,223.7c0.3,1.3,0.7,2.4,1.3,3.5c0.6,1,1.5,1.8,2.5,2.5
			c1,0.6,2.4,0.9,3.9,0.9c1.6,0,2.9-0.3,4-0.9c1.1-0.6,1.9-1.4,2.5-2.5c0.6-1,1.1-2.2,1.3-3.5c0.3-1.3,0.4-2.6,0.4-4
			c0-1.4-0.1-2.7-0.4-4c-0.3-1.3-0.7-2.5-1.3-3.5c-0.6-1-1.5-1.8-2.5-2.5c-1.1-0.6-2.4-0.9-4-0.9c-1.6,0-2.9,0.3-3.9,0.9
			c-1,0.6-1.9,1.4-2.5,2.5c-0.6,1-1.1,2.2-1.3,3.5c-0.3,1.3-0.4,2.6-0.4,4C405.4,221.1,405.5,222.4,405.8,223.7z"/>
		<path class="st1" d="M451.1,246.7c-1.8,1.2-4.3,1.8-7.5,1.8c-1,0-1.9,0-2.8-0.1c-0.9-0.1-1.9-0.1-2.8-0.2v-7.6
			c0.9,0.1,1.8,0.2,2.7,0.3c0.9,0.1,1.8,0.1,2.7,0.1c1.2-0.1,2.1-0.6,2.7-1.4c0.6-0.8,0.9-1.7,0.9-2.7c0-0.7-0.1-1.4-0.4-2.1
			l-11.8-31.7h9.9l7.6,23.1h0.1l7.4-23.1h9.6l-14.1,38C454.2,243.6,452.8,245.5,451.1,246.7z"/>
		<path class="st1" d="M498,232.3c-1.1,1.8-2.5,3.1-4.3,4c-1.8,0.8-3.8,1.2-6,1.2c-2.5,0-4.8-0.5-6.7-1.5c-1.9-1-3.5-2.3-4.7-4
			c-1.2-1.7-2.2-3.6-2.8-5.8c-0.6-2.2-0.9-4.4-0.9-6.8c0-2.3,0.3-4.5,0.9-6.6c0.6-2.1,1.6-4,2.8-5.6c1.2-1.6,2.8-2.9,4.7-3.9
			c1.9-1,4.1-1.5,6.5-1.5c2,0,3.9,0.4,5.7,1.3c1.8,0.8,3.2,2.1,4.3,3.8h0.1v-17h9.3v46.7h-8.8v-4.3H498z M497.6,215.6
			c-0.3-1.3-0.7-2.4-1.3-3.4c-0.6-1-1.4-1.8-2.5-2.4c-1-0.6-2.3-0.9-3.8-0.9c-1.5,0-2.8,0.3-3.9,0.9c-1,0.6-1.9,1.4-2.5,2.4
			c-0.6,1-1.1,2.1-1.4,3.4c-0.3,1.3-0.4,2.6-0.4,4c0,1.3,0.2,2.6,0.5,3.9c0.3,1.3,0.8,2.5,1.5,3.5c0.7,1,1.5,1.9,2.6,2.5
			c1,0.6,2.3,0.9,3.7,0.9c1.5,0,2.8-0.3,3.8-0.9c1-0.6,1.8-1.4,2.5-2.5c0.6-1,1-2.2,1.3-3.5c0.3-1.3,0.4-2.7,0.4-4.1
			C498,218.2,497.9,216.9,497.6,215.6z"/>
	</g>
</g>
</svg>
