<?xml version="1.0" encoding="UTF-8"?>
<svg id="Layer_2" data-name="Layer 2" xmlns="http://www.w3.org/2000/svg" viewBox="0 0 375.08 57.49">
  <defs>
    <style>
      .cls-1 {
        fill: #231f20;
        stroke-width: 0px;
      }
    </style>
  </defs>
  <g id="Layer_1-2" data-name="Layer 1">
    <path class="cls-1" d="M67.19,14.08c5.11,0,9.22,4.12,9.22,9.17v10.16c0,5.05-4.12,9.17-9.22,9.17h-18.94c-5.05,0-9.17-4.12-9.17-9.17v-10.16c0-5.05,4.12-9.17,9.17-9.17h18.94ZM44.63,33.4c0,2.03,1.65,3.68,3.62,3.68h18.94c2.03,0,3.68-1.65,3.68-3.68v-10.26c0-2.03-1.65-3.68-3.68-3.68h-18.94c-1.98,0-3.62,1.65-3.62,3.68v10.26Z"/>
    <path class="cls-1" d="M112.53,14.08c1.43,0,2.75,1.26,2.75,2.75s-1.32,2.63-2.75,2.63h-21.63c-2.2,0-3.68,1.54-3.68,3.13s1.48,3.02,3.68,3.02h15.54c5.27,0,9.33,3.73,9.33,8.45s-4.06,8.56-9.33,8.56h-21.85c-1.48,0-2.69-1.21-2.69-2.74s1.21-2.69,2.69-2.69h21.85c2.2,0,3.79-1.48,3.79-3.13s-1.59-3.02-3.79-3.02h-15.54c-5.27,0-9.11-3.79-9.11-8.45s3.84-8.51,9.11-8.51h21.63Z"/>
    <path class="cls-1" d="M126.68,39.94c0,1.48-1.15,2.69-2.64,2.69s-2.74-1.21-2.74-2.69V2.72c0-1.48,1.21-2.69,2.74-2.69s2.64,1.21,2.64,2.69v12.08c.99-.38,2.42-.71,3.57-.71h14.66c4.99,0,8.95,4.06,8.95,9v16.85c0,1.48-1.15,2.69-2.69,2.69s-2.69-1.21-2.69-2.69v-16.85c0-1.98-1.59-3.57-3.57-3.57h-14.66c-1.98,0-3.57,1.59-3.57,3.57v16.85Z"/>
    <path class="cls-1" d="M239.04,14.08c5,0,9.11,4.06,9.11,9.11v5.76c0,1.54-1.21,2.75-2.75,2.75h-25.58v1.81c0,1.98,1.65,3.68,3.68,3.68h20.97c1.43,0,2.75,1.15,2.75,2.69s-1.32,2.74-2.75,2.74h-20.92c-5.05,0-9.11-4.06-9.11-9.11v-10.32c0-5.05,4.06-9.11,9.11-9.11h15.48ZM219.82,26.27h22.89v-3.13c0-2.03-1.65-3.68-3.68-3.68h-15.54c-2.03,0-3.68,1.65-3.68,3.68v3.13Z"/>
    <path class="cls-1" d="M284.26,14.08c1.43,0,2.75,1.26,2.75,2.75s-1.32,2.63-2.75,2.63h-21.63c-2.2,0-3.68,1.54-3.68,3.13s1.48,3.02,3.68,3.02h15.54c5.27,0,9.33,3.73,9.33,8.45s-4.06,8.56-9.33,8.56h-21.85c-1.48,0-2.69-1.21-2.69-2.74s1.21-2.69,2.69-2.69h21.85c2.2,0,3.79-1.48,3.79-3.13s-1.59-3.02-3.79-3.02h-15.54c-5.27,0-9.11-3.79-9.11-8.45s3.84-8.51,9.11-8.51h21.63Z"/>
    <path class="cls-1" d="M298.42,16.77v23.11c0,1.54-1.32,2.74-2.74,2.74-1.59,0-2.8-1.21-2.8-2.74v-23.11c0-1.48,1.21-2.69,2.8-2.69,1.43,0,2.74,1.21,2.74,2.69Z"/>
    <path class="cls-1" d="M306.66,56.9c-1.54,0-2.74-1.21-2.74-2.75s1.21-2.74,2.74-2.74h22.07c1.98,0,3.62-1.7,3.62-3.67v-5.11h-19.27c-5.05,0-9.17-4.06-9.17-9.17v-10.16c0-5.11,4.12-9.22,9.17-9.22h15.65c5.05,0,9.17,4.12,9.17,9.22v24.43c0,5.05-4.12,9.17-9.17,9.17h-22.07ZM332.35,37.19v-14.11c0-2.03-1.7-3.62-3.62-3.62h-15.65c-2.03,0-3.68,1.65-3.68,3.73v10.27c0,2.09,1.65,3.73,3.68,3.73h19.27Z"/>
    <path class="cls-1" d="M365.91,14.05c5.11,0,9.17,4.12,9.17,9.17v16.63c0,1.54-1.21,2.74-2.75,2.74s-2.69-1.21-2.69-2.74v-16.63c0-2.03-1.65-3.68-3.73-3.68h-16.69v20.31c0,1.54-1.32,2.74-2.75,2.74-1.54,0-2.74-1.21-2.74-2.74v-23.06c0-1.54,1.15-2.69,2.69-2.75h19.49Z"/>
    <path class="cls-1" d="M24.65,14.08h-15.48C4.13,14.08,0,18.21,0,23.25v30.41c0,.98.4,1.96,1.19,2.55,1.84,1.37,4.3-.11,4.3-2.21v-30.85c0-2.03,1.65-3.68,3.68-3.68h15.37c2.05,0,3.73,1.68,3.73,3.73v10.27c0,2.03-1.65,3.68-3.68,3.68h-8.32c-1.52,0-2.74,1.23-2.74,2.74h0c0,1.52,1.23,2.74,2.74,2.74h8.27c5.04,0,9.17-4.13,9.17-9.17v-10.32c0-5-4.06-9.06-9.06-9.06Z"/>
    <path class="cls-1" d="M184.42,42.65h15.48c5.04,0,9.17-4.13,9.17-9.17V3.08c0-.98-.4-1.96-1.19-2.55-1.84-1.37-4.3.11-4.3,2.21v5.57s0,5.79,0,5.79v5.49s0,8.11,0,8.11v5.89c0,2.03-1.65,3.68-3.68,3.68h-15.37c-2.05,0-3.73-1.68-3.73-3.73v-10.27c0-2.03,1.65-3.68,3.68-3.68h10.91c1.52,0,2.74-1.23,2.74-2.74h0c0-1.52-1.23-2.74-2.74-2.74h-10.85c-5.04,0-9.17,4.13-9.17,9.17v10.32c0,5,4.06,9.06,9.06,9.06Z"/>
    <circle class="cls-1" cx="295.65" cy="5.65" r="2.75"/>
    <g>
      <path class="cls-1" d="M28.75,52.71s.02.03.02.06c0,.62-.01,1.15-.03,1.58-.02.43-.05.76-.1.98-.13.73-.45,1.27-.96,1.64-.26.18-.6.31-1.01.39s-.9.13-1.47.13h-3.55c-.69,0-1.29-.04-1.79-.13-.5-.09-.91-.23-1.24-.43-.29-.2-.54-.45-.74-.75-.2-.3-.34-.67-.43-1.1-.04-.26-.07-.65-.09-1.15-.02-.5-.03-1.15-.03-1.92,0-1.8.32-3.01.96-3.64h-.02c.64-.63,1.85-.95,3.63-.95h3.3c1.18,0,2.06.24,2.66.71s.89,1.19.89,2.15v.03c0,.09-.04.14-.13.14h-.99c-.1,0-.14-.05-.14-.14-.01-.31-.07-.57-.17-.79-.1-.22-.27-.39-.51-.52-.18-.08-.4-.15-.67-.21-.27-.05-.58-.08-.94-.08h-3.39c-.58,0-1.06.04-1.45.11-.39.07-.69.17-.92.28-.4.24-.66.69-.77,1.34-.06.35-.1,1.17-.1,2.48,0,1.38.16,2.27.47,2.67.37.42,1.2.63,2.49.63h3.66c.94,0,1.55-.16,1.83-.47.13-.15.23-.37.3-.67.07-.3.11-.69.11-1.16h-4.53c-.1,0-.16-.05-.16-.16v-.98c0-.1.05-.16.16-.16h5.73s.02,0,.03.02l.08.08Z"/>
      <path class="cls-1" d="M50.09,57.49c-.09,0-.14-.05-.14-.14,0-.27.02-.69.05-1.25.02-.27.04-.5.05-.69.01-.19.02-.34.02-.44,0-.35-.03-.64-.09-.88-.06-.24-.15-.43-.25-.58-.16-.18-.38-.31-.65-.39-.28-.08-.62-.12-1.03-.12h-6.4v4.34c0,.09-.05.14-.14.14h-1.01c-.09,0-.14-.05-.14-.14v-9.69c0-.11.05-.16.14-.16h7c2.24,0,3.36.89,3.36,2.67,0,.45-.06.84-.17,1.16-.12.32-.29.56-.54.72.38.17.68.48.9.93.09.2.16.43.2.69.04.26.05.54.05.84v2.84c0,.09-.04.14-.11.14h-1.07ZM47.74,48.87h-6.12v2.76h6.06c1.25,0,1.88-.47,1.88-1.4s-.6-1.36-1.81-1.36Z"/>
      <path class="cls-1" d="M74.1,54.63c-.06.49-.17.9-.32,1.23-.16.32-.37.59-.63.81-.26.23-.57.39-.93.5v.02c-.31.09-.7.17-1.18.22-.48.05-1.07.08-1.77.08h-1.53c-1.6,0-2.71-.15-3.33-.44-.69-.3-1.16-.87-1.4-1.69-.08-.3-.15-.73-.18-1.28s-.05-1.23-.05-2.03c0-.66.03-1.24.09-1.73s.16-.9.31-1.22c.16-.32.37-.59.62-.81.26-.23.58-.4.95-.53h.02c.59-.2,1.58-.3,2.98-.3h1.53c1.54,0,2.64.15,3.31.46.34.15.62.36.86.65.24.28.41.64.53,1.06.06.29.12.72.16,1.26.04.55.06,1.23.06,2.03,0,.65-.03,1.23-.09,1.72ZM72.93,52.04c0-.54-.02-1-.06-1.39-.04-.39-.12-.69-.24-.91-.15-.43-.48-.7-.99-.82-.41-.1-1.2-.16-2.38-.16h-1.51c-1.18,0-1.98.05-2.4.16-.5.12-.85.39-1.02.82-.2.46-.3,1.23-.3,2.3v.87c0,1.07.1,1.84.3,2.3.19.42.54.69,1.04.8.41.1,1.2.16,2.38.16h1.51c1.17,0,1.96-.05,2.37-.16.52-.12.85-.38,1.01-.8.12-.22.19-.53.24-.91.04-.39.06-.85.06-1.39v-.87Z"/>
      <path class="cls-1" d="M96.72,55.86c-.29.65-.81,1.09-1.55,1.31,0,.01,0,.02-.02.02-.29.09-.69.17-1.18.22-.49.05-1.08.08-1.77.08h-1.48c-.69,0-1.29-.03-1.77-.08-.49-.05-.89-.13-1.19-.22-.01,0-.02,0-.03-.02-.38-.12-.69-.28-.95-.5s-.46-.49-.62-.8c-.15-.32-.26-.72-.32-1.21s-.1-1.07-.1-1.74v-5.25c0-.11.04-.16.13-.16h.99c.09,0,.14.05.14.16v5.25c0,1.07.1,1.84.3,2.3.19.43.54.7,1.04.8.41.1,1.2.16,2.38.16h1.48c1.18,0,1.97-.05,2.38-.16.5-.12.84-.38.99-.8.12-.22.19-.52.23-.91.04-.38.05-.85.05-1.4v-5.25c0-.11.05-.16.16-.16h.98c.09,0,.14.05.14.16v5.25c0,1.34-.14,2.32-.43,2.95Z"/>
      <path class="cls-1" d="M115.51,53.32h-5.4v4.02c0,.09-.05.14-.16.14h-1.06c-.09,0-.14-.05-.14-.14v-9.69c0-.11.05-.16.14-.16h6.61c.59,0,1.1.06,1.53.17.43.12.77.29,1.03.54.24.24.43.57.57.99.14.42.21.92.21,1.51,0,1.75-1.11,2.62-3.33,2.62ZM117.5,50.17c0-.27-.05-.5-.14-.69-.1-.19-.25-.34-.46-.44-.16-.07-.35-.13-.58-.17-.23-.04-.52-.05-.85-.05h-5.35v3.2h5.35c.65,0,1.13-.07,1.44-.21v.02c.21-.1.36-.26.46-.46.09-.2.14-.44.14-.71v-.49Z"/>
      <path class="cls-1" d="M154.6,56.92c-.25.2-.58.34-.99.43-.41.09-.89.13-1.44.13h-4.89c-.99,0-1.76-.23-2.3-.68-.64-.5-.96-1.24-.96-2.21,0-.09.04-.14.13-.14h.99c.1,0,.14.05.14.14.01.32.07.58.17.8.1.22.28.39.52.5.17.08.39.15.66.21.27.05.59.08.96.08h4.53c.36,0,.66-.03.9-.08.24-.05.44-.13.6-.22.21-.13.36-.3.44-.52.08-.22.13-.48.13-.79,0-.64-.29-1.08-.87-1.31-.23-.1-.54-.18-.92-.22-.38-.04-.82-.06-1.32-.06h-.38c-.14,0-.3,0-.49.02h-.54s-.05,0-.08,0c-.03,0-.07,0-.11,0h-.21c-.22.01-.41.02-.58.02h-.41c-1.35,0-2.35-.16-3.01-.47-.89-.42-1.34-1.2-1.34-2.33,0-1.82,1.03-2.73,3.08-2.73h4.98c2.25,0,3.38.96,3.38,2.89,0,.08-.04.13-.11.13h-1.03c-.08,0-.13-.04-.13-.13-.01-.3-.07-.57-.17-.8-.11-.23-.28-.4-.52-.51-.36-.18-.89-.27-1.61-.27h-4.83c-.33,0-.6.03-.81.08-.22.05-.39.12-.51.21-.29.19-.44.57-.44,1.15s.29.98.87,1.22c.48.2,1.23.3,2.22.3h.49c.22,0,.48,0,.79-.02.03,0,.07,0,.1,0s.08,0,.12,0h.21c.19-.01.36-.02.5-.02h.35c.71,0,1.34.04,1.86.13s.97.21,1.32.36c.94.46,1.4,1.27,1.4,2.41,0,1.06-.28,1.83-.85,2.3Z"/>
      <path class="cls-1" d="M167.12,57.49c-.09,0-.14-.05-.14-.14v-9.69c0-.11.05-.16.14-.16h8.42c.08,0,.13.05.13.16v.99c0,.11-.04.16-.13.16h-7.29v2.89h7.05c.08,0,.13.05.13.16v.99c0,.11-.04.16-.13.16h-7.05v3.19h7.29c.08,0,.13.05.13.14v1.01c0,.09-.04.14-.13.14h-8.42Z"/>
      <path class="cls-1" d="M196.57,57.49c-.09,0-.14-.05-.14-.14,0-.27.02-.69.05-1.25.02-.27.04-.5.05-.69.01-.19.02-.34.02-.44,0-.35-.03-.64-.09-.88-.06-.24-.15-.43-.25-.58-.16-.18-.38-.31-.65-.39-.28-.08-.62-.12-1.03-.12h-6.4v4.34c0,.09-.05.14-.14.14h-1.01c-.09,0-.14-.05-.14-.14v-9.69c0-.11.05-.16.14-.16h7c2.24,0,3.36.89,3.36,2.67,0,.45-.06.84-.17,1.16-.12.32-.29.56-.54.72.38.17.68.48.9.93.09.2.16.43.2.69.04.26.05.54.05.84v2.84c0,.09-.04.14-.11.14h-1.07ZM194.22,48.87h-6.12v2.76h6.06c1.25,0,1.88-.47,1.88-1.4s-.6-1.36-1.81-1.36Z"/>
      <path class="cls-1" d="M215.44,57.45s-.05.03-.09.03h-1.4s-.07-.01-.09-.03l-4.95-9.75v.03s-.03-.05-.03-.09c0-.03.01-.06.04-.09.03-.03.06-.05.1-.05h1.14c.05,0,.08,0,.07.02s0,.02,0,.03l4.37,8.57h.08l4.42-8.58s.02-.03.06-.03h1.14c.05,0,.09.02.12.05.03.03.04.06.04.09,0,.04-.01.07-.03.09v-.03l-4.97,9.75ZM210.22,47.53l.02.02h-.02v-.02Z"/>
      <path class="cls-1" d="M231.58,57.49c-.08,0-.13-.05-.13-.14v-9.69c0-.11.04-.16.13-.16h.77c.07,0,.11.05.11.16v9.69c0,.09-.04.14-.11.14h-.77Z"/>
      <path class="cls-1" d="M255.41,54.55s.02.03.02.06c0,1.06-.34,1.84-1.01,2.32-.56.37-1.4.55-2.54.55h-3.58c-.69,0-1.29-.04-1.79-.13-.5-.09-.91-.23-1.24-.43-.29-.2-.54-.45-.73-.75-.19-.3-.33-.67-.42-1.1-.09-.52-.14-1.54-.14-3.08,0-1.79.33-3,.98-3.64h-.02c.64-.63,1.85-.95,3.61-.95h3.31c1.18,0,2.06.24,2.66.71s.89,1.19.89,2.15v.03c0,.09-.04.14-.13.14h-.99c-.1,0-.14-.05-.14-.14v-.03c0-1.04-.76-1.56-2.29-1.56h-3.41c-.58,0-1.06.04-1.44.11-.38.07-.69.17-.91.28-.4.24-.66.69-.77,1.34-.04.18-.07.48-.08.89-.01.42-.02.94-.02,1.59,0,.69.04,1.26.12,1.71.08.45.19.76.34.95.37.42,1.2.63,2.49.63h3.68c.75,0,1.3-.09,1.66-.27.43-.2.65-.63.65-1.28v-.05c0-.09.05-.14.14-.14h1.01s.02,0,.02.02l.08.06Z"/>
      <path class="cls-1" d="M267.07,57.49c-.09,0-.14-.05-.14-.14v-9.69c0-.11.05-.16.14-.16h8.42c.08,0,.13.05.13.16v.99c0,.11-.04.16-.13.16h-7.29v2.89h7.05c.08,0,.13.05.13.16v.99c0,.11-.04.16-.13.16h-7.05v3.19h7.29c.08,0,.13.05.13.14v1.01c0,.09-.04.14-.13.14h-8.42Z"/>
      <path class="cls-1" d="M297.32,56.92c-.25.2-.58.34-.99.43-.41.09-.89.13-1.44.13h-4.89c-.99,0-1.76-.23-2.3-.68-.64-.5-.96-1.24-.96-2.21,0-.09.04-.14.13-.14h.99c.1,0,.14.05.14.14.01.32.07.58.17.8.1.22.28.39.52.5.17.08.39.15.66.21.27.05.59.08.96.08h4.53c.36,0,.66-.03.9-.08.24-.05.44-.13.6-.22.21-.13.36-.3.44-.52.08-.22.13-.48.13-.79,0-.64-.29-1.08-.87-1.31-.23-.1-.54-.18-.92-.22-.38-.04-.82-.06-1.32-.06h-.38c-.14,0-.3,0-.49.02h-.54s-.05,0-.08,0c-.03,0-.07,0-.11,0h-.21c-.22.01-.41.02-.58.02h-.41c-1.35,0-2.35-.16-3.01-.47-.89-.42-1.34-1.2-1.34-2.33,0-1.82,1.03-2.73,3.08-2.73h4.98c2.25,0,3.38.96,3.38,2.89,0,.08-.04.13-.11.13h-1.03c-.08,0-.13-.04-.13-.13-.01-.3-.07-.57-.17-.8-.11-.23-.28-.4-.52-.51-.36-.18-.89-.27-1.61-.27h-4.83c-.33,0-.6.03-.81.08-.22.05-.39.12-.51.21-.29.19-.44.57-.44,1.15s.29.98.87,1.22c.48.2,1.23.3,2.22.3h.49c.22,0,.48,0,.79-.02.03,0,.07,0,.1,0s.08,0,.12,0h.21c.19-.01.36-.02.5-.02h.35c.71,0,1.34.04,1.86.13s.97.21,1.32.36c.94.46,1.4,1.27,1.4,2.41,0,1.06-.28,1.83-.85,2.3Z"/>
    </g>
  </g>
</svg>