<svg width="160" height="40" viewBox="0 0 160 40" fill="none" xmlns="http://www.w3.org/2000/svg">
<path d="M147.117 28.6856H158.986L160.008 24.1005H153.405L156.235 11.2883H150.968L147.117 28.6856ZM133.126 28.6856H144.995L146.016 24.1005H139.414L142.244 11.2883H136.977L133.126 28.6856ZM125.056 28.6856H130.322L134.148 11.2883H128.881L125.056 28.6856ZM117.929 28.6856H124.086L119.292 19.3843L127.65 11.2883H120.942L115.283 17.4455L116.645 11.2883H111.379L107.554 28.6856H112.794L113.868 23.8647L115.257 22.3974L117.929 28.6856ZM100.375 18.7031H97.3094L97.9906 15.6638H101.004C101.947 15.6638 102.549 16.2141 102.549 17.0787C102.523 18.1267 101.659 18.7031 100.375 18.7031ZM99.615 28.6856H105.405L103.676 22.8166C105.956 22.0044 107.947 19.6464 107.947 16.5547C107.947 13.3582 105.248 11.2883 102.104 11.2883H93.6675L89.8422 28.6856H95.1085L96.3399 23.1048H98.4622L99.615 28.6856ZM74.279 28.6856H87.4841L88.4535 24.3101H80.5147L81.0125 22.083H88.7679L89.7374 17.7075H81.982L82.4274 15.6638H90.3662L91.3356 11.2883H78.1305L74.279 28.6856ZM62.4886 28.6856H67.755L70.5847 15.8735H75.2222L76.244 11.2883H61.6502L60.6284 15.8735H65.2921L62.4886 28.6856ZM46.9516 28.6856H52.218L55.0477 15.8735H59.6852L60.707 11.2883H46.1132L45.0914 15.8735H49.7551L46.9516 28.6856ZM35.1351 28.6856H40.4015L44.2268 11.2883H38.9604L35.1351 28.6856ZM27.9823 18.7031H24.9169L25.5981 15.6638H28.6112C29.5544 15.6638 30.157 16.2141 30.157 17.0787C30.1308 18.1267 29.2662 18.7031 27.9823 18.7031ZM27.2225 28.6856H33.0129L31.2836 22.8166C33.5631 22.0044 35.5543 19.6464 35.5543 16.5547C35.5543 13.3582 32.8557 11.2883 29.7116 11.2883H21.2488L17.4235 28.6856H22.6898L23.9212 23.1048H26.0435L27.2225 28.6856ZM0 21.0088C0 25.9083 4.08731 29 9.09164 29C11.4759 29 14.8558 28.1354 17.0304 25.0175L12.8645 22.345C12.2619 23.4717 10.6899 24.3625 9.35365 24.3625C6.94318 24.3625 5.44974 22.6332 5.44974 20.6682C5.44974 18.0481 7.4148 15.6638 10.2183 15.6638C12.0523 15.6638 13.4148 16.7643 13.7292 18.3625L18.7859 16.7643C17.9737 13.9608 15.537 11.0001 10.4279 11.0001C4.66372 10.9739 0 14.9826 0 21.0088Z" fill="#161616"/>
</svg>
