<?xml version="1.0" encoding="UTF-8"?>
<svg width="350px" height="102px" viewBox="0 0 350 102" version="1.1" xmlns="http://www.w3.org/2000/svg" xmlns:xlink="http://www.w3.org/1999/xlink">
    <title>Compact Logo</title>
    <defs>
        <polygon id="path-1" points="0 0 32.754 0 32.754 41.6527 0 41.6527"></polygon>
        <polygon id="path-3" points="0 0 31.385 0 31.385 41.6526 0 41.6526"></polygon>
        <polygon id="path-5" points="0 0 33.822 0 33.822 41.6526 0 41.6526"></polygon>
        <polygon id="path-7" points="0 0 41.67 0 41.67 41.6525 0 41.6525"></polygon>
        <polygon id="path-9" points="0 0 40.8984 0 40.8984 41.6526 0 41.6526"></polygon>
    </defs>
    <g id="Compact-Logo" stroke="none" stroke-width="1" fill="none" fill-rule="evenodd">
        <g id="Group-80">
            <polygon id="Fill-1" fill="#CE2E1D" points="28.1943 0.2322 28.1943 17.8102 5.6273 17.8102 5.6273 0.2322 0.2323 0.2322 0.2323 41.4212 5.6273 41.4212 5.6273 22.8562 28.1943 22.8562 28.1943 41.4212 33.5893 41.4212 33.5893 0.2322"></polygon>
            <path d="M27.963,0 L27.963,17.578 L5.86,17.578 L5.86,0 L0,0 L0,41.653 L5.86,41.653 L5.86,23.089 L27.963,23.089 L27.963,41.653 L33.821,41.653 L33.821,0 L27.963,0 Z M28.427,18.042 L28.427,0.464 L33.358,0.464 L33.358,41.188 L28.427,41.188 L28.427,22.625 L5.396,22.625 L5.396,41.188 L0.464,41.188 L0.464,0.464 L5.396,0.464 L5.396,18.042 L28.427,18.042 Z" id="Fill-2" fill="#CE2E1D"></path>
            <path d="M67.1121,0.2322 L48.8961,41.4212 L54.4651,41.4212 L59.7441,29.4132 L78.9461,29.4132 L84.2251,41.4212 L89.8521,41.4212 L71.5791,0.2322 L67.1121,0.2322 Z M69.3161,7.5422 L76.8001,24.5382 L61.8331,24.5382 L69.3161,7.5422 Z" id="Fill-3" fill="#CE2E1D"></path>
            <path d="M66.96,0 L48.54,41.653 L54.616,41.653 L59.896,29.644 L78.795,29.644 L84.074,41.653 L90.21,41.653 L71.79,0.138 L71.729,0 L66.96,0 Z M67.263,0.464 L71.429,0.464 L89.496,41.188 L84.377,41.188 L79.097,29.181 L59.593,29.181 L54.314,41.188 L49.252,41.188 L67.263,0.464 Z M61.478,24.771 L77.155,24.771 L69.316,6.966 L61.478,24.771 Z M69.316,8.117 L76.445,24.307 L62.188,24.307 L69.316,8.117 Z" id="Fill-4" fill="#CE2E1D"></path>
            <g id="Group-79" transform="translate(105.9765, 0.0003)">
                <path d="M13.6336,17.8677 C18.3326,17.8677 21.1756,15.7207 21.1756,11.6017 C21.1756,7.4257 18.3326,5.2207 13.6336,5.2207 L5.6276,5.2207 L5.6276,17.8677 L13.6336,17.8677 Z M0.2326,0.2317 L14.2716,0.2317 C21.8716,0.2317 26.5706,4.8147 26.5706,11.6017 C26.5706,17.6357 22.7426,21.6967 16.4186,22.6247 L32.2556,41.4207 L25.4676,41.4207 L9.6306,22.6827 L5.6276,22.6827 L5.6276,41.4207 L0.2326,41.4207 L0.2326,0.2317 Z" id="Fill-5" fill="#CE2E1D"></path>
                <g id="Group-9">
                    <mask id="mask-2" fill="white">
                        <use xlink:href="#path-1"></use>
                    </mask>
                    <g id="Clip-8"></g>
                    <path d="M5.86,17.6357 L13.634,17.6357 C18.347,17.6357 20.943,15.4927 20.943,11.6017 C20.943,7.6367 18.347,5.4527 13.634,5.4527 L5.86,5.4527 L5.86,17.6357 Z M13.634,18.0997 L5.396,18.0997 L5.396,4.9887 L13.634,4.9887 C18.573,4.9887 21.407,7.3987 21.407,11.6017 C21.407,15.7317 18.573,18.0997 13.634,18.0997 L13.634,18.0997 Z M25.576,41.1887 L31.757,41.1887 L15.973,22.4547 L16.385,22.3957 C22.618,21.4797 26.339,17.4457 26.339,11.6017 C26.339,4.8357 21.602,0.4637 14.272,0.4637 L0.464,0.4637 L0.464,41.1887 L5.396,41.1887 L5.396,22.4507 L9.739,22.4507 L25.576,41.1887 Z M32.754,41.6527 L25.36,41.6527 L9.523,22.9147 L5.86,22.9147 L5.86,41.6527 L0,41.6527 L0,-0.0003 L14.272,-0.0003 C21.884,-0.0003 26.803,4.5537 26.803,11.6017 C26.803,17.5677 23.096,21.7237 16.861,22.7897 L32.754,41.6527 Z" id="Fill-7" fill="#CE2E1D" mask="url(#mask-2)"></path>
                </g>
                <polygon id="Fill-10" fill="#CE2E1D" points="58.0822 5.3364 45.2612 5.3364 45.2612 0.2314 76.1822 0.2314 76.1822 5.3364 63.3612 5.3364 63.3612 41.4204 58.0822 41.4204"></polygon>
                <g id="Group-14" transform="translate(45.0292, 0)">
                    <mask id="mask-4" fill="white">
                        <use xlink:href="#path-3"></use>
                    </mask>
                    <g id="Clip-13"></g>
                    <path d="M13.285,41.1886 L18.1,41.1886 L18.1,5.1046 L30.921,5.1046 L30.921,0.4636 L0.464,0.4636 L0.464,5.1046 L13.285,5.1046 L13.285,41.1886 Z M18.564,41.6526 L12.821,41.6526 L12.821,5.5686 L0,5.5686 L0,-0.0004 L31.385,-0.0004 L31.385,5.5686 L18.564,5.5686 L18.564,41.6526 Z" id="Fill-12" fill="#CE2E1D" mask="url(#mask-4)"></path>
                </g>
                <polygon id="Fill-15" fill="#CE2E1D" points="94.2244 0.2316 99.6204 0.2316 99.6204 17.8096 122.1874 17.8096 122.1874 0.2316 127.5814 0.2316 127.5814 41.4206 122.1874 41.4206 122.1874 22.8566 99.6204 22.8566 99.6204 41.4206 94.2244 41.4206"></polygon>
                <g id="Group-19" transform="translate(93.992, 0)">
                    <mask id="mask-6" fill="white">
                        <use xlink:href="#path-5"></use>
                    </mask>
                    <g id="Clip-18"></g>
                    <path d="M28.427,41.1886 L33.358,41.1886 L33.358,0.4636 L28.427,0.4636 L28.427,18.0416 L5.396,18.0416 L5.396,0.4636 L0.464,0.4636 L0.464,41.1886 L5.396,41.1886 L5.396,22.6246 L28.427,22.6246 L28.427,41.1886 Z M33.822,41.6526 L27.963,41.6526 L27.963,23.0886 L5.86,23.0886 L5.86,41.6526 L0,41.6526 L0,-0.0004 L5.86,-0.0004 L5.86,17.5776 L27.963,17.5776 L27.963,-0.0004 L33.822,-0.0004 L33.822,41.6526 Z" id="Fill-17" fill="#CE2E1D" mask="url(#mask-6)"></path>
                </g>
                <path d="M172.8905,24.5385 L165.4065,7.5415 L157.9235,24.5385 L172.8905,24.5385 Z M163.2015,0.2315 L167.6685,0.2315 L185.9425,41.4205 L180.3165,41.4205 L175.0365,29.4125 L155.8345,29.4125 L150.5555,41.4205 L144.9855,41.4205 L163.2015,0.2315 Z" id="Fill-20" fill="#CE2E1D"></path>
                <g id="Group-24" transform="translate(144.6294, 0)">
                    <mask id="mask-8" fill="white">
                        <use xlink:href="#path-7"></use>
                    </mask>
                    <g id="Clip-23"></g>
                    <path d="M13.649,24.3065 L27.906,24.3065 L20.777,8.1165 L13.649,24.3065 Z M28.616,24.7705 L12.938,24.7705 L20.777,6.9655 L28.616,24.7705 Z M35.838,41.1885 L40.956,41.1885 L22.889,0.4635 L18.724,0.4635 L0.713,41.1885 L5.775,41.1885 L11.054,29.1805 L30.558,29.1805 L35.838,41.1885 Z M41.67,41.6525 L35.535,41.6525 L30.256,29.6445 L11.356,29.6445 L6.077,41.6525 L0,41.6525 L18.421,-0.0005 L23.19,-0.0005 L23.251,0.1375 L41.67,41.6525 Z" id="Fill-22" fill="#CE2E1D" mask="url(#mask-8)"></path>
                </g>
                <polygon id="Fill-25" fill="#CE2E1D" points="208.7436 9.3972 208.7436 41.4202 203.3476 41.4202 203.3476 0.2312 208.2796 0.2312 223.5946 20.7672 238.9106 0.2312 243.7826 0.2312 243.7826 41.4202 238.4466 41.4202 238.4466 9.3972 223.5946 29.3542"></polygon>
                <g id="Group-29" transform="translate(203.1161, 0)">
                    <mask id="mask-10" fill="white">
                        <use xlink:href="#path-9"></use>
                    </mask>
                    <g id="Clip-28"></g>
                    <path d="M35.562,41.1886 L40.435,41.1886 L40.435,0.4636 L35.91,0.4636 L20.479,21.1556 L5.047,0.4636 L0.464,0.4636 L0.464,41.1886 L5.395,41.1886 L5.395,8.6966 L20.479,28.9656 L35.562,8.6966 L35.562,41.1886 Z M40.899,41.6526 L35.098,41.6526 L35.098,10.0976 L20.479,29.7426 L5.859,10.0976 L5.859,41.6526 L0,41.6526 L0,-0.0004 L5.279,-0.0004 L5.349,0.0926 L20.479,20.3796 L35.678,-0.0004 L40.899,-0.0004 L40.899,41.6526 Z" id="Fill-27" fill="#CE2E1D" mask="url(#mask-10)"></path>
                </g>
                <path d="M17.2069,84.7688 C17.2069,82.0108 15.3219,79.9158 11.8999,79.9158 L7.5709,79.9158 L7.5709,89.6208 L11.8999,89.6208 C15.3219,89.6208 17.2069,87.5268 17.2069,84.7688 M20.4189,84.7688 C20.4189,89.2378 17.0679,92.6238 11.8999,92.6238 L7.5709,92.6238 L7.5709,101.6668 L4.3239,101.6668 L4.3239,76.8788 L11.8999,76.8788 C17.0679,76.8788 20.4189,80.2998 20.4189,84.7688" id="Fill-30" fill="#CE2E1D"></path>
                <path d="M7.7694,89.4229 L11.8994,89.4229 C15.0034,89.4229 17.0084,87.5959 17.0084,84.7689 C17.0084,81.9409 15.0034,80.1139 11.8994,80.1139 L7.7694,80.1139 L7.7694,89.4229 Z M11.8994,89.8199 L7.3724,89.8199 L7.3724,79.7169 L11.8994,79.7169 C15.2444,79.7169 17.4054,81.6999 17.4054,84.7689 C17.4054,87.8369 15.2444,89.8199 11.8994,89.8199 L11.8994,89.8199 Z M4.5224,101.4679 L7.3724,101.4679 L7.3724,92.4259 L11.8994,92.4259 C16.7994,92.4259 20.2204,89.2769 20.2204,84.7689 C20.2204,80.2399 16.7994,77.0769 11.8994,77.0769 L4.5224,77.0769 L4.5224,101.4679 Z M7.7694,101.8649 L4.1254,101.8649 L4.1254,76.6799 L11.8994,76.6799 C17.0324,76.6799 20.6174,80.0059 20.6174,84.7689 C20.6174,89.5109 17.0324,92.8229 11.8994,92.8229 L7.7694,92.8229 L7.7694,101.8649 Z" id="Fill-32" fill="#CE2E1D"></path>
                <path d="M47.3243,91.507 L42.8203,81.277 L38.3173,91.507 L47.3243,91.507 Z M41.4943,76.879 L44.1823,76.879 L55.1803,101.667 L51.7933,101.667 L48.6163,94.439 L37.0603,94.439 L33.8833,101.667 L30.5313,101.667 L41.4943,76.879 Z" id="Fill-34" fill="#CE2E1D"></path>
                <path d="M38.6205,91.3087 L47.0205,91.3087 L42.8205,81.7687 L38.6205,91.3087 Z M47.6275,91.7057 L38.0135,91.7057 L42.8205,80.7847 L47.6275,91.7057 Z M51.9225,101.4687 L54.8755,101.4687 L44.0535,77.0767 L41.6235,77.0767 L30.8355,101.4687 L33.7535,101.4687 L36.9305,94.2417 L48.7455,94.2417 L51.9225,101.4687 Z M55.4855,101.8647 L51.6635,101.8647 L48.4875,94.6377 L37.1895,94.6377 L34.0125,101.8647 L30.2265,101.8647 L41.3645,76.6807 L44.3115,76.6807 L44.3635,76.7977 L55.4855,101.8647 Z" id="Fill-36" fill="#CE2E1D"></path>
                <path d="M77.4047,87.4922 C80.2327,87.4922 81.9437,86.2002 81.9437,83.7212 C81.9437,81.2072 80.2327,79.8812 77.4047,79.8812 L72.5867,79.8812 L72.5867,87.4922 L77.4047,87.4922 Z M69.3397,76.8782 L77.7887,76.8782 C82.3627,76.8782 85.1907,79.6372 85.1907,83.7212 C85.1907,87.3522 82.8867,89.7962 79.0807,90.3552 L88.6117,101.6662 L84.5267,101.6662 L74.9957,90.3902 L72.5867,90.3902 L72.5867,101.6662 L69.3397,101.6662 L69.3397,76.8782 Z" id="Fill-38" fill="#CE2E1D"></path>
                <path d="M72.7855,87.2938 L77.4045,87.2938 C80.2035,87.2938 81.7445,86.0248 81.7445,83.7218 C81.7445,81.3728 80.2035,80.0788 77.4045,80.0788 L72.7855,80.0788 L72.7855,87.2938 Z M77.4045,87.6908 L72.3885,87.6908 L72.3885,79.6828 L77.4045,79.6828 C80.4155,79.6828 82.1415,81.1548 82.1415,83.7218 C82.1415,86.2438 80.4155,87.6908 77.4045,87.6908 L77.4045,87.6908 Z M84.6195,101.4678 L88.1855,101.4678 L78.6995,90.2098 L79.0515,90.1588 C82.7715,89.6128 84.9925,87.2058 84.9925,83.7218 C84.9925,79.6848 82.1645,77.0768 77.7885,77.0768 L69.5385,77.0768 L69.5385,101.4678 L72.3885,101.4678 L72.3885,90.1918 L75.0885,90.1918 L84.6195,101.4678 Z M89.0375,101.8648 L84.4345,101.8648 L74.9035,90.5878 L72.7855,90.5878 L72.7855,101.8648 L69.1415,101.8648 L69.1415,76.6798 L77.7885,76.6798 C82.4055,76.6798 85.3885,79.4438 85.3885,83.7218 C85.3885,87.3098 83.1795,89.8208 79.4575,90.4948 L89.0375,101.8648 Z" id="Fill-40" fill="#CE2E1D"></path>
                <polygon id="Fill-42" fill="#CE2E1D" points="103.3318 76.8786 106.5438 76.8786 106.5438 87.6316 117.3668 76.8786 121.5918 76.8786 109.8258 88.6796 124.2788 101.6666 119.7058 101.6666 106.5438 89.8656 106.5438 101.6666 103.3318 101.6666"></polygon>
                <path d="M119.7818,101.4683 L123.7618,101.4683 L109.5378,88.6873 L121.1138,77.0773 L117.4488,77.0773 L106.3458,88.1083 L106.3458,77.0773 L103.5298,77.0773 L103.5298,101.4683 L106.3458,101.4683 L106.3458,89.4223 L119.7818,101.4683 Z M124.7968,101.8653 L119.6298,101.8653 L119.5738,101.8143 L106.7428,90.3103 L106.7428,101.8653 L103.1338,101.8653 L103.1338,76.6803 L106.7428,76.6803 L106.7428,87.1553 L117.2848,76.6803 L122.0698,76.6803 L110.1138,88.6713 L124.7968,101.8653 Z" id="Fill-44" fill="#CE2E1D"></path>
            </g>
        </g>
    </g>
</svg>