<svg xmlns="http://www.w3.org/2000/svg" width="143.371" height="48.628"><g data-name="Group 140"><g data-name="Group 18"><path fill="#fff" d="M120.423 48.628a32.571 32.571 0 0 1-8.932-1.216 27.875 27.875 0 0 1-3.9-1.426 23.556 23.556 0 0 1-3.4-1.889 19.025 19.025 0 0 1-2.8-2.29 14.99 14.99 0 0 1-2.116-2.625 12.082 12.082 0 0 1-1.337-2.9 10.727 10.727 0 0 1-.463-3.124c0-.233.008-.468.023-.7.266 3.982 2.768 7.7 7.046 10.462a29.544 29.544 0 0 0 15.879 4.3 29.544 29.544 0 0 0 15.879-4.3c4.278-2.765 6.78-6.48 7.045-10.462.016.232.023.467.023.7a10.727 10.727 0 0 1-.466 3.118 12.082 12.082 0 0 1-1.337 2.9 14.99 14.99 0 0 1-2.116 2.628 19.025 19.025 0 0 1-2.8 2.29 23.556 23.556 0 0 1-3.4 1.889 27.874 27.874 0 0 1-3.9 1.426 32.571 32.571 0 0 1-8.928 1.219Zm22.925-16.176c-.265-3.982-2.767-7.7-7.045-10.462a29.544 29.544 0 0 0-15.879-4.3 29.544 29.544 0 0 0-15.879 4.3c-4.279 2.765-6.781 6.48-7.047 10.462-.015-.232-.023-.47-.023-.7a10.727 10.727 0 0 1 .466-3.118 12.082 12.082 0 0 1 1.334-2.904 14.99 14.99 0 0 1 2.119-2.627 19.025 19.025 0 0 1 2.8-2.289 23.556 23.556 0 0 1 3.4-1.889 27.875 27.875 0 0 1 3.9-1.426 32.571 32.571 0 0 1 8.929-1.217 32.571 32.571 0 0 1 8.932 1.216 27.875 27.875 0 0 1 3.9 1.426 23.556 23.556 0 0 1 3.4 1.889 19.024 19.024 0 0 1 2.8 2.289 14.99 14.99 0 0 1 2.116 2.628 12.082 12.082 0 0 1 1.337 2.9 10.727 10.727 0 0 1 .467 3.122c0 .23-.012.468-.027.7Z" data-name="Exclusion 1"/><path fill="#000600" d="M89 16.282h54.371v27.354H89z" data-name="Rectangle 1"/></g><g data-name="Group 4"><g data-name="Group 5"><g data-name="Group 3"><path fill="#fff" d="M0 39.39V16.149h11.175a8.593 8.593 0 0 1 6.119 2.03 7.293 7.293 0 0 1 2.159 5.588 7.292 7.292 0 0 1-2.159 5.588 8.593 8.593 0 0 1-6.115 2.027h-5.11v8.011Zm6.066-12.659h4.055q3.56 0 3.56-2.967t-3.56-2.967H6.065Zm22.218 13.021q-3.362 0-4.879-1.7a7.5 7.5 0 0 1-1.516-5.126v-16.78h5.868v16.582q0 2.308 2.11 2.308.33 0 .676-.033a6.668 6.668 0 0 0 .676-.1l-.066 4.483a10.788 10.788 0 0 1-2.869.366Zm11.142 0a5.85 5.85 0 0 1-4.665-1.731q-1.5-1.731-1.5-5.291v-9.56h5.868v9.725q0 2.374 2.044 2.374a2.479 2.479 0 0 0 1.945-.857 3.307 3.307 0 0 0 .758-2.275V23.17h5.868v16.219h-5.735v-2.01a5.169 5.169 0 0 1-4.583 2.373Zm13.813-.363V23.17h5.7v2.176a5.571 5.571 0 0 1 2.027-1.846 6 6 0 0 1 2.917-.692 5.419 5.419 0 0 1 2.852.725 4.53 4.53 0 0 1 1.83 2.242 5.73 5.73 0 0 1 2.242-2.192 6.423 6.423 0 0 1 3.132-.775 5.076 5.076 0 0 1 4.2 1.7q1.368 1.7 1.368 5.291v9.593h-5.862v-9.428a3.723 3.723 0 0 0-.429-2.044 1.593 1.593 0 0 0-1.418-.626 2.186 2.186 0 0 0-1.863.857 4 4 0 0 0-.643 2.439v8.8h-5.867v-9.428a3.723 3.723 0 0 0-.429-2.044 1.593 1.593 0 0 0-1.418-.626 2.151 2.151 0 0 0-1.83.857 4 4 0 0 0-.643 2.439v8.8Zm40.35.363a6.29 6.29 0 0 1-2.967-.709 4.807 4.807 0 0 1-2.011-1.863v2.209h-5.7v-23.24h5.868v8.967a4.8 4.8 0 0 1 1.994-1.681 6.417 6.417 0 0 1 2.819-.626 6.736 6.736 0 0 1 3.709 1.022 6.781 6.781 0 0 1 2.489 2.917 10.588 10.588 0 0 1 .89 4.533 10.448 10.448 0 0 1-.907 4.516 6.871 6.871 0 0 1-2.505 2.934 6.676 6.676 0 0 1-3.674 1.021Zm-1.846-4.318a2.753 2.753 0 0 0 2.176-.989 4.78 4.78 0 0 0 .857-3.165 4.77 4.77 0 0 0-.857-3.181 2.773 2.773 0 0 0-2.176-.972 2.809 2.809 0 0 0-2.209.972 4.77 4.77 0 0 0-.857 3.181 4.78 4.78 0 0 0 .857 3.165 2.789 2.789 0 0 0 2.209.989Zm20.439 4.318a11.722 11.722 0 0 1-5.126-1.038 7.612 7.612 0 0 1-3.313-2.95 8.574 8.574 0 0 1-1.154-4.516 8.606 8.606 0 0 1 1.1-4.384 7.834 7.834 0 0 1 3.033-2.983 8.909 8.909 0 0 1 4.4-1.071 8.425 8.425 0 0 1 4.236 1.022 6.9 6.9 0 0 1 2.769 2.917 9.589 9.589 0 0 1 .972 4.434v1.286h-10.905a3.335 3.335 0 0 0 1.319 2.275 5.007 5.007 0 0 0 2.835.692 9.809 9.809 0 0 0 2.621-.379 8.02 8.02 0 0 0 2.423-1.1l1.45 3.857a10.151 10.151 0 0 1-3.066 1.418 12.816 12.816 0 0 1-3.594.52Zm-.788-13.153a3.024 3.024 0 0 0-2.159.791 3.855 3.855 0 0 0-1.071 2.308h6.13a3.592 3.592 0 0 0-.841-2.324 2.717 2.717 0 0 0-2.059-.775Zm10.252 12.791V23.171h5.7v2.736s-.028 4.351-.028 5.406v8.077Z" data-name="Path 2"/><path fill="#fff" d="M127.044 23.831h6.055c1.391 0 2.523 1.512 2.523 3.37v2.7c0 .372-.226.674-.5.674h-3.478c-.279 0-.5-.3-.5-.674v-2.025h-4.1c-.279 0-.5-.3-.5-.674v-2.7c0-.369.226-.671.5-.671Z"/><g data-name="XMLID_12_"><path fill="#fff" d="M129.573 24.246v-2.228h-.728c-.461 0-.834-.5-.834-1.114s.377-1.114.834-1.114h3.335c.461 0 .834.5.834 1.114s-.373 1.114-.834 1.114h-.725v2.228Z" data-name="XMLID_14_"/></g><path fill="#fff" d="M4.47 11.855a5.105 5.105 0 0 1-2.371-.514A3.654 3.654 0 0 1 .565 9.882a4.917 4.917 0 0 1-.017-4.444A3.838 3.838 0 0 1 1.99 3.954a4.073 4.073 0 0 1 2.1-.539 3.517 3.517 0 0 1 2.727 1.094 4.248 4.248 0 0 1 1 2.984v.613h-5.8a2.208 2.208 0 0 0 2.487 2.172 4.641 4.641 0 0 0 1.36-.207 3.735 3.735 0 0 0 1.244-.655l.58 1.393a4.336 4.336 0 0 1-1.459.763 5.726 5.726 0 0 1-1.759.283Zm-.3-7.03a2 2 0 0 0-1.476.564 2.507 2.507 0 0 0-.68 1.525h4.079a2.483 2.483 0 0 0-.555-1.55 1.753 1.753 0 0 0-1.367-.539Zm7.959 7.03a3.492 3.492 0 0 1-1.567-.34 2.712 2.712 0 0 1-1.078-.92 2.3 2.3 0 0 1-.39-1.31 2.057 2.057 0 0 1 .464-1.418 2.771 2.771 0 0 1 1.509-.754 13.453 13.453 0 0 1 2.8-.232h.58v-.348a1.641 1.641 0 0 0-.365-1.194 1.7 1.7 0 0 0-1.227-.365 4.976 4.976 0 0 0-1.393.207 6.3 6.3 0 0 0-1.442.638l-.6-1.409a4.755 4.755 0 0 1 1.02-.522 7.348 7.348 0 0 1 1.244-.348 6.635 6.635 0 0 1 1.235-.124 3.7 3.7 0 0 1 2.636.821 3.366 3.366 0 0 1 .862 2.545v4.905h-1.94v-1.293a2.263 2.263 0 0 1-.9 1.069 2.664 2.664 0 0 1-1.447.392Zm.431-1.426a1.791 1.791 0 0 0 1.351-.564 1.981 1.981 0 0 0 .539-1.426v-.365h-.564a6.624 6.624 0 0 0-2.164.24.871.871 0 0 0-.605.87 1.158 1.158 0 0 0 .381.9 1.516 1.516 0 0 0 1.063.346Zm8.937 1.426a7.161 7.161 0 0 1-1.923-.249 4.26 4.26 0 0 1-1.492-.713l.531-1.36a4.909 4.909 0 0 0 1.376.638 5.394 5.394 0 0 0 1.525.224 2.075 2.075 0 0 0 1.185-.274.842.842 0 0 0 .39-.721q0-.7-1.028-.9l-1.658-.313q-2.106-.4-2.106-2.189a2.215 2.215 0 0 1 .439-1.376 2.8 2.8 0 0 1 1.219-.9 4.749 4.749 0 0 1 1.791-.315 5.7 5.7 0 0 1 1.658.24 3.725 3.725 0 0 1 1.36.721l-.564 1.36a3.665 3.665 0 0 0-1.152-.63 3.93 3.93 0 0 0-1.285-.232 2.062 2.062 0 0 0-1.2.282.878.878 0 0 0-.39.746q0 .73.945.9l1.658.315a3.139 3.139 0 0 1 1.633.73 1.879 1.879 0 0 1 .555 1.426 2.219 2.219 0 0 1-.945 1.9 4.19 4.19 0 0 1-2.521.69Zm8.754 0q-3.217 0-3.217-3.183V5.14h-1.557V3.581h1.559V1.16h2.073v2.421h2.453V5.14h-2.454v3.416a1.769 1.769 0 0 0 .348 1.194 1.426 1.426 0 0 0 1.127.4 2.114 2.114 0 0 0 .481-.058q.249-.058.514-.124l.315 1.525a2.782 2.782 0 0 1-.754.265 4.156 4.156 0 0 1-.887.097Zm9.948 0a2.683 2.683 0 0 1-2.131-.788 3.421 3.421 0 0 1-.688-2.313V0h2.073v8.655q0 1.492 1.26 1.492.182 0 .365-.017a1.764 1.764 0 0 0 .348-.066l-.033 1.641a4.906 4.906 0 0 1-1.193.15Zm6.085 0a4.449 4.449 0 0 1-2.189-.514 3.583 3.583 0 0 1-1.442-1.467 4.666 4.666 0 0 1-.514-2.247 4.618 4.618 0 0 1 .514-2.238 3.6 3.6 0 0 1 1.442-1.459 4.917 4.917 0 0 1 4.377 0 3.6 3.6 0 0 1 1.442 1.459 4.618 4.618 0 0 1 .514 2.238 4.666 4.666 0 0 1-.514 2.247 3.583 3.583 0 0 1-1.442 1.467 4.449 4.449 0 0 1-2.187.514Zm0-1.575a1.852 1.852 0 0 0 1.492-.672 3.015 3.015 0 0 0 .564-1.981 2.974 2.974 0 0 0-.564-1.981 2.027 2.027 0 0 0-2.984 0 2.974 2.974 0 0 0-.564 1.981 3.015 3.015 0 0 0 .564 1.981 1.852 1.852 0 0 0 1.493.672Zm5.858 1.407V3.579h2.023v1.26a2.756 2.756 0 0 1 1.119-1.061 3.393 3.393 0 0 1 1.583-.365q2.868 0 2.868 3.333v4.941h-2.076V6.846a2.15 2.15 0 0 0-.356-1.376 1.349 1.349 0 0 0-1.1-.431 1.9 1.9 0 0 0-1.451.572 2.122 2.122 0 0 0-.539 1.517v4.56Zm12.817.166a3.292 3.292 0 0 1-3.117-1.981 5.24 5.24 0 0 1-.448-2.247 5.171 5.171 0 0 1 .448-2.247 3.428 3.428 0 0 1 1.252-1.451 3.388 3.388 0 0 1 1.865-.514 3.191 3.191 0 0 1 1.559.381 2.562 2.562 0 0 1 1.045 1.011V0h2.073v11.687h-2.028v-1.34a2.48 2.48 0 0 1-1.045 1.1 3.191 3.191 0 0 1-1.608.408Zm.58-1.575a1.852 1.852 0 0 0 1.492-.672 3.015 3.015 0 0 0 .564-1.981 2.974 2.974 0 0 0-.564-1.981 2.027 2.027 0 0 0-2.984 0 2.974 2.974 0 0 0-.564 1.981 3.015 3.015 0 0 0 .564 1.981 1.852 1.852 0 0 0 1.488.674Zm9.948 1.575a4.449 4.449 0 0 1-2.189-.514 3.582 3.582 0 0 1-1.442-1.467 4.666 4.666 0 0 1-.514-2.247 4.617 4.617 0 0 1 .514-2.238 3.6 3.6 0 0 1 1.442-1.459 4.917 4.917 0 0 1 4.377 0 3.6 3.6 0 0 1 1.442 1.459 4.618 4.618 0 0 1 .514 2.238 4.666 4.666 0 0 1-.514 2.247 3.582 3.582 0 0 1-1.442 1.467 4.449 4.449 0 0 1-2.192.516Zm0-1.575a1.852 1.852 0 0 0 1.492-.672 3.015 3.015 0 0 0 .563-1.979 2.974 2.974 0 0 0-.564-1.981 2.027 2.027 0 0 0-2.984 0 2.974 2.974 0 0 0-.564 1.981 3.015 3.015 0 0 0 .564 1.981 1.852 1.852 0 0 0 1.489.672Zm5.853 1.409V3.579h2.023v1.26a2.756 2.756 0 0 1 1.119-1.061 3.393 3.393 0 0 1 1.583-.365q2.868 0 2.868 3.333v4.941H86.86V6.846a2.15 2.15 0 0 0-.356-1.376 1.349 1.349 0 0 0-1.1-.431 1.9 1.9 0 0 0-1.451.572 2.122 2.122 0 0 0-.539 1.517v4.56Z" data-name="Path 3"/></g></g><g data-name="Group 6"><g data-name="Group 3"><path fill="#fff" d="M0 39.39V16.149h11.175a8.593 8.593 0 0 1 6.119 2.03 7.293 7.293 0 0 1 2.159 5.588 7.292 7.292 0 0 1-2.159 5.588 8.593 8.593 0 0 1-6.115 2.027h-5.11v8.011Zm6.066-12.659h4.055q3.56 0 3.56-2.967t-3.56-2.967H6.065Zm22.218 13.021q-3.362 0-4.879-1.7a7.5 7.5 0 0 1-1.516-5.126v-16.78h5.868v16.582q0 2.308 2.11 2.308.33 0 .676-.033a6.668 6.668 0 0 0 .676-.1l-.066 4.483a10.788 10.788 0 0 1-2.869.366Zm11.142 0a5.85 5.85 0 0 1-4.665-1.731q-1.5-1.731-1.5-5.291v-9.56h5.868v9.725q0 2.374 2.044 2.374a2.479 2.479 0 0 0 1.945-.857 3.307 3.307 0 0 0 .758-2.275V23.17h5.868v16.219h-5.735v-2.01a5.169 5.169 0 0 1-4.583 2.373Zm13.813-.363V23.17h5.7v2.176a5.571 5.571 0 0 1 2.027-1.846 6 6 0 0 1 2.917-.692 5.419 5.419 0 0 1 2.852.725 4.53 4.53 0 0 1 1.83 2.242 5.73 5.73 0 0 1 2.242-2.192 6.423 6.423 0 0 1 3.132-.775 5.076 5.076 0 0 1 4.2 1.7q1.368 1.7 1.368 5.291v9.593h-5.862v-9.428a3.723 3.723 0 0 0-.429-2.044 1.593 1.593 0 0 0-1.418-.626 2.186 2.186 0 0 0-1.863.857 4 4 0 0 0-.643 2.439v8.8h-5.867v-9.428a3.723 3.723 0 0 0-.429-2.044 1.593 1.593 0 0 0-1.418-.626 2.151 2.151 0 0 0-1.83.857 4 4 0 0 0-.643 2.439v8.8Zm40.35.363a6.29 6.29 0 0 1-2.967-.709 4.807 4.807 0 0 1-2.011-1.863v2.209h-5.7v-23.24h5.868v8.967a4.8 4.8 0 0 1 1.994-1.681 6.417 6.417 0 0 1 2.819-.626 6.736 6.736 0 0 1 3.709 1.022 6.781 6.781 0 0 1 2.489 2.917 10.588 10.588 0 0 1 .89 4.533 10.448 10.448 0 0 1-.907 4.516 6.871 6.871 0 0 1-2.505 2.934 6.676 6.676 0 0 1-3.674 1.021Zm-1.846-4.318a2.753 2.753 0 0 0 2.176-.989 4.78 4.78 0 0 0 .857-3.165 4.77 4.77 0 0 0-.857-3.181 2.773 2.773 0 0 0-2.176-.972 2.809 2.809 0 0 0-2.209.972 4.77 4.77 0 0 0-.857 3.181 4.78 4.78 0 0 0 .857 3.165 2.789 2.789 0 0 0 2.209.989Zm20.439 4.318a11.722 11.722 0 0 1-5.126-1.038 7.612 7.612 0 0 1-3.313-2.95 8.574 8.574 0 0 1-1.154-4.516 8.606 8.606 0 0 1 1.1-4.384 7.834 7.834 0 0 1 3.033-2.983 8.909 8.909 0 0 1 4.4-1.071 8.425 8.425 0 0 1 4.236 1.022 6.9 6.9 0 0 1 2.769 2.917 9.589 9.589 0 0 1 .972 4.434v1.286h-10.905a3.335 3.335 0 0 0 1.319 2.275 5.007 5.007 0 0 0 2.835.692 9.809 9.809 0 0 0 2.621-.379 8.02 8.02 0 0 0 2.423-1.1l1.45 3.857a10.151 10.151 0 0 1-3.066 1.418 12.816 12.816 0 0 1-3.594.52Zm-.788-13.153a3.024 3.024 0 0 0-2.159.791 3.855 3.855 0 0 0-1.071 2.308h6.13a3.592 3.592 0 0 0-.841-2.324 2.717 2.717 0 0 0-2.059-.775Zm10.252 12.791V23.171h5.7v2.736s-.028 4.351-.028 5.406v8.077Z" data-name="Path 2"/><g data-name="XMLID_12_"><path fill="#fff" d="M127.044 23.831h6.055c1.391 0 2.523 1.512 2.523 3.37v2.7c0 .372-.226.674-.5.674h-3.478c-.279 0-.5-.3-.5-.674v-2.025h-4.1c-.279 0-.5-.3-.5-.674v-2.7c0-.369.226-.671.5-.671Z" data-name="XMLID_14_"/></g><g data-name="XMLID_12_"><path fill="#fff" d="M129.573 24.246v-2.228h-.728c-.461 0-.834-.5-.834-1.114s.377-1.114.834-1.114h3.335c.461 0 .834.5.834 1.114s-.373 1.114-.834 1.114h-.725v2.228Z" data-name="XMLID_14_"/></g><path fill="#fff" d="M4.47 11.855a5.105 5.105 0 0 1-2.371-.514A3.654 3.654 0 0 1 .565 9.882a4.917 4.917 0 0 1-.017-4.444A3.838 3.838 0 0 1 1.99 3.954a4.073 4.073 0 0 1 2.1-.539 3.517 3.517 0 0 1 2.727 1.094 4.248 4.248 0 0 1 1 2.984v.613h-5.8a2.208 2.208 0 0 0 2.487 2.172 4.641 4.641 0 0 0 1.36-.207 3.735 3.735 0 0 0 1.244-.655l.58 1.393a4.336 4.336 0 0 1-1.459.763 5.726 5.726 0 0 1-1.759.283Zm-.3-7.03a2 2 0 0 0-1.476.564 2.507 2.507 0 0 0-.68 1.525h4.079a2.483 2.483 0 0 0-.555-1.55 1.753 1.753 0 0 0-1.367-.539Zm7.959 7.03a3.492 3.492 0 0 1-1.567-.34 2.712 2.712 0 0 1-1.078-.92 2.3 2.3 0 0 1-.39-1.31 2.057 2.057 0 0 1 .464-1.418 2.771 2.771 0 0 1 1.509-.754 13.453 13.453 0 0 1 2.8-.232h.58v-.348a1.641 1.641 0 0 0-.365-1.194 1.7 1.7 0 0 0-1.227-.365 4.976 4.976 0 0 0-1.393.207 6.3 6.3 0 0 0-1.442.638l-.6-1.409a4.755 4.755 0 0 1 1.02-.522 7.348 7.348 0 0 1 1.244-.348 6.635 6.635 0 0 1 1.235-.124 3.7 3.7 0 0 1 2.636.821 3.366 3.366 0 0 1 .862 2.545v4.905h-1.94v-1.293a2.263 2.263 0 0 1-.9 1.069 2.664 2.664 0 0 1-1.447.392Zm.431-1.426a1.791 1.791 0 0 0 1.351-.564 1.981 1.981 0 0 0 .539-1.426v-.365h-.564a6.624 6.624 0 0 0-2.164.24.871.871 0 0 0-.605.87 1.158 1.158 0 0 0 .381.9 1.516 1.516 0 0 0 1.063.346Zm8.937 1.426a7.161 7.161 0 0 1-1.923-.249 4.26 4.26 0 0 1-1.492-.713l.531-1.36a4.909 4.909 0 0 0 1.376.638 5.394 5.394 0 0 0 1.525.224 2.075 2.075 0 0 0 1.185-.274.842.842 0 0 0 .39-.721q0-.7-1.028-.9l-1.658-.313q-2.106-.4-2.106-2.189a2.215 2.215 0 0 1 .439-1.376 2.8 2.8 0 0 1 1.219-.9 4.749 4.749 0 0 1 1.791-.315 5.7 5.7 0 0 1 1.658.24 3.725 3.725 0 0 1 1.36.721l-.564 1.36a3.665 3.665 0 0 0-1.152-.63 3.93 3.93 0 0 0-1.285-.232 2.062 2.062 0 0 0-1.2.282.878.878 0 0 0-.39.746q0 .73.945.9l1.658.315a3.139 3.139 0 0 1 1.633.73 1.879 1.879 0 0 1 .555 1.426 2.219 2.219 0 0 1-.945 1.9 4.19 4.19 0 0 1-2.521.69Zm8.754 0q-3.217 0-3.217-3.183V5.14h-1.557V3.581h1.559V1.16h2.073v2.421h2.453V5.14h-2.454v3.416a1.769 1.769 0 0 0 .348 1.194 1.426 1.426 0 0 0 1.127.4 2.114 2.114 0 0 0 .481-.058q.249-.058.514-.124l.315 1.525a2.782 2.782 0 0 1-.754.265 4.156 4.156 0 0 1-.887.097Zm9.948 0a2.683 2.683 0 0 1-2.131-.788 3.421 3.421 0 0 1-.688-2.313V0h2.073v8.655q0 1.492 1.26 1.492.182 0 .365-.017a1.764 1.764 0 0 0 .348-.066l-.033 1.641a4.906 4.906 0 0 1-1.193.15Zm6.085 0a4.449 4.449 0 0 1-2.189-.514 3.583 3.583 0 0 1-1.442-1.467 4.666 4.666 0 0 1-.514-2.247 4.618 4.618 0 0 1 .514-2.238 3.6 3.6 0 0 1 1.442-1.459 4.917 4.917 0 0 1 4.377 0 3.6 3.6 0 0 1 1.442 1.459 4.618 4.618 0 0 1 .514 2.238 4.666 4.666 0 0 1-.514 2.247 3.583 3.583 0 0 1-1.442 1.467 4.449 4.449 0 0 1-2.187.514Zm0-1.575a1.852 1.852 0 0 0 1.492-.672 3.015 3.015 0 0 0 .564-1.981 2.974 2.974 0 0 0-.564-1.981 2.027 2.027 0 0 0-2.984 0 2.974 2.974 0 0 0-.564 1.981 3.015 3.015 0 0 0 .564 1.981 1.852 1.852 0 0 0 1.493.672Zm5.858 1.407V3.579h2.023v1.26a2.756 2.756 0 0 1 1.119-1.061 3.393 3.393 0 0 1 1.583-.365q2.868 0 2.868 3.333v4.941h-2.076V6.846a2.15 2.15 0 0 0-.356-1.376 1.349 1.349 0 0 0-1.1-.431 1.9 1.9 0 0 0-1.451.572 2.122 2.122 0 0 0-.539 1.517v4.56Zm12.817.166a3.292 3.292 0 0 1-3.117-1.981 5.24 5.24 0 0 1-.448-2.247 5.171 5.171 0 0 1 .448-2.247 3.428 3.428 0 0 1 1.252-1.451 3.388 3.388 0 0 1 1.865-.514 3.191 3.191 0 0 1 1.559.381 2.562 2.562 0 0 1 1.045 1.011V0h2.073v11.687h-2.028v-1.34a2.48 2.48 0 0 1-1.045 1.1 3.191 3.191 0 0 1-1.608.408Zm.58-1.575a1.852 1.852 0 0 0 1.492-.672 3.015 3.015 0 0 0 .564-1.981 2.974 2.974 0 0 0-.564-1.981 2.027 2.027 0 0 0-2.984 0 2.974 2.974 0 0 0-.564 1.981 3.015 3.015 0 0 0 .564 1.981 1.852 1.852 0 0 0 1.488.674Zm9.948 1.575a4.449 4.449 0 0 1-2.189-.514 3.582 3.582 0 0 1-1.442-1.467 4.666 4.666 0 0 1-.514-2.247 4.617 4.617 0 0 1 .514-2.238 3.6 3.6 0 0 1 1.442-1.459 4.917 4.917 0 0 1 4.377 0 3.6 3.6 0 0 1 1.442 1.459 4.618 4.618 0 0 1 .514 2.238 4.666 4.666 0 0 1-.514 2.247 3.582 3.582 0 0 1-1.442 1.467 4.449 4.449 0 0 1-2.192.516Zm0-1.575a1.852 1.852 0 0 0 1.492-.672 3.015 3.015 0 0 0 .563-1.979 2.974 2.974 0 0 0-.564-1.981 2.027 2.027 0 0 0-2.984 0 2.974 2.974 0 0 0-.564 1.981 3.015 3.015 0 0 0 .564 1.981 1.852 1.852 0 0 0 1.489.672Zm5.853 1.409V3.579h2.023v1.26a2.756 2.756 0 0 1 1.119-1.061 3.393 3.393 0 0 1 1.583-.365q2.868 0 2.868 3.333v4.941H86.86V6.846a2.15 2.15 0 0 0-.356-1.376 1.349 1.349 0 0 0-1.1-.431 1.9 1.9 0 0 0-1.451.572 2.122 2.122 0 0 0-.539 1.517v4.56Z" data-name="Path 3"/></g></g></g><path fill="none" stroke="#fff" stroke-width="2" d="M133.043 34.814a.5.5 0 0 1 .819 0c.011.015.263.381.519.822a3.049 3.049 0 0 1 .565 1.451 1.494 1.494 0 0 1-2.987.001 3.049 3.049 0 0 1 .565-1.452c.256-.437.508-.807.519-.822Z"/></g></svg>