<svg xmlns="http://www.w3.org/2000/svg" viewBox="0 0 263 135" width="263" height="135">
	<style>
		tspan { white-space:pre }
		.shp0 { fill: #ffffff } 
		.shp1 { fill: none } 
	</style>
	<g id="Layer_2">
		<g id="MASTER_ITEMS">
			<path id="Layer" class="shp0" d="M101.8 52.88C101.78 53.28 101.69 53.67 101.52 54.03C101.35 54.39 101.12 54.71 100.82 54.98C100.53 55.25 100.18 55.46 99.81 55.59C99.43 55.72 99.04 55.78 98.64 55.76L98.64 55.76C98.24 55.78 97.85 55.72 97.47 55.59C97.1 55.46 96.75 55.25 96.46 54.98C96.16 54.71 95.93 54.39 95.76 54.03C95.59 53.67 95.5 53.28 95.48 52.88L95.48 2.88C95.5 2.48 95.59 2.09 95.76 1.73C95.93 1.37 96.16 1.05 96.46 0.78C96.75 0.51 97.1 0.3 97.47 0.17C97.85 0.04 98.24 -0.02 98.64 0L98.64 0C99.04 -0.02 99.43 0.04 99.81 0.17C100.18 0.3 100.53 0.51 100.82 0.77C101.11 1.04 101.35 1.36 101.52 1.72C101.69 2.08 101.78 2.47 101.8 2.87L101.8 52.88Z" />
			<path id="Layer" class="shp0" d="M112.84 52.88C112.82 53.28 112.73 53.67 112.56 54.03C112.39 54.39 112.15 54.72 111.86 54.99C111.56 55.25 111.22 55.46 110.84 55.59C110.47 55.73 110.07 55.78 109.67 55.76L109.67 55.76C109.27 55.78 108.88 55.72 108.5 55.59C108.13 55.46 107.78 55.25 107.49 54.98C107.19 54.71 106.96 54.39 106.79 54.03C106.62 53.67 106.53 53.28 106.51 52.88L106.51 2.88C106.53 2.48 106.62 2.09 106.79 1.73C106.96 1.37 107.19 1.05 107.49 0.78C107.78 0.51 108.13 0.3 108.5 0.17C108.88 0.04 109.27 -0.02 109.67 0L109.67 0C110.07 -0.02 110.47 0.03 110.84 0.17C111.22 0.3 111.56 0.5 111.86 0.77C112.15 1.04 112.39 1.36 112.56 1.72C112.73 2.08 112.82 2.47 112.84 2.87L112.84 52.88Z" />
			<path id="Layer" class="shp0" d="M123.87 52.88C123.85 53.28 123.76 53.67 123.59 54.03C123.42 54.39 123.18 54.72 122.89 54.99C122.59 55.25 122.25 55.46 121.87 55.59C121.5 55.73 121.1 55.78 120.7 55.76L120.7 55.76C120.3 55.78 119.91 55.72 119.53 55.59C119.16 55.46 118.81 55.25 118.52 54.98C118.22 54.71 117.99 54.39 117.82 54.03C117.65 53.67 117.56 53.28 117.54 52.88L117.54 2.88C117.56 2.48 117.65 2.09 117.82 1.73C117.99 1.37 118.22 1.05 118.52 0.78C118.81 0.51 119.16 0.3 119.53 0.17C119.91 0.04 120.3 -0.02 120.7 0L120.7 0C121.1 -0.02 121.5 0.03 121.87 0.17C122.25 0.3 122.59 0.5 122.89 0.77C123.18 1.04 123.42 1.36 123.59 1.72C123.76 2.08 123.85 2.47 123.87 2.87L123.87 52.88Z" />
			<path id="Layer" class="shp0" d="M134.9 52.88C134.88 53.28 134.79 53.67 134.62 54.03C134.45 54.39 134.21 54.72 133.92 54.99C133.62 55.25 133.28 55.46 132.9 55.59C132.53 55.73 132.13 55.78 131.73 55.76L131.73 55.76C131.33 55.78 130.94 55.72 130.56 55.59C130.19 55.46 129.84 55.25 129.55 54.98C129.25 54.71 129.02 54.39 128.85 54.03C128.68 53.67 128.59 53.28 128.57 52.88L128.57 2.88C128.59 2.48 128.68 2.09 128.85 1.73C129.02 1.37 129.25 1.05 129.55 0.78C129.84 0.51 130.19 0.3 130.56 0.17C130.94 0.04 131.33 -0.02 131.73 0L131.73 0C132.13 -0.02 132.53 0.03 132.9 0.17C133.28 0.3 133.62 0.5 133.92 0.77C134.21 1.04 134.45 1.36 134.62 1.72C134.79 2.08 134.88 2.47 134.9 2.87L134.9 52.88Z" />
			<path id="Layer" class="shp0" d="M145.93 52.88C145.91 53.28 145.82 53.67 145.65 54.03C145.48 54.39 145.24 54.72 144.95 54.99C144.65 55.25 144.31 55.46 143.93 55.59C143.56 55.73 143.16 55.78 142.76 55.76L142.76 55.76C142.36 55.78 141.97 55.72 141.59 55.59C141.22 55.46 140.87 55.25 140.58 54.98C140.28 54.71 140.05 54.39 139.88 54.03C139.71 53.67 139.62 53.28 139.6 52.88L139.6 2.88C139.62 2.48 139.71 2.09 139.88 1.73C140.05 1.37 140.28 1.05 140.58 0.78C140.87 0.51 141.22 0.3 141.59 0.17C141.97 0.04 142.36 -0.02 142.76 0L142.76 0C143.16 -0.02 143.56 0.03 143.93 0.17C144.31 0.3 144.65 0.5 144.95 0.77C145.24 1.04 145.48 1.36 145.65 1.72C145.82 2.08 145.91 2.47 145.93 2.87L145.93 52.88Z" />
			<path id="Layer" class="shp0" d="M157 52.88C156.98 53.28 156.89 53.67 156.72 54.03C156.55 54.39 156.31 54.72 156.02 54.99C155.72 55.25 155.38 55.46 155 55.59C154.63 55.73 154.23 55.78 153.83 55.76L153.83 55.76C153.43 55.78 153.04 55.72 152.66 55.59C152.29 55.46 151.94 55.25 151.65 54.98C151.35 54.71 151.12 54.39 150.95 54.03C150.78 53.67 150.69 53.28 150.67 52.88L150.67 2.88C150.69 2.49 150.78 2.1 150.94 1.74C151.11 1.38 151.34 1.06 151.63 0.79C151.92 0.53 152.26 0.32 152.63 0.18C153 0.05 153.4 -0.02 153.79 0L153.79 0C154.19 -0.03 154.59 0.02 154.97 0.15C155.35 0.28 155.7 0.48 156 0.75C156.29 1.01 156.54 1.34 156.71 1.7C156.88 2.06 156.98 2.45 157 2.85L157 52.88Z" />
			<path id="Layer" class="shp0" d="M168 52.88C167.98 53.28 167.89 53.67 167.72 54.03C167.55 54.39 167.31 54.72 167.02 54.99C166.72 55.25 166.38 55.46 166 55.59C165.63 55.73 165.23 55.78 164.83 55.76L164.83 55.76C164.43 55.78 164.04 55.72 163.66 55.59C163.29 55.46 162.94 55.25 162.65 54.98C162.35 54.71 162.12 54.39 161.95 54.03C161.78 53.67 161.69 53.28 161.67 52.88L161.67 2.88C161.69 2.48 161.78 2.09 161.95 1.73C162.11 1.37 162.35 1.05 162.64 0.78C162.94 0.51 163.28 0.31 163.65 0.17C164.03 0.04 164.42 -0.02 164.82 0L164.82 0C165.22 -0.02 165.61 0.03 165.99 0.16C166.36 0.29 166.71 0.5 167.01 0.76C167.3 1.03 167.54 1.35 167.71 1.71C167.88 2.06 167.98 2.45 168 2.85L168 52.88Z" />
			<path id="Layer" fill-rule="evenodd" class="shp0" d="M69.59 95.42L69.59 112.62L62 112.62L62 66.41L73.6 66.41C83.75 66.41 90.04 72.62 90.04 82.32C90.04 89.97 85.8 94.51 79.66 96.71L91.33 112.62L82 112.62L69.59 95.42ZM69.59 73.76L69.59 91.48L72.24 91.48C78.68 91.48 82.16 88.15 82.16 82.62C82.16 77.09 78.52 73.76 73.16 73.76L69.59 73.76Z" />
			<path id="Layer" fill-rule="evenodd" class="shp0" d="M126.79 105.35L107.25 105.35L104.25 112.62L96.38 112.62L117.13 64.14L137.81 112.62L129.81 112.62L126.79 105.35ZM116.94 81.41L110.13 98.15L123.84 98.15L116.94 81.41Z" />
			<path id="Layer" fill-rule="evenodd" class="shp0" d="M151.64 95.42L151.64 112.62L144.06 112.62L144.06 66.41L155.65 66.41C165.8 66.41 172.09 72.62 172.09 82.32C172.09 89.97 167.85 94.51 161.71 96.71L173.38 112.62L164.06 112.62L151.64 95.42ZM151.64 73.76L151.64 91.48L154.29 91.48C160.73 91.48 164.21 88.15 164.21 82.62C164.21 77.09 160.57 73.76 155.21 73.76L151.64 73.76Z" />
			<path id="Layer" class="shp0" d="M179.79 66.41L202.79 66.41L201.5 73.76L187.36 73.76L187.36 85.42L201.45 85.42L201.45 92.77L187.36 92.77L187.36 105.27L201.45 105.27L202.74 112.62L179.74 112.62L179.79 66.41Z" />
			<path id="Layer" class="shp0" d="M7.54 129L1.71 129L1.71 134L0.65 134L0.65 123.3L1.71 123.3L1.71 128L7.54 128L7.54 123.26L8.59 123.26L8.59 133.96L7.54 133.96L7.54 129Z" />
			<path id="Layer" class="shp0" d="M13.92 123.23L18.81 123.23L18.56 124.23L15 124.23L15 128L18.59 128L18.59 129L15 129L15 132.93L18.59 132.93L18.84 133.93L13.92 133.93L13.92 123.23Z" />
			<path id="Layer" fill-rule="evenodd" class="shp0" d="M28.64 131.84L23.55 131.84L22.79 133.93L21.7 133.93L25.7 123.23L26.53 123.23L30.53 133.93L29.39 133.93L28.64 131.84ZM26.08 124.9L23.92 130.84L28.27 130.84L26.08 124.9Z" />
			<path id="Layer" class="shp0" d="M35.12 124.25L32.55 124.25L32.3 123.25L39 123.25L38.76 124.25L36.18 124.25L36.18 133.93L35.12 133.93L35.12 124.25Z" />
			<path id="Layer" class="shp0" d="M42.73 123.23L43.79 123.23L43.79 133.93L42.73 133.93L42.73 123.23Z" />
			<path id="Layer" class="shp0" d="M49.11 123.23L50 123.23L56.09 132.03L56.09 123.23L57.09 123.23L57.09 133.93L56.2 133.93L50.11 125.14L50.11 133.93L49.11 133.93L49.11 123.23Z" />
			<path id="Layer" class="shp0" d="M61.12 128.58C61.09 127.86 61.22 127.14 61.48 126.46C61.74 125.79 62.14 125.17 62.64 124.65C63.15 124.14 63.76 123.73 64.43 123.46C65.1 123.18 65.82 123.05 66.54 123.06C66.73 123.06 66.93 123.07 67.12 123.09C67.31 123.11 67.51 123.14 67.69 123.19C67.88 123.23 68.07 123.29 68.25 123.36C68.43 123.43 68.61 123.51 68.78 123.6L68.41 124.53C68.27 124.46 68.13 124.39 67.98 124.34C67.83 124.28 67.68 124.24 67.52 124.2C67.37 124.16 67.21 124.14 67.05 124.12C66.9 124.11 66.74 124.1 66.58 124.11C65.39 124.13 64.25 124.6 63.41 125.44C62.57 126.28 62.1 127.42 62.1 128.61C62.1 129.8 62.57 130.94 63.41 131.78C64.25 132.62 65.39 133.09 66.58 133.09C66.83 133.12 67.07 133.11 67.31 133.07C67.56 133.04 67.79 132.97 68.02 132.89C68.25 132.8 68.47 132.69 68.68 132.56C68.89 132.43 69.08 132.28 69.26 132.11L69.26 129L66.79 129L67.1 128L70.27 128L70.27 134L69.27 134L69.27 133.16C69.08 133.33 68.88 133.49 68.66 133.62C68.44 133.75 68.21 133.86 67.97 133.95C67.73 134.03 67.48 134.09 67.23 134.13C66.98 134.16 66.72 134.18 66.47 134.16C65.75 134.16 65.03 134.02 64.37 133.73C63.7 133.45 63.1 133.04 62.6 132.52C62.1 131.99 61.71 131.38 61.46 130.7C61.2 130.02 61.09 129.3 61.12 128.58L61.12 128.58Z" />
			<path id="Layer" class="shp0" d="M79.19 131C79.18 130.7 79.22 130.39 79.3 130.1C79.39 129.81 79.52 129.53 79.68 129.28C79.85 129.02 80.05 128.79 80.29 128.6C80.52 128.41 80.79 128.25 81.07 128.14C80.88 128.04 80.7 127.91 80.54 127.76C80.38 127.61 80.24 127.44 80.13 127.25C80.02 127.06 79.93 126.86 79.88 126.65C79.82 126.44 79.8 126.22 79.8 126C79.8 124.42 80.8 123 83.13 123C83.33 122.98 83.53 122.98 83.73 123C83.92 123.03 84.12 123.07 84.31 123.13C84.5 123.19 84.68 123.26 84.86 123.36C85.03 123.46 85.2 123.57 85.35 123.7L84.66 124.54C84.55 124.46 84.44 124.38 84.32 124.32C84.19 124.26 84.07 124.2 83.94 124.16C83.81 124.12 83.67 124.09 83.54 124.07C83.4 124.05 83.27 124.05 83.13 124.05C81.55 124.05 80.9 124.94 80.9 125.85C80.9 126.1 80.96 126.35 81.06 126.59C81.16 126.82 81.31 127.02 81.5 127.19C81.69 127.36 81.91 127.49 82.15 127.57C82.39 127.65 82.65 127.68 82.9 127.66L83.17 127.66L83.17 128.66L82.66 128.66C82.37 128.64 82.07 128.68 81.79 128.78C81.51 128.88 81.26 129.03 81.04 129.23C80.82 129.42 80.64 129.66 80.51 129.93C80.39 130.2 80.31 130.49 80.3 130.78C80.3 131.99 81.2 132.97 82.89 132.97C83.17 132.99 83.44 132.97 83.72 132.92C83.99 132.87 84.25 132.79 84.51 132.67C84.76 132.55 84.99 132.4 85.21 132.23C85.42 132.05 85.61 131.85 85.77 131.62L85.77 128.62L84 128.62L84 127.62L88.83 127.62L88.58 128.62L86.81 128.62L86.81 133.81L85.81 133.81L85.81 132.76C85.61 132.96 85.4 133.13 85.17 133.29C84.94 133.44 84.69 133.57 84.43 133.68C84.18 133.78 83.91 133.86 83.64 133.91C83.36 133.96 83.09 133.98 82.81 133.98C80.33 134.1 79.19 132.61 79.19 131Z" />
			<path id="Layer" fill-rule="evenodd" class="shp0" d="M97.94 123.23L100 123.23C101.05 123.18 102.07 123.56 102.83 124.28C103.59 125 104.03 126.01 104.03 127.06C104.03 128.1 103.59 129.11 102.83 129.83C102.07 130.55 101.05 130.93 100 130.88L99 130.88L99 133.93L97.94 133.93L97.94 123.23ZM99 129.86L100 129.86C100.37 129.88 100.75 129.82 101.1 129.68C101.45 129.54 101.77 129.34 102.03 129.07C102.3 128.81 102.5 128.49 102.64 128.14C102.78 127.79 102.84 127.41 102.82 127.04C102.84 126.67 102.78 126.29 102.64 125.94C102.5 125.6 102.3 125.28 102.03 125.02C101.76 124.75 101.45 124.55 101.1 124.42C100.75 124.29 100.37 124.23 100 124.25L99 124.25L99 129.86Z" />
			<path id="Layer" class="shp0" d="M108 123.23L109 123.23L109 132.91L112.59 132.91L112.84 133.91L108 133.91L108 123.23Z" />
			<path id="Layer" class="shp0" d="M116.33 130.11L116.33 123.23L117.39 123.23L117.39 129.91C117.39 131.91 118.32 133.09 120.1 133.09C121.7 133.09 122.81 131.86 122.81 129.91L122.81 123.23L123.87 123.23L123.87 133.93L122.93 133.93L122.93 132.49C122.79 132.75 122.61 132.99 122.4 133.19C122.19 133.4 121.96 133.58 121.7 133.72C121.44 133.86 121.16 133.97 120.88 134.03C120.59 134.1 120.29 134.12 120 134.1C117.9 134.1 116.33 132.72 116.33 130.11Z" />
			<path id="Layer" class="shp0" d="M129.22 123.23L130.61 123.23L134.19 132.49L137.67 123.23L139.07 123.23L139.31 133.93L138.31 133.93L138.1 124.93L134.65 133.93L133.65 133.93L130.2 124.93L129.99 133.93L128.99 133.93L129.22 123.23Z" />
			<path id="Layer" fill-rule="evenodd" class="shp0" d="M144.42 123.23L147.12 123.23C147.52 123.2 147.91 123.26 148.29 123.39C148.66 123.53 149 123.74 149.29 124.01C149.58 124.28 149.81 124.61 149.97 124.98C150.12 125.34 150.2 125.73 150.2 126.13C150.21 126.37 150.18 126.61 150.12 126.84C150.06 127.07 149.96 127.29 149.84 127.5C149.72 127.7 149.57 127.89 149.39 128.05C149.22 128.21 149.02 128.35 148.81 128.46C149.06 128.55 149.3 128.69 149.51 128.85C149.72 129.02 149.91 129.21 150.06 129.44C150.21 129.66 150.33 129.91 150.4 130.16C150.48 130.42 150.52 130.69 150.51 130.96C150.52 131.36 150.44 131.76 150.29 132.14C150.14 132.51 149.91 132.85 149.62 133.13C149.33 133.41 148.99 133.63 148.61 133.77C148.24 133.92 147.83 133.98 147.43 133.96L144.43 133.96L144.42 123.23ZM145.48 128.02L147.13 128.02C147.65 128.06 148.17 127.88 148.55 127.52C148.94 127.16 149.16 126.66 149.16 126.13C149.16 125.61 148.94 125.11 148.55 124.75C148.17 124.39 147.65 124.21 147.13 124.25L145.48 124.25L145.48 128.02ZM145.48 132.91L147.48 132.91C147.74 132.92 148 132.88 148.25 132.79C148.49 132.69 148.72 132.55 148.9 132.37C149.09 132.19 149.24 131.97 149.34 131.72C149.44 131.48 149.49 131.22 149.48 130.96C149.49 130.7 149.44 130.44 149.34 130.2C149.24 129.96 149.09 129.74 148.9 129.56C148.71 129.38 148.49 129.24 148.25 129.15C148 129.06 147.74 129.02 147.48 129.04L145.48 129.04L145.48 132.91Z" />
			<path id="Layer" class="shp0" d="M155 123.23L156 123.23L156 133.93L155 133.93L155 123.23Z" />
			<path id="Layer" class="shp0" d="M161.33 123.23L162.19 123.23L168.28 132.03L168.28 123.23L169.28 123.23L169.28 133.93L168.42 133.93L162.32 125.14L162.32 133.93L161.32 133.93L161.33 123.23Z" />
			<path id="Layer" class="shp0" d="M173.34 128.58C173.32 127.86 173.44 127.13 173.7 126.46C173.96 125.79 174.36 125.17 174.87 124.65C175.38 124.14 175.99 123.73 176.66 123.46C177.33 123.18 178.05 123.05 178.77 123.06C178.96 123.06 179.16 123.07 179.35 123.09C179.54 123.11 179.73 123.14 179.92 123.19C180.11 123.23 180.29 123.29 180.47 123.36C180.65 123.43 180.83 123.51 181 123.6L180.63 124.53C180.49 124.46 180.35 124.39 180.2 124.33C180.05 124.28 179.9 124.23 179.74 124.2C179.59 124.16 179.43 124.14 179.27 124.12C179.12 124.11 178.96 124.1 178.8 124.11C177.61 124.13 176.47 124.6 175.63 125.44C174.79 126.28 174.32 127.42 174.32 128.61C174.32 129.8 174.79 130.94 175.63 131.78C176.47 132.62 177.61 133.09 178.8 133.09C179.04 133.12 179.29 133.11 179.53 133.07C179.77 133.04 180.01 132.97 180.24 132.89C180.47 132.8 180.69 132.69 180.89 132.56C181.1 132.43 181.29 132.28 181.47 132.11L181.47 129L179 129L179.32 128L182.49 128L182.49 134L181.49 134L181.49 133.16C181.3 133.33 181.1 133.49 180.88 133.62C180.66 133.75 180.43 133.86 180.19 133.95C179.95 134.03 179.7 134.09 179.45 134.13C179.2 134.16 178.94 134.18 178.69 134.16C177.97 134.16 177.25 134.02 176.59 133.73C175.92 133.45 175.32 133.03 174.82 132.51C174.32 131.99 173.93 131.37 173.68 130.7C173.42 130.02 173.31 129.3 173.34 128.58Z" />
			<path id="Layer" class="shp0" d="M191.41 133L192.06 132.21C192.2 132.35 192.35 132.47 192.51 132.58C192.67 132.69 192.84 132.78 193.01 132.85C193.19 132.93 193.38 132.99 193.57 133.03C193.75 133.07 193.95 133.09 194.14 133.09C194.42 133.12 194.7 133.08 194.96 133C195.23 132.91 195.47 132.76 195.68 132.58C195.89 132.39 196.05 132.16 196.16 131.9C196.27 131.65 196.33 131.37 196.33 131.09C196.33 129.95 195.08 129.25 194.12 128.67C193.16 128.09 191.71 127.18 191.71 125.6C191.7 125.26 191.76 124.92 191.89 124.6C192.02 124.28 192.21 123.99 192.46 123.75C192.7 123.51 192.99 123.32 193.31 123.2C193.63 123.07 193.98 123.02 194.32 123.03C194.53 123.02 194.75 123.04 194.96 123.07C195.16 123.11 195.37 123.17 195.57 123.24C195.77 123.32 195.96 123.41 196.14 123.53C196.32 123.64 196.49 123.77 196.64 123.92L195.97 124.69C195.86 124.59 195.74 124.5 195.62 124.42C195.49 124.34 195.36 124.27 195.22 124.22C195.08 124.17 194.94 124.13 194.79 124.1C194.65 124.07 194.5 124.06 194.35 124.06C194.15 124.05 193.94 124.07 193.75 124.15C193.55 124.22 193.38 124.33 193.24 124.48C193.09 124.62 192.98 124.79 192.91 124.99C192.83 125.18 192.81 125.39 192.82 125.59C192.82 126.69 194.11 127.39 195.06 127.97C196.17 128.64 197.43 129.51 197.43 131.08C197.43 131.5 197.35 131.91 197.18 132.3C197.01 132.68 196.76 133.03 196.45 133.31C196.14 133.59 195.78 133.81 195.38 133.94C194.98 134.07 194.56 134.12 194.14 134.08C193.89 134.09 193.64 134.07 193.39 134.03C193.14 133.98 192.9 133.91 192.66 133.82C192.43 133.73 192.21 133.61 192 133.47C191.78 133.34 191.59 133.18 191.41 133L191.41 133Z" />
			<path id="Layer" class="shp0" d="M201.43 123.23L206.33 123.23L206.08 124.23L202.49 124.23L202.49 128L206.08 128L206.08 129L202.49 129L202.49 132.93L206.08 132.93L206.33 133.93L201.43 133.93L201.43 123.23Z" />
			<path id="Layer" fill-rule="evenodd" class="shp0" d="M211 123.23L213 123.23C213.49 123.18 213.98 123.24 214.44 123.4C214.91 123.56 215.33 123.81 215.69 124.15C216.04 124.48 216.32 124.89 216.51 125.34C216.7 125.79 216.79 126.28 216.77 126.77C216.79 127.13 216.75 127.48 216.66 127.83C216.56 128.17 216.41 128.5 216.21 128.79C216 129.09 215.75 129.34 215.47 129.56C215.18 129.77 214.86 129.93 214.52 130.04L216.68 133.93L215.5 133.93L213.5 130.26L212 130.26L212 133.93L211 133.93L211 123.23ZM212 129.3L213.18 129.3C213.82 129.26 214.42 128.98 214.87 128.51C215.31 128.04 215.55 127.42 215.55 126.78C215.55 126.13 215.31 125.51 214.87 125.04C214.42 124.57 213.82 124.29 213.18 124.25L212 124.25L212 129.3Z" />
			<path id="Layer" class="shp0" d="M219.59 123.23L220.72 123.23L223.96 132.28L227.16 123.23L228.25 123.23L224.35 133.93L223.52 133.93L219.59 123.23Z" />
			<path id="Layer" class="shp0" d="M231.89 123.23L232.94 123.23L232.94 133.93L231.89 133.93L231.89 123.23Z" />
			<path id="Layer" class="shp0" d="M237 128.58C236.98 127.86 237.1 127.13 237.36 126.46C237.62 125.79 238.02 125.17 238.53 124.65C239.04 124.14 239.65 123.73 240.32 123.46C240.99 123.18 241.71 123.05 242.43 123.06C242.62 123.06 242.82 123.07 243.01 123.09C243.2 123.11 243.39 123.14 243.58 123.19C243.77 123.23 243.95 123.29 244.13 123.36C244.31 123.43 244.49 123.51 244.66 123.6L244.29 124.53C244.15 124.46 244.01 124.39 243.86 124.33C243.71 124.28 243.56 124.23 243.4 124.2C243.25 124.16 243.09 124.14 242.93 124.12C242.78 124.11 242.62 124.1 242.46 124.11C241.27 124.11 240.14 124.58 239.3 125.42C238.46 126.26 237.99 127.39 237.99 128.58C237.99 129.77 238.46 130.9 239.3 131.74C240.14 132.58 241.27 133.05 242.46 133.05C242.62 133.06 242.79 133.05 242.95 133.04C243.11 133.02 243.27 133 243.43 132.96C243.59 132.93 243.75 132.88 243.9 132.83C244.06 132.77 244.21 132.71 244.35 132.63L244.7 133.56C244.53 133.65 244.35 133.74 244.16 133.81C243.98 133.88 243.79 133.94 243.6 133.98C243.41 134.03 243.22 134.06 243.02 134.08C242.82 134.1 242.63 134.11 242.43 134.1C241.71 134.11 240.99 133.97 240.32 133.7C239.65 133.42 239.04 133.02 238.54 132.5C238.03 131.98 237.63 131.37 237.37 130.7C237.1 130.02 236.98 129.3 237 128.58Z" />
			<path id="Layer" class="shp0" d="M248.51 123.23L253.41 123.23L253.16 124.23L249.57 124.23L249.57 128L253.16 128L253.16 129L249.57 129L249.57 132.93L253.16 132.93L253.41 133.93L248.51 133.93L248.51 123.23Z" />
			<path id="Layer" class="shp0" d="M256.79 133L257.44 132.21C257.58 132.35 257.73 132.47 257.89 132.58C258.05 132.69 258.22 132.78 258.39 132.85C258.57 132.93 258.76 132.99 258.95 133.03C259.13 133.07 259.33 133.09 259.52 133.09C259.8 133.12 260.08 133.08 260.34 132.99C260.6 132.9 260.85 132.76 261.05 132.57C261.26 132.38 261.42 132.15 261.53 131.9C261.64 131.64 261.7 131.37 261.7 131.09C261.7 129.95 260.45 129.25 259.5 128.67C258.39 128.01 257.09 127.18 257.09 125.6C257.08 125.26 257.14 124.92 257.27 124.6C257.4 124.28 257.59 123.99 257.83 123.75C258.08 123.51 258.37 123.32 258.69 123.2C259.01 123.08 259.35 123.02 259.69 123.03C259.9 123.03 260.12 123.05 260.33 123.09C260.54 123.13 260.75 123.2 260.94 123.28C261.14 123.36 261.33 123.47 261.51 123.59C261.69 123.71 261.85 123.85 262 124L261.33 124.77C261.22 124.67 261.1 124.58 260.98 124.5C260.85 124.42 260.72 124.35 260.58 124.3C260.44 124.25 260.3 124.21 260.15 124.18C260.01 124.15 259.86 124.14 259.71 124.14C259.51 124.13 259.3 124.15 259.11 124.23C258.91 124.3 258.74 124.41 258.6 124.56C258.45 124.7 258.34 124.87 258.27 125.07C258.19 125.26 258.17 125.47 258.18 125.67C258.18 126.77 259.46 127.47 260.41 128.05C261.52 128.72 262.79 129.59 262.79 131.16C262.79 131.58 262.71 131.99 262.54 132.38C262.37 132.76 262.12 133.11 261.81 133.39C261.5 133.67 261.14 133.89 260.74 134.02C260.34 134.15 259.92 134.2 259.5 134.16C259.25 134.16 258.99 134.14 258.75 134.09C258.5 134.04 258.26 133.96 258.02 133.86C257.79 133.76 257.57 133.64 257.36 133.49C257.16 133.35 256.96 133.18 256.79 133Z" />
			<path id="Layer" class="shp1" d="M-10 -11L273.46 -11L273.46 144.91L-10 144.91L-10 -11Z" />
		</g>
	</g>
</svg>