<?xml version="1.0" encoding="UTF-8" standalone="no" ?>
<!DOCTYPE svg PUBLIC "-//W3C//DTD SVG 1.1//EN" "http://www.w3.org/Graphics/SVG/1.1/DTD/svg11.dtd">
<svg xmlns="http://www.w3.org/2000/svg" xmlns:xlink="http://www.w3.org/1999/xlink" version="1.1" width="205" height="55" viewBox="0 0 205 55" xml:space="preserve">
<desc>Created with Fabric.js 4.6.0</desc>
<defs>
</defs>
<g transform="matrix(1 0 0 1 168.21 27.34)" id="12CmxBWtvtKlGNCVyF7vz"  >
<path style="stroke: none; stroke-width: 1; stroke-dasharray: none; stroke-linecap: butt; stroke-dashoffset: 0; stroke-linejoin: miter; stroke-miterlimit: 4; fill: rgb(255,255,255); fill-rule: nonzero; opacity: 1;" vector-effect="non-scaling-stroke"  transform=" translate(-219.55, -56.61)" d="M 198.1 77.6 C 194.5 79.1 188 80.69999999999999 187.7 80.69999999999999 C 187.39999999999998 80.79999999999998 186.79999999999998 80.89999999999999 188.39999999999998 81.39999999999999 C 192.49999999999997 82.6 200.29999999999998 77.69999999999999 205.59999999999997 75.1 C 205.7 73.8 201.3 76.3 198.1 77.6 M 223.1 41.7 C 222.1 42.5 222 45.1 222.2 46.300000000000004 C 221.39999999999998 45.7 221.1 44.6 221 43.300000000000004 C 220.3 44.2 220.3 45.6 220.7 47.1 C 219.79999999999998 46.7 219.6 45.800000000000004 219.6 44.7 C 219.1 45.6 219.4 46.1 219.6 46.6 C 218.7 46.300000000000004 218.5 45.2 218.7 44.2 C 217.89999999999998 44.900000000000006 217.79999999999998 45.900000000000006 217.89999999999998 46.7 C 217.09999999999997 46.300000000000004 216.99999999999997 45.2 217.09999999999997 44.300000000000004 C 215.99999999999997 46.7 217.39999999999998 48.1 217.69999999999996 50.1 C 218.09999999999997 49.800000000000004 217.89999999999995 48.7 217.99999999999997 48.1 C 218.89999999999998 49.1 218.69999999999996 51.300000000000004 219.49999999999997 52.4 C 219.89999999999998 51.6 219.19999999999996 50.3 219.79999999999998 49.5 C 220.39999999999998 50.2 220.6 51.3 220.79999999999998 52.4 C 221.1 52.199999999999996 220.89999999999998 51.4 221.1 51.1 C 222.1 52.800000000000004 222.29999999999998 56.2 223.2 56.4 C 224 56.6 223.5 54.699999999999996 224 54.8 C 224.5 54.9 223.8 58.4 224.8 58.599999999999994 C 227 58.89999999999999 228.10000000000002 48.49999999999999 227.5 43.699999999999996 C 226.9 44.8 226.5 45.699999999999996 226.5 47.099999999999994 C 225.3 45.89999999999999 226.4 43.89999999999999 226.1 41.99999999999999 C 225.1 42.99999999999999 224.79999999999998 44.79999999999999 224.5 46.49999999999999 C 224 46.099999999999994 224.2 43.89999999999999 224 43.099999999999994 C 223.8 42.39999999999999 224.1 44.099999999999994 223.6 43.89999999999999 C 222.9 43.3 223.3 42.3 223.1 41.7 M 215.7 48.7 C 215.2 47.800000000000004 214.1 47.300000000000004 213.6 46.900000000000006 C 213.79999999999998 47.7 214.1 48.900000000000006 213.79999999999998 49.60000000000001 C 213.1 49.400000000000006 212.6 48.50000000000001 212.2 47.900000000000006 C 212.29999999999998 49.800000000000004 212.89999999999998 51.2 213.29999999999998 52.7 C 212.49999999999997 52.5 212.2 52 211.7 51.400000000000006 C 211.79999999999998 52.10000000000001 212.39999999999998 53.400000000000006 212 54.300000000000004 C 211.6 54.1 211.1 53.50000000000001 210.8 53.00000000000001 C 210.70000000000002 54.50000000000001 210.9 56.00000000000001 211.10000000000002 57.70000000000001 C 210.50000000000003 57.90000000000001 209.60000000000002 56.50000000000001 209.3 55.80000000000001 C 209.3 56.40000000000001 209.8 57.20000000000001 209.9 57.90000000000001 C 209.70000000000002 58.500000000000014 209.6 57.90000000000001 209.1 57.90000000000001 C 209.2 58.500000000000014 209.79999999999998 58.500000000000014 210.4 58.500000000000014 C 210.70000000000002 58.80000000000001 210.3 58.80000000000001 210.4 59.30000000000001 C 210.9 59.30000000000001 211.1 59.60000000000001 211.5 59.60000000000001 C 211.4 59.900000000000006 211.2 60.20000000000001 210.7 60.20000000000001 C 211.29999999999998 60.50000000000001 212.2 60.60000000000001 212.79999999999998 61.00000000000001 C 212.7 61.20000000000001 212.39999999999998 61.300000000000004 211.99999999999997 61.300000000000004 C 212.19999999999996 61.800000000000004 213.09999999999997 62.2 213.59999999999997 61.900000000000006 C 213.89999999999998 62.50000000000001 212.79999999999995 62.7 212.79999999999995 63.50000000000001 C 212.89999999999995 63.400000000000006 213.09999999999997 63.300000000000004 213.29999999999995 63.300000000000004 C 213.09999999999997 64.10000000000001 212.59999999999997 64.60000000000001 211.99999999999994 65.10000000000001 C 212.39999999999995 65.50000000000001 212.79999999999995 64.7 213.29999999999995 64.60000000000001 C 213.59999999999997 64.9 212.99999999999994 65.60000000000001 212.79999999999995 65.9 C 212.89999999999995 66.4 213.19999999999996 65.7 213.59999999999997 65.9 C 213.09999999999997 67.60000000000001 211.29999999999995 67.60000000000001 209.79999999999995 68.60000000000001 C 208.19999999999996 69.7 208.79999999999995 70.00000000000001 209.59999999999997 69.9 C 210.39999999999998 69.80000000000001 210.59999999999997 69.30000000000001 211.19999999999996 69.30000000000001 C 211.59999999999997 69.60000000000001 210.89999999999995 70.10000000000001 210.69999999999996 70.4 C 211.39999999999995 70.80000000000001 212.09999999999997 69.9 212.59999999999997 69.60000000000001 C 212.99999999999997 69.80000000000001 212.59999999999997 70.4 212.59999999999997 70.7 C 213.19999999999996 70.4 213.49999999999997 69.7 213.99999999999997 69.4 C 214.29999999999998 70 213.69999999999996 71.10000000000001 213.39999999999998 71.60000000000001 C 214.09999999999997 72.00000000000001 215.2 71.4 215.99999999999997 71.4 C 216.49999999999997 71.5 215.59999999999997 71.60000000000001 215.79999999999998 72 C 216.2 71.7 217.1 71.9 217.7 71.8 C 217.79999999999998 72.3 217.2 72.1 216.89999999999998 72.3 C 220.09999999999997 73.2 227.29999999999998 71.5 227.29999999999998 68.89999999999999 C 227.29999999999998 67.89999999999999 224.79999999999998 68.1 225.49999999999997 67.6 C 226.29999999999998 67.1 226.89999999999998 67.3 227.09999999999997 66.6 C 227.29999999999995 66 224.59999999999997 66.19999999999999 223.79999999999995 65.6 C 223.79999999999995 65 226.19999999999996 65 225.39999999999995 64.5 C 218.7 60.2 216.5 50.1 215.7 48.7 M 210.8 57.1 C 210.5 55 210.3 53.300000000000004 210.60000000000002 51.5 C 210.90000000000003 52.1 211.3 52.8 211.70000000000002 53.4 C 211.50000000000003 51.4 211.10000000000002 51.1 211.10000000000002 50 C 211.60000000000002 50.7 212.20000000000002 51.6 212.8 52 C 212.4 50.6 211.8 48.8 211.9 46.9 C 212.6 47.4 212.9 48.199999999999996 213.5 48.8 C 213.5 48 213.2 46.699999999999996 212.9 45.9 C 213.4 46 214.1 47.199999999999996 215.1 47.199999999999996 C 214.5 45.99999999999999 213.2 43.49999999999999 211 41.699999999999996 C 208.9 39.99999999999999 207.3 39.49999999999999 205.8 37.699999999999996 C 205.8 38.3 206.3 38.99999999999999 206.3 39.699999999999996 C 206 40.199999999999996 205.4 38.99999999999999 205.20000000000002 39.49999999999999 C 205.8 40.89999999999999 205.9 41.89999999999999 205.8 43.29999999999999 C 204.5 42.89999999999999 203.60000000000002 41.89999999999999 203.10000000000002 40.69999999999999 C 202.70000000000002 42.39999999999999 203.70000000000002 43.59999999999999 203.90000000000003 44.89999999999999 C 203.60000000000002 45.19999999999999 202.80000000000004 44.39999999999999 202.70000000000005 43.99999999999999 C 202.30000000000004 44.99999999999999 203.80000000000004 45.699999999999996 203.90000000000003 46.79999999999999 C 202.70000000000005 46.49999999999999 202.10000000000002 45.89999999999999 201.30000000000004 45.09999999999999 C 200.70000000000005 48.29999999999999 203.60000000000005 48.999999999999986 204.20000000000005 51.59999999999999 C 202.80000000000004 51.09999999999999 202.20000000000005 49.69999999999999 201.20000000000005 48.69999999999999 C 200.80000000000004 50.59999999999999 202.60000000000005 51.59999999999999 203.10000000000005 52.999999999999986 C 202.10000000000005 52.899999999999984 201.80000000000004 51.899999999999984 200.90000000000006 51.69999999999999 C 200.90000000000006 52.79999999999999 201.10000000000005 53.59999999999999 201.90000000000006 54.09999999999999 C 202.70000000000007 54.59999999999999 203.60000000000005 54.09999999999999 204.10000000000005 53.79999999999999 C 204.40000000000006 53.79999999999999 204.00000000000006 54.59999999999999 203.60000000000005 54.39999999999999 C 204.50000000000006 55.599999999999994 206.00000000000006 54.99999999999999 207.40000000000006 54.599999999999994 C 207.20000000000007 54.99999999999999 207.10000000000005 55.599999999999994 206.50000000000006 55.699999999999996 C 206.80000000000007 56.099999999999994 207.60000000000005 55.599999999999994 207.90000000000006 56.099999999999994 C 207.50000000000006 56.3 206.90000000000006 56.39999999999999 206.30000000000007 56.39999999999999 C 207.10000000000008 56.99999999999999 208.30000000000007 57.099999999999994 209.30000000000007 57.39999999999999 C 209.20000000000007 56.49999999999999 208.70000000000007 55.89999999999999 208.80000000000007 54.79999999999999 C 209.8 55.3 210 56.7 210.8 57.1 M 198 34.2 C 197.4 33 195.9 31.000000000000004 197 29.6 C 200.2 30.1 200.5 33.5 202.4 35.4 C 201.9 34.4 201.9 33 201.9 31.599999999999998 C 204.3 32.3 204.6 35.4 205.9 37.199999999999996 C 207.20000000000002 38.9 209.5 40.199999999999996 211.4 41.3 C 213.3 42.4 214.9 44.199999999999996 215.9 46.3 C 216.3 43.4 217.9 40.699999999999996 217.4 37.099999999999994 C 218.20000000000002 37.099999999999994 218 38.199999999999996 218.70000000000002 38.49999999999999 C 218.70000000000002 36.99999999999999 218.70000000000002 35.39999999999999 219.70000000000002 34.99999999999999 C 219.9 35.89999999999999 220.3 37.29999999999999 220.9 37.699999999999996 C 220.9 35.8 221.1 32.9 222.8 31.899999999999995 C 222.70000000000002 33.099999999999994 223 34.699999999999996 223.4 36.099999999999994 C 223.6 34.49999999999999 223.70000000000002 30.899999999999995 225.3 30.999999999999993 C 227.5 31.099999999999994 225.20000000000002 35.29999999999999 225.9 37.099999999999994 C 226.20000000000002 35.599999999999994 226.5 33.099999999999994 228.6 33.3 C 226.5 38.4 228.5 41.9 228.2 48.8 C 227.89999999999998 55.699999999999996 225.5 60.099999999999994 227.39999999999998 65 C 232.2 64.5 238.59999999999997 64.9 239.99999999999997 62.6 C 240.19999999999996 62.1 239.49999999999997 62.5 239.69999999999996 62 C 240.99999999999997 60.6 242.99999999999997 60.8 245.29999999999995 60.9 C 249.09999999999997 61.1 253.09999999999997 59.6 256.19999999999993 60.3 C 246.99999999999994 61.699999999999996 237.29999999999993 66.3 226.89999999999992 72.2 C 225.0999999999999 73.10000000000001 216.69999999999993 76.3 210.69999999999993 76.2 C 209.59999999999994 76.3 208.49999999999994 76.3 207.79999999999993 76.4 C 204.39999999999992 76.60000000000001 203.39999999999992 77.60000000000001 200.79999999999993 78.80000000000001 C 195.49999999999991 81.60000000000001 188.29999999999993 84.60000000000001 183.29999999999993 83.30000000000001 C 183.89999999999992 82.20000000000002 186.29999999999993 82.80000000000001 187.59999999999994 82.4 C 187.39999999999995 81.9 186.89999999999995 81.7 186.69999999999993 81.2 C 185.39999999999992 81.3 183.49999999999994 81.9 182.89999999999992 80.60000000000001 C 184.19999999999993 80.2 186.0999999999999 80.30000000000001 187.39999999999992 80.00000000000001 C 187.19999999999993 79.70000000000002 186.39999999999992 79.30000000000001 186.5999999999999 78.60000000000001 C 189.7999999999999 80.60000000000001 197.49999999999991 77.2 201.1999999999999 75.4 C 202.2999999999999 74.9 203.6999999999999 74.10000000000001 203.7999999999999 73.2 C 203.7999999999999 73.4 203.7999999999999 72.60000000000001 203.2999999999999 72.60000000000001 C 203.0999999999999 72.80000000000001 203.0999999999999 73.2 202.7999999999999 73.2 C 202.2999999999999 71 203.9999999999999 69.10000000000001 203.8999999999999 67.3 C 203.8999999999999 65.5 201.09999999999988 62.699999999999996 200.9999999999999 59.3 C 200.8999999999999 57.4 201.2999999999999 56.199999999999996 200.4999999999999 55 C 199.69999999999987 53.8 197.7999999999999 53.5 197.7999999999999 51.8 C 197.7999999999999 51.3 198.6999999999999 51.699999999999996 198.8999999999999 51.3 C 197.6999999999999 49.8 195.9999999999999 49 195.6999999999999 46.699999999999996 C 196.2999999999999 46.8 196.5999999999999 47.199999999999996 197.0999999999999 47.3 C 196.39999999999992 46.4 195.5999999999999 45.599999999999994 195.2999999999999 44.3 C 195.1999999999999 43.9 196.4999999999999 44.599999999999994 196.3999999999999 44.199999999999996 C 196.1999999999999 43.3 194.8999999999999 42.199999999999996 195.4999999999999 41.099999999999994 C 195.7999999999999 40.99999999999999 196.3999999999999 41.3 196.4999999999999 40.89999999999999 C 195.8999999999999 40.39999999999999 194.9999999999999 38.69999999999999 195.69999999999987 37.89999999999999 C 196.39999999999986 38.29999999999999 196.89999999999986 38.89999999999999 197.79999999999987 39.19999999999999 C 197.09999999999988 37.79999999999999 195.59999999999988 36.09999999999999 196.39999999999986 34.19999999999999 C 197.3 33.6 198.3 34.9 198 34.2" stroke-linecap="round" />
</g>
<g transform="matrix(1 0 0 1 95.79 20.23)" id="9hpa2BAc8GRgoI3yyUbWF"  >
<path style="stroke: none; stroke-width: 1; stroke-dasharray: none; stroke-linecap: butt; stroke-dashoffset: 0; stroke-linejoin: miter; stroke-miterlimit: 4; fill: rgb(255,255,255); fill-rule: nonzero; opacity: 1;" vector-effect="non-scaling-stroke"  transform=" translate(-147.13, -49.5)" d="M 152.2 50.7 C 152.2 46.300000000000004 152.29999999999998 40.900000000000006 152.29999999999998 35.6 C 154.7 35.6 159.29999999999998 35.6 159.29999999999998 35.6 C 159.29999999999998 44.7 159.29999999999998 63.400000000000006 159.29999999999998 63.400000000000006 L 152.2 63.400000000000006 L 142.29999999999998 46.300000000000004 L 142.29999999999998 63.400000000000006 C 142.29999999999998 63.400000000000006 136.29999999999998 63.400000000000006 134.99999999999997 63.400000000000006 C 134.89999999999998 63.400000000000006 134.99999999999997 35.60000000000001 134.99999999999997 35.60000000000001 C 134.99999999999997 35.60000000000001 140.09999999999997 35.60000000000001 142.79999999999998 35.60000000000001 C 146.1 40.50000000000001 149.2 45.900000000000006 152.7 50.70000000000001" stroke-linecap="round" />
</g>
<g transform="matrix(1 0 0 1 68.26 20.2)" id="gTNnogs8QijDJCS63ZDVh"  >
<path style="stroke: none; stroke-width: 1; stroke-dasharray: none; stroke-linecap: butt; stroke-dashoffset: 0; stroke-linejoin: miter; stroke-miterlimit: 4; fill: rgb(255,255,255); fill-rule: nonzero; opacity: 1;" vector-effect="non-scaling-stroke"  transform=" translate(-119.6, -49.47)" d="M 118.8 44 C 118.1 46.7 117.1 49.4 116.5 51.7 L 120.7 51.7 C 120.2 49 119.5 46.5 118.8 44 M 122.5 57.8 L 115 57.8 C 114.3 59.699999999999996 113.7 61.5 113 63.3 C 111.3 63.3 108.4 63.3 106.2 63.3 C 108.9 53.8 111.7 44.5 115 35.599999999999994 L 124 35.599999999999994 C 127 44.8 130.2 53.89999999999999 133 63.3 C 129.9 63.3 126.8 63.4 124.1 63.3 C 123.6 61.5 122.9 59.6 122.5 57.8" stroke-linecap="round" />
</g>
<g transform="matrix(1 0 0 1 41.16 19.92)" id="OdPwW6jWiMojo-0QUTYa1"  >
<path style="stroke: none; stroke-width: 1; stroke-dasharray: none; stroke-linecap: butt; stroke-dashoffset: 0; stroke-linejoin: miter; stroke-miterlimit: 4; fill: rgb(255,255,255); fill-rule: nonzero; opacity: 1;" vector-effect="non-scaling-stroke"  transform=" translate(-92.5, -49.19)" d="M 88.6 46.7 C 92.3 46.800000000000004 96 47 95.89999999999999 44 C 95.8 41.1 92.19999999999999 41.4 88.6 41.5 L 88.6 46.7 z M 95.4 63.3 C 94.10000000000001 59.699999999999996 92.7 56.199999999999996 91.4 52.699999999999996 L 88.7 52.699999999999996 L 88.7 63.3 L 79.9 63.3 L 79.9 35.699999999999996 C 79.9 35.699999999999996 100.60000000000001 32.8 104.10000000000001 39.599999999999994 C 106.4 43.49999999999999 104.50000000000001 50.3 100.00000000000001 51.199999999999996 C 101.90000000000002 55.099999999999994 103.60000000000001 58.99999999999999 105.10000000000001 63.3 L 95.4 63.3 z" stroke-linecap="round" />
</g>
<g transform="matrix(1 0 0 1 13.07 20.27)" id="wtEWtuvCHDY2riyex11sQ"  >
<path style="stroke: none; stroke-width: 1; stroke-dasharray: none; stroke-linecap: butt; stroke-dashoffset: 0; stroke-linejoin: miter; stroke-miterlimit: 4; fill: rgb(255,255,255); fill-rule: nonzero; opacity: 1;" vector-effect="non-scaling-stroke"  transform=" translate(-64.41, -49.54)" d="M 65.1 63.8 C 55.49999999999999 64 51.39999999999999 56.4 52.099999999999994 47.699999999999996 C 52.599999999999994 40.99999999999999 56.599999999999994 35.699999999999996 63.89999999999999 35.3 C 71.39999999999999 34.9 75.99999999999999 38.599999999999994 76.8 46.4 C 73.89999999999999 46.6 71.6 46.699999999999996 68.7 46.699999999999996 C 68.60000000000001 43.699999999999996 67.60000000000001 40.9 64.3 41.49999999999999 C 60.3 42.199999999999996 59.099999999999994 54.599999999999994 63.099999999999994 56.99999999999999 C 65.69999999999999 58.599999999999994 68.89999999999999 56.599999999999994 68.8 52.79999999999999 C 71.39999999999999 52.99999999999999 74.1 53.09999999999999 76.7 53.29999999999999 C 76.4 59.6 71.4 63.7 65.1 63.8" stroke-linecap="round" />
</g>
<g transform="matrix(1 0 0 1 121.41 20.18)" id="7lTV5XZhuxUvLco9HkqG_"  >
<path style="stroke: none; stroke-width: 1; stroke-dasharray: none; stroke-linecap: butt; stroke-dashoffset: 0; stroke-linejoin: miter; stroke-miterlimit: 4; fill: rgb(255,255,255); fill-rule: nonzero; opacity: 1;" vector-effect="non-scaling-stroke"  transform=" translate(-172.75, -49.45)" d="M 162.3 35.6 L 182.9 35.6 L 182.9 41.5 L 170 41.5 L 170 45.9 L 181.9 45.9 L 181.9 51.6 L 170 51.6 L 170 57 L 183.2 57 L 183.2 63.3 L 162.29999999999998 63.3 z" stroke-linecap="round" />
</g>
<g transform="matrix(1 0 0 1 67.06 43.93)" id="TDwhfzsF3FGPUNJZZ4MU1"  >
<path style="stroke: none; stroke-width: 1; stroke-dasharray: none; stroke-linecap: butt; stroke-dashoffset: 0; stroke-linejoin: miter; stroke-miterlimit: 4; fill: rgb(255,255,255); fill-rule: nonzero; opacity: 1;" vector-effect="non-scaling-stroke"  transform=" translate(-118.4, -73.2)" d="M 182.6 69.5 C 182.6 69.1 181.79999999999998 69 180.79999999999998 69 C 178.99999999999997 69 178.1 69.9 178.1 71.2 C 178.1 73.9 182.2 73.60000000000001 182.2 75.60000000000001 C 182.2 76.30000000000001 181.7 77.00000000000001 180.6 77.00000000000001 C 179.79999999999998 77.00000000000001 179.1 76.60000000000001 178.79999999999998 76.20000000000002 C 178.29999999999998 75.60000000000002 178.49999999999997 75.00000000000001 178.2 75.00000000000001 C 177.89999999999998 75.00000000000001 177.89999999999998 76.10000000000001 177.89999999999998 76.70000000000002 C 177.89999999999998 77.30000000000001 179.2 77.50000000000001 180.29999999999998 77.50000000000001 C 182.79999999999998 77.50000000000001 183.2 75.90000000000002 183.2 75.00000000000001 C 183.2 72.20000000000002 179.1 72.40000000000002 179.1 70.90000000000002 C 179.1 70.30000000000003 179.4 69.50000000000001 180.6 69.50000000000001 C 182.2 69.50000000000001 182.1 71.10000000000001 182.5 71.10000000000001 C 182.6 71.10000000000001 182.7 71.00000000000001 182.7 70.9 L 182.7 69.5 z M 176.2 74.6 C 176.2 74 176.29999999999998 73.89999999999999 176.7 73.8 C 177.2 73.7 177.29999999999998 73.7 177.29999999999998 73.5 C 177.29999999999998 73.3 177.1 73.3 176.89999999999998 73.3 C 176.7 73.3 176.2 73.39999999999999 175.7 73.39999999999999 L 173.6 73.39999999999999 C 173.29999999999998 73.39999999999999 173.29999999999998 73.39999999999999 173.29999999999998 73.6 C 173.29999999999998 73.8 173.29999999999998 73.8 174.2 73.8 C 174.79999999999998 73.8 174.89999999999998 74 174.89999999999998 74.7 C 174.89999999999998 76.8 174.59999999999997 76.9 173.09999999999997 76.9 C 171.89999999999998 76.9 170.09999999999997 75.60000000000001 170.09999999999997 73.30000000000001 C 170.09999999999997 71.00000000000001 171.39999999999998 69.30000000000001 173.29999999999995 69.30000000000001 C 174.39999999999995 69.30000000000001 175.09999999999997 69.80000000000001 175.49999999999994 70.60000000000001 C 175.69999999999993 71.00000000000001 175.69999999999993 71.00000000000001 175.79999999999995 71.00000000000001 C 175.89999999999995 71.00000000000001 175.99999999999994 71.00000000000001 175.99999999999994 70.90000000000002 C 175.99999999999994 70.50000000000001 175.89999999999995 70.10000000000002 175.89999999999995 69.70000000000002 C 175.89999999999995 69.20000000000002 174.29999999999995 69.00000000000001 173.19999999999996 69.00000000000001 C 170.59999999999997 69.00000000000001 168.39999999999995 70.50000000000001 168.39999999999995 73.40000000000002 C 168.39999999999995 76.40000000000002 170.79999999999995 77.50000000000001 172.99999999999994 77.50000000000001 C 174.49999999999994 77.50000000000001 176.29999999999995 76.90000000000002 176.29999999999995 76.60000000000001 L 176.2 74.6 z M 159.4 73.1 C 159.4 73.3 159.3 75.19999999999999 159.3 76 C 159.3 76.7 159.10000000000002 76.8 158.60000000000002 76.8 C 158.20000000000002 76.8 158.10000000000002 76.89999999999999 158.10000000000002 77.1 C 158.10000000000002 77.3 158.3 77.3 158.50000000000003 77.3 C 158.90000000000003 77.3 159.20000000000002 77.2 159.80000000000004 77.2 C 160.30000000000004 77.2 160.70000000000005 77.3 161.20000000000005 77.3 C 161.40000000000003 77.3 161.60000000000005 77.3 161.60000000000005 77.1 C 161.60000000000005 77 161.50000000000006 76.89999999999999 161.10000000000005 76.89999999999999 C 160.30000000000004 76.69999999999999 160.10000000000005 76.49999999999999 160.10000000000005 75.89999999999999 C 160.10000000000005 75.1 160.00000000000006 74.3 160.00000000000006 73.19999999999999 L 160.00000000000006 70.79999999999998 C 160.00000000000006 70.79999999999998 160.10000000000005 70.69999999999999 160.10000000000005 70.79999999999998 L 165.40000000000006 76.79999999999998 C 166.00000000000006 77.49999999999999 166.10000000000005 77.89999999999998 166.40000000000006 77.89999999999998 C 166.50000000000006 77.89999999999998 166.50000000000006 77.79999999999998 166.50000000000006 77.59999999999998 L 166.50000000000006 74.99999999999999 C 166.50000000000006 73.49999999999999 166.50000000000006 71.99999999999999 166.60000000000005 70.69999999999999 C 166.60000000000005 69.99999999999999 166.70000000000005 69.79999999999998 167.00000000000006 69.79999999999998 C 167.70000000000005 69.69999999999999 167.70000000000005 69.59999999999998 167.70000000000005 69.49999999999999 C 167.70000000000005 69.29999999999998 167.60000000000005 69.29999999999998 167.40000000000003 69.29999999999998 C 167.20000000000005 69.29999999999998 166.80000000000004 69.39999999999998 166.10000000000002 69.39999999999998 C 165.70000000000002 69.39999999999998 165.20000000000002 69.29999999999998 164.90000000000003 69.29999999999998 C 164.60000000000002 69.29999999999998 164.60000000000002 69.39999999999998 164.60000000000002 69.59999999999998 C 164.60000000000002 69.79999999999998 164.60000000000002 69.79999999999998 164.90000000000003 69.79999999999998 C 165.90000000000003 69.89999999999998 165.90000000000003 69.89999999999998 165.90000000000003 70.69999999999999 L 165.90000000000003 74.89999999999999 C 165.90000000000003 74.89999999999999 165.90000000000003 74.99999999999999 165.80000000000004 74.99999999999999 C 165.80000000000004 74.99999999999999 165.70000000000005 74.99999999999999 165.70000000000005 74.89999999999999 C 165.50000000000006 74.69999999999999 165.10000000000005 74.3 164.10000000000005 73.19999999999999 L 160.90000000000006 69.29999999999998 C 160.40000000000006 69.29999999999998 160.10000000000005 69.39999999999998 158.30000000000007 69.39999999999998 C 158.10000000000008 69.39999999999998 158.10000000000008 69.49999999999997 158.10000000000008 69.59999999999998 C 158.10000000000008 69.79999999999998 158.10000000000008 69.79999999999998 158.30000000000007 69.79999999999998 C 159.20000000000007 69.89999999999998 159.40000000000006 69.99999999999999 159.40000000000006 70.59999999999998 L 159.40000000000006 73.1 z M 154.5 75.7 C 154.5 76.7 154.2 76.7 153.8 76.7 C 153.3 76.7 153.20000000000002 76.7 153.20000000000002 76.9 C 153.20000000000002 77.10000000000001 153.20000000000002 77.10000000000001 153.4 77.10000000000001 C 153.8 77.10000000000001 154.20000000000002 77.00000000000001 154.9 77.00000000000001 C 155.9 77.00000000000001 156.5 77.10000000000001 156.9 77.10000000000001 C 157.20000000000002 77.10000000000001 157.20000000000002 77.10000000000001 157.20000000000002 76.9 C 157.20000000000002 76.7 157.00000000000003 76.7 156.8 76.60000000000001 C 156.3 76.50000000000001 156.10000000000002 76.50000000000001 156.10000000000002 75.80000000000001 L 156.10000000000002 70.00000000000001 C 156.10000000000002 69.50000000000001 156.20000000000002 69.40000000000002 156.8 69.40000000000002 C 157.10000000000002 69.40000000000002 157.20000000000002 69.30000000000003 157.20000000000002 69.20000000000002 C 157.20000000000002 69.10000000000002 157.10000000000002 69.00000000000001 156.8 69.00000000000001 C 156.4 69.00000000000001 156.20000000000002 69.10000000000001 155.20000000000002 69.10000000000001 C 154.60000000000002 69.10000000000001 154.20000000000002 69.00000000000001 153.9 69.00000000000001 C 153.6 69.00000000000001 153.5 69.10000000000001 153.5 69.20000000000002 C 153.5 69.40000000000002 153.6 69.40000000000002 153.9 69.40000000000002 C 154.4 69.40000000000002 154.5 69.60000000000002 154.5 70.10000000000002 L 154.5 75.7 z M 146.1 69.9 C 146.1 69.4 146.4 69.30000000000001 147 69.30000000000001 C 149.6 69.30000000000001 151 71.30000000000001 151 73.20000000000002 C 151 74.70000000000002 150 76.70000000000002 147.5 76.70000000000002 C 146.6 76.70000000000002 146.1 76.30000000000001 146.1 75.40000000000002 L 146.1 69.9 z M 144.5 75.4 C 144.5 76.60000000000001 144.4 76.7 143.6 76.9 C 143.5 76.9 143.4 77 143.4 77.10000000000001 C 143.4 77.30000000000001 143.5 77.30000000000001 143.70000000000002 77.30000000000001 C 144.00000000000003 77.30000000000001 144.20000000000002 77.20000000000002 144.50000000000003 77.20000000000002 L 146.40000000000003 77.20000000000002 C 146.70000000000005 77.20000000000002 147.00000000000003 77.30000000000001 148.10000000000002 77.30000000000001 C 150.3 77.30000000000001 152.50000000000003 75.80000000000001 152.50000000000003 73.30000000000001 C 152.50000000000003 71.30000000000001 151.10000000000002 69.00000000000001 147.10000000000002 69.00000000000001 C 145.10000000000002 69.00000000000001 143.40000000000003 69.10000000000001 143.20000000000002 69.20000000000002 C 143.10000000000002 69.20000000000002 143.00000000000003 69.40000000000002 143.00000000000003 69.50000000000001 C 143.00000000000003 69.60000000000001 143.10000000000002 69.60000000000001 143.20000000000002 69.60000000000001 C 143.3 69.60000000000001 143.50000000000003 69.60000000000001 143.70000000000002 69.60000000000001 C 144.20000000000002 69.60000000000001 144.3 69.60000000000001 144.3 70.9 L 144.3 75.4 z M 137 75.1 C 137 76.5 137 76.6 136.6 76.69999999999999 C 136.2 76.79999999999998 135.79999999999998 76.79999999999998 135.79999999999998 76.99999999999999 C 135.79999999999998 77.19999999999999 135.89999999999998 77.19999999999999 136.29999999999998 77.19999999999999 C 136.99999999999997 77.19999999999999 137.89999999999998 77.1 138.49999999999997 77.1 C 139.39999999999998 77.1 141.19999999999996 77.19999999999999 142.29999999999998 77.19999999999999 C 142.49999999999997 77.19999999999999 142.79999999999998 75.99999999999999 142.79999999999998 75.49999999999999 C 142.79999999999998 75.29999999999998 142.7 75.19999999999999 142.6 75.19999999999999 C 142.29999999999998 75.19999999999999 142 76.6 140 76.6 L 139.1 76.6 C 138.79999999999998 76.6 138.7 76.5 138.7 75.89999999999999 L 138.7 69.99999999999999 C 138.7 69.69999999999999 139.1 69.59999999999998 139.7 69.49999999999999 C 139.89999999999998 69.49999999999999 140 69.39999999999999 140 69.29999999999998 C 140 69.09999999999998 139.9 69.09999999999998 139.6 69.09999999999998 C 139 69.09999999999998 138.4 69.19999999999997 137.9 69.19999999999997 C 137.3 69.19999999999997 136.70000000000002 69.09999999999998 136.20000000000002 69.09999999999998 C 136.00000000000003 69.09999999999998 136.00000000000003 69.19999999999997 136.00000000000003 69.29999999999998 C 136.00000000000003 69.39999999999998 136.10000000000002 69.59999999999998 136.50000000000003 69.59999999999998 C 137.00000000000003 69.59999999999998 137.20000000000002 69.99999999999999 137.20000000000002 70.09999999999998 L 137.20000000000002 75.1 z M 132.1 75.7 C 132.1 76.7 131.79999999999998 76.7 131.4 76.7 C 130.9 76.7 130.8 76.7 130.8 76.9 C 130.8 77.10000000000001 130.8 77.10000000000001 131 77.10000000000001 C 131.4 77.10000000000001 131.8 77.00000000000001 132.5 77.00000000000001 C 133.5 77.00000000000001 134.1 77.10000000000001 134.5 77.10000000000001 C 134.8 77.10000000000001 134.8 77.10000000000001 134.8 76.9 C 134.8 76.7 134.60000000000002 76.7 134.4 76.60000000000001 C 133.9 76.50000000000001 133.70000000000002 76.50000000000001 133.70000000000002 75.80000000000001 L 133.70000000000002 70.00000000000001 C 133.70000000000002 69.50000000000001 133.8 69.40000000000002 134.4 69.40000000000002 C 134.70000000000002 69.40000000000002 134.8 69.30000000000003 134.8 69.20000000000002 C 134.8 69.10000000000002 134.70000000000002 69.00000000000001 134.4 69.00000000000001 C 134 69.00000000000001 133.8 69.10000000000001 132.8 69.10000000000001 C 132.20000000000002 69.10000000000001 131.8 69.00000000000001 131.5 69.00000000000001 C 131.2 69.00000000000001 131.1 69.10000000000001 131.1 69.20000000000002 C 131.1 69.40000000000002 131.2 69.40000000000002 131.5 69.40000000000002 C 132 69.40000000000002 132.1 69.60000000000002 132.1 70.10000000000002 L 132.1 75.7 z M 121.8 75 C 121.8 77.2 124.39999999999999 77.5 125.39999999999999 77.5 C 127.6 77.5 129 76.7 129 74.8 L 129 70.6 C 129 70 128.9 69.89999999999999 129.5 69.69999999999999 C 129.9 69.6 129.9 69.6 129.9 69.39999999999999 C 129.9 69.3 129.9 69.3 129.8 69.3 L 127.80000000000001 69.3 C 127.60000000000001 69.3 127.4 69.2 127.20000000000002 69.2 C 127.00000000000001 69.2 127.00000000000001 69.3 127.00000000000001 69.4 C 127.00000000000001 69.5 127.10000000000001 69.5 127.50000000000001 69.60000000000001 C 128.20000000000002 69.80000000000001 128.20000000000002 70.10000000000001 128.20000000000002 70.60000000000001 L 128.10000000000002 75.00000000000001 C 128.10000000000002 76.50000000000001 127.00000000000003 76.90000000000002 125.70000000000002 76.90000000000002 C 124.20000000000002 76.90000000000002 123.30000000000001 76.50000000000001 123.40000000000002 74.30000000000003 L 123.50000000000001 70.80000000000003 C 123.50000000000001 69.70000000000003 123.60000000000001 69.60000000000002 124.20000000000002 69.60000000000002 C 124.60000000000002 69.60000000000002 124.60000000000002 69.50000000000003 124.60000000000002 69.40000000000002 C 124.60000000000002 69.20000000000002 124.60000000000002 69.20000000000002 124.30000000000003 69.20000000000002 L 121.10000000000002 69.20000000000002 C 120.90000000000002 69.20000000000002 120.60000000000002 69.20000000000002 120.60000000000002 69.50000000000001 C 120.60000000000002 69.70000000000002 120.60000000000002 69.70000000000002 121.40000000000002 69.70000000000002 C 121.80000000000003 69.70000000000002 121.80000000000003 69.90000000000002 121.80000000000003 70.30000000000001 L 121.8 75 z M 114.9 70.2 C 114.9 69.60000000000001 115.10000000000001 69.4 115.7 69.4 C 116.8 69.4 118 69.60000000000001 118 70.9 C 118 71.80000000000001 117.6 72.60000000000001 115.9 72.60000000000001 C 115 72.60000000000001 115 72.50000000000001 115 72.30000000000001 L 115 70.2 z M 114.9 73.3 C 114.9 73.1 115 73 115.5 73 C 116.8 73 118.2 73.3 118.2 74.9 C 118.2 76.10000000000001 117.7 76.80000000000001 116.10000000000001 76.80000000000001 C 115.10000000000001 76.80000000000001 114.80000000000001 76.50000000000001 114.80000000000001 76.00000000000001 L 114.80000000000001 73.3 z M 114.6 69 C 113 69 112.19999999999999 69 112.19999999999999 69.4 C 112.19999999999999 69.60000000000001 112.29999999999998 69.60000000000001 112.69999999999999 69.60000000000001 C 113.29999999999998 69.60000000000001 113.29999999999998 69.7 113.29999999999998 70.10000000000001 L 113.29999999999998 76.00000000000001 C 113.29999999999998 76.70000000000002 113.29999999999998 76.80000000000001 112.59999999999998 76.80000000000001 C 112.29999999999998 76.80000000000001 112.19999999999997 76.9 112.19999999999997 77.10000000000001 C 112.19999999999997 77.2 112.19999999999997 77.30000000000001 112.39999999999998 77.30000000000001 C 112.69999999999997 77.30000000000001 113.09999999999998 77.20000000000002 113.69999999999997 77.20000000000002 L 115.99999999999997 77.20000000000002 C 118.79999999999997 77.20000000000002 119.79999999999997 76.30000000000001 119.79999999999997 74.80000000000001 C 119.79999999999997 73.00000000000001 118.09999999999997 72.70000000000002 118.09999999999997 72.60000000000001 C 118.09999999999997 72.4 119.39999999999996 72.2 119.39999999999996 70.9 C 119.39999999999996 69.4 117.99999999999996 68.9 116.69999999999996 68.9 L 114.6 68.9 z M 99.8 73.1 C 99.8 73.3 99.7 75.19999999999999 99.7 76 C 99.7 76.7 99.5 76.8 99 76.8 C 98.6 76.8 98.5 76.89999999999999 98.5 77.1 C 98.5 77.3 98.7 77.3 98.9 77.3 C 99.30000000000001 77.3 99.60000000000001 77.2 100.2 77.2 C 100.7 77.2 101.10000000000001 77.3 101.60000000000001 77.3 C 101.80000000000001 77.3 102.00000000000001 77.3 102.00000000000001 77.1 C 102.00000000000001 77 101.90000000000002 76.89999999999999 101.50000000000001 76.89999999999999 C 100.70000000000002 76.69999999999999 100.50000000000001 76.49999999999999 100.50000000000001 75.89999999999999 C 100.50000000000001 75.1 100.40000000000002 74.3 100.40000000000002 73.19999999999999 L 100.40000000000002 70.79999999999998 C 100.40000000000002 70.79999999999998 100.50000000000001 70.69999999999999 100.50000000000001 70.79999999999998 L 105.80000000000001 76.79999999999998 C 106.4 77.49999999999999 106.50000000000001 77.89999999999998 106.80000000000001 77.89999999999998 C 106.9 77.89999999999998 106.9 77.79999999999998 106.9 77.59999999999998 L 106.9 74.99999999999999 C 106.9 73.49999999999999 106.9 71.99999999999999 107 70.69999999999999 C 107 69.99999999999999 107.1 69.79999999999998 107.4 69.79999999999998 C 108.10000000000001 69.69999999999999 108.10000000000001 69.59999999999998 108.10000000000001 69.49999999999999 C 108.10000000000001 69.29999999999998 108.00000000000001 69.29999999999998 107.80000000000001 69.29999999999998 C 107.60000000000001 69.29999999999998 107.20000000000002 69.39999999999998 106.50000000000001 69.39999999999998 C 106.10000000000001 69.39999999999998 105.60000000000001 69.29999999999998 105.30000000000001 69.29999999999998 C 105.00000000000001 69.29999999999998 105.00000000000001 69.39999999999998 105.00000000000001 69.59999999999998 C 105.00000000000001 69.79999999999998 105.00000000000001 69.79999999999998 105.30000000000001 69.79999999999998 C 106.30000000000001 69.89999999999998 106.30000000000001 69.89999999999998 106.30000000000001 70.69999999999999 L 106.30000000000001 74.89999999999999 C 106.30000000000001 74.89999999999999 106.30000000000001 74.99999999999999 106.20000000000002 74.99999999999999 C 106.20000000000002 74.99999999999999 106.10000000000002 74.99999999999999 106.10000000000002 74.89999999999999 C 105.90000000000002 74.69999999999999 105.50000000000003 74.3 104.50000000000003 73.19999999999999 L 101.30000000000003 69.29999999999998 C 100.80000000000003 69.29999999999998 100.50000000000003 69.39999999999998 98.70000000000003 69.39999999999998 C 98.50000000000003 69.39999999999998 98.50000000000003 69.49999999999997 98.50000000000003 69.59999999999998 C 98.50000000000003 69.79999999999998 98.50000000000003 69.79999999999998 98.70000000000003 69.79999999999998 C 99.60000000000004 69.89999999999998 99.80000000000003 69.99999999999999 99.80000000000003 70.59999999999998 L 99.80000000000003 73.1 z M 92.4 75.3 C 92.4 76.6 92.30000000000001 76.7 91.4 76.8 C 91.30000000000001 76.8 91 76.8 91 77.1 C 91 77.3 91.1 77.3 91.3 77.3 C 91.39999999999999 77.3 91.6 77.2 92.2 77.2 L 95 77.2 C 95.5 77.2 96 77.3 97.1 77.3 C 97.19999999999999 77.3 97.3 76.8 97.3 76.5 C 97.39999999999999 76.2 97.5 75.7 97.5 75.5 C 97.5 75.4 97.5 75.3 97.3 75.3 C 97 75.3 97 76.1 96.1 76.6 C 95.8 76.69999999999999 95.69999999999999 76.8 95.1 76.8 C 94.5 76.8 93.89999999999999 76.7 93.89999999999999 76.2 L 93.89999999999999 73.7 C 93.89999999999999 73.4 93.99999999999999 73.3 94.39999999999999 73.3 C 95.6 73.3 95.8 73.6 95.89999999999999 74 C 95.99999999999999 74.6 96.1 74.7 96.19999999999999 74.7 C 96.29999999999998 74.7 96.39999999999999 74.60000000000001 96.39999999999999 74.5 C 96.39999999999999 74.4 96.3 74.2 96.3 73.6 C 96.3 73.1 96.39999999999999 72.39999999999999 96.39999999999999 72.1 C 96.39999999999999 72.1 96.39999999999999 71.69999999999999 96.19999999999999 71.69999999999999 C 95.99999999999999 71.69999999999999 95.89999999999999 72.1 95.69999999999999 72.39999999999999 C 95.49999999999999 72.69999999999999 95.39999999999999 72.8 94.6 72.8 C 93.8 72.8 93.8 72.7 93.8 72.39999999999999 L 93.8 70.39999999999999 C 93.8 69.69999999999999 93.8 69.6 94.39999999999999 69.6 C 95.49999999999999 69.6 96.19999999999999 69.8 96.49999999999999 70.19999999999999 C 97 70.7 97 71 97.2 71 C 97.4 71 97.4 70.7 97.4 70.2 C 97.4 69.10000000000001 97.4 69.10000000000001 97.10000000000001 69.10000000000001 C 96.00000000000001 69.10000000000001 95.10000000000001 69.2 94.2 69.2 C 92.60000000000001 69.2 92 69.10000000000001 91.5 69.10000000000001 C 91.3 69.10000000000001 91.2 69.10000000000001 91.2 69.30000000000001 C 91.2 69.4 91.3 69.50000000000001 91.9 69.60000000000001 C 92.30000000000001 69.60000000000001 92.30000000000001 70.10000000000001 92.30000000000001 70.4 L 92.30000000000001 75.3 z M 84.2 69.9 C 84.2 69.4 84.5 69.30000000000001 85.10000000000001 69.30000000000001 C 87.7 69.30000000000001 89.10000000000001 71.30000000000001 89.10000000000001 73.20000000000002 C 89.10000000000001 74.70000000000002 88.10000000000001 76.70000000000002 85.60000000000001 76.70000000000002 C 84.7 76.70000000000002 84.2 76.30000000000001 84.2 75.40000000000002 L 84.2 69.9 z M 82.6 75.4 C 82.6 76.60000000000001 82.5 76.7 81.69999999999999 76.9 C 81.6 76.9 81.49999999999999 77 81.49999999999999 77.10000000000001 C 81.49999999999999 77.30000000000001 81.59999999999998 77.30000000000001 81.79999999999998 77.30000000000001 C 82.09999999999998 77.30000000000001 82.29999999999998 77.20000000000002 82.59999999999998 77.20000000000002 L 84.49999999999999 77.20000000000002 C 84.79999999999998 77.20000000000002 85.09999999999998 77.30000000000001 86.19999999999999 77.30000000000001 C 88.39999999999999 77.30000000000001 90.6 75.80000000000001 90.6 73.30000000000001 C 90.6 71.30000000000001 89.19999999999999 69.00000000000001 85.19999999999999 69.00000000000001 C 83.19999999999999 69.00000000000001 81.49999999999999 69.10000000000001 81.29999999999998 69.20000000000002 C 81.19999999999999 69.20000000000002 81.09999999999998 69.40000000000002 81.09999999999998 69.50000000000001 C 81.09999999999998 69.60000000000001 81.19999999999997 69.60000000000001 81.29999999999998 69.60000000000001 C 81.39999999999998 69.60000000000001 81.59999999999998 69.60000000000001 81.79999999999998 69.60000000000001 C 82.29999999999998 69.60000000000001 82.39999999999998 69.60000000000001 82.39999999999998 70.9 L 82.39999999999998 75.4 z M 75 70.5 C 75 69.9 75.1 69.6 75.5 69.6 C 76.3 69.6 77.6 69.8 77.6 71.19999999999999 C 77.6 72.79999999999998 76.39999999999999 72.89999999999999 75.3 72.89999999999999 C 75.1 72.89999999999999 75.1 72.89999999999999 75.1 72.6 L 75.1 70.5 z M 73.5 73.2 C 73.5 75.4 73.4 75.9 73.4 76.10000000000001 C 73.4 76.7 72.80000000000001 76.7 72.5 76.7 C 72.2 76.7 72.1 76.8 72.1 77 C 72.1 77.1 72.1 77.2 72.39999999999999 77.2 L 74.19999999999999 77.2 C 75.39999999999999 77.2 75.6 77.3 76.1 77.3 C 76.19999999999999 77.3 76.3 77.3 76.3 77.1 C 76.3 76.89999999999999 76.2 76.89999999999999 75.39999999999999 76.8 C 75.1 76.8 74.99999999999999 76.5 74.99999999999999 75.89999999999999 L 74.99999999999999 74.39999999999999 C 74.99999999999999 73.39999999999999 75.09999999999998 73.3 75.39999999999999 73.3 C 75.89999999999999 73.3 76.19999999999999 73.5 77.39999999999999 75.89999999999999 C 77.49999999999999 76.1 77.69999999999999 76.6 77.99999999999999 76.99999999999999 C 78.09999999999998 77.09999999999998 78.19999999999999 77.09999999999998 78.19999999999999 77.09999999999998 L 80.49999999999999 77.09999999999998 C 80.59999999999998 77.09999999999998 80.59999999999998 77.09999999999998 80.59999999999998 76.99999999999999 C 80.59999999999998 76.89999999999999 80.49999999999999 76.89999999999999 79.99999999999999 76.79999999999998 C 79.69999999999999 76.69999999999999 79.39999999999999 76.49999999999999 79.19999999999999 76.19999999999999 L 77.6 73.39999999999999 C 77.5 73.3 77.5 73.19999999999999 77.5 73.1 C 77.5 72.8 79.1 72.8 79.1 71.1 C 79.1 69.69999999999999 77.69999999999999 69.19999999999999 76.6 69.19999999999999 C 76 69.19999999999999 74.8 69.29999999999998 74.6 69.29999999999998 C 74.39999999999999 69.29999999999998 73.1 69.19999999999999 72.5 69.19999999999999 C 72.3 69.19999999999999 72.2 69.19999999999999 72.2 69.39999999999999 C 72.2 69.6 72.2 69.6 73 69.6 C 73.2 69.6 73.5 69.8 73.5 70.19999999999999 L 73.5 73.2 z M 67.4 68.5 L 67.2 68.5 C 66.9 69.3 66.60000000000001 70.2 66.10000000000001 71.3 L 63.900000000000006 76.1 C 63.800000000000004 76.3 63.60000000000001 76.6 63.300000000000004 76.69999999999999 C 63.00000000000001 76.89999999999999 62.6 76.79999999999998 62.6 77.1 C 62.6 77.19999999999999 62.7 77.19999999999999 62.800000000000004 77.19999999999999 C 63.400000000000006 77.19999999999999 63.800000000000004 77.1 64.30000000000001 77.1 C 64.80000000000001 77.1 65.00000000000001 77.19999999999999 65.20000000000002 77.19999999999999 C 65.50000000000001 77.19999999999999 65.60000000000002 77.1 65.60000000000002 76.99999999999999 C 65.60000000000002 76.79999999999998 65.30000000000003 76.79999999999998 65.20000000000002 76.79999999999998 C 64.90000000000002 76.79999999999998 64.60000000000002 76.69999999999999 64.60000000000002 76.39999999999998 C 64.60000000000002 76.09999999999998 65.00000000000003 75.29999999999998 65.20000000000002 74.79999999999998 C 65.40000000000002 74.29999999999998 65.50000000000001 74.09999999999998 65.90000000000002 74.09999999999998 C 66.80000000000003 74.09999999999998 67.20000000000002 74.19999999999997 67.60000000000002 74.19999999999997 C 67.90000000000002 74.19999999999997 67.90000000000002 74.19999999999997 68.00000000000003 74.29999999999997 L 68.50000000000003 75.99999999999997 C 68.60000000000002 76.19999999999997 68.60000000000002 76.29999999999997 68.60000000000002 76.49999999999997 C 68.60000000000002 76.69999999999997 68.40000000000002 76.79999999999997 68.00000000000003 76.79999999999997 C 67.80000000000003 76.79999999999997 67.70000000000003 76.89999999999996 67.70000000000003 76.99999999999997 C 67.70000000000003 77.19999999999997 67.80000000000003 77.19999999999997 67.90000000000003 77.19999999999997 L 69.50000000000003 77.19999999999997 C 70.40000000000003 77.19999999999997 70.70000000000003 77.29999999999997 71.20000000000003 77.29999999999997 C 71.50000000000003 77.29999999999997 71.50000000000003 77.29999999999997 71.50000000000003 77.19999999999997 C 71.50000000000003 77.09999999999998 71.20000000000003 77.09999999999998 70.80000000000003 76.79999999999997 C 70.40000000000002 76.49999999999997 70.30000000000003 76.39999999999996 69.90000000000002 75.39999999999996 L 67.4 68.5 z M 67.5 73.2 C 67.5 73.2 67.5 73.3 67.5 73.3 C 67.5 73.39999999999999 67.1 73.39999999999999 66.6 73.39999999999999 C 66.19999999999999 73.39999999999999 65.69999999999999 73.39999999999999 65.69999999999999 73.3 C 65.69999999999999 73.2 65.79999999999998 73.1 65.79999999999998 72.89999999999999 L 66.49999999999999 71.3 C 66.49999999999999 71.2 66.59999999999998 71.1 66.69999999999999 71.1 C 66.69999999999999 71.1 66.79999999999998 71.1 66.79999999999998 71.19999999999999 L 67.5 73.2 z M 61.4 74.6 C 61.4 74 61.5 73.89999999999999 61.9 73.8 C 62.4 73.7 62.5 73.7 62.5 73.5 C 62.5 73.3 62.3 73.3 62.1 73.3 C 61.9 73.3 61.4 73.39999999999999 60.9 73.39999999999999 L 58.8 73.39999999999999 C 58.5 73.39999999999999 58.5 73.39999999999999 58.5 73.6 C 58.5 73.8 58.5 73.8 59.4 73.8 C 60 73.8 60.1 74 60.1 74.7 C 60.1 76.8 59.800000000000004 76.9 58.300000000000004 76.9 C 57.1 76.9 55.300000000000004 75.60000000000001 55.300000000000004 73.30000000000001 C 55.300000000000004 71.00000000000001 56.6 69.30000000000001 58.50000000000001 69.30000000000001 C 59.60000000000001 69.30000000000001 60.300000000000004 69.80000000000001 60.70000000000001 70.60000000000001 C 60.90000000000001 71.00000000000001 60.90000000000001 71.00000000000001 61.00000000000001 71.00000000000001 C 61.10000000000001 71.00000000000001 61.20000000000001 71.00000000000001 61.20000000000001 70.90000000000002 C 61.20000000000001 70.50000000000001 61.10000000000001 70.10000000000002 61.10000000000001 69.70000000000002 C 61.10000000000001 69.20000000000002 59.50000000000001 69.00000000000001 58.400000000000006 69.00000000000001 C 55.800000000000004 69.00000000000001 53.60000000000001 70.50000000000001 53.60000000000001 73.40000000000002 C 53.60000000000001 76.40000000000002 56.00000000000001 77.50000000000001 58.20000000000001 77.50000000000001 C 59.70000000000001 77.50000000000001 61.50000000000001 76.90000000000002 61.50000000000001 76.60000000000001 L 61.4 74.6 z" stroke-linecap="round" />
</g>
</svg>