<?xml version="1.0" encoding="utf-8"?>
<!-- Generator: Adobe Illustrator 27.4.1, SVG Export Plug-In . SVG Version: 6.00 Build 0)  -->
<svg version="1.1" id="Layer_1" xmlns="http://www.w3.org/2000/svg" xmlns:xlink="http://www.w3.org/1999/xlink" x="0px" y="0px"
	 viewBox="0 0 120 43" style="enable-background:new 0 0 120 43;" xml:space="preserve">
<style type="text/css">
	.st0{fill:#FFFFFF;}
	.st1{fill:#FFE500;}
	.st2{fill:#F08825;}
	.st3{fill:#E50064;}
	.st4{fill:#8A549C;}
	.st5{fill:#00A6E6;}
	.st6{fill:#65B22E;}
</style>
<g>
	<g>
		<path class="st0" d="M0.5,20.52c0.98,0.4,3.39,0.79,4.51,0.79c1.47,0,3.08-0.3,3.08-3.4V1.04h6.08v16.58c0,5.45-2.6,9.2-9.29,9.2
			c-1.52,0-3.08-0.4-4.39-0.69V20.52z"/>
		<polygon class="st0" points="17.05,1.04 31.06,1.04 31.06,4.72 22.34,4.72 22.34,8.72 30.57,8.72 30.57,12.41 22.34,12.41 
			22.34,16.8 31.37,16.8 31.37,20.49 17.05,20.49 		"/>
		<path class="st0" d="M33.87,15.7c1.37,0.73,3.28,1.28,5.47,1.28c1.68,0,3.27-0.34,3.27-1.9c0-3.63-9.4-1.34-9.4-8.42
			c0-4.68,4.67-5.96,8.66-5.96c1.91,0,3.79,0.28,5.13,0.72l-0.34,4.01c-1.37-0.61-2.91-0.89-4.42-0.89c-1.34,0-3.56,0.11-3.56,1.81
			c0,3.15,9.4,1.03,9.4,8.06c0,5.04-4.33,6.41-8.74,6.41c-1.85,0-4.16-0.28-5.93-0.84L33.87,15.7z"/>
		<path class="st0" d="M50.03,15.7c1.37,0.73,3.28,1.28,5.47,1.28c1.68,0,3.27-0.34,3.27-1.9c0-3.63-9.4-1.34-9.4-8.42
			c0-4.68,4.67-5.96,8.66-5.96c1.91,0,3.79,0.28,5.13,0.72l-0.34,4.01c-1.37-0.61-2.91-0.89-4.42-0.89c-1.34,0-3.56,0.11-3.56,1.81
			c0,3.15,9.4,1.03,9.4,8.06c0,5.04-4.33,6.41-8.74,6.41c-1.85,0-4.16-0.28-5.93-0.84L50.03,15.7z"/>
		<path class="st0" d="M105.28,15.7c1.37,0.73,3.28,1.28,5.47,1.28c1.68,0,3.27-0.34,3.27-1.9c0-3.63-9.4-1.34-9.4-8.42
			c0-4.68,4.67-5.96,8.66-5.96c1.91,0,3.79,0.28,5.13,0.72l-0.34,4.01c-1.37-0.61-2.91-0.89-4.42-0.89c-1.34,0-3.56,0.11-3.56,1.81
			c0,3.15,9.4,1.03,9.4,8.06c0,5.04-4.33,6.41-8.74,6.41c-1.85,0-4.16-0.28-5.93-0.84L105.28,15.7z"/>
		<path class="st0" d="M71.3,10.82c0-3.37,1.28-6.22,4.5-6.22c3.22,0,4.5,2.84,4.5,6.22c0,3.21-1.28,6.22-4.5,6.22
			C72.58,17.04,71.3,14.03,71.3,10.82 M65.83,10.82c0,6.19,3.47,10.06,9.97,10.06c6.49,0,9.97-3.87,9.97-10.06
			c0-6.25-3.42-10.06-9.97-10.06C69.25,0.76,65.83,4.58,65.83,10.82"/>
		<path class="st0" d="M93.08,4.72h1.38c1.83,0,3.29,0.64,3.29,2.61c0,2.03-1.46,2.66-3.29,2.66h-1.38V4.72z M87.8,20.49h5.29v-6.81
			h2.06c4.97,0,7.89-2.35,7.89-6.27c0-4.37-2.84-6.38-8.92-6.38H87.8V20.49z"/>
		<rect x="50.72" y="24.26" class="st1" width="16.83" height="2.56"/>
		<rect x="33.89" y="24.26" class="st2" width="16.83" height="2.56"/>
		<rect x="17.06" y="24.26" class="st3" width="16.83" height="2.56"/>
		<rect x="101.21" y="24.26" class="st4" width="16.83" height="2.56"/>
		<rect x="84.38" y="24.26" class="st5" width="16.83" height="2.56"/>
		<rect x="67.55" y="24.26" class="st6" width="16.83" height="2.56"/>
	</g>
	<g>
		<path class="st0" d="M18.09,31.69H17.3v-1.03h0.79V31.69z M17.3,33.36h0.79v6.28H17.3V33.36z"/>
		<path class="st0" d="M27.79,39.64v-4.17c0-0.89-0.34-1.59-1.36-1.59c-0.87,0-1.72,0.73-1.72,2.29v3.47h-0.79v-4.17
			c0-0.89-0.34-1.59-1.36-1.59c-0.87,0-1.72,0.73-1.72,2.29v3.47h-0.79v-4.8c0-0.48,0-0.97-0.05-1.48h0.77v1.06l0.03,0.01
			c0.25-0.43,0.63-1.22,2-1.22c0.57,0,1.5,0.23,1.7,1.33h0.03c0.29-0.74,1.04-1.33,2.05-1.33c1.3,0,2.03,0.89,2.03,2.11v4.32H27.79z
			"/>
		<path class="st0" d="M34.15,38.63h-0.03c-0.35,0.75-1.25,1.16-2.04,1.16c-1.82,0-2.11-1.21-2.11-1.77c0-2.11,2.29-2.2,3.95-2.2
			h0.15v-0.32c0-1.07-0.39-1.61-1.46-1.61c-0.67,0-1.3,0.15-1.89,0.52v-0.75c0.49-0.23,1.32-0.43,1.89-0.43
			c1.59,0,2.25,0.7,2.25,2.34v2.77c0,0.5,0,0.89,0.06,1.32h-0.78V38.63z M34.08,36.48h-0.23c-1.37,0-3.01,0.14-3.01,1.51
			c0,0.82,0.6,1.13,1.33,1.13c1.86,0,1.9-1.59,1.9-2.27V36.48z"/>
		<path class="st0" d="M41.79,39.12c0,1.75-0.81,3.18-3.01,3.18c-0.84,0-1.61-0.23-1.94-0.33l0.06-0.78
			c0.49,0.25,1.2,0.44,1.89,0.44c2.04,0,2.21-1.45,2.21-3.23h-0.03c-0.43,0.91-1.13,1.23-1.95,1.23c-2.05,0-2.7-1.75-2.7-3.14
			c0-1.91,0.75-3.29,2.64-3.29c0.86,0,1.41,0.11,2,0.86h0.03v-0.71h0.79V39.12z M39.04,38.98c1.43,0,1.95-1.33,1.95-2.47
			c0-1.51-0.45-2.62-1.9-2.62c-1.51,0-1.9,1.4-1.9,2.62C37.2,37.73,37.7,38.98,39.04,38.98z"/>
		<path class="st0" d="M47.95,39.44c-0.55,0.22-1.27,0.34-1.86,0.34c-2.13,0-2.92-1.4-2.92-3.29c0-1.92,1.08-3.29,2.7-3.29
			c1.81,0,2.55,1.43,2.55,3.11v0.39h-4.39c0,1.33,0.73,2.4,2.11,2.4c0.58,0,1.42-0.23,1.8-0.47V39.44z M47.56,36.06
			c0-1.1-0.45-2.18-1.64-2.18c-1.17,0-1.89,1.15-1.89,2.18H47.56z"/>
		<path class="st0" d="M54.13,31.69h-0.79v-1.03h0.79V31.69z M53.33,33.36h0.79v6.28h-0.79V33.36z"/>
		<path class="st0" d="M55.58,38.73c0.48,0.23,1.06,0.39,1.67,0.39c0.75,0,1.42-0.41,1.42-1.12c0-1.49-3.08-1.26-3.08-3.08
			c0-1.24,1.03-1.71,2.09-1.71c0.34,0,1.02,0.07,1.59,0.28l-0.08,0.68c-0.42-0.18-0.98-0.3-1.42-0.3c-0.82,0-1.38,0.25-1.38,1.05
			c0,1.17,3.16,1.02,3.16,3.08c0,1.33-1.27,1.79-2.24,1.79c-0.62,0-1.23-0.07-1.8-0.3L55.58,38.73z"/>
		<path class="st0" d="M68.67,39.44c-0.55,0.22-1.27,0.34-1.86,0.34c-2.13,0-2.92-1.4-2.92-3.29c0-1.92,1.08-3.29,2.7-3.29
			c1.81,0,2.55,1.43,2.55,3.11v0.39h-4.39c0,1.33,0.73,2.4,2.11,2.4c0.58,0,1.42-0.23,1.8-0.47V39.44z M68.28,36.06
			c0-1.1-0.45-2.18-1.64-2.18c-1.17,0-1.89,1.15-1.89,2.18H68.28z"/>
		<path class="st0" d="M72.83,39.64H71.9l-2.18-6.28h0.87l1.77,5.43h0.03l1.86-5.43h0.83L72.83,39.64z"/>
		<path class="st0" d="M80.44,39.44c-0.55,0.22-1.27,0.34-1.86,0.34c-2.13,0-2.92-1.4-2.92-3.29c0-1.92,1.08-3.29,2.7-3.29
			c1.81,0,2.55,1.43,2.55,3.11v0.39h-4.39c0,1.33,0.73,2.4,2.11,2.4c0.58,0,1.42-0.23,1.8-0.47V39.44z M80.05,36.06
			c0-1.1-0.45-2.18-1.64-2.18c-1.17,0-1.89,1.15-1.89,2.18H80.05z"/>
		<path class="st0" d="M82.38,34.76c0-0.69,0-0.95-0.05-1.4h0.79v1.21h0.03c0.29-0.7,0.83-1.35,1.65-1.35
			c0.19,0,0.42,0.04,0.55,0.07v0.81c-0.16-0.05-0.38-0.07-0.58-0.07c-1.26,0-1.6,1.38-1.6,2.51v3.1h-0.79V34.76z"/>
		<path class="st0" d="M88.3,38.59h0.01l1.85-5.23h0.83l-2.57,7.22c-0.3,0.86-0.75,1.72-1.65,1.72c-0.29,0-0.59-0.04-0.86-0.1
			L86,41.54c0.15,0.05,0.3,0.1,0.59,0.1c0.68,0,0.91-0.55,1.16-1.37l0.16-0.55l-2.28-6.35h0.87L88.3,38.59z"/>
		<path class="st0" d="M94.82,34.03h-1.46v4.06c0,0.57,0.21,1.03,0.86,1.03c0.3,0,0.5-0.06,0.73-0.15l0.05,0.64
			c-0.19,0.07-0.58,0.17-0.97,0.17c-1.41,0-1.46-0.95-1.46-2.09v-3.67h-1.26v-0.66h1.26v-1.51l0.79-0.27v1.79h1.46V34.03z"/>
		<path class="st0" d="M96.19,30.41h0.79v4.01h0.03c0.34-0.69,1.06-1.21,2-1.21c1.72,0,2.19,1.12,2.19,2.67v3.76h-0.79V35.9
			c0-1.08-0.21-2.02-1.52-2.02c-1.41,0-1.9,1.31-1.9,2.4v3.36h-0.79V30.41z"/>
		<path class="st0" d="M103.92,31.69h-0.79v-1.03h0.79V31.69z M103.13,33.36h0.79v6.28h-0.79V33.36z"/>
		<path class="st0" d="M105.87,34.84c0-0.48,0-0.97-0.05-1.48h0.77v1.12h0.03c0.26-0.57,0.74-1.27,2.08-1.27
			c1.58,0,2.19,1.03,2.19,2.41v4.01h-0.79v-3.82c0-1.18-0.43-1.95-1.52-1.95c-1.45,0-1.9,1.24-1.9,2.29v3.47h-0.79V34.84z"/>
		<path class="st0" d="M117.9,39.12c0,1.75-0.81,3.18-3.01,3.18c-0.84,0-1.61-0.23-1.94-0.33l0.06-0.78
			c0.49,0.25,1.2,0.44,1.89,0.44c2.04,0,2.21-1.45,2.21-3.23h-0.03c-0.43,0.91-1.13,1.23-1.95,1.23c-2.05,0-2.7-1.75-2.7-3.14
			c0-1.91,0.75-3.29,2.64-3.29c0.86,0,1.41,0.11,2,0.86h0.03v-0.71h0.79V39.12z M115.16,38.98c1.43,0,1.95-1.33,1.95-2.47
			c0-1.51-0.45-2.62-1.9-2.62c-1.51,0-1.9,1.4-1.9,2.62C113.31,37.73,113.81,38.98,115.16,38.98z"/>
	</g>
</g>
</svg>
