<svg version="1.2" xmlns="http://www.w3.org/2000/svg" viewBox="0 0 213 213" width="213" height="213"><style>.a{fill:#cd7f32}.b{fill:#fff}</style><filter id="f0"><feFlood flood-color="#ffffff" flood-opacity="1" /><feBlend mode="normal" in2="SourceGraphic"/><feComposite in2="SourceAlpha" operator="in" /></filter><g filter="url(#f0)"><path class="a" d="m33.2 111.8c0.3-1.6 0.6-3.4 0.8-5.4 1.5-14 4.1-16.6 7.6-16.6 2.7 0 4 2.6 4 6.1 0 5.6-3.5 13.5-10.8 16.4-0.8 3.7-1.8 6.2-3 8.1 3.6 1.3 6.3 3.2 10 3.2 2.6 0 3.4-1.7 3.6-2.8 0.5 0.1 1.1 0.2 1.6 0.4-0.5 2-2.1 3.7-5.2 3.7-3.9 0-7.1-2.1-10.7-3.5-2.1 2.7-4.6 3.5-7 3.5-1.9 0-3.4-0.9-3.4-2.7 0-1.5 1.4-3.1 4.4-3.1 2 0 3.7 0.3 5.3 0.7 1-1.6 1.9-3.9 2.5-7-1.3 0.3-2.7 0.6-4.3 0.6-7.8 0-11.2-4.4-11.2-8.7 0-4.1 3-8 7.8-8 1.3 0 2.3 0.2 3.3 0.8-0.3 0.5-0.5 1-0.8 1.5-0.7-0.5-1.5-0.6-2.5-0.6-4 0-6.3 3.2-6.3 6.5 0 3.7 2.9 7.6 9.7 7.6 1.8 0 3.3-0.3 4.6-0.7zm-3.3 9c-1.4-0.5-3-0.8-4.6-0.8-2 0-3.1 1.2-3.1 2.2 0 0.9 0.8 1.7 2.2 1.7 2.1 0 3.9-0.8 5.5-3.1zm5.9-14.4c-0.2 1.7-0.4 3.1-0.7 4.5 6.2-3.1 8.9-10.5 8.9-15.4 0-2.7-0.8-4.7-2.4-4.7-2.2 0-4.4 2.2-5.8 15.6z"/><path class="a" d="m50.6 103.3h1.4c-0.8 3.8-1.5 7.4-1.9 10.4-0.1 0.6-0.1 1.2-0.1 1.6 0 0.7 0.1 1.1 0.4 1.1 0.7 0 2-2.2 3.6-6.4 0.2 0 0.6 0.2 0.6 0.3-2.2 5.3-3.3 7.4-4.6 7.4-0.9 0-1.3-1.1-1.3-3.2l0.2-1.5c-0.9 2.5-2.1 4.7-3.8 4.7-1.3 0-1.9-1.4-1.9-3.6 0-4.4 2.3-11 5.1-11 1.3 0 1.8 1 1.9 2.4zm-6 10.8c0 1.3 0.3 2.2 0.9 2.2 1.7 0 3.9-6.3 3.9-9.4 0-1.5-0.4-2.5-1.3-2.5-1.6-0.1-3.5 6.2-3.5 9.7z"/><path class="a" d="m57.8 116.3c0.9 0 2.1-2.2 3.6-6.3 0.1 0 0.6 0.2 0.6 0.3-1.7 4.3-2.7 7.4-4.7 7.4-1.2 0-1.7-0.8-1.7-2.1 0-2.1 1.5-4.4 1.5-6.4 0-1.5-0.7-2.5-1.1-3.5-0.4 1.6-0.9 3.3-1.4 4.6 0 0-0.6-0.1-0.6-0.3 0.6-1.6 1.1-3.6 1.4-5.5-0.2-0.5-0.3-1.1-0.3-1.9 0-1.1 0.2-2.4 0.6-3.7l1.5 0.4c0 1.7-0.3 3-0.6 4.4l-0.2 0.6c0.8 1.2 2.2 2.5 2.2 4.6 0 2.3-1.5 4.8-1.5 6.5 0.1 0.6 0.3 0.9 0.7 0.9z"/><path class="a" d="m60.2 117.5l0.1-1.2c0.1-1.8 0.7-3.7 0.8-4.4 1-6.5 2.3-14.7 3.8-17.7 0.5-1.1 1.4-1.4 2-1.4 0.8 0 1.3 0.5 1.3 1.5 0 2.3-2.3 7.1-4.7 12.3l-0.4 1.9c1.3-3.1 2.7-5.5 4.3-5.5 0.9 0 1.3 0.6 1.3 1.5 0 2-2.1 5.7-4.4 6.9 1 1.4 1 4.7 1.9 4.7 0.9 0 2.5-2.7 3.9-6.2 0.2 0 0.6 0.3 0.6 0.3q-0.1 0.4-0.3 0.9c-1.3 3.2-2.8 6.4-4.5 6.4-2.1 0-2.1-4.2-2.8-5.7-0.1 0-0.3 0-0.4 0q-0.1 0-0.3 0l-0.8 5.6zm2.9-7.6l-0.2 0.8c0.3 0 0.6 0 0.8 0.2 1.7-1 3.7-4.5 3.7-5.9 0-0.4-0.1-0.6-0.4-0.7-1 0.1-2.3 2-3.9 5.6zm3.8-16c-1 0-2 4.9-3 10.6 0.9-2.2 3.2-7.4 3.3-9.9 0-0.4-0.1-0.7-0.3-0.7z"/><path class="a" d="m69.1 117.5c0 0 0-0.1 0-0.2 0-0.6 0.2-2 0.4-3.1 1.1-6.3 2.5-16.4 4.2-19.9 0.5-1.2 1.4-1.5 2.2-1.5 0.8 0 1.3 0.5 1.3 1.5 0 3.2-2.7 8.5-4.7 12.6l-0.5 2c1.2-2.7 3-5.7 4.7-5.7 0.8 0 1.5 0.7 1.5 2 0 2.6-2.2 7.3-2.2 9.9 0 0.9 0.3 1.3 0.8 1.3 0.9 0 2.3-2.7 3.7-6.3 0.2 0 0.6 0.3 0.6 0.3l-0.4 1.1c-1.2 3.2-2.8 6.2-4.5 6.3-1 0-1.8-0.8-1.8-2.4 0-2.9 2.2-7.8 2.2-9.8 0-0.7-0.2-1-0.6-1-1.1 0-3.5 4.1-4.8 9.5-0.2 1.2-0.3 2.3-0.5 3.5h-1.6zm6.7-23.6c-1 0-2.1 5.6-3.1 11.2 1-2.3 3.3-8.1 3.5-10.5 0-0.4-0.2-0.7-0.4-0.7z"/><path class="a" d="m87.4 103.3h1.4c-0.8 3.8-1.5 7.4-1.9 10.4-0.1 0.6-0.1 1.2-0.1 1.6 0 0.7 0.1 1.1 0.4 1.1 0.7 0 2-2.2 3.6-6.4 0.2 0 0.6 0.2 0.6 0.3-2.2 5.3-3.3 7.4-4.6 7.4-0.9 0-1.3-1.1-1.3-3.2l0.2-1.5c-0.9 2.5-2.1 4.7-3.8 4.7-1.3 0-1.9-1.4-1.9-3.6 0-4.4 2.3-11 5.1-11 1.3 0 1.8 1 1.9 2.4zm-5.9 10.8c0 1.3 0.3 2.2 0.9 2.2 1.7 0 3.9-6.3 3.9-9.4 0-1.5-0.4-2.5-1.3-2.5-1.6-0.1-3.5 6.2-3.5 9.7z"/><path class="a" d="m96.9 110c0.2 0 0.5 0.2 0.5 0.3-1.9 5.1-3.2 7.4-4.9 7.4-1.4 0-1.9-1.9-1.9-5 0.1-2.2 0.4-5.1 1-8.2 1.3-7.5 3.2-11.8 4.8-11.8 1 0 1.2 1 1.2 2.3 0 4.5-2.7 10.7-5.3 14.5-0.2 1.6-0.3 3.1-0.3 4.2 0 1.8 0.3 2.6 0.9 2.6 1.2 0.1 2.5-2.3 4-6.3zm-0.3-16.1c-1 0-2.9 7.7-3.9 14 1.3-2.4 4.2-8.5 4.2-13 0-0.4 0-1-0.3-1z"/><path class="a" d="m102.9 110c0.2 0 0.5 0.2 0.5 0.3-1.9 5.1-3.2 7.4-4.9 7.4-1.4 0-1.9-1.9-1.9-5 0.1-2.2 0.4-5.1 1-8.2 1.3-7.5 3.2-11.8 4.8-11.8 1 0 1.2 1 1.2 2.3 0 4.5-2.7 10.7-5.3 14.5-0.2 1.6-0.3 3.1-0.3 4.2 0 1.8 0.3 2.6 0.9 2.6 1.3 0.1 2.5-2.3 4-6.3zm-0.3-16.1c-1 0-2.9 7.7-3.9 14 1.3-2.4 4.2-8.5 4.2-13 0.1-0.4 0.1-1-0.3-1z"/><path class="a" d="m118.4 110.1c-0.6 0.2-1.3 0.3-1.9 0.3-4.8 0-7.3-3.8-7.3-8.2 0-5.8 4.3-12.5 13.3-12.5 5.9 0 10.8 2.7 10.8 8.4 0 3.2-1.5 6.1-5.1 7.3 4.6 1.4 6.6 5.1 6.6 8.9 0 5.1-3.8 10.4-10.6 10.4-3.3 0-5.7-0.5-7.3-0.8-0.9 0.5-1.9 0.7-2.8 0.7q-0.9 0-1.8-0.3l0.3-1.5c0.7-0.1 1.3-0.1 1.8-0.1 0.7 0 1.3 0 2 0.1 2.9-1.8 5.1-8 6.3-16.3 0.8-5.8 1.6-10 2.5-12.5l1.7 0.4c-0.8 2.3-1.6 5.3-2.3 10.3 0.7 0 1.3 0.1 1.9 0.2 3.2-1 5.2-3.9 5.2-6.7 0-5.3-4.6-7.8-8.9-7.8-8 0-11.9 6.2-11.9 11.4 0 3.7 2 6.9 5.9 6.9 0.5 0 0.9-0.1 1.3-0.2zm14.6 4.2c0-3.7-1.9-7.3-6.1-8.4-0.8 0.2-1.6 0.3-2.5 0.3-1.1 9.3-3.6 14.6-6.5 17 1.8 0.3 3.7 0.7 6.6 0.7 5.4 0 8.5-4.9 8.5-9.6z"/><path class="a" d="m139.6 103.3c-0.3 1.6-2 8.6-2 11.7 0 1 0.3 1.4 0.7 1.4 0.8 0 2.5-3 3.2-6.6 0.4-2.3 0.9-4.6 1.3-6.5h1.6c-1 4.8-2 9.2-2 11.8 0 0.9 0.3 1.3 0.6 1.3 0.9 0 2.1-2.3 3.7-6.3 0.1 0 0.6 0.2 0.6 0.3-1.7 4.3-2.7 7.4-4.7 7.4-1.2 0-1.5-1.3-1.5-3.3q0-0.3 0-0.6c-0.9 2.3-2.1 3.9-3.3 3.9-1.2 0-1.7-1.3-1.7-3.2 0-3.8 1.6-9.8 1.9-11.2h1.6z"/><path class="a" d="m147.7 103.3c1.3-6.4 2.2-7.2 3.4-7.2 0.9 0 1.2 0.8 1.2 2.1 0 1.2-0.5 3.1-1.3 5.2h1.1l-0.2 1h-1.3c-0.7 1.7-1.5 3.5-2.4 5.2-0.2 1.6-0.3 3.1-0.3 4.2 0 1.8 0.3 2.6 0.9 2.6 1.1 0 2.3-2.4 3.8-6.4 0.2 0 0.5 0.2 0.5 0.3v0.1c-1.9 5-3.2 7.4-4.9 7.4-1.4 0-1.9-1.9-1.9-5 0.1-2.2 0.4-5.1 1-8.2 0-0.1 0-0.2 0-0.2h-1.2l0.2-1zm2.2 1h-0.8l-0.5 3.1zm1.2-7.1c-0.6 0-1.2 2.2-1.8 6.1h1c0.7-2 1.3-3.9 1.3-5.3-0.1-0.5-0.2-0.8-0.5-0.8z"/><path class="a" d="m157.2 109.6c0.8-1.3 1.2-2.7 1.2-3.7 0-1-0.3-1.7-1-1.7-1.8 0-3.4 4.5-3.4 8.1 0 2.2 0.6 4 2.3 4 1.8-0.1 3.2-2.1 4.8-6.3 0.2 0 0.6 0.2 0.6 0.3l-0.3 0.7c-1.5 3.7-3.2 6.7-5.9 6.7-2.2 0-3-2.3-3-5.1 0-4.2 2.1-9.6 5-9.6 1.5 0 2.1 1.3 2.1 3 0 1.3-0.4 2.9-1.1 4.2z"/><path class="a" d="m160 117.5c0 0 0-0.1 0-0.2 0-0.6 0.2-2 0.4-3.1 1.1-6.3 2.5-16.4 4.2-19.9 0.5-1.2 1.4-1.5 2.2-1.5 0.8 0 1.3 0.5 1.3 1.5 0 3.2-2.7 8.5-4.7 12.6l-0.5 2c1.2-2.7 3-5.7 4.7-5.7 0.8 0 1.5 0.7 1.5 2 0 2.6-2.2 7.3-2.2 9.9 0 0.9 0.3 1.3 0.8 1.3 0.9 0 2.3-2.7 3.7-6.3 0.2 0 0.6 0.3 0.6 0.3l-0.4 1.1c-1.2 3.2-2.8 6.2-4.5 6.3-1 0-1.8-0.8-1.8-2.4 0-2.9 2.2-7.8 2.2-9.8 0-0.7-0.2-1-0.6-1-1.1 0-3.5 4.1-4.8 9.5-0.2 1.2-0.3 2.3-0.5 3.5h-1.6zm6.7-23.6c-1 0-2.1 5.6-3.1 11.2 1-2.3 3.3-8.1 3.5-10.5 0-0.4-0.2-0.7-0.4-0.7z"/><path class="a" d="m179.6 110c0.2 0 0.6 0.2 0.6 0.3-1 2.9-2.9 7.4-5.8 7.4-2.4 0-3.4-2.3-3.4-5.1 0-4.2 2.2-9.6 5.2-9.6 1.2 0 1.8 0.8 1.8 1.9 0 2.5-2.9 5.3-5.2 5.7-0.1 0.6-0.2 1.2-0.2 1.8 0 2.1 0.6 3.7 2.2 3.7 2.1 0.2 3.7-3.2 4.8-6.1zm-6.7-0.1c2.6-1.2 3.8-3.4 3.8-4.9 0-0.7-0.2-1.1-0.6-1.1-1.3 0-2.6 3.1-3.2 6z"/><path class="a" d="m183.4 116.3c0.9 0 2.1-2.2 3.6-6.3 0.1 0 0.6 0.2 0.6 0.3-1.7 4.3-2.7 7.4-4.7 7.4-1.2 0-1.7-0.8-1.7-2.1 0-2.1 1.5-4.4 1.5-6.4 0-1.5-0.7-2.5-1.1-3.5-0.4 1.6-0.9 3.3-1.4 4.6 0 0-0.6-0.1-0.6-0.3 0.6-1.6 1.1-3.6 1.4-5.5-0.2-0.5-0.3-1.1-0.3-1.9 0-1.1 0.2-2.4 0.6-3.7l1.5 0.4c0 1.7-0.3 3-0.6 4.4l-0.2 0.6c0.8 1.2 2.2 2.5 2.2 4.6 0 2.3-1.5 4.8-1.5 6.5 0.1 0.6 0.3 0.9 0.7 0.9z"/><path class="a" d="m187.6 114.9c0 0.9 0.5 1.6 1.4 1.6 1.2 0 2-1.3 2-2.8 0-2.2-1.2-4.6-1.8-7.8-0.5 1.6-1.1 3.2-1.6 4.5 0 0-0.6-0.1-0.6-0.3 0.5-1.4 1.3-3.4 1.9-5.4-0.1-0.7-0.2-1.4-0.2-2.7 0-1.1 0.3-2.2 0.6-3.1l1.3 0.2c-0.2 1.8-0.4 3.2-0.8 4.5 0.2 3.2 2.8 6.8 2.8 9.8 0 0.2 0 0.5-0.1 0.7 0.7-1.1 1.3-2.5 1.9-4.2 0.2 0 0.6 0.2 0.6 0.3-1.1 2.5-2.7 7.4-6.2 7.4-1.4 0-2.9-0.8-2.7-2.8z"/></g><filter id="f1"><feFlood flood-color="#ffffff" flood-opacity="1" /><feBlend mode="normal" in2="SourceGraphic"/><feComposite in2="SourceAlpha" operator="in" /></filter><g filter="url(#f1)"><path class="a" d="m106 27.9c-0.8 9.7-0.5 19.6-0.6 29.4-0.1 9.8-0.3 19.6 0.2 29.4 0 0.9 1.3 0.9 1.3 0 0.5-9.8 0.3-19.6 0.2-29.4-0.1-9.8 0.2-19.6-0.6-29.4 0.1-0.4-0.5-0.4-0.5 0z"/><path class="a" d="m110.7 85.2c2.3-6.7 3.7-13.7 5.7-20.5 2-6.8 4.5-13.5 6.4-20.3 0.2-0.6-0.7-1-1-0.4-2.8 6.6-4.7 13.5-6.6 20.4-1.9 6.8-4 13.8-4.7 20.8 0 0.1 0.2 0.1 0.2 0z"/><path class="a" d="m116.4 86c3.7-6.5 7.2-13.4 10.1-20.3 0.3-0.7-0.6-1.3-1-0.6-3.7 6.6-7 13.6-9.8 20.6-0.2 0.5 0.5 0.7 0.7 0.3z"/><path class="a" d="m130.1 57.7c1.1-1.7 2.1-3.5 3-5.3 0.3-0.5-0.5-0.9-0.8-0.4-1.1 1.7-2.1 3.5-3 5.3-0.1 0.4 0.5 0.8 0.8 0.4z"/><path class="a" d="m124.4 86.5c7.7-8.5 14.4-18.5 20.4-28.3 0.4-0.7-0.6-1.3-1.1-0.6-6.7 9.4-13.8 18.7-19.9 28.5-0.2 0.4 0.3 0.8 0.6 0.4z"/><path class="a" d="m133.9 85.8c5.1-4.3 9.5-9.8 13.5-15.1 0.4-0.6-0.5-1.3-1-0.8-4.4 5-9.2 10-13.2 15.4-0.3 0.4 0.3 0.8 0.7 0.5z"/><path class="a" d="m141.5 86.6c2-1.8 4-3.6 5.7-5.6 0.4-0.5-0.2-1.1-0.7-0.7-2 1.8-3.8 3.7-5.6 5.7-0.4 0.4 0.2 0.9 0.6 0.6z"/><path class="a" d="m149 85.8c1.8-1.5 3.3-3.5 4.7-5.3 0.3-0.5-0.4-1-0.8-0.6-1.6 1.7-3.3 3.5-4.5 5.5-0.2 0.3 0.3 0.6 0.6 0.4z"/><path class="a" d="m157.1 84.4c0.6-0.5 1.2-1 1.8-1.6 0.3-0.3-0.1-0.9-0.5-0.6-0.7 0.5-1.4 1-2 1.5-0.5 0.4 0.2 1.1 0.7 0.7z"/><path class="a" d="m102.1 85.2c-0.8-7-2.8-14-4.7-20.8-1.9-6.8-3.8-13.8-6.6-20.4-0.2-0.6-1.2-0.2-1 0.4 1.9 6.8 4.4 13.5 6.4 20.3 2 6.8 3.4 13.8 5.7 20.5 0 0.1 0.2 0.1 0.2 0z"/><path class="a" d="m96.9 85.7c-2.8-7-6.2-14-9.8-20.6-0.4-0.7-1.3-0.1-1 0.6 2.9 6.9 6.4 13.8 10.1 20.3 0.2 0.4 0.9 0.2 0.7-0.3z"/><path class="a" d="m83.2 57.3c-0.9-1.8-1.9-3.6-3-5.3-0.3-0.5-1-0.1-0.8 0.4 0.9 1.8 2 3.6 3 5.3 0.4 0.4 1 0 0.8-0.4z"/><path class="a" d="m88.8 86.1c-6.1-9.8-13.2-19.1-19.9-28.5-0.5-0.7-1.5-0.1-1.1 0.6 6 9.8 12.7 19.8 20.4 28.3 0.3 0.4 0.8 0 0.6-0.4z"/><path class="a" d="m79.4 85.3c-3.9-5.4-8.8-10.4-13.2-15.4-0.5-0.5-1.4 0.2-1 0.8 4 5.3 8.4 10.9 13.5 15.1 0.4 0.3 1.1-0.1 0.7-0.5z"/><path class="a" d="m71.7 86c-1.8-2-3.6-4-5.6-5.7-0.5-0.4-1.1 0.2-0.7 0.7 1.8 2 3.7 3.8 5.7 5.6 0.5 0.3 1-0.2 0.6-0.6z"/><path class="a" d="m64.2 85.3c-1.2-2-2.9-3.8-4.5-5.5-0.4-0.4-1.1 0.1-0.8 0.6 1.4 1.8 2.9 3.8 4.7 5.3 0.3 0.3 0.8 0 0.6-0.4z"/><path class="a" d="m56.2 83.7c-0.7-0.5-1.3-1.1-2-1.5-0.4-0.3-0.8 0.3-0.5 0.6 0.6 0.6 1.2 1.1 1.8 1.6 0.5 0.4 1.2-0.3 0.7-0.7z"/></g><filter id="f2"><feFlood flood-color="#ffffff" flood-opacity="1" /><feBlend mode="normal" in2="SourceGraphic"/><feComposite in2="SourceAlpha" operator="in" /></filter><g filter="url(#f2)"><filter id="f3"><feFlood flood-color="#ffffff" flood-opacity="1" /><feBlend mode="normal" in2="SourceGraphic"/><feComposite in2="SourceAlpha" operator="in" /></filter><g filter="url(#f3)"><path class="b" d="m106.2 126.9c-0.5 4-0.5 8.1-0.6 12.2 0 3.7-0.3 7.6 0.3 11.3 0.1 0.5 0.9 0.5 0.9 0 0.5-3.7 0.3-7.5 0.3-11.3 0-4.1-0.1-8.1-0.6-12.2-0.1-0.2-0.3-0.2-0.3 0z"/></g><filter id="f4"><feFlood flood-color="#ffffff" flood-opacity="1" /><feBlend mode="normal" in2="SourceGraphic"/><feComposite in2="SourceAlpha" operator="in" /></filter><g filter="url(#f4)"><path class="b" d="m101.4 128.2c-1.1 3.2-1.7 6.6-2.3 9.9-0.6 3-1.4 6.2-1.4 9.2 0 0.6 0.9 0.8 1.1 0.1 0.9-3.3 1-6.8 1.5-10.1 0.5-3 1.1-6.1 1.4-9.1-0.1-0.1-0.3-0.1-0.3 0z"/></g><filter id="f5"><feFlood flood-color="#ffffff" flood-opacity="1" /><feBlend mode="normal" in2="SourceGraphic"/><feComposite in2="SourceAlpha" operator="in" /></filter><g filter="url(#f5)"><path class="b" d="m96 129.1c-2.2 4.6-4.1 9.3-6 14-2.1 4.9-4.3 9.9-6 15-0.2 0.5 0.6 0.8 0.8 0.3 2.2-4.6 4-9.4 5.9-14.1 2-5 4.1-10 5.8-15 0-0.2-0.4-0.4-0.5-0.2z"/></g><filter id="f6"><feFlood flood-color="#ffffff" flood-opacity="1" /><feBlend mode="normal" in2="SourceGraphic"/><feComposite in2="SourceAlpha" operator="in" /></filter><g filter="url(#f6)"><path class="b" d="m90.5 128.6c-2.4 3-4.5 6.3-6.6 9.6-2.2 3.5-4.7 7-6.5 10.7-0.3 0.6 0.5 1 0.8 0.5 2.4-3.2 4.3-6.8 6.4-10.2 2.1-3.4 4.4-6.7 6.2-10.3 0.2-0.2-0.1-0.5-0.3-0.3z"/></g><filter id="f7"><feFlood flood-color="#ffffff" flood-opacity="1" /><feBlend mode="normal" in2="SourceGraphic"/><feComposite in2="SourceAlpha" operator="in" /></filter><g filter="url(#f7)"><path class="b" d="m84.4 128.9c-2.2 2.3-4.1 4.9-6 7.4-2.1 2.8-4.3 5.5-6 8.6-0.2 0.4 0.4 1 0.7 0.6 2-2.5 3.8-5.2 5.6-7.8 2-2.8 4.2-5.5 6-8.5 0.3-0.3-0.1-0.5-0.3-0.3z"/></g><filter id="f8"><feFlood flood-color="#ffffff" flood-opacity="1" /><feBlend mode="normal" in2="SourceGraphic"/><feComposite in2="SourceAlpha" operator="in" /></filter><g filter="url(#f8)"><path class="b" d="m78 128.8c-2.2 1.6-4.1 4-5.7 6.2-0.3 0.4 0.3 0.8 0.6 0.5 1-1.1 1.9-2.2 2.9-3.3 0.9-1 1.8-1.9 2.6-3 0.1-0.3-0.2-0.6-0.4-0.4z"/></g><filter id="f9"><feFlood flood-color="#ffffff" flood-opacity="1" /><feBlend mode="normal" in2="SourceGraphic"/><feComposite in2="SourceAlpha" operator="in" /></filter><g filter="url(#f9)"><path class="b" d="m72.8 129.7q-0.9 0.9-2.1 1.5c-0.2 0.1-0.1 0.5 0.2 0.4 0.9-0.4 1.6-0.9 2.2-1.7 0.1-0.2-0.1-0.4-0.3-0.2z"/></g><filter id="f10"><feFlood flood-color="#ffffff" flood-opacity="1" /><feBlend mode="normal" in2="SourceGraphic"/><feComposite in2="SourceAlpha" operator="in" /></filter><g filter="url(#f10)"><path class="b" d="m111 128.2c0.3 3.1 1 6.1 1.4 9.1 0.5 3.3 0.6 6.9 1.5 10.1 0.2 0.6 1.1 0.5 1.1-0.1 0-3.1-0.9-6.2-1.4-9.2-0.6-3.3-1.2-6.7-2.3-9.9-0.1-0.1-0.3-0.1-0.3 0z"/></g><filter id="f11"><feFlood flood-color="#ffffff" flood-opacity="1" /><feBlend mode="normal" in2="SourceGraphic"/><feComposite in2="SourceAlpha" operator="in" /></filter><g filter="url(#f11)"><path class="b" d="m116.1 129.3c1.7 5.1 3.8 10 5.8 15 1.9 4.7 3.6 9.5 5.9 14.1 0.2 0.4 1 0.1 0.8-0.3-1.7-5.1-3.9-10-6-15-2-4.7-3.8-9.4-6-14-0.1-0.2-0.5 0-0.5 0.2z"/></g><filter id="f12"><feFlood flood-color="#ffffff" flood-opacity="1" /><feBlend mode="normal" in2="SourceGraphic"/><feComposite in2="SourceAlpha" operator="in" /></filter><g filter="url(#f12)"><path class="b" d="m121.7 128.9c1.8 3.6 4.1 6.9 6.2 10.3 2.1 3.4 4 7 6.4 10.2 0.4 0.5 1.1 0.1 0.8-0.5-1.8-3.7-4.3-7.2-6.5-10.7-2.1-3.2-4.1-6.6-6.6-9.6-0.1-0.2-0.4 0.1-0.3 0.3z"/></g><filter id="f13"><feFlood flood-color="#ffffff" flood-opacity="1" /><feBlend mode="normal" in2="SourceGraphic"/><feComposite in2="SourceAlpha" operator="in" /></filter><g filter="url(#f13)"><path class="b" d="m127.8 129.2c1.8 3 4 5.7 6 8.5 1.9 2.6 3.6 5.3 5.6 7.8 0.3 0.4 1-0.1 0.7-0.6-1.7-3-3.9-5.8-6-8.6-1.9-2.5-3.8-5.2-6-7.4-0.1-0.2-0.5 0-0.3 0.3z"/></g><filter id="f14"><feFlood flood-color="#ffffff" flood-opacity="1" /><feBlend mode="normal" in2="SourceGraphic"/><feComposite in2="SourceAlpha" operator="in" /></filter><g filter="url(#f14)"><path class="b" d="m134.2 129.1c0.7 1.1 1.7 2 2.6 3 0.9 1.1 1.9 2.2 2.9 3.3 0.3 0.3 0.9-0.1 0.6-0.5-1.6-2.2-3.5-4.6-5.7-6.2-0.2-0.1-0.5 0.2-0.4 0.4z"/></g><filter id="f15"><feFlood flood-color="#ffffff" flood-opacity="1" /><feBlend mode="normal" in2="SourceGraphic"/><feComposite in2="SourceAlpha" operator="in" /></filter><g filter="url(#f15)"><path class="b" d="m139.5 130c0.6 0.8 1.3 1.3 2.2 1.7 0.2 0.1 0.4-0.3 0.2-0.4q-1.2-0.6-2.1-1.5c-0.1-0.3-0.4-0.1-0.3 0.2z"/></g></g><filter id="f16"><feFlood flood-color="#ffffff" flood-opacity="1" /><feBlend mode="normal" in2="SourceGraphic"/><feComposite in2="SourceAlpha" operator="in" /></filter><g filter="url(#f16)"><path class="b" d="m99.4 157.7c0.4 0.6 0.6 1.2 0.6 2 0 0.4 0 0.7-0.1 1-0.1 0.3-0.2 0.6-0.4 0.9-0.2 0.3-0.4 0.5-0.7 0.7-0.3 0.2-0.5 0.2-0.8 0.2h-2c-0.1 0-0.2 0-0.3-0.1-0.1-0.1-0.1-0.2-0.1-0.3v-9c0-0.1 0-0.2 0.1-0.3 0.1-0.1 0.2-0.1 0.3-0.1h1.7c0.5 0 1 0.3 1.4 0.8 0.3 0.5 0.5 1.1 0.5 1.8 0 0.3 0 0.6-0.1 0.9-0.1 0.3-0.2 0.6-0.4 0.8-0.1 0.1-0.1 0.2-0.2 0.2 0.2 0 0.4 0.2 0.5 0.5zm-0.8-2.6c0-0.2 0-0.4-0.1-0.6-0.1-0.2-0.1-0.4-0.2-0.5-0.1-0.1-0.2-0.3-0.3-0.3-0.1-0.1-0.2-0.1-0.3-0.1h-1.3v3.3h1.3c0.1 0 0.2 0 0.3-0.1q0.1-0.1 0.3-0.3c0.1-0.1 0.2-0.3 0.2-0.5 0.1-0.4 0.1-0.6 0.1-0.9zm0.1 6c0.1-0.2 0.2-0.4 0.3-0.7 0.1-0.2 0.1-0.5 0.1-0.8 0-0.3 0-0.5-0.1-0.8-0.1-0.2-0.2-0.5-0.3-0.7-0.2-0.3-0.5-0.5-0.7-0.5h-1.5v3.8h1.5c0.1 0 0.3 0 0.4-0.1 0 0 0.1-0.1 0.3-0.2z"/><path class="b" d="m105.9 162.1c0 0.1 0 0.2-0.1 0.3-0.1 0.1-0.2 0.2-0.3 0.2h-0.1c-0.1 0-0.2 0-0.3-0.1-0.1-0.1-0.1-0.1-0.2-0.2l-0.4-1.7h-2.2l-0.3 1.7c0 0.1-0.1 0.2-0.2 0.2-0.1 0.1-0.2 0.1-0.3 0.1h-0.1c-0.1 0-0.2-0.1-0.3-0.2-0.1-0.1-0.1-0.2-0.1-0.3l1.9-9.2v-0.1c0 0 0-0.1 0.1-0.1 0 0 0 0 0.1 0 0 0 0 0 0.1 0 0 0 0 0 0.1 0 0 0 0 0 0.1 0 0 0 0 0 0.1 0 0 0 0 0 0.1 0h0.1c0 0 0 0 0.1 0 0 0 0 0 0 0.1zm-1.4-2.4l-0.9-4.5-0.9 4.5z"/><path class="b" d="m111.3 152.7c0.1 0.1 0.1 0.2 0.1 0.3 0 0.1 0 0.2-0.1 0.3-0.1 0.1-0.2 0.1-0.3 0.1h-1.6v8.5c0 0.1 0 0.2-0.1 0.3-0.1 0.1-0.2 0.1-0.3 0.1-0.1 0-0.2 0-0.3-0.1-0.1-0.1-0.1-0.2-0.1-0.3v-8.5h-1.6c-0.1 0-0.2 0-0.3-0.1-0.1-0.1-0.1-0.2-0.1-0.3 0-0.1 0-0.2 0.1-0.3 0.1-0.1 0.2-0.1 0.3-0.1h4.2c-0.1 0 0 0 0.1 0.1z"/><path class="b" d="m117 152.6c0.1 0 0.2 0 0.3 0.1 0.1 0.1 0.1 0.2 0.1 0.3v9c0 0.1 0 0.2-0.1 0.3-0.1 0.1-0.2 0.1-0.3 0.1-0.1 0-0.2 0-0.3-0.1-0.1-0.1-0.1-0.2-0.1-0.3v-3.5h-2.8v3.5c0 0.1 0 0.2-0.1 0.3-0.1 0.1-0.2 0.1-0.3 0.1-0.1 0-0.2 0-0.3-0.1-0.1-0.1-0.1-0.2-0.1-0.3v-9c0-0.1 0-0.2 0.1-0.3 0.1-0.1 0.2-0.1 0.3-0.1 0.1 0 0.2 0 0.3 0.1 0.1 0.1 0.1 0.2 0.1 0.3v4.6h2.8v-4.6c0-0.1 0-0.2 0.1-0.3 0-0.1 0.1-0.1 0.3-0.1z"/></g></svg>