<svg xmlns="http://www.w3.org/2000/svg" width="319.439" height="33.443" viewBox="0 0 319.439 33.443"><path d="M301.028,61.174h33.417V27.755H301.028Zm10.243-9.107h.774V53.22h.033a2.574,2.574,0,0,1,2.3-1.283,2.349,2.349,0,0,1,2.335,1.575,2.863,2.863,0,0,1,2.514-1.575,2.434,2.434,0,0,1,2.514,2.653v4.022h-.774V54.9c0-1.312-.612-2.275-1.886-2.275-.886,0-1.466.437-2.189,1.532v4.46h-.775V54.881c0-1.618-.886-2.261-1.9-2.261a2.482,2.482,0,0,0-2.175,1.4v4.591h-.774Zm-7.862-3.394h.775V53.2h.031a2.653,2.653,0,0,1,2.385-1.268,2.489,2.489,0,0,1,2.691,2.667v4.009h-.775V54.881c0-1.415-.578-2.261-1.964-2.261a2.686,2.686,0,0,0-2.368,1.4v4.591h-.775Zm38.227-20.036a3.066,3.066,0,1,0,.9,2.174A2.963,2.963,0,0,0,341.636,28.636Zm-.275,4.074a2.677,2.677,0,1,1,.792-1.9A2.592,2.592,0,0,1,341.361,32.71Zm-1.586-1.727q.884-.154.883-.9a.753.753,0,0,0-.293-.63,1.277,1.277,0,0,0-.8-.228h-1.338v3.235h.394V31.04h.19a1.138,1.138,0,0,1,.8.237,4.469,4.469,0,0,1,.682,1.184h.487a6.914,6.914,0,0,0-.506-1.052A1.636,1.636,0,0,0,339.775,30.983Zm-.621-.266h-.536V29.549h.6a1.653,1.653,0,0,1,.756.121.466.466,0,0,1,.216.447.49.49,0,0,1-.236.468A1.733,1.733,0,0,1,339.155,30.717ZM44.23,30.21h2.205V58.578H44.23V45.143H25.3V58.578H23.1V30.21h2.2v13.1H44.23Zm11.023,26.54h13.6v1.829H53.05V30.21H68.524v1.83H55.254V43.4H68.191v1.83H55.254ZM83.374,30,70.27,58.578h2.288l4.492-9.817H90.9l4.492,9.817h2.289L84.58,30ZM77.883,46.932l6.073-13.354L90.07,46.932ZM111.077,30.21h-9.942V58.578h10.316c11.232,0,15.1-7.611,15.1-14.184C126.552,38.155,123.14,30.21,111.077,30.21Zm.249,26.54h-7.988V32.04H111.2c7.695,0,12.978,5.075,12.978,12.355C124.18,52.381,118.148,56.749,111.327,56.749ZM155.67,30.21h2.2V58.578h-2.2V33.412h-.084L144.854,46.682,134.121,33.412h-.082V58.578h-2.206V30.21h2.206L144.854,43.4ZM174.388,30l-13.1,28.577h2.287l4.492-9.817h13.852l4.493,9.817H188.7L175.594,30ZM168.9,46.932l6.073-13.354,6.115,13.354Zm37.771,4.243a7.929,7.929,0,0,1-8.237,7.778,13.219,13.219,0,0,1-7.279-2.494V53.878c3.161,2.288,4.95,3.038,7.154,3.038a5.744,5.744,0,0,0,5.991-5.657c0-8.07-13.52-4.534-13.52-13.893,0-4.2,3.66-7.53,8.153-7.53a13.492,13.492,0,0,1,6.573,1.788v2.414c-2.912-1.664-4.41-2.163-6.366-2.163-3.41,0-5.989,2.329-5.989,5.407C193.148,44.851,206.668,41.233,206.668,51.175Zm1.871-20.965h23.5v1.83h-10.65V58.578h-2.205V32.04H208.539Zm29.2,26.54h13.6v1.829H235.536V30.21H251.01v1.83h-13.27V43.4h12.938v1.83H237.739Zm29.41-12.314c3.619-1.33,5.409-3.619,5.409-6.9,0-3.786-2.455-7.321-9.4-7.321h-7.279V58.578h2.2v-13.6h3.827c3.411,0,4.492.457,7.9,5.824l4.95,7.778h2.579l-6.407-9.817C269.6,46.765,268.481,45.143,267.149,44.436Zm-4.367-1.289h-4.7V32.04H262.7c5.2,0,7.488,2.329,7.488,5.532C270.186,40.983,267.773,43.146,262.782,43.146Zm31.446,8.029a7.928,7.928,0,0,1-8.236,7.778,13.222,13.222,0,0,1-7.279-2.494V53.878c3.162,2.288,4.95,3.038,7.155,3.038a5.743,5.743,0,0,0,5.99-5.657c0-8.07-13.52-4.534-13.52-13.893,0-4.2,3.661-7.53,8.154-7.53a13.488,13.488,0,0,1,6.572,1.788v2.414c-2.912-1.664-4.409-2.163-6.365-2.163-3.411,0-5.99,2.329-5.99,5.407C280.71,44.851,294.229,41.233,294.229,51.175Z" transform="translate(-23.1 -27.73)" fill="#161615"/></svg>