<svg id="Group_15" data-name="Group 15" xmlns="http://www.w3.org/2000/svg" xmlns:xlink="http://www.w3.org/1999/xlink" width="395.235" height="109.999" viewBox="0 0 395.235 109.999">
<style type="text/css">
	.st0{fill:#4D4D4A;}
	.st1{fill:none;stroke:#4D4D4A;stroke-width:0.2063;stroke-linecap:round;stroke-miterlimit:10;}
	.st2{clip-path:url(#SVGID_2_);}
	.st3{fill:none;stroke:#4D4D4A;stroke-width:1.205;stroke-miterlimit:4.001;}
	.st4{fill:none;stroke:#4D4D4A;stroke-width:0.1066;}
	.st5{clip-path:url(#SVGID_4_);}
	.st6{fill:none;stroke:#4D4D4A;stroke-width:1.205;stroke-linecap:round;}
	.st7{fill:#DE0833;}
	.st8{fill:none;}
</style>
<g id="Leg_11_">
	<g>
		<path class="st0" d="M361.8,24.4c0.2,0.3,0.1,0.5,0.1,0.7l-0.1,0.6c-0.1,0.4-0.1,0.8-0.3,1.1c-0.1,0.4-0.2,0.7-0.4,1.1
			c-0.1,0.4-0.4,0.7-1,0.8c-0.1,0-0.2,0-0.2-0.1c-0.4-0.6-0.3-0.9-0.2-1.3c0.1-0.4,0.3-0.7,0.4-1.1c0.2-0.3,0.4-0.7,0.6-1l0.3-0.5
			c0.1-0.2,0.2-0.3,0.5-0.4C361.7,24.3,361.8,24.4,361.8,24.4z"/>
	</g>
	<g>
		<path class="st0" d="M356.3,22c0.4-0.1,0.5,0.2,0.7,0.3c0.2,0.1,0.4,0.3,0.6,0.4c0.4,0.2,0.9,0.4,1.3,0.5c0.5,0.1,1,0.2,1.5,0.4
			c0.2,0.1,0.5,0.2,0.7,0.3c0.2,0.1,0.5,0.2,0.6,0.6c0,0.1,0,0.1-0.1,0.2l0,0c-0.3,0.2-0.6,0.1-0.8,0c-0.2-0.1-0.5-0.1-0.7-0.2
			c-0.5-0.1-0.9-0.2-1.4-0.4c-0.5-0.1-1-0.4-1.5-0.7c-0.2-0.1-0.4-0.3-0.6-0.5c-0.2-0.2-0.5-0.3-0.5-0.7
			C356.1,22.1,356.2,22,356.3,22L356.3,22z"/>
	</g>
	<g>
		<path class="st0" d="M354.5,16.7c0.2,0.2,0.2,0.4,0.2,0.7l0.2,0.7c0.1,0.5,0.3,0.9,0.4,1.4c0.1,0.4,0.3,0.9,0.5,1.3
			c0.1,0.2,0.2,0.4,0.3,0.6c0.1,0.2,0.2,0.4,0.2,0.7l0,0c0,0.1-0.1,0.1-0.1,0.1c0,0,0,0,0,0c-0.3-0.1-0.4-0.3-0.5-0.5
			c-0.1-0.2-0.2-0.4-0.3-0.7c-0.2-0.4-0.4-0.9-0.5-1.4c-0.1-0.5-0.2-0.9-0.3-1.4l-0.1-0.7c0-0.2-0.1-0.5,0-0.7
			C354.3,16.6,354.3,16.6,354.5,16.7C354.4,16.6,354.4,16.6,354.5,16.7z"/>
	</g>
	<g>
		<path class="st0" d="M355.4,16.9c-0.3-0.1-0.7-0.2-1-0.1c-0.3,0.1-0.6,0.3-0.9,0.5l0,0c0,0-0.1,0-0.1,0c0,0,0-0.1,0-0.1
			c0.2-0.3,0.6-0.5,1-0.7c0.2-0.1,0.4-0.1,0.6,0c0.2,0,0.4,0.1,0.6,0.2c0,0,0.1,0.1,0,0.1C355.5,16.9,355.4,16.9,355.4,16.9
			L355.4,16.9z"/>
	</g>
	<path class="st1" d="M362.9,24.1c0,0-0.6,1-1.7,1.4"/>
	<path class="st1" d="M358.7,22.1c0,0,1.1,0.8,1.1,1.6"/>
	<path class="st1" d="M357.6,21.7c0,0,0.8,1.1,0.4,1.5"/>
	<path class="st1" d="M357.1,24.2c0,0,1.4-0.2,1.5-0.8"/>
	<path class="st1" d="M358.5,24.3c0,0,1.2-0.1,1.4-0.6"/>
	<path class="st1" d="M355.8,23.4c0,0,1,0,1.6-0.5"/>
	<path class="st1" d="M356.5,20.5c0,0,0,1.4,0.2,1.9"/>
	<path class="st1" d="M355,21.8c0,0,1.3,1,2,0.9"/>
</g>
<g id="Leg_10_">
	<g>
		<path class="st0" d="M347.7,29.7c0.3-0.7,0.7-0.5,1-0.6l1.1-0.2c0.7-0.1,1.4-0.2,2.2-0.3c0.7,0,1.5-0.1,2.2-0.1l1.1,0
			c0.2,0,0.4,0,0.6,0.1c0.1,0,0.2,0.1,0.3,0.2c0.1,0.1,0.2,0.2,0.2,0.4c-0.2,0.1-0.2,0.2-0.3,0.3c-0.1,0.1-0.2,0.1-0.3,0.2
			c-0.2,0.1-0.3,0.1-0.5,0.1l-1.1,0.1c-0.7,0.1-1.4,0.2-2.2,0.2c-0.7,0.1-1.4,0.1-2.2,0.2l-1.1,0.1c-0.4,0-0.7,0.2-1.1-0.4
			C347.7,29.9,347.7,29.8,347.7,29.7z"/>
	</g>
	<g>
		<path class="st0" d="M338.1,29.8c0.4-0.1,0.8-0.1,1.2-0.1l1.2,0l2.4,0c0.8,0,1.6,0,2.4,0c0.4,0,0.8,0,1.2-0.1
			c0.4,0,0.7-0.1,1.2,0.1l0,0c0.1,0,0.1,0.1,0.1,0.2c0,0,0,0,0,0c-0.3,0.4-0.8,0.4-1.2,0.5c-0.4,0-0.8,0.1-1.2,0.1
			c-0.8,0-1.6,0-2.4,0l-2.4-0.1l-1.2-0.1c-0.4,0-0.8-0.1-1.2-0.2C338.1,30,338,29.9,338.1,29.8C338.1,29.9,338.1,29.8,338.1,29.8z"
			/>
	</g>
	<g>
		<path class="st0" d="M356.5,29.3c0.6,0.3,0.5,0.4,0.5,0.6l0,0.6c0,0.4,0,0.8-0.1,1.2c0,0.4-0.1,0.8-0.2,1.1
			c-0.1,0.4-0.2,0.7-0.8,1.1c-0.1,0-0.2,0-0.2,0c-0.5-0.4-0.5-0.8-0.5-1.2c0-0.4,0-0.8,0-1.2c0-0.4,0.1-0.8,0.2-1.1l0.2-0.6
			c0.1-0.2,0-0.4,0.6-0.5C356.4,29.2,356.4,29.2,356.5,29.3z"/>
	</g>
	<g>
		<path class="st0" d="M338.7,29c-0.1,0.2-0.2,0.3-0.2,0.5c-0.1,0.2-0.1,0.3-0.1,0.5c0,0.3,0.1,0.7,0.1,1l0,0c0,0.1,0,0.1-0.1,0.1
			c0,0-0.1,0-0.1,0c-0.3-0.3-0.4-0.7-0.4-1.1c0-0.5,0.3-0.9,0.6-1.1c0.1,0,0.1,0,0.1,0C338.7,29,338.7,29,338.7,29L338.7,29z"/>
	</g>
	<path class="st1" d="M348.4,29.8c-0.1,0-1.7-1.2-1.7-1.2"/>
	<path class="st1" d="M347.1,31.2c0,0,1.3-1.4,1.6-1.5"/>
	<path class="st1" d="M348.6,31.2c0,0,1.3-1.6,1.5-1.6"/>
	<path class="st1" d="M350,31c0,0,0.9-1.3,1.3-1.6"/>
	<path class="st1" d="M352.8,30.5c0,0,0.8-1.2,1.1-1.2"/>
	<path class="st1" d="M353.9,30.2c0,0,0.6-1,0.8-1"/>
	<path class="st1" d="M354.2,28c0,0,0.8,1.2,1.3,1.2"/>
	<path class="st1" d="M353.2,28.1c0,0,0.6,1,1,1.1"/>
	<path class="st1" d="M351.7,28.1c0,0,0.6,1.2,1,1.2c0.4,0-1.2,1.6-1.2,1.6"/>
	<path class="st1" d="M350.4,28.3c0,0,1,1,1.3,1.1"/>
	<path class="st1" d="M349.5,28.6c0.1,0.1,0.6,1,1,1"/>
	<path class="st1" d="M349.2,29.7c-0.5,0-0.9-0.9-0.9-0.9"/>
	<path class="st1" d="M356.8,27.9c0,0,0.9,1.3-0.5,2.2"/>
	<path class="st1" d="M354.5,30.4c0,0,1,0.5,1.7,0.4"/>
	<path class="st1" d="M354.3,31.5c0,0,1.3,0.5,1.8,0.1"/>
	<path class="st1" d="M354.4,32.3c0,0,1,0.5,1.7,0.1"/>
</g>
<g id="Leg_9_">
	<g>
		<path class="st0" d="M339,43.7c-0.2-0.9,0.4-1.2,0.6-1.7l1-1.4c0.7-0.9,1.4-1.8,2.1-2.7c0.7-0.9,1.5-1.8,2.3-2.6
			c0.4-0.4,0.8-0.8,1.2-1.2c0.2-0.2,0.4-0.4,0.7-0.6c0.3-0.1,0.7-0.3,1-0.1c-0.2,0.3-0.2,0.6-0.4,0.8c-0.1,0.2-0.3,0.4-0.5,0.6
			c-0.4,0.4-0.7,0.8-1.1,1.3l-2.1,2.7l-2.2,2.6l-1.1,1.3c-0.4,0.4-0.6,1-1.4,1.1C339,43.8,339,43.8,339,43.7z"/>
	</g>
	<g>
		<path class="st0" d="M328.4,47.5c0.1-0.6,0.6-0.8,1-1.1c0.4-0.3,0.8-0.5,1.2-0.8c0.8-0.5,1.7-0.9,2.7-1.2c0.9-0.3,1.9-0.5,2.9-0.6
			c0.5-0.1,1-0.1,1.4-0.2c0.5,0,1-0.1,1.5,0.1c0.1,0,0.1,0.1,0.1,0.2c0,0,0,0,0,0c-0.4,0.3-0.9,0.4-1.4,0.4
			c-0.5,0.1-0.9,0.2-1.4,0.2c-0.9,0.2-1.8,0.4-2.7,0.7c-0.9,0.3-1.7,0.7-2.5,1.1c-0.4,0.2-0.8,0.5-1.2,0.7c-0.4,0.2-0.7,0.6-1.3,0.6
			l0,0C328.4,47.6,328.4,47.6,328.4,47.5C328.4,47.5,328.4,47.5,328.4,47.5z"/>
	</g>
	<g>
		<path class="st0" d="M348,33.3c1-0.3,1.2,0.1,1.5,0.3c0.4,0.2,0.7,0.5,1,0.7c0.3,0.3,0.5,0.6,0.8,1c0.2,0.3,0.3,0.8-0.2,1.7
			c0,0.1-0.1,0.1-0.2,0.1c-1,0.3-1.4,0.2-1.7-0.1c-0.3-0.3-0.6-0.6-0.8-0.9c-0.2-0.3-0.4-0.7-0.6-1.1c-0.1-0.4-0.5-0.7,0-1.6
			C347.9,33.4,347.9,33.3,348,33.3z"/>
	</g>
	<g>
		<path class="st0" d="M328.5,46c0,0.3,0,0.6,0,0.9c0,0.3,0.1,0.5,0.3,0.6c0.2,0.1,0.5,0.2,0.8,0.2c0.3,0,0.6,0.1,0.9,0.1
			c0.1,0,0.1,0.1,0.1,0.1c0,0,0,0.1-0.1,0.1c-0.3,0-0.6,0.1-0.9,0c-0.3,0-0.6-0.1-1-0.2c-0.2-0.1-0.3-0.3-0.4-0.5
			c-0.1-0.2-0.1-0.3-0.1-0.5c0-0.3,0.1-0.6,0.2-0.9c0-0.1,0.1-0.1,0.1-0.1C328.4,45.9,328.5,46,328.5,46L328.5,46z"/>
	</g>
	<path class="st1" d="M347.7,36.8c0,0,2.1,0,2.5-0.8"/>
	<path class="st1" d="M347.4,35.8c0,0,1.4-0.5,1.6-1.1c0.4-0.9-0.1-2.8-0.1-2.8"/>
	<path class="st1" d="M345.3,34.1c0,0,1.6-0.3,1.6,0.1"/>
	<path class="st1" d="M346.3,36.6c0,0,0.2-1.6,0-1.8"/>
	<path class="st1" d="M344.2,35.5c0,0,1.3-0.5,1.6-0.1"/>
	<path class="st1" d="M345.3,38c0,0,0.2-1.8,0-2.1"/>
	<path class="st1" d="M342.7,36.5c0,0,2.1-0.6,2.2-0.2"/>
	<path class="st1" d="M344,39.4c0,0,0.2-1.9,0-2"/>
	<path class="st1" d="M341.9,37.9c0,0,1.5-0.4,1.6,0"/>
	<path class="st1" d="M342.8,41.2c0,0,0.5-2.2,0.1-2.4"/>
	<path class="st1" d="M340.6,39.3c0,0,1.7-0.3,1.9,0"/>
	<path class="st1" d="M339.4,40.8c0,0,1.8-0.9,2.1-0.4c0.3,0.3-0.1,2.2-0.1,2.2"/>
	<path class="st1" d="M338.8,41.9c0,0,1.9-0.7,1.9-0.4"/>
	<path class="st1" d="M340.3,43.9c0,0,0.3-1.5-0.1-1.8"/>
	<path class="st1" d="M338.2,42.9c0,0,1.3,0.1,1.7-0.3"/>
</g>
<path id="Body_1_" class="st0" d="M344.2,52.8c0.3,0.3,3.3,1.1,3.3,1.1c0.8,0.6,2.5-0.1,2.5-0.1c0.7,0.7,2,0.1,2,0.1
	c0.7,0.6,1.9-0.8,1.9-0.8c0.6,0.6,2.2-1.3,2.2-1.3c0.7,0.3,2.1-1.7,2.1-1.7c1.6-0.6,1.7-2.4,1.7-2.4c2-1.2,1.9-3.7,1.9-3.7
	c1.9-1.3,1.9-2.1,1.9-2.1c3.4-1.5,4.8-4.4,4.8-4.4C374.9,32,370,27,370,27s-4.9-4.9-10.6,1.5c0,0-2.9,1.4-4.4,4.8
	c0,0-0.9-0.1-2.1,1.9c0,0-2.5-0.2-3.7,1.9c0,0-1.7,0.1-2.4,1.7c0,0-2,1.3-1.7,2.1c0,0-1.9,1.6-1.3,2.2c0,0-1.5,1.2-0.8,1.9
	c0,0-0.6,1.4,0.1,2c0,0-0.7,1.7-0.1,2.5C343.1,49.5,343.9,52.5,344.2,52.8z"/>
<g id="Pincers">
	<g>
		<path class="st0" d="M339.2,49.3c0.2-0.2,0.4-0.2,0.6-0.3c0.2-0.1,0.4-0.2,0.6-0.3c0.4-0.2,0.8-0.4,1.1-0.6c0.4-0.2,0.7-0.5,1-0.7
			c0.2-0.1,0.3-0.3,0.4-0.4c0.2-0.1,0.2-0.3,0.7-0.2l0,0c0.1,0,0.1,0.1,0.2,0.1c0.2,0.4,0,0.6-0.2,0.8c-0.2,0.2-0.4,0.3-0.5,0.5
			c-0.4,0.3-0.8,0.5-1.2,0.7c-0.4,0.2-0.9,0.3-1.3,0.4c-0.2,0.1-0.4,0.1-0.7,0.2c-0.2,0-0.4,0.1-0.7,0
			C339.2,49.5,339.2,49.4,339.2,49.3C339.2,49.3,339.2,49.3,339.2,49.3L339.2,49.3z"/>
	</g>
	<g>
		<path class="st0" d="M347.6,57.8c-0.1-0.3,0-0.5,0-0.7c0-0.2,0.1-0.4,0.2-0.7c0.1-0.4,0.3-0.9,0.4-1.3c0.2-0.4,0.4-0.9,0.7-1.2
			c0.2-0.2,0.3-0.4,0.5-0.5c0.2-0.2,0.4-0.4,0.8-0.2c0.1,0,0.1,0.1,0.1,0.2l0,0c0.1,0.5-0.1,0.5-0.2,0.7c-0.1,0.1-0.3,0.3-0.4,0.4
			c-0.2,0.3-0.5,0.7-0.7,1c-0.2,0.4-0.4,0.7-0.6,1.1c-0.1,0.2-0.2,0.4-0.3,0.6c-0.1,0.2-0.1,0.4-0.3,0.6l0,0
			C347.7,57.9,347.7,57.9,347.6,57.8C347.6,57.8,347.6,57.8,347.6,57.8z"/>
	</g>
</g>
<g id="Leg_8_">
	<g>
		<path class="st0" d="M372.7,35.4c-0.1,0.3-0.3,0.4-0.4,0.5l-0.5,0.3c-0.3,0.2-0.7,0.4-1,0.6c-0.3,0.2-0.7,0.3-1.1,0.4
			c-0.4,0.1-0.7,0.2-1.3-0.2c-0.1,0-0.1-0.1-0.1-0.2c0.2-0.6,0.5-0.9,0.8-1c0.3-0.2,0.7-0.3,1.1-0.4c0.4-0.1,0.8-0.2,1.1-0.3
			l0.6-0.1c0.2,0,0.4-0.1,0.7,0.1C372.7,35.3,372.7,35.4,372.7,35.4z"/>
	</g>
	<g>
		<path class="st0" d="M374.9,40.9c-0.4,0-0.5-0.3-0.7-0.5c-0.2-0.2-0.3-0.4-0.5-0.6c-0.3-0.4-0.5-0.9-0.7-1.5
			c-0.1-0.5-0.2-1-0.4-1.4c-0.1-0.2-0.1-0.5-0.2-0.7c-0.1-0.2-0.2-0.5,0-0.8l0,0c0-0.1,0.1-0.1,0.2-0.1c0.4,0.1,0.5,0.4,0.6,0.6
			c0.1,0.2,0.2,0.5,0.3,0.7c0.2,0.5,0.3,1,0.4,1.5c0.1,0.4,0.3,0.9,0.5,1.3c0.1,0.2,0.2,0.4,0.4,0.6c0.1,0.2,0.3,0.4,0.3,0.7l0,0
			C375.1,40.9,375,40.9,374.9,40.9z"/>
	</g>
	<g>
		<path class="st0" d="M380.4,42.8c-0.3,0.1-0.5,0-0.7,0l-0.7-0.1c-0.5-0.1-0.9-0.2-1.4-0.3c-0.5-0.2-0.9-0.3-1.4-0.5
			c-0.2-0.1-0.4-0.2-0.7-0.3c-0.2-0.1-0.4-0.2-0.5-0.5c0-0.1,0-0.1,0.1-0.2c0,0,0,0,0,0l0,0c0.3,0,0.5,0.1,0.7,0.2
			c0.2,0.1,0.4,0.2,0.6,0.3c0.4,0.2,0.9,0.3,1.3,0.5c0.4,0.2,0.9,0.3,1.4,0.4l0.7,0.2c0.2,0.1,0.5,0.1,0.7,0.2
			C380.5,42.6,380.5,42.7,380.4,42.8C380.4,42.8,380.4,42.8,380.4,42.8z"/>
	</g>
	<g>
		<path class="st0" d="M380.3,41.6c0.1,0.2,0.2,0.4,0.2,0.6c0,0.2,0.1,0.4,0,0.6c-0.2,0.4-0.4,0.7-0.7,1c0,0-0.1,0-0.1,0
			c0,0,0-0.1,0-0.1l0,0c0.2-0.3,0.4-0.6,0.5-0.9c0.1-0.3,0-0.7-0.1-1l0,0c0-0.1,0-0.1,0.1-0.1C380.2,41.5,380.3,41.6,380.3,41.6z"/>
	</g>
	<path class="st1" d="M373,34.1c0,0-1,0.6-1.4,1.7"/>
	<path class="st1" d="M374.9,38.3c0,0-0.8-1.1-1.6-1.1"/>
	<path class="st1" d="M375.3,39.4c0,0-1.1-0.8-1.5-0.4"/>
	<path class="st1" d="M372.8,40c0,0,0.2-1.4,0.8-1.5"/>
	<path class="st1" d="M372.7,38.6c0,0,0.1-1.2,0.6-1.4"/>
	<path class="st1" d="M373.7,41.3c0,0,0-1,0.5-1.6"/>
	<path class="st1" d="M376.5,40.6c0,0-1.4,0-1.9-0.2"/>
	<path class="st1" d="M375.3,42.1c0,0-1-1.3-0.9-2"/>
</g>
<g id="Leg_7_">
	<g>
		<path class="st0" d="M367.1,49.3c-0.6-0.4-0.4-0.8-0.4-1.1l0.1-1.1c0-0.7,0.1-1.4,0.2-2.2c0.1-0.7,0.1-1.4,0.2-2.2l0.1-1.1
			c0-0.2,0-0.3,0.1-0.5c0-0.1,0.1-0.2,0.2-0.3c0.1-0.1,0.2-0.1,0.3-0.3c0.1,0,0.3,0.2,0.4,0.2c0.1,0.1,0.1,0.2,0.2,0.3
			c0.1,0.2,0.1,0.4,0.1,0.6l0,1.1c0,0.7-0.1,1.5-0.1,2.2c-0.1,0.7-0.1,1.5-0.3,2.2l-0.2,1.1c-0.1,0.4,0.1,0.7-0.6,1
			C367.3,49.4,367.2,49.4,367.1,49.3z"/>
	</g>
	<g>
		<path class="st0" d="M367,58.9c-0.1-0.4-0.2-0.8-0.2-1.2l-0.1-1.2l-0.1-2.4c0-0.8-0.1-1.6,0-2.4c0-0.4,0-0.8,0.1-1.2
			c0-0.4,0.1-0.9,0.5-1.2c0.1,0,0.1,0,0.2,0c0,0,0,0,0,0l0,0c0.2,0.4,0.1,0.8,0.1,1.2c0,0.4-0.1,0.8-0.1,1.2c0,0.8,0,1.6,0,2.4
			l0,2.4l0,1.2c0,0.4,0,0.8-0.1,1.2C367.2,59,367.2,59,367,58.9C367.1,59,367,59,367,58.9z"/>
	</g>
	<g>
		<path class="st0" d="M367.8,40.8c-0.1,0.6-0.3,0.6-0.5,0.6l-0.6,0.2c-0.4,0.1-0.8,0.2-1.1,0.2c-0.4,0-0.8,0-1.2,0
			c-0.4,0-0.8,0-1.2-0.5c-0.1-0.1-0.1-0.1,0-0.2c0.3-0.6,0.7-0.7,1.1-0.8c0.4-0.1,0.8-0.2,1.1-0.2c0.4-0.1,0.8-0.1,1.2-0.1l0.6,0
			c0.2,0,0.4-0.1,0.6,0.5C367.8,40.6,367.8,40.7,367.8,40.8z"/>
	</g>
	<g>
		<path class="st0" d="M368.2,58.5c-0.2,0.4-0.6,0.6-1.1,0.6c-0.4,0-0.8-0.2-1.1-0.4c0,0,0-0.1,0-0.1c0,0,0.1,0,0.1,0l0,0
			c0.4,0.1,0.7,0.2,1,0.1c0.2,0,0.3,0,0.5-0.1c0.2-0.1,0.3-0.1,0.5-0.2l0,0C368.1,58.3,368.1,58.4,368.2,58.5
			C368.2,58.5,368.2,58.5,368.2,58.5z"/>
	</g>
	<path class="st1" d="M367.3,48.7c0,0.1,1.2,1.7,1.2,1.7"/>
	<path class="st1" d="M365.9,50c0,0,1.4-1.3,1.5-1.6"/>
	<path class="st1" d="M365.8,48.4c0,0,1.6-1.3,1.6-1.5"/>
	<path class="st1" d="M366,47c0,0,1.3-0.9,1.6-1.3"/>
	<path class="st1" d="M366.5,44.3c0,0,1.2-0.8,1.2-1.1"/>
	<path class="st1" d="M366.9,43.2c0,0,1-0.6,1-0.8"/>
	<path class="st1" d="M369,42.9c0,0-1.2-0.8-1.2-1.3"/>
	<path class="st1" d="M369,43.9c0,0-1-0.6-1.1-1"/>
	<path class="st1" d="M368.9,45.3c0,0-1.2-0.6-1.2-1c0-0.4-1.6,1.2-1.6,1.2"/>
	<path class="st1" d="M368.7,46.7c0,0-1-1-1.1-1.3"/>
	<path class="st1" d="M368.5,47.5c-0.1-0.1-1-0.6-1-1"/>
	<path class="st1" d="M367.4,47.9c0,0.5,0.9,0.9,0.9,0.9"/>
	<path class="st1" d="M369.2,40.3c0,0-1.3-0.9-2.2,0.5"/>
	<path class="st1" d="M366.6,42.6c0,0-0.5-1-0.4-1.7"/>
	<path class="st1" d="M365.5,42.8c0,0-0.5-1.3-0.1-1.8"/>
	<path class="st1" d="M364.7,42.7c0,0-0.5-1-0.1-1.7"/>
</g>
<g id="Leg_6_">
	<g>
		<path class="st0" d="M353.3,57.9c0-0.9,0.6-1,1.1-1.4l1.3-1.1l2.6-2.2l2.7-2.1c0.4-0.4,0.9-0.7,1.3-1.1c0.2-0.2,0.4-0.4,0.6-0.5
			c0.2-0.2,0.5-0.2,0.8-0.4c0.2,0.4,0,0.8-0.1,1c-0.1,0.3-0.4,0.5-0.6,0.7c-0.4,0.4-0.8,0.8-1.2,1.2c-0.8,0.8-1.7,1.5-2.6,2.3
			c-0.9,0.7-1.8,1.4-2.7,2.1l-1.4,1c-0.5,0.3-0.8,0.8-1.7,0.6C353.3,58.1,353.2,58,353.3,57.9z"/>
	</g>
	<g>
		<path class="st0" d="M349.4,68.5c0-0.6,0.4-0.9,0.6-1.3c0.3-0.4,0.5-0.8,0.7-1.2c0.4-0.8,0.8-1.7,1.1-2.5c0.3-0.9,0.5-1.8,0.7-2.7
			c0.1-0.5,0.2-0.9,0.2-1.4c0.1-0.5,0.1-0.9,0.4-1.4c0-0.1,0.1-0.1,0.2,0c0,0,0,0,0,0c0.2,0.5,0.2,1,0.1,1.5c-0.1,0.5-0.1,1-0.2,1.4
			c-0.1,1-0.3,1.9-0.6,2.9c-0.3,0.9-0.7,1.8-1.2,2.7c-0.2,0.4-0.5,0.8-0.8,1.2c-0.3,0.4-0.5,0.8-1.1,1
			C349.5,68.7,349.5,68.6,349.4,68.5C349.4,68.6,349.4,68.6,349.4,68.5L349.4,68.5z"/>
	</g>
	<g>
		<path class="st0" d="M363.6,49.2c-0.9,0.4-1.2,0.1-1.6,0c-0.4-0.2-0.8-0.3-1.1-0.6c-0.3-0.2-0.6-0.5-0.9-0.8
			c-0.3-0.3-0.5-0.7-0.1-1.7c0-0.1,0.1-0.1,0.1-0.2c0.9-0.5,1.4-0.4,1.7-0.2c0.4,0.2,0.7,0.5,1,0.8c0.3,0.3,0.5,0.6,0.7,1
			c0.2,0.4,0.6,0.6,0.3,1.5C363.7,49.1,363.7,49.2,363.6,49.2z"/>
	</g>
	<path class="st1" d="M360.2,49.3c0,0,0-2.1,0.8-2.5"/>
	<path class="st1" d="M361.3,49.7c0,0,0.5-1.4,1.1-1.6c0.9-0.4,2.8,0.1,2.8,0.1"/>
	<path class="st1" d="M363,51.7c0,0,0.3-1.6-0.1-1.6"/>
	<path class="st1" d="M360.4,50.8c0,0,1.6-0.2,1.8,0"/>
	<path class="st1" d="M361.6,52.9c0,0,0.5-1.3,0.1-1.6"/>
	<path class="st1" d="M359.1,51.8c0,0,1.8-0.2,2.1,0"/>
	<path class="st1" d="M360.5,54.4c0,0,0.6-2.1,0.2-2.2"/>
	<path class="st1" d="M357.6,53c0,0,1.9-0.2,2,0"/>
	<path class="st1" d="M359.2,55.1c0,0,0.4-1.5,0-1.6"/>
	<path class="st1" d="M355.9,54.2c0,0,2.2-0.5,2.4-0.1"/>
	<path class="st1" d="M357.8,56.5c0,0,0.3-1.7,0-1.9"/>
	<path class="st1" d="M356.3,57.6c0,0,0.9-1.8,0.4-2.1c-0.3-0.3-2.2,0.1-2.2,0.1"/>
	<path class="st1" d="M355.2,58.2c0,0,0.7-1.9,0.4-1.9"/>
	<path class="st1" d="M353.1,56.7c0,0,1.5-0.3,1.8,0.1"/>
	<path class="st1" d="M354.2,58.9c0,0-0.1-1.3,0.3-1.7"/>
	<g>
		<path class="st0" d="M351.1,68.8c-0.3,0.1-0.6,0.2-0.9,0.2c-0.2,0-0.3,0-0.5-0.1c-0.2,0-0.4-0.2-0.5-0.4c-0.2-0.3-0.2-0.6-0.2-1
			c0-0.3,0-0.6,0-0.9c0-0.1,0.1-0.1,0.1-0.1c0,0,0.1,0,0.1,0.1c0,0.3,0.1,0.6,0.1,0.9c0.1,0.3,0.1,0.6,0.2,0.8
			c0.1,0.2,0.3,0.2,0.6,0.3c0.3,0,0.6,0,0.9,0l0,0C351.1,68.6,351.2,68.7,351.1,68.8C351.2,68.8,351.1,68.8,351.1,68.8z"/>
	</g>
</g>
<g id="Head_1_">
	<g>
		<path class="st0" d="M340.4,3.7c2.9,0.3,5.8,1,8.5,2.2c2.7,1.1,5.3,2.6,7.7,4.3c2.4,1.7,4.5,3.8,6.5,5.9c2,2.2,3.7,4.6,5.2,7.1
			l0,0.1c0.2,0.2,0.4,0.4,0.4,0.6c0,0.3-0.2,0.5-0.5,0.6c-0.2,0-0.5-0.1-0.5-0.3c-0.1-0.2,0-0.5,0.1-0.8l0,0.1
			c-1.4-2.5-3.1-4.9-5.1-7.1c-1.9-2.2-4-4.2-6.4-5.9c-2.3-1.7-4.9-3.2-7.6-4.3c-2.7-1.1-5.5-1.9-8.4-2.2c-0.1,0-0.1-0.1-0.1-0.1
			C340.3,3.7,340.4,3.7,340.4,3.7z"/>
	</g>
	<g>
		<path class="st0" d="M393.2,56.7c-0.4-2.9-1.1-5.7-2.2-8.4c-1.1-2.7-2.6-5.2-4.3-7.6c-1.7-2.3-3.8-4.5-5.9-6.4
			c-2.2-1.9-4.6-3.7-7.1-5.1l0.1,0c-0.3,0.1-0.5,0.2-0.8,0.1c-0.3-0.1-0.4-0.4-0.3-0.7c0.1-0.2,0.3-0.4,0.5-0.3
			c0.2,0,0.5,0.2,0.6,0.4l0.1,0c2.6,1.5,4.9,3.2,7.1,5.2c2.2,2,4.2,4.1,5.9,6.5c1.7,2.4,3.2,4.9,4.3,7.7c1.1,2.7,1.8,5.6,2.2,8.5
			c0,0.1,0,0.1-0.1,0.1C393.2,56.8,393.2,56.7,393.2,56.7z"/>
	</g>
	<path class="st0" d="M369,28.1l-2.3-2.3c0,0,0-1.3,1.4-1.8c1.4-0.5,3.5,1.5,3.5,1.5s2,2.1,1.5,3.5c-0.5,1.4-1.8,1.4-1.8,1.4
		L369,28.1z"/>
</g>
<g id="Group_12">
	<g id="Group_53">
		<g>
			<g>
				<defs>
					<rect id="SVGID_1_" y="0.7" width="395.2" height="109.3"/>
				</defs>
				<clipPath id="SVGID_2_">
					<use xlink:href="#SVGID_1_"  style="overflow:visible;"/>
				</clipPath>
				<g id="Group_52" class="st2">
					<g id="Group_11">
						<circle id="Ellipse_6" class="st3" cx="356" cy="41.7" r="29.8"/>
					</g>
				</g>
			</g>
		</g>
	</g>
</g>
<path id="Path_19" class="st4" d="M368.2,55.2"/>
<g id="Group_14">
	<g id="Group_55">
		<g>
			<g>
				<defs>
					<rect id="SVGID_3_" width="395.2" height="109.3"/>
				</defs>
				<clipPath id="SVGID_4_">
					<use xlink:href="#SVGID_3_"  style="overflow:visible;"/>
				</clipPath>
				<g id="Group_54" class="st5">
					<g id="Group_13">
						<line id="Line_1" class="st6" x1="356.2" y1="0.9" x2="356.2" y2="81.5"/>
						<line id="Line_2" class="st6" x1="0.9" y1="40.5" x2="394.3" y2="40.5"/>
						<path id="Path_25" class="st7" d="M308.9,72.2l8.1-26.6l1.4-4.7c0.6-2.1,1-4.3,1.2-6.6c0.1-1.7-0.3-3.3-1.3-4.7
							c-1-1.2-2.4-2.1-3.9-2.6c-2.1-0.6-4.3-0.9-6.5-0.8h-21.1l-14.1,46h12.7l10.7-34.8h5.1c1,0,2,0,3.1,0.2c0.6,0,1.1,0.3,1.5,0.7
							c0.3,0.5,0.3,1.1,0.2,1.6c-0.2,1-0.4,2-0.8,3l-0.8,2.8l-8.1,26.6L308.9,72.2z M260.4,54.3c-1,1.5-2.2,2.9-3.5,4.1
							c-1.3,1.1-2.7,2-4.2,2.7c-1.4,0.6-3,1-4.5,1c-1.4,0-2.7-0.3-3.9-1c-1.1-0.6-2-1.6-2.5-2.7c-0.6-1.3-0.9-2.7-1-4.1
							c0-1.8,0.2-3.5,0.8-5.2c0.6-1.8,1.4-3.6,2.4-5.2c1-1.5,2.1-2.9,3.5-4.1c1.2-1.1,2.7-2,4.2-2.7c1.4-0.6,3-1,4.5-1
							c1.4,0,2.7,0.3,3.9,1c1.1,0.7,2,1.6,2.5,2.7c0.6,1.3,1,2.7,1,4.1c0,1.8-0.2,3.5-0.8,5.2C262.3,51,261.5,52.7,260.4,54.3
							 M277.1,39.9c-0.3-2.7-1.3-5.3-2.8-7.6c-1.5-2.2-3.6-4-6-5.1c-2.7-1.3-5.7-1.9-8.7-1.9c-3.4,0-6.7,0.7-9.8,1.9
							c-3.3,1.2-6.4,3-9.2,5.1c-2.8,2.2-5.3,4.7-7.4,7.6c-2.1,2.8-3.7,5.9-4.7,9.3c-1,3-1.3,6.2-1,9.3c0.3,2.7,1.3,5.3,2.8,7.6
							c1.5,2.2,3.6,4,6,5.1c2.7,1.3,5.7,1.9,8.7,1.9c3.4,0,6.7-0.6,9.9-1.9c3.3-1.3,6.4-3,9.1-5.1c2.8-2.2,5.3-4.7,7.4-7.6
							c2.1-2.8,3.7-5.9,4.7-9.3C277.1,46.2,277.4,43,277.1,39.9 M217.3,72.2l8.8-28.6h-12.6l-8.7,28.6H217.3z M228,37.3l3.4-11.2
							h-12.6l-3.4,11.2H228z M207.9,49.5c-0.4-2.5-1.2-4.9-2.4-7.1l-1.9-3.6l-1.6-3c-0.5-1-0.9-1.8-1.2-2.5
							c-0.2-0.6-0.4-1.1-0.6-1.7c-0.1-0.4-0.2-0.9-0.1-1.4c0.1-0.5,0.2-1,0.3-1.4s0.2-0.7,0.3-1s0.3-0.8,0.7-1.6h-12.9
							c-0.5,0.9-0.9,1.7-1.2,2.2c-0.3,0.6-0.5,1.3-0.7,2c-0.9,2.5-0.9,5.3,0.1,7.8c0.4,1,0.8,1.9,1.3,2.8c0.6,1,1.3,2.4,2.3,4.1
							l1.5,2.6c0.6,1,1.2,2.1,1.7,3.2c0.4,0.8,0.6,1.7,0.9,2.6c0.2,0.9,0.1,1.8-0.1,2.7c-0.3,1.1-0.9,2-1.7,2.8
							c-0.7,0.8-1.6,1.3-2.6,1.6c-1.2,0.3-2.5,0.4-3.7,0.4h-11l-3.4,11.2h9.3c2.1,0,3.9,0,5.3-0.1c1.2,0,2.5-0.1,3.7-0.3
							c1-0.1,1.9-0.3,2.8-0.6c0.9-0.3,1.8-0.6,2.6-1c1.3-0.6,2.6-1.3,3.7-2.2c1.2-1,2.3-2,3.3-3.2c1-1.2,1.9-2.5,2.7-3.9
							s1.4-2.9,1.9-4.4C207.9,54.2,208.2,51.8,207.9,49.5 M168.4,72.2l8.8-28.6h-12.6l-8.8,28.6H168.4z M179.1,37.3l3.4-11.2h-12.6
							l-3.4,11.2H179.1z M151.9,72.2l3.4-11.2H154c-1.4,0-2.7,0-3.7-0.1c-1,0-1.9-0.2-2.9-0.3c-0.7-0.1-1.5-0.3-2.2-0.6
							c-0.6-0.2-1.2-0.5-1.7-0.8c-1.4-0.9-2.3-2.4-2.6-4c-0.4-2-0.2-4.1,0.5-6.1c0.9-3.2,2.8-6,5.3-8.2c2.6-2.1,5.8-3.3,9.2-3.5
							c0.9-0.1,1.8-0.1,2.6-0.2s1.7,0,2.8,0h1.4l3.4-11.2H163c-2.4,0-4.5,0.1-6.4,0.2c-1.7,0.1-3.4,0.3-5,0.6
							c-1.4,0.3-2.9,0.7-4.2,1.2c-1.4,0.5-2.7,1.2-4,1.9c-1.8,1-3.5,2.2-5,3.6c-1.6,1.4-3.1,2.9-4.4,4.6c-1.3,1.7-2.5,3.4-3.5,5.3
							c-1,1.8-1.8,3.7-2.4,5.7c-0.8,2.6-1.2,5.3-1.2,8.1c0.1,2.3,0.6,4.6,1.6,6.7c1,2,2.4,3.6,4.1,4.9c1.9,1.4,4.1,2.3,6.5,2.6
							c1.4,0.2,2.7,0.4,4.1,0.5c1.4,0.1,3.1,0.2,5.1,0.2L151.9,72.2z M117.9,72.2l3.4-11.2h-18l1.9-6.3h18l3.4-11.2H95.9l-8.7,28.6
							L117.9,72.2z M128.5,37.3l3.4-11.2h-30.7l-3.4,11.2H128.5z M91.4,27.5c-0.7-0.3-1.3-0.6-1.8-0.8c-0.6-0.2-1.2-0.3-1.8-0.4
							c-0.7-0.1-1.5-0.1-2.5-0.2c-1,0-2.3,0-3.9,0H65.3l-3.4,11.1H78c0.3,0,0.5,0,0.8,0.1c0.5,0,0.9,0.2,1.3,0.4s0.6,0.6,0.7,1.1
							s0.1,1.1-0.1,1.6c-0.2,0.8-0.7,1.6-1.4,2.1c-0.7,0.6-1.5,0.9-2.4,1c-0.3,0-0.6,0-0.8,0s-0.6,0-0.9,0H60l-3.4,11.2h11.3
							c0.7,0,1.5,0,2.2,0.2c0.6,0.1,1.2,0.2,1.8,0.5c0.8,0.3,1.4,1.1,1.4,1.9c0.1,1.4-0.1,2.8-0.6,4.1l-0.5,1.8l-2.7,8.9h12.7
							l2.7-8.9l1-3.3c0.6-1.6,0.9-3.3,1-5c0.1-1-0.2-2-0.9-2.8c-0.2-0.3-0.5-0.6-0.8-0.8s-0.5-0.4-0.8-0.6c-0.3-0.2-0.7-0.3-1-0.4
							c-0.4-0.1-0.9-0.2-1.5-0.3c6.5-1.5,10.6-5.2,12.4-11S95.1,29.3,91.4,27.5 M58.4,36.5c0.1-1.2,0.1-2.5-0.1-3.7
							c-0.2-1-0.5-2-1.1-2.9c-0.5-0.8-1.1-1.5-1.9-2c-0.5-0.3-1.1-0.6-1.6-0.9c-0.6-0.2-1.2-0.4-1.8-0.5c-0.8-0.1-1.6-0.2-2.4-0.2
							c-1,0-2.2-0.1-3.6-0.1H29.5l-3.4,11.1h15.5c0.3,0,0.6,0,0.8,0.1c0.5,0,0.9,0.2,1.3,0.4c0.4,0.2,0.6,0.6,0.7,1.1
							c0.1,0.5,0.1,1.1-0.1,1.6c-0.2,0.8-0.7,1.6-1.4,2.1c-0.7,0.6-1.5,0.9-2.4,1c-0.3,0-0.6,0-0.9,0s-0.6,0-0.9,0H24.2l-8.7,28.6
							h12.7l5.3-17.4h3.1c1.3,0,2.3,0,3.1,0c0.7,0,1.5-0.1,2.2-0.2c0.6-0.1,1.2-0.2,1.8-0.4s1.3-0.4,2.1-0.6
							c2.8-0.9,5.3-2.6,7.2-4.8c2.1-2.4,3.7-5.2,4.6-8.2C58,39.3,58.3,37.9,58.4,36.5"/>
						<path id="Path_26" class="st8" d="M308.9,72.2l8.1-26.6l1.4-4.7c0.6-2.1,1-4.3,1.2-6.6c0.1-1.7-0.3-3.3-1.3-4.7
							c-1-1.2-2.4-2.1-3.9-2.6c-2.1-0.6-4.3-0.9-6.5-0.8h-21.1l-14.1,46h12.7l10.7-34.8h5.1c1,0,2,0,3.1,0.2c0.6,0,1.1,0.3,1.5,0.7
							c0.3,0.5,0.3,1.1,0.2,1.6c-0.2,1-0.4,2-0.8,3l-0.8,2.8l-8.1,26.6L308.9,72.2z M260.4,54.3c-1,1.5-2.2,2.9-3.5,4.1
							c-1.3,1.1-2.7,2-4.2,2.7c-1.4,0.6-3,1-4.5,1c-1.4,0-2.7-0.3-3.9-1c-1.1-0.6-2-1.6-2.5-2.7c-0.6-1.3-0.9-2.7-1-4.1
							c0-1.8,0.2-3.5,0.8-5.2c0.6-1.8,1.4-3.6,2.4-5.2c1-1.5,2.1-2.9,3.5-4.1c1.2-1.1,2.7-2,4.2-2.7c1.4-0.6,3-1,4.5-1
							c1.4,0,2.7,0.3,3.9,1c1.1,0.7,2,1.6,2.5,2.7c0.6,1.3,1,2.7,1,4.1c0,1.8-0.2,3.5-0.8,5.2C262.3,51,261.5,52.7,260.4,54.3z
							 M277.1,39.9c-0.3-2.7-1.3-5.3-2.8-7.6c-1.5-2.2-3.6-4-6-5.1c-2.7-1.3-5.7-1.9-8.7-1.9c-3.4,0-6.7,0.7-9.8,1.9
							c-3.3,1.2-6.4,3-9.2,5.1c-2.8,2.2-5.3,4.7-7.4,7.6c-2.1,2.8-3.7,5.9-4.7,9.3c-1,3-1.3,6.2-1,9.3c0.3,2.7,1.3,5.3,2.8,7.6
							c1.5,2.2,3.6,4,6,5.1c2.7,1.3,5.7,1.9,8.7,1.9c3.4,0,6.7-0.6,9.9-1.9c3.3-1.3,6.4-3,9.2-5.1c2.8-2.2,5.3-4.7,7.4-7.6
							c2.1-2.8,3.7-5.9,4.7-9.3C277.1,46.2,277.4,43,277.1,39.9z M217.3,72.2l8.8-28.6h-12.7l-8.7,28.6H217.3z M228,37.3l3.4-11.2
							h-12.7l-3.4,11.2H228z M207.9,49.5c-0.4-2.5-1.2-4.9-2.4-7.1l-1.9-3.6l-1.6-3c-0.5-1-0.9-1.8-1.2-2.5
							c-0.2-0.6-0.4-1.1-0.6-1.7c-0.1-0.4-0.2-0.9-0.1-1.4c0.1-0.5,0.2-1,0.3-1.4s0.2-0.7,0.3-1s0.3-0.8,0.7-1.6h-13
							c-0.5,0.9-0.9,1.7-1.2,2.2c-0.3,0.6-0.5,1.3-0.7,2c-0.9,2.5-0.9,5.3,0.1,7.8c0.4,1,0.8,1.9,1.3,2.8c0.6,1,1.3,2.4,2.3,4.1
							l1.5,2.6c0.6,1,1.2,2.1,1.7,3.2c0.4,0.8,0.6,1.7,0.9,2.6c0.2,0.9,0.1,1.8-0.1,2.7c-0.3,1.1-0.9,2-1.7,2.8
							c-0.7,0.8-1.6,1.3-2.6,1.6c-1.2,0.3-2.5,0.4-3.7,0.4h-11l-3.4,11.2h9.3c2.1,0,3.9,0,5.3-0.1c1.2,0,2.5-0.1,3.7-0.3
							c1-0.1,1.9-0.3,2.8-0.6c0.9-0.3,1.8-0.6,2.6-1c1.3-0.6,2.6-1.3,3.7-2.2c1.2-1,2.3-2,3.3-3.2c1-1.2,1.9-2.5,2.7-3.9
							s1.4-2.9,1.9-4.4C207.9,54.2,208.2,51.8,207.9,49.5L207.9,49.5z M168.4,72.2l8.8-28.6h-12.6l-8.8,28.6H168.4z M179.1,37.3
							l3.4-11.2h-12.6l-3.4,11.2H179.1z M151.9,72.2l3.4-11.2H154c-1.4,0-2.7,0-3.7-0.1c-1,0-1.9-0.2-2.9-0.3
							c-0.7-0.1-1.5-0.3-2.2-0.6c-0.6-0.2-1.2-0.5-1.7-0.8c-1.4-0.9-2.3-2.4-2.6-4c-0.4-2-0.2-4.1,0.5-6.1c0.9-3.2,2.8-6,5.3-8.2
							c2.6-2.1,5.8-3.3,9.2-3.5c0.9-0.1,1.8-0.1,2.6-0.2s1.7,0,2.8,0h1.4l3.4-11.2H163c-2.4,0-4.5,0.1-6.4,0.2
							c-1.7,0.1-3.4,0.3-5,0.6c-1.4,0.3-2.9,0.7-4.2,1.2c-1.4,0.5-2.7,1.2-4,1.9c-1.8,1-3.5,2.2-5,3.6c-1.6,1.4-3.1,2.9-4.4,4.6
							c-1.3,1.7-2.5,3.4-3.5,5.3c-1,1.8-1.8,3.7-2.4,5.7c-0.8,2.6-1.2,5.3-1.2,8.1c0.1,2.3,0.6,4.6,1.6,6.7c1,2,2.4,3.6,4.1,4.9
							c1.9,1.4,4.1,2.3,6.5,2.6c1.4,0.2,2.7,0.4,4.1,0.5c1.4,0.1,3.1,0.2,5.1,0.2L151.9,72.2z M117.9,72.2l3.4-11.2h-18l1.9-6.3h18
							l3.4-11.2H95.9l-8.7,28.6L117.9,72.2z M128.5,37.3l3.4-11.2h-30.7l-3.4,11.2H128.5z M91.4,27.5c-0.7-0.3-1.3-0.6-1.8-0.8
							c-0.6-0.2-1.2-0.3-1.8-0.4c-0.7-0.1-1.5-0.1-2.5-0.2c-1,0-2.3,0-3.9,0H65.3l-3.4,11.1H78c0.3,0,0.5,0,0.8,0.1
							c0.5,0,0.9,0.2,1.3,0.4s0.6,0.6,0.7,1.1s0.1,1.1-0.1,1.6c-0.2,0.8-0.7,1.6-1.4,2.1c-0.7,0.6-1.5,0.9-2.4,1c-0.3,0-0.6,0-0.8,0
							s-0.6,0-0.9,0H60l-3.4,11.2h11.3c0.7,0,1.5,0,2.2,0.2c0.6,0.1,1.2,0.2,1.8,0.5c0.8,0.3,1.4,1.1,1.4,1.9
							c0.1,1.4-0.1,2.8-0.6,4.1l-0.5,1.8l-2.7,8.9h12.7l2.7-8.9l1-3.3c0.6-1.6,0.9-3.3,1-5c0.1-1-0.2-2-0.9-2.8
							c-0.2-0.3-0.5-0.6-0.8-0.8s-0.5-0.4-0.8-0.6c-0.3-0.2-0.7-0.3-1-0.4c-0.4-0.1-0.9-0.2-1.5-0.3c6.5-1.5,10.6-5.2,12.4-11
							S95.1,29.3,91.4,27.5L91.4,27.5z"/>
					</g>
				</g>
			</g>
		</g>
	</g>
</g>
</svg>
