<svg id="Layer_1" data-name="Layer 1" xmlns="http://www.w3.org/2000/svg" viewBox="0 0 166.04 107.39"><defs><style>.cls-1{fill:#004b96;}.cls-2{fill:#1e1b58;}.cls-3{fill:#cad400;}.cls-4{fill:#fff;}</style></defs><path class="cls-1" d="M108.88,25.62A25.62,25.62,0,1,1,83.26,0,25.62,25.62,0,0,1,108.88,25.62Z"/><path class="cls-2" d="M4.93,103.92c3.41.11,6.77-.12,10.13-.23,1.79,0,3.53-.28,5.32-.5-.05.61-.17,1.12-.17,1.68s.12,1.12.17,1.68H0V68.41c.78.06,1.62.17,2.46.17s1.57-.11,2.47-.17Z"/><path class="cls-2" d="M37.52,79.61c7.67,0,13,5.32,13,13.67,0,7.11-4.76,13.88-14,13.88-7.56,0-13.72-5.54-13.21-14C23.3,85,29.46,79.61,37.52,79.61ZM28.22,94c0,5.54,2.36,11.48,8.74,11.48,6.55,0,8.62-8.07,8.62-12.43,0-5-1.9-11.65-8.12-11.65C30.35,81.35,28.22,88,28.22,94Z"/><path class="cls-2" d="M78.06,106.72c-.84-.06-1.51-.17-2.24-.17s-1.51.11-2.24.17v-5.38c-2.29,3.92-5.43,5.82-9.63,5.82-6.32,0-11.2-4.42-11.2-13.55,0-7.73,4.65-14,12-14,3.92,0,6.83,2.07,8.79,5.43V64.66c.73.06,1.46.17,2.24.17s1.4-.11,2.24-.17ZM66,81.91c-7.16,0-8.34,6.72-8.34,12.49,0,4.81,1.79,10.75,7.67,10.75,6.5,0,8.23-7.39,8.23-12.55C73.58,87.9,71.74,81.91,66,81.91Z"/><path class="cls-2" d="M88,73.23a2.86,2.86,0,0,1,0-5.71,2.86,2.86,0,1,1,0,5.71Zm2.24,33.49c-.84-.06-1.51-.17-2.24-.17s-1.51.11-2.24.17V80c.73.06,1.46.17,2.24.17s1.4-.11,2.24-.17Z"/><path class="cls-3" d="M104.33,89.86c0,9.86,2.8,15,12.38,15,8.9,0,12.09-6.44,12.09-15.51V68.41a12.79,12.79,0,0,0,1.57.17,15.62,15.62,0,0,0,1.57-.17V90.7c0,11.09-6.5,16.69-16.35,16.69-5.55,0-9.24-1.29-12.16-3.92-3.52-3.19-4-8.18-4-12.66V68.41c.79.06,1.63.17,2.47.17s1.56-.11,2.46-.17Z"/><path class="cls-3" d="M152.66,80.62l-4.76,4.82c4.48,5.15,9.13,10.19,13.61,15.39l4.53,5.61v.28c-1.12-.06-2.13-.17-3.08-.17s-2.13.11-3.13.17a57.87,57.87,0,0,0-3.87-5.1L143.75,87.34c-.28-.22-.95-.39-.95-.17v19.55c-.89-.06-1.68-.17-2.46-.17s-1.68.11-2.46.17V68.41c.78.06,1.62.17,2.46.17s1.57-.11,2.46-.17V85.72c.06.33.84.11,1.4-.34a34.89,34.89,0,0,0,3-2.74L161,68.41c.72.06,1.45.17,2.24.17s1.4-.11,2.18-.17Z"/><path class="cls-3" d="M96.39,35.41a12.66,12.66,0,0,1-1.52.37h0a53.91,53.91,0,0,1-6.74.71v2q3.32,0,5.93.14c0,.12,0,.23,0,.35,0,1.19,0,2.35-.11,3.49a10.58,10.58,0,0,1-4.35.89,7.15,7.15,0,0,1-5.81-2.48A8.79,8.79,0,0,1,81.9,35a8.58,8.58,0,0,1,2-6,7.1,7.1,0,0,1,5.49-2.3,8.21,8.21,0,0,1,4.34,1.19,7.23,7.23,0,0,1,1.62,1.36h.27a6.16,6.16,0,0,1,.67-2,13.4,13.4,0,0,0-6.67-1.54q-6.12,0-8.79,3.84a9.89,9.89,0,0,0-1.61,5.73,8.56,8.56,0,0,0,2.84,6.87,10.38,10.38,0,0,0,7,2.21,22.57,22.57,0,0,0,7.13-1.18c-.06-.59-.08-1.53-.08-2.84C96.15,38.74,96.25,36.83,96.39,35.41Z"/><path class="cls-4" d="M88.1,36.49c-1.22,0-2.46.09-3.78.09-.69,0-5.76,0-6.49-.08-.23-4-.35-7.89-.35-11.6V22.79q0-10.21.5-16a10.86,10.86,0,0,1-2.1.19,16.22,16.22,0,0,1-2.56-.19c.14,2.06.24,3.94.29,5.61q.11,3.29.11,12,0,9.7-.38,14.26c2.88-.12,10-.18,12.55-.19H88.1Z"/></svg>