<?xml version="1.0" encoding="UTF-8"?>
<svg id="Layer_1" xmlns="http://www.w3.org/2000/svg" version="1.1" viewBox="0 0 128.9 70">
  <!-- Generator: Adobe Illustrator 29.3.1, SVG Export Plug-In . SVG Version: 2.1.0 Build 151)  -->
  <defs>
    <style>
      .st0 {
        fill: #323943;
      }

      .st1 {
        fill: #00afef;
      }
    </style>
  </defs>
  <g>
    <path class="st0" d="M0,52.4c.3,0,.1-.1.2-.3.8-5.5,5.2-10.2,9.5-13.5.3-.2,2.5-1.9,2.6-1.8.1.1-.1.2-.2.2-8.7,6.5-14.2,17.5-3,24.9,12.4,8.2,32.8,6.7,46.8,3.8,9.1-1.9,17.9-4.9,26.4-8.3-.1.2-.5.3-.7.4-13.3,6.9-29.4,11.4-44.5,12.1h-.2c0,0-6.5,0-6.5,0l-5.9-.5c-8.8-1.3-22.6-3.8-24.5-14.3,0-.2,0-.3-.2-.3v-.2h0c0,0,0-.2,0-.2v-1.9h0c0,0,0-.2,0-.2v-.2Z"/>
    <path class="st1" d="M116.3,41.6c-.2,3-1,7-1.6,10-.7,3.9-2.1,6.7-6.4,7.3-3.1.4-7.7-.5-7.7-4.4h4.7c0,0,.2.4.2.5.6.9,2.3.8,3.2.4,1.3-.6,1.6-2.2,1.7-3.5,0,0-.9.6-1,.7-2.8,1.7-6.8.8-7.8-2.6-1.1-3.9,1.9-8.4,5.9-9,1.6-.3,3.5,0,4.3,1.5.1,0,.2-1.1.2-1.2h4.2c0,.1,0,.3,0,.4h0ZM108.5,44.5c-1.3.2-2.5,1.4-2.6,2.7-.4,3.7,5,3.2,5.4,0,.2-1.9-.9-3-2.8-2.7Z"/>
    <path class="st0" d="M66,0h-.2c-.5,0-1,0-1.4,0h0c0,0,1.6,0,1.6,0Z"/>
    <path class="st0" d="M70.4,0h0c-.3,0-.6.2-.8,0h.8Z"/>
    <path class="st0" d="M27.7,22.1s-.2.9-.2,1.1c0,.1,0,.2.1.2,1.7-2.2,6.1-2.5,7.3.4.1,0,.5-.5.7-.7,2.7-2.4,7.5-1.9,6.8,2.6l-1.2,7.8h-4c0-.1,0-.3,0-.4.2-1.9.8-4,1-6,0-1.2,0-2.2-1.5-2.2-1.7,0-2,1.8-2.2,3.2-.3,1.8-.5,3.6-.9,5.4h-4l1-6.3c0-1.1,0-2.3-1.3-2.3-1.7,0-2.1,1.5-2.3,2.8-.4,1.9-.5,3.9-.9,5.9h-4l1.9-11.5h4Z"/>
    <path class="st1" d="M27,36l-.8,5.4c-2.6-3.4-7.7-1.8-8.9,2.1-1.4,4.4,2.5,6.8,6.3,4.9l1.6-1.1-.9,5.3c-3,1.2-6.3,1.2-9-.6-3-2-3.6-5.4-2.8-8.7,1.6-6,8.6-9.9,14.4-7.3h0Z"/>
    <path class="st0" d="M19.5,21c-.5-.2-.9-.6-1.5-.8-.5-.2-1-.3-1.5-.3-1.5.1-2.8,1.7-1.1,2.6,2.3,1.3,5.7,1,5.5,4.8-.4,6.2-7.4,8.1-12.2,5.3-.1,0-.9-.6-.9-.6-.1-.2,2.1-3.1,2.3-3.5.6.3,1.1.9,1.7,1.2,1.1.6,3.1.8,4-.3,2-2.4-3.2-3-4.4-3.7-2.2-1.3-1.5-4.5-.4-6.3,2-3.3,6.1-3.8,9.5-2.4.3.1.9.4,1.2.6,0,0,.2,0,.1.2l-2.1,3.3h0Z"/>
    <path class="st1" d="M56.9,53.1v-1.2c-2.4,2.7-7.1,2.1-8.5-1.5-1.4-3.9,1.7-8.8,5.7-9.4,1.7-.2,3.2.1,4.4,1.4l.2-1.1h4.2l-1.8,11.9h-4.2ZM55.1,44.5c-3.4.4-3.7,6.1.4,5.2,3.2-.7,3.5-5.7-.4-5.2Z"/>
    <path class="st0" d="M52.3,33.6l.2-1.2c-2.3,2.5-6.9,2-8.2-1.3-1.2-3.2.6-7.1,3.5-8.6,1.9-1,4.7-1.1,6.2.8l.2-1.1h4l-1.9,11.5h-4,0ZM50.9,25.3c-3.2.3-4,5.3-.5,5.2,3.5-.1,4.2-5.5.5-5.2Z"/>
    <path class="st1" d="M47,47.9h-8.8c-.5,2,1.2,3,3,2.5.6-.2,1.3-1,1.4-1h4c-1.2,3.5-5.3,4.7-8.7,3.9-3.4-.8-4.5-3.6-3.8-6.9,1-4.3,5.4-6.4,9.6-5.3,3.2.9,3.8,3.8,3.2,6.8h0ZM43.5,45.4c-.2-2.7-4.3-2.2-4.8,0h4.8Z"/>
    <path class="st1" d="M72.1,53.1l1.1-7.2c0-1.5-1.1-1.9-2.4-1.6-1.1.3-1.5,1.3-1.8,2.3l-1,6.5h-4.2l1.8-11.9h4.2l-.2,1.5c.7-.8,1.6-1.5,2.6-1.7,2.5-.6,5.1.2,5.3,3.1-.1,3-.9,5.9-1.3,8.9h-.1c0,.1-4.2.1-4.2.1h0Z"/>
    <path class="st1" d="M98.7,53.1h-4.3c.3-2.1.8-4.2,1.1-6.3.1-1.3.1-2.6-1.6-2.6-1.7,0-2.3,1.4-2.6,2.9-.4,2-.6,4-.9,6h-4.2l1.8-11.9h4.2l-.2,1.5c.8-.8,1.5-1.5,2.6-1.7,3-.7,5.6.5,5.3,3.9l-1.2,8.2h0Z"/>
    <path class="st1" d="M34.2,34.6l-3,18.5h-4.2l3.1-18.5h4.1Z"/>
    <path class="st0" d="M76.3,18.7l-.5,3.4h2.2l-.5,3.4h-2.3s-1.4,8.1-1.4,8.1h-4l1.2-8.1h-1.2l.5-3.4h1.3s.6-3.4.6-3.4h4Z"/>
    <path class="st0" d="M69.4,21.9l-.6,3.9c-2.5-.9-4.3,0-4.9,2.5-.4,1.7-.5,3.5-.9,5.2h-4l1.9-11.5h4c0,.6-.3,1.2-.2,1.8.6-.8,1.4-1.4,2.3-1.7.2,0,.9-.3,1.1-.3h1.3,0Z"/>
    <path class="st1" d="M85.2,41.2l-1.9,11.9h-4.2l1.9-11.9h4.2Z"/>
    <path class="st1" d="M83.8,35.2c3.4-.5,2.9,4.3.1,4.7-3.5.5-3.1-4.3-.1-4.7Z"/>
    <path class="st0" d="M19.1,12.6s-.1.3-.3.2c0-.2.2-.2.3-.2h0Z"/>
    <path class="st0" d="M18.5,12.9c0,0,.2-.2.2-.1,0,0-.1.2-.2.1Z"/>
    <path class="st1" d="M69.6,0c.2.2.6,0,.8,0,8.1,0,22.1,2.4,27.8,8.6,4.6,5,3.8,11,.1,16.2-2.4,3.4-5.8,6.3-9.3,8.5,0,0,.1-.2.2-.2.7-.6,1.6-1.1,2.3-1.8,7.4-6.6,10.7-16.3,1.2-22.9-5.6-3.9-12.3-5.5-19.1-6.1-18.5-1.5-37.6,3.3-54.5,10.3h0c1.4-1,3.4-1.8,4.9-2.5C36.6,4.4,50.4.6,64.3,0c.5,0,1,0,1.4,0h.2c0,0,3.6,0,3.6,0h0Z"/>
  </g>
  <path class="st0" d="M128.6,36.2c0,2.6-2,4.6-4.7,4.6s-4.7-2-4.7-4.6,2.1-4.6,4.7-4.6,4.7,2,4.7,4.6ZM120.4,36.2c0,2,1.5,3.6,3.6,3.6s3.5-1.6,3.5-3.6-1.5-3.7-3.5-3.7-3.5,1.6-3.5,3.6ZM123.2,38.6h-1.1v-4.6c.4,0,1-.1,1.7-.1s1.2.1,1.6.3c.2.2.4.6.4,1s-.4.9-.9,1.1h0c.4.2.7.6.8,1.2.1.7.2,1,.3,1.1h-1.1c-.1-.2-.2-.6-.4-1.1,0-.5-.4-.7-.9-.7h-.5v1.8ZM123.3,36h.5c.6,0,1.1-.2,1.1-.7s-.3-.7-1-.7-.5,0-.6,0v1.3Z"/>
</svg>