<svg xmlns="http://www.w3.org/2000/svg" viewBox="0 0 226.77 226.77"><defs><style>.cls-1{fill:#fff;}.cls-2{fill:#471c4c;}</style></defs><title>Asset 1</title><g id="Layer_2" data-name="Layer 2"><g id="Layer_1-2" data-name="Layer 1"><ellipse class="cls-1" cx="114.31" cy="108.55" rx="88.65" ry="54.01"/><path class="cls-2" d="M54.76,103.66H51.18l-4.82,15.83a11.59,11.59,0,0,0-.63,2.81q0,3,6.53,3t10-4.12a15,15,0,0,0,3.43-9.94,7.52,7.52,0,0,0-1.46-4.77,6.31,6.31,0,0,0-3.38-2.36A26.56,26.56,0,0,0,54.76,103.66Z"/><path class="cls-2" d="M65.09,83.43A20.65,20.65,0,0,0,60,83H57.51l-5.86,19.15h3.48a19.7,19.7,0,0,0,7.93-1.32,10.1,10.1,0,0,0,4.64-4.17A12.67,12.67,0,0,0,69.39,90a7.06,7.06,0,0,0-1.34-4.38A5.72,5.72,0,0,0,65.09,83.43Z"/><path class="cls-2" d="M102.73,84.72c-.19-.58-.44-1.62-.44-1.62h0s-.26,1-.45,1.62l-1.28,3.63H104Z"/><path class="cls-2" d="M128.66,87.24a3.94,3.94,0,0,0-4.27-4.31H122.3v8.66h2.09C127,91.58,128.66,90.06,128.66,87.24Z"/><path class="cls-2" d="M116.32,101.17a2.39,2.39,0,0,0-2.06-1q-4.09,0-8.47,8.07T101.4,121.4a6.61,6.61,0,0,0,.67,3.33,2.19,2.19,0,0,0,2,1.12q2.21,0,5.31-3.25t5.37-9.94Q117,106,117,103.56A4,4,0,0,0,116.32,101.17Z"/><path class="cls-2" d="M115.67,84.9a1.81,1.81,0,0,0-1.07-1.78,3.18,3.18,0,0,0-1.36-.19h-1.91V87h2.3A2,2,0,0,0,115.67,84.9Z"/><path class="cls-2" d="M92.73,102.72a2.9,2.9,0,0,0-.52-1.89,1.92,1.92,0,0,0-1.56-.62q-2,0-4.73,3.9a32.19,32.19,0,0,0-4.4,10.16,26.28,26.28,0,0,0,7.76-5.36Q92.73,105.5,92.73,102.72Z"/><path class="cls-2" d="M210.11,73.32C204.58,60,203.6,43.25,193.56,33.21s-26.79-11-40.11-16.55C140.59,11.33,128.17,0,113.39,0S86.18,11.33,73.32,16.66C60,22.19,43.25,23.17,33.21,33.21S22.19,60,16.66,73.32C11.33,86.18,0,98.6,0,113.39s11.33,27.21,16.66,40.06c5.53,13.33,6.51,30.07,16.55,40.11s26.79,11,40.11,16.55c12.85,5.33,25.28,16.66,40.06,16.66s27.21-11.33,40.06-16.66c13.33-5.53,30.07-6.51,40.11-16.55s11-26.79,16.55-40.11c5.33-12.85,16.66-25.28,16.66-40.06S215.44,86.18,210.11,73.32Zm-52.66,27.56.47-1.47h4.59l3.08-10.14h4l-3.08,10.14h5l-.47,1.47h-5l-4.42,14.63q-2.21,7.2-2.21,8.37a1.85,1.85,0,0,0,.35,1.22,1.25,1.25,0,0,0,1,.42q1.21,0,3.15-2.28a23.58,23.58,0,0,0,3.48-5.72h1.47a23,23,0,0,1-4.67,7.61q-2.63,2.63-4.8,2.63a3.4,3.4,0,0,1-2.73-1.21,4.55,4.55,0,0,1-1-3q0-1.57,2.07-8.37l4.32-14.26ZM139,82.06a.47.47,0,0,1,.54-.53h5.24a.48.48,0,0,1,.53.53v.32a.49.49,0,0,1-.53.54h-4.19v3.76H144a.48.48,0,0,1,.54.54v.32a.47.47,0,0,1-.54.53h-3.47v4.36A.47.47,0,0,1,140,93h-.52a.47.47,0,0,1-.54-.54Zm-5.48,0a.47.47,0,0,1,.54-.53h.52a.47.47,0,0,1,.53.53V92.44a.47.47,0,0,1-.53.54H134a.47.47,0,0,1-.54-.54Zm-12.79,0a.47.47,0,0,1,.54-.53h3.26c3.49,0,5.81,2.09,5.81,5.71S128,93,124.51,93h-3.26a.47.47,0,0,1-.54-.54Zm-11,0a.47.47,0,0,1,.54-.53h3.08a5,5,0,0,1,2.14.31,3.11,3.11,0,0,1,1.8,3,3.19,3.19,0,0,1-2,3.15v0a2.94,2.94,0,0,1,.34.52l2.06,3.81c.21.37,0,.63-.36.63h-.65a.63.63,0,0,1-.63-.37l-2.24-4.18h-2.45v4a.47.47,0,0,1-.53.54h-.52a.47.47,0,0,1-.54-.54Zm-8.45-.1a.56.56,0,0,1,.6-.44h.78a.57.57,0,0,1,.6.44L107,92.36a.42.42,0,0,1-.44.62H106a.58.58,0,0,1-.6-.44l-1-2.86h-4.31l-1,2.86a.56.56,0,0,1-.58.44H98c-.41,0-.57-.24-.44-.62Zm-9.92-.63a6.28,6.28,0,0,1,3.8,1.18.51.51,0,0,1,.1.75l-.21.32a.48.48,0,0,1-.75.13,5.16,5.16,0,0,0-2.87-.91,4.1,4.1,0,0,0-4.23,4.36,4.25,4.25,0,0,0,4.25,4.53,5.13,5.13,0,0,0,3.11-1.12.47.47,0,0,1,.75.07l.24.32a.5.5,0,0,1-.08.75,6.34,6.34,0,0,1-4.07,1.46,5.92,5.92,0,0,1,0-11.84ZM71.88,98.59q-3.5,3.26-10.46,4.3a14.31,14.31,0,0,1,7.51,3.72,9.14,9.14,0,0,1,2.86,6.76A11.63,11.63,0,0,1,70,119.51a13.11,13.11,0,0,1-5,4.69,18.37,18.37,0,0,1-6.91,2.21,99.75,99.75,0,0,1-10.54.42H32l.47-1.54h1.24a7.41,7.41,0,0,0,3.5-.75,4.51,4.51,0,0,0,2-1.76,29.51,29.51,0,0,0,1.54-4.32l8.77-28.89a21.25,21.25,0,0,0,1-4.22q0-2.38-4.32-2.38h-.94l.47-1.54H60.25a40.06,40.06,0,0,1,6,.35,12.62,12.62,0,0,1,4.47,1.71,9.56,9.56,0,0,1,3.47,3.4,8.54,8.54,0,0,1,1.19,4.35A9.86,9.86,0,0,1,71.88,98.59Zm10.27,29.17a5.73,5.73,0,0,1-4.47-1.92,7.51,7.51,0,0,1-1.72-5.2,24.26,24.26,0,0,1,2.22-9.37,25.92,25.92,0,0,1,6.33-9q4.1-3.78,7.15-3.78a3.46,3.46,0,0,1,2.85,1.19,4.53,4.53,0,0,1,1,3q0,3.62-3.61,6.95A38.3,38.3,0,0,1,81,116a18,18,0,0,0-.94,5.52,5.18,5.18,0,0,0,.83,3.21,3,3,0,0,0,2.48,1.07q4.59,0,8.07-7.5h1.61Q88.81,127.76,82.15,127.76ZM102.25,144a6.26,6.26,0,0,1-4,1.44,5.85,5.85,0,0,1,0-11.69,6.2,6.2,0,0,1,3.75,1.17.5.5,0,0,1,.1.74l-.21.32a.47.47,0,0,1-.74.13,5.1,5.1,0,0,0-2.83-.9,4.05,4.05,0,0,0-4.18,4.31,4.2,4.2,0,0,0,4.2,4.47,5.06,5.06,0,0,0,3.07-1.11.47.47,0,0,1,.74.06l.24.32A.49.49,0,0,1,102.25,144Zm9.83.72a.47.47,0,0,1-.53.53H106a.47.47,0,0,1-.53-.53V134.47a.47.47,0,0,1,.53-.53h.51a.47.47,0,0,1,.53.53v9.4h4.55a.47.47,0,0,1,.53.53Zm4,0a.47.47,0,0,1-.53.53h-.51a.47.47,0,0,1-.53-.53V134.47a.47.47,0,0,1,.53-.53h.51a.47.47,0,0,1,.53.53Zm-.73-17a2.78,2.78,0,0,1-2.41-1.17,4.83,4.83,0,0,1-.84-2.88,13,13,0,0,1,.67-3.58,21.33,21.33,0,0,1-4.37,5.1q-2.86,2.53-5.37,2.53a5.13,5.13,0,0,1-4-2,8,8,0,0,1-1.69-5.37,21.88,21.88,0,0,1,2.61-9.76,26.67,26.67,0,0,1,6.81-8.69q4.2-3.48,7.18-3.48a4.24,4.24,0,0,1,2.76.84,4.16,4.16,0,0,1,1.35,2.51l.84-2.85h4l-6,19.61a28.36,28.36,0,0,0-1.31,5.15,1.53,1.53,0,0,0,.3,1,1.12,1.12,0,0,0,.9.35q2.31,0,5.32-5.29h1.41a17.93,17.93,0,0,1-3.73,5.47Q117.43,127.76,115.4,127.76Zm13.6,17a.47.47,0,0,1-.53.53h-.61a.64.64,0,0,1-.62-.35l-4.84-7c-.4-.62-.93-1.65-.93-1.65h0s.1,1,.1,1.65v6.81a.47.47,0,0,1-.53.53h-.51a.47.47,0,0,1-.53-.53V134.47a.47.47,0,0,1,.53-.53h.61a.66.66,0,0,1,.64.35l4.82,7c.4.61.93,1.63.93,1.63h0s-.1-1-.1-1.63v-6.82a.47.47,0,0,1,.53-.53h.51a.47.47,0,0,1,.53.53Zm5.41,0a.47.47,0,0,1-.53.53h-.51a.47.47,0,0,1-.53-.53V134.47a.47.47,0,0,1,.53-.53h.51a.47.47,0,0,1,.53.53Zm12.94-.72a6.26,6.26,0,0,1-4,1.44,5.85,5.85,0,0,1,0-11.69,6.2,6.2,0,0,1,3.75,1.17.5.5,0,0,1,.1.74l-.21.32a.47.47,0,0,1-.74.13,5.1,5.1,0,0,0-2.83-.9,4.05,4.05,0,0,0-4.18,4.31,4.2,4.2,0,0,0,4.2,4.47,5.06,5.06,0,0,0,3.07-1.11.47.47,0,0,1,.74.06l.24.32A.49.49,0,0,1,147.34,144Zm-2.48-16.23a3.16,3.16,0,0,1-2.46-.9,3.92,3.92,0,0,1-.82-2.71,30.35,30.35,0,0,1,1.81-8.13q-5.85,11.75-11.58,11.75a4.29,4.29,0,0,1-3.31-1.31,4.61,4.61,0,0,1-1.21-3.25,23,23,0,0,1,1.51-6.33l4.12-12a17,17,0,0,0,.9-3.21.77.77,0,0,0-.87-.87q-2.1,0-4.62,5.66h-1.61a16.44,16.44,0,0,1,3.51-5.74,6.17,6.17,0,0,1,4.28-2.23,3.23,3.23,0,0,1,2.23.82,3.12,3.12,0,0,1,.92,2.46,19.17,19.17,0,0,1-1.17,4.69l-4.22,12.38a20,20,0,0,0-1.2,4.75,2.31,2.31,0,0,0,.47,1.57,1.72,1.72,0,0,0,1.37.53q2.95,0,7-6.26t7.76-18.61l.57-1.91h4l-5.86,19.21a32,32,0,0,0-1.4,5.66,2,2,0,0,0,.33,1.26,1.2,1.2,0,0,0,1,.42q2.55,0,4.82-5.52h1.41Q149.72,127.76,144.86,127.76Zm8.34-39.68h-3.47v4.36a.47.47,0,0,1-.53.54h-.52a.47.47,0,0,1-.54-.54V82.06a.47.47,0,0,1,.54-.53h5.24a.48.48,0,0,1,.53.53v.32a.49.49,0,0,1-.53.54h-4.19v3.76h3.47a.48.48,0,0,1,.54.54v.32A.47.47,0,0,1,153.2,88.08Zm39.11,26.71a46.16,46.16,0,0,1-7.21,11.45,136.6,136.6,0,0,1-9.46,10.24,36.25,36.25,0,0,1-8.22,6.27,21.52,21.52,0,0,1-9.55,2.69q-4.25,0-4.25-2.44a1.81,1.81,0,0,1,.91-1.59,3.45,3.45,0,0,1,1.91-.59,10.59,10.59,0,0,1,2.41.44,17.29,17.29,0,0,0,6.21.27,13.55,13.55,0,0,0,4.26-1.61,26.4,26.4,0,0,0,4.76-3.88,21.58,21.58,0,0,0,4-4.89,26.64,26.64,0,0,0,2-7.48,70.35,70.35,0,0,0,.89-11.51,23.33,23.33,0,0,0-.87-7.23q-.87-2.54-2.14-2.54-2.45,0-3,6.26h-1.41q.4-4.75,2.09-6.91a4.7,4.7,0,0,1,3.64-2.16q2.48,0,4,3t1.49,9.22a55.56,55.56,0,0,1-1.84,14.76,49.77,49.77,0,0,0,6.41-9.1q3.13-5.52,3.13-9.4a7.11,7.11,0,0,0-1.07-3.65,6,6,0,0,1-1.07-2.68,2.38,2.38,0,0,1,.52-1.52,1.55,1.55,0,0,1,1.25-.65,2.27,2.27,0,0,1,2,1.37,8.48,8.48,0,0,1,.77,4.05A26,26,0,0,1,192.31,114.79Z"/></g></g></svg>