<svg viewBox="0 0 1000 470" xmlns="http://www.w3.org/2000/svg" data-name="Layer 1" id="Layer_1">
  <defs>
    <style>
      .cls-1 {
        fill: #4c7a51;
      }
    </style>
  </defs>
  <g>
    <g>
      <path d="M239.2,119.93c1.16,16.74,1.01,26.25.69,45.28-.03,1.54-.13,5.02-2.36,7.35-3.16,3.31-8.78,2.41-11.51,1.98-2.66-.42-4.5-.72-5.9-2.33-.88-1.01-1.44-2.37-1.62-8.92-.1-3.78,0-6.76.12-12.11.14-5.98.13-6.94-.25-8.52-.51-2.14-1.35-5.64-4.04-7.65-.28-.21-.51-.33-.73-.46-3.44-1.95-7.96-1.95-15.05-.89-3.82.57-5.73.85-6.02,1.07-7.82,5.94,5.24,35.04-1.8,39.65-.59.38-1.6.54-3.63.84-4.67.71-9.03-.03-10.61-.74-5.06-2.25-4.03-14.14-4.61-28.56-.59-14.63-3.25-41.58-1.7-58.18.16-1.76.56-5.4,3.11-7.76,2.68-2.48,6.38-2.2,9.99-2.12,2.71.07,6.52.16,8.23,2.77,1.02,1.55.75,3.16.62,5.75-.13,2.51.26,6.63,1.06,14.88.72,7.48,1.12,11.25,2.99,12.62.15.11.27.17.51.3,3.09,1.7,5.94,1.46,11.18.95,6.67-.65,7.07-.73,7.67-1.3,1.94-1.87,1.76-5.01,1.58-8.98-.9-20.36.06-23.7,2.04-25.36,1.08-.91,2.56-1.12,5.52-1.54,4.19-.6,8.67-.1,10.64.85,6.08,2.94,2.18,17.07,3.86,41.1Z" class="cls-1"></path>
      <path d="M122.68,77.97c9.64-.07,12.7-.33,23.06-.07,8.95.22,10.4.66,11.78,1.95,5.09,4.77,4.36,16.7.28,19.15-.51.3-2.05.41-5.11.61-3.39.22-5.39.22-7.3.31-4.92.22-7.4.29-8.58.97-7.51,4.36-5.37,33.45-2.95,63.18.14,1.76.54,6.51-2.05,8.84-1.47,1.32-3.44,1.46-6.35,1.66-2.94.2-6.31-.03-7.5-.46-9.83-3.6,2.99-68.01-9.16-73.18-2-.85-3.86.88-11.69.14-4.31-.41-6.5-.65-8.21-2.09-4.41-3.71-5.23-13.55-1.27-18.22,1.51-1.78,3.56-2.66,18.51-2.86,8.63-.11,9.87.12,16.55.07Z" class="cls-1"></path>
      <path d="M313.33,117.96c1.08,2.29.25,6.82-.62,9.45-.3.9-1.02,3.06-2.32,4.64-3.52,4.24-10.28,2.98-27.83,3.7-2.45.1-5.53.27-7.49,2.6-2.03,2.4-1.92,5.96-1.86,8.12.07,2.34.18,6.16,2.17,8.29,3.68,3.94,10.87-.97,26.03-2.32,8.23-.73,12.67-1.06,15.19,1.99,3.87,4.69,1.81,15.74-4.03,20.56-3.41,2.82-5.14,1.05-20.3,1.82-11.63.6-15.9,1.91-22.86-.73-2.48-.94-5.29-2.01-7.9-4.65-4.88-4.93-6.4-12.38-6.52-19.96-.32-20.61-1.99-41.34,1.16-61.9,1.54-10.02,5.24-14.63,14.1-13.03,12.8,2.32,25.56.75,38.09-.03,1.13-.07,3.91-.26,6.11,1.58,2.87,2.4,2.92,6.7,2.92,7.22,0,4.36-2.75,7.26-3.25,7.79-2.19,2.31-5.41,3.71-14.74,3.76-13.58.08-17.16-2.83-20.31,0-3.65,3.28-4.44,12.24-.75,16.8,7.59,9.35,31.59-2.96,35.02,4.31Z" class="cls-1"></path>
    </g>
    <path d="M443.71,148.42c6.71-1.44,5.85-26.87,14.4-56.65,1.28-4.47,3.92-13.02,10.3-15.56.67-.27,3.91-1.56,7.15-.13,3.77,1.67,5.25,6.04,5.89,7.79,5.37,14.59-7,31.58-16.47,67.53-1.2,4.57-5.59,21.7-14.09,24.45-.67.22-2.57.74-5,.89-2.25.15-7.35.4-12.23-2.83-2.05-1.35-3.37-2.87-3.96-3.6-1.52-1.87-2.56-3.95-3.29-6.06-2.4-7.05-4.06-13.75-4.58-17.63-.9-6.87-.68-11.59-3.26-12.88-1.34-.67-2.74-.07-2.9,0-2.97,1.32-3.27,6.53-4.34,12.44-.15.83-2.48,10.11-5.48,18.17-1.9,5.11-4.89,10.71-10.48,13.43-2.89,1.26-7.29,2.55-11.61.88-7.14-2.77-9.56-11.93-12.18-20.62-8.01-26.56-19.42-53.85-18.15-72.28.09-1.34.38-4.51,2.47-7.16,3.66-4.64,11.39-5.88,16.25-2.72,2.19,1.42,3.31,3.43,3.72,4.19,7.7,14.49,9.5,60.89,12.09,66.61.21.47.8,1.77,1.92,2.07,1.37.36,2.78-1,3.26-1.46,5.42-5.23,11.14-38.77,16.71-42.31.31-.2.64-.38.65-.38,1.36-.77,4.33-2.13,7.78-1.56,1.46.24,4.88.95,9,6.46,11.13,14.86,6.71,36.27,14.59,38.73.53.17,1.1.34,1.83.19Z" class="cls-1"></path>
    <path d="M684.73,118.28c1.12,2.33.21,6.93-.62,9.45-.3.9-1.02,3.06-2.32,4.64-3.52,4.24-10.28,2.98-27.83,3.7-2.45.1-5.53.27-7.49,2.6-2.03,2.4-1.92,5.96-1.86,8.12.07,2.34.18,6.16,2.17,8.29,3.68,3.94,10.87-.97,26.03-2.32,8.23-.73,12.67-1.06,15.19,1.99,3.87,4.69,1.81,15.74-4.03,20.56-3.41,2.82-5.14,1.05-20.3,1.82-11.63.59-15.9,1.91-22.86-.73-2.48-.94-5.29-2.01-7.9-4.65-4.88-4.93-6.4-12.38-6.52-19.96-.32-20.61-1.99-41.34,1.16-61.9,1.54-10.02,5.24-14.63,14.1-13.03,12.8,2.32,25.56.75,38.09-.03,1.13-.07,3.91-.26,6.11,1.58,2.87,2.4,2.92,6.7,2.92,7.22,0,4.36-2.75,7.26-3.25,7.79-4.16,4.39-14.74,3.76-14.74,3.76-20.1-1.15-22.1-.02-23.21,1.45-1.82,2.41-1.98,6.67-2.08,9.31-.1,2.75-.18,4.86.51,6.28,4.01,8.23,34.9-3.92,38.75,4.06Z" class="cls-1"></path>
    <path d="M579.97,78.52c8.68-.06,11.77-.2,23.06-.07,9.97.12,11.47.42,12.89,1.88,4.67,4.79,3.28,16.66-1.17,19.15-.72.4-2.04.53-4.69.78-3.22.31-5.11.17-7.37.21-1.66.03-6.51.12-8.58.97-2.5,1.03-5.35,4.98-3.41,29.89,1.04,13.31-.83,26.82,1.22,40.03.04.23.08.92-.23,1.71-1.64,4.18-11.01,4.59-13.73,3.94-1.99-.48-4.38-1.26-4.38-1.26-.13-.04-.23-.08-.24-.08-5.66-2.39-2.16-17.06-1.66-43.33,0,0,.56-29.41-5.58-30.85-.1-.02-.2-.04-.2-.04-.53-.09-1.35-.02-5.4.29-1.51.12-3.47.14-6.09-.11-4.31-.41-6.5-.65-8.21-2.09-4.41-3.71-5.23-13.55-1.27-18.22,1.51-1.78,3.56-2.66,18.51-2.86,8.63-.11,9.87.12,16.55.07Z" class="cls-1"></path>
    <path d="M755.37,154.66c-10.84-10.86-15.58-12.38-15.22-15.62.49-4.35,9.16-3.04,15.82-9.73,8.83-8.87,10.08-28.87,1.46-41.18-4.31-6.15-10.08-8.7-13.9-10.39-9.62-4.25-18.14-3.17-24.69-2.34-8.75,1.11-13.72,1.74-17.47,5.98-2.97,3.36-3.95,7.48-4.73,21.08-.78,13.45-.25,16.58-.62,28.41-.37,11.77.47,23.57-.23,35.31-.18,2.98-.5,8.3,2.61,11.59,1.95,2.07,5.04,2.85,9.5,2.79,2.49-.03,5.69-.23,7.71-2.56,1.11-1.27,1.33-2.58,1.8-11.96.36-7.15.43-10.4,2.69-12.55.95-.91,1.99-1.33,2.67-1.54,0,0,1.43-.35,3.07.16,4.25,1.33,10.77,11.59,11.14,12.18,4.99,7.86,7.54,11.82,10.23,13.28,5.39,2.93,10.75,1.49,11.88,1.19,3.33-.9,4.48-2.44,4.82-2.93,1.2-1.77,1.21-3.84,1.18-4.87-.2-6.46-6.49-13.04-9.72-16.28ZM742.14,101.55c1.83,5.43-2.36,13.55-6.41,18.06-.17.19-.3.33-.35.38-5.54,5.88-15.09,9.07-19.01,5.52-1.72-1.56-1.74-5.48-1.71-13.24.03-8.43.05-12.65,1.71-14.78,5.32-6.81,22.92-4.39,25.77,4.07Z" class="cls-1"></path>
    <path d="M892.45,85.51c-10.16-5.13-20.04-9.59-29.71-8.03-4.17,0-6.6.35-8.92-.06-7.26-1.28-10.01,1.82-11.11,9.64-1.32,9.44,1.26,18.41,1.01,27.7-.45,16.35-1.2,32.78,1.26,49.11.89,5.9,3.5,10.6,8.55,11.76,10.02,2.28,20.23,2.56,30.36-.47,16.62-4.97,23.34-19.11,28.77-34.63,6.92-19.78-2.58-46.12-20.2-55.01ZM894.21,124.23c.16,15.42-7.07,24.57-18.94,30.83-7.61,4.01-11.75.64-12.12-6.84-.74-15.19-.14-30.44-.3-45.67-.06-5.34,3.18-4.79,6.35-4.76,12.84.12,27.51,8.11,25.01,26.44Z" class="cls-1"></path>
    <path d="M520.49,79.31c-2.71-1.22-5.43-1.5-5.43-1.5-.21-.02-.97-.1-1.73-.1,0,0-3.52.02-7.2,2.28-10.09,6.21-15.34,24.63-15.34,24.63-3.83,11.81-21.12,65.64-17.21,70.69.68.87,1.48,1.51,1.48,1.51,3.33,2.64,7.7,1.9,10.38,1.45,4.17-.7,6.16-1.16,7.81-2.71,6.05-5.69-.39-16.65,4.86-21.69,2.23-2.14,3.18.04,17.74-1.13,4.7-.38,7.43-.83,9.5,1.13,1.41,1.34,1.47,2.8,2.53,8.36,1.54,8.01,2.34,12.05,4.03,13.67,3.25,3.12,8.46,2.33,10.3,2.05.78-.12,4.51-.68,6.84-2.77,5.3-4.74,2.77-16.83,1.43-22.89,0,0-14.54-66-29.99-72.97ZM518.83,134.27c-6.71-.53-10.07-.66-9.84-.64-6.47-.66-8,1.02-9.24-.48-1.43-1.73-.13-5.29,2.47-12.39.91-2.48,2.9-6.44,6-10.98,3.45-5.06,6.25-4.16,8.71,1.09,2.85,6.08,4.13,12.65,5.5,19.2.67,3.18-.49,4.45-3.61,4.2Z" class="cls-1"></path>
    <path d="M830.4,118.28c1.08,2.29.25,6.82-.62,9.45-.3.9-1.02,3.06-2.32,4.64-3.52,4.24-10.28,2.98-27.83,3.7-2.45.1-5.53.27-7.49,2.6-2.03,2.4-1.92,5.96-1.86,8.12.07,2.34.18,6.16,2.17,8.29,3.68,3.94,10.87-.97,26.03-2.32,8.23-.73,12.67-1.06,15.19,1.99,3.87,4.69,1.81,15.74-4.03,20.56-3.41,2.82-5.14,1.05-20.3,1.82-11.63.6-15.9,1.91-22.86-.73-2.48-.94-5.29-2.01-7.9-4.65-4.88-4.93-6.4-12.38-6.52-19.96-.32-20.61-1.99-41.34,1.16-61.9,1.54-10.02,5.24-14.63,14.1-13.03,12.8,2.32,25.56.75,38.09-.03,1.13-.07,3.91-.26,6.11,1.58,2.87,2.4,2.92,6.7,2.92,7.22,0,4.36-2.75,7.26-3.25,7.79-2.19,2.31-5.41,3.71-14.74,3.76-13.58.08-17.16-2.83-20.31,0-3.65,3.28-4.44,12.24-.75,16.8,7.59,9.35,31.59-2.96,35.02,4.31Z" class="cls-1"></path>
  </g>
  <g>
    <path d="M815.35,392.24c-3.32,2.12-10,1.53-13.22,1.24-3.95-.35-8.56-.65-12.29-3.6-4.48-3.54-7.33-9.65-7.96-18.25-.79-10.78-1.31-21.56-1.54-32.34-.59-27.17,3.61-66.9,3.96-85.52.16-8.35.25-20.2,7.65-26.27,5.61-4.6,12.74-3.69,13.88-3.52,7.99,1.15,14.26,7.4,30.47,34.64,10.83,18.2,16.24,27.3,18.97,33.95,7.79,19,11.07,37.5,20.78,40.35,1.26.37,2.06.31,2.72,0,6.1-2.86,1.62-27.65-.31-38.31-1.92-10.64-6.62-32.88-8.82-51.44-.44-3.7-1.13-11.68,3.16-17.05,1.31-1.64,3.13-2.96,5.66-3.89,8.97-3.27,17.46-1.78,24.28,6.5,6.02,7.31,8.45,16.6,9.49,25.97,4.31,39.02,2.43,72.01,1.4,85.35-.04.55-.2,2.7-.47,5.6-2.45,26.75-3.83,40.22-11.39,45.05-3.85,2.46-7.89,2.01-12.57,1.5-9.75-1.07-17.69-6.78-23.99-13.37-27.48-28.72-33.13-83.66-45.49-83.21-1.36.05-2.28.77-3.54,1.76-19.01,14.94,13.57,85.64-.82,94.85Z" class="cls-1"></path>
    <g>
      <path d="M133.38,270.43c-15.74,16.63-22.38,50.02-5.92,71.88,13.79,18.31,40.13,23.67,55.28,14.31,2.09-1.29,9.61-5.94,12.84-15.57.85-2.53,3.06-10.29-.15-18.43-.81-2.06-2.46-6.2-6.53-9.07-4.71-3.32-10.08-3.11-13.57-1.94-1.22.41-3.19,1.14-4.23,3.15-.18.35-.91,1.76-.58,3.38.37,1.81,1.75,2.27,3.15,4.07,1.54,1.98,2.11,4.29,2.26,5.54.53,4.43-2.62,8.81-5.83,10.95-3.08,2.05-6.19,2.02-8.03,2.01-.67,0-3.99-.07-7.31-1.72-6.88-3.41-9.39-11.4-10.08-13.6-3.28-10.43.26-22.64,6.38-30.66,12.93-16.93,36.85-12.7,43.36-11.55,10.65,1.88,16.96,6.57,18.46,7.72,1.75,1.35,6.16,4.93,9.69,10.76,7.44,12.3,6.3,26.03,5.73,32.37-1.58,17.42-10.2,35.42-22.94,46.4-26.23,22.6-73.24,18.18-99.81-10.96-30.56-33.51-23.7-88.31-.39-119.42,20.56-27.44,50.95-32.33,58.49-33.54,0,0,31.88-5.13,60.15,12.56,9.41,5.89,12.85,11.04,13.5,16.24.75,5.89-2.08,12.73-6.62,16.76-10.9,9.69-27.35-7.83-55.53-7.32-6.44.12-27.41.52-41.78,15.69Z" class="cls-1"></path>
      <path d="M605.18,237.92c-17.03-8.6-33.6-16.08-49.81-13.46-6.99,0-11.07.58-14.96-.11-12.17-2.15-16.79,3.05-18.62,16.17-2.22,15.83,2.11,30.87,1.69,46.45-.75,27.41-2,54.96,2.1,82.35,1.49,9.9,5.86,17.78,14.34,19.71,16.8,3.83,33.92,4.29,50.9-.79,27.87-8.34,39.13-32.04,48.24-58.07,11.6-33.16-4.33-77.33-33.87-92.25ZM608.12,302.84c.27,25.86-11.86,41.2-31.76,51.7-12.76,6.73-19.71,1.07-20.32-11.47-1.24-25.47-.23-51.05-.5-76.58-.09-8.96,5.33-8.03,10.65-7.98,21.54.2,46.12,13.59,41.94,44.33Z" class="cls-1"></path>
      <path d="M757.39,290.6c1.81,3.84.42,11.43-1.04,15.84-.5,1.5-1.7,5.14-3.9,7.78-5.9,7.11-17.23,5-46.67,6.2-4.11.17-9.27.45-12.57,4.36-3.4,4.02-3.22,9.99-3.12,13.62.11,3.93.3,10.32,3.64,13.9,6.17,6.6,18.22-1.63,43.65-3.89,13.8-1.23,21.25-1.78,25.46,3.34,6.49,7.87,3.03,26.39-6.76,34.47-5.72,4.72-8.62,1.76-34.04,3.06-19.49,1-26.67,3.2-38.33-1.23-4.16-1.58-8.87-3.38-13.24-7.8-8.19-8.27-10.74-20.76-10.94-33.48-.54-34.56-3.34-69.32,1.94-103.79,2.58-16.8,8.79-24.54,23.64-21.85,21.47,3.89,42.87,1.25,63.88-.06,1.9-.12,6.55-.44,10.25,2.65,4.81,4.02,4.9,11.24,4.9,12.1,0,7.32-4.62,12.18-5.46,13.06-3.67,3.87-9.08,6.22-24.72,6.3-22.77.13-28.78-4.74-34.05,0-6.13,5.5-7.45,20.53-1.25,28.16,12.73,15.68,52.97-4.96,58.72,7.23Z" class="cls-1"></path>
      <path d="M473.91,330.86c-4.69-2.56-8.53-3.87-8.64-6.57-.22-5.56,15.93-5.68,26.53-16.32,14.81-14.87,16.9-48.41,2.45-69.05-7.22-10.31-16.9-14.59-23.3-17.42-16.13-7.13-30.41-5.32-41.4-3.93-14.67,1.86-23.01,2.92-29.29,10.03-5.39,6.11-5.91,12.88-7.94,35.34-.75,8.38-2.13,23.47-4.04,43.66-1.26,21.15,3.55,41.97,2.61,63.19-.82,18.47,4.81,24.34,20.3,24.12,13.39-.19,19.33-8.29,20.11-24.59.39-8.11-5.61-20.99,4.83-23.39,0,0,2.4-.58,5.14.27,7.13,2.23,18.05,19.43,18.68,20.42,8.37,13.18,12.65,19.81,17.16,22.27,9.04,4.91,18.02,2.5,19.92,1.99,5.59-1.5,7.52-4.09,8.07-4.91,2.08-3.06,2.02-6.59,1.97-8.17-.32-10.75-10.39-34.52-33.17-46.93ZM468.59,261.44c5.39,12.88-9.44,28.88-11.33,30.92-9.14,9.86-25.25,18.25-32.27,12.28-4.66-3.96-3.75-12.91-2.48-25.23,1.24-12.16,1.97-19.3,7.03-24.23,10.17-9.92,33.59-6.79,39.05,6.27Z" class="cls-1"></path>
      <path d="M321.65,226.31c-4.51-2.04-9.11-2.52-9.11-2.52-2.42-.26-4-.13-4-.13,0,0-5.51.47-10.98,3.79-13.92,8.46-53.83,69.49-56.72,133.23-.35,7.66-.36,18.27,6.23,25.12,6.17,6.42,15.08,6.45,15.78,6.44,1.68-.02,8.37-.09,13.1-4.55,10.14-9.54-.65-27.92,8.14-36.37,3.74-3.59,5.34.06,29.74-1.89,7.88-.63,12.47-1.39,15.93,1.89,2.36,2.24,2.46,4.7,4.25,14.02,2.58,13.43,3.92,20.21,6.76,22.92,5.44,5.22,14.19,3.9,17.27,3.43,1.31-.2,7.56-1.14,11.46-4.64,8.88-7.96,4.64-28.22,2.4-38.39,0,0-24.38-110.66-50.28-122.36ZM318.86,318.46c-10.93-.87-21.89-1.33-33.53-2,2.13-14.67,7.79-27.4,15.75-39.07,5.79-8.48,10.49-6.97,14.61,1.83,4.78,10.2,6.93,21.21,9.23,32.2,1.12,5.34-.82,7.45-6.05,7.04Z" class="cls-1"></path>
    </g>
  </g>
</svg>