<?xml version="1.0" encoding="utf-8"?>
<!-- Generator: Adobe Illustrator 19.1.0, SVG Export Plug-In . SVG Version: 6.00 Build 0)  -->
<svg version="1.0" id="Layer_1" xmlns="http://www.w3.org/2000/svg" xmlns:xlink="http://www.w3.org/1999/xlink" x="0px" y="0px"
	 viewBox="0 0 175 78.5" style="enable-background:new 0 0 175 78.5;" xml:space="preserve">
<style type="text/css">
	.st0{fill-rule:evenodd;clip-rule:evenodd;fill:#FFFFFF;}
	.st1{fill-rule:evenodd;clip-rule:evenodd;}
	.st2{fill:#FFFFFF;}
	.st3{fill:#991633;}
	.st4{fill:#C1172C;}
	.st5{fill:#F3783B;}
</style>
<g>
	<g>
		<path class="st2" d="M10.6,13.3c0-3.1,0.4-8.1-3.1-9.4V3.7h13v0.2c-3.4,1.3-3,6.3-3,9.4v38.6c0,7.2-5.2,11.2-15.2,12.2v-0.2
			c7.5-4.8,8.3-8.9,8.3-16.3V13.3z"/>
		<path class="st2" d="M31.4,31.7C31.6,40,37.3,44.9,45,44.9c4.1,0,8-1.2,11.2-3.6h0.2L53,47.7c-2.9,1.2-6.2,1.7-9.4,1.7
			c-11.6,0-19.5-7.3-19.5-16.7s6.9-16.3,17-16.3c9.2,0,15.6,6.7,15.3,15.4H31.4z M49.2,27.8c-0.7-4.8-3.9-7-8.8-7
			c-4.6,0-8,2.7-8.8,7H49.2z"/>
		<path class="st2" d="M64.1,3.7c1.6,0,3.3,0.1,4.4-1.1h0.2v38.3c0,3.1-0.5,5.6,2.5,7.3v0.2H59.9v-0.2c2.9-1.7,2.5-4.2,2.5-7.3V11.3
			c0-3.1,0.4-5.6-2.5-7.3V3.7H64.1z"/>
		<path class="st2" d="M104.4,49.4c-4.5-0.3-9-1.6-9-7.1V31.5c-2,1-4.3,1.6-6.5,2.1c-3.3,0.7-6.9,1.5-6.9,5.6c0,4.2,3.8,5.6,7.4,5.6
			c1.6,0,3.3-0.5,4.9-1l-4,5.1c-1.2,0.2-2.4,0.3-3.5,0.3c-6.9,0-11.6-4.4-11.6-10c0-12.6,20.3-6.8,20.3-14.2c0-3.3-4-4.4-6.5-4.4
			c-3.5,0-6.2,1.3-9.2,2.7l4.6-6.8l4.4-0.4c7.3,0,12.9,2.1,13,10.3v10.2c0,5.4,0.1,7.4,5.8,8L104.4,49.4z"/>
		<path class="st2" d="M113.6,17.2c1.6,0,3.2-0.1,4.1-0.9h0.2v32.9c0,3.4,0.5,7.5-2.1,10.2c-2.5,2.7-7.5,4.6-10.8,4.4v-0.2
			c6.3-3.5,6.7-7.8,6.7-14.8V24.7c0-3.1,0.4-5.6-2.6-7.3v-0.2H113.6z M114.5,13.1c-2.5,0-4.3-2-4.3-4.4c0-2.4,2-4.1,4.4-4.1
			c2.2,0,4.1,2,4.1,4.3C118.7,11.1,116.8,13.1,114.5,13.1z"/>
		<path class="st2" d="M124.6,33.1c0-10.2,8.2-16.8,18-16.8c4.4,0,8.1,1.2,11.4,4c3.5,3.1,5.6,7.5,5.6,12.2
			c0,9.8-8.2,16.9-17.7,16.9C132.5,49.4,124.6,42.8,124.6,33.1z M152.7,33.9c0-6.6-3.5-13.1-10.8-13.1c-6.3,0-10.4,5-10.4,11.1
			c0,6.3,3.7,13,10.7,13C148.4,44.9,152.7,40,152.7,33.9z"/>
	</g>
	<g>
		<path class="st3" d="M125.3,52.2c0,0,6.1,8,13.6,9.3c13.9,2.4,21.4-12.6,27.7-13.3c6-0.7,7.3,4.8,7.3,4.8s-1.7-2.6-5.4-2.3
			c-7.1,0.7-17.6,23.9-34.8,12.2C127.9,59.1,125.3,52.2,125.3,52.2z"/>
	</g>
	<g>
		<path class="st4" d="M125.6,58.8c0,0,7.1,7.1,14.7,7.4c14.1,0.6,19.5-15.4,25.7-16.9c5.9-1.5,7.9,3.8,7.9,3.8s-2-2.4-5.7-1.5
			c-7,1.6-14.2,26.1-32.9,16.8C129.1,65.2,125.6,58.8,125.6,58.8z"/>
	</g>
	<g>
		<path class="st5" d="M126.8,64.7c0,0,7.9,6.2,15.5,5.5c14-1.2,17.4-17.6,23.4-20C171.3,48,174,53,174,53s-2.3-2.1-5.8-0.8
			c-6.7,2.5-10.9,27.6-30.6,20.7C131,70.6,126.8,64.7,126.8,64.7z"/>
	</g>
</g>
</svg>
