<?xml version="1.0" encoding="utf-8"?>
<!-- Generator: Adobe Illustrator 23.0.2, SVG Export Plug-In . SVG Version: 6.00 Build 0)  -->
<svg version="1.1" id="Layer_1" xmlns="http://www.w3.org/2000/svg" xmlns:xlink="http://www.w3.org/1999/xlink" x="0px" y="0px"
	 viewBox="0 0 580.9 383" style="enable-background:new 0 0 580.9 383;" xml:space="preserve">
<style type="text/css">
	.st0{fill:#048AB0;}
	.st1{fill:#005166;}
	.st2{fill:#65C8D0;}
	.st3{fill:none;}
	.st4{fill:#00B6D1;}
	.st5{fill:#1A1A1A;}
</style>
<title>new logo no text</title>
<path class="st0" d="M545.2,356.7L389.5,124.3c-2.1-3.5-6.6-4.7-10.2-2.8c-20.5,10.9-82.7,45.1-82.7,44l-2.1-112.7
	c-0.1-5.6-4.7-10-10.3-9.9c-1.8,0-3.6,0.6-5.1,1.5L82.3,166.3c-3,1.8-4.8,5.1-4.8,8.6v26.6c0,1.3,1.3,2.6,0,2.6l-29.7,14.6
	c-1.3,0-0.1-3.2-0.1-4.5v-54.4c0-3.5,1.8-6.8,4.8-8.6L289.8,3.8c6.8-4.2,15.1-5,22.5-2.1L533.8,87c6.8,2.6,11.3,9.2,11.3,16.5"/>
<path class="st1" d="M580.9,372.1H411.6c-5.6,0-10.1-4.4-10.2-10l-4.2-222.7c-0.1-5.6-4.7-10.1-10.4-10c-1.8,0-3.6,0.6-5.2,1.5
	l-138.6,85.9c-3,1.9-4.8,5.1-4.8,8.7v136.4c0,5.6-4.6,10.2-10.2,10.2h-1.4c-5.6,0-10.2-4.6-10.2-10.2l0,0V214.4
	c0-3.5,1.8-6.8,4.8-8.6L392.6,99.3c5.7-3.5,12.7-4.2,19-1.8l161,62c5,1.9,8.3,6.7,8.3,12.1"/>
<path class="st2" d="M0,529.5L0,529.5z"/>
<path class="st3" d="M1.5,510.7l90.4-277L1.5,510.7z"/>
<path class="st4" d="M338,193.7c0-4.8-2.9-9-7.4-10.8l-143-55.1c-5.7-2.2-12.2-1.6-17.4,1.6l-152,94.4c-2.8,1.8-4.6,4.9-4.6,8.2
	v130.4c0,5.3,4.3,9.7,9.6,9.7c0,0,0,0,0,0h0.1c5.3,0,9.7-4.3,9.7-9.6c0,0,0,0,0,0V242c0-3.3,1.7-6.4,4.6-8.2L159.8,158
	c4.5-2.8,10.5-1.4,13.3,3.1c0.9,1.5,1.4,3.2,1.4,4.9l3.7,196.6c0.1,5.3,4.4,9.5,9.7,9.5h149.3"/>
<rect x="13.6" y="363.3" class="st5" width="567.3" height="8.8"/>
</svg>
