<svg xmlns="http://www.w3.org/2000/svg" xmlns:xlink="http://www.w3.org/1999/xlink" id="Layer_1" data-name="Layer 1" viewBox="0 0 500 116"><defs><style>      .cls-1 {        fill: url(#linear-gradient);      }      .cls-1, .cls-2, .cls-3, .cls-4, .cls-5, .cls-6, .cls-7, .cls-8 {        stroke-width: 0px;      }      .cls-2 {        fill: #ec1c24;      }      .cls-3 {        fill: url(#linear-gradient-2);      }      .cls-4 {        fill: url(#linear-gradient-3);      }      .cls-5 {        fill: #231f20;      }      .cls-6 {        fill: #2b388f;      }      .cls-7 {        fill: #808184;      }      .cls-8 {        fill: url(#linear-gradient-4);      }    </style><linearGradient id="linear-gradient" x1="31.92" y1="55.82" x2="195.66" y2="55.82" gradientTransform="translate(-36.5 0) skewX(2.88)" gradientUnits="userSpaceOnUse"><stop offset="0" stop-color="#ec1c24"></stop><stop offset="1" stop-color="#2b388f"></stop></linearGradient><linearGradient id="linear-gradient-2" x1="8.28" y1="27.71" x2="111.18" y2="27.71" gradientTransform="matrix(1,0,0,1,0,0)" xlink:href="#linear-gradient"></linearGradient><linearGradient id="linear-gradient-3" x1="59.56" y1="44.01" x2="21.03" y2="44.01" gradientTransform="matrix(1,0,0,1,0,0)" xlink:href="#linear-gradient"></linearGradient><linearGradient id="linear-gradient-4" x1="16.14" y1="34.32" x2="64.45" y2="34.32" gradientTransform="matrix(1,0,0,1,0,0)" xlink:href="#linear-gradient"></linearGradient></defs><path class="cls-5" d="M118.06,115.52c-11.45,0-19.71-9.32-18.41-20.77h17.18c-.22,1.98,1.2,3.58,3.18,3.58s3.77-1.61,3.99-3.58h17.18c-1.3,11.45-11.67,20.77-23.12,20.77Z"></path><path class="cls-5" d="M31.96,115.52c-11.45,0-19.71-9.32-18.41-20.77h17.18c-.22,1.98,1.2,3.58,3.18,3.58s3.77-1.61,3.99-3.58h17.18c-1.3,11.45-11.67,20.77-23.12,20.77Z"></path><g><path class="cls-2" d="M197.4,1.36l-3.43,29.63c-.32,2.74.77,3.73,2.7,3.73s3.24-.99,3.56-3.73l3.43-29.63h5.71l-3.38,29.24c-.71,6.14-4.19,9.66-10.11,9.66s-8.59-3.51-7.88-9.66l3.38-29.24h6.04Z"></path><path class="cls-2" d="M221.66,39.76c-.22-.99-.36-1.59,0-4.72l.7-6.04c.41-3.57-.64-4.88-3.39-4.88h-2.08l-1.81,15.64h-6.04l4.44-38.4h9.11c6.25,0,8.61,2.91,7.92,8.83l-.35,3.02c-.46,3.95-2.02,6.53-4.85,7.79,2.87,1.26,3.52,4.17,3.06,8.17l-.69,5.93c-.22,1.87-.32,3.24.12,4.66h-6.14ZM218.88,6.84l-1.36,11.8h2.36c2.25,0,3.73-.99,4.09-4.06l.44-3.79c.32-2.74-.48-3.95-2.62-3.95h-2.91Z"></path><path class="cls-2" d="M242.63,18.37h8.45l-1.41,12.18c-.71,6.14-4.19,9.66-10.11,9.66s-8.59-3.51-7.88-9.66l2.31-19.97c.71-6.14,4.19-9.66,10.11-9.66s8.59,3.51,7.88,9.66l-.43,3.73h-5.71l.48-4.11c.32-2.74-.77-3.79-2.69-3.79s-3.25,1.04-3.56,3.79l-2.4,20.74c-.32,2.74.77,3.73,2.69,3.73s3.24-.99,3.56-3.73l.82-7.08h-2.74l.63-5.49Z"></path><path class="cls-2" d="M261.1,17.54h8.28l-.63,5.49h-8.28l-1.3,11.25h10.42l-.63,5.49h-16.46l4.44-38.4h16.46l-.63,5.49h-10.42l-1.24,10.7Z"></path><path class="cls-2" d="M281.28,11.95l-3.22,27.81h-5.43l4.44-38.4h7.57l3.54,22.99,2.66-22.99h5.38l-4.44,38.4h-6.2l-4.3-27.81Z"></path><path class="cls-2" d="M298.81,1.36h18.65l-.63,5.49h-6.31l-3.81,32.92h-6.04l3.81-32.92h-6.31l.63-5.49Z"></path><path class="cls-6" d="M345.39,10.85l-.58,4.99c-.71,6.14-4.06,9.49-10.09,9.49h-2.85l-1.67,14.43h-6.03l4.44-38.4h8.89c6.03,0,8.61,3.35,7.9,9.49ZM334,6.84l-1.5,13h2.85c1.92,0,3.06-.88,3.38-3.62l.67-5.76c.32-2.74-.62-3.62-2.54-3.62h-2.85Z"></path><path class="cls-6" d="M349.29,1.36h6.03l-3.81,32.92h9.93l-.63,5.49h-15.96l4.44-38.4Z"></path><path class="cls-6" d="M373.65,1.36l-3.43,29.63c-.32,2.74.77,3.73,2.69,3.73s3.24-.99,3.56-3.73l3.43-29.63h5.71l-3.38,29.24c-.71,6.14-4.19,9.66-10.11,9.66s-8.59-3.51-7.88-9.66l3.38-29.24h6.04Z"></path><path class="cls-6" d="M399.36,28.62l7.27-27.27h8.39l-4.44,38.4h-5.71l3.19-27.54-7.36,27.54h-5.71l-1.36-27.16-3.14,27.16h-5.27l4.44-38.4h8.39l1.29,27.27Z"></path><path class="cls-6" d="M436.44,10.19l-.16,1.37c-.46,3.95-1.96,6.47-4.79,7.74,3.09,1.26,4.02,4.17,3.55,8.23l-.36,3.13c-.69,5.92-4.18,9.11-10.22,9.11h-9.49l4.44-38.4h9.11c6.25,0,8.61,2.91,7.92,8.83ZM424.82,6.84l-1.17,10.15h2.36c2.25,0,3.73-.99,4.09-4.06l.25-2.14c.32-2.74-.47-3.95-2.62-3.95h-2.91ZM423.01,22.48l-1.36,11.8h3.46c2.03,0,3.24-.93,3.57-3.79l.39-3.35c.41-3.57-.61-4.66-3.36-4.66h-2.69Z"></path><path class="cls-6" d="M445.86,17.54h8.28l-.63,5.49h-8.28l-1.3,11.25h10.42l-.63,5.49h-16.46l4.44-38.4h16.46l-.63,5.49h-10.42l-1.24,10.7Z"></path><path class="cls-6" d="M470.06,39.76c-.21-.99-.36-1.59,0-4.72l.7-6.04c.41-3.57-.64-4.88-3.39-4.88h-2.08l-1.81,15.64h-6.03l4.44-38.4h9.11c6.25,0,8.61,2.91,7.92,8.83l-.35,3.02c-.46,3.95-2.02,6.53-4.85,7.79,2.87,1.26,3.52,4.17,3.06,8.17l-.69,5.93c-.22,1.87-.32,3.24.12,4.66h-6.14ZM467.29,6.84l-1.36,11.8h2.36c2.25,0,3.73-.99,4.09-4.06l.44-3.79c.32-2.74-.47-3.95-2.62-3.95h-2.91Z"></path><path class="cls-6" d="M492.11.92c5.87,0,8.48,3.51,7.77,9.66l-.14,1.21h-5.71l.18-1.59c.32-2.74-.66-3.79-2.58-3.79s-3.14,1.04-3.46,3.79c-.91,7.9,10.71,9.38,9.44,20.35-.71,6.14-4.19,9.66-10.12,9.66s-8.59-3.51-7.88-9.66l.27-2.36h5.71l-.32,2.74c-.32,2.74.77,3.73,2.7,3.73s3.24-.99,3.56-3.73c.91-7.9-10.71-9.38-9.44-20.35.71-6.14,4.13-9.66,10-9.66Z"></path><path class="cls-7" d="M188.85,67.97l-2.13,18.44h9.84l-.52,4.53h-15.03l2.66-22.97h5.19Z"></path><path class="cls-7" d="M256.95,79.46c-.77,6.63-6.67,11.72-13.7,11.72s-11.75-5.05-10.98-11.72,6.66-11.65,13.69-11.65,11.76,4.99,10.99,11.65ZM237.59,79.46c-.47,4.04,2.42,7.19,6.26,7.19s7.32-3.15,7.79-7.19c.47-4.04-2.29-7.12-6.13-7.12s-7.45,3.08-7.91,7.12Z"></path><path class="cls-7" d="M299.88,67.97l9.45,14.77,1.71-14.77h4.92l-2.66,22.97h-4.73l-9.42-14.74-1.7,14.74h-4.96l2.66-22.97h4.73Z"></path><path class="cls-7" d="M374.97,79.46c-.78,6.76-6.35,11.49-13.6,11.49h-9.55l2.66-22.97h9.75c7.12,0,11.53,4.69,10.75,11.49ZM369.68,79.49c.49-4.23-2.13-7.15-6.06-7.15h-4.46l-1.65,14.24h4.69c3.84,0,7-2.89,7.48-7.09Z"></path><path class="cls-7" d="M434.29,79.46c-.77,6.63-6.67,11.72-13.69,11.72s-11.75-5.05-10.98-11.72c.77-6.7,6.66-11.65,13.69-11.65s11.76,4.99,10.99,11.65ZM414.93,79.46c-.47,4.04,2.42,7.19,6.26,7.19s7.32-3.15,7.79-7.19c.47-4.04-2.29-7.12-6.13-7.12s-7.45,3.08-7.91,7.12Z"></path><path class="cls-7" d="M477.22,67.97l9.45,14.77,1.71-14.77h4.92l-2.66,22.97h-4.73l-9.42-14.74-1.7,14.74h-4.96l2.66-22.97h4.72Z"></path></g><polygon class="cls-5" points="494.84 54.7 185.2 54.7 185.39 53.04 495.03 53.04 494.84 54.7"></polygon><polygon class="cls-1" points="149.24 20.46 111.98 20.46 108.13 54.5 114.48 37.64 136.6 37.64 144.23 57.82 142.4 73.99 1.95 73.99 0 91.17 157.63 91.17 161.86 53.82 149.24 20.46"></polygon><path class="cls-3" d="M19.6,18.1h-11.33L10.23.92h21.92c-3.37,3.98-8.24,10.17-12.54,17.18ZM48.45.92c3.37,3.98,8.24,10.17,12.54,17.18h36.24l7.89,36.4L111.18.92h-62.74Z"></path><path class="cls-4" d="M40.29,24.75c-10.62,0-19.26,8.64-19.26,19.26s8.64,19.26,19.26,19.26,19.26-8.64,19.26-19.26-8.64-19.26-19.26-19.26ZM46.66,60.25c-.44.17-.89-.2-.83-.66.31-2.17,1.44-4.13,3.1-5.56,2.81-2.42,4.59-6.01,4.59-10.01,0-4.43-2.18-8.35-5.53-10.75-.68-.49-1.63,0-1.63.83v10.43c0,.37-.2.7-.51.89l-5.05,2.91c-.32.18-.71.18-1.02,0l-5.05-2.91c-.32-.18-.51-.52-.51-.89v-10.43c0-.84-.95-1.32-1.63-.83-3.35,2.4-5.53,6.32-5.53,10.75,0,4,1.78,7.59,4.59,10.01,1.66,1.43,2.79,3.39,3.1,5.56h0c.07.46-.39.83-.82.66-6.66-2.61-11.32-9.2-11.07-16.84.31-9.24,7.92-16.7,17.16-16.84,9.76-.15,17.71,7.72,17.71,17.44,0,7.39-4.59,13.7-11.08,16.24Z"></path><path class="cls-8" d="M40.29.48s-24.15,25.94-24.15,43.54c0,13.34,10.81,24.15,24.15,24.15s24.15-10.81,24.15-24.15C64.45,26.41,40.29.48,40.29.48ZM40.29,65c-11.57,0-20.98-9.41-20.98-20.98s9.41-20.98,20.98-20.98,20.98,9.41,20.98,20.98-9.41,20.98-20.98,20.98Z"></path></svg>