<svg width="354" height="124" xmlns="http://www.w3.org/2000/svg" xmlns:xlink="http://www.w3.org/1999/xlink"><defs><path id="a" d="M0 132.037V0h117.171v132.037z"/></defs><g fill="none" fill-rule="evenodd"><g transform="rotate(-98 59.207 59.791)"><mask id="b" fill="#fff"><use xlink:href="#a"/></mask><path d="M46.624 68.994l-3.466 2.304a9.296 9.296 0 0 0 2.004 2.227c1.05.85 2.19 1.441 3.424 1.773a9.96 9.96 0 0 0 3.657.308 9.957 9.957 0 0 0 3.513-1.062c1.138-.582 2.131-1.397 2.98-2.447a9.28 9.28 0 0 0 1.747-3.398c.348-1.254.459-2.486.332-3.692a10.008 10.008 0 0 0-1.061-3.517 9.21 9.21 0 0 0-2.444-2.985 9.303 9.303 0 0 0-3.393-1.748c-1.254-.347-2.483-.459-3.687-.333-1.205.127-2.384.492-3.538 1.094a9.284 9.284 0 0 0-2.956 2.416l3.266 2.648c.947-1.17 2.169-1.834 3.664-1.992 1.497-.157 2.83.238 4 1.186 1.169.949 1.832 2.173 1.989 3.67.157 1.497-.238 2.832-1.184 4.002-.948 1.172-2.17 1.836-3.665 1.993-1.496.159-2.829-.238-3.999-1.186a6.526 6.526 0 0 1-1.183-1.26m24.705 2.887c.754-2.665.99-5.35.704-8.052a21.296 21.296 0 0 0-2.33-7.706c-1.27-2.434-3.034-4.566-5.293-6.397-2.217-1.798-4.657-3.075-7.32-3.829a21.148 21.148 0 0 0-8.042-.705 21.137 21.137 0 0 0-7.721 2.364c-2.447 1.291-4.568 3.048-6.364 5.269l3.387 2.746c1.437-1.777 3.135-3.174 5.094-4.193 1.96-1.018 3.997-1.64 6.113-1.862 2.118-.223 4.24-.04 6.367.549 2.128.588 4.079 1.603 5.853 3.04 1.775 1.44 3.17 3.139 4.187 5.1 1.018 1.962 1.639 4.002 1.86 6.122.224 2.119.04 4.244-.548 6.374-.587 2.13-1.6 4.083-3.037 5.86-1.339 1.655-2.896 2.983-4.674 3.983a16.816 16.816 0 0 1-5.602 1.975c-1.96.317-3.926.293-5.902-.072-1.975-.364-3.85-1.1-5.627-2.206l-2.222 3.614c2.213 1.393 4.552 2.32 7.016 2.78 2.466.46 4.93.489 7.396.08a21.057 21.057 0 0 0 7.04-2.513c2.23-1.27 4.176-2.933 5.841-4.992 1.796-2.221 3.071-4.664 3.824-7.329m-11.105-36.73c-4.105-1.157-8.201-1.52-12.29-1.09-4.085.43-8.017 1.638-11.794 3.624-3.775 1.986-7.051 4.694-9.827 8.126l3.448 2.796c2.416-2.989 5.25-5.336 8.501-7.045 3.253-1.71 6.648-2.75 10.188-3.122 3.54-.373 7.078-.062 10.612.933 3.537.995 6.796 2.702 9.78 5.121a26.593 26.593 0 0 1 3.638 3.551l3.31-2.73c-1.35-1.631-2.773-3.051-4.266-4.261-3.427-2.78-7.193-4.747-11.3-5.903m8.55-8.962a43.425 43.425 0 0 0-10.843-3.126 43.807 43.807 0 0 0-11.121-.242 43.806 43.806 0 0 0-10.828 2.552c-3.495 1.31-6.814 3.082-9.956 5.315-3.141 2.232-5.97 4.903-8.484 8.012l3.448 2.796c3.363-4.16 7.336-7.44 11.916-9.843 4.581-2.402 9.334-3.863 14.26-4.381 4.926-.52 9.88-.08 14.86 1.317 4.98 1.397 9.546 3.78 13.7 7.146 2.54 2.06 4.735 4.342 6.584 6.844a40.58 40.58 0 0 1 4.596 7.938 38.637 38.637 0 0 1 2.623 8.645c.535 2.973.72 5.963.555 8.973l4.727.223a43.563 43.563 0 0 0-.664-10.015 43.998 43.998 0 0 0-2.921-9.639 43.866 43.866 0 0 0-5.132-8.823c-2.082-2.792-4.534-5.332-7.358-7.62-3.105-2.518-6.425-4.543-9.962-6.072m4.34-10.32c-4.425-1.916-8.962-3.221-13.61-3.914a55.167 55.167 0 0 0-13.977-.302 55.254 55.254 0 0 0-13.61 3.204 54.35 54.35 0 0 0-12.498 6.663c-3.93 2.796-7.48 6.152-10.648 10.069l3.569 2.893c2.907-3.593 6.17-6.679 9.791-9.258 3.623-2.578 7.448-4.626 11.475-6.139a50.415 50.415 0 0 1 12.502-2.95 50.397 50.397 0 0 1 12.841.283c4.256.642 8.421 1.847 12.5 3.616 4.078 1.769 7.911 4.108 11.5 7.018 4.557 3.695 8.287 7.938 11.187 12.73 2.902 4.792 4.952 9.832 6.152 15.117 1.2 5.285 1.527 10.68.98 16.187a50.174 50.174 0 0 1-4.282 15.881l3.952 1.8a53.318 53.318 0 0 0 4.637-17.248c.571-5.989.202-11.87-1.105-17.642-1.306-5.772-3.535-11.273-6.686-16.501-3.148-5.228-7.204-9.853-12.164-13.874-3.911-3.171-8.08-5.716-12.506-7.633m16.518 103.843c4.737-3.38 9.015-7.432 12.836-12.155 3.82-4.724 6.89-9.757 9.206-15.098 2.318-5.341 3.9-10.827 4.747-16.458.848-5.63.978-11.257.387-16.884a66.343 66.343 0 0 0-3.884-16.436c-1.998-5.33-4.686-10.367-8.06-15.11-3.377-4.741-7.423-9.025-12.142-12.85-4.718-3.826-9.744-6.899-15.08-9.219C72.309 3.183 66.83 1.6 61.207.75A66.15 66.15 0 0 0 44.342.364a66.173 66.173 0 0 0-16.416 3.888c-5.323 2.002-10.354 4.691-15.09 8.072C8.099 15.703 3.82 19.755 0 24.479l3.75 3.04c3.527-4.36 7.497-8.11 11.907-11.254 4.41-3.142 9.084-5.638 14.018-7.487a61.83 61.83 0 0 1 15.283-3.603 61.826 61.826 0 0 1 15.697.343c5.211.781 10.3 2.25 15.266 4.406 4.967 2.154 9.628 4.998 13.984 8.529 4.395 3.564 8.153 7.546 11.27 11.946 3.119 4.4 5.601 9.07 7.447 14.01a61.96 61.96 0 0 1 3.6 15.302 60.849 60.849 0 0 1-.374 15.692c-.8 5.2-2.277 10.288-4.43 15.26-2.152 4.974-4.992 9.64-8.52 14.001-3.558 4.4-7.535 8.163-11.93 11.284l2.664 3.765z" fill="#F45F56" mask="url(#b)"/></g><path d="M122.305 73.523H106.61V69.1h14.597v-7.44H106.61v-4.072h15.696v-7.44h-24.05v30.816h24.05v-7.44zm34.141-23.375h-8.727l-7.343 22.076-7.343-22.076h-8.859l11.212 30.815h9.848l11.212-30.815zm17.477-.573c9.52 0 16.268 6.78 16.268 15.98s-6.749 15.98-16.268 15.98c-9.519 0-16.268-6.78-16.268-15.98s6.75-15.98 16.268-15.98zm0 8.012c-4.484 0-7.584 3.258-7.584 7.968s3.1 7.968 7.584 7.968c4.485 0 7.585-3.258 7.585-7.968s-3.1-7.968-7.585-7.968zM216.66 73.26h-14.817V50.148h-8.354v30.815h23.17v-7.704zm29.678-23.111h-8.376v18.004c0 3.544-2.022 5.371-5.254 5.371-3.232 0-5.254-1.827-5.254-5.37V50.147h-8.376v18.247c0 8.386 4.793 13.14 13.63 13.14 8.838 0 13.63-4.754 13.63-13.14V50.148zm28.271 0h-25.853v7.703h8.75v23.112h8.354V57.85h8.75v-7.703zm10.992 0h-8.354v30.815h8.354V50.148zm19.566-.573c9.519 0 16.268 6.78 16.268 15.98s-6.75 15.98-16.268 15.98c-9.52 0-16.268-6.78-16.268-15.98s6.749-15.98 16.268-15.98zm0 8.012c-4.485 0-7.585 3.258-7.585 7.968s3.1 7.968 7.585 7.968c4.484 0 7.584-3.258 7.584-7.968s-3.1-7.968-7.584-7.968zm48.738-7.44h-8.354V67.47l-12.685-17.322h-8.134v30.815h8.354V63.64l12.685 17.323h8.134V50.148zM106.609 86.1h-8.354v30.815h8.354v-11.732h11.388v11.732h8.353V86.099h-8.353V97.5h-11.388V86.1zm48.188 23.375h-15.696v-4.424h14.597v-7.44h-14.597v-4.072h15.696v-7.44h-24.05v30.816h24.05v-7.44zm23.37-23.375l11.65 30.815h-8.859l-2.044-5.877h-11.498l-2.022 5.877h-8.728L168.317 86.1h9.85zm-4.991 8.364l-3.166 9.112h6.31l-3.144-9.112zM216.22 86.1h-25.853v7.703h8.75v23.112h8.354V93.802h8.75V86.1zm10.992 0h-8.354v30.815h8.354V86.099zm33.57 0h-8.355v17.322L239.743 86.1h-8.134v30.815h8.354V99.59l12.684 17.323h8.134V86.099zm19.785-.573c-9.673 0-16.488 6.604-16.488 15.98 0 9.355 6.815 15.958 16.488 15.958 7.232 0 14.86-5.15 14.86-15.43 0-.88-.043-1.804-.175-2.773h-15.3v6.12h7.21c-.88 3.015-3.1 4.533-6.969 4.533-3.935 0-7.562-2.795-7.562-8.408 0-4.82 3.077-8.166 7.43-8.166 2.616 0 4.485.903 5.87 2.267l5.891-5.81c-2.616-2.664-6.375-4.27-11.255-4.27z" fill="#0F1729"/></g></svg>